<?xml version="1.0" encoding="UTF-8"?>
<svg id="Old_Letters" data-name="Old Letters" xmlns="http://www.w3.org/2000/svg" width="56.58" height="61.51" viewBox="0 0 56.58 61.51">
  <path d="M19.72,25.45c0,1.51,4.35,2.94,8.61,3.01,4.27-.07,8.61-1.51,8.61-3.01,0-1.51-4.35-2.94-8.61-3.01-4.27,.07-8.61,1.51-8.61,3.01Z"/>
  <path d="M9.71,25.37c0,6.95,10.43,13.01,14.48,13.01v2.83c-5.07,0-20.74-7.88-20.74-15.76s13-15.92,26.01-15.92v10.9h-2.71s.3-7.7-3.36-7.7c-.86,0-2.43,.29-3.81,.96-4.59,2.17-9.86,6.41-9.86,11.69Z"/>
  <path d="M46.95,25.53c0-6.95-10.43-13.01-14.48-13.01v-2.83c5.07,0,20.74,7.88,20.74,15.76s-13,15.92-26.01,15.92v-10.9h2.71s-.3,7.7,3.36,7.7c.86,0,2.43-.29,3.81-.96,4.59-2.17,9.86-6.41,9.86-11.69Z"/>
</svg>