<?xml version="1.0" encoding="UTF-8"?>
<svg id="New_Letters" data-name="New Letters" xmlns="http://www.w3.org/2000/svg" width="56.74" height="61.51" viewBox="0 0 56.74 61.51">
  <path d="M42.38,32.02c0-3.6-7.36-9.93-14.51-9.93s-14.51,6.32-14.51,9.93,7.36,9.93,14.51,9.93c1.6,0,3.21-.33,4.75-.86,2.95,2.71,6.67,4.52,7.66,3.52,.85-.85-.34-3.69-2.39-6.34,2.68-2.02,4.49-4.46,4.49-6.25Zm-23.69,0c0-3.05,3.23-7.62,9.18-7.62s9.18,4.56,9.18,7.62c0,1.17-.48,2.56-1.4,3.84-2.88-2.51-6.32-4.13-7.28-3.17-.87,.87,.4,3.82,2.54,6.52-.92,.28-1.93,.44-3.04,.44-5.95,0-9.18-4.56-9.18-7.62Z"/>
</svg>