<?xml version="1.0" encoding="UTF-8"?>
<svg id="Old_Letters" data-name="Old Letters" xmlns="http://www.w3.org/2000/svg" width="56.74" height="61.51" viewBox="0 0 56.74 61.51">
  <path d="M41.59,22.45h-4.51v1.19c.84,0,1.62,.77,1.62,.77,0,1.95-1.94,2.76-2.83,2.76s-5.17,.5-6.91,1.39h-1.08c-1.74-.89-6.02-1.39-6.91-1.39s-2.83-.8-2.83-2.76c0,0,.79-.77,1.62-.77v-1.19h-4.51s1.08,3.46,.78,6.69c9.58,0,9.95,4.97,9.95,7.05v3.46c-.5,.27-1.09,.48-1.81,.59,.95,.81,2.84,1.15,4.26,1.15s3.31-.34,4.26-1.15c-.72-.11-1.31-.32-1.81-.59v-3.46c0-2.08,.37-7.05,9.95-7.05-.3-3.23,.78-6.69,.78-6.69Z"/>
</svg>