<?xml version="1.0" encoding="UTF-8"?>
<svg id="New_Letters" data-name="New Letters" xmlns="http://www.w3.org/2000/svg" width="56.66" height="61.51" viewBox="0 0 56.66 61.51">
  <path d="M40.34,39.87s7.69-10.75-12.01-10.75c-19.71,0-12.01,10.75-12.01,10.75-.88,1.01-2.65,1.43-3.98,1.43s-3.09-.42-3.98-1.43c2.65-4.82,2.65-24.12,0-28.95,.88-1.01,2.65-1.43,3.98-1.43s3.09,.42,3.98,1.43c0,0-7.29,13.64,12.01,13.64,19.3,0,12.01-13.64,12.01-13.64,.88-1.01,2.65-1.43,3.98-1.43s3.09,.42,3.98,1.43c-2.65,4.82-2.65,24.12,0,28.95-.88,1.01-2.65,1.43-3.98,1.43s-3.09-.42-3.98-1.43Z"/>
</svg>