<?xml version="1.0" encoding="UTF-8"?>
<svg id="New_Letters" data-name="New Letters" xmlns="http://www.w3.org/2000/svg" width="56.5" height="61.51" viewBox="0 0 56.5 61.51">
  <path d="M15.28,23.89c.22,6.65-.66,13.79-2.62,16.47,1.18,1.01,3.54,1.43,5.31,1.43s4.13-.42,5.31-1.43c-1.91-2.6-2.79-9.41-2.64-15.89l21.42,16.32,6.87-4.99-2.9-2.57c-3.43,2.62-5.48,2.45-16.69-7.62-.66-.59-.99-1.02-.99-1.02,8.11-.34,16.61-2.35,23.59-7.95C36.53,4.26,13.67,9.38,4,11.47l10.16,2.29c5.67-1.18,20.97-4.13,30.02,2.88-8.5,6.59-22.52,4.39-28.89,3.12v4.14Z"/>
  <path d="M19.59,16.6c0,1.01,4.35,1.97,8.61,2.02,4.27-.05,8.61-1.01,8.61-2.02,0-1.01-4.35-1.97-8.61-2.02-4.27,.05-8.61,1.01-8.61,2.02Z"/>
</svg>