<?xml version="1.0" encoding="UTF-8"?>
<svg id="New_Letters" data-name="New Letters" xmlns="http://www.w3.org/2000/svg" width="56.83" height="61.51" viewBox="0 0 56.83 61.51">
  <path d="M51.59,11.01c-12.62,3.82-34.07,1.01-47.77-1.59,9.06,6.35,6.25,24.6,1.51,30.83,17.6-5.32,34.44,.9,47.18,7-9.6-13.03-7.56-29.22-.93-36.24ZM11.54,35.52c1.89-5.05,3.06-15.19-.54-21.89,7.76,1.39,22.56,3.79,34.19,1.67-1.34,2.44-2.85,6.77-3.07,11.88l-10.53,8.81c-6.2-1.34-12.95-1.93-20.05-.47Zm25.07,1.73l5.77-4.83c.34,2.38,1.01,4.85,2.14,7.31-2.49-.83-5.13-1.7-7.91-2.48Z"/>
</svg>