<?xml version="1.0" encoding="UTF-8"?>
<svg id="New_Letters" data-name="New Letters" xmlns="http://www.w3.org/2000/svg" width="56.66" height="61.51" viewBox="0 0 56.66 61.51">
  <path d="M42.26,28.03c-5.73-3.6-20.68-6.41-28.61-3.6,4.24,3.37,4.71,12.56,0,15.63,7.93,2.81,22.88,0,28.61-3.6-2.89-2.11-9.31-4.21-15.73-4.21,6.42,0,12.84-2.11,15.73-4.21Zm-19.53-2.17s6.9,.19,8.28,2.06c-2.49,1.42-7.28,2.03-7.28,2.03-1.63-.82-2.09-3-1-4.09Zm8.28,10.71c-1.38,1.87-8.28,2.06-8.28,2.06-1.09-1.09-.64-3.27,1-4.09,0,0,4.79,.61,7.28,2.03Z"/>
</svg>