<?xml version="1.0" encoding="UTF-8"?>
<svg id="Old_Letters" data-name="Old Letters" xmlns="http://www.w3.org/2000/svg" width="56.58" height="61.51" viewBox="0 0 56.58 61.51">
  <path d="M16.91,39.65c-.5,.54-1.1,.93-1.81,1.15,.95,.81,2.84,1.15,4.26,1.15s3.31-.34,4.26-1.15c-.71-.22-1.32-.61-1.81-1.15v-.52c-.07-6.77,.82-9.75,2.23-11.99s4.95-2.77,6.39-2.77c1.43,0,5.27,.66,6.39,2.77,0,4.39-5.04,4.75-12.55,3.49v1s9.1,2.96,15.24,2.08c0,0,.69-5.76,3.06-8.33,0,0-6.07-3.56-14.21-3.56s-12.91,3.4-12.91,3.4c.58,.18,1.08,.51,1.49,.93,0,0,0,9.88,0,13.49Z"/>
</svg>