<?xml version="1.0" encoding="UTF-8"?>
<svg id="New_Letters" data-name="New Letters" xmlns="http://www.w3.org/2000/svg" width="56.63" height="61.51" viewBox="0 0 56.63 61.51">
  <path d="M35.08,32.09c7.96-3.57,7.1-9.49,7.1-9.49-4.91,4.3-12.05,6.69-17.78,8,.26-2.42,1.1-4.78,2.57-6.77-1.18-1.01-3.54-1.43-5.31-1.43s-4.13,.42-5.31,1.43c1.72,2.35,2.6,5.21,2.65,8.08v.43c-.04,2.89-.92,5.76-2.65,8.12,1.18,1.01,3.54,1.43,5.31,1.43s4.13-.42,5.31-1.43c-1.47-2.01-2.32-4.39-2.57-6.83,5.38,1.27,12.02,3.54,17.01,7.55,0,0,2.58-5.69-6.32-9.09Z"/>
</svg>