<?xml version="1.0" encoding="UTF-8"?>
<svg id="New_Letters" data-name="New Letters" xmlns="http://www.w3.org/2000/svg" width="56.58" height="61.51" viewBox="0 0 56.58 61.51">
  <path d="M42.72,25.12c21.95-8.3-7.84-14.78-22.32-14.46,0,0,0,0,0-.01-1.18-1.01-3.54-1.43-5.31-1.43s-7.8,.42-8.98,1.43c5.28,3.36,6.22,7.93,6.31,13.52l5.38-1.63c.13-3.02,.49-5.89,1.07-8.17,7.91-.78,22.33,3.04,25.22,5.43,0,0-5.78,2.99-13.56,2.99-10.51,0-15.89,2.34-15.89,2.34,0,0,5.38,2.34,15.89,2.34,7.79,0,13.56,2.99,13.56,2.99-2.89,2.39-17.31,6.21-25.22,5.43-.58-2.28-.94-5.16-1.07-8.17h0l-5.38-1.63c-.04,5.64-.5,10.61-3.73,13.51,1.18,1.01,4.62,1.43,6.39,1.43s4.13-.42,5.31-1.43c0,0,0,0,0-.01,14.48,.31,44.27-6.16,22.32-14.46Z"/>
</svg>