<?xml version="1.0" encoding="UTF-8"?>
<svg xmlns="http://www.w3.org/2000/svg" width="56.6" height="61.51" viewBox="0 0 56.6 61.51">
  <g id="Old_Letters" data-name="Old Letters">
    <path d="M33.15,32.83c-3.31,2.04-6.62,2.04-9.93,0,3.31,2.72,3.31,5.43,0,8.15,3.31-2.04,6.62-2.04,9.93,0-3.31-2.72-3.31-5.43,0-8.15Zm-3.9,4.95h-2.12v-1.74h2.12v1.74Z"/>
  </g>
  <g id="New_Letters" data-name="New Letters">
    <path d="M25.24,10.2c.65-.73,1.96-1.04,2.95-1.04s2.29,.3,2.95,1.04c-1.96,3.49-1.96,17.43,0,20.91-.65,.73-1.96,1.04-2.95,1.04s-2.29-.3-2.95-1.04c1.96-3.49,1.96-17.43,0-20.91Z"/>
  </g>
</svg>