<?xml version="1.0" encoding="UTF-8"?>
<svg id="Old_Letters" data-name="Old Letters" xmlns="http://www.w3.org/2000/svg" width="56.58" height="61.56" viewBox="0 0 56.58 61.56">
  <path d="M31.91,41.93c-1.83-2.98-1.83-5.95,0-8.92-2.44,2.98-4.88,2.98-7.33,0,1.83,2.98,1.83,5.95,0,8.92,2.44-2.98,4.88-2.98,7.33,0Zm-4.45-3.51v-1.91h1.57v1.91h-1.57Z"/>
  <path d="M31.91,29.04c-1.83-2.98-1.83-5.95,0-8.92-2.44,2.98-4.88,2.98-7.33,0,1.83,2.98,1.83,5.95,0,8.92,2.44-2.98,4.88-2.98,7.33,0Zm-4.45-3.51v-1.91h1.57v1.91h-1.57Z"/>
</svg>