<?xml version="1.0" encoding="UTF-8"?>
<svg id="New_Letters" data-name="New Letters" xmlns="http://www.w3.org/2000/svg" width="56.64" height="61.51" viewBox="0 0 56.64 61.51">
  <path d="M44.75,33.88c.3-.76,.43-1.56,.26-2.37l-2.04-1.71c.22,1.01-.07,1.99-.56,2.91-2.96-1.66-6.6-4.22-10.22-7.12,3.62-2.9,7.26-5.46,10.22-7.12,.49,.92,.77,1.9,.56,2.91l2.04-1.71c.17-.81,.04-1.6-.26-2.37,.64-.28,1.23-.49,1.74-.62,.36-1.7-.57-3.69-1.59-4.92-1.03-1.22-2.83-2.49-4.57-2.42-.2,.45-.52,.99-.93,1.6-.7-.42-1.45-.69-2.27-.66l-2.04,1.71c1.02-.04,1.92,.4,2.73,1.03-2.72,3.27-6.84,6.97-9.41,6.97s-6.69-3.7-9.41-6.97c.81-.63,1.71-1.07,2.73-1.03l-2.04-1.71c-.82-.03-1.57,.24-2.27,.66-.41-.6-.73-1.15-.93-1.6-1.73-.06-3.54,1.2-4.57,2.42-1.03,1.22-1.96,3.22-1.59,4.92,.51,.13,1.1,.34,1.74,.62-.3,.76-.43,1.56-.26,2.37l2.04,1.71c-.22-1.01,.07-1.99,.56-2.91,2.96,1.66,6.6,4.22,10.22,7.12-3.62,2.9-7.26,5.46-10.22,7.12-.49-.92-.77-1.9-.56-2.91l-2.04,1.71c-.17,.81-.04,1.6,.26,2.37-.64,.28-1.23,.49-1.74,.62-.36,1.7,.57,3.69,1.59,4.92,1.03,1.22,2.83,2.49,4.57,2.42,.2-.45,.52-1,.93-1.6,.7,.42,1.45,.69,2.27,.66l2.04-1.71c-1.02,.04-1.92-.4-2.74-1.03,2.7-3.26,6.78-6.95,9.27-6.95,2.71,0,6.84,3.68,9.56,6.95-.81,.63-1.72,1.07-2.73,1.03l2.04,1.71c.82,.03,1.57-.24,2.27-.66,.41,.6,.73,1.15,.93,1.6,1.73,.06,3.54-1.2,4.57-2.42,1.03-1.22,1.96-3.22,1.59-4.92-.51-.13-1.1-.34-1.74-.62Z"/>
</svg>