<?xml version="1.0" encoding="UTF-8"?>
<svg id="New_Letters" data-name="New Letters" xmlns="http://www.w3.org/2000/svg" width="56.3" height="61.51" viewBox="0 0 56.3 61.51">
  <path d="M3.07,33.32c8.96,9.78,34.58,9.54,49.62,2.56l-5.06-4.99-3.46,.56c3.59,6.36-15.39,7.88-20.07,5.65-3.68-1.61-2.29-8.68,2.32-8.83,13.23-.43,22.47-1.73,22.47-1.73,0,0-9.12-1.78-22.62-2.17-4.48-.13-8.63-7.44-4.73-9.63s25.76,.44,18.61,6.56l5.1,.96,5.79-4.2C39,6.87,14.26,7.14,4.06,17.25c15.26,1.99,19.23,14.81-.99,16.07Z"/>
</svg>