<?xml version="1.0" encoding="UTF-8"?>
<svg id="New_Letters" data-name="New Letters" xmlns="http://www.w3.org/2000/svg" width="56.45" height="61.51" viewBox="0 0 56.45 61.51">
  <path d="M51.93,9.67c-4.62-.21-10.09,.93-13.74,4.35l2.36,2.46c12.32-7.63,5.77,10.03,1.48,16.25v3.85h-2.96v-2.98c-3.4-2.63-8.61-10.11-11.02-14.63-2.41,4.51-7.62,11.99-11.02,14.63v2.98h-2.96v-3.85c-4.29-6.21-10.84-23.88,1.48-16.25l2.36-2.46c-3.65-3.43-9.13-4.56-13.74-4.35-1.83,10.62,3.22,27.6,11.38,31.85,4.06-1.69,10.16-9.66,12.5-14.68,2.34,5.02,8.43,12.99,12.5,14.68,8.16-4.24,13.21-21.22,11.38-31.85Z"/>
</svg>