<?xml version="1.0" encoding="UTF-8"?>
<svg id="New_Letters" data-name="New Letters" xmlns="http://www.w3.org/2000/svg" width="56.58" height="61.51" viewBox="0 0 56.58 61.51">
  <path d="M37.13,36.39c-1.04-.87-2.94-2.47-5.07-4.26l5.07-4.26c.89-.1,1.69,.01,2.39,.36,.25-1.44-.61-3.19-1.53-4.28-.91-1.09-2.49-2.24-3.95-2.25,.22,.75,.19,1.56-.06,2.42-1.15,.96-3.34,2.8-5.73,4.81-2.39-2.01-4.59-3.85-5.73-4.81-.25-.86-.28-1.67-.06-2.42-1.46,0-3.04,1.16-3.95,2.25-.91,1.09-1.77,2.84-1.53,4.28,.7-.35,1.5-.46,2.39-.36l5.07,4.26c-2.13,1.79-4.03,3.38-5.07,4.26-.89,.1-1.69-.01-2.39-.36-.25,1.44,.61,3.19,1.53,4.28,.91,1.09,2.49,2.24,3.95,2.25-.22-.75-.19-1.56,.06-2.42l5.73-4.81,5.73,4.81c.25,.86,.28,1.67,.06,2.42,1.46,0,3.04-1.16,3.95-2.25,.91-1.09,1.77-2.84,1.53-4.28-.7,.35-1.5,.46-2.39,.36Z"/>
</svg>