<?xml version="1.0" encoding="UTF-8"?>
<svg id="New_Letters" data-name="New Letters" xmlns="http://www.w3.org/2000/svg" width="56.58" height="61.51" viewBox="0 0 56.58 61.51">
  <path d="M43.27,24.49c-4.27,.07-8.61,1.51-8.61,3.01s4.35,2.94,8.61,3.01c.97-.02,1.96-.09,2.88-.23-2.59,3.49-7.83,6.18-13,6.36-5.91-.2-11.9-3.66-13.95-7.86h-4.36v-4.3h3.78c1.05-4.93,7.84-9.33,14.53-9.57,0,0,10.63,.18,17.65,2.57,.77-.9,1.09-2.69,1.09-4.03s-.32-3.14-1.09-4.03c-3.54,3.17-18.07,.74-22.55,1.13-8.48,.73-21.84,9.62-25.05,15.82,3.21,5.66,19.55,14.43,28.05,14.43,12.54,0,20.64-3.15,20.64-13.29,0-1.51-4.35-2.94-8.61-3.01Z"/>
</svg>