<?xml version="1.0" encoding="UTF-8"?>
<svg id="New_Letters" data-name="New Letters" xmlns="http://www.w3.org/2000/svg" width="56.65" height="61.51" viewBox="0 0 56.65 61.51">
  <path d="M41.62,34.27c-.95,.38-3.78,.64-7.28,.78-1.97-5.54-1.97-13.76,0-19.3,3.49,.14,6.33,.4,7.28,.79,2.15-1.19,2.82-3.5,2.82-3.5-1.07-.55-4.15-.93-8.01-1.15,.31-.37,.63-.69,.98-.97-2.01-1.01-6.04-1.43-9.06-1.43s-7.05,.42-9.06,1.43c.34,.27,.66,.59,.96,.95-4.01,.21-7.21,.6-8.32,1.17,0,0,.67,2.3,2.82,3.48,.98-.39,3.95-.66,7.59-.79,1.97,5.54,1.97,13.78,0,19.32-3.64-.13-6.61-.4-7.59-.8-2.15,1.19-2.82,3.5-2.82,3.5,1.1,.56,4.31,.95,8.32,1.17-.3,.36-.62,.68-.96,.95,2.01,1.01,6.04,1.43,9.06,1.43s7.05-.42,9.06-1.43c-.35-.28-.67-.6-.98-.97,3.86-.22,6.94-.6,8.01-1.15,0,0-.67-2.3-2.82-3.48Z"/>
</svg>