<?xml version="1.0" encoding="UTF-8"?>
<svg xmlns="http://www.w3.org/2000/svg" width="56.62" height="61.51" viewBox="0 0 56.62 61.51">
  <g id="Old_Letters" data-name="Old Letters">
    <path d="M28.05,32.73c-3.5,2.16-6.99,2.16-10.49,0,3.5,2.87,3.5,5.74,0,8.61,3.5-2.16,6.99-2.16,10.49,0-3.5-2.87-3.5-5.74,0-8.61Zm-4.12,5.23h-2.25v-1.84h2.25v1.84Z"/>
  </g>
  <g id="New_Letters" data-name="New Letters">
    <path d="M40.35,17.4c0-5.47-7.83-9.9-17.49-9.9-2.29,0-4.48,.25-6.48,.7l2.66,3.86,1.27-.47c-.57-1.05,0-1.87,1.48-2.12,.35-.02,.71-.03,1.07-.03,7.3,0,13.22,3.57,13.22,7.96,0,4.04-5,7.37-11.47,7.89l-2.92,.05c.7,1.25,.65,5.13,0,6.21,.26,.22,.78,.32,1.17,.32s.91-.09,1.17-.32c-.24-3.94,1.8-3.72,6.81-5.34,.98-.29,1.92-.62,2.78-1.01,.05-.02,.09-.03,.14-.05h-.01c4.02-1.81,6.6-4.6,6.6-7.74Z"/>
  </g>
</svg>