<?xml version="1.0" encoding="UTF-8"?>
<svg id="New_Letters" data-name="New Letters" xmlns="http://www.w3.org/2000/svg" width="56.65" height="61.51" viewBox="0 0 56.65 61.51">
  <path d="M49.18,36.95c-2.11-5.86-10.35-7.34-10.97-12.74-.53-4.61,6.09-7.89,9.51-10.08,2.14-.34,3.68-.86,3.68-1.4,0-.9-4.35-1.76-8.61-1.81-4.27,.04-8.61,.9-8.61,1.81,0,.7,2.6,1.37,5.75,1.66-4.48,4.23-16.56,7.46-25.12,7.89,.25-4.89,1.11-9.36,2.58-11.35-1.18-1.01-3.54-1.43-5.31-1.43s-4.13,.42-5.31,1.43c3.54,4.82,3.54,24.12,0,28.95,1.18,1.01,3.54,1.43,5.31,1.43s4.13-.42,5.31-1.43c-1.7-2.31-2.58-7.95-2.65-13.73,8.46,.46,20.59,4,25.9,10.21-3.45,.25-6.45,.97-6.45,1.72,0,.9,4.35,1.76,8.61,1.81,4.27-.04,8.61-.9,8.61-1.81,0-.4-.88-.8-2.22-1.12Z"/>
</svg>