<?xml version="1.0" encoding="UTF-8" standalone="no"?>
<svg
   sodipodi:docname="114mm Gauss 3.svg"
   id="svg8"
   version="1.1"
   viewBox="0 0 71.844185 71.844191"
   height="71.844193mm"
   width="71.844193mm"
   inkscape:version="1.1 (c68e22c387, 2021-05-23)"
   inkscape:export-filename="C:\Users\SN\GitHub\SuperNova-Shipyard-Source\Oulines - Projectiles\114mm Gauss 4.png"
   inkscape:export-xdpi="96"
   inkscape:export-ydpi="96"
   xmlns:inkscape="http://www.inkscape.org/namespaces/inkscape"
   xmlns:sodipodi="http://sodipodi.sourceforge.net/DTD/sodipodi-0.dtd"
   xmlns="http://www.w3.org/2000/svg"
   xmlns:svg="http://www.w3.org/2000/svg"
   xmlns:rdf="http://www.w3.org/1999/02/22-rdf-syntax-ns#"
   xmlns:cc="http://creativecommons.org/ns#"
   xmlns:dc="http://purl.org/dc/elements/1.1/">
  <defs
     id="defs2" />
  <sodipodi:namedview
     id="base"
     pagecolor="#ffffff"
     bordercolor="#666666"
     borderopacity="1.0"
     inkscape:pageopacity="0.0"
     inkscape:pageshadow="2"
     inkscape:zoom="0.46513304"
     inkscape:cx="674.00071"
     inkscape:cy="250.46597"
     inkscape:document-units="mm"
     inkscape:current-layer="layer1"
     showgrid="false"
     inkscape:window-width="1920"
     inkscape:window-height="1017"
     inkscape:window-x="1912"
     inkscape:window-y="-8"
     inkscape:window-maximized="1"
     inkscape:document-rotation="0"
     inkscape:pagecheckerboard="0" />
  <metadata
     id="metadata5">
    <rdf:RDF>
      <cc:Work
         rdf:about="">
        <dc:format>image/svg+xml</dc:format>
        <dc:type
           rdf:resource="http://purl.org/dc/dcmitype/StillImage" />
      </cc:Work>
    </rdf:RDF>
  </metadata>
  <g
     inkscape:label="Layer 1"
     inkscape:groupmode="layer"
     id="layer1"
     transform="translate(409.841, 790.045)">
    <path
       style="fill:#000000;stroke-width:0.157553"
       d="m -409.84147,-754.12276 v -35.92209 h 2.59963 2.59962 v 35.92209 35.9221 h -2.59962 -2.59963 z"
       id="path105" />
    <path
       style="fill:#000000;stroke-width:0.157553"
       d="m -374.2145,-721.46988 c -0.60742,-4.26696 -1.23016,-14.99251 -1.30123,-22.41192 l -0.0249,-2.59963 -0.12289,2.04819 c -0.19052,3.17509 -0.47547,6.2344 -0.6148,6.60042 -0.11075,0.29094 -0.13827,0.26383 -0.22292,-0.21952 -0.21197,-1.21051 -0.40702,-3.90754 -0.5754,-7.95643 -0.16299,-3.91945 -0.20982,-4.35304 -0.59552,-5.51435 -0.60662,-1.82644 -0.57523,-3.60622 0.0952,-5.39985 0.26797,-0.71689 0.80795,-1.78592 1.19997,-2.3756 0.73726,-1.109 2.13826,-2.54428 2.48351,-2.54428 0.35722,0 2.11043,1.95291 2.75982,3.07417 1.03369,1.78479 1.36335,2.90928 1.362,4.64592 -10e-4,1.21651 -0.0772,1.70327 -0.40738,2.59964 -0.37729,1.02439 -0.4187,1.40939 -0.58188,5.41087 -0.17186,4.21409 -0.38474,7.19269 -0.58168,8.13869 -0.0886,0.42585 -0.11032,0.44044 -0.21885,0.14728 -0.13168,-0.35572 -0.41157,-3.27557 -0.61069,-6.37063 l -0.12669,-1.96942 -0.024,2.52086 c -0.0854,8.94169 -1.07735,23.39663 -1.60557,23.39663 -0.0617,0 -0.1904,-0.54946 -0.28599,-1.22104 z"
       id="path209" />
    <path
       style="fill:#000000;stroke-width:0.157553"
       d="m -343.19652,-754.12276 v -35.92209 h 2.59962 2.59962 v 35.92209 35.9221 h -2.59962 -2.59962 z"
       id="path207" />
  </g>
</svg>
