<?xml version="1.0" encoding="UTF-8" standalone="no"?>
<svg
   sodipodi:docname="150mm Railgun 3.svg"
   id="svg8"
   version="1.1"
   viewBox="0 0 41.271125 41.271128"
   height="41.27113mm"
   width="41.27113mm"
   inkscape:version="1.1 (c68e22c387, 2021-05-23)"
   inkscape:export-filename="C:\Users\SN\GitHub\SuperNova-Shipyard-Source\Oulines - Projectiles\150mm Railgun 4.png"
   inkscape:export-xdpi="96"
   inkscape:export-ydpi="96"
   xmlns:inkscape="http://www.inkscape.org/namespaces/inkscape"
   xmlns:sodipodi="http://sodipodi.sourceforge.net/DTD/sodipodi-0.dtd"
   xmlns="http://www.w3.org/2000/svg"
   xmlns:svg="http://www.w3.org/2000/svg"
   xmlns:rdf="http://www.w3.org/1999/02/22-rdf-syntax-ns#"
   xmlns:cc="http://creativecommons.org/ns#"
   xmlns:dc="http://purl.org/dc/elements/1.1/">
  <defs
     id="defs2" />
  <sodipodi:namedview
     id="base"
     pagecolor="#ffffff"
     bordercolor="#666666"
     borderopacity="1.0"
     inkscape:pageopacity="0.0"
     inkscape:pageshadow="2"
     inkscape:zoom="0.65779746"
     inkscape:cx="25.083709"
     inkscape:cy="178.62641"
     inkscape:document-units="mm"
     inkscape:current-layer="layer1"
     showgrid="false"
     inkscape:window-width="1920"
     inkscape:window-height="1017"
     inkscape:window-x="1912"
     inkscape:window-y="-8"
     inkscape:window-maximized="1"
     inkscape:document-rotation="0"
     inkscape:pagecheckerboard="0" />
  <metadata
     id="metadata5">
    <rdf:RDF>
      <cc:Work
         rdf:about="">
        <dc:format>image/svg+xml</dc:format>
        <dc:type
           rdf:resource="http://purl.org/dc/dcmitype/StillImage" />
      </cc:Work>
    </rdf:RDF>
  </metadata>
  <g
     inkscape:label="Layer 1"
     inkscape:groupmode="layer"
     id="layer1"
     transform="translate(218.433, 769.287)">
    <path
       style="fill:#000000;stroke-width:0.133997"
       d="m -218.43265,-748.65118 v -20.63556 h 2.07697 2.07694 v 20.63556 20.63557 h -2.07694 -2.07697 z"
       id="path105" />
    <path
       style="fill:#000000;stroke-width:0.133997"
       d="m -198.38171,-731.00092 c -1.81558,-3.82593 -3.22196,-10.47222 -3.39462,-16.04229 -0.0702,-2.26317 -0.0518,-2.57002 0.211,-3.52537 0.29029,-1.05527 0.76517,-2.12072 1.25411,-2.81371 0.14598,-0.20691 0.23864,-0.40298 0.20592,-0.43571 -0.0327,-0.0327 -0.39042,0.17748 -0.7949,0.46712 -0.71096,0.50909 -1.01373,0.86108 -2.50238,2.90897 -0.3823,0.52589 -0.79492,1.03843 -0.91694,1.13896 -0.20042,0.16512 -0.21241,0.14393 -0.12404,-0.21921 0.0538,-0.22109 0.45941,-1.14824 0.90136,-2.06035 1.18943,-2.45476 2.31375,-3.46158 4.53914,-4.06474 1.23116,-0.33368 1.1808,-0.33368 2.41195,0 2.20247,0.59694 3.36613,1.64639 4.56308,4.11515 0.42879,0.88436 0.81742,1.78885 0.86365,2.00994 l 0.0841,0.402 -0.42181,-0.46899 c -0.23199,-0.25796 -0.84465,-1.06136 -1.36146,-1.78535 -0.64529,-0.90398 -1.19341,-1.50317 -1.7497,-1.91268 -0.44553,-0.32797 -0.83817,-0.5682 -0.87255,-0.53382 -0.0344,0.0344 0.0678,0.24562 0.22724,0.46943 0.42809,0.60118 1.02747,1.98389 1.28579,2.96619 0.18967,0.72117 0.21477,1.27117 0.1526,3.34217 -0.12781,4.25607 -0.90116,8.82068 -2.18455,12.89398 -0.61215,1.94293 -1.57204,4.12367 -1.81509,4.12367 -0.0544,0 -0.30728,-0.43891 -0.56184,-0.97536 z"
       id="path209" />
    <path
       style="fill:#000000;stroke-width:0.133997"
       d="m -180.91343,-748.65118 v -20.63556 h 1.87595 1.87596 v 20.63556 20.63557 h -1.87596 -1.87595 z"
       id="path207" />
  </g>
</svg>
