<?xml version="1.0" encoding="UTF-8" standalone="no"?>
<svg
   sodipodi:docname="200mm Railgun 3.svg"
   id="svg8"
   version="1.1"
   viewBox="0 0 55.067994 55.068008"
   height="55.068008mm"
   width="55.068001mm"
   inkscape:version="1.1 (c68e22c387, 2021-05-23)"
   inkscape:export-filename="C:\Users\SN\GitHub\SuperNova-Shipyard-Source\Oulines - Projectiles\200mm Railgun 4.png"
   inkscape:export-xdpi="96"
   inkscape:export-ydpi="96"
   xmlns:inkscape="http://www.inkscape.org/namespaces/inkscape"
   xmlns:sodipodi="http://sodipodi.sourceforge.net/DTD/sodipodi-0.dtd"
   xmlns="http://www.w3.org/2000/svg"
   xmlns:svg="http://www.w3.org/2000/svg"
   xmlns:rdf="http://www.w3.org/1999/02/22-rdf-syntax-ns#"
   xmlns:cc="http://creativecommons.org/ns#"
   xmlns:dc="http://purl.org/dc/elements/1.1/">
  <defs
     id="defs2" />
  <sodipodi:namedview
     id="base"
     pagecolor="#ffffff"
     bordercolor="#666666"
     borderopacity="1.0"
     inkscape:pageopacity="0.0"
     inkscape:pageshadow="2"
     inkscape:zoom="0.65779745"
     inkscape:cx="250.07698"
     inkscape:cy="212.07136"
     inkscape:document-units="mm"
     inkscape:current-layer="layer1"
     showgrid="false"
     inkscape:window-width="1920"
     inkscape:window-height="1017"
     inkscape:window-x="1912"
     inkscape:window-y="-8"
     inkscape:window-maximized="1"
     inkscape:document-rotation="0"
     inkscape:pagecheckerboard="0" />
  <metadata
     id="metadata5">
    <rdf:RDF>
      <cc:Work
         rdf:about="">
        <dc:format>image/svg+xml</dc:format>
        <dc:type
           rdf:resource="http://purl.org/dc/dcmitype/StillImage" />
      </cc:Work>
    </rdf:RDF>
  </metadata>
  <g
     inkscape:label="Layer 1"
     inkscape:groupmode="layer"
     id="layer1"
     transform="translate(77.0995, 664.154)">
    <path
       style="fill:#000000;stroke-width:0.130804"
       d="m -77.099525,-636.61985 v -27.534 h 2.027446 2.027442 v 27.534 27.53401 h -2.027442 -2.027446 z"
       id="path105" />
    <path
       style="fill:#000000;stroke-width:0.130804"
       d="m -49.997801,-611.99622 c -1.984157,-4.80879 -3.629003,-13.90929 -3.9344,-21.76802 -0.112717,-2.90054 -0.03233,-4.23055 0.32157,-5.31946 0.225754,-0.69464 1.021365,-2.37942 1.260948,-2.67017 0.0924,-0.11212 0.09242,-0.16349 3.3e-5,-0.16349 -0.34501,0 -1.336026,1.37309 -1.862115,2.58005 -0.711597,1.63254 -1.416457,3.04447 -1.519856,3.04447 -0.208003,0 0.632621,-3.67193 1.063052,-4.64351 0.68477,-1.54568 2.14209,-2.81434 3.751027,-3.26541 0.455844,-0.1278 0.943574,-0.31264 1.083849,-0.41074 0.215534,-0.15074 0.297595,-0.15048 0.529795,10e-4 0.151119,0.099 0.644761,0.28385 1.096982,0.41073 1.605476,0.45048 2.940821,1.5907 3.663453,3.12813 0.496455,1.05624 1.380108,4.77914 1.134359,4.77914 -0.04958,0 -0.386245,-0.63276 -0.748138,-1.40613 -0.361891,-0.77338 -0.839578,-1.78767 -1.06152,-2.25398 -0.361454,-0.75944 -1.49215,-2.18117 -1.627241,-2.04608 -0.02925,0.0292 0.125651,0.3438 0.34421,0.69901 0.439622,0.71448 0.978436,2.06541 1.202985,3.01618 0.307672,1.3027 0.05381,7.50677 -0.476201,11.63795 -0.537467,4.18927 -1.465611,8.75527 -2.425915,11.93435 -0.474142,1.56961 -1.254104,3.66365 -1.364599,3.66365 -0.02254,0 -0.21707,-0.42675 -0.432278,-0.94833 z"
       id="path209" />
    <path
       style="fill:#000000;stroke-width:0.130804"
       d="m -26.740425,-636.61985 v -27.534 h 2.354451 2.354451 v 27.534 27.53401 h -2.354451 -2.354451 z"
       id="path207" />
  </g>
</svg>
