<?xml version="1.0" encoding="UTF-8" standalone="no"?>
<svg
   sodipodi:docname="300mm Railgun 3.svg"
   id="svg8"
   version="1.1"
   viewBox="0 0 70.805953 70.805963"
   height="70.805962mm"
   width="70.805962mm"
   inkscape:version="1.1 (c68e22c387, 2021-05-23)"
   inkscape:export-filename="C:\Users\SN\GitHub\SuperNova-Shipyard-Source\Oulines - Projectiles\300mm Railgun 4.png"
   inkscape:export-xdpi="96"
   inkscape:export-ydpi="96"
   xmlns:inkscape="http://www.inkscape.org/namespaces/inkscape"
   xmlns:sodipodi="http://sodipodi.sourceforge.net/DTD/sodipodi-0.dtd"
   xmlns="http://www.w3.org/2000/svg"
   xmlns:svg="http://www.w3.org/2000/svg"
   xmlns:rdf="http://www.w3.org/1999/02/22-rdf-syntax-ns#"
   xmlns:cc="http://creativecommons.org/ns#"
   xmlns:dc="http://purl.org/dc/elements/1.1/">
  <defs
     id="defs2" />
  <sodipodi:namedview
     id="base"
     pagecolor="#ffffff"
     bordercolor="#666666"
     borderopacity="1.0"
     inkscape:pageopacity="0.0"
     inkscape:pageshadow="2"
     inkscape:zoom="0.46513304"
     inkscape:cx="136.52008"
     inkscape:cy="-119.3207"
     inkscape:document-units="mm"
     inkscape:current-layer="layer1"
     showgrid="false"
     inkscape:window-width="1920"
     inkscape:window-height="1017"
     inkscape:window-x="1912"
     inkscape:window-y="-8"
     inkscape:window-maximized="1"
     inkscape:document-rotation="0"
     inkscape:pagecheckerboard="0" />
  <metadata
     id="metadata5">
    <rdf:RDF>
      <cc:Work
         rdf:about="">
        <dc:format>image/svg+xml</dc:format>
        <dc:type
           rdf:resource="http://purl.org/dc/dcmitype/StillImage" />
      </cc:Work>
    </rdf:RDF>
  </metadata>
  <g
     inkscape:label="Layer 1"
     inkscape:groupmode="layer"
     id="layer1"
     transform="translate(269.483, 676.786)">
    <path
       style="fill:#000000;stroke-width:0.132101"
       d="m -234.58483,-608.91966 c -2.34767,-7.67272 -4.05615,-20.33562 -4.14834,-30.74643 -0.0246,-2.78032 -0.004,-3.07848 0.32729,-4.61697 0.19447,-0.90459 0.33325,-1.66505 0.30838,-1.68992 -0.0882,-0.0882 -0.56895,0.84884 -1.38973,2.70848 -0.45728,1.03606 -0.89222,1.92135 -0.96656,1.96729 -0.32788,0.20265 0.58335,-3.68861 1.13605,-4.85124 0.70768,-1.48864 2.02862,-2.62923 3.65217,-3.15352 0.47227,-0.15251 1.02213,-0.36855 1.22194,-0.4801 0.32662,-0.18234 0.39992,-0.18234 0.72654,0 0.19982,0.11155 0.74968,0.32759 1.22195,0.4801 1.61626,0.52194 2.94447,1.66495 3.64369,3.13562 0.56536,1.18911 1.47896,5.07584 1.14452,4.86914 -0.0743,-0.0459 -0.50929,-0.93123 -0.96656,-1.96729 -0.81964,-1.85708 -1.30154,-2.79666 -1.38936,-2.70884 -0.0246,0.0246 0.0707,0.6068 0.21188,1.29362 0.49788,2.42166 0.53455,3.06197 0.39837,6.95604 -0.32864,9.39754 -1.50476,18.55749 -3.32098,25.86478 -0.51096,2.0558 -1.192,4.29327 -1.30678,4.29327 -0.0496,0 -0.2766,-0.60931 -0.50447,-1.35403 z"
       id="path12" />
    <path
       style="fill:#000000;stroke-width:0.132101"
       d="m -203.69721,-641.38341 v -35.40297 h 2.50992 2.50991 v 35.40297 35.40299 h -2.50991 -2.50992 z"
       id="path10" />
    <path
       style="fill:#000000;stroke-width:0.132101"
       d="m -269.48334,-641.38341 v -35.40297 h 2.17966 2.17966 v 35.40297 35.40299 h -2.17966 -2.17966 z"
       id="path105" />
  </g>
</svg>
