<?xml version="1.0" encoding="UTF-8" standalone="no"?>
<svg
   sodipodi:docname="57mm Gauss 3.svg"
   id="svg8"
   version="1.1"
   viewBox="0 0 29.624217 29.624219"
   height="29.62422mm"
   width="29.62422mm"
   inkscape:version="1.1 (c68e22c387, 2021-05-23)"
   inkscape:export-filename="C:\Users\SN\GitHub\SuperNova-Shipyard-Source\Oulines - Projectiles\57mm Gauss 4.png"
   inkscape:export-xdpi="96"
   inkscape:export-ydpi="96"
   xmlns:inkscape="http://www.inkscape.org/namespaces/inkscape"
   xmlns:sodipodi="http://sodipodi.sourceforge.net/DTD/sodipodi-0.dtd"
   xmlns="http://www.w3.org/2000/svg"
   xmlns:svg="http://www.w3.org/2000/svg"
   xmlns:rdf="http://www.w3.org/1999/02/22-rdf-syntax-ns#"
   xmlns:cc="http://creativecommons.org/ns#"
   xmlns:dc="http://purl.org/dc/elements/1.1/">
  <defs
     id="defs2" />
  <sodipodi:namedview
     id="base"
     pagecolor="#ffffff"
     bordercolor="#666666"
     borderopacity="1.0"
     inkscape:pageopacity="0.0"
     inkscape:pageshadow="2"
     inkscape:zoom="0.93026608"
     inkscape:cx="196.18043"
     inkscape:cy="87.609343"
     inkscape:document-units="mm"
     inkscape:current-layer="layer1"
     showgrid="false"
     inkscape:window-width="1920"
     inkscape:window-height="1017"
     inkscape:window-x="1912"
     inkscape:window-y="-8"
     inkscape:window-maximized="1"
     inkscape:document-rotation="0"
     inkscape:pagecheckerboard="0" />
  <metadata
     id="metadata5">
    <rdf:RDF>
      <cc:Work
         rdf:about="">
        <dc:format>image/svg+xml</dc:format>
        <dc:type
           rdf:resource="http://purl.org/dc/dcmitype/StillImage" />
      </cc:Work>
    </rdf:RDF>
  </metadata>
  <g
     inkscape:label="Layer 1"
     inkscape:groupmode="layer"
     id="layer1"
     transform="translate(247.635, 795.076)">
    <path
       style="fill:#000000;stroke-width:0.194897"
       d="m -247.63451,-780.26406 v -14.81211 h 1.65662 1.65661 v 14.81211 14.81211 h -1.65661 -1.65662 z"
       id="path102" />
    <path
       style="fill:#000000;stroke-width:0.194897"
       d="m -233.09847,-767.35219 c -0.27661,-1.32195 -0.49887,-3.47862 -0.61785,-5.99548 -0.1175,-2.48508 -0.17507,-2.80367 -0.65112,-3.60315 -0.85204,-1.43091 -1.08356,-2.17411 -1.07058,-3.4365 0.0148,-1.44198 0.70713,-2.96467 1.85947,-4.08988 l 0.75615,-0.73837 0.75615,0.73837 c 0.95032,0.92795 1.72535,2.46105 1.88358,3.7259 0.13982,1.11778 -0.20744,2.34089 -1.07127,3.77325 -0.50521,0.8377 -0.55462,1.1051 -0.67121,3.6328 -0.16786,3.63918 -0.56501,6.52903 -0.89725,6.52903 -0.0902,0 -0.21439,-0.24118 -0.27607,-0.53597 z"
       id="path206" />
    <path
       style="fill:#000000;stroke-width:0.194897"
       d="m -220.93373,-780.26406 v -14.81211 h 1.46172 1.46172 v 14.81211 14.81211 h -1.46172 -1.46172 z"
       id="path204" />
  </g>
</svg>
