<?xml version="1.0" encoding="UTF-8" standalone="no"?>
<svg
   sodipodi:docname="86mm Gauss 3.svg"
   id="svg8"
   version="1.1"
   viewBox="0 0 44.52418 44.52418"
   height="44.524181mm"
   width="44.524185mm"
   inkscape:version="1.1 (c68e22c387, 2021-05-23)"
   inkscape:export-filename="C:\Users\SN\GitHub\SuperNova-Shipyard-Source\Oulines - Projectiles\86mm Gauss 4.png"
   inkscape:export-xdpi="96"
   inkscape:export-ydpi="96"
   xmlns:inkscape="http://www.inkscape.org/namespaces/inkscape"
   xmlns:sodipodi="http://sodipodi.sourceforge.net/DTD/sodipodi-0.dtd"
   xmlns="http://www.w3.org/2000/svg"
   xmlns:svg="http://www.w3.org/2000/svg"
   xmlns:rdf="http://www.w3.org/1999/02/22-rdf-syntax-ns#"
   xmlns:cc="http://creativecommons.org/ns#"
   xmlns:dc="http://purl.org/dc/elements/1.1/">
  <defs
     id="defs2" />
  <sodipodi:namedview
     id="base"
     pagecolor="#ffffff"
     bordercolor="#666666"
     borderopacity="1.0"
     inkscape:pageopacity="0.0"
     inkscape:pageshadow="2"
     inkscape:zoom="0.65779745"
     inkscape:cx="269.8399"
     inkscape:cy="-34.205058"
     inkscape:document-units="mm"
     inkscape:current-layer="layer1"
     showgrid="false"
     inkscape:window-width="1920"
     inkscape:window-height="1017"
     inkscape:window-x="1912"
     inkscape:window-y="-8"
     inkscape:window-maximized="1"
     inkscape:document-rotation="0"
     inkscape:pagecheckerboard="0" />
  <metadata
     id="metadata5">
    <rdf:RDF>
      <cc:Work
         rdf:about="">
        <dc:format>image/svg+xml</dc:format>
        <dc:type
           rdf:resource="http://purl.org/dc/dcmitype/StillImage" />
      </cc:Work>
    </rdf:RDF>
  </metadata>
  <g
     inkscape:label="Layer 1"
     inkscape:groupmode="layer"
     id="layer1"
     transform="translate(114.389, 728.383)">
    <path
       style="fill:#000000;stroke-width:0.157329"
       d="m -114.38861,-706.12109 v -22.26209 h 2.20261 2.20261 v 22.26209 22.26209 h -2.20261 -2.20261 z"
       id="path105" />
    <path
       style="fill:#000000;stroke-width:0.157329"
       d="m -92.34894,-686.37655 c -0.412131,-1.91073 -0.848553,-7.76341 -0.997726,-13.38011 -0.03768,-1.41913 -0.09303,-1.72158 -0.382247,-2.08927 l -0.338177,-0.42992 -0.08219,0.98797 c -0.50907,6.11941 -0.671344,6.38262 -1.047585,1.69915 -0.223088,-2.77702 -0.168255,-6.96497 0.10493,-8.01417 0.122083,-0.46887 0.437171,-1.25625 0.700196,-1.74974 0.583829,-1.09538 1.861715,-2.51096 2.266708,-2.51096 0.749334,0 2.515554,2.53891 2.963994,4.2607 0.485572,1.86435 0.139209,11.72925 -0.393131,11.1969 -0.125299,-0.12529 -0.209862,-0.87826 -0.548269,-4.88188 l -0.08351,-0.98797 -0.336222,0.42744 c -0.311949,0.39658 -0.344417,0.68371 -0.449732,3.97723 -0.174138,5.44577 -0.657359,10.91857 -1.060213,12.00759 -0.110104,0.29764 -0.159096,0.21831 -0.316826,-0.51296 z"
       id="path209" />
    <path
       style="fill:#000000;stroke-width:0.157329"
       d="m -73.32567,-706.12109 v -22.26209 h 1.730622 1.730622 v 22.26209 22.26209 h -1.730622 -1.730622 z"
       id="path207" />
  </g>
</svg>
