<?xml version="1.0" encoding="UTF-8" standalone="no"?>
<svg
   sodipodi:docname="EMP Torpedo 3.svg"
   id="svg8"
   version="1.1"
   viewBox="0 0 30.016998 30.017569"
   height="30.01757mm"
   width="30.017mm"
   inkscape:version="1.1 (c68e22c387, 2021-05-23)"
   inkscape:export-filename="C:\Users\SN\GitHub\Supernova-Shipyard-Source\Outlines - Projectiles\EMP Torpedo 4.png"
   inkscape:export-xdpi="96"
   inkscape:export-ydpi="96"
   xmlns:inkscape="http://www.inkscape.org/namespaces/inkscape"
   xmlns:sodipodi="http://sodipodi.sourceforge.net/DTD/sodipodi-0.dtd"
   xmlns="http://www.w3.org/2000/svg"
   xmlns:svg="http://www.w3.org/2000/svg"
   xmlns:rdf="http://www.w3.org/1999/02/22-rdf-syntax-ns#"
   xmlns:cc="http://creativecommons.org/ns#"
   xmlns:dc="http://purl.org/dc/elements/1.1/">
  <defs
     id="defs2" />
  <sodipodi:namedview
     id="base"
     pagecolor="#ffffff"
     bordercolor="#666666"
     borderopacity="1.0"
     inkscape:pageopacity="0.0"
     inkscape:pageshadow="2"
     inkscape:zoom="0.7"
     inkscape:cx="-0.71428571"
     inkscape:cy="173.57143"
     inkscape:document-units="mm"
     inkscape:current-layer="layer1"
     showgrid="false"
     inkscape:window-width="1858"
     inkscape:window-height="1057"
     inkscape:window-x="54"
     inkscape:window-y="-8"
     inkscape:window-maximized="1"
     inkscape:document-rotation="0"
     inkscape:pagecheckerboard="0"
     inkscape:lockguides="true" />
  <metadata
     id="metadata5">
    <rdf:RDF>
      <cc:Work
         rdf:about="">
        <dc:format>image/svg+xml</dc:format>
        <dc:type
           rdf:resource="http://purl.org/dc/dcmitype/StillImage" />
      </cc:Work>
    </rdf:RDF>
  </metadata>
  <g
     inkscape:label="Layer 1"
     inkscape:groupmode="layer"
     id="layer1"
     transform="translate(330.992, 777.896)">
    <path
       style="fill:#000000;stroke-width:0.037522"
       d="m -330.99227,-762.88677 v -15.00879 h 2.42017 2.42016 l 6.2e-4,2.05433 c 4.3e-4,1.12987 6.3e-4,2.76349 4.3e-4,3.63025 -2.1e-4,0.86675 -5.2e-4,6.69627 -6.2e-4,12.95445 l -4.3e-4,11.37854 h -2.42016 -2.42017 z"
       id="path102" />
    <path
       style="fill:#000000;stroke-width:0.037522"
       d="m -317.40926,-750.11992 c -0.38215,-0.27395 -0.57836,-0.49536 -0.63316,-0.7145 -0.0191,-0.0765 -0.21553,-0.94961 -0.43643,-1.94018 -0.36537,-1.63838 -0.65369,-2.92499 -1.24024,-5.53449 -0.11364,-0.50561 -0.32148,-1.43127 -0.46184,-2.057 l -0.25521,-1.13772 0.57271,-0.46839 0.57271,-0.4684 0.28407,-0.48885 0.28406,-0.48885 5.4e-4,-1.7698 c 6.2e-4,-2.29381 0.0513,-3.16981 0.2615,-4.52768 0.0399,-0.25795 0.0996,-0.64631 0.13264,-0.86299 0.13543,-0.88875 0.57454,-2.57319 0.84254,-3.23203 0.22548,-0.5543 0.60856,-1.26375 0.81691,-1.51289 0.0981,-0.11734 0.29239,-0.29816 0.43169,-0.40182 l 0.25327,-0.18849 0.25328,0.18849 c 0.34106,0.25382 0.56426,0.53078 0.83151,1.0318 0.41793,0.78349 0.62743,1.36389 0.93684,2.59529 0.19329,0.76928 0.25954,1.10062 0.39416,1.97134 0.28058,1.81487 0.3125,2.28973 0.31923,4.74905 l 0.005,1.95509 0.28456,0.48921 0.28456,0.48921 0.55905,0.45889 c 0.34141,0.28022 0.55907,0.48505 0.55907,0.52608 0,0.037 -0.10181,0.52031 -0.22625,1.07413 -0.23589,1.04994 -0.73022,3.25268 -1.24066,5.52835 -0.16432,0.73262 -0.43365,1.93989 -0.59851,2.68282 -0.16486,0.74293 -0.32272,1.40192 -0.35081,1.46442 -0.0862,0.19165 -0.2434,0.34929 -0.59992,0.60146 l -0.34177,0.24172 h -1.07107 -1.07107 z"
       id="path206" />
    <path
       style="fill:#000000;stroke-width:0.037522"
       d="m -305.82432,-755.11035 c -0.005,-3.9778 -0.005,-10.73174 8e-5,-15.00878 l 0.009,-7.77643 h 2.41998 2.41999 v 15.00879 15.00878 h -2.42007 -2.42007 z"
       id="path204" />
    <text
       x="-331.96133"
       y="-726.30743"
       id="text119"><tspan
         sodipodi:role="line"
         style="font-style:normal;font-weight:normal;font-size:26.4583px;text-align:center;text-anchor:start;fill:#000000;fill-opacity:1;stroke:none"
         dy="14.816666"
         id="tspan117"
         x="-331.96133"
         y="-726.30743">2007.59 px<tspan
   style="font-size:65%;baseline-shift:super"
   id="tspan115">2</tspan></tspan></text>
  </g>
</svg>
