<?xml version="1.0" encoding="UTF-8" standalone="no"?>
<svg
   sodipodi:docname="Etheric Wake Torpedo 3.svg"
   id="svg8"
   version="1.1"
   viewBox="0 0 23.204369 23.20465"
   height="23.204651mm"
   width="23.20437mm"
   inkscape:version="1.1 (c68e22c387, 2021-05-23)"
   inkscape:export-filename="C:\Users\SN\GitHub\Supernova-Shipyard-Source\Outlines - Projectiles\Etheric Wake Torpedo 4.png"
   inkscape:export-xdpi="96"
   inkscape:export-ydpi="96"
   xmlns:inkscape="http://www.inkscape.org/namespaces/inkscape"
   xmlns:sodipodi="http://sodipodi.sourceforge.net/DTD/sodipodi-0.dtd"
   xmlns="http://www.w3.org/2000/svg"
   xmlns:svg="http://www.w3.org/2000/svg"
   xmlns:rdf="http://www.w3.org/1999/02/22-rdf-syntax-ns#"
   xmlns:cc="http://creativecommons.org/ns#"
   xmlns:dc="http://purl.org/dc/elements/1.1/">
  <defs
     id="defs2" />
  <sodipodi:namedview
     id="base"
     pagecolor="#ffffff"
     bordercolor="#666666"
     borderopacity="1.0"
     inkscape:pageopacity="0.0"
     inkscape:pageshadow="2"
     inkscape:zoom="0.98994949"
     inkscape:cx="-254.05337"
     inkscape:cy="-6.5659915"
     inkscape:document-units="mm"
     inkscape:current-layer="layer1"
     showgrid="false"
     inkscape:window-width="1920"
     inkscape:window-height="1017"
     inkscape:window-x="1912"
     inkscape:window-y="-8"
     inkscape:window-maximized="1"
     inkscape:document-rotation="0"
     inkscape:pagecheckerboard="0" />
  <metadata
     id="metadata5">
    <rdf:RDF>
      <cc:Work
         rdf:about="">
        <dc:format>image/svg+xml</dc:format>
        <dc:type
           rdf:resource="http://purl.org/dc/dcmitype/StillImage" />
      </cc:Work>
    </rdf:RDF>
  </metadata>
  <g
     inkscape:label="Layer 1"
     inkscape:groupmode="layer"
     id="layer1"
     transform="translate(253.039, 382.311)">
    <path
       style="fill:#000000;stroke-width:0.0290058"
       d="m -253.03857,-370.70865 v -11.60232 h 1.39228 1.39227 l 7e-5,2.23345 c 3e-5,1.2284 6e-5,5.24207 6e-5,8.91929 0,3.67721 -3e-5,7.89321 -6e-5,9.36887 l -7e-5,2.68304 h -1.39227 -1.39228 z"
       id="path108" />
    <path
       style="fill:#000000;stroke-width:0.0290058"
       d="m -243.11858,-361.11168 c -0.20257,-0.0161 -0.68744,-0.10959 -1.44783,-0.27916 l -1.14326,-0.25496 -1.02266,-1.46202 -1.02267,-1.46201 -0.0346,-0.2486 c -0.0191,-0.13671 -0.0514,-0.34648 -0.0719,-0.46612 -0.0205,-0.11966 -0.0312,-0.22734 -0.0239,-0.23931 0.007,-0.0119 0.11701,-0.0217 0.24369,-0.0217 0.12669,0 0.23034,-0.008 0.23034,-0.0184 0,-0.0101 -0.13148,-0.28747 -0.29219,-0.61637 -0.1607,-0.32891 -0.31685,-0.65675 -0.34699,-0.72854 -0.0321,-0.0766 -0.0987,-0.43652 -0.16084,-0.87017 l -0.10604,-0.73966 0.0175,-0.76866 c 0.0148,-0.65079 0.0328,-0.88073 0.11772,-1.49968 l 0.10021,-0.73104 0.37727,-0.73375 0.37728,-0.73377 0.49463,-0.008 0.49465,-0.008 0.004,-0.94926 c 0.002,-0.52209 0.006,-0.98188 0.009,-1.02176 0.0153,-0.18786 -0.0101,-0.17404 0.3204,-0.17404 h 0.30457 l 0.003,-0.21029 c 0.002,-0.11566 0.005,-0.26903 0.007,-0.34082 l 0.004,-0.13053 -0.3151,-0.008 -0.31509,-0.008 0.014,-1.60156 c 0.0158,-1.80425 0.0193,-1.8401 0.21152,-2.13817 0.31791,-0.49303 0.81087,-0.59298 1.19984,-0.24325 0.16788,0.15093 0.30314,0.37162 0.35402,0.5776 0.0266,0.10752 0.0335,0.55964 0.0275,1.77583 l -0.008,1.63158 h 0.11451 0.11451 l 0.0191,-0.61381 c 0.0105,-0.33759 0.0191,-1.11459 0.0191,-1.72667 v -1.11287 l -0.0864,-0.17101 c -0.16991,-0.33658 -0.14303,-0.51148 0.11158,-0.72618 0.0814,-0.0687 0.16367,-0.16795 0.18272,-0.22059 0.0359,-0.0993 0.082,-0.10638 0.082,-0.0126 0,0.0296 0.0849,0.13943 0.18854,0.24415 0.1037,0.10473 0.18854,0.21465 0.18854,0.24428 0,0.0829 0.0332,0.0977 0.0948,0.042 0.0308,-0.0279 0.13067,-0.0711 0.22204,-0.0961 0.15127,-0.0414 0.18103,-0.0413 0.33306,7.5e-4 0.31023,0.086 0.60365,0.42299 0.68243,0.78393 0.025,0.11414 0.0339,0.60108 0.0316,1.71134 -0.002,0.8535 -0.007,1.57792 -0.0118,1.60982 -0.008,0.0513 -0.0366,0.0597 -0.2525,0.0725 l -0.24389,0.0145 -0.009,0.34081 -0.009,0.34083 h 0.24806 0.24807 v 1.08771 1.08772 h 0.84117 0.84117 l 0.005,-1.03696 c 0.002,-0.57033 0.004,-1.05327 0.003,-1.07321 -9.3e-4,-0.0264 0.0688,-0.0363 0.25647,-0.0363 h 0.25783 v -0.34807 -0.34807 h -0.25126 -0.25126 l 0.0203,-1.60257 c 0.0223,-1.76509 0.0302,-1.85019 0.19696,-2.1228 0.21634,-0.35373 0.57435,-0.53565 0.88679,-0.45063 0.076,0.0207 0.17281,0.0616 0.21515,0.0909 0.0983,0.0681 0.11156,0.067 0.11156,-0.009 0,-0.0379 0.072,-0.13395 0.18398,-0.2453 0.10119,-0.10071 0.19756,-0.22607 0.21415,-0.2786 l 0.0302,-0.0956 0.0208,0.0908 c 0.0126,0.0551 0.0885,0.15777 0.19274,0.26094 0.2565,0.25383 0.27852,0.41726 0.0997,0.74001 -0.0385,0.0696 -0.077,0.17215 -0.0856,0.22799 -0.008,0.0559 -0.0237,0.84225 -0.0338,1.74759 l -0.0184,1.64608 h 0.1332 0.13319 l 3.7e-4,-1.15298 c 5.6e-4,-1.32105 0.0177,-1.91495 0.0631,-2.18045 0.0647,-0.37738 0.37171,-0.73832 0.70125,-0.82428 0.15752,-0.0411 0.1828,-0.0405 0.3398,0.008 0.33888,0.10547 0.60304,0.43518 0.68384,0.8535 0.0358,0.18508 0.0418,0.34476 0.0281,0.74331 -0.009,0.27919 -0.0176,0.97423 -0.0178,1.54456 l -3.8e-4,1.03696 h -0.31906 -0.31907 v 0.34807 0.34808 h 0.30456 0.30457 v 1.0732 c 0,1.00089 0.003,1.07355 0.0507,1.07818 0.0279,0.003 0.0703,0.008 0.0942,0.0114 0.0239,0.004 0.22077,0.008 0.4374,0.009 l 0.39389,0.003 0.14765,0.31181 c 0.0812,0.1715 0.2456,0.51412 0.36533,0.76139 l 0.21768,0.44959 0.0896,0.78317 c 0.0753,0.65867 0.0896,0.89029 0.0892,1.45723 -3.6e-4,0.66073 -0.003,0.6899 -0.13115,1.47202 l -0.13073,0.79793 -0.36478,0.71067 -0.36478,0.71067 h 0.25231 0.2523 l -0.0194,0.15229 c -0.0107,0.0837 -0.0487,0.30891 -0.0846,0.50035 l -0.0653,0.34807 -1.02443,1.40678 c -0.56344,0.77373 -1.03521,1.41846 -1.04837,1.43275 -0.0131,0.0142 -0.5696,0.13491 -1.23652,0.26806 l -1.21259,0.24209 -1.5228,-0.004 c -0.83754,-0.002 -1.65986,-0.015 -1.82736,-0.0284 z"
       id="path212" />
    <path
       style="fill:#000000;stroke-width:0.0290058"
       d="m -232.62524,-359.85322 c -0.004,-0.4108 -0.004,-5.63184 -3.6e-4,-11.60233 l 0.007,-10.85542 h 1.3922 1.3922 v 11.60232 11.60233 h -1.39184 -1.39179 z"
       id="path210" />
    <text
       x="9.920419999999979"
       y="21.19932"
       transform="translate(-253.039, -382.311)"
       id="text258"><tspan
         sodipodi:role="line"
         style="fill:#000000;fill-opacity:1.0;font-size:26.458332193102706;font-style:normal;font-weight:normal;stroke:none;text-align:center;text-anchor:start;vertical-align:bottom"
         dy="14.816666096551353"
         id="tspan256">2812.92 px<tspan
   style="font-size:65%;baseline-shift:super"
   id="tspan254">2</tspan></tspan></text>
  </g>
</svg>
