<?xml version="1.0" encoding="UTF-8" standalone="no"?>
<svg
   sodipodi:docname="Fierce Rocket 3.svg"
   id="svg8"
   version="1.1"
   viewBox="0 0 28.978178 28.978178"
   height="28.97818mm"
   width="28.97818mm"
   inkscape:version="1.1 (c68e22c387, 2021-05-23)"
   inkscape:export-filename="C:\Users\SN\GitHub\SuperNova-Shipyard-Source\Oulines - Projectiles\Fierce Rocket 4.png"
   inkscape:export-xdpi="96"
   inkscape:export-ydpi="96"
   xmlns:inkscape="http://www.inkscape.org/namespaces/inkscape"
   xmlns:sodipodi="http://sodipodi.sourceforge.net/DTD/sodipodi-0.dtd"
   xmlns="http://www.w3.org/2000/svg"
   xmlns:svg="http://www.w3.org/2000/svg"
   xmlns:rdf="http://www.w3.org/1999/02/22-rdf-syntax-ns#"
   xmlns:cc="http://creativecommons.org/ns#"
   xmlns:dc="http://purl.org/dc/elements/1.1/">
  <defs
     id="defs2" />
  <sodipodi:namedview
     id="base"
     pagecolor="#ffffff"
     bordercolor="#666666"
     borderopacity="1.0"
     inkscape:pageopacity="0.0"
     inkscape:pageshadow="2"
     inkscape:zoom="0.7"
     inkscape:cx="135"
     inkscape:cy="-202.14286"
     inkscape:document-units="mm"
     inkscape:current-layer="layer1"
     showgrid="false"
     inkscape:window-width="1920"
     inkscape:window-height="1017"
     inkscape:window-x="1912"
     inkscape:window-y="-8"
     inkscape:window-maximized="1"
     inkscape:document-rotation="0"
     inkscape:pagecheckerboard="0" />
  <metadata
     id="metadata5">
    <rdf:RDF>
      <cc:Work
         rdf:about="">
        <dc:format>image/svg+xml</dc:format>
        <dc:type
           rdf:resource="http://purl.org/dc/dcmitype/StillImage" />
      </cc:Work>
    </rdf:RDF>
  </metadata>
  <g
     inkscape:label="Layer 1"
     inkscape:groupmode="layer"
     id="layer1"
     transform="translate(670.291, 476.045)">
    <path
       style="fill:#000000;stroke-width:0.0362228"
       d="m -670.2908,-461.55577 v -14.48909 h 2.75293 2.75292 v 14.48909 14.48909 h -2.75292 -2.75293 z"
       id="path108" />
    <path
       style="fill:#000000;stroke-width:0.0362228"
       d="m -657.86414,-448.43256 -0.61805,-0.53277 v -0.74053 -0.74053 l 0.18558,-0.48625 0.18557,-0.48625 -0.3848,-0.8144 -0.3848,-0.81442 v -1.41054 -1.41055 h 0.50711 0.50712 v -3.23939 -3.2394 l -0.42071,-0.88094 c -0.2314,-0.48452 -0.45552,-0.9543 -0.49806,-1.04395 -0.076,-0.16013 -0.0778,-0.20984 -0.10402,-2.82537 -0.0147,-1.4643 -0.036,-3.11877 -0.0473,-3.67661 -0.0225,-1.10513 0.005,-1.49676 0.13904,-1.93792 0.17157,-0.56712 0.5396,-1.12069 0.98573,-1.48265 0.18864,-0.15305 0.23512,-0.21096 0.23512,-0.29288 0,-0.0562 0.0102,-0.12877 0.0227,-0.16133 0.0304,-0.0795 0.50309,-0.31322 0.88286,-0.43656 0.28195,-0.0916 0.35517,-0.10003 0.86934,-0.10024 0.53295,-1.7e-4 0.57892,0.005 0.90556,0.11375 0.18927,0.0627 0.45823,0.17626 0.59768,0.25235 0.24564,0.13402 0.25391,0.14306 0.26465,0.28903 0.01,0.13578 0.0323,0.16735 0.22511,0.31882 0.46006,0.36144 0.83846,0.94431 1.03755,1.59817 l 0.0968,0.31811 -0.005,1.24968 c -0.003,0.68733 -0.0137,2.44644 -0.0249,3.90914 l -0.0204,2.65943 -0.50642,1.06674 -0.50642,1.06672 v 3.23766 3.23764 h 0.50711 0.50713 v 1.41102 1.41103 l -0.38294,0.8074 -0.38293,0.8074 0.1837,0.49273 0.18372,0.49272 v 0.74082 0.74082 l -0.61955,0.53253 -0.61955,0.53253 h -1.44288 -1.44289 z"
       id="path212" />
    <path
       style="fill:#000000;stroke-width:0.0362228"
       d="m -646.81847,-461.55577 v -14.48909 h 2.75292 2.75293 v 14.48909 14.48909 h -2.75293 -2.75292 z"
       id="path210" />
  </g>
</svg>
