<?xml version="1.0" encoding="UTF-8" standalone="no"?>
<svg
   sodipodi:docname="Gravimetric Missile 3.svg"
   id="svg8"
   version="1.1"
   viewBox="0 0 26.332348 26.332348"
   height="26.33235mm"
   width="26.33235mm"
   inkscape:version="1.1 (c68e22c387, 2021-05-23)"
   inkscape:export-filename="C:\Users\SN\GitHub\SuperNova-Shipyard-Source\Oulines - Projectiles\Gravimetric Missile 4.png"
   inkscape:export-xdpi="96"
   inkscape:export-ydpi="96"
   xmlns:inkscape="http://www.inkscape.org/namespaces/inkscape"
   xmlns:sodipodi="http://sodipodi.sourceforge.net/DTD/sodipodi-0.dtd"
   xmlns="http://www.w3.org/2000/svg"
   xmlns:svg="http://www.w3.org/2000/svg"
   xmlns:rdf="http://www.w3.org/1999/02/22-rdf-syntax-ns#"
   xmlns:cc="http://creativecommons.org/ns#"
   xmlns:dc="http://purl.org/dc/elements/1.1/">
  <defs
     id="defs2" />
  <sodipodi:namedview
     id="base"
     pagecolor="#ffffff"
     bordercolor="#666666"
     borderopacity="1.0"
     inkscape:pageopacity="0.0"
     inkscape:pageshadow="2"
     inkscape:zoom="1.4"
     inkscape:cx="123.21429"
     inkscape:cy="11.785714"
     inkscape:document-units="mm"
     inkscape:current-layer="layer1"
     showgrid="false"
     inkscape:window-width="1920"
     inkscape:window-height="1017"
     inkscape:window-x="1912"
     inkscape:window-y="-8"
     inkscape:window-maximized="1"
     inkscape:document-rotation="0"
     inkscape:pagecheckerboard="0" />
  <metadata
     id="metadata5">
    <rdf:RDF>
      <cc:Work
         rdf:about="">
        <dc:format>image/svg+xml</dc:format>
        <dc:type
           rdf:resource="http://purl.org/dc/dcmitype/StillImage" />
      </cc:Work>
    </rdf:RDF>
  </metadata>
  <g
     inkscape:label="Layer 1"
     inkscape:groupmode="layer"
     id="layer1"
     transform="translate(127.202, 410.151)">
    <path
       style="fill:#000000;stroke-width:0.0329154"
       d="m -127.20183,-396.98531 v -13.16618 h 2.09014 2.09012 v 13.16618 13.16617 h -2.09012 -2.09014 z"
       id="path102" />
    <path
       style="fill:#000000;stroke-width:0.0329154"
       d="m -116.57932,-385.12299 c -0.01,-0.01 0.0256,-0.11237 0.0782,-0.22835 0.12389,-0.27322 0.12371,-0.28324 -0.0333,-2.0065 -0.13756,-1.50859 -0.15575,-1.73648 -0.18398,-2.30379 -0.0103,-0.19915 -0.0397,-0.77681 -0.0662,-1.2837 -0.0264,-0.5069 -0.0483,-1.52522 -0.0484,-2.26294 l -1.8e-4,-1.34131 h 0.30974 0.30974 l 0.0185,-0.27154 c 0.0103,-0.14935 0.0255,-0.80479 0.0341,-1.45652 0.0167,-1.2596 0.0893,-2.95087 0.16742,-3.90048 l 0.0475,-0.57601 -0.1997,-0.20149 -0.19969,-0.20148 0.0217,-0.22642 c 0.0609,-0.63462 0.33575,-2.46728 0.48305,-3.22172 0.44139,-2.2608 0.99574,-3.70459 1.5729,-4.09653 0.1078,-0.0732 0.21297,-0.13311 0.23372,-0.13311 0.0207,0 0.12774,0.0629 0.23775,0.1399 0.7409,0.51809 1.42423,2.70387 1.88052,6.01529 0.081,0.58836 0.15716,1.17165 0.16908,1.29617 l 0.0217,0.22642 -0.19936,0.20148 -0.19937,0.20149 0.0472,0.59247 c 0.0776,0.97606 0.14985,2.62818 0.16679,3.8182 0.01,0.61551 0.0244,1.27095 0.0347,1.45651 l 0.0187,0.33737 h 0.30952 0.30954 l -4.9e-4,1.37422 c -3.9e-4,1.02627 -0.0208,1.74927 -0.0809,2.85541 -0.0717,1.32191 -0.12086,1.96204 -0.29702,3.8764 -0.0708,0.76921 -0.0672,0.84648 0.0493,1.07738 0.0543,0.1076 0.0987,0.20992 0.0987,0.2274 0,0.0331 -5.07798,0.049 -5.11107,0.0157 z"
       id="path206" />
    <path
       style="fill:#000000;stroke-width:0.0329154"
       d="m -105.04974,-396.98531 v -13.16618 h 2.09012 2.09014 v 13.16618 13.16617 h -2.09014 -2.09012 z"
       id="path204" />
  </g>
</svg>
