<?xml version="1.0" encoding="UTF-8" standalone="no"?>
<svg
   inkscape:export-ydpi="96"
   inkscape:export-xdpi="96"
   inkscape:export-filename="C:\Users\SN\GitHub\SuperNova-Shipyard-Source\Oulines - Projectiles\Heaven's Arrow 4.png"
   inkscape:version="1.1 (c68e22c387, 2021-05-23)"
   width="74.072823mm"
   height="74.0728mm"
   viewBox="0 0 74.072817 74.072795"
   version="1.1"
   id="svg8"
   sodipodi:docname="Heaven's Arrow 3.svg"
   xmlns:inkscape="http://www.inkscape.org/namespaces/inkscape"
   xmlns:sodipodi="http://sodipodi.sourceforge.net/DTD/sodipodi-0.dtd"
   xmlns="http://www.w3.org/2000/svg"
   xmlns:svg="http://www.w3.org/2000/svg"
   xmlns:rdf="http://www.w3.org/1999/02/22-rdf-syntax-ns#"
   xmlns:cc="http://creativecommons.org/ns#"
   xmlns:dc="http://purl.org/dc/elements/1.1/">
  <defs
     id="defs2" />
  <sodipodi:namedview
     id="base"
     pagecolor="#ffffff"
     bordercolor="#666666"
     borderopacity="1.0"
     inkscape:pageopacity="0.0"
     inkscape:pageshadow="2"
     inkscape:zoom="0.60886747"
     inkscape:cx="20.529919"
     inkscape:cy="393.35325"
     inkscape:document-units="mm"
     inkscape:current-layer="layer1"
     showgrid="false"
     inkscape:window-width="1920"
     inkscape:window-height="1017"
     inkscape:window-x="1912"
     inkscape:window-y="-8"
     inkscape:window-maximized="1"
     inkscape:document-rotation="0"
     inkscape:pagecheckerboard="0" />
  <metadata
     id="metadata5">
    <rdf:RDF>
      <cc:Work
         rdf:about="">
        <dc:format>image/svg+xml</dc:format>
        <dc:type
           rdf:resource="http://purl.org/dc/dcmitype/StillImage" />
      </cc:Work>
    </rdf:RDF>
  </metadata>
  <g
     inkscape:label="Layer 1"
     inkscape:groupmode="layer"
     id="layer1"
     transform="translate(135.0908,1197.7217)">
    <path
       style="fill:#000000;stroke-width:0.092591"
       d="m -135.0908,-1160.6853 v -37.0364 h 1.52776 1.52774 v 37.0364 37.0364 h -1.52774 -1.52776 z"
       id="path102" />
    <path
       style="fill:#000000;stroke-width:0.092591"
       d="m -98.275981,-1128.2961 c -1.261478,-4.5373 -2.577869,-14.3961 -3.156389,-23.6393 -0.1228,-1.9616 -0.32508,-7.1881 -0.32551,-8.4092 l -1.8e-4,-0.4463 -0.68545,0.052 -0.68545,0.052 -0.0653,-0.5631 c -0.0359,-0.3097 -0.0374,-1.1945 -0.004,-1.9665 0.26868,-6.0954 1.44623,-10.8441 3.15596,-12.7274 0.669966,-0.7377 1.237168,-1.0374 1.961189,-1.0362 2.325842,0 4.040218,3.461 4.842278,9.7644 0.233201,1.8328 0.414167,5.1072 0.327143,5.92 l -0.06509,0.6072 -0.674633,-0.056 -0.674653,-0.056 -0.06179,2.119 c -0.334744,11.4708 -1.689039,23.6144 -3.343717,29.9831 -0.126882,0.4882 -0.230685,0.9081 -0.230685,0.9328 0,0.025 -0.03488,0.045 -0.07738,0.045 -0.04248,0 -0.1491,-0.2579 -0.236767,-0.5732 z"
       id="path320" />
    <path
       style="fill:#000000;stroke-width:0.092591"
       d="m -63.703116,-1160.6853 v -37.0364 h 1.342569 1.342572 v 37.0364 37.0364 h -1.342572 -1.342569 z"
       id="path318" />
  </g>
</svg>
