<?xml version="1.0" encoding="UTF-8" standalone="no"?>
<svg
   inkscape:export-ydpi="96"
   inkscape:export-xdpi="96"
   inkscape:export-filename="C:\Users\SN\GitHub\SuperNova-Shipyard-Source\Oulines - Projectiles\Heavy Energy Blast 4.png"
   inkscape:version="1.1 (c68e22c387, 2021-05-23)"
   width="22.25071mm"
   height="22.250799mm"
   viewBox="0 0 22.250708 22.250798"
   version="1.1"
   id="svg8"
   sodipodi:docname="Heavy Energy Blast 3.svg"
   xmlns:inkscape="http://www.inkscape.org/namespaces/inkscape"
   xmlns:sodipodi="http://sodipodi.sourceforge.net/DTD/sodipodi-0.dtd"
   xmlns="http://www.w3.org/2000/svg"
   xmlns:svg="http://www.w3.org/2000/svg"
   xmlns:rdf="http://www.w3.org/1999/02/22-rdf-syntax-ns#"
   xmlns:cc="http://creativecommons.org/ns#"
   xmlns:dc="http://purl.org/dc/elements/1.1/">
  <defs
     id="defs2" />
  <sodipodi:namedview
     id="base"
     pagecolor="#ffffff"
     bordercolor="#666666"
     borderopacity="1.0"
     inkscape:pageopacity="0.0"
     inkscape:pageshadow="2"
     inkscape:zoom="1.3155949"
     inkscape:cx="116.67725"
     inkscape:cy="102.99523"
     inkscape:document-units="mm"
     inkscape:current-layer="layer1"
     showgrid="false"
     inkscape:window-width="1920"
     inkscape:window-height="1017"
     inkscape:window-x="1912"
     inkscape:window-y="-8"
     inkscape:window-maximized="1"
     inkscape:document-rotation="0"
     inkscape:pagecheckerboard="0" />
  <metadata
     id="metadata5">
    <rdf:RDF>
      <cc:Work
         rdf:about="">
        <dc:format>image/svg+xml</dc:format>
        <dc:type
           rdf:resource="http://purl.org/dc/dcmitype/StillImage" />
      </cc:Work>
    </rdf:RDF>
  </metadata>
  <g
     inkscape:label="Layer 1"
     inkscape:groupmode="layer"
     id="layer1"
     transform="translate(298.382, 1048.61)">
    <path
       style="fill:#000000;stroke-width:0.0278133"
       d="m -289.1791,-1027.7991 -0.10041,-0.01 -0.0188,-0.5201 c -0.0449,-1.2338 -0.403,-2.3098 -1.14507,-3.4403 -0.12048,-0.1836 -0.42506,-0.6155 -0.67682,-0.9597 -1.1282,-1.5423 -1.48298,-2.2595 -1.65703,-3.3499 -0.0697,-0.4363 -0.0738,-0.5084 -0.056,-0.9734 0.034,-0.8872 0.17857,-1.677 0.44061,-2.4075 0.7201,-2.0074 2.14011,-3.2798 4.03714,-3.6175 0.31885,-0.057 0.44869,-0.064 1.09864,-0.063 0.67243,0 0.77241,0.01 1.14034,0.074 1.86836,0.3382 3.28197,1.6142 3.99599,3.6072 0.26501,0.7397 0.40879,1.5383 0.43814,2.4336 0.0164,0.5013 0.0131,0.5529 -0.0643,1.0013 -0.18696,1.0831 -0.51399,1.7392 -1.62898,3.2682 -0.27331,0.3747 -0.58752,0.8207 -0.69825,0.9911 -0.74431,1.1453 -1.09344,2.1931 -1.13985,3.421 l -0.0202,0.5323 -0.16322,0.018 c -0.15683,0.018 -3.57583,0.013 -3.78192,-0.01 z"
       id="path206" />
    <path
       style="fill:#000000;stroke-width:0.0278133"
       d="m -277.96726,-1037.4843 v -11.1253 h 0.91785 0.91784 v 11.1253 11.1255 h -0.91784 -0.91785 z"
       id="path204" />
    <path
       style="fill:#000000;stroke-width:0.0278133"
       d="m -298.38228,-1037.4843 v -11.1253 h 0.77877 0.77878 v 11.1253 11.1255 h -0.77878 -0.77877 z"
       id="path102" />
  </g>
</svg>
