<?xml version="1.0" encoding="UTF-8" standalone="no"?>
<svg
   sodipodi:docname="hellhound missile 3.svg"
   id="svg8"
   version="1.1"
   viewBox="0 0 32.830111 32.830107"
   height="32.830109mm"
   width="32.830112mm"
   inkscape:version="1.1 (c68e22c387, 2021-05-23)"
   inkscape:export-filename="C:\Users\SN\GitHub\Supernova-Shipyard-Source\Oulines - Projectiles\hellhound missile 4.png"
   inkscape:export-xdpi="96"
   inkscape:export-ydpi="96"
   xmlns:inkscape="http://www.inkscape.org/namespaces/inkscape"
   xmlns:sodipodi="http://sodipodi.sourceforge.net/DTD/sodipodi-0.dtd"
   xmlns="http://www.w3.org/2000/svg"
   xmlns:svg="http://www.w3.org/2000/svg"
   xmlns:rdf="http://www.w3.org/1999/02/22-rdf-syntax-ns#"
   xmlns:cc="http://creativecommons.org/ns#"
   xmlns:dc="http://purl.org/dc/elements/1.1/">
  <defs
     id="defs2" />
  <sodipodi:namedview
     id="base"
     pagecolor="#ffffff"
     bordercolor="#666666"
     borderopacity="1.0"
     inkscape:pageopacity="0.0"
     inkscape:pageshadow="2"
     inkscape:zoom="0.7"
     inkscape:cx="303.57143"
     inkscape:cy="109.28571"
     inkscape:document-units="mm"
     inkscape:current-layer="layer1"
     showgrid="false"
     inkscape:window-width="1920"
     inkscape:window-height="1017"
     inkscape:window-x="1912"
     inkscape:window-y="-8"
     inkscape:window-maximized="1"
     inkscape:document-rotation="0"
     inkscape:pagecheckerboard="0" />
  <metadata
     id="metadata5">
    <rdf:RDF>
      <cc:Work
         rdf:about="">
        <dc:format>image/svg+xml</dc:format>
        <dc:type
           rdf:resource="http://purl.org/dc/dcmitype/StillImage" />
      </cc:Work>
    </rdf:RDF>
  </metadata>
  <g
     inkscape:label="Layer 1"
     inkscape:groupmode="layer"
     id="layer1"
     transform="translate(13.305, 243.338)">
    <path
       style="fill:#000000;stroke-width:0.0410377"
       d="m 1.2875273,-212.54933 c -0.67782525,-0.72795 -0.67825954,-0.72854 -0.67950692,-0.92335 -6.2059e-4,-0.1072 -0.007204,-0.19492 -0.0145205,-0.19492 -0.007265,0 -0.12761589,0.0554 -0.26740066,0.12311 -0.229845,0.11133 -0.29293008,0.12311 -0.65964332,0.12311 h -0.40549759 l -0.24720795,-0.27883 -0.24720796,-0.27884 0.059821,-0.28544 c 0.032889,-0.15698 0.082217,-0.30688 0.1096081,-0.33308 0.027366,-0.0261 0.32379601,-0.27089 0.65868137,-0.54375 0.59423116,-0.48414 0.61374744,-0.49609 0.81049867,-0.49609 h 0.20160385 v -1.22323 -1.22323 l -0.16002093,-0.0705 c -0.10243353,-0.0451 -0.18277023,-0.11851 -0.22323622,-0.20381 -0.0347505,-0.0732 -0.35464354,-0.40977 -0.71083234,-0.74779 -0.8831587,-0.83811 -1.7985798,-1.76213 -3.6173646,-3.65135 -0.8474338,-0.88027 -1.6425118,-1.70604 -1.7668449,-1.83506 -0.2221937,-0.23058 -0.2247689,-0.23601 -0.1505327,-0.31804 0.041515,-0.0459 0.115428,-0.0834 0.1641972,-0.0834 0.062055,0 0.7106275,0.61521 2.1583738,2.04723 1.1383408,1.12598 2.0753445,2.04215 2.0822389,2.03593 0.00689,-0.006 -0.134839,-0.2141 -0.3149657,-0.46199 -0.1801267,-0.24787 -0.6453707,-0.91935 -1.0338837,-1.49218 -0.3885133,-0.57282 -0.8536455,-1.25012 -1.0336295,-1.5051 -0.3168893,-0.44893 -0.3249503,-0.46614 -0.2547167,-0.54375 0.060627,-0.0669 0.1270512,-0.08 0.4047344,-0.0798 l 0.3321984,3.3e-4 0.2033909,0.25615 c 0.3371441,0.4246 2.49721221,2.94515 2.51160893,2.93076 0.007384,-0.007 -0.0577732,-0.19666 -0.14471193,-0.42065 -0.086952,-0.22399 -0.2834854,-0.73967 -0.4367422,-1.14593 -0.1532507,-0.40628 -0.3492697,-0.90237 -0.435588,-1.10243 -0.2203257,-0.51061 -0.2097021,-0.52469 0.3846968,-0.50963 l 0.45736931,0.0122 0.21087481,0.37319 c 0.11598666,0.20526 0.46946362,0.78697 0.78550914,1.29269 0.31604541,0.50571 0.64685995,1.04379 0.73514541,1.1957 0.0882792,0.15193 0.17251252,0.27657 0.18718237,0.27702 0.0146447,4.2e-4 0.12166446,-0.14886 0.23777546,-0.33173 l 0.2111045,-0.33251 -0.2070647,-1.77068 -0.20706453,-1.77067 0.20703973,-1.77633 0.2070398,-1.77634 -0.60353312,-0.78851 c -0.3319439,-0.43368 -0.61742107,-0.80699 -0.63439319,-0.82958 -0.0170029,-0.0226 -0.06075186,-0.30883 -0.0972839,-0.63609 -0.03655022,-0.32726 -0.14886957,-0.97388 -0.24964674,-1.43695 l -0.18323567,-0.84195 0.18317362,-0.82904 0.1831674,-0.82906 -0.04108055,-0.57878 -0.04108045,-0.57878 1.521852,-2.54136 1.5218524,-2.54138 H 3.1110841 3.27234 l 1.5212254,2.54317 1.5212256,2.54318 -0.042943,0.57045 -0.042943,0.57046 0.1843464,0.83436 0.1843464,0.83437 -0.1815972,0.82262 c -0.099877,0.45246 -0.2116506,1.09909 -0.2483809,1.43699 -0.036736,0.33787 -0.081124,0.63333 -0.098649,0.65658 -0.017499,0.0232 -0.304075,0.3979 -0.6367698,0.83256 l -0.6048984,0.79031 0.2079272,1.76981 0.2079272,1.7698 -0.2075983,1.77381 -0.2075984,1.77382 0.212116,0.33411 c 0.1166693,0.18376 0.2241235,0.33336 0.2387933,0.33242 0.014645,-0.001 0.1853951,-0.26409 0.3793848,-0.58479 0.1939959,-0.3207 0.5910355,-0.97344 0.8823148,-1.45053 0.2912731,-0.47709 0.5610505,-0.92491 0.5994998,-0.99517 l 0.069905,-0.12771 h 0.4518772 c 0.5869957,0 0.5962977,0.0129 0.3756244,0.5217 -0.087516,0.20177 -0.2514835,0.61476 -0.3643739,0.91774 -0.1128837,0.30299 -0.3085802,0.81585 -0.4348742,1.13969 -0.126294,0.32385 -0.2296217,0.60567 -0.2296217,0.62626 0,0.0206 0.1516869,-0.1428 0.3370821,-0.3631 0.1854013,-0.2203 0.7163987,-0.84395 1.1800044,-1.38587 0.4635994,-0.54194 0.9256973,-1.09135 1.0268716,-1.22089 l 0.1839616,-0.23553 h 0.3327376 c 0.279303,0 0.344529,0.013 0.40615,0.0812 0.07132,0.0789 0.06644,0.0908 -0.172023,0.42063 -0.134982,0.18674 -0.5380339,0.77349 -0.8956746,1.30392 -0.3576347,0.53041 -0.8596028,1.25777 -1.1154799,1.61637 -0.2558771,0.35862 -0.4600809,0.65644 -0.4537949,0.66186 0.00627,0.006 0.9438857,-0.91127 2.0835421,-2.03703 1.4127153,-1.39551 2.0995643,-2.04687 2.1583733,-2.04687 0.04747,0 0.120231,0.0376 0.16174,0.0833 0.07412,0.0819 0.07178,0.0873 -0.130049,0.29751 -3.1517474,3.28372 -4.4106606,4.56673 -5.4033277,5.50677 -0.3567844,0.33788 -0.6771986,0.67438 -0.71203,0.74777 -0.040584,0.0855 -0.120809,0.15882 -0.2233479,0.20406 l -0.1600146,0.0705 v 1.22323 1.22322 h 0.1994071 c 0.1937973,0 0.2165901,0.014 0.8104924,0.49587 0.3360955,0.27273 0.6334934,0.51741 0.6608782,0.54376 0.027367,0.0262 0.076185,0.17378 0.108429,0.32768 l 0.058642,0.2798 -0.2454455,0.28447 -0.2454457,0.28446 H 6.5523805 c -0.3716653,0 -0.4295625,-0.0109 -0.6517872,-0.1231 -0.1341315,-0.0676 -0.2536431,-0.12312 -0.26557,-0.12312 -0.011913,0 -0.022278,0.0877 -0.022961,0.19493 -0.00124,0.1948 -0.00186,0.19539 -0.6795069,0.92333 l -0.6782598,0.72844 H 3.1100169 1.9657374 Z"
       id="path126" />
    <path
       style="fill:#000000;stroke-width:0.0410377"
       d="m 13.779856,-226.92275 v -16.41507 h 2.872631 2.872638 v 16.41507 16.41504 h -2.872638 -2.872631 z"
       id="path124" />
    <path
       style="fill:#000000;stroke-width:0.0410377"
       d="m -13.304989,-226.92275 v -16.41507 h 2.872635 2.8726378 v 16.41507 16.41504 h -2.8726378 -2.872635 z"
       id="path102" />
  </g>
</svg>
