<?xml version="1.0" encoding="UTF-8" standalone="no"?>
<svg
   sodipodi:docname="Ion Blast 3.svg"
   id="svg8"
   version="1.1"
   viewBox="0 0 39.073211 39.073208"
   height="39.073212mm"
   width="39.073212mm"
   inkscape:version="1.1 (c68e22c387, 2021-05-23)"
   inkscape:export-filename="C:\Users\SN\GitHub\SuperNova-Shipyard-Source\Oulines - Projectiles\Ion Blast 4.png"
   inkscape:export-xdpi="96"
   inkscape:export-ydpi="96"
   xmlns:inkscape="http://www.inkscape.org/namespaces/inkscape"
   xmlns:sodipodi="http://sodipodi.sourceforge.net/DTD/sodipodi-0.dtd"
   xmlns="http://www.w3.org/2000/svg"
   xmlns:svg="http://www.w3.org/2000/svg"
   xmlns:rdf="http://www.w3.org/1999/02/22-rdf-syntax-ns#"
   xmlns:cc="http://creativecommons.org/ns#"
   xmlns:dc="http://purl.org/dc/elements/1.1/">
  <defs
     id="defs2" />
  <sodipodi:namedview
     id="base"
     pagecolor="#ffffff"
     bordercolor="#666666"
     borderopacity="1.0"
     inkscape:pageopacity="0.0"
     inkscape:pageshadow="2"
     inkscape:zoom="1.4"
     inkscape:cx="190.35714"
     inkscape:cy="146.78571"
     inkscape:document-units="mm"
     inkscape:current-layer="layer1"
     showgrid="false"
     inkscape:window-width="1858"
     inkscape:window-height="1057"
     inkscape:window-x="54"
     inkscape:window-y="-8"
     inkscape:window-maximized="1"
     inkscape:document-rotation="0"
     inkscape:pagecheckerboard="0" />
  <metadata
     id="metadata5">
    <rdf:RDF>
      <cc:Work
         rdf:about="">
        <dc:format>image/svg+xml</dc:format>
        <dc:type
           rdf:resource="http://purl.org/dc/dcmitype/StillImage" />
      </cc:Work>
    </rdf:RDF>
  </metadata>
  <g
     inkscape:label="Layer 1"
     inkscape:groupmode="layer"
     id="layer1"
     transform="translate(881.8415,309.40976)">
    <path
       style="fill:#000000;stroke-width:0.0488415"
       d="m -864.9516,-274.13399 c -0.59104,-0.63393 -1.00982,-4.5237 -1.20818,-11.22133 l -0.0405,-1.36757 -0.31932,-0.65935 c -0.17563,-0.36264 -0.40106,-0.90112 -0.50097,-1.19663 -0.16349,-0.48359 -0.18215,-0.5909 -0.18681,-1.0745 -0.005,-0.49874 0.008,-0.57869 0.18358,-1.1151 0.45057,-1.37934 1.72347,-3.53355 3.00615,-5.08754 0.47818,-0.57935 1.29957,-1.39193 1.52959,-1.51322 0.18223,-0.0961 0.18406,-0.0961 0.3663,-3.7e-4 0.24511,0.12865 1.16151,1.05331 1.65927,1.67422 1.62402,2.02586 2.95669,4.53798 3.06986,5.78677 0.0585,0.64614 -0.21552,1.59328 -0.78815,2.72379 l -0.23403,0.462 -0.0373,1.34315 c -0.18453,6.61746 -0.61203,10.59899 -1.2075,11.24574 -0.12447,0.13521 -0.25193,0.17757 -0.25193,0.0838 0,-0.0349 -0.0293,-0.0349 -0.0944,0 -0.21334,0.11418 -0.24726,0.073 -0.25006,-0.30353 l -0.002,-0.3541 -0.0902,0.28217 c -0.11268,0.35246 -0.17313,0.42605 -0.35012,0.42605 h -0.14055 l -0.009,-3.35787 c -0.005,-1.84681 -0.0156,-3.18202 -0.0228,-2.96713 -0.007,0.21491 -0.0363,1.13801 -0.0648,2.05135 -0.085,2.72155 -0.18979,4.06552 -0.32755,4.20329 -0.0386,0.0386 -0.13474,0.0704 -0.2134,0.0704 h -0.14303 v -4.17597 c 0,-2.29677 -0.0124,-4.17595 -0.0278,-4.17595 -0.0152,0 -0.1138,0.0715 -0.21891,0.15875 l -0.19119,0.15873 -0.005,3.78521 c -0.002,2.08187 -0.0193,3.88265 -0.0375,4.00176 -0.0319,0.20859 -0.0393,0.21653 -0.20396,0.21659 -0.16792,4e-5 -0.17152,-0.004 -0.2033,-0.24094 -0.0178,-0.13258 -0.0348,-1.9334 -0.0375,-4.00183 l -0.005,-3.76079 -0.19118,-0.15873 c -0.10522,-0.0872 -0.20356,-0.15875 -0.21865,-0.15875 -0.015,0 -0.033,1.87369 -0.0399,4.16374 l -0.0125,4.16374 -0.15548,0.0151 c -0.11072,0.0111 -0.16897,-0.009 -0.20225,-0.0733 -0.11886,-0.22462 -0.22312,-1.6719 -0.30177,-4.19102 -0.0285,-0.91333 -0.0578,-1.82544 -0.0649,-2.0269 -0.007,-0.20148 -0.0176,1.13373 -0.0228,2.96713 l -0.009,3.33342 h -0.14053 c -0.177,0 -0.23748,-0.0736 -0.35012,-0.42603 l -0.0903,-0.28217 -0.002,0.3541 c -0.002,0.37653 -0.0366,0.41771 -0.25005,0.30353 -0.065,-0.0349 -0.0944,-0.0349 -0.0944,0 0,0.0935 -0.12731,0.0515 -0.25346,-0.0838 z"
       id="path132" />
    <path
       style="fill:#000000;stroke-width:0.0488415"
       d="m -844.62428,-289.87316 v -19.5366 h 0.92799 0.928 v 19.5366 19.53661 h -0.928 -0.92799 z"
       id="path130" />
    <path
       style="fill:#000000;stroke-width:0.0488415"
       d="m -881.8415,-289.87316 v -19.5366 h 0.90357 0.90357 v 19.5366 19.53661 h -0.90357 -0.90357 z"
       id="path22" />
  </g>
</svg>
