<?xml version="1.0" encoding="UTF-8" standalone="no"?>
<svg
   sodipodi:docname="Large Hybrid Fusion 3.svg"
   id="svg8"
   version="1.1"
   viewBox="0 0 28.449811 28.449808"
   height="28.44981mm"
   width="28.44981mm"
   inkscape:version="1.1 (c68e22c387, 2021-05-23)"
   inkscape:export-filename="C:\Users\SN\GitHub\SuperNova-Shipyard-Source\Oulines - Projectiles\Large Hybrid Fusion 4.png"
   inkscape:export-xdpi="96"
   inkscape:export-ydpi="96"
   xmlns:inkscape="http://www.inkscape.org/namespaces/inkscape"
   xmlns:sodipodi="http://sodipodi.sourceforge.net/DTD/sodipodi-0.dtd"
   xmlns="http://www.w3.org/2000/svg"
   xmlns:svg="http://www.w3.org/2000/svg"
   xmlns:rdf="http://www.w3.org/1999/02/22-rdf-syntax-ns#"
   xmlns:cc="http://creativecommons.org/ns#"
   xmlns:dc="http://purl.org/dc/elements/1.1/">
  <defs
     id="defs2" />
  <sodipodi:namedview
     id="base"
     pagecolor="#ffffff"
     bordercolor="#666666"
     borderopacity="1.0"
     inkscape:pageopacity="0.0"
     inkscape:pageshadow="2"
     inkscape:zoom="0.98994949"
     inkscape:cx="-42.931483"
     inkscape:cy="123.74369"
     inkscape:document-units="mm"
     inkscape:current-layer="layer1"
     showgrid="false"
     inkscape:window-width="1858"
     inkscape:window-height="1057"
     inkscape:window-x="54"
     inkscape:window-y="-8"
     inkscape:window-maximized="1"
     inkscape:document-rotation="0"
     inkscape:pagecheckerboard="0" />
  <metadata
     id="metadata5">
    <rdf:RDF>
      <cc:Work
         rdf:about="">
        <dc:format>image/svg+xml</dc:format>
        <dc:type
           rdf:resource="http://purl.org/dc/dcmitype/StillImage" />
      </cc:Work>
    </rdf:RDF>
  </metadata>
  <g
     inkscape:label="Layer 1"
     inkscape:groupmode="layer"
     id="layer1"
     transform="translate(560.858, 245.005)">
    <path
       style="fill:#000000;stroke-width:0.0355621"
       d="m -560.85777,-230.78029 v -14.2249 h 0.72903 0.72902 v 14.2249 14.22491 h -0.72902 -0.72903 z"
       id="path102" />
    <path
       style="fill:#000000;stroke-width:0.0355621"
       d="m -546.9237,-219.28478 c -0.37379,-0.34865 -1.15456,-1.30142 -1.74124,-2.12486 -1.91236,-2.68404 -3.06311,-5.22176 -3.48319,-7.68144 -0.10992,-0.6436 -0.1154,-0.71959 -0.11524,-1.60031 9e-5,-0.90007 0.003,-0.93852 0.1114,-1.4488 0.3398,-1.60109 1.08891,-3.2593 2.10875,-4.6679 0.8322,-1.14944 1.69575,-1.9372 2.55686,-2.33247 l 0.33784,-0.15508 0.51565,1.4e-4 0.51567,1.4e-4 0.35583,0.16197 c 1.93183,0.87928 4.01743,4.0164 4.64652,6.98915 0.10927,0.51637 0.11176,0.54922 0.11151,1.47058 -1.3e-4,0.92609 -0.003,0.95501 -0.12965,1.67141 -0.33233,1.87219 -1.06638,3.74044 -2.25659,5.74331 -0.82403,1.38671 -2.02295,3.01918 -2.80095,3.81385 -0.39743,0.40594 -0.45602,0.41875 -0.73317,0.16024 z"
       id="path206" />
    <path
       style="fill:#000000;stroke-width:0.0355621"
       d="m -533.86601,-230.78029 v -14.2249 h 0.72902 0.72903 v 14.2249 14.22491 h -0.72903 -0.72902 z"
       id="path204" />
  </g>
</svg>
