<?xml version="1.0" encoding="UTF-8" standalone="no"?>
<svg
   sodipodi:docname="Liberation Bolt 3.svg"
   id="svg8"
   version="1.1"
   viewBox="0 0 34.463391 34.463376"
   height="34.463379mm"
   width="34.46339mm"
   inkscape:version="1.2 (dc2aedaf03, 2022-05-15)"
   inkscape:export-filename="Liberation Bolt 4.png"
   inkscape:export-xdpi="96"
   inkscape:export-ydpi="96"
   xml:space="preserve"
   xmlns:inkscape="http://www.inkscape.org/namespaces/inkscape"
   xmlns:sodipodi="http://sodipodi.sourceforge.net/DTD/sodipodi-0.dtd"
   xmlns="http://www.w3.org/2000/svg"
   xmlns:svg="http://www.w3.org/2000/svg"
   xmlns:rdf="http://www.w3.org/1999/02/22-rdf-syntax-ns#"
   xmlns:cc="http://creativecommons.org/ns#"
   xmlns:dc="http://purl.org/dc/elements/1.1/"><defs
     id="defs2" /><sodipodi:namedview
     id="base"
     pagecolor="#ffffff"
     bordercolor="#666666"
     borderopacity="1.0"
     inkscape:pageopacity="0.0"
     inkscape:pageshadow="2"
     inkscape:zoom="0.98994949"
     inkscape:cx="136.37059"
     inkscape:cy="123.23861"
     inkscape:document-units="mm"
     inkscape:current-layer="layer1"
     showgrid="false"
     inkscape:window-width="960"
     inkscape:window-height="1017"
     inkscape:window-x="952"
     inkscape:window-y="-8"
     inkscape:window-maximized="0"
     inkscape:document-rotation="0"
     inkscape:pagecheckerboard="0"
     inkscape:showpageshadow="2"
     inkscape:deskcolor="#d1d1d1" /><metadata
     id="metadata5"><rdf:RDF><cc:Work
         rdf:about=""><dc:format>image/svg+xml</dc:format><dc:type
           rdf:resource="http://purl.org/dc/dcmitype/StillImage" /></cc:Work></rdf:RDF></metadata><g
     inkscape:label="Layer 1"
     inkscape:groupmode="layer"
     id="layer1"
     transform="translate(688.04, 75.2757)"><path
       style="fill:#000000;stroke-width:0.0430792"
       d="m -688.03967,-58.044002 v -17.231691 h 2.86466 2.86466 l 0.0114,8.260442 c 0.007,4.543242 0.007,12.297503 -10e-5,17.23169 l -0.0114,8.971248 h -2.86456 -2.86457 z"
       id="path126" /><path
       style="fill:#000000;stroke-width:0.0430792"
       d="m -673.23307,-42.524712 c -0.0549,-0.08886 -0.23936,-0.416194 -0.4098,-0.727431 l -0.30988,-0.565885 v -14.229273 -14.22927 l 0.39848,-0.723678 0.39848,-0.723677 2.34782,4.88e-4 2.34781,4.89e-4 0.39849,0.729352 0.39848,0.729353 v 14.220132 14.220131 l -0.39848,0.729353 -0.39849,0.729352 -2.3365,9.41e-4 -2.33651,9.42e-4 -0.0999,-0.161547 z"
       id="path186" /><path
       style="fill:#000000;stroke-width:0.0430792"
       d="m -659.30583,-58.044002 v -17.231691 h 2.86478 2.86477 v 17.231691 17.231689 h -2.86477 -2.86478 z"
       id="path184" /></g></svg>
