<?xml version="1.0" encoding="UTF-8" standalone="no"?>
<svg
   sodipodi:docname="Low Fusion Pulse 3.svg"
   id="svg8"
   version="1.1"
   viewBox="0 0 47.578323 47.578299"
   height="47.5783mm"
   width="47.578327mm"
   inkscape:version="1.1 (c68e22c387, 2021-05-23)"
   inkscape:export-filename="C:\Users\SN\GitHub\SuperNova-Shipyard-Source\Oulines - Projectiles\Liberation Blast 4.png"
   inkscape:export-xdpi="96"
   inkscape:export-ydpi="96"
   xmlns:inkscape="http://www.inkscape.org/namespaces/inkscape"
   xmlns:sodipodi="http://sodipodi.sourceforge.net/DTD/sodipodi-0.dtd"
   xmlns="http://www.w3.org/2000/svg"
   xmlns:svg="http://www.w3.org/2000/svg"
   xmlns:rdf="http://www.w3.org/1999/02/22-rdf-syntax-ns#"
   xmlns:cc="http://creativecommons.org/ns#"
   xmlns:dc="http://purl.org/dc/elements/1.1/">
  <defs
     id="defs2" />
  <sodipodi:namedview
     id="base"
     pagecolor="#ffffff"
     bordercolor="#666666"
     borderopacity="1.0"
     inkscape:pageopacity="0.0"
     inkscape:pageshadow="2"
     inkscape:zoom="1.3155949"
     inkscape:cx="157.72332"
     inkscape:cy="-431.36379"
     inkscape:document-units="mm"
     inkscape:current-layer="layer1"
     showgrid="false"
     inkscape:window-width="1920"
     inkscape:window-height="1017"
     inkscape:window-x="-8"
     inkscape:window-y="-8"
     inkscape:window-maximized="1"
     inkscape:document-rotation="0"
     inkscape:pagecheckerboard="0" />
  <metadata
     id="metadata5">
    <rdf:RDF>
      <cc:Work
         rdf:about="">
        <dc:format>image/svg+xml</dc:format>
        <dc:type
           rdf:resource="http://purl.org/dc/dcmitype/StillImage" />
      </cc:Work>
    </rdf:RDF>
  </metadata>
  <g
     inkscape:label="Layer 1"
     inkscape:groupmode="layer"
     id="layer1"
     transform="translate(122.532, 1148.82)">
    <path
       style="fill:#000000;stroke-width:0.0356557"
       d="m -75.967659,-1268.2741 v -14.2622 h 0.748767 0.748769 v 14.2622 14.2624 h -0.748769 -0.748767 z"
       id="path102" />
    <path
       style="fill:#000000;stroke-width:0.0356557"
       d="m -62.632458,-1261.1801 c -0.459812,-0.052 -0.659077,-0.097 -1.186095,-0.2598 -0.537294,-0.1676 -0.727834,-0.2468 -1.255394,-0.5274 -0.538261,-0.2865 -0.695237,-0.3917 -1.166495,-0.7798 -0.458937,-0.3785 -0.615471,-0.5352 -0.995826,-0.9983 -0.397827,-0.4844 -0.491429,-0.6257 -0.790123,-1.193 -0.298263,-0.5667 -0.362461,-0.7227 -0.536143,-1.3032 -0.183133,-0.6122 -0.201823,-0.7092 -0.260165,-1.3479 -0.06014,-0.6588 -0.06013,-0.7179 8.31e-4,-1.3729 0.05856,-0.631 0.07889,-0.736 0.260166,-1.3439 0.173888,-0.5835 0.236168,-0.7348 0.538393,-1.3089 0.296784,-0.5637 0.398511,-0.7188 0.772994,-1.1765 0.359306,-0.4395 0.524187,-0.605 0.988566,-0.991 0.48639,-0.4047 0.635674,-0.5057 1.172764,-0.7935 0.549549,-0.2944 0.690126,-0.3524 1.313208,-0.541 0.65891,-0.1996 0.736012,-0.2148 1.384151,-0.274 0.655251,-0.059 0.717488,-0.059 1.372739,0 0.644101,0.059 0.728602,0.074 1.372068,0.2697 0.609424,0.1839 0.754957,0.2439 1.30835,0.5387 0.537122,0.2862 0.69739,0.3934 1.166712,0.7797 0.456955,0.3762 0.616099,0.5352 0.994031,0.9944 0.398047,0.4833 0.489351,0.6211 0.791128,1.1944 0.301561,0.5728 0.363978,0.7245 0.537789,1.3076 0.181201,0.6078 0.201608,0.7132 0.260061,1.343 0.06099,0.6571 0.06095,0.7103 -0.0011,1.3867 -0.06135,0.6684 -0.07497,0.7373 -0.272262,1.3797 -0.18111,0.5897 -0.249829,0.7552 -0.537104,1.2944 -0.283382,0.5316 -0.392094,0.6944 -0.777784,1.1632 -0.377541,0.4591 -0.534328,0.616 -0.992679,0.9929 -0.46953,0.386 -0.629719,0.493 -1.165787,0.7783 -0.551083,0.2932 -0.699349,0.3542 -1.309234,0.5383 -0.612279,0.1851 -0.752342,0.2143 -1.276085,0.2653 -0.711123,0.069 -0.991524,0.068 -1.71147,-0.018 z"
       id="path206" />
    <path
       style="fill:#000000;stroke-width:0.0356557"
       d="m -48.691108,-1268.2741 v -14.2622 h 0.623973 0.623974 v 14.2622 14.2624 h -0.623974 -0.623973 z"
       id="path204" />
  </g>
</svg>
