<?xml version="1.0" encoding="UTF-8" standalone="no"?>
<svg
   sodipodi:docname="Mass Driven Asteroid 3.svg"
   id="svg8"
   version="1.1"
   viewBox="0 0 74.171303 74.171201"
   height="74.171204mm"
   width="74.17131mm"
   inkscape:version="1.1 (c68e22c387, 2021-05-23)"
   inkscape:export-filename="C:\Users\SN\GitHub\SuperNova-Shipyard-Source\Oulines - Projectiles\Mass Driven Asteroid 4.png"
   inkscape:export-xdpi="96"
   inkscape:export-ydpi="96"
   xmlns:inkscape="http://www.inkscape.org/namespaces/inkscape"
   xmlns:sodipodi="http://sodipodi.sourceforge.net/DTD/sodipodi-0.dtd"
   xmlns="http://www.w3.org/2000/svg"
   xmlns:svg="http://www.w3.org/2000/svg"
   xmlns:rdf="http://www.w3.org/1999/02/22-rdf-syntax-ns#"
   xmlns:cc="http://creativecommons.org/ns#"
   xmlns:dc="http://purl.org/dc/elements/1.1/">
  <defs
     id="defs2" />
  <sodipodi:namedview
     id="base"
     pagecolor="#ffffff"
     bordercolor="#666666"
     borderopacity="1.0"
     inkscape:pageopacity="0.0"
     inkscape:pageshadow="2"
     inkscape:zoom="0.93026608"
     inkscape:cx="184.35586"
     inkscape:cy="224.12942"
     inkscape:document-units="mm"
     inkscape:current-layer="layer1"
     showgrid="false"
     inkscape:window-width="1920"
     inkscape:window-height="1017"
     inkscape:window-x="-8"
     inkscape:window-y="-8"
     inkscape:window-maximized="1"
     inkscape:document-rotation="0"
     inkscape:pagecheckerboard="0" />
  <metadata
     id="metadata5">
    <rdf:RDF>
      <cc:Work
         rdf:about="">
        <dc:format>image/svg+xml</dc:format>
        <dc:type
           rdf:resource="http://purl.org/dc/dcmitype/StillImage" />
      </cc:Work>
    </rdf:RDF>
  </metadata>
  <g
     inkscape:label="Layer 1"
     inkscape:groupmode="layer"
     id="layer1"
     transform="translate(273.394, 1362.17)">
    <path
       style="fill:#000000;stroke-width:0.0927141"
       d="m -236.58777,-1295.5347 c -0.88522,-2.0564 -2.17139,-7.1682 -2.73724,-10.8788 l -0.15676,-1.0281 h -0.40665 c -0.23561,0 -0.40666,0.049 -0.40666,0.1092 0,0.057 0.1441,0.9765 0.32021,2.0428 0.17612,1.0665 0.28523,1.9738 0.24248,2.0166 -0.0427,0.043 -0.17184,0.064 -0.28687,0.046 -0.23463,-0.036 -0.3986,-0.4428 -1.15589,-2.8757 l -0.42371,-1.3611 -0.32161,0.052 c -0.37496,0.06 -0.38475,0.017 -0.14571,-0.6627 l 0.16154,-0.459 -0.44739,-1.7198 c -1.2794,-4.9181 -1.8641,-8.77 -1.86549,-12.2892 -7.8e-4,-2.1425 0.15023,-3.472 0.55249,-4.8618 0.47547,-1.643 0.95213,-2.5533 1.83727,-3.5085 1.35744,-1.4649 3.10035,-2.1466 5.50012,-2.1508 3.56635,0 5.97285,1.6178 7.1078,4.7968 0.60819,1.7035 0.81615,3.146 0.81853,5.6779 0.003,3.5554 -0.57457,7.3813 -1.8634,12.3356 l -0.44739,1.7198 0.16153,0.459 c 0.23865,0.678 0.22887,0.7237 -0.1424,0.6634 l -0.31831,-0.052 -0.47583,1.4998 c -0.81079,2.5556 -0.86978,2.7012 -1.1077,2.7361 -0.11647,0.017 -0.24671,0 -0.28938,-0.046 -0.0427,-0.043 0.0695,-0.9701 0.24941,-2.0611 0.35664,-2.1635 0.35845,-2.1449 -0.20889,-2.1236 l -0.29119,0.014 -0.15683,1.0283 c -0.41294,2.708 -1.33463,6.7425 -2.04862,8.9675 -0.40069,1.2486 -0.86349,2.3985 -0.96529,2.3985 -0.0399,0 -0.16695,-0.2189 -0.28217,-0.4867 z"
       id="path206" />
    <path
       style="fill:#000000;stroke-width:0.0927141"
       d="m -201.54058,-1325.0872 v -37.0857 h 1.15893 1.15893 v 37.0857 37.0855 h -1.15893 -1.15893 z"
       id="path204" />
    <path
       style="fill:#000000;stroke-width:0.0927141"
       d="m -273.39403,-1325.0872 v -37.0857 h 1.11257 1.11257 v 37.0857 37.0855 h -1.11257 -1.11257 z"
       id="path102" />
  </g>
</svg>
