<?xml version="1.0" encoding="UTF-8" standalone="no"?>
<svg
   sodipodi:docname="Medium Energy Blast 3.svg"
   id="svg8"
   version="1.1"
   viewBox="0 0 18.390019 18.389999"
   height="18.389999mm"
   width="18.39002mm"
   inkscape:version="1.1 (c68e22c387, 2021-05-23)"
   inkscape:export-filename="C:\Users\SN\GitHub\SuperNova-Shipyard-Source\Oulines - Projectiles\Medium Energy Blast 4.png"
   inkscape:export-xdpi="96"
   inkscape:export-ydpi="96"
   xmlns:inkscape="http://www.inkscape.org/namespaces/inkscape"
   xmlns:sodipodi="http://sodipodi.sourceforge.net/DTD/sodipodi-0.dtd"
   xmlns="http://www.w3.org/2000/svg"
   xmlns:svg="http://www.w3.org/2000/svg"
   xmlns:rdf="http://www.w3.org/1999/02/22-rdf-syntax-ns#"
   xmlns:cc="http://creativecommons.org/ns#"
   xmlns:dc="http://purl.org/dc/elements/1.1/">
  <defs
     id="defs2" />
  <sodipodi:namedview
     id="base"
     pagecolor="#ffffff"
     bordercolor="#666666"
     borderopacity="1.0"
     inkscape:pageopacity="0.0"
     inkscape:pageshadow="2"
     inkscape:zoom="0.93026608"
     inkscape:cx="240.25384"
     inkscape:cy="105.88368"
     inkscape:document-units="mm"
     inkscape:current-layer="layer1"
     showgrid="false"
     inkscape:window-width="1920"
     inkscape:window-height="1017"
     inkscape:window-x="1912"
     inkscape:window-y="-8"
     inkscape:window-maximized="1"
     inkscape:document-rotation="0"
     inkscape:pagecheckerboard="0" />
  <metadata
     id="metadata5">
    <rdf:RDF>
      <cc:Work
         rdf:about="">
        <dc:format>image/svg+xml</dc:format>
        <dc:type
           rdf:resource="http://purl.org/dc/dcmitype/StillImage" />
      </cc:Work>
    </rdf:RDF>
  </metadata>
  <g
     inkscape:label="Layer 1"
     inkscape:groupmode="layer"
     id="layer1"
     transform="translate(-54.9038, 1040.89)">
    <path
       style="fill:#000000;stroke-width:0.0229875"
       d="m 54.903766,-1031.6975 v -9.1949 h 0.66664 0.666637 v 9.1949 9.1951 h -0.666637 -0.66664 z"
       id="path126" />
    <path
       style="fill:#000000;stroke-width:0.0229875"
       d="m 62.845957,-1023.5129 c -0.0514,-0.021 -0.516474,-0.8224 -0.753912,-1.2998 -0.756381,-1.5203 -1.180756,-2.9487 -1.359171,-4.5745 -0.07646,-0.6967 -0.09218,-1.0316 -0.09167,-1.9538 4.39e-4,-0.9184 0.0021,-0.9512 0.06143,-1.2798 0.227902,-1.2613 0.795507,-2.3932 1.583606,-3.1578 0.287006,-0.2784 0.516102,-0.4529 0.780741,-0.5948 0.700394,-0.3755 1.414389,-0.3683 2.102574,0.021 0.277531,0.157 0.452806,0.2917 0.730321,0.5612 0.797116,0.7738 1.378149,1.9274 1.592584,3.1621 0.101101,0.5822 0.0987,2.0014 -0.0052,3.0344 -0.179959,1.7904 -0.614058,3.2664 -1.43673,4.8849 -0.268568,0.5283 -0.648826,1.1772 -0.702426,1.1986 -0.05792,0.023 -2.44451,0.021 -2.50221,0 z"
       id="path230" />
    <path
       style="fill:#000000;stroke-width:0.0229875"
       d="m 72.121421,-1031.6975 v -9.1949 h 0.586182 0.586183 v 9.1949 9.1951 h -0.586183 -0.586182 z"
       id="path228" />
    <text
       x="66.543373"
       y="-991.94263"
       id="text28"><tspan
         sodipodi:role="line"
         style="font-style:normal;font-weight:normal;font-size:26.4583px;text-align:center;text-anchor:start;fill:#000000;fill-opacity:1;stroke:none"
         dy="14.816666"
         id="tspan26"
         x="66.543373"
         y="-991.94263">1034.02 px<tspan
   style="font-size:65%;baseline-shift:super"
   id="tspan24">2</tspan></tspan></text>
  </g>
</svg>
