<?xml version="1.0" encoding="UTF-8" standalone="no"?>
<svg
   sodipodi:docname="Medium Hybrid Fusion 3.svg"
   id="svg8"
   version="1.1"
   viewBox="0 0 27.574962 27.574959"
   height="27.574961mm"
   width="27.574961mm"
   inkscape:version="1.1 (c68e22c387, 2021-05-23)"
   inkscape:export-filename="C:\Users\SN\GitHub\SuperNova-Shipyard-Source\Oulines - Projectiles\Medium Hybrid Fusion 4.png"
   inkscape:export-xdpi="96"
   inkscape:export-ydpi="96"
   xmlns:inkscape="http://www.inkscape.org/namespaces/inkscape"
   xmlns:sodipodi="http://sodipodi.sourceforge.net/DTD/sodipodi-0.dtd"
   xmlns="http://www.w3.org/2000/svg"
   xmlns:svg="http://www.w3.org/2000/svg"
   xmlns:rdf="http://www.w3.org/1999/02/22-rdf-syntax-ns#"
   xmlns:cc="http://creativecommons.org/ns#"
   xmlns:dc="http://purl.org/dc/elements/1.1/">
  <defs
     id="defs2" />
  <sodipodi:namedview
     id="base"
     pagecolor="#ffffff"
     bordercolor="#666666"
     borderopacity="1.0"
     inkscape:pageopacity="0.0"
     inkscape:pageshadow="2"
     inkscape:zoom="0.98994949"
     inkscape:cx="-44.284992"
     inkscape:cy="18.02953"
     inkscape:document-units="mm"
     inkscape:current-layer="layer1"
     showgrid="false"
     inkscape:window-width="1858"
     inkscape:window-height="1057"
     inkscape:window-x="54"
     inkscape:window-y="-8"
     inkscape:window-maximized="1"
     inkscape:document-rotation="0"
     inkscape:pagecheckerboard="0"
     inkscape:rotation="-9" />
  <metadata
     id="metadata5">
    <rdf:RDF>
      <cc:Work
         rdf:about="">
        <dc:format>image/svg+xml</dc:format>
        <dc:type
           rdf:resource="http://purl.org/dc/dcmitype/StillImage" />
      </cc:Work>
    </rdf:RDF>
  </metadata>
  <g
     inkscape:label="Layer 1"
     inkscape:groupmode="layer"
     id="layer1"
     transform="translate(711.605, 147.459)">
    <path
       style="fill:#000000;stroke-width:0.0344687"
       d="m -711.60463,-133.67175 v -13.78748 h 1.34428 1.34428 v 13.78748 13.78748 h -1.34428 -1.34428 z"
       id="path102" />
    <path
       style="fill:#000000;stroke-width:0.0344687"
       d="m -697.88283,-121.63608 c -0.0185,-0.0347 -0.0822,-0.2556 -0.14141,-0.49119 -0.498,-1.97934 -1.09145,-3.59579 -2.06803,-5.6331 -0.88172,-1.83938 -1.17293,-2.53024 -1.41613,-3.35963 -0.35942,-1.22567 -0.44442,-2.4445 -0.24284,-3.48241 0.29368,-1.51216 1.15937,-3.15148 2.22913,-4.22125 0.39591,-0.39591 0.70657,-0.62742 1.08453,-0.80817 0.2459,-0.11762 0.27615,-0.12365 0.62043,-0.12365 0.32652,0 0.38384,0.01 0.58596,0.10121 1.04083,0.4701 2.2316,1.94074 2.90437,3.58696 0.56125,1.37337 0.68515,2.55499 0.42105,4.01559 -0.19432,1.07464 -0.51325,1.93283 -1.4475,3.89497 -0.77025,1.61771 -1.17959,2.57904 -1.55146,3.64365 -0.20841,0.59663 -0.55237,1.76032 -0.7092,2.39941 -0.13158,0.53624 -0.1859,0.6327 -0.2689,0.47762 z"
       id="path206" />
    <path
       style="fill:#000000;stroke-width:0.0344687"
       d="m -686.78717,-133.67175 v -13.78748 h 1.37876 1.37874 v 13.78748 13.78748 h -1.37874 -1.37876 z"
       id="path204" />
  </g>
</svg>
