<?xml version="1.0" encoding="UTF-8" standalone="no"?>
<svg
   sodipodi:docname="Pierce Rocket 3.svg"
   id="svg8"
   version="1.1"
   viewBox="0 0 14.320279 14.32028"
   height="14.320281mm"
   width="14.32028mm"
   inkscape:version="1.1 (c68e22c387, 2021-05-23)"
   inkscape:export-filename="C:\Users\SN\GitHub\Supernova-Shipyard-Source\Outlines - Projectiles\Pierce Rocket 4.png"
   inkscape:export-xdpi="96"
   inkscape:export-ydpi="96"
   xmlns:inkscape="http://www.inkscape.org/namespaces/inkscape"
   xmlns:sodipodi="http://sodipodi.sourceforge.net/DTD/sodipodi-0.dtd"
   xmlns="http://www.w3.org/2000/svg"
   xmlns:svg="http://www.w3.org/2000/svg"
   xmlns:rdf="http://www.w3.org/1999/02/22-rdf-syntax-ns#"
   xmlns:cc="http://creativecommons.org/ns#"
   xmlns:dc="http://purl.org/dc/elements/1.1/">
  <defs
     id="defs2" />
  <sodipodi:namedview
     id="base"
     pagecolor="#ffffff"
     bordercolor="#666666"
     borderopacity="1.0"
     inkscape:pageopacity="0.0"
     inkscape:pageshadow="2"
     inkscape:zoom="0.98994949"
     inkscape:cx="41.921331"
     inkscape:cy="47.982246"
     inkscape:document-units="mm"
     inkscape:current-layer="layer1"
     showgrid="false"
     inkscape:window-width="1858"
     inkscape:window-height="1057"
     inkscape:window-x="54"
     inkscape:window-y="-8"
     inkscape:window-maximized="1"
     inkscape:document-rotation="0"
     inkscape:pagecheckerboard="0" />
  <metadata
     id="metadata5">
    <rdf:RDF>
      <cc:Work
         rdf:about="">
        <dc:format>image/svg+xml</dc:format>
        <dc:type
           rdf:resource="http://purl.org/dc/dcmitype/StillImage" />
      </cc:Work>
    </rdf:RDF>
  </metadata>
  <g
     inkscape:label="Layer 1"
     inkscape:groupmode="layer"
     id="layer1"
     transform="translate(-211.194, 74.6979)">
    <path
       style="fill:#000000;stroke-width:0.0179003"
       d="m 211.19422,-67.537808 v -7.160141 h 1.61998 1.61999 v 7.160141 7.16014 h -1.61999 -1.61998 z"
       id="path102" />
    <path
       style="fill:#000000;stroke-width:0.0179003"
       d="m 217.51305,-61.237008 c 0,-0.0099 0.0271,-0.120672 0.0601,-0.246129 l 0.0601,-0.228107 -0.0404,-1.476778 c -0.072,-2.630234 -0.0872,-3.915717 -0.0636,-5.388007 0.0209,-1.303249 0.022,-1.327002 0.1098,-2.514999 0.0489,-0.659628 0.0957,-1.279875 0.10428,-1.378328 l 0.0156,-0.179002 0.27899,-0.599663 c 0.28814,-0.619357 0.31892,-0.667302 0.36531,-0.569155 0.0107,0.0226 0.13808,0.294833 0.28311,0.604956 l 0.26369,0.563862 0.0769,1.011369 c 0.0906,1.192319 0.0921,1.211844 0.11431,1.512579 0.0382,0.516452 0.0603,2.883535 0.0385,4.122361 -0.0217,1.240408 -0.0834,3.781155 -0.0994,4.094907 -0.008,0.164655 -0.004,0.200141 0.0531,0.416058 0.0342,0.129829 0.0623,0.244163 0.0623,0.254076 0,0.01184 -0.28852,0.01803 -0.84132,0.01803 -0.5528,0 -0.84131,-0.0062 -0.84131,-0.01803 z"
       id="path206" />
    <path
       style="fill:#000000;stroke-width:0.0179003"
       d="m 222.27454,-67.537808 v -7.160141 h 1.61998 1.61998 v 7.160141 7.16014 h -1.61998 -1.61998 z"
       id="path204" />
    <text
       x="224.9966"
       y="-43.597218"
       id="text28"><tspan
         sodipodi:role="line"
         style="font-style:normal;font-weight:normal;font-size:26.4583px;text-align:center;text-anchor:start;fill:#000000;fill-opacity:1;stroke:none"
         dy="14.816666"
         id="tspan26"
         x="224.9966"
         y="-43.597218">263.98 px<tspan
   style="font-size:65%;baseline-shift:super"
   id="tspan24">2</tspan></tspan></text>
  </g>
</svg>
