<?xml version="1.0" encoding="UTF-8" standalone="no"?>
<svg
   sodipodi:docname="Polaron Multi-Torpedo 3.svg"
   id="svg8"
   version="1.1"
   viewBox="0 0 68.78074 68.780733"
   height="68.780739mm"
   width="68.780739mm"
   inkscape:version="1.1 (c68e22c387, 2021-05-23)"
   inkscape:export-filename="C:\Users\SN\GitHub\SuperNova-Shipyard-Source\Oulines - Projectiles\Polaron Multi-Torpedo 4.png"
   inkscape:export-xdpi="96"
   inkscape:export-ydpi="96"
   xmlns:inkscape="http://www.inkscape.org/namespaces/inkscape"
   xmlns:sodipodi="http://sodipodi.sourceforge.net/DTD/sodipodi-0.dtd"
   xmlns="http://www.w3.org/2000/svg"
   xmlns:svg="http://www.w3.org/2000/svg"
   xmlns:rdf="http://www.w3.org/1999/02/22-rdf-syntax-ns#"
   xmlns:cc="http://creativecommons.org/ns#"
   xmlns:dc="http://purl.org/dc/elements/1.1/">
  <defs
     id="defs2" />
  <sodipodi:namedview
     id="base"
     pagecolor="#ffffff"
     bordercolor="#666666"
     borderopacity="1.0"
     inkscape:pageopacity="0.0"
     inkscape:pageshadow="2"
     inkscape:zoom="0.44647028"
     inkscape:cx="-63.834037"
     inkscape:cy="-3.3596861"
     inkscape:document-units="mm"
     inkscape:current-layer="layer1"
     showgrid="false"
     inkscape:window-width="1858"
     inkscape:window-height="1057"
     inkscape:window-x="54"
     inkscape:window-y="-8"
     inkscape:window-maximized="1"
     inkscape:document-rotation="0"
     inkscape:pagecheckerboard="0" />
  <metadata
     id="metadata5">
    <rdf:RDF>
      <cc:Work
         rdf:about="">
        <dc:format>image/svg+xml</dc:format>
        <dc:type
           rdf:resource="http://purl.org/dc/dcmitype/StillImage" />
      </cc:Work>
    </rdf:RDF>
  </metadata>
  <g
     inkscape:label="Layer 1"
     inkscape:groupmode="layer"
     id="layer1"
     transform="translate(-768.561, 187.762)">
    <path
       style="fill:#000000;stroke-width:0.085976"
       d="M 768.56067,-153.37163 V -187.762 h 4.94361 4.94362 v 34.39037 34.39037 h -4.94362 -4.94361 z"
       id="path105" />
    <path
       style="fill:#000000;stroke-width:0.085976"
       d="m 801.38515,-125.94886 c -1.97861,-0.48649 -3.28854,-1.80501 -3.88288,-3.90835 -0.47011,-1.66367 -0.61302,-3.02137 -0.7421,-7.05003 -0.24028,-7.49885 -0.68333,-10.34789 -1.85841,-11.95065 -0.8411,-1.14722 -1.93334,-1.76163 -4.95725,-2.7886 -2.62307,-0.89085 -3.40896,-1.28104 -4.22622,-2.09828 -1.03367,-1.03367 -1.51637,-2.27267 -1.53006,-3.92731 -0.0199,-2.40691 0.95495,-4.14979 2.86171,-5.11622 0.98864,-0.50108 2.22302,-0.83413 4.4663,-1.20505 2.64682,-0.43765 3.61125,-0.75336 4.27375,-1.39906 0.19901,-0.19396 0.441,-0.50783 0.53775,-0.69749 0.39999,-0.78402 0.44578,-1.18034 0.52232,-4.5199 0.0885,-3.86009 0.2261,-5.10301 0.72869,-6.58071 0.65858,-1.93631 1.95429,-3.1546 3.8344,-3.60532 2.07049,-0.49634 4.24033,0.041 5.58156,1.38223 0.76693,0.76693 1.33615,1.89645 2.05366,4.07512 0.66342,2.01445 0.86669,2.53559 1.28228,3.28748 0.49217,0.89044 0.91905,1.4008 1.59506,1.90701 0.84141,0.63007 1.71419,1.0235 3.92172,1.7678 2.56978,0.86645 3.5296,1.34175 4.33414,2.14629 1.02875,1.02875 1.52771,2.31369 1.53765,3.95976 0.007,1.17247 -0.17542,1.98231 -0.65871,2.92318 -0.51799,1.0084 -1.18363,1.63944 -2.30529,2.18546 -1.07425,0.52294 -1.97108,0.76726 -4.28341,1.16691 -2.0369,0.35206 -2.86368,0.55103 -3.52501,0.84832 -1.45616,0.65459 -1.73651,1.92227 -0.63835,2.88648 0.61117,0.53661 1.42262,0.83612 3.38958,1.25112 3.36289,0.70951 4.07795,0.9141 5.18651,1.48392 1.8702,0.96133 2.85715,2.72019 2.83462,5.05163 -0.0161,1.66235 -0.53425,2.97352 -1.58451,4.00929 -0.78598,0.77515 -1.74819,1.24637 -4.20125,2.05749 -2.93453,0.97033 -4.0878,1.60025 -4.96759,2.71334 -0.72685,0.91957 -1.04075,1.62113 -1.91863,4.28822 -0.28017,0.85116 -0.72162,1.98129 -0.98099,2.5114 -0.38891,0.79484 -0.57786,1.07011 -1.07765,1.56989 -0.71436,0.71436 -1.47014,1.12924 -2.51226,1.37908 -0.91985,0.22052 -2.18353,0.21871 -3.09113,-0.004 z"
       id="path209" />
    <path
       style="fill:#000000;stroke-width:0.085976"
       d="M 827.45416,-153.37163 V -187.762 h 4.94364 4.94361 v 34.39037 34.39037 h -4.94361 -4.94364 z"
       id="path207" />
    <text
       x="794.86646"
       y="-88.021736"
       id="text255"><tspan
         sodipodi:role="line"
         style="font-style:normal;font-weight:normal;font-size:26.4583px;text-align:center;text-anchor:start;fill:#000000;fill-opacity:1;stroke:none"
         dy="14.816666"
         id="tspan253"
         x="794.86646"
         y="-88.021736">15900.61 px<tspan
   style="font-size:65%;baseline-shift:super"
   id="tspan251">2</tspan></tspan></text>
  </g>
</svg>
