<?xml version="1.0" encoding="UTF-8" standalone="no"?>
<svg
   sodipodi:docname="Polaron Torpedo 3.svg"
   id="svg8"
   version="1.1"
   viewBox="0 0 21.214279 21.214278"
   height="21.214279mm"
   width="21.214279mm"
   inkscape:version="1.1 (c68e22c387, 2021-05-23)"
   inkscape:export-filename="C:\Users\SN\GitHub\Supernova-Shipyard-Source\Outlines - Projectiles\Polaron Torpedo  4.png"
   inkscape:export-xdpi="96"
   inkscape:export-ydpi="96"
   xmlns:inkscape="http://www.inkscape.org/namespaces/inkscape"
   xmlns:sodipodi="http://sodipodi.sourceforge.net/DTD/sodipodi-0.dtd"
   xmlns="http://www.w3.org/2000/svg"
   xmlns:svg="http://www.w3.org/2000/svg"
   xmlns:rdf="http://www.w3.org/1999/02/22-rdf-syntax-ns#"
   xmlns:cc="http://creativecommons.org/ns#"
   xmlns:dc="http://purl.org/dc/elements/1.1/">
  <defs
     id="defs2" />
  <sodipodi:namedview
     id="base"
     pagecolor="#ffffff"
     bordercolor="#666666"
     borderopacity="1.0"
     inkscape:pageopacity="0.0"
     inkscape:pageshadow="2"
     inkscape:zoom="1.979899"
     inkscape:cx="-18.94036"
     inkscape:cy="83.085046"
     inkscape:document-units="mm"
     inkscape:current-layer="layer1"
     showgrid="false"
     inkscape:window-width="1858"
     inkscape:window-height="1057"
     inkscape:window-x="54"
     inkscape:window-y="-8"
     inkscape:window-maximized="1"
     inkscape:document-rotation="0"
     inkscape:pagecheckerboard="0" />
  <metadata
     id="metadata5">
    <rdf:RDF>
      <cc:Work
         rdf:about="">
        <dc:format>image/svg+xml</dc:format>
        <dc:type
           rdf:resource="http://purl.org/dc/dcmitype/StillImage" />
      </cc:Work>
    </rdf:RDF>
  </metadata>
  <g
     inkscape:label="Layer 1"
     inkscape:groupmode="layer"
     id="layer1"
     transform="translate(-104.775, 153.616)">
    <path
       style="fill:#000000;stroke-width:0.0265179"
       d="m 104.77526,-143.00912 v -10.60714 h 0.57013 0.57014 v 10.60714 10.60714 h -0.57014 -0.57013 z"
       id="path105" />
    <path
       style="fill:#000000;stroke-width:0.0265179"
       d="m 114.48079,-134.24318 -0.83531,-0.0864 -0.8088,-0.24505 -0.80879,-0.24504 -0.77358,-0.40996 -0.77359,-0.40997 -0.61861,-0.50523 c -0.34022,-0.27787 -0.6526,-0.53687 -0.69414,-0.57556 -0.0415,-0.0387 -0.3172,-0.36461 -0.61257,-0.72432 l -0.537,-0.65402 -0.41216,-0.77795 -0.41215,-0.77795 -0.24476,-0.80879 -0.24474,-0.8088 -0.0864,-0.86707 -0.0864,-0.86706 0.0884,-0.88311 c 0.0803,-0.80261 0.097,-0.91091 0.18356,-1.18807 0.0524,-0.16773 0.16127,-0.52572 0.24202,-0.79553 0.14205,-0.47471 0.16016,-0.51574 0.55945,-1.2678 l 0.41266,-0.77721 0.50269,-0.61498 c 0.27649,-0.33823 0.53437,-0.64897 0.57307,-0.69053 0.0387,-0.0415 0.36494,-0.31767 0.725,-0.61357 l 0.65464,-0.538 0.77732,-0.41184 0.77732,-0.41184 0.8088,-0.24421 0.8088,-0.24419 0.87097,-0.0869 0.87098,-0.0869 0.86594,0.0874 0.86594,0.0874 0.58339,0.17743 c 0.32086,0.0976 0.68483,0.20711 0.8088,0.24338 0.15887,0.0464 0.4542,0.18734 1.00063,0.47722 l 0.77522,0.41126 0.66238,0.5425 c 0.7,0.5733 0.68668,0.55966 1.42144,1.45543 0.31956,0.38959 0.40157,0.51022 0.60393,0.88835 0.61341,1.1462 0.57649,1.06126 0.84116,1.93581 l 0.24477,0.80879 0.0862,0.87387 0.0862,0.87386 -0.0862,0.86305 -0.0862,0.86306 -0.24471,0.80879 -0.24471,0.80879 -0.41018,0.77467 -0.41018,0.77466 -0.48236,0.59101 c -0.26529,0.32504 -0.55397,0.66295 -0.6415,0.7509 -0.0875,0.088 -0.42312,0.37527 -0.74576,0.6385 l -0.58664,0.4786 -0.77903,0.41325 c -0.75285,0.39936 -0.79553,0.41819 -1.26962,0.56032 -0.26982,0.0809 -0.62781,0.18953 -0.79555,0.24142 -0.31146,0.0964 -0.48143,0.12104 -1.45846,0.21155 -0.24066,0.0223 -0.49125,0.0456 -0.55688,0.0517 -0.0657,0.006 -0.49523,-0.0277 -0.95465,-0.0752 z"
       id="path209" />
    <path
       style="fill:#000000;stroke-width:0.0265179"
       d="m 124.84927,-143.00912 v -10.60714 h 0.57013 0.57014 v 10.60714 10.60714 h -0.57014 -0.57013 z"
       id="path207" />
  </g>
</svg>
