<?xml version="1.0" encoding="UTF-8" standalone="no"?>
<svg
   sodipodi:docname="Polaron Ultra Torpedo 3.svg"
   id="svg8"
   version="1.1"
   viewBox="0 0 47.525336 47.525338"
   height="47.525341mm"
   width="47.525337mm"
   inkscape:version="1.1 (c68e22c387, 2021-05-23)"
   inkscape:export-filename="C:\Users\SN\GitHub\Supernova-Shipyard-Source\Outlines - Projectiles\Polaron Ultra Torpedo 4.png"
   inkscape:export-xdpi="96"
   inkscape:export-ydpi="96"
   xmlns:inkscape="http://www.inkscape.org/namespaces/inkscape"
   xmlns:sodipodi="http://sodipodi.sourceforge.net/DTD/sodipodi-0.dtd"
   xmlns="http://www.w3.org/2000/svg"
   xmlns:svg="http://www.w3.org/2000/svg"
   xmlns:rdf="http://www.w3.org/1999/02/22-rdf-syntax-ns#"
   xmlns:cc="http://creativecommons.org/ns#"
   xmlns:dc="http://purl.org/dc/elements/1.1/">
  <defs
     id="defs2" />
  <sodipodi:namedview
     id="base"
     pagecolor="#ffffff"
     bordercolor="#666666"
     borderopacity="1.0"
     inkscape:pageopacity="0.0"
     inkscape:pageshadow="2"
     inkscape:zoom="0.7"
     inkscape:cx="100.71429"
     inkscape:cy="155"
     inkscape:document-units="mm"
     inkscape:current-layer="layer1"
     showgrid="false"
     inkscape:window-width="1858"
     inkscape:window-height="1057"
     inkscape:window-x="54"
     inkscape:window-y="-8"
     inkscape:window-maximized="1"
     inkscape:document-rotation="0"
     inkscape:pagecheckerboard="0" />
  <metadata
     id="metadata5">
    <rdf:RDF>
      <cc:Work
         rdf:about="">
        <dc:format>image/svg+xml</dc:format>
        <dc:type
           rdf:resource="http://purl.org/dc/dcmitype/StillImage" />
      </cc:Work>
    </rdf:RDF>
  </metadata>
  <g
     inkscape:label="Layer 1"
     inkscape:groupmode="layer"
     id="layer1"
     transform="translate(124.001, 267.466)">
    <path
       style="fill:#000000;stroke-width:0.0594065"
       d="m -124.00052,-243.70296 v -23.76267 h 2.52478 2.52479 v 23.76267 23.76267 h -2.52479 -2.52478 z"
       id="path105" />
    <path
       style="fill:#000000;stroke-width:0.0594065"
       d="m -100.49328,-223.87597 c -0.36128,-1.45117 -0.56309,-2.8059 -0.781,-5.24266 -0.0811,-0.90736 -0.32103,-4.69218 -0.3351,-5.28718 -0.002,-0.13548 -0.0509,0.056 -0.11093,0.44556 -0.10004,0.64895 -0.20803,1.0099 -0.30207,1.0099 -0.0756,0 -0.17333,-0.31575 -0.23481,-0.75921 -0.0818,-0.58952 -0.17464,-2.58727 -0.18568,-3.99332 -0.007,-1.02889 -0.0136,-1.09864 -0.0573,-0.62378 -0.15305,1.7014 -0.19404,2.097 -0.29549,2.85152 -0.17566,1.30663 -0.41249,2.23548 -0.63177,2.47776 -0.0896,0.0989 -0.10554,0.0999 -0.20268,0.0119 -0.058,-0.0524 -0.13219,-0.21983 -0.16488,-0.37179 -0.0706,-0.32921 -0.1763,-0.60942 -0.1824,-0.48421 -0.007,0.16525 -0.30515,0.74181 -0.43296,0.84022 -0.0986,0.0757 -0.15061,0.0827 -0.23317,0.0312 -0.079,-0.0494 -0.1241,-0.0486 -0.17526,0.002 -0.1295,0.1295 -0.33452,-0.0832 -0.46046,-0.47753 -0.27271,-0.85359 -0.37112,-2.06125 -0.35671,-4.37657 0.0113,-1.60188 0.0335,-2.44702 0.13504,-4.84164 l 0.0353,-0.83167 -0.17352,0.65387 c -0.49162,1.85274 -1.07133,2.53395 -1.3936,1.6377 l -0.10893,-0.30298 -0.18027,0.27215 c -0.47007,0.70968 -0.87798,0.53294 -1.04715,-0.45372 -0.14433,-0.84186 -0.0711,-2.27728 0.2771,-5.43847 l 0.1645,-1.4928 -0.19076,-0.069 c -0.2478,-0.0894 -0.42612,-0.45207 -0.50589,-1.02839 -0.0329,-0.23757 -0.067,-0.43903 -0.0754,-0.44771 -0.008,-0.008 -0.1146,0.14478 -0.2358,0.34101 -0.29363,0.47568 -0.71414,0.8971 -1.06335,1.06562 -0.25528,0.12321 -0.31175,0.1304 -0.53561,0.0676 -0.18524,-0.0519 -0.29509,-0.0531 -0.423,-0.004 -0.3439,0.13086 -0.64866,-0.0478 -0.83245,-0.48761 -0.21497,-0.51455 -0.0515,-1.99116 0.4193,-3.78826 0.36482,-1.39251 1.2076,-4.32347 1.35824,-4.72371 0.53571,-1.42322 1.59181,-2.95965 2.92081,-4.24918 3.27231,-3.17513 7.138274,-3.97265 10.656923,-2.1984 1.225693,0.61802 2.063024,1.23405 3.15142,2.31845 1.384613,1.37955 2.277875,2.69218 2.830755,4.1597 0.215778,0.57273 1.304204,4.46779 1.535536,5.4951 0.448758,1.99291 0.439686,2.96639 -0.0316,3.38599 -0.141926,0.12621 -0.615849,0.15306 -0.727788,0.0412 -0.03593,-0.0359 -0.120964,-0.0245 -0.232768,0.0312 -0.226916,0.11318 -0.416526,0.0658 -0.809994,-0.20172 -0.297564,-0.20248 -0.743477,-0.72496 -0.951905,-1.11546 l -0.09641,-0.1807 -0.07305,0.46338 c -0.09687,0.61458 -0.269314,0.96664 -0.517445,1.05636 l -0.190747,0.069 0.164487,1.49278 c 0.348333,3.16119 0.421467,4.59662 0.277099,5.43847 -0.169187,0.98666 -0.577072,1.1634 -1.047134,0.45372 l -0.180282,-0.27217 -0.110044,0.30573 c -0.131594,0.36604 -0.299136,0.47392 -0.515619,0.33205 -0.213545,-0.13983 -0.604124,-0.98686 -0.841356,-1.82438 l -0.210329,-0.74257 0.03234,0.68317 c 0.152452,3.22262 0.18684,6.19977 0.08623,7.46177 -0.133094,1.67027 -0.423349,2.52618 -0.789924,2.32999 -0.07604,-0.0407 -0.131884,-0.0402 -0.173273,7e-4 -0.14148,0.14147 -0.486271,-0.32381 -0.651557,-0.87992 -0.01354,-0.0481 -0.07269,0.0991 -0.129945,0.32674 -0.05713,0.22774 -0.146423,0.46105 -0.198353,0.51848 -0.08731,0.0965 -0.102398,0.0973 -0.201048,0.007 -0.117609,-0.10644 -0.299567,-0.61549 -0.433101,-1.21142 -0.13864,-0.61864 -0.275138,-1.6486 -0.421222,-3.17824 l -0.13624,-1.42576 -0.0068,1.09901 c -0.0101,1.36455 -0.103071,3.38156 -0.186795,4.00001 -0.06163,0.45598 -0.153936,0.75254 -0.234125,0.75254 -0.09297,0 -0.200586,-0.36871 -0.295113,-1.00994 l -0.1006,-0.68315 -0.042,0.80196 c -0.199395,3.80198 -0.405774,6.19073 -0.695497,8.04961 -0.137732,0.88317 -0.577966,2.76242 -0.647236,2.76242 -0.0256,0 -0.14104,-0.38095 -0.25705,-0.84654 z"
       id="path215" />
    <path
       style="fill:#000000;stroke-width:0.0594065"
       d="m -81.524748,-243.70296 v -23.76267 h 2.524785 2.524781 v 23.76267 23.76267 h -2.524781 -2.524785 z"
       id="path213" />
    <text
       x="-100.87125"
       y="-197.79561"
       id="text111"><tspan
         sodipodi:role="line"
         style="font-style:normal;font-weight:normal;font-size:26.4583px;text-align:center;text-anchor:start;fill:#000000;fill-opacity:1;stroke:none"
         dy="14.816666"
         id="tspan109"
         x="-100.87125"
         y="-197.79561">7342.84 px<tspan
   style="font-size:65%;baseline-shift:super"
   id="tspan107">2</tspan></tspan></text>
  </g>
</svg>
