<?xml version="1.0" encoding="UTF-8" standalone="no"?>
<svg
   sodipodi:docname="Polaron Missile 3.svg"
   id="svg8"
   version="1.1"
   viewBox="0 0 31.723869 31.723871"
   height="31.723873mm"
   width="31.723869mm"
   inkscape:version="1.1 (c68e22c387, 2021-05-23)"
   inkscape:export-filename="C:\Users\SN\GitHub\SuperNova-Shipyard-Source\Oulines - Projectiles\Polaron Missile 4.png"
   inkscape:export-xdpi="96"
   inkscape:export-ydpi="96"
   xmlns:inkscape="http://www.inkscape.org/namespaces/inkscape"
   xmlns:sodipodi="http://sodipodi.sourceforge.net/DTD/sodipodi-0.dtd"
   xmlns="http://www.w3.org/2000/svg"
   xmlns:svg="http://www.w3.org/2000/svg"
   xmlns:rdf="http://www.w3.org/1999/02/22-rdf-syntax-ns#"
   xmlns:cc="http://creativecommons.org/ns#"
   xmlns:dc="http://purl.org/dc/elements/1.1/">
  <defs
     id="defs2" />
  <sodipodi:namedview
     id="base"
     pagecolor="#ffffff"
     bordercolor="#666666"
     borderopacity="1.0"
     inkscape:pageopacity="0.0"
     inkscape:pageshadow="2"
     inkscape:zoom="0.9899495"
     inkscape:cx="-142.93658"
     inkscape:cy="153.03811"
     inkscape:document-units="mm"
     inkscape:current-layer="layer1"
     showgrid="false"
     inkscape:window-width="1858"
     inkscape:window-height="1057"
     inkscape:window-x="54"
     inkscape:window-y="-8"
     inkscape:window-maximized="1"
     inkscape:document-rotation="0"
     inkscape:pagecheckerboard="0" />
  <metadata
     id="metadata5">
    <rdf:RDF>
      <cc:Work
         rdf:about="">
        <dc:format>image/svg+xml</dc:format>
        <dc:type
           rdf:resource="http://purl.org/dc/dcmitype/StillImage" />
      </cc:Work>
    </rdf:RDF>
  </metadata>
  <g
     inkscape:label="Layer 1"
     inkscape:groupmode="layer"
     id="layer1"
     transform="translate(-405.179, 48.8538)">
    <path
       style="fill:#000000;stroke-width:0.0396549"
       d="m 405.1789,-32.991829 v -15.861936 h 2.95428 2.95429 v 15.861936 15.861937 h -2.95429 -2.95428 z"
       id="path102" />
    <path
       style="fill:#000000;stroke-width:0.0396549"
       d="m 420.76847,-23.951733 c -0.42002,-0.08708 -0.73035,-0.346273 -0.93691,-0.782539 -0.20902,-0.441445 -0.33524,-1.133641 -0.33796,-1.853301 -0.005,-1.141068 -0.22678,-1.866 -0.79829,-2.601291 -0.0949,-0.122099 -0.41186,-0.47007 -0.70433,-0.773268 -0.84289,-0.873803 -1.16959,-1.363024 -1.36678,-2.04672 -0.0522,-0.18077 -0.10724,-0.454337 -0.12244,-0.607927 l -0.0276,-0.279256 -0.31952,-0.236062 c -0.8592,-0.634811 -1.37415,-1.530693 -1.58328,-2.754535 -0.0815,-0.476962 -0.062,-1.65738 0.039,-2.359463 0.0841,-0.584938 0.28052,-1.562483 0.4438,-2.209116 0.44109,-1.746742 1.38682,-4.59591 1.85986,-5.603107 0.27977,-0.59569 0.40899,-0.676449 1.03673,-0.647943 0.28052,0.01274 0.33177,0.02664 0.39746,0.107773 0.13346,0.164813 0.0954,0.691779 -0.18075,2.503304 -0.7389,4.846821 -0.89283,6.291563 -0.77745,7.29649 0.0462,0.402534 0.19006,0.917959 0.28111,1.007353 0.0655,0.06428 0.91704,-0.824429 1.20475,-1.257309 0.25458,-0.383027 0.43691,-0.809272 0.5232,-1.223176 0.0308,-0.147532 0.0737,-0.65432 0.0953,-1.126194 0.0217,-0.471875 0.0471,-0.870303 0.0564,-0.885396 0.009,-0.01509 0.0282,-0.874454 0.0419,-1.909691 0.0392,-2.95427 0.0965,-3.92489 0.25052,-4.241712 0.11175,-0.229943 0.21185,-0.255362 1.06715,-0.270951 0.79399,-0.01447 1.11915,0.02208 1.25001,0.140499 0.22865,0.206928 0.2804,0.919593 0.33053,4.551966 0.0126,0.916027 0.0391,1.781493 0.0589,1.92326 0.0198,0.141766 0.0363,0.441367 0.0367,0.665781 0.003,1.42331 0.30865,2.172047 1.30356,3.190652 0.25031,0.256269 0.47065,0.465944 0.48964,0.465944 0.0523,0 0.18726,-0.340264 0.25922,-0.653345 0.0475,-0.206554 0.0638,-0.478395 0.063,-1.051813 -0.002,-1.16186 -0.12004,-2.202545 -0.64781,-5.690469 -0.43814,-2.895544 -0.47114,-3.249498 -0.32025,-3.435665 0.0717,-0.08842 0.10083,-0.09362 0.52543,-0.09362 0.54053,0 0.5963,0.02918 0.80454,0.420978 0.31839,0.599063 1.05806,2.66476 1.5479,4.32295 0.42267,1.430746 0.71255,2.686946 0.87728,3.80169 0.0918,0.620943 0.094,1.869989 0.005,2.352707 -0.21923,1.178488 -0.72654,2.041769 -1.56306,2.659821 l -0.31636,0.23373 -0.0463,0.347748 c -0.12894,0.968474 -0.44762,1.518153 -1.54466,2.664307 -0.6576,0.687043 -0.98495,1.137547 -1.16672,1.605651 -0.17759,0.457367 -0.23058,0.78397 -0.26848,1.654784 -0.0488,1.120862 -0.18016,1.706807 -0.48189,2.149216 -0.28808,0.42238 -0.824,0.633679 -1.33732,0.527261 z"
       id="path206" />
    <path
       style="fill:#000000;stroke-width:0.0396549"
       d="m 430.9942,-32.991829 v -15.861936 h 2.95428 2.95429 v 15.861936 15.861937 h -2.95429 -2.95428 z"
       id="path204" />
    <text
       x="419.6994"
       y="1.7061416"
       id="text252"><tspan
         sodipodi:role="line"
         style="font-style:normal;font-weight:normal;font-size:26.4583px;text-align:center;text-anchor:start;fill:#000000;fill-opacity:1;stroke:none"
         dy="14.816666"
         id="tspan250"
         x="419.6994"
         y="1.7061416">2351.69 px<tspan
   style="font-size:65%;baseline-shift:super"
   id="tspan248">2</tspan></tspan></text>
  </g>
</svg>
