<?xml version="1.0" encoding="UTF-8" standalone="no"?>
<svg
   sodipodi:docname="Polaron Rocket 3.svg"
   id="svg8"
   version="1.1"
   viewBox="0 0 15.88814 15.888146"
   height="15.888146mm"
   width="15.88814mm"
   inkscape:version="1.1 (c68e22c387, 2021-05-23)"
   inkscape:export-filename="C:\Users\SN\GitHub\Supernova-Shipyard-Source\Outlines - Projectiles\Polaron Rocket 4.png"
   inkscape:export-xdpi="96"
   inkscape:export-ydpi="96"
   xmlns:inkscape="http://www.inkscape.org/namespaces/inkscape"
   xmlns:sodipodi="http://sodipodi.sourceforge.net/DTD/sodipodi-0.dtd"
   xmlns="http://www.w3.org/2000/svg"
   xmlns:svg="http://www.w3.org/2000/svg"
   xmlns:rdf="http://www.w3.org/1999/02/22-rdf-syntax-ns#"
   xmlns:cc="http://creativecommons.org/ns#"
   xmlns:dc="http://purl.org/dc/elements/1.1/">
  <defs
     id="defs2" />
  <sodipodi:namedview
     id="base"
     pagecolor="#ffffff"
     bordercolor="#666666"
     borderopacity="1.0"
     inkscape:pageopacity="0.0"
     inkscape:pageshadow="2"
     inkscape:zoom="0.9899495"
     inkscape:cx="97.47972"
     inkscape:cy="-130.81475"
     inkscape:document-units="mm"
     inkscape:current-layer="layer1"
     showgrid="false"
     inkscape:window-width="1858"
     inkscape:window-height="1057"
     inkscape:window-x="54"
     inkscape:window-y="-8"
     inkscape:window-maximized="1"
     inkscape:document-rotation="0"
     inkscape:pagecheckerboard="0" />
  <metadata
     id="metadata5">
    <rdf:RDF>
      <cc:Work
         rdf:about="">
        <dc:format>image/svg+xml</dc:format>
        <dc:type
           rdf:resource="http://purl.org/dc/dcmitype/StillImage" />
      </cc:Work>
    </rdf:RDF>
  </metadata>
  <g
     inkscape:label="Layer 1"
     inkscape:groupmode="layer"
     id="layer1"
     transform="translate(-236.391, -8.73563)">
    <path
       style="fill:#000000;stroke-width:0.0198601"
       d="M 236.39059,16.679704 V 8.7356313 h 1.42993 1.42994 v 7.9440727 7.944074 h -1.42994 -1.42993 z"
       id="path105" />
    <path
       style="fill:#000000;stroke-width:0.0198601"
       d="m 242.06066,23.782918 c -0.18531,-0.06138 -0.29636,-0.159063 -0.37505,-0.329882 -0.0405,-0.08777 -0.0419,-0.12712 -0.0544,-1.361432 -0.0175,-1.742446 -0.0481,-2.081134 -0.28497,-3.158625 -0.048,-0.218933 -0.10558,-0.504919 -0.12748,-0.635527 -0.0354,-0.209694 -0.0476,-0.321943 -0.0695,-0.634668 -0.0101,-0.126012 0.023,-0.444053 0.0595,-0.595807 0.0391,-0.162814 0.12049,-0.352192 0.20577,-0.478368 0.0333,-0.0493 0.0604,-0.09332 0.0604,-0.0978 0,-0.0047 -0.0493,-0.08042 -0.10937,-0.168734 -0.22576,-0.331576 -0.39704,-0.77713 -0.42247,-1.099047 -0.0235,-0.297834 0.0101,-0.591083 0.10722,-0.991018 0.3542,-1.430964 1.23847,-2.985614 2.32825,-4.093378 0.36189,-0.3678552 0.55776,-0.4973634 0.83208,-0.5501514 0.217,-0.041756 0.45954,0.029497 0.70756,0.2078671 0.26052,0.1873494 0.75377,0.7267923 1.14571,1.2529993 0.84237,1.130934 1.44878,2.454788 1.63686,3.573496 0.037,0.22011 0.0422,0.579615 0.0114,0.746094 -0.0539,0.284915 -0.22041,0.675541 -0.40605,0.952894 l -0.10962,0.163902 0.0781,0.131744 c 0.28161,0.47499 0.31518,1.032849 0.11909,1.97874 -0.0317,0.152924 -0.0931,0.447849 -0.13632,0.655389 -0.17874,0.85781 -0.21358,1.338587 -0.21882,3.018746 -10e-4,0.557078 -0.0114,1.044148 -0.0192,1.08238 -0.0412,0.177699 -0.16171,0.323937 -0.33012,0.400723 -0.13617,0.06205 -0.34217,0.06174 -0.46266,-7.21e-4 -0.12965,-0.06721 -0.23254,-0.170579 -0.2847,-0.285959 l -0.0471,-0.1041 -0.003,-1.06252 c -0.004,-1.856161 0.0385,-2.365463 0.29958,-3.579607 0.14495,-0.673641 0.14434,-0.74424 -0.001,-0.243831 -0.10381,0.356066 -0.15764,0.625944 -0.22565,1.132384 -0.098,0.729278 -0.20212,1.094402 -0.41359,1.449794 -0.15428,0.259226 -0.26508,0.357443 -0.49325,0.437143 l -0.13632,0.04761 -0.0114,0.909508 c -0.0114,0.90619 -0.0114,0.909889 -0.0575,1.014519 -0.0952,0.210609 -0.3415,0.356691 -0.56348,0.334156 -0.20538,-0.02086 -0.39145,-0.152362 -0.47405,-0.335072 -0.0471,-0.103974 -0.0471,-0.105199 -0.0528,-1.013617 -0.004,-0.691108 -0.0126,-0.911194 -0.0298,-0.916496 -0.2867,-0.08315 -0.42309,-0.180802 -0.56805,-0.406778 -0.24662,-0.384457 -0.35426,-0.741557 -0.45995,-1.525929 -0.0335,-0.248401 -0.0786,-0.536538 -0.10027,-0.640308 -0.0496,-0.237881 -0.22402,-0.834096 -0.23192,-0.793058 -0.003,0.0169 0.0351,0.222342 0.0852,0.456566 0.16718,0.780629 0.20696,1.01379 0.25731,1.508242 0.0477,0.47018 0.0732,1.35996 0.0664,2.333573 l -0.006,0.913567 -0.0529,0.09932 c -0.1317,0.247396 -0.42352,0.38013 -0.6621,0.301102 z"
       id="path209" />
    <path
       style="fill:#000000;stroke-width:0.0198601"
       d="M 249.41887,16.679704 V 8.7356313 h 1.42993 1.42993 v 7.9440727 7.944074 h -1.42993 -1.42993 z"
       id="path207" />
  </g>
</svg>
