<?xml version="1.0" encoding="UTF-8" standalone="no"?>
<svg
   sodipodi:docname="radar missile 3.svg"
   id="svg8"
   version="1.1"
   viewBox="0 0 31.657039 31.657048"
   height="31.657049mm"
   width="31.65704mm"
   inkscape:version="1.1 (c68e22c387, 2021-05-23)"
   inkscape:export-filename="C:\Users\SN\GitHub\Supernova-Shipyard-Source\Oulines - Projectiles\radar missile 4.png"
   inkscape:export-xdpi="96"
   inkscape:export-ydpi="96"
   xmlns:inkscape="http://www.inkscape.org/namespaces/inkscape"
   xmlns:sodipodi="http://sodipodi.sourceforge.net/DTD/sodipodi-0.dtd"
   xmlns="http://www.w3.org/2000/svg"
   xmlns:svg="http://www.w3.org/2000/svg"
   xmlns:rdf="http://www.w3.org/1999/02/22-rdf-syntax-ns#"
   xmlns:cc="http://creativecommons.org/ns#"
   xmlns:dc="http://purl.org/dc/elements/1.1/">
  <defs
     id="defs2" />
  <sodipodi:namedview
     id="base"
     pagecolor="#ffffff"
     bordercolor="#666666"
     borderopacity="1.0"
     inkscape:pageopacity="0.0"
     inkscape:pageshadow="2"
     inkscape:zoom="0.9899495"
     inkscape:cx="250.01275"
     inkscape:cy="156.06857"
     inkscape:document-units="mm"
     inkscape:current-layer="layer1"
     showgrid="false"
     inkscape:window-width="1858"
     inkscape:window-height="1057"
     inkscape:window-x="54"
     inkscape:window-y="-8"
     inkscape:window-maximized="1"
     inkscape:document-rotation="0"
     inkscape:pagecheckerboard="0" />
  <metadata
     id="metadata5">
    <rdf:RDF>
      <cc:Work
         rdf:about="">
        <dc:format>image/svg+xml</dc:format>
        <dc:type
           rdf:resource="http://purl.org/dc/dcmitype/StillImage" />
      </cc:Work>
    </rdf:RDF>
  </metadata>
  <g
     inkscape:label="Layer 1"
     inkscape:groupmode="layer"
     id="layer1"
     transform="translate(-162.617, -39.7317)">
    <path
       style="fill:#000000;stroke-width:0.0395713"
       d="m 176.84959,69.542548 c -0.0147,-0.01475 -0.0269,-0.237604 -0.0269,-0.495226 v -0.468401 l -0.57021,-0.979249 -0.57021,-0.979248 -0.17175,-0.01978 -0.17176,-0.01978 -0.0109,-1.295961 -0.0109,-1.29596 h 0.17431 c 0.16826,0 0.17663,-0.0058 0.24083,-0.168179 0.0367,-0.0925 0.15314,-0.355153 0.259,-0.583677 0.10583,-0.228524 0.26612,-0.593569 0.35617,-0.811212 0.0901,-0.217641 0.19077,-0.416705 0.22387,-0.442362 0.0385,-0.02988 0.15839,-0.04033 0.33346,-0.02907 0.20231,0.01301 0.2741,0.0046 0.27642,-0.03249 0.001,-0.02755 4.7e-4,-0.161804 -0.002,-0.29836 -0.004,-0.203336 -0.0227,-0.265161 -0.0992,-0.34151 -0.11065,-0.110675 -0.21782,-0.445645 -0.21782,-0.680975 0,-0.141402 -0.0188,-0.181548 -0.11778,-0.252019 -0.0687,-0.04892 -0.1366,-0.146819 -0.16303,-0.235069 -0.0371,-0.124071 -0.63431,-0.740204 -3.32379,-3.429542 l -3.27849,-3.278298 0.0862,-0.09181 0.0862,-0.09181 3.2423,3.236453 c 1.78327,1.780048 3.09051,3.058381 2.90496,2.840739 -0.57242,-0.67144 -1.31363,-1.689262 -2.12357,-2.916084 -1.07658,-1.630718 -1.92062,-2.923666 -1.9372,-2.967516 -0.008,-0.02029 0.0173,-0.07148 0.0556,-0.113748 0.0532,-0.05875 0.12171,-0.07676 0.29097,-0.0765 l 0.22139,3.55e-4 0.75186,0.991287 c 2.3857,3.145436 2.53394,3.347692 3.08067,4.203398 0.28149,0.440582 0.30074,0.461555 0.34492,0.375927 0.0258,-0.04988 0.0847,-0.132189 0.13089,-0.182913 l 0.0841,-0.09224 -6.7e-4,-4.814616 -6.7e-4,-4.814615 -0.18519,-0.6925 c -0.12965,-0.48489 -0.25725,-0.850943 -0.42559,-1.221017 l -0.24041,-0.528522 0.25336,-0.480547 c 0.21599,-0.409665 0.26866,-0.482394 0.35702,-0.493068 0.057,-0.0069 0.10365,-0.01826 0.10365,-0.02529 0,-0.02373 0.7512,-3.720654 0.7763,-3.820396 0.0685,-0.271863 0.0495,0.118958 -0.0635,1.30724 -0.0685,0.719748 -0.11852,1.32626 -0.11138,1.347807 0.008,0.02155 0.17752,-0.474219 0.37853,-1.1017 0.2851,-0.889972 0.36548,-1.190583 0.36548,-1.366896 0,-0.326184 0.0699,-0.278384 0.0891,0.06088 0.0127,0.225891 0.0912,0.51626 0.36916,1.365597 0.19414,0.593287 0.35827,1.054262 0.36475,1.024389 0.007,-0.02987 -0.0436,-0.628075 -0.11114,-1.329338 -0.11416,-1.184571 -0.13294,-1.562915 -0.0651,-1.307968 0.0245,0.09186 0.77774,3.792118 0.77774,3.820395 0,0.007 0.0458,0.0184 0.10157,0.02528 0.0856,0.01049 0.1416,0.08814 0.35562,0.492529 l 0.25402,0.480006 -0.23893,0.529061 c -0.16403,0.363202 -0.29718,0.746161 -0.42476,1.22156 l -0.18584,0.692499 -1.1e-4,4.814615 -1.2e-4,4.814615 0.0841,0.09223 c 0.0463,0.05073 0.10518,0.133036 0.13089,0.182913 0.0442,0.08564 0.0632,0.06497 0.34283,-0.372323 0.51085,-0.799019 1.26142,-1.83171 2.47007,-3.398495 0.20146,-0.261171 0.58981,-0.773124 0.86296,-1.137675 l 0.49666,-0.66282 h 0.22387 c 0.17138,0 0.24017,0.01802 0.29342,0.07685 0.0382,0.04227 0.0632,0.09421 0.0556,0.115441 -0.0144,0.03996 -0.73193,1.13823 -1.93746,2.965742 -0.96239,1.458904 -1.38678,2.040948 -2.12631,2.916158 -0.19361,0.229132 1.02159,-0.957764 2.88667,-2.819456 1.77158,-1.768343 3.24051,-3.21517 3.26427,-3.21517 0.0238,0 0.0721,0.03185 0.10726,0.07078 0.0604,0.06665 -0.12756,0.262386 -3.21766,3.352311 -2.3149,2.314769 -3.28881,3.313899 -3.30584,3.391398 -0.0133,0.06043 -0.0826,0.165061 -0.15416,0.232524 -0.11223,0.105879 -0.13322,0.156557 -0.15318,0.370344 -0.0282,0.301499 -0.1179,0.537366 -0.24706,0.649718 -0.0841,0.07308 -0.0968,0.117823 -0.0968,0.341571 0,0.176525 0.0156,0.259287 0.0495,0.263237 0.10169,0.01185 0.29225,0.02384 0.45647,0.02875 0.18915,0.0057 0.17036,-0.02249 0.45278,0.677773 0.0658,0.163231 0.2034,0.474856 0.30572,0.692498 0.10234,0.217642 0.20908,0.453586 0.23724,0.52432 0.047,0.117798 0.0657,0.128607 0.22501,0.128607 h 0.17382 l -0.0109,1.29596 -0.0109,1.295961 -0.17265,0.01978 -0.17265,0.01978 -0.55872,0.949712 -0.55872,0.949711 -0.0204,0.514427 -0.0204,0.514427 -1.5857,0.01027 c -0.87216,0.0057 -1.59779,-0.0016 -1.61253,-0.01648 z"
       id="path214" />
    <path
       style="fill:#000000;stroke-width:0.0395713"
       d="M 188.61501,55.560242 V 39.731717 h 2.82934 2.82935 v 15.828525 15.828524 h -2.82935 -2.82934 z"
       id="path212" />
    <path
       style="fill:#000000;stroke-width:0.0395713"
       d="M 162.61666,55.560242 V 39.731717 h 2.82935 2.82934 v 15.828525 15.828524 h -2.82934 -2.82935 z"
       id="path30" />
    <text
       x="200.36931"
       y="109.09843"
       id="text641"><tspan
         sodipodi:role="line"
         style="font-style:normal;font-weight:normal;font-size:26.4583px;text-align:center;text-anchor:start;fill:#000000;fill-opacity:1;stroke:none"
         dy="14.816667"
         id="tspan639"
         x="200.36931"
         y="109.09843">1515.81 px<tspan
   style="font-size:65%;baseline-shift:super"
   id="tspan637">2</tspan></tspan></text>
  </g>
</svg>
