<?xml version="1.0" encoding="UTF-8" standalone="no"?>
<svg
   xml:space="preserve"
   inkscape:export-ydpi="96"
   inkscape:export-xdpi="96"
   inkscape:export-filename="Replicant Rocket 4.png"
   inkscape:version="1.2 (dc2aedaf03, 2022-05-15)"
   width="18.058926mm"
   height="18.058926mm"
   viewBox="0 0 18.058926 18.058926"
   version="1.1"
   id="svg8"
   sodipodi:docname="Replicant Rocket 3.svg"
   xmlns:inkscape="http://www.inkscape.org/namespaces/inkscape"
   xmlns:sodipodi="http://sodipodi.sourceforge.net/DTD/sodipodi-0.dtd"
   xmlns="http://www.w3.org/2000/svg"
   xmlns:svg="http://www.w3.org/2000/svg"
   xmlns:rdf="http://www.w3.org/1999/02/22-rdf-syntax-ns#"
   xmlns:cc="http://creativecommons.org/ns#"
   xmlns:dc="http://purl.org/dc/elements/1.1/"><defs
     id="defs2" /><sodipodi:namedview
     id="base"
     pagecolor="#ffffff"
     bordercolor="#666666"
     borderopacity="1.0"
     inkscape:pageopacity="0.0"
     inkscape:pageshadow="2"
     inkscape:zoom="2.8"
     inkscape:cx="26.785714"
     inkscape:cy="36.071428"
     inkscape:document-units="mm"
     inkscape:current-layer="layer1"
     showgrid="false"
     inkscape:window-width="1920"
     inkscape:window-height="1017"
     inkscape:window-x="-8"
     inkscape:window-y="-8"
     inkscape:window-maximized="1"
     inkscape:document-rotation="0"
     inkscape:pagecheckerboard="0"
     inkscape:showpageshadow="2"
     inkscape:deskcolor="#d1d1d1" /><metadata
     id="metadata5"><rdf:RDF><cc:Work
         rdf:about=""><dc:format>image/svg+xml</dc:format><dc:type
           rdf:resource="http://purl.org/dc/dcmitype/StillImage" /></cc:Work></rdf:RDF></metadata><g
     inkscape:label="Layer 1"
     inkscape:groupmode="layer"
     id="layer1"
     transform="translate(89.1437, 53.8054)"><path
       style="fill:#000000;stroke-width:0.0225737"
       d="m -89.143709,-44.775976 v -9.029463 h 0.891659 0.89166 v 9.029463 9.029463 h -0.89166 -0.891659 z"
       id="path183" /><path
       style="fill:#000000;stroke-width:0.0225737"
       d="m -85.080451,-37.891009 c -0.0891,-0.11175 -0.168733,-0.203148 -0.176945,-0.203132 -0.0082,1.6e-5 -0.10128,0.01523 -0.206807,0.03385 -0.105544,0.0186 -0.205138,0.03381 -0.221344,0.03382 -0.01623,1.9e-5 -0.114722,-0.177517 -0.218924,-0.394523 l -0.189459,-0.394554 0.134437,-0.128233 c 0.07395,-0.07054 0.130324,-0.132359 0.12527,-0.137404 -0.005,-0.005 -0.07086,0.02199 -0.146253,0.06003 -0.07538,0.03805 -0.150744,0.06921 -0.167441,0.06921 -0.0167,0 -0.139585,-0.116746 -0.273081,-0.259424 l -0.242721,-0.259421 0.109237,-0.193709 0.10925,-0.193709 -0.03228,-0.356297 -0.03228,-0.3563 0.469077,-1.193981 c 0.257992,-0.656692 0.493474,-1.255368 0.523292,-1.330394 0.04839,-0.121772 0.08292,-0.161723 0.321615,-0.372185 l 0.267392,-0.235775 0.03961,-0.152652 c 0.02176,-0.08395 0.04818,-0.152651 0.05868,-0.152651 0.01051,0 0.01338,-0.01506 0.0063,-0.03345 -0.0069,-0.01842 0.033,-0.118259 0.08904,-0.22189 l 0.101866,-0.188427 -0.08835,-0.195546 c -0.04857,-0.107545 -0.08835,-0.208763 -0.08835,-0.224916 0,-0.03244 0.691716,-1.798908 0.712592,-1.819784 0.0071,-0.0071 0.101188,-0.04952 0.208922,-0.0941 l 0.195882,-0.08105 0.0801,-0.21265 c 0.07937,-0.210744 0.08081,-0.21271 0.161427,-0.219523 0.0648,-0.0054 0.08671,-0.01983 0.107725,-0.07054 0.02415,-0.05828 0.01281,-0.0906 -0.133127,-0.38204 l -0.159494,-0.318381 0.344158,-0.873224 0.344161,-0.873223 0.336555,-0.126142 0.336553,-0.126142 0.05849,-0.166253 0.05849,-0.16625 0.197413,0.01102 0.197415,0.01102 0.02166,-0.0818 c 0.01205,-0.045 0.04744,-0.181719 0.07897,-0.303831 0.03154,-0.122117 0.06305,-0.23131 0.07007,-0.242667 0.0069,-0.01141 0.09115,-0.02064 0.186979,-0.02064 h 0.17422 l 0.156805,-0.158013 0.156804,-0.158017 h 0.802576 0.802573 l 0.156807,0.158017 0.156804,0.158013 h 0.127257 c 0.06999,0 0.172711,0.0063 0.228272,0.0138 l 0.101016,0.0138 0.06521,0.271444 0.06524,0.271442 0.231946,-0.01418 c 0.127577,-0.0078 0.231942,-0.01129 0.231942,-0.0077 0,0.0035 0.02978,0.09159 0.06618,0.195585 l 0.06618,0.189073 0.28528,0.08416 c 0.156904,0.04631 0.287942,0.08771 0.291195,0.09201 0.01894,0.0251 0.735841,1.875297 0.735611,1.898467 -1.27e-4,0.01548 -0.06558,0.139744 -0.145387,0.27615 -0.12545,0.214426 -0.140888,0.252678 -0.11394,0.282449 0.02276,0.02512 0.169317,0.50002 0.169317,0.548556 0,0.0033 0.124424,0.06656 0.276527,0.140524 0.152092,0.07397 0.280075,0.136442 0.28441,0.138812 0.0045,0.0023 0.153529,0.37407 0.331542,0.826004 l 0.323658,0.821697 -0.112786,0.294964 -0.112787,0.294963 0.115362,0.229915 c 0.0877,0.174745 0.10939,0.237122 0.09044,0.259956 -0.01913,0.02306 -0.01414,0.03344 0.02143,0.04475 0.02549,0.0081 0.04634,0.0274 0.04634,0.04287 0,0.0291 -0.03774,0.256766 -0.05753,0.347164 -0.0098,0.04438 0.02319,0.07341 0.250605,0.221055 0.223834,0.145325 0.267763,0.18374 0.302958,0.264947 0.02265,0.05224 0.242172,0.606387 0.487837,1.23144 l 0.446669,1.136465 -0.0728,0.308249 -0.07279,0.308253 0.117721,0.109416 0.117722,0.109416 -0.167525,0.342059 c -0.09215,0.188134 -0.169855,0.346041 -0.1727,0.350908 -0.0028,0.0048 -0.06891,-0.0017 -0.146815,-0.01433 -0.07791,-0.01269 -0.145839,-0.01929 -0.150959,-0.01458 -0.0051,0.0048 0.05405,0.07459 0.131481,0.155222 0.07742,0.08066 0.137503,0.159996 0.133474,0.176329 -0.01338,0.05431 -0.413221,0.601889 -0.439774,0.602322 -0.01434,2.56e-4 -0.0911,-0.02873 -0.17055,-0.06437 -0.248341,-0.111415 -0.221626,-0.118119 -0.390194,0.09776 l -0.150535,0.192784 -0.974439,-7.2e-4 -0.974435,-7.23e-4 -0.146122,-0.19115 c -0.08036,-0.105135 -0.157501,-0.191149 -0.17141,-0.191149 -0.01395,0 -0.08435,0.02033 -0.156515,0.04514 -0.07217,0.02483 -0.142791,0.04514 -0.156931,0.04514 -0.01413,0 -0.119311,-0.13254 -0.233717,-0.294514 -0.216557,-0.306609 -0.22305,-0.326838 -0.12978,-0.404249 0.07282,-0.06044 0.03154,-0.0714 -0.04606,-0.01218 l -0.08116,0.0619 -0.342107,-0.157135 -0.342103,-0.157132 v -0.178611 -0.178612 l -0.274759,-0.05643 c -0.151114,-0.03104 -0.281233,-0.06297 -0.289145,-0.07092 -0.0079,-0.0079 -0.115452,-0.470169 -0.238967,-1.027102 -0.123528,-0.556928 -0.233198,-1.032913 -0.243737,-1.057746 -0.02148,-0.05061 -0.0069,-0.109441 -0.303247,1.225706 l -0.186864,0.841959 -0.264386,0.225181 -0.264387,0.225184 v 0.236059 c 0,0.226372 -0.0019,0.236528 -0.0508,0.24747 -0.151091,0.03394 -0.656439,0.104289 -0.6999,0.09745 -0.04464,-0.0069 -0.06816,0.0271 -0.197402,0.286261 l -0.146731,0.294248 -0.180589,0.0071 -0.180589,0.0071 -0.158018,0.201578 -0.158015,0.201581 -0.996882,4.5e-5 -0.996885,5.6e-5 z"
       id="path189" /><path
       style="fill:#000000;stroke-width:0.0225737"
       d="m -72.868102,-44.775976 v -9.029463 h 0.891658 0.891661 v 9.029463 9.029463 h -0.891661 -0.891658 z"
       id="path187" /><text
       x="8.956602753745354"
       y="10.091492395503815"
       transform="translate(-89.1437, -53.8054)"
       id="text347"><tspan
         sodipodi:role="line"
         style="fill:#000000;fill-opacity:1.0;font-size:3.175;font-style:normal;font-weight:normal;stroke:none;text-align:center;text-anchor:middle;vertical-align:bottom"
         dy="12.0"
         id="tspan345">1627.64 px<tspan
   style="font-size:65%;baseline-shift:super"
   id="tspan343">2</tspan></tspan></text></g></svg>
