<?xml version="1.0" encoding="UTF-8" standalone="no"?>
<svg
   xml:space="preserve"
   inkscape:export-ydpi="96"
   inkscape:export-xdpi="96"
   inkscape:export-filename="Replicant Missile 4.png"
   inkscape:version="1.2 (dc2aedaf03, 2022-05-15)"
   width="23.30854mm"
   height="23.308537mm"
   viewBox="0 0 23.30854 23.308537"
   version="1.1"
   id="svg8"
   sodipodi:docname="Replicant Missile 3.svg"
   xmlns:inkscape="http://www.inkscape.org/namespaces/inkscape"
   xmlns:sodipodi="http://sodipodi.sourceforge.net/DTD/sodipodi-0.dtd"
   xmlns="http://www.w3.org/2000/svg"
   xmlns:svg="http://www.w3.org/2000/svg"
   xmlns:rdf="http://www.w3.org/1999/02/22-rdf-syntax-ns#"
   xmlns:cc="http://creativecommons.org/ns#"
   xmlns:dc="http://purl.org/dc/elements/1.1/"><defs
     id="defs2" /><sodipodi:namedview
     id="base"
     pagecolor="#ffffff"
     bordercolor="#666666"
     borderopacity="1.0"
     inkscape:pageopacity="0.0"
     inkscape:pageshadow="2"
     inkscape:zoom="2.8"
     inkscape:cx="67.142857"
     inkscape:cy="56.785714"
     inkscape:document-units="mm"
     inkscape:current-layer="layer1"
     showgrid="false"
     inkscape:window-width="1920"
     inkscape:window-height="1017"
     inkscape:window-x="-8"
     inkscape:window-y="-8"
     inkscape:window-maximized="1"
     inkscape:document-rotation="0"
     inkscape:pagecheckerboard="0"
     inkscape:showpageshadow="2"
     inkscape:deskcolor="#d1d1d1" /><metadata
     id="metadata5"><rdf:RDF><cc:Work
         rdf:about=""><dc:format>image/svg+xml</dc:format><dc:type
           rdf:resource="http://purl.org/dc/dcmitype/StillImage" /></cc:Work></rdf:RDF></metadata><g
     inkscape:label="Layer 1"
     inkscape:groupmode="layer"
     id="layer1"
     transform="translate(-41.132091,121.96711)"><path
       style="fill:#000000;stroke-width:0.0291357"
       d="m 41.132091,-110.31285 v -11.65426 h 1.82098 1.820979 v 11.65426 11.654277 h -1.820979 -1.82098 z"
       id="path75" /><path
       style="fill:#000000;stroke-width:0.0291357"
       d="m 50.178476,-100.03438 c -0.0075,-0.0206 -0.0315,-0.0898 -0.05333,-0.15376 l -0.03969,-0.11652 -0.214877,-0.0292 -0.214875,-0.0291 -0.02987,-0.18757 -0.02986,-0.18759 -0.20395,-0.0874 c -0.112173,-0.0481 -0.208088,-0.0902 -0.213148,-0.0936 -0.0052,-0.002 0.0035,-0.0566 0.01894,-0.11833 0.0715,-0.28524 0.08285,-0.25257 -0.155339,-0.4472 l -0.218589,-0.17863 v -1.00272 -1.00272 l 0.217501,-0.18268 c 0.208034,-0.17475 0.217545,-0.18816 0.218517,-0.3084 l 10e-4,-0.12578 0.215164,-0.0994 0.215169,-0.0994 -0.16966,-0.52812 -0.169658,-0.52816 0.07726,-0.15756 0.07727,-0.15758 -0.108829,-0.44393 -0.108828,-0.44399 v -3.56911 -3.56912 l 0.108296,-0.44177 0.108298,-0.44174 -0.107677,-0.11916 c -0.05923,-0.0657 -0.107677,-0.13654 -0.107677,-0.15786 0,-0.0211 0.07267,-0.26705 0.16146,-0.54621 l 0.161456,-0.50754 -0.178952,-0.16092 -0.178951,-0.16092 0.08172,-0.16661 0.08172,-0.16661 -0.09335,-0.0964 c -0.05134,-0.0531 -0.09348,-0.10879 -0.09363,-0.12411 -1.64e-4,-0.0153 0.100592,-0.26047 0.223875,-0.54491 l 0.224146,-0.51717 h 0.150234 0.150236 l 0.03924,-0.16362 c 0.02159,-0.0901 0.05709,-0.18146 0.07883,-0.20323 0.03337,-0.0334 0.02336,-0.065 -0.06373,-0.20114 -0.05684,-0.0887 -0.103335,-0.17319 -0.103335,-0.18744 0,-0.0142 0.07752,-0.20701 0.17228,-0.42834 0.108031,-0.2524 0.192236,-0.41041 0.225802,-0.42379 0.02944,-0.0112 0.127055,-0.0357 0.216922,-0.0529 l 0.163401,-0.0318 0.07977,-0.20336 0.07978,-0.20338 0.13748,0.0182 0.137479,0.0183 0.06401,-0.2203 0.06401,-0.22029 0.209085,-0.008 0.209086,-0.008 0.09778,-0.16754 0.09778,-0.16752 h 0.901659 0.90166 l 0.09044,0.16025 0.09044,0.16025 h 0.183441 c 0.17595,0 0.184243,0.002 0.203019,0.0801 0.01074,0.0441 0.03973,0.1503 0.06436,0.23608 l 0.0448,0.15595 0.164593,-0.0197 c 0.09053,-0.0112 0.19297,-0.0264 0.227653,-0.0348 0.05601,-0.0139 0.07048,0.008 0.129555,0.19156 l 0.0665,0.20648 0.118097,0.002 c 0.237999,0.005 0.237746,0.005 0.440171,0.47589 0.102979,0.23926 0.194839,0.45897 0.204131,0.48825 0.01117,0.0353 -0.01815,0.0941 -0.08713,0.17474 -0.05722,0.0668 -0.10401,0.13558 -0.103999,0.15271 1.3e-5,0.0171 0.04019,0.11611 0.08926,0.21979 l 0.08923,0.18863 -0.09655,0.0803 -0.09655,0.0803 0.175971,-0.0176 0.175974,-0.0176 0.192361,0.44784 0.192365,0.44784 -0.159772,0.14988 c -0.13997,0.13129 -0.155811,0.15728 -0.127817,0.20962 0.01756,0.0328 0.04501,0.0677 0.06094,0.0776 0.0476,0.0294 0.0333,0.0986 -0.04386,0.21217 -0.0866,0.12743 -0.08845,0.14106 -0.02164,0.15852 0.03293,0.008 0.148491,0.21664 0.323665,0.58255 l 0.272458,0.56917 -0.10515,0.15613 c -0.05785,0.0858 -0.105151,0.1837 -0.105151,0.21741 0,0.0336 0.07211,0.37419 0.160245,0.75663 l 0.160249,0.69533 v 2.93073 2.93075 l -0.160249,0.69533 c -0.08814,0.38244 -0.160245,0.72018 -0.160245,0.75052 0,0.0303 0.05244,0.13242 0.116536,0.22684 0.0641,0.0945 0.116467,0.18872 0.116356,0.20964 -8.2e-5,0.0209 -0.09844,0.24514 -0.218517,0.49827 -0.120085,0.25316 -0.218338,0.46457 -0.218338,0.46981 0,0.007 0.377634,0.25788 0.489592,0.32543 0.0049,0.002 -0.02463,0.0879 -0.06555,0.18846 -0.04092,0.10084 -0.07441,0.19835 -0.07441,0.21696 0,0.0186 0.0721,0.0834 0.160246,0.1442 l 0.160247,0.11034 v 0.86956 0.86959 l -0.163135,0.12314 c -0.157086,0.1186 -0.162387,0.12702 -0.142939,0.22674 0.05404,0.27707 0.08417,0.23092 -0.316403,0.48433 -0.348942,0.22075 -0.367709,0.23763 -0.418771,0.37678 l -0.05346,0.14568 -0.152462,-0.008 c -0.169374,-0.0102 -0.160165,-0.0194 -0.209961,0.234 l -0.03293,0.16754 h -0.316361 -0.316363 l -0.03293,-0.16754 c -0.0493,-0.25084 -0.03951,-0.23988 -0.197211,-0.22118 l -0.141352,0.0168 -0.06946,-0.20404 c -0.06742,-0.19802 -0.07533,-0.20771 -0.269328,-0.32943 l -0.199866,-0.12535 0.01761,-0.14741 0.0176,-0.1474 -0.17644,-0.11252 c -0.09704,-0.0618 -0.176712,-0.1143 -0.177048,-0.11653 -3.31e-4,-0.002 -0.08377,-0.37775 -0.185431,-0.83443 -0.168318,-0.75623 -0.190375,-0.83121 -0.247042,-0.83968 -0.03424,-0.005 -0.06223,-0.002 -0.06223,0.005 0,0.0497 -0.382808,1.73019 -0.401654,1.76323 -0.01271,0.0223 -0.120912,0.0762 -0.240465,0.11996 l -0.217381,0.0794 -0.03,0.18563 -0.03,0.18562 -0.290496,0.10591 -0.290493,0.10591 -0.02913,0.1859 -0.02913,0.18591 -0.145678,0.0102 c -0.172757,0.0111 -0.189933,0.0247 -0.250127,0.20345 l -0.04619,0.13709 -0.384163,0.008 c -0.291421,0.0051 -0.387455,-8.2e-4 -0.397797,-0.0292 z"
       id="path189" /><path
       style="fill:#000000;stroke-width:0.0291357"
       d="m 60.798674,-110.31285 v -11.65426 h 1.82098 1.820978 v 11.65426 11.654277 h -1.820978 -1.82098 z"
       id="path187" /></g></svg>
