<?xml version="1.0" encoding="UTF-8" standalone="no"?>
<svg
   sodipodi:docname="Replicant Torpedo 3.svg"
   id="svg8"
   version="1.1"
   viewBox="0 0 39.224789 39.224789"
   height="39.224789mm"
   width="39.224789mm"
   inkscape:version="1.2 (dc2aedaf03, 2022-05-15)"
   inkscape:export-filename="Replicant Torpedo 4.png"
   inkscape:export-xdpi="96"
   inkscape:export-ydpi="96"
   xml:space="preserve"
   xmlns:inkscape="http://www.inkscape.org/namespaces/inkscape"
   xmlns:sodipodi="http://sodipodi.sourceforge.net/DTD/sodipodi-0.dtd"
   xmlns="http://www.w3.org/2000/svg"
   xmlns:svg="http://www.w3.org/2000/svg"
   xmlns:rdf="http://www.w3.org/1999/02/22-rdf-syntax-ns#"
   xmlns:cc="http://creativecommons.org/ns#"
   xmlns:dc="http://purl.org/dc/elements/1.1/"><defs
     id="defs2" /><sodipodi:namedview
     id="base"
     pagecolor="#ffffff"
     bordercolor="#666666"
     borderopacity="1.0"
     inkscape:pageopacity="0.0"
     inkscape:pageshadow="2"
     inkscape:zoom="0.98994949"
     inkscape:cx="129.29953"
     inkscape:cy="134.35029"
     inkscape:document-units="mm"
     inkscape:current-layer="layer1"
     showgrid="false"
     inkscape:window-width="1920"
     inkscape:window-height="1017"
     inkscape:window-x="-8"
     inkscape:window-y="-8"
     inkscape:window-maximized="1"
     inkscape:document-rotation="0"
     inkscape:pagecheckerboard="0"
     inkscape:showpageshadow="2"
     inkscape:deskcolor="#d1d1d1" /><metadata
     id="metadata5"><rdf:RDF><cc:Work
         rdf:about=""><dc:format>image/svg+xml</dc:format><dc:type
           rdf:resource="http://purl.org/dc/dcmitype/StillImage" /></cc:Work></rdf:RDF></metadata><g
     inkscape:label="Layer 1"
     inkscape:groupmode="layer"
     id="layer1"
     transform="translate(554.369, 156.741)"><path
       style="fill:#000000;stroke-width:0.049031"
       d="m -532.13384,-120.62544 -0.78449,-0.20903 0.002,-0.14272 c 0.002,-0.0785 0.0182,-0.33026 0.0379,-0.55948 l 0.0357,-0.41676 -0.41871,-0.23897 c -0.23029,-0.13144 -0.43487,-0.26382 -0.45462,-0.29419 -0.0198,-0.0304 -0.22398,-0.89365 -0.45385,-1.9184 l -0.41793,-1.86318 -0.40333,-0.0143 c -0.22185,-0.008 -0.40443,-0.008 -0.40577,0 -0.002,0.008 -0.20541,0.91803 -0.45353,2.02268 l -0.45112,2.00843 -0.43267,0.17089 c -0.42798,0.16904 -0.43238,0.1725 -0.40709,0.32054 0.0141,0.0823 0.0399,0.27378 0.0575,0.42548 l 0.032,0.27585 -0.5742,0.18084 c -0.31581,0.0995 -0.60402,0.16941 -0.64045,0.15543 -0.0364,-0.014 -0.13588,-0.16434 -0.221,-0.33411 -0.0851,-0.16977 -0.16545,-0.31972 -0.17856,-0.3332 -0.0131,-0.0135 -0.19251,0.15518 -0.39869,0.37481 l -0.37487,0.39933 -1.00514,-0.48234 c -0.55283,-0.26529 -1.02634,-0.49067 -1.05225,-0.50084 -0.029,-0.0113 -0.0164,-0.22432 0.0328,-0.55325 0.0439,-0.2941 0.0713,-0.54868 0.0607,-0.56573 -0.0105,-0.017 -0.29005,-0.22569 -0.62117,-0.46364 -0.33111,-0.23797 -0.61473,-0.45129 -0.63024,-0.47405 -0.0155,-0.0228 -0.25457,-1.05264 -0.53119,-2.28857 l -0.50297,-2.24718 0.37185,-0.68637 c 0.2045,-0.3775 0.37183,-0.69977 0.37183,-0.71616 0,-0.0164 -0.12287,-0.22027 -0.27305,-0.45306 -0.15017,-0.23279 -0.2834,-0.45025 -0.29607,-0.48325 -0.0127,-0.033 0.17608,-0.30112 0.41942,-0.59585 0.24334,-0.29471 0.44275,-0.54908 0.44315,-0.56526 4.3e-4,-0.0161 -0.1441,-0.091 -0.32111,-0.16621 l -0.32186,-0.13679 0.0264,-0.17702 c 0.0145,-0.0974 0.0405,-0.282 0.0578,-0.41034 l 0.0314,-0.23332 -0.37337,-0.41125 -0.37336,-0.41126 v -3.49135 -3.49136 l 0.36773,-0.40505 0.36773,-0.40504 v -0.35191 -0.3519 l 0.32421,-0.14546 0.3242,-0.14547 -0.1185,-0.15892 c -0.0652,-0.0874 -0.25653,-0.35175 -0.42522,-0.58742 l -0.3067,-0.42848 0.37765,-0.49035 0.37764,-0.49035 -0.26044,-0.56323 -0.26044,-0.56322 1.16813,-2.95524 c 0.64247,-1.6254 1.19565,-3.01042 1.22926,-3.07783 0.0471,-0.0945 0.19041,-0.17197 0.62506,-0.33802 l 0.56393,-0.21541 0.0881,-0.56175 c 0.0748,-0.47707 0.10326,-0.56737 0.18864,-0.59904 0.0553,-0.0205 0.48286,-0.11054 0.95018,-0.20008 0.714,-0.13681 0.85644,-0.15181 0.89217,-0.094 0.0504,0.0816 0.0264,0.13543 0.28492,-0.63939 l 0.18811,-0.56385 0.41584,-0.0141 0.41583,-0.0141 0.19038,-0.39047 0.19038,-0.39047 h 1.01001 1.01002 l 0.19261,0.39505 0.19261,0.39505 0.44235,-0.0295 c 0.2433,-0.0162 0.51202,-0.0402 0.59718,-0.0532 l 0.15483,-0.0237 0.23186,0.70006 c 0.12753,0.38503 0.23628,0.70565 0.24167,0.71248 0.005,0.006 0.27786,0.0414 0.6055,0.077 0.32763,0.0355 0.60694,0.0758 0.6207,0.0895 0.0137,0.0137 0.0526,0.22183 0.0865,0.46241 l 0.0615,0.43738 0.6181,0.40606 0.61811,0.40606 1.23924,3.12418 1.23923,3.12417 -0.17581,0.71094 -0.17582,0.71095 0.36712,0.55367 c 0.20726,0.31257 0.35258,0.57946 0.33372,0.61289 -0.0184,0.0326 -0.0748,0.10534 -0.12539,0.16171 -0.0917,0.10219 -0.091,0.10293 0.25393,0.25527 0.30661,0.13542 0.34297,0.16554 0.32022,0.26524 -0.0142,0.0618 -0.0705,0.31853 -0.12515,0.57037 l -0.0995,0.45792 0.34431,0.39584 0.34431,0.39585 v 3.31816 3.31816 l -0.34431,0.39585 -0.34431,0.39584 0.0995,0.45792 c 0.0547,0.25185 0.11095,0.50821 0.12498,0.56968 0.0221,0.0969 -0.0135,0.13023 -0.2666,0.24993 l -0.29208,0.13814 0.10431,0.10431 0.10431,0.10431 -0.22614,0.5144 -0.22614,0.51439 0.37034,0.83594 0.37033,0.83592 -0.60574,2.70823 -0.60574,2.70823 -0.17325,0.17192 c -0.0953,0.0945 -0.41044,0.37653 -0.70034,0.62663 l -0.52708,0.45473 v 0.55153 0.55151 l -0.87029,0.21428 c -0.47868,0.11787 -0.89703,0.22406 -0.92968,0.236 -0.0355,0.013 -0.15314,-0.16706 -0.293,-0.4486 -0.12848,-0.25867 -0.24518,-0.4698 -0.25933,-0.4692 -0.0141,6.1e-4 -0.12216,0.22124 -0.24004,0.49031 -0.11788,0.26907 -0.2282,0.48753 -0.24515,0.48549 -0.0169,-0.002 -0.38384,-0.0978 -0.81532,-0.21276 z"
       id="path314" /><path
       style="fill:#000000;stroke-width:0.049031"
       d="m -522.94053,-137.12853 v -19.61239 h 3.89796 3.89797 v 19.61239 19.6124 h -3.89797 -3.89796 z"
       id="path312" /><path
       style="fill:#000000;stroke-width:0.049031"
       d="m -554.36939,-137.12853 v -19.61239 h 3.89796 3.89797 v 19.61239 19.6124 h -3.89797 -3.89796 z"
       id="path267" /><text
       x="22.235160000000064"
       y="36.115560000000016"
       transform="translate(-554.369, -156.741)"
       id="text417"><tspan
         sodipodi:role="line"
         style="fill:#000000;fill-opacity:1.0;font-size:3.175;font-style:normal;font-weight:normal;stroke:none;text-align:center;text-anchor:start;vertical-align:bottom"
         dy="12.0"
         id="tspan415">7453.5 px<tspan
   style="font-size:65%;baseline-shift:super"
   id="tspan413">2</tspan></tspan></text></g></svg>
