<?xml version="1.0" encoding="UTF-8" standalone="no"?>
<svg
   inkscape:export-ydpi="96"
   inkscape:export-xdpi="96"
   inkscape:export-filename="C:\Users\SN\GitHub\SuperNova-Shipyard-Source\Oulines - Projectiles\Small Hybrid Fusion 4.png"
   inkscape:version="1.1 (c68e22c387, 2021-05-23)"
   width="12.68219mm"
   height="12.682196mm"
   viewBox="0 0 12.68219 12.682195"
   version="1.1"
   id="svg8"
   sodipodi:docname="Small Hybrid Fusion 3.svg"
   xmlns:inkscape="http://www.inkscape.org/namespaces/inkscape"
   xmlns:sodipodi="http://sodipodi.sourceforge.net/DTD/sodipodi-0.dtd"
   xmlns="http://www.w3.org/2000/svg"
   xmlns:svg="http://www.w3.org/2000/svg"
   xmlns:rdf="http://www.w3.org/1999/02/22-rdf-syntax-ns#"
   xmlns:cc="http://creativecommons.org/ns#"
   xmlns:dc="http://purl.org/dc/elements/1.1/">
  <defs
     id="defs2" />
  <sodipodi:namedview
     id="base"
     pagecolor="#ffffff"
     bordercolor="#666666"
     borderopacity="1.0"
     inkscape:pageopacity="0.0"
     inkscape:pageshadow="2"
     inkscape:zoom="0.98994949"
     inkscape:cx="-44.284992"
     inkscape:cy="18.02953"
     inkscape:document-units="mm"
     inkscape:current-layer="svg8"
     showgrid="false"
     inkscape:window-width="1858"
     inkscape:window-height="1057"
     inkscape:window-x="54"
     inkscape:window-y="-8"
     inkscape:window-maximized="1"
     inkscape:document-rotation="0"
     inkscape:pagecheckerboard="0"
     inkscape:rotation="-9" />
  <metadata
     id="metadata5">
    <rdf:RDF>
      <cc:Work
         rdf:about="">
        <dc:format>image/svg+xml</dc:format>
        <dc:type
           rdf:resource="http://purl.org/dc/dcmitype/StillImage" />
      </cc:Work>
    </rdf:RDF>
  </metadata>
  <g
     inkscape:label="Layer 1"
     inkscape:groupmode="layer"
     id="layer1"
     transform="translate(308.556, 47.9255)">
    <path
       style="fill:#000000;stroke-width:0.0158528"
       d="m -302.35743,-37.293131 c -0.32553,-0.118611 -0.8249,-0.450017 -1.28408,-0.852161 -0.3923,-0.343576 -0.75908,-0.750409 -1.07472,-1.192112 -0.71221,-0.996629 -1.06185,-2.040951 -0.98779,-2.950419 0.0984,-1.207794 1.06177,-2.979534 2.18098,-4.01082 0.42648,-0.392974 0.81496,-0.618463 1.15248,-0.66893 0.14767,-0.02208 0.17726,-0.02193 0.32728,0.0015 0.6314,0.09901 1.50549,0.877272 2.24626,1.999992 0.0988,0.149857 0.22435,0.353168 0.27884,0.451804 0.0545,0.09863 0.11788,0.211439 0.14098,0.250674 0.0881,0.149964 0.30683,0.645866 0.40373,0.915508 0.27496,0.76511 0.32541,1.358646 0.17427,2.050175 -0.23693,1.083981 -0.98193,2.267351 -1.979,3.143381 -0.40913,0.359462 -0.87382,0.677731 -1.19916,0.821297 -0.18242,0.08049 -0.24958,0.08757 -0.38007,0.04002 z"
       id="path206" />
    <path
       style="fill:#000000;stroke-width:0.0158528"
       d="m -296.41266,-41.584398 v -6.341098 h 0.2695 0.26949 v 6.341098 6.341098 h -0.26949 -0.2695 z"
       id="path204" />
    <path
       style="fill:#000000;stroke-width:0.0158528"
       d="m -308.55586,-41.584398 v -6.341098 h 0.39632 0.39632 v 6.341098 6.341098 h -0.39632 -0.39632 z"
       id="path102" />
  </g>
</svg>
