<?xml version="1.0" encoding="UTF-8" standalone="no"?>
<svg
   sodipodi:docname="Standard Missile 3.svg"
   id="svg8"
   version="1.1"
   viewBox="0 0 27.527799 27.527804"
   height="27.527805mm"
   width="27.5278mm"
   inkscape:version="1.1 (c68e22c387, 2021-05-23)"
   inkscape:export-filename="C:\Users\SN\GitHub\SuperNova-Shipyard-Source\Oulines - Projectiles\Standard Missile 4.png"
   inkscape:export-xdpi="96"
   inkscape:export-ydpi="96"
   xmlns:inkscape="http://www.inkscape.org/namespaces/inkscape"
   xmlns:sodipodi="http://sodipodi.sourceforge.net/DTD/sodipodi-0.dtd"
   xmlns="http://www.w3.org/2000/svg"
   xmlns:svg="http://www.w3.org/2000/svg"
   xmlns:rdf="http://www.w3.org/1999/02/22-rdf-syntax-ns#"
   xmlns:cc="http://creativecommons.org/ns#"
   xmlns:dc="http://purl.org/dc/elements/1.1/">
  <defs
     id="defs2" />
  <sodipodi:namedview
     id="base"
     pagecolor="#ffffff"
     bordercolor="#666666"
     borderopacity="1.0"
     inkscape:pageopacity="0.0"
     inkscape:pageshadow="2"
     inkscape:zoom="1.4"
     inkscape:cx="178.21428"
     inkscape:cy="94.642857"
     inkscape:document-units="mm"
     inkscape:current-layer="layer1"
     showgrid="false"
     inkscape:window-width="1858"
     inkscape:window-height="1057"
     inkscape:window-x="54"
     inkscape:window-y="-8"
     inkscape:window-maximized="1"
     inkscape:document-rotation="0"
     inkscape:pagecheckerboard="0" />
  <metadata
     id="metadata5">
    <rdf:RDF>
      <cc:Work
         rdf:about="">
        <dc:format>image/svg+xml</dc:format>
        <dc:type
           rdf:resource="http://purl.org/dc/dcmitype/StillImage" />
      </cc:Work>
    </rdf:RDF>
  </metadata>
  <g
     inkscape:label="Layer 1"
     inkscape:groupmode="layer"
     id="layer1"
     transform="translate(226.787, 84.2742)">
    <path
       style="fill:#000000;stroke-width:0.0344098"
       d="m -226.7875,-70.51026 v -13.763903 h 2.06458 2.06459 v 13.763903 13.763903 h -2.06459 -2.06458 z"
       id="path105" />
    <path
       style="fill:#000000;stroke-width:0.0344098"
       d="m -214.71828,-58.374892 -0.16344,-0.251256 v -0.694569 -0.694567 h -1.1536 -1.1536 l 0.01,-0.540242 0.01,-0.540242 1.13552,-0.917929 1.13553,-0.917929 0.0199,-5.810891 c 0.011,-3.195989 0.0264,-5.846196 0.0344,-5.889348 0.0124,-0.06735 -0.14629,-0.208661 -1.12108,-0.998325 l -1.13552,-0.919864 -0.01,-0.524308 -0.01,-0.524308 1.12782,-1.07e-4 1.12782,-1.08e-4 0.003,-1.126811 c 0.003,-1.238867 0.0357,-1.569416 0.22091,-2.246098 0.25076,-0.916343 0.67301,-1.56303 1.18943,-1.821654 0.24035,-0.120372 0.61459,-0.120372 0.85624,0 0.51838,0.258213 0.95474,0.935187 1.20235,1.865351 0.17161,0.644639 0.20383,0.987439 0.20702,2.202411 l 0.003,1.126821 1.12782,1.08e-4 1.12781,1.07e-4 -0.01,0.524402 -0.01,0.524402 -1.13552,0.9207 c -0.96951,0.786103 -1.1334,0.932035 -1.12102,0.998231 0.008,0.04264 0.0198,2.688386 0.0261,5.879434 l 0.0116,5.801905 0.49004,0.397664 c 0.26953,0.218715 0.78425,0.636088 1.14383,0.927495 l 0.65379,0.52983 0.01,0.539662 0.01,0.539661 h -1.1536 -1.1536 v 0.694568 0.694568 l -0.16344,0.251256 -0.16345,0.251256 h -1.53123 -1.53124 l -0.16345,-0.251256 z"
       id="path209" />
    <path
       style="fill:#000000;stroke-width:0.0344098"
       d="m -203.38887,-70.51026 v -13.763903 h 2.06459 2.06458 v 13.763903 13.763903 h -2.06458 -2.06459 z"
       id="path207" />
  </g>
</svg>
