<?xml version="1.0" encoding="UTF-8" standalone="no"?>
<svg
   sodipodi:docname="Stellar Grenade 3.svg"
   id="svg8"
   version="1.1"
   viewBox="0 0 15.762809 15.762809"
   height="15.76281mm"
   width="15.76281mm"
   inkscape:version="1.1 (c68e22c387, 2021-05-23)"
   inkscape:export-filename="C:\Users\SN\GitHub\Supernova-Shipyard-Source\Outlines - Projectiles\Stellar Grenade 4.png"
   inkscape:export-xdpi="96"
   inkscape:export-ydpi="96"
   xmlns:inkscape="http://www.inkscape.org/namespaces/inkscape"
   xmlns:sodipodi="http://sodipodi.sourceforge.net/DTD/sodipodi-0.dtd"
   xmlns="http://www.w3.org/2000/svg"
   xmlns:svg="http://www.w3.org/2000/svg"
   xmlns:rdf="http://www.w3.org/1999/02/22-rdf-syntax-ns#"
   xmlns:cc="http://creativecommons.org/ns#"
   xmlns:dc="http://purl.org/dc/elements/1.1/">
  <defs
     id="defs2" />
  <sodipodi:namedview
     id="base"
     pagecolor="#ffffff"
     bordercolor="#666666"
     borderopacity="1.0"
     inkscape:pageopacity="0.0"
     inkscape:pageshadow="2"
     inkscape:zoom="1.4"
     inkscape:cx="26.071429"
     inkscape:cy="-33.928571"
     inkscape:document-units="mm"
     inkscape:current-layer="layer1"
     showgrid="false"
     inkscape:window-width="1920"
     inkscape:window-height="1017"
     inkscape:window-x="1912"
     inkscape:window-y="-8"
     inkscape:window-maximized="1"
     inkscape:document-rotation="0"
     inkscape:pagecheckerboard="0" />
  <metadata
     id="metadata5">
    <rdf:RDF>
      <cc:Work
         rdf:about="">
        <dc:format>image/svg+xml</dc:format>
        <dc:type
           rdf:resource="http://purl.org/dc/dcmitype/StillImage" />
      </cc:Work>
    </rdf:RDF>
  </metadata>
  <g
     inkscape:label="Layer 1"
     inkscape:groupmode="layer"
     id="layer1"
     transform="translate(486.908, 220.639)">
    <path
       style="fill:#000000;stroke-width:0.0197036"
       d="m -486.90846,-205.17205 v -0.29555 h 7.88141 7.8814 v 0.29555 0.29555 h -7.8814 -7.88141 z"
       id="path102" />
    <path
       style="fill:#000000;stroke-width:0.0197036"
       d="m -486.90846,-220.34376 v -0.29555 h 7.88141 7.8814 v 0.29555 0.29555 h -7.8814 -7.88141 z"
       id="path206" />
    <path
       style="fill:#000000;stroke-width:0.0197036"
       d="m -480.96785,-206.28797 -0.49258,-0.18659 -0.35236,-0.35233 -0.35236,-0.35234 -0.6426,0.007 c -0.35343,0.003 -0.6488,0.003 -0.65638,-10e-4 -0.008,-0.005 0.0714,-0.25724 0.17544,-0.56123 l 0.18922,-0.55272 -0.23678,-0.23984 c -0.13023,-0.13192 -0.61997,-0.63364 -1.08831,-1.11494 l -0.85154,-0.87509 0.34141,-0.34505 c 0.18776,-0.18977 0.43671,-0.43944 0.55321,-0.55481 l 0.21181,-0.20977 v -0.13728 c 0,-0.13699 -1.8e-4,-0.13747 -0.0954,-0.23886 l -0.0954,-0.10159 -0.13793,0.13496 c -0.2257,0.22084 -0.47565,0.32313 -0.78463,0.3211 -0.10416,-6.7e-4 -0.22618,-0.015 -0.29555,-0.0347 -0.36158,-0.10266 -0.66261,-0.40282 -0.77061,-0.76837 -0.0467,-0.15791 -0.0463,-0.45163 6.7e-4,-0.61081 0.14136,-0.47767 0.57024,-0.80079 1.06512,-0.80247 0.31512,-0.001 0.56426,0.10138 0.78614,0.32326 l 0.13616,0.13616 0.0956,-0.10344 c 0.0955,-0.10338 0.0956,-0.10353 0.0956,-0.2426 v -0.13916 l -0.55233,-0.55022 -0.55232,-0.55022 0.12489,-0.1292 c 0.25545,-0.26428 1.64504,-1.69326 1.84362,-1.89589 l 0.20592,-0.21011 -0.18907,-0.55286 c -0.10399,-0.30407 -0.18254,-0.55689 -0.17456,-0.56182 0.008,-0.005 0.30925,-0.009 0.66949,-0.01 l 0.65498,-6.8e-4 0.33242,-0.34034 0.33241,-0.34035 0.51002,-0.19211 0.51001,-0.19211 h 1.42684 1.42685 l 0.50957,0.19177 0.50958,0.19177 0.33534,0.34022 0.33534,0.34022 h 0.65517 c 0.36035,0 0.66045,0.005 0.66691,0.0118 0.007,0.007 -0.0725,0.26061 -0.17543,0.56481 l -0.18716,0.55307 0.23514,0.23811 c 0.54534,0.55223 1.93579,1.98768 1.93069,1.99318 -0.003,0.003 -0.25158,0.25401 -0.55231,0.55717 l -0.54677,0.55121 v 0.13545 c 0,0.13536 6e-5,0.13553 0.0982,0.24004 l 0.0982,0.1046 0.0545,-0.064 c 0.03,-0.0352 0.0589,-0.0696 0.0643,-0.0764 0.0326,-0.0412 0.20199,-0.16156 0.2857,-0.20308 0.18438,-0.0915 0.30251,-0.11945 0.50178,-0.11893 0.32142,6.8e-4 0.57745,0.10685 0.79761,0.33029 0.21408,0.21726 0.31407,0.46515 0.31407,0.77861 0,0.31276 -0.1001,0.56159 -0.31255,0.77693 -0.34422,0.34891 -0.86149,0.43407 -1.30007,0.21404 -0.1436,-0.0721 -0.31788,-0.21929 -0.38912,-0.32876 -0.009,-0.013 -0.0524,0.0209 -0.11241,0.0867 -0.0976,0.10723 -0.0985,0.1093 -0.0994,0.24254 l -6.7e-4,0.13439 0.55363,0.55259 0.55364,0.55259 -0.0955,0.101 c -0.0526,0.0555 -0.25956,0.26943 -0.46005,0.47529 -0.99348,1.02016 -1.15009,1.1808 -1.37501,1.41036 l -0.24245,0.24746 0.18644,0.55381 c 0.10255,0.30459 0.18127,0.55898 0.17494,0.56531 -0.006,0.006 -0.30634,0.0115 -0.66668,0.0115 h -0.65517 l -0.33634,0.34124 -0.33634,0.34124 -0.5076,0.19116 -0.50759,0.19116 -1.43836,-0.002 -1.43836,-0.002 z"
       id="path204" />
    <text
       x="-535.58539"
       y="-189.84599"
       id="text28"><tspan
         sodipodi:role="line"
         style="font-style:normal;font-weight:normal;font-size:26.4583px;text-align:center;text-anchor:start;fill:#000000;fill-opacity:1;stroke:none"
         dy="14.816666"
         id="tspan26"
         x="-535.58539"
         y="-189.84599">1890.01 px<tspan
   style="font-size:65%;baseline-shift:super"
   id="tspan24">2</tspan></tspan></text>
  </g>
</svg>
