<?xml version="1.0" encoding="UTF-8" standalone="no"?>
<svg
   sodipodi:docname="Liberation Blast 3.svg"
   id="svg8"
   version="1.1"
   viewBox="0 0 47.578323 47.578299"
   height="47.5783mm"
   width="47.578327mm"
   inkscape:version="1.1 (c68e22c387, 2021-05-23)"
   inkscape:export-filename="C:\Users\SN\GitHub\SuperNova-Shipyard-Source\Oulines - Projectiles\Liberation Blast 4.png"
   inkscape:export-xdpi="96"
   inkscape:export-ydpi="96"
   xmlns:inkscape="http://www.inkscape.org/namespaces/inkscape"
   xmlns:sodipodi="http://sodipodi.sourceforge.net/DTD/sodipodi-0.dtd"
   xmlns="http://www.w3.org/2000/svg"
   xmlns:svg="http://www.w3.org/2000/svg"
   xmlns:rdf="http://www.w3.org/1999/02/22-rdf-syntax-ns#"
   xmlns:cc="http://creativecommons.org/ns#"
   xmlns:dc="http://purl.org/dc/elements/1.1/">
  <defs
     id="defs2" />
  <sodipodi:namedview
     id="base"
     pagecolor="#ffffff"
     bordercolor="#666666"
     borderopacity="1.0"
     inkscape:pageopacity="0.0"
     inkscape:pageshadow="2"
     inkscape:zoom="0.46513304"
     inkscape:cx="420.30985"
     inkscape:cy="-136.52008"
     inkscape:document-units="mm"
     inkscape:current-layer="layer1"
     showgrid="false"
     inkscape:window-width="1920"
     inkscape:window-height="1017"
     inkscape:window-x="1912"
     inkscape:window-y="-8"
     inkscape:window-maximized="1"
     inkscape:document-rotation="0"
     inkscape:pagecheckerboard="0" />
  <metadata
     id="metadata5">
    <rdf:RDF>
      <cc:Work
         rdf:about="">
        <dc:format>image/svg+xml</dc:format>
        <dc:type
           rdf:resource="http://purl.org/dc/dcmitype/StillImage" />
      </cc:Work>
    </rdf:RDF>
  </metadata>
  <g
     inkscape:label="Layer 1"
     inkscape:groupmode="layer"
     id="layer1"
     transform="translate(122.532, 1148.82)">
    <path
       style="fill:#000000;stroke-width:0.0594729"
       d="m -122.53203,-1125.0332 v -23.7891 h 2.73575 2.73576 v 23.7891 23.7892 h -2.73576 -2.73575 z"
       id="path145" />
    <path
       style="fill:#000000;stroke-width:0.0594729"
       d="m -103.63771,-1107.2359 c -0.0138,-0.024 0.0378,-0.3256 0.11477,-0.6691 0.22144,-0.9888 0.72639,-1.959 1.43884,-2.7646 l 0.2622,-0.2964 -0.0379,-0.3704 c -0.0542,-0.529 -0.35623,-1.964 -0.56499,-2.6842 -0.24577,-0.8479 -0.4895,-1.5186 -1.19235,-3.2811 -1.32405,-3.3202 -1.67813,-4.9009 -1.68526,-7.5233 -0.004,-1.7045 0.1664,-2.7228 0.66928,-3.9846 0.89809,-2.2538 2.51486,-3.7891 4.5819,-4.3511 0.545902,-0.1485 2.070899,-0.1485 2.616805,0 1.020874,0.2775 1.865547,0.7497 2.646007,1.4791 1.324678,1.2378 2.14908,2.873 2.509823,4.9782 0.147833,0.8627 0.129836,2.9757 -0.035,4.1087 -0.266559,1.8322 -0.558378,2.806 -1.684223,5.6202 -0.547748,1.369 -0.822263,2.1338 -1.067477,2.9736 -0.203932,0.6984 -0.506456,2.1364 -0.560565,2.6645 l -0.03795,0.3704 0.262206,0.2964 c 0.712442,0.8056 1.217401,1.7758 1.438843,2.7646 0.07691,0.3435 0.12856,0.6446 0.114764,0.6691 -0.01379,0.024 -0.6087,0.045 -1.322009,0.045 h -1.296924 l -0.134102,-0.3717 c -0.07375,-0.2044 -0.155837,-0.399 -0.182402,-0.4325 -0.04316,-0.054 -0.638216,-0.072 -0.672289,-0.02 -0.0075,0.012 -0.06751,0.195 -0.13321,0.4076 l -0.119442,0.3865 -0.407253,0.018 c -0.580768,0.025 -0.585129,0.022 -0.446529,-0.3812 0.06417,-0.1866 0.116682,-0.3617 0.116682,-0.3894 0,-0.028 -0.133813,-0.05 -0.297364,-0.05 -0.163549,0 -0.297363,0.023 -0.297363,0.05 0,0.028 0.05251,0.2028 0.116682,0.3894 0.138624,0.4028 0.134347,0.4065 -0.447456,0.3812 l -0.40818,-0.018 -0.10754,-0.3567 c -0.05915,-0.1963 -0.144354,-0.3846 -0.189344,-0.4184 -0.0921,-0.069 -0.5647,-0.058 -0.63198,0.014 -0.0241,0.026 -0.10382,0.2147 -0.17723,0.4191 l -0.13349,0.3717 h -1.29693 c -0.71332,0 -1.30821,-0.02 -1.32202,-0.045 z"
       id="path249" />
    <path
       style="fill:#000000;stroke-width:0.0594729"
       d="m -79.830483,-1125.0332 v -23.7891 h 2.438389 2.43839 v 23.7891 23.7892 h -2.43839 -2.438389 z"
       id="path247" />
  </g>
</svg>
