<?xml version="1.0" encoding="UTF-8" standalone="no"?>
<svg
   sodipodi:docname="Waveform 3 3.svg"
   id="svg8"
   version="1.1"
   viewBox="0 0 26.531398 26.531402"
   height="26.531401mm"
   width="26.531401mm"
   inkscape:version="1.2 (dc2aedaf03, 2022-05-15)"
   inkscape:export-filename="Waveform 3 4.png"
   inkscape:export-xdpi="96"
   inkscape:export-ydpi="96"
   xml:space="preserve"
   xmlns:inkscape="http://www.inkscape.org/namespaces/inkscape"
   xmlns:sodipodi="http://sodipodi.sourceforge.net/DTD/sodipodi-0.dtd"
   xmlns="http://www.w3.org/2000/svg"
   xmlns:svg="http://www.w3.org/2000/svg"
   xmlns:rdf="http://www.w3.org/1999/02/22-rdf-syntax-ns#"
   xmlns:cc="http://creativecommons.org/ns#"
   xmlns:dc="http://purl.org/dc/elements/1.1/"><defs
     id="defs2" /><sodipodi:namedview
     id="base"
     pagecolor="#ffffff"
     bordercolor="#666666"
     borderopacity="1.0"
     inkscape:pageopacity="0.0"
     inkscape:pageshadow="2"
     inkscape:zoom="0.9302661"
     inkscape:cx="178.44357"
     inkscape:cy="151.56953"
     inkscape:document-units="mm"
     inkscape:current-layer="layer1"
     showgrid="false"
     inkscape:window-width="1920"
     inkscape:window-height="1017"
     inkscape:window-x="-8"
     inkscape:window-y="-8"
     inkscape:window-maximized="1"
     inkscape:document-rotation="0"
     inkscape:pagecheckerboard="0"
     inkscape:showpageshadow="2"
     inkscape:deskcolor="#d1d1d1" /><metadata
     id="metadata5"><rdf:RDF><cc:Work
         rdf:about=""><dc:format>image/svg+xml</dc:format><dc:type
           rdf:resource="http://purl.org/dc/dcmitype/StillImage" /></cc:Work></rdf:RDF></metadata><g
     inkscape:label="Layer 1"
     inkscape:groupmode="layer"
     id="layer1"
     transform="translate(1136.8, 1310.41)"><path
       style="fill:#000000;stroke-width:0.0331643"
       d="m -1136.8012,-1297.1491 v -13.2657 h 1.2603 1.2602 v 13.2657 13.2657 h -1.2602 -1.2603 z"
       id="path134" /><path
       style="fill:#000000;stroke-width:0.0331643"
       d="m -1127.9553,-1287.1498 c -0.3425,-0.097 -0.6708,-0.2058 -0.7297,-0.2411 -0.059,-0.035 -0.7562,-0.4568 -1.5497,-0.9367 -0.7934,-0.4798 -1.4911,-0.9013 -1.5503,-0.9368 -0.08,-0.048 -0.1809,-0.1936 -0.3897,-0.5629 l -0.282,-0.4985 v -0.2469 -0.2469 l 0.2692,-0.4768 c 0.148,-0.2621 0.2935,-0.4982 0.3234,-0.5244 0.045,-0.04 0.8606,-0.536 2.9486,-1.7944 l 0.3407,-0.2054 0.3618,-0.5001 0.3617,-0.5 0.2534,-1.1228 c 0.1394,-0.6174 0.3854,-1.7047 0.5467,-2.416 0.1613,-0.7115 0.4657,-2.0546 0.6763,-2.9849 0.9892,-4.3682 1.2086,-5.3278 1.2193,-5.3363 0.01,-0.01 0.1925,-0.1531 0.4135,-0.3294 l 0.4018,-0.3204 h 0.8041 0.8041 l 0.4094,0.3234 c 0.2252,0.1778 0.4171,0.3457 0.4264,0.3731 0.01,0.027 0.1752,0.7511 0.3685,1.6084 0.3793,1.6822 0.9217,4.0806 1.5076,6.6661 0.2026,0.8937 0.4409,1.9459 0.5297,2.3381 0.089,0.3921 0.1867,0.8232 0.2176,0.958 0.051,0.2225 0.089,0.2907 0.4173,0.7443 l 0.361,0.4993 0.9535,0.5759 c 0.5244,0.3168 1.2697,0.7654 1.6561,0.9968 l 0.7024,0.4209 0.2842,0.5016 0.2841,0.5016 v 0.2612 0.2611 l -0.2873,0.4936 -0.2872,0.4936 -1.6607,0.9988 -1.6606,0.9989 -0.6443,0.1755 -0.6443,0.1756 -3.7641,-0.01 -3.7642,-0.01 z"
       id="path194" /><path
       style="fill:#000000;stroke-width:0.0331643"
       d="m -1112.7902,-1297.1491 v -13.2657 h 1.2603 1.2601 v 13.2657 13.2657 h -1.2601 -1.2603 z"
       id="path192" /></g></svg>
