<?xml version="1.0" encoding="UTF-8" standalone="no"?>
<svg
   xml:space="preserve"
   inkscape:export-ydpi="96"
   inkscape:export-xdpi="96"
   inkscape:export-filename="Waveform 1 4.png"
   inkscape:version="1.2 (dc2aedaf03, 2022-05-15)"
   width="15.837502mm"
   height="15.83749mm"
   viewBox="0 0 15.8375 15.837491"
   version="1.1"
   id="svg8"
   sodipodi:docname="Waveform 1 3.svg"
   xmlns:inkscape="http://www.inkscape.org/namespaces/inkscape"
   xmlns:sodipodi="http://sodipodi.sourceforge.net/DTD/sodipodi-0.dtd"
   xmlns="http://www.w3.org/2000/svg"
   xmlns:svg="http://www.w3.org/2000/svg"
   xmlns:rdf="http://www.w3.org/1999/02/22-rdf-syntax-ns#"
   xmlns:cc="http://creativecommons.org/ns#"
   xmlns:dc="http://purl.org/dc/elements/1.1/"><defs
     id="defs2" /><sodipodi:namedview
     id="base"
     pagecolor="#ffffff"
     bordercolor="#666666"
     borderopacity="1.0"
     inkscape:pageopacity="0.0"
     inkscape:pageshadow="2"
     inkscape:zoom="0.65779746"
     inkscape:cx="193.06855"
     inkscape:cy="144.42135"
     inkscape:document-units="mm"
     inkscape:current-layer="svg8"
     showgrid="false"
     inkscape:window-width="1920"
     inkscape:window-height="1017"
     inkscape:window-x="-8"
     inkscape:window-y="-8"
     inkscape:window-maximized="1"
     inkscape:document-rotation="0"
     inkscape:pagecheckerboard="0"
     inkscape:showpageshadow="2"
     inkscape:deskcolor="#d1d1d1" /><metadata
     id="metadata5"><rdf:RDF><cc:Work
         rdf:about=""><dc:format>image/svg+xml</dc:format><dc:type
           rdf:resource="http://purl.org/dc/dcmitype/StillImage" /></cc:Work></rdf:RDF></metadata><g
     inkscape:label="Layer 1"
     inkscape:groupmode="layer"
     id="layer1"
     transform="translate(105.445, 1002.52)"><path
       style="fill:#000000;stroke-width:0.0197969"
       d="m -105.44474,-994.60298 v -7.91872 h 1.62337 1.6233 v 7.91872 7.91877 h -1.6233 -1.62337 z"
       id="path132" /><path
       style="fill:#000000;stroke-width:0.0197969"
       d="m -101.11392,-990.05602 -0.21262,-0.2823 0.5743,-2.10758 c 0.31586,-1.15919 0.61478,-2.25455 0.66426,-2.43426 0.0495,-0.17955 0.314311,-1.15011 0.588526,-2.15657 l 0.498593,-1.82993 0.366248,-0.28245 0.366228,-0.2826 H -97.526 l 0.742389,2.2e-4 0.36625,0.28238 0.366232,0.28245 1.162677,4.26403 1.16268,4.26403 -0.212424,0.282 -0.212429,0.28206 -3.375375,3.7e-4 h -3.37533 l -0.21259,-0.28228 z"
       id="path192" /><path
       style="fill:#000000;stroke-width:0.0197969"
       d="m -92.853928,-994.60298 v -7.91872 h 1.623344 1.623346 v 7.91872 7.91877 h -1.623346 -1.623344 z"
       id="path190" /></g></svg>
