<?xml version="1.0" encoding="UTF-8" standalone="no"?>
<svg
   sodipodi:docname="Waveform 4 3.svg"
   id="svg8"
   version="1.1"
   viewBox="0 0 39.689095 39.6891"
   height="39.689098mm"
   width="39.689098mm"
   inkscape:version="1.2 (dc2aedaf03, 2022-05-15)"
   inkscape:export-filename="Waveform 4 4.png"
   inkscape:export-xdpi="96"
   inkscape:export-ydpi="96"
   xml:space="preserve"
   xmlns:inkscape="http://www.inkscape.org/namespaces/inkscape"
   xmlns:sodipodi="http://sodipodi.sourceforge.net/DTD/sodipodi-0.dtd"
   xmlns="http://www.w3.org/2000/svg"
   xmlns:svg="http://www.w3.org/2000/svg"
   xmlns:rdf="http://www.w3.org/1999/02/22-rdf-syntax-ns#"
   xmlns:cc="http://creativecommons.org/ns#"
   xmlns:dc="http://purl.org/dc/elements/1.1/"><defs
     id="defs2" /><sodipodi:namedview
     id="base"
     pagecolor="#ffffff"
     bordercolor="#666666"
     borderopacity="1.0"
     inkscape:pageopacity="0.0"
     inkscape:pageshadow="2"
     inkscape:zoom="2.6311899"
     inkscape:cx="142.14102"
     inkscape:cy="126.17866"
     inkscape:document-units="mm"
     inkscape:current-layer="layer1"
     showgrid="false"
     inkscape:window-width="1920"
     inkscape:window-height="1017"
     inkscape:window-x="1912"
     inkscape:window-y="-8"
     inkscape:window-maximized="1"
     inkscape:document-rotation="0"
     inkscape:pagecheckerboard="0"
     inkscape:showpageshadow="2"
     inkscape:deskcolor="#d1d1d1" /><metadata
     id="metadata5"><rdf:RDF><cc:Work
         rdf:about=""><dc:format>image/svg+xml</dc:format><dc:type
           rdf:resource="http://purl.org/dc/dcmitype/StillImage" /></cc:Work></rdf:RDF></metadata><g
     inkscape:label="Layer 1"
     inkscape:groupmode="layer"
     id="layer1"
     transform="translate(1375.18, 1358.52)"><path
       style="fill:#000000;stroke-width:0.0496114"
       d="m -1375.1817,-1338.6723 v -19.8445 h 1.8852 1.8853 v 19.8445 19.8446 h -1.8853 -1.8852 z"
       id="path180" /><path
       style="fill:#000000;stroke-width:0.0496114"
       d="m -1356.5624,-1322.0796 c -0.2236,-0.1784 -0.4185,-0.3625 -0.4328,-0.4091 -0.026,-0.082 -0.6603,-2.8817 -2.0163,-8.8908 -0.3541,-1.5688 -0.6644,-2.9011 -0.6896,-2.9605 -0.026,-0.059 -0.197,-0.3193 -0.3816,-0.5774 l -0.3357,-0.4697 -1.6726,-1.01 -1.6725,-1.0101 -0.3014,-0.5272 c -0.399,-0.6978 -0.3995,-0.7809 -0.01,-1.4733 l 0.2891,-0.5122 0.5897,-0.3582 c 0.3244,-0.197 1.0809,-0.6545 1.6812,-1.0166 l 1.0914,-0.6584 0.3315,-0.4583 c 0.1823,-0.2521 0.3549,-0.5129 0.3834,-0.5797 0.029,-0.067 0.1876,-0.7241 0.3533,-1.4609 0.1657,-0.7367 0.3999,-1.7748 0.5205,-2.3069 0.1206,-0.5321 0.5778,-2.5525 1.0161,-4.4899 0.4384,-1.9372 0.8086,-3.5605 0.8227,-3.607 0.014,-0.047 0.2089,-0.2306 0.4325,-0.409 l 0.4067,-0.3244 h 0.8185 0.8185 l 0.4085,0.3257 c 0.4562,0.3641 0.4125,0.2729 0.6535,1.3606 0.081,0.3683 0.4852,2.1544 0.8967,3.9689 0.4116,1.8145 0.9272,4.0917 1.146,5.0602 0.2188,0.9688 0.4081,1.7971 0.4211,1.8407 0.012,0.044 0.1802,0.3004 0.3718,0.5706 0.3927,0.5536 0.162,0.3871 2.4528,1.7701 l 1.2899,0.7786 0.2852,0.5139 c 0.3825,0.6892 0.3819,0.778 -0.01,1.468 l -0.2932,0.5171 -1.1821,0.7127 c -2.4132,1.4553 -2.1342,1.2573 -2.5191,1.7883 -0.388,0.5355 -0.393,0.549 -0.6667,1.7732 -0.1099,0.4911 -0.2884,1.2836 -0.3967,1.7611 -0.1082,0.4777 -0.4669,2.0627 -0.797,3.5225 -0.33,1.4598 -0.7414,3.2793 -0.9142,4.0433 l -0.3142,1.3891 -0.4158,0.335 -0.4157,0.3347 h -0.8193 -0.8192 l -0.4067,-0.3242 z"
       id="path186" /><path
       style="fill:#000000;stroke-width:0.0496114"
       d="m -1339.2631,-1338.6723 v -19.8445 h 1.8853 1.8852 v 19.8445 19.8446 h -1.8852 -1.8853 z"
       id="path184" /><text
       x="18.61760000000004"
       y="36.440399999999954"
       transform="translate(-1375.18, -1358.52)"
       id="text310"><tspan
         sodipodi:role="line"
         style="fill:#000000;fill-opacity:1.0;font-size:3.174999760009663;font-style:normal;font-weight:normal;stroke:none;text-align:center;text-anchor:start;vertical-align:bottom"
         dy="11.999999546474953"
         id="tspan308">3783.78 px<tspan
   style="font-size:65%;baseline-shift:super"
   id="tspan306">2</tspan></tspan></text></g></svg>
