<?xml version="1.0" encoding="UTF-8" standalone="no"?>
<svg
   sodipodi:docname="Waveform 2 3.svg"
   id="svg8"
   version="1.1"
   viewBox="0 0 19.626358 19.626401"
   height="19.6264mm"
   width="19.62636mm"
   inkscape:version="1.2 (dc2aedaf03, 2022-05-15)"
   inkscape:export-filename="Waveform 2 4.png"
   inkscape:export-xdpi="96"
   inkscape:export-ydpi="96"
   xml:space="preserve"
   xmlns:inkscape="http://www.inkscape.org/namespaces/inkscape"
   xmlns:sodipodi="http://sodipodi.sourceforge.net/DTD/sodipodi-0.dtd"
   xmlns="http://www.w3.org/2000/svg"
   xmlns:svg="http://www.w3.org/2000/svg"
   xmlns:rdf="http://www.w3.org/1999/02/22-rdf-syntax-ns#"
   xmlns:cc="http://creativecommons.org/ns#"
   xmlns:dc="http://purl.org/dc/elements/1.1/"><defs
     id="defs2" /><sodipodi:namedview
     id="base"
     pagecolor="#ffffff"
     bordercolor="#666666"
     borderopacity="1.0"
     inkscape:pageopacity="0.0"
     inkscape:pageshadow="2"
     inkscape:zoom="3.7210644"
     inkscape:cx="105.3462"
     inkscape:cy="63.691453"
     inkscape:document-units="mm"
     inkscape:current-layer="layer1"
     showgrid="false"
     inkscape:window-width="1920"
     inkscape:window-height="1017"
     inkscape:window-x="-8"
     inkscape:window-y="-8"
     inkscape:window-maximized="1"
     inkscape:document-rotation="0"
     inkscape:pagecheckerboard="0"
     inkscape:showpageshadow="2"
     inkscape:deskcolor="#d1d1d1" /><metadata
     id="metadata5"><rdf:RDF><cc:Work
         rdf:about=""><dc:format>image/svg+xml</dc:format><dc:type
           rdf:resource="http://purl.org/dc/dcmitype/StillImage" /></cc:Work></rdf:RDF></metadata><g
     inkscape:label="Layer 1"
     inkscape:groupmode="layer"
     id="layer1"
     transform="translate(868.146, 1183)"><path
       style="fill:#000000;stroke-width:0.024533"
       d="m -861.70071,-1165.1823 -0.26332,-0.2642 2e-5,-2.3915 c 3e-5,-2.3816 2.9e-4,-2.3938 0.0607,-2.9313 0.0513,-0.4564 0.0946,-0.6893 0.28069,-1.5088 0.12103,-0.533 0.40854,-1.8026 0.63889,-2.8213 0.23036,-1.0187 0.45171,-1.9957 0.49188,-2.1711 0.0934,-0.4074 0.74497,-3.2897 0.78691,-3.4805 0.0175,-0.079 0.0489,-0.1644 0.0701,-0.1892 0.0211,-0.025 0.17085,-0.1506 0.33277,-0.2792 l 0.29439,-0.2339 h 0.67467 0.67465 l 0.32416,0.2576 c 0.27504,0.2185 0.32784,0.2713 0.34838,0.3493 0.0236,0.09 0.217,0.9409 0.80941,3.5631 0.0808,0.3577 0.28057,1.2408 0.44395,1.9628 0.1634,0.7219 0.33447,1.478 0.38015,1.6805 0.0457,0.2023 0.18197,0.804 0.30284,1.3371 0.20048,0.884 0.23982,1.1072 0.32201,1.8276 0.0156,0.1364 0.0252,1.1407 0.0253,2.6255 l 7e-5,2.4046 -0.26412,0.2632 -0.26414,0.2634 h -3.10343 -3.10343 z"
       id="path186" /><path
       style="fill:#000000;stroke-width:0.024533"
       d="m -852.54338,-1173.1858 v -9.8132 h 2.01171 2.0117 v 9.8132 9.8132 h -2.0117 -2.01171 z"
       id="path184" /><path
       style="fill:#000000;stroke-width:0.024533"
       d="m -868.14633,-1173.1858 v -9.8132 h 2.0117 2.0117 v 9.8132 9.8132 h -2.0117 -2.0117 z"
       id="path180" /><text
       x="6.44529"
       y="17.81770000000006"
       transform="translate(-868.146, -1183)"
       id="text273"><tspan
         sodipodi:role="line"
         style="fill:#000000;fill-opacity:1.0;font-size:3.174999676455543;font-style:normal;font-weight:normal;stroke:none;text-align:center;text-anchor:start;vertical-align:bottom"
         dy="11.999999388577404"
         id="tspan271">1336.66 px<tspan
   style="font-size:65%;baseline-shift:super"
   id="tspan269">2</tspan></tspan></text></g></svg>
