<?xml version="1.0" encoding="UTF-8" standalone="no"?>
<!-- Created with Inkscape (http://www.inkscape.org/) -->

<svg
   xmlns:dc="http://purl.org/dc/elements/1.1/"
   xmlns:cc="http://creativecommons.org/ns#"
   xmlns:rdf="http://www.w3.org/1999/02/22-rdf-syntax-ns#"
   xmlns:svg="http://www.w3.org/2000/svg"
   xmlns="http://www.w3.org/2000/svg"
   xmlns:sodipodi="http://sodipodi.sourceforge.net/DTD/sodipodi-0.dtd"
   xmlns:inkscape="http://www.inkscape.org/namespaces/inkscape"
   inkscape:export-ydpi="96"
   inkscape:export-xdpi="96"
   inkscape:export-filename="D:\GitHub\wills-spaceships\Outlines Ships\abomination-aur 4.png"
   inkscape:version="0.92.4 (5da689c313, 2019-01-14)"
   width="78.606026mm"
   height="78.60363mm"
   viewBox="0 0 78.606023 78.60363"
   version="1.1"
   id="svg8"
   sodipodi:docname="abomination-aur 3.svg">
  <defs
     id="defs2" />
  <sodipodi:namedview
     id="base"
     pagecolor="#ffffff"
     bordercolor="#666666"
     borderopacity="1.0"
     inkscape:pageopacity="0.0"
     inkscape:pageshadow="2"
     inkscape:zoom="0.24748737"
     inkscape:cx="-461.3246"
     inkscape:cy="1178.631"
     inkscape:document-units="mm"
     inkscape:current-layer="layer1"
     showgrid="false"
     inkscape:window-width="1920"
     inkscape:window-height="1017"
     inkscape:window-x="-8"
     inkscape:window-y="-8"
     inkscape:window-maximized="1" />
  <metadata
     id="metadata5">
    <rdf:RDF>
      <cc:Work
         rdf:about="">
        <dc:format>image/svg+xml</dc:format>
        <dc:type
           rdf:resource="http://purl.org/dc/dcmitype/StillImage" />
        <dc:title />
      </cc:Work>
    </rdf:RDF>
  </metadata>
  <g
     inkscape:label="Layer 1"
     inkscape:groupmode="layer"
     id="layer1"
     transform="translate(174.5342,-236.17578)">
    <path
       style="fill:#000000;stroke-width:0.09825455"
       d="m -174.53403,310.75098 v -4.02844 h 39.30183 39.301804 v 4.02844 4.02843 h -39.301804 -39.30183 z"
       id="path832"
       inkscape:connector-curvature="0" />
    <path
       style="fill:#000000;stroke-width:0.09825455"
       d="m -144.71376,299.75064 c -0.83883,-0.22139 -1.79927,-0.57971 -2.48442,-0.9269 l -0.51236,-0.25963 -7.9e-4,-0.61244 c -8e-4,-0.74905 -0.1261,-1.56267 -0.45209,-2.93841 -0.13668,-0.57677 -0.3007,-1.54949 -0.36453,-2.1616 l -0.11601,-1.11294 -1.47383,1.91458 -1.47382,1.91459 -0.0271,-1.44055 -0.0271,-1.44054 -0.66064,0.2228 -0.66064,0.2228 -0.0262,2.48173 c -0.0202,1.91953 -0.0537,2.4706 -0.14739,2.43261 -0.0666,-0.027 -3.96777,-1.69469 -8.66925,-3.70594 -4.70147,-2.01125 -8.6034,-3.67847 -8.67096,-3.70492 -0.0675,-0.0265 -0.12281,-0.084 -0.12281,-0.12788 0,-0.0439 0.63945,-0.58077 1.42101,-1.1931 0.78156,-0.61234 1.42268,-1.14047 1.42469,-1.17364 0.002,-0.0332 -0.6706,-0.3726 -1.4947,-0.75429 l -1.49839,-0.69398 -0.0252,-7.32203 -0.0252,-7.32203 1.89203,-1.34507 c 2.85154,-2.02722 2.55516,-1.75704 2.38201,-2.17142 -0.2168,-0.51885 -0.0843,-0.62044 0.80861,-0.62044 h 0.73416 l 0.85046,-0.60602 c 1.28011,-0.91218 1.21213,-0.83153 1.04261,-1.23727 -0.21349,-0.51092 -0.0782,-0.61308 0.81169,-0.61308 h 0.73414 l 0.85045,-0.60602 c 1.27323,-0.90727 1.2028,-0.8236 1.03381,-1.22803 -0.21526,-0.51518 -0.0742,-0.62231 0.82064,-0.62231 0.80228,0 0.70127,0.0466 2.06504,-0.95237 l 0.71091,-0.52075 -0.1619,-0.33952 c -0.24734,-0.51869 -0.0865,-0.64373 0.82841,-0.64373 h 0.73787 l 0.96957,-0.69223 c 0.53326,-0.38073 0.96957,-0.75447 0.96957,-0.83054 0,-0.0761 -0.0508,-0.24961 -0.11271,-0.38566 -0.19053,-0.41815 0.0162,-0.54793 0.87258,-0.54793 h 0.7358 l 2.85859,-2.03297 c 1.75331,-1.24691 3.05978,-2.10707 3.37884,-2.22461 0.35664,-0.13137 0.52024,-0.24565 0.52024,-0.36338 0,-0.39214 0.37683,-0.58015 3.02839,-1.51098 1.47647,-0.51831 2.78869,-0.94238 2.91606,-0.94238 0.12736,0 0.30476,0.0732 0.39425,0.1627 0.15144,0.15144 0.19844,0.15144 0.67888,0 0.73778,-0.23257 3.6989,-0.23257 4.43669,0 0.48043,0.15144 0.52743,0.15144 0.67887,0 0.0894,-0.0895 0.26692,-0.1627 0.39427,-0.1627 0.12736,0 1.43957,0.42407 2.91605,0.94238 2.65157,0.93083 3.0284,1.11884 3.0284,1.51098 0,0.11754 0.16278,0.23172 0.51584,0.36179 0.31316,0.11539 1.64056,0.98937 3.37868,2.22461 l 2.86283,2.03456 h 0.73599 c 0.8566,0 1.06327,0.12976 0.87273,0.54793 -0.0619,0.13605 -0.11269,0.30959 -0.11269,0.38566 0,0.0761 0.4363,0.44981 0.96957,0.83054 l 0.96957,0.69223 h 0.73785 c 0.91485,0 1.07575,0.12504 0.8284,0.64373 l -0.16189,0.33952 0.71091,0.52075 c 1.36379,0.99895 1.26278,0.95237 2.06507,0.95237 0.8946,0 1.03587,0.10712 0.82062,0.62231 -0.16898,0.40443 -0.23942,0.32076 1.0338,1.22803 l 0.85046,0.60602 h 0.73416 c 0.8899,0 1.02516,0.10216 0.81168,0.61308 -0.16953,0.40574 -0.2375,0.32509 1.04263,1.23727 l 0.85043,0.60602 h 0.73416 c 0.893,0 1.0254,0.10159 0.8086,0.62044 -0.1726,0.41312 -0.48505,0.12812 2.38202,2.17274 l 1.892044,1.34927 -0.0252,7.32155 -0.0252,7.32156 -1.472674,0.67482 c -0.80997,0.37116 -1.48246,0.70956 -1.49443,0.75201 -0.0119,0.0424 0.61757,0.57817 1.39897,1.19051 0.78139,0.61233 1.420744,1.14923 1.420744,1.1931 0,0.0439 -0.0553,0.10188 -0.12282,0.12888 -0.0675,0.027 -3.969494,1.6939 -8.670964,3.7042 -4.70148,2.0103 -8.60266,3.67752 -8.66927,3.70493 -0.0937,0.0386 -0.12704,-0.51187 -0.14737,-2.43188 l -0.0263,-2.48173 -0.66063,-0.2228 -0.66062,-0.2228 -0.0271,1.44054 -0.0271,1.44055 -1.47381,-1.91459 -1.47382,-1.91458 -0.11774,1.12993 c -0.0647,0.62146 -0.2303,1.59418 -0.3679,2.1616 -0.31799,1.31151 -0.44609,2.14882 -0.44703,2.92166 l -7.9e-4,0.61268 -0.59724,0.30148 c -0.32846,0.16582 -1.06907,0.46029 -1.64576,0.65438 -1.85894,0.62563 -3.41482,0.54204 -5.36132,-0.28804 -0.384,-0.16376 -0.78661,-0.29775 -0.8947,-0.29775 -0.10806,0 -0.50873,0.13319 -0.89034,0.29598 -2.20423,0.94027 -3.90914,0.93213 -6.25109,-0.0299 -0.81378,-0.33428 -0.86668,-0.34345 -1.14648,-0.19876 -1.62133,0.83842 -3.69541,1.13858 -5.17296,0.74862 z"
       id="path830"
       inkscape:connector-curvature="0" />
    <path
       style="fill:#000000;stroke-width:0.09825455"
       d="m -174.53403,240.20434 v -4.02856 h 39.30291 39.302944 l -0.0258,4.00387 -0.0257,4.00387 -39.277284,0.0247 -39.27724,0.0247 z"
       id="path826"
       inkscape:connector-curvature="0" />
  </g>
</svg>
