<?xml version="1.0" encoding="UTF-8" standalone="no"?>
<!-- Created with Inkscape (http://www.inkscape.org/) -->

<svg
   xmlns:dc="http://purl.org/dc/elements/1.1/"
   xmlns:cc="http://creativecommons.org/ns#"
   xmlns:rdf="http://www.w3.org/1999/02/22-rdf-syntax-ns#"
   xmlns:svg="http://www.w3.org/2000/svg"
   xmlns="http://www.w3.org/2000/svg"
   xmlns:sodipodi="http://sodipodi.sourceforge.net/DTD/sodipodi-0.dtd"
   xmlns:inkscape="http://www.inkscape.org/namespaces/inkscape"
   sodipodi:docname="arachnid-polaris 3.svg"
   id="svg8"
   version="1.1"
   viewBox="0 0 187.16676 187.1668"
   height="187.16679mm"
   width="187.16676mm"
   inkscape:version="0.92.4 (5da689c313, 2019-01-14)"
   inkscape:export-filename="D:\GitHub\Novalike-Art-Pack-Source\Outlines Ships\arachnid-polaris 4.png"
   inkscape:export-xdpi="96"
   inkscape:export-ydpi="96">
  <defs
     id="defs2" />
  <sodipodi:namedview
     id="base"
     pagecolor="#ffffff"
     bordercolor="#666666"
     borderopacity="1.0"
     inkscape:pageopacity="0.0"
     inkscape:pageshadow="2"
     inkscape:zoom="0.175"
     inkscape:cx="856.99654"
     inkscape:cy="1201.915"
     inkscape:document-units="mm"
     inkscape:current-layer="layer1"
     showgrid="false"
     inkscape:window-width="1920"
     inkscape:window-height="1017"
     inkscape:window-x="-8"
     inkscape:window-y="-8"
     inkscape:window-maximized="1" />
  <metadata
     id="metadata5">
    <rdf:RDF>
      <cc:Work
         rdf:about="">
        <dc:format>image/svg+xml</dc:format>
        <dc:type
           rdf:resource="http://purl.org/dc/dcmitype/StillImage" />
        <dc:title />
      </cc:Work>
    </rdf:RDF>
  </metadata>
  <g
     inkscape:label="Layer 1"
     inkscape:groupmode="layer"
     id="layer1"
     transform="translate(480.35458,277.65642)">
    <path
       style="fill:#000000;stroke-width:0.23395847"
       d="m -480.35458,-184.07302 v -93.5834 h 13.33561 13.33567 v 93.5834 93.583389 h -13.33567 -13.33561 z"
       id="path832"
       inkscape:connector-curvature="0" />
    <path
       style="fill:#000000;stroke-width:0.23395847"
       d="m -319.85903,-184.07302 v -93.5834 h 13.33559 13.33562 v 93.5834 93.583389 h -13.33562 -13.33559 z"
       id="path830"
       inkscape:connector-curvature="0" />
    <path
       style="fill:#000000;stroke-width:0.23395847"
       d="m -439.63687,-115.81563 c -2.20697,-9.29881 -4.19573,-22.48164 -5.14423,-34.09947 -0.72674,-8.90103 -0.73388,-30.60601 -0.0139,-41.56601 1.31962,-20.08313 4.53641,-36.92759 9.28599,-48.62498 1.4058,-3.46245 4.9834,-10.41114 5.36013,-10.41114 0.16642,0 0.45364,0.21567 0.63829,0.47927 0.32434,0.46311 0.39584,0.41953 2.11763,-1.29112 3.98171,-3.95595 6.06963,-4.20763 5.66773,-0.68318 -0.13415,1.17605 -0.12687,1.19369 0.44805,1.08376 0.94279,-0.1802 1.28368,0.30256 1.28368,1.81806 0,1.70615 -0.83118,4.91 -2.23561,8.61739 -0.94088,2.48389 -1.07371,3.04271 -0.9481,3.98966 0.10488,0.79069 -0.0544,2.04557 -0.56377,4.45013 -2.27455,10.73038 -3.59815,23.84057 -4.20615,41.66336 -0.3247,9.51796 -0.28902,16.32387 0.0988,18.83365 0.87753,5.67827 1.00998,6.04678 2.27361,6.32431 0.85173,0.18707 1.15262,-0.0524 2.0393,-1.62356 0.76374,-1.35326 1.09056,-1.60964 3.28684,-2.57837 l 1.49973,-0.66149 1.21417,0.61482 c 1.35741,0.68732 2.57258,0.78675 3.30918,0.27082 0.27012,-0.18921 0.83866,-0.89986 1.26332,-1.57922 1.09546,-1.75235 1.59251,-2.25821 2.8456,-2.8961 1.39231,-0.70874 2.30618,-0.71211 3.1483,-0.0116 1.47898,1.23033 2.11743,1.33326 3.7764,0.60895 0.71126,-0.31055 1.38143,-0.85581 1.90852,-1.55285 2.28145,-3.01698 5.98683,-4.05144 14.51192,-4.05144 8.51257,0 12.0384,0.96999 14.40833,3.96383 0.59135,0.74707 1.30441,1.32759 2.01217,1.63811 1.65732,0.72718 2.29642,0.62451 3.7764,-0.6066 0.82003,-0.68218 1.75155,-0.69908 3.03282,-0.0551 1.3433,0.67532 1.67016,0.99549 2.89146,2.8326 0.58126,0.8743 1.25168,1.69396 1.48991,1.82146 0.73495,0.39329 1.9387,0.25827 3.07088,-0.34447 1.15888,-0.6169 1.53988,-0.59131 3.24202,0.21766 2.0291,0.96438 1.94898,0.88869 3.40442,3.21713 0.39811,0.63684 0.61266,0.76142 1.25761,0.73015 0.42775,-0.0207 0.94763,-0.20761 1.15528,-0.41528 0.21691,-0.21692 0.60886,-1.54512 0.92103,-3.12076 0.72686,-3.66922 0.88588,-9.82549 0.53313,-20.64096 -0.60576,-18.57629 -1.90255,-31.63871 -4.23174,-42.62683 -0.50297,-2.37275 -0.66252,-3.63414 -0.55875,-4.41671 0.12112,-0.9126 2.8e-4,-1.48083 -0.72333,-3.40477 -1.54966,-4.1198 -2.2604,-6.68435 -2.39199,-8.63146 -0.14086,-2.0847 0.11858,-2.60446 1.19724,-2.39827 0.54986,0.10511 0.56227,0.0751 0.44734,-1.08376 -0.34898,-3.51884 1.73788,-3.26256 5.7005,0.7001 1.70904,1.70902 1.77451,1.7489 2.10204,1.28123 0.18596,-0.26547 0.47426,-0.4827 0.64065,-0.4827 0.37683,0 3.95434,6.94869 5.36024,10.41116 7.05135,17.36656 10.52069,44.87919 9.75047,77.32325 -0.25706,10.82821 -0.40653,13.12774 -1.42154,21.87513 -1.22505,10.55725 -2.3595,17.33345 -4.20092,25.09206 -0.73362,3.09117 -0.7376,3.09994 -1.41087,3.09994 -1.51114,0 -7.97424,-3.04498 -9.82421,-4.6285 l -0.95235,-0.81514 0.15393,-1.43739 0.15393,-1.4374 -1.30848,-0.54233 c -0.71963,-0.29828 -1.35741,-0.62158 -1.41731,-0.71843 -0.0597,-0.0967 0.16209,-2.21872 0.49322,-4.71527 0.60669,-4.57479 0.78708,-10.00251 0.38459,-11.57509 -0.17197,-0.67195 -0.23233,-0.70636 -0.92177,-0.52558 -0.48021,0.12593 -0.90624,0.47898 -1.22041,1.01148 -0.41984,0.71157 -0.60091,0.81801 -1.39177,0.81801 -1.08973,0 -2.26213,-0.72604 -3.03137,-1.87722 -0.93363,-1.39732 -2.66388,-3.29966 -3.42111,-3.76141 -1.22087,-0.74449 -2.60655,-0.5521 -3.6679,0.50925 -0.58315,0.58315 -1.05556,0.56767 -2.32396,-0.0761 -0.71751,-0.36417 -1.36836,-0.99502 -2.11206,-2.04714 -1.23365,-1.74534 -2.32004,-2.57575 -3.35998,-2.56839 -1.07941,0.007 -2.53578,0.75797 -3.50555,1.80609 -2.50004,2.70206 -6.28008,3.48238 -15.88949,3.28004 -7.57807,-0.15955 -9.80148,-0.73806 -12.44467,-3.23792 -2.80656,-2.65428 -4.64645,-2.46213 -6.89586,0.72018 -0.74369,1.05212 -1.39456,1.68297 -2.11199,2.04714 -1.34788,0.68416 -1.63442,0.66549 -2.69261,-0.17548 -1.04718,-0.83214 -2.20836,-0.9228 -3.29931,-0.25757 -0.75722,0.46176 -2.48748,2.36409 -3.42112,3.7614 -1.2446,1.86269 -3.51166,2.50971 -4.32313,1.23384 -0.45496,-0.71529 -0.8717,-1.03719 -1.63491,-1.26283 -0.47205,-0.13957 -0.5267,-0.0474 -0.69216,1.16979 -0.31522,2.31878 -0.15149,6.10231 0.47113,10.88659 0.33291,2.55869 0.55528,4.73319 0.49408,4.83227 -0.0611,0.0991 -0.70014,0.42416 -1.41983,0.72245 l -1.30847,0.54233 0.15391,1.4374 0.15394,1.4374 -0.95924,0.82108 c -1.87463,1.6046 -8.35215,4.62255 -9.92158,4.62255 -0.53943,0 -0.6114,-0.17062 -1.3066,-3.09994 z"
       id="path826"
       inkscape:connector-curvature="0" />
  </g>
</svg>
