<?xml version="1.0" encoding="UTF-8" standalone="no"?>
<!-- Created with Inkscape (http://www.inkscape.org/) -->

<svg
   xmlns:dc="http://purl.org/dc/elements/1.1/"
   xmlns:cc="http://creativecommons.org/ns#"
   xmlns:rdf="http://www.w3.org/1999/02/22-rdf-syntax-ns#"
   xmlns:svg="http://www.w3.org/2000/svg"
   xmlns="http://www.w3.org/2000/svg"
   xmlns:sodipodi="http://sodipodi.sourceforge.net/DTD/sodipodi-0.dtd"
   xmlns:inkscape="http://www.inkscape.org/namespaces/inkscape"
   sodipodi:docname="arrow-vellos 3.svg"
   id="svg8"
   version="1.1"
   viewBox="0 0 105.28385 105.28384"
   height="105.28384mm"
   width="105.28385mm"
   inkscape:version="0.92.4 (5da689c313, 2019-01-14)"
   inkscape:export-filename="D:\GitHub\Novalike-Art-Pack-Source\Outlines Ships\arrow-vellos 4.png"
   inkscape:export-xdpi="96"
   inkscape:export-ydpi="96">
  <defs
     id="defs2" />
  <sodipodi:namedview
     id="base"
     pagecolor="#ffffff"
     bordercolor="#666666"
     borderopacity="1.0"
     inkscape:pageopacity="0.0"
     inkscape:pageshadow="2"
     inkscape:zoom="0.175"
     inkscape:cx="343.121"
     inkscape:cy="1374.6105"
     inkscape:document-units="mm"
     inkscape:current-layer="layer1"
     showgrid="false"
     inkscape:window-width="1920"
     inkscape:window-height="1017"
     inkscape:window-x="-8"
     inkscape:window-y="-8"
     inkscape:window-maximized="1" />
  <metadata
     id="metadata5">
    <rdf:RDF>
      <cc:Work
         rdf:about="">
        <dc:format>image/svg+xml</dc:format>
        <dc:type
           rdf:resource="http://purl.org/dc/dcmitype/StillImage" />
      </cc:Work>
    </rdf:RDF>
  </metadata>
  <g
     inkscape:label="Layer 1"
     inkscape:groupmode="layer"
     id="layer1"
     transform="translate(885.71682,40.962331)">
    <path
       style="fill:#000000;stroke-width:0.13160478"
       d="m -885.71682,11.679589 v -52.64192 h 10.46258 10.46258 v 52.64192 52.641924 h -10.46258 -10.46258 z"
       id="path883"
       inkscape:connector-curvature="0" />
    <path
       style="fill:#000000;stroke-width:0.13160478"
       d="m -801.35814,11.679589 v -52.64192 h 10.4626 10.46257 v 52.64192 52.641924 h -10.46257 -10.4626 z"
       id="path881"
       inkscape:connector-curvature="0" />
    <path
       style="fill:#000000;stroke-width:0.13160478"
       d="m -840.84832,60.002202 c -1.22623,-0.532103 -2.28271,-2.763704 -3.42646,-7.237775 -0.35742,-1.39819 -1.33378,-5.958294 -2.16965,-10.133568 -2.20209,-10.999652 -2.86357,-13.908263 -5.4527,-23.976213 -3.12233,-12.14133 -4.2483,-17.67237393 -4.61691,-22.6795234 -0.37455,-5.0878738 0.64843,-10.3746676 3.05363,-15.7811316 1.85002,-4.158472 5.26999,-9.957531 7.62678,-12.932339 2.53493,-3.19962 4.43731,-4.081992 5.91748,-2.74472 0.76527,0.691347 1.08416,1.640165 1.09992,3.272455 0.0198,2.065023 -0.42398,4.028333 -2.01307,8.903765 -1.54723,4.747151 -1.96242,6.319869 -2.19749,8.324292 -0.0908,0.774771 -0.0902,0.777145 0.22546,0.688343 0.77742,-0.218738 2.14699,-0.478917 2.52968,-0.480556 0.90757,-0.0038 0.9471,-0.0492 1.12473,-1.290137 0.78416,-5.477393 2.2329,-8.500429 4.59916,-9.59704 1.83925,-0.852397 4.10276,0.08929 5.39921,2.246232 0.87103,1.44916 1.71442,4.338561 2.14568,7.350808 0.17879,1.249109 0.21025,1.283947 1.16623,1.292419 0.42073,0.0037 1.7071,0.249684 2.48817,0.475734 0.31553,0.0913 0.31632,0.08891 0.22611,-0.678691 -0.22818,-1.941436 -0.71139,-3.774196 -2.202,-8.351841 -1.59095,-4.885851 -2.02626,-6.807568 -2.0122,-8.883328 0.0114,-1.626594 0.33056,-2.574701 1.10288,-3.272455 1.87962,-1.698112 4.39467,0.134699 8.19282,5.970355 3.69904,5.683477 6.38458,11.359184 7.53336,15.921388 1.74327,6.9229726 1.18231,12.73632276 -2.71788,28.166222 -0.7227,2.859111 -1.78295,7.058189 -2.35609,9.331278 -1.37612,5.457675 -2.43126,10.254578 -4.19057,19.051445 -2.31784,11.589849 -3.3438,15.079322 -4.86087,16.532598 -0.67101,0.642804 -0.95625,0.700418 -1.44245,0.291335 -0.93572,-0.787354 -1.28254,-3.112191 -1.16832,-7.83089 0.11464,-4.730367 0.57788,-9.66384 2.0023,-21.319979 1.89237,-15.485836 2.0555,-17.113228 2.29684,-22.9178244 0.15981,-3.8422435 0.17184,-5.7731864 0.036,-5.7689268 -0.0544,0.00182 -0.54285,0.1225208 -1.08574,0.2684744 -0.54285,0.1459448 -1.3505,0.3005572 -1.79474,0.3435602 l -0.80773,0.078196 -0.0886,1.6603141 c -0.51426,9.6476375 -1.66088,19.6653745 -3.03691,26.5336185 -1.11752,5.577725 -1.7095,7.119047 -2.98817,7.780286 -0.31653,0.163687 -0.41277,0.163687 -0.72931,0 -0.9232,-0.477404 -1.36188,-1.206685 -1.93909,-3.223587 -1.76042,-6.151471 -3.43635,-18.90335 -4.08602,-31.0903175 l -0.0886,-1.6603141 -0.80768,-0.078196 c -0.44425,-0.042991 -1.2519,-0.1976065 -1.79478,-0.3435602 -0.54288,-0.1459619 -1.04055,-0.2667701 -1.106,-0.2684744 -0.1986,-0.00532 0.12526,8.8756112 0.45587,12.4993592 0.14702,1.611312 0.77536,6.975897 1.83439,15.660971 1.48231,12.156212 1.94975,17.08934 2.06376,21.780595 0.11613,4.777542 -0.22658,7.105532 -1.16193,7.892583 -0.42025,0.353597 -0.45725,0.364278 -0.77878,0.224761 z"
       id="path826"
       inkscape:connector-curvature="0" />
  </g>
</svg>
