<?xml version="1.0" encoding="UTF-8" standalone="no"?>
<!-- Created with Inkscape (http://www.inkscape.org/) -->

<svg
   xmlns:dc="http://purl.org/dc/elements/1.1/"
   xmlns:cc="http://creativecommons.org/ns#"
   xmlns:rdf="http://www.w3.org/1999/02/22-rdf-syntax-ns#"
   xmlns:svg="http://www.w3.org/2000/svg"
   xmlns="http://www.w3.org/2000/svg"
   xmlns:sodipodi="http://sodipodi.sourceforge.net/DTD/sodipodi-0.dtd"
   xmlns:inkscape="http://www.inkscape.org/namespaces/inkscape"
   inkscape:export-ydpi="96"
   inkscape:export-xdpi="96"
   inkscape:export-filename="D:\GitHub\Novalike-Art-Pack-Source\Outlines Ships\kestrel-alien 4.png"
   inkscape:version="0.92.4 (5da689c313, 2019-01-14)"
   width="190.04179mm"
   height="190.0419mm"
   viewBox="0 0 190.0418 190.04191"
   version="1.1"
   id="svg8"
   sodipodi:docname="kestrel-alien 3.svg">
  <defs
     id="defs2" />
  <sodipodi:namedview
     id="base"
     pagecolor="#ffffff"
     bordercolor="#666666"
     borderopacity="1.0"
     inkscape:pageopacity="0.0"
     inkscape:pageshadow="2"
     inkscape:zoom="0.12374369"
     inkscape:cx="937.13099"
     inkscape:cy="1064.1662"
     inkscape:document-units="mm"
     inkscape:current-layer="layer1"
     showgrid="false"
     inkscape:window-width="1920"
     inkscape:window-height="1017"
     inkscape:window-x="1912"
     inkscape:window-y="-8"
     inkscape:window-maximized="1" />
  <metadata
     id="metadata5">
    <rdf:RDF>
      <cc:Work
         rdf:about="">
        <dc:format>image/svg+xml</dc:format>
        <dc:type
           rdf:resource="http://purl.org/dc/dcmitype/StillImage" />
        <dc:title />
      </cc:Work>
    </rdf:RDF>
  </metadata>
  <g
     inkscape:label="Layer 1"
     inkscape:groupmode="layer"
     id="layer1"
     transform="translate(1301.9153,-147.94945)">
    <path
       style="fill:#000000;stroke-width:0.23755237"
       d="m -1301.9153,242.9704 v -95.02095 h 9.0271 9.0268 v 95.02095 95.02095 h -9.0268 -9.0271 z"
       id="path832"
       inkscape:connector-curvature="0" />
    <path
       style="fill:#000000;stroke-width:0.23755237"
       d="m -1129.9274,242.9704 v -95.02095 h 9.027 9.0269 v 95.02095 95.02095 h -9.0269 -9.027 z"
       id="path830"
       inkscape:connector-curvature="0" />
    <path
       style="fill:#000000;stroke-width:0.23755237"
       d="m -1208.6478,332.58703 c -0.068,-0.22865 -0.669,-2.33991 -1.3369,-4.69166 -0.6681,-2.35177 -1.4265,-4.99749 -1.6853,-5.87942 l -0.4705,-1.60348 h -1.5322 c -1.2747,0 -1.5818,-0.0797 -1.8287,-0.47511 -0.2047,-0.32788 -0.5539,-0.4751 -1.1269,-0.4751 -0.4567,0 -1.3931,-0.28472 -2.0808,-0.63273 l -1.2506,-0.63272 v -2.66192 -2.66193 l -0.891,-0.14725 c -0.4898,-0.081 -1.1681,-0.14841 -1.5071,-0.14985 -0.3391,-9.2e-4 -0.8029,-0.20863 -1.0308,-0.4604 -0.2278,-0.25181 -0.859,-0.5289 -1.4027,-0.61576 -0.5436,-0.0869 -1.3894,-0.4299 -1.8792,-0.76228 l -0.8909,-0.60433 -0.011,-3.47158 c -0.011,-2.59163 -0.091,-3.58235 -0.3388,-3.90859 -0.3188,-0.42085 -0.479,-0.40551 -4.337,0.41572 -2.2032,0.469 -4.2918,0.85272 -4.6411,0.85272 -0.5597,0 -0.934,-0.45957 -3.1445,-3.86022 -1.38,-2.12314 -3.3128,-5.13422 -4.295,-6.69133 -0.9824,-1.55709 -2.5752,-3.93751 -3.5397,-5.28977 -0.9646,-1.35229 -2.4735,-3.60594 -3.3534,-5.00814 -4.5014,-7.17454 -7.3765,-11.45984 -7.6862,-11.45604 -0.072,6.6e-4 -0.3868,0.37504 -0.6976,0.83143 -0.5528,0.81175 -0.6004,0.82981 -2.1859,0.82981 h -1.6209 l -0.7241,-1.0524 c -0.6949,-1.01016 -0.724,-1.15317 -0.724,-3.56326 v -2.51089 h -1.1879 -1.1876 v 3.4333 c 0,3.57425 -0.2208,4.64347 -0.9592,4.64347 -0.2245,0 -0.541,0.16035 -0.7037,0.35633 -0.1626,0.19596 -0.5471,0.35632 -0.8544,0.35632 -0.9195,0 -1.2829,-1.05351 -1.2872,-3.72966 -0.011,-5.09537 0.5617,-18.97113 0.7907,-19.26496 0.1514,-0.19437 0.6434,-0.2822 1.3301,-0.23756 0.9917,0.0644 1.0965,0.12965 1.165,0.7241 0.072,0.6308 0.1235,0.65327 1.4846,0.65327 h 1.4096 v -1.18777 c 0,-1.0294 0.063,-1.18777 0.475,-1.18777 0.4265,0 0.4752,-0.15837 0.4752,-1.54409 0,-1.38572 -0.048,-1.54409 -0.4752,-1.54409 -0.439,0 -0.475,-0.15837 -0.475,-2.09136 0,-2.05382 0.014,-2.10501 0.7832,-2.85064 0.7182,-0.69589 0.9124,-0.75925 2.3291,-0.75925 1.4364,0 1.5991,0.0554 2.3049,0.78336 0.7357,0.75915 0.7591,0.84722 0.7591,2.85062 0,1.9089 -0.036,2.06727 -0.4751,2.06727 -0.4254,0 -0.475,0.15837 -0.475,1.5164 0,1.31659 0.064,1.53274 0.475,1.6406 0.4249,0.11113 0.4751,0.32405 0.4751,2.01557 v 1.8913 l 15.0931,8.59889 c 13.1426,7.48763 16.3911,9.28024 16.8182,9.28024 0.052,0 1.071,-2.12965 2.2643,-4.73255 l 2.1699,-4.73257 v -3.22545 -3.22542 h 1.4114 c 0.8696,0 1.4839,-0.11397 1.6006,-0.29696 0.1045,-0.16331 1.1258,-2.32272 2.2706,-4.79867 l 2.0815,-4.50177 v -20.92824 c 0,-12.48295 -0.088,-21.01928 -0.2193,-21.15389 -1.1461,-1.17835 -2.5121,-8.29228 -2.9972,-15.60718 -0.1529,-2.30888 -0.1555,-2.31617 -0.7845,-2.31978 -1.3722,-0.008 -1.3438,0.14625 -1.3438,-7.29221 v -6.83852 l 0.9797,-0.0716 0.98,-0.0716 0.1627,-2.66027 c 0.5068,-8.28121 1.9237,-14.80455 3.3787,-15.55476 0.2407,-0.1241 2.1318,-0.36639 4.2023,-0.53842 3.037,-0.2523 4.4375,-0.25646 7.2453,-0.0215 5.0373,0.42158 4.6398,0.25811 5.4615,2.24546 1.1299,2.73234 1.9185,7.48658 2.3202,13.98806 l 0.157,2.54158 0.978,0.0715 0.9778,0.0716 v 6.83851 c 0,7.43612 0.028,7.28428 -1.3401,7.29221 -0.6268,0.003 -0.6279,0.006 -0.7896,2.43856 -0.4238,6.37906 -1.354,11.77457 -2.5005,14.50338 l -0.7146,1.70057 v 20.65759 20.6576 l 2.063,4.52745 c 1.1346,2.4901 2.1631,4.66108 2.2858,4.8244 0.1341,0.17859 0.7794,0.29693 1.619,0.29693 h 1.3964 v 3.21837 3.21838 l 2.1371,4.65953 c 1.1753,2.56273 2.182,4.7045 2.237,4.75947 0.232,0.23206 3.0363,-1.29759 17.1202,-9.33866 l 14.8513,-8.47913 v -1.89185 c 0,-1.69205 0.05,-1.90495 0.4749,-2.01608 0.4125,-0.10788 0.4752,-0.32402 0.4752,-1.64063 0,-1.35802 -0.051,-1.51639 -0.4752,-1.51639 -0.4391,0 -0.4749,-0.15837 -0.4749,-2.09135 0,-2.05384 0.014,-2.10503 0.7832,-2.85064 0.7285,-0.70605 0.8991,-0.75926 2.435,-0.75925 1.5978,3e-5 1.6726,0.0267 2.3047,0.81874 0.5981,0.74938 0.6533,0.99086 0.6533,2.85062 0,1.87351 -0.037,2.03188 -0.475,2.03188 -0.4265,0 -0.4751,0.15837 -0.4751,1.54409 0,1.38573 0.048,1.5441 0.4751,1.5441 0.4117,0 0.475,0.15837 0.475,1.18776 v 1.18775 h 1.4096 c 1.3611,0 1.412,-0.0224 1.4847,-0.65324 0.068,-0.59445 0.1731,-0.65967 1.165,-0.72411 0.6868,-0.0446 1.1786,0.0432 1.33,0.23754 0.2291,0.29385 0.7985,14.16961 0.7906,19.26499 -0.011,2.67615 -0.3675,3.72966 -1.2871,3.72966 -0.3071,0 -0.6917,-0.16035 -0.8544,-0.35632 -0.1625,-0.196 -0.4792,-0.35635 -0.7035,-0.35635 -0.7385,0 -0.9594,-1.06919 -0.9594,-4.64345 v -3.43331 h -1.1877 -1.1878 v 2.56625 c 0,2.4937 -0.021,2.59449 -0.7332,3.56329 l -0.7331,0.997 -1.5829,-9.1e-4 c -1.5416,-9e-4 -1.5978,-0.0232 -2.1482,-0.83142 -0.3107,-0.45634 -0.6502,-0.82977 -0.7545,-0.82977 -0.1045,0 -1.5603,2.08296 -3.2356,4.62881 -1.6756,2.54584 -4.2222,6.40496 -5.6595,8.57581 -2.9518,4.45866 -6.2895,9.56971 -9.9538,15.24229 -2.2256,3.44546 -2.5636,3.86022 -3.1457,3.86022 -0.3587,0 -2.4547,-0.3861 -4.658,-0.858 -5.0042,-1.07179 -4.6731,-1.31905 -4.6836,3.49816 l -0.011,3.47159 -0.891,0.60431 c -0.4899,0.33238 -1.3354,0.6754 -1.8792,0.76227 -0.5437,0.0869 -1.1748,0.36397 -1.4026,0.61575 -0.228,0.25179 -0.6918,0.45897 -1.0308,0.46041 -0.3391,9.3e-4 -1.0175,0.0688 -1.5072,0.14986 l -0.8908,0.14723 v 2.67953 2.67954 l -1.2346,0.61512 c -0.6789,0.33831 -1.5709,0.61513 -1.9823,0.61513 -0.4464,0 -0.9214,0.19163 -1.1779,0.4751 -0.3346,0.36967 -0.7317,0.4751 -1.7893,0.4751 -0.8076,0 -1.4521,0.12057 -1.5875,0.29695 -0.1255,0.16331 -0.8477,2.48836 -1.6049,5.16677 -0.7572,2.67839 -1.5269,5.37759 -1.7105,5.99819 l -0.3341,1.12838 h -1.6376 c -1.3546,0 -1.659,-0.0719 -1.7602,-0.41571 z"
       id="path826"
       inkscape:connector-curvature="0" />
  </g>
</svg>
