<?xml version="1.0" encoding="UTF-8" standalone="no"?>
<svg
   xmlns:dc="http://purl.org/dc/elements/1.1/"
   xmlns:cc="http://creativecommons.org/ns#"
   xmlns:rdf="http://www.w3.org/1999/02/22-rdf-syntax-ns#"
   xmlns:svg="http://www.w3.org/2000/svg"
   xmlns="http://www.w3.org/2000/svg"
   xmlns:sodipodi="http://sodipodi.sourceforge.net/DTD/sodipodi-0.dtd"
   xmlns:inkscape="http://www.inkscape.org/namespaces/inkscape"
   width="47.499001mm"
   height="47.499016mm"
   viewBox="0 0 47.499001 47.499016"
   version="1.1"
   id="svg8"
   sodipodi:docname="bullfrog-federation 3.svg"
   inkscape:version="1.0.1 (3bc2e813f5, 2020-09-07)"
   inkscape:export-filename="C:\GitHub\SN-Shipyard-Source\Vectors - Outlines Ships\bullfrog-federation 4.png"
   inkscape:export-xdpi="96"
   inkscape:export-ydpi="96">
  <defs
     id="defs2" />
  <sodipodi:namedview
     id="base"
     pagecolor="#ffffff"
     bordercolor="#666666"
     borderopacity="1.0"
     inkscape:pageopacity="0.0"
     inkscape:pageshadow="2"
     inkscape:zoom="0.7"
     inkscape:cx="233.20318"
     inkscape:cy="132.14005"
     inkscape:document-units="mm"
     inkscape:current-layer="layer1"
     inkscape:document-rotation="0"
     showgrid="false"
     inkscape:window-width="1858"
     inkscape:window-height="1057"
     inkscape:window-x="1974"
     inkscape:window-y="-8"
     inkscape:window-maximized="1" />
  <metadata
     id="metadata5">
    <rdf:RDF>
      <cc:Work
         rdf:about="">
        <dc:format>image/svg+xml</dc:format>
        <dc:type
           rdf:resource="http://purl.org/dc/dcmitype/StillImage" />
        <dc:title></dc:title>
      </cc:Work>
    </rdf:RDF>
  </metadata>
  <g
     inkscape:label="Layer 1"
     inkscape:groupmode="layer"
     id="layer1"
     transform="translate(-171.85317,-27.466267)">
    <path
       style="fill:#000000;stroke-width:0.0593738"
       d="m 194.08073,73.317662 c -0.0276,-0.05714 -0.0587,-1.21939 -0.0687,-2.58276 l -0.0185,-2.478855 H 193.67 193.34646 v 0.356244 0.356242 h -0.35625 -0.35624 v 0.40233 c 0,0.646323 -0.11243,1.385829 -0.25476,1.675752 -0.1063,0.216634 -0.17187,0.277238 -0.34626,0.320338 -0.20926,0.05172 -0.21605,0.06222 -0.24998,0.386864 -0.0499,0.47712 -0.25498,1.097967 -0.43236,1.308788 l -0.15216,0.18084 h -0.7369 c -0.80496,0 -0.85916,-0.02055 -1.05551,-0.400249 -0.11854,-0.229228 -0.27492,-0.848258 -0.27603,-1.092667 -0.001,-0.261171 -0.0487,-0.324187 -0.28247,-0.374914 -0.34525,-0.0749 -0.48857,-0.527416 -0.57814,-1.825384 l -0.0398,-0.576091 -0.33608,-0.01764 -0.33607,-0.01764 -0.0179,-0.341402 -0.0179,-0.341397 h -0.32358 -0.3236 v -0.682803 -0.6828 h -0.23257 c -0.12792,0 -0.35503,-0.05248 -0.50467,-0.116636 l -0.27207,-0.116639 v -1.16041 -1.160412 l 0.4453,-0.95284 0.44531,-0.952839 V 61.76546 61.100242 l -0.46015,-0.333626 -0.46015,-0.333628 -0.0297,1.003115 -0.0297,1.003111 -0.91429,-0.915892 c -0.85261,-0.854118 -0.92381,-0.911546 -1.05564,-0.851483 -0.1249,0.05691 -0.16926,0.03729 -0.38102,-0.168575 -0.20216,-0.196552 -0.23431,-0.260062 -0.20555,-0.406147 0.0187,-0.09523 0.1,-0.259534 0.18051,-0.365099 0.12819,-0.168078 0.1353,-0.201135 0.0572,-0.265947 -0.0726,-0.06031 -0.0862,-0.218011 -0.0726,-0.852063 0.0161,-0.755926 0.0202,-0.778593 0.15009,-0.797026 0.11981,-0.01702 0.1336,-0.05223 0.1336,-0.341398 0,-0.30094 0.0103,-0.322428 0.14278,-0.322428 0.10708,0 0.36197,-0.230502 1.01785,-0.920293 0.48129,-0.506162 0.89795,-0.920294 0.92594,-0.920294 0.028,0 0.0508,0.440852 0.0508,0.979668 0,0.538818 0.0148,0.979667 0.0328,0.979667 0.0181,0 0.23182,-0.147141 0.47499,-0.326979 l 0.44216,-0.326981 V 55.60901 54.600081 h -1.79238 c -1.76106,0 -1.79583,-0.0023 -1.98862,-0.133591 -0.18627,-0.126802 -0.19626,-0.152175 -0.19664,-0.499288 l -3.3e-4,-0.365696 -0.35625,-0.342186 c -0.34801,-0.334274 -0.35624,-0.349495 -0.35624,-0.658498 0,-0.214999 -0.0238,-0.315403 -0.0742,-0.313459 -0.0408,0.0016 -0.42051,0.128485 -0.84375,0.282027 -0.66715,0.242025 -0.77413,0.298913 -0.80419,0.427598 l -0.0347,0.148434 -1.43685,0.0159 -1.43684,0.01591 -0.23843,-0.157785 -0.23843,-0.157785 0.0155,-2.618994 0.0155,-2.618993 0.43676,-0.01757 c 0.36382,-0.01465 0.45026,1.68e-4 0.51763,0.08905 0.076,0.100241 0.081,0.100406 0.0827,0.0028 7.8e-4,-0.05714 0.0257,-0.103905 0.0548,-0.103905 0.0828,0 0.13908,-0.306725 0.069,-0.376706 -0.0707,-0.07068 -0.0806,-0.290601 -0.0255,-0.565852 0.034,-0.169504 0.057,-0.185545 0.26718,-0.185545 h 0.23008 v -0.564801 c 0,-0.382383 -0.0383,-0.703207 -0.11875,-0.993318 -0.0965,-0.348107 -0.11874,-0.610938 -0.11874,-1.400693 v -0.972224 l 0.21515,-0.409456 0.21516,-0.409454 h 0.46474 0.46472 l 0.21073,0.376791 0.2107,0.376792 v 1.063211 c 0,0.885217 -0.0198,1.132728 -0.11875,1.478448 -0.0993,0.347042 -0.11874,0.593235 -0.11874,1.499001 v 1.083757 h 0.38282 0.38284 l 0.018,0.304272 0.0179,0.304274 0.62343,0.229381 c 0.34287,0.126159 0.64345,0.229701 0.66795,0.23009 0.0245,3.37e-4 0.0445,-0.153655 0.0445,-0.342324 v -0.343033 l 0.35624,-0.313578 0.35623,-0.313579 v -0.378385 c 0,-0.359083 0.0103,-0.385408 0.19297,-0.51602 0.18987,-0.135422 0.22172,-0.137956 1.98282,-0.157635 l 1.78985,-0.02 0.0397,-0.317533 c 0.0224,-0.178476 0.14253,-0.530247 0.27456,-0.803266 0.19593,-0.405146 0.35061,-0.605267 0.93236,-1.206185 1.08266,-1.118326 1.21868,-1.489552 1.18838,-3.243089 l -0.0179,-1.038294 -0.44529,-0.335991 -0.44532,-0.335992 -0.0297,0.973732 c -0.0163,0.535554 -0.0517,0.975435 -0.0784,0.977516 -0.0269,0.0021 -0.43511,-0.397102 -0.90741,-0.887073 -0.63152,-0.655138 -0.90144,-0.895779 -1.02005,-0.909455 -0.1522,-0.01755 -0.16231,-0.03789 -0.17911,-0.359996 -0.0153,-0.292816 -0.0343,-0.341399 -0.1336,-0.341399 -0.10905,0 -0.11578,-0.04632 -0.11578,-0.789671 0,-0.489945 0.0245,-0.814194 0.0646,-0.85428 0.0466,-0.04656 0.0233,-0.128653 -0.0833,-0.2939 -0.24709,-0.383079 -0.24578,-0.446043 0.0146,-0.70031 0.19408,-0.189515 0.26277,-0.222381 0.40523,-0.193889 0.15768,0.03154 0.24308,-0.03736 1.05707,-0.852711 0.48706,-0.487861 0.90527,-0.887019 0.92938,-0.887019 0.0241,0 0.0512,0.437614 0.0602,0.972477 l 0.0163,0.972476 0.46528,-0.334208 0.46529,-0.334209 -0.0131,-2.018709 c -0.0184,-2.840137 -0.0342,-2.617629 0.18985,-2.695697 0.10277,-0.03586 0.34329,-0.06517 0.53435,-0.06517 h 0.34738 V 29.79107 c 0,-0.830928 -0.10542,-0.781061 1.65231,-0.781061 h 1.43513 v 0.682797 0.682799 h 0.37707 c 0.20739,0 0.46122,0.02933 0.56405,0.06517 l 0.18698,0.06517 v 0.737674 0.737674 l 1.11326,-0.01615 1.11327,-0.01615 0.0166,-0.722143 0.0166,-0.722143 0.1852,-0.06456 c 0.10194,-0.03551 0.35487,-0.06457 0.56227,-0.06457 h 0.37706 v -0.682798 -0.682798 h 1.41463 c 1.40191,0 1.41577,0.0012 1.54371,0.137418 0.11321,0.120499 0.1291,0.20456 0.1291,0.682797 v 0.545381 h 0.34739 c 0.19105,0 0.43151,0.02933 0.53436,0.06517 l 0.18697,0.06517 v 2.329453 2.329453 l 0.46015,0.332748 0.46015,0.332747 0.0163,-0.975857 c 0.008,-0.53672 0.0359,-0.975854 0.0601,-0.975854 0.0241,0 0.44234,0.399158 0.92938,0.887018 0.81335,0.81471 0.89949,0.884227 1.05674,0.852774 0.13893,-0.02779 0.20976,0.0031 0.37542,0.16367 0.24834,0.240689 0.26055,0.420369 0.0497,0.730683 -0.11258,0.16567 -0.13675,0.245152 -0.0891,0.292839 0.0411,0.04113 0.0654,0.358949 0.0654,0.855124 0,0.743353 -0.006,0.789671 -0.11579,0.789671 -0.0993,0 -0.11831,0.04859 -0.13359,0.341399 -0.0168,0.322773 -0.0266,0.342422 -0.18031,0.360113 -0.12097,0.01393 -0.38598,0.252838 -1.03666,0.934552 -0.48078,0.503711 -0.89457,0.895417 -0.91952,0.87046 -0.025,-0.02497 -0.0527,-0.47611 -0.0617,-1.002559 l -0.0163,-0.957178 -0.44531,0.335943 -0.44529,0.335943 -0.0163,1.097661 c -0.0185,1.24238 0.0206,1.502736 0.32094,2.126957 0.17243,0.358479 0.33443,0.56243 0.88447,1.113486 0.74713,0.748521 1.04318,1.23018 1.17166,1.906246 l 0.069,0.362971 1.78355,0.02051 c 1.75409,0.02017 1.78674,0.02279 1.97652,0.15815 0.18297,0.130516 0.19296,0.157128 0.19296,0.514539 v 0.376904 l 0.35624,0.322381 c 0.35539,0.321613 0.35624,0.323183 0.35624,0.658094 0,0.184641 0.0231,0.335712 0.0513,0.335712 0.0282,0 0.32877,-0.10408 0.66796,-0.231282 l 0.61668,-0.231281 0.0179,-0.303082 0.018,-0.303083 h 0.38281 0.38285 v -1.083759 c 0,-0.905766 -0.0195,-1.15196 -0.11876,-1.498999 -0.0992,-0.346841 -0.11875,-0.593235 -0.11875,-1.495818 v -1.080581 l 0.21065,-0.359423 0.21065,-0.359423 0.45731,5.05e-4 0.4573,5.04e-4 0.22265,0.391614 0.22264,0.391613 v 0.988466 c 0,0.810473 -0.0214,1.063239 -0.11874,1.403704 -0.082,0.286811 -0.11874,0.593234 -0.11874,0.990739 v 0.575498 l 0.22265,0.01843 0.22265,0.01843 v 0.508881 c 0,0.389168 0.0226,0.531436 0.0958,0.604764 0.0627,0.0628 0.11598,0.07575 0.15419,0.03753 0.0321,-0.03209 0.25614,-0.05042 0.49788,-0.04072 l 0.43957,0.01765 0.0165,2.523387 c 0.008,1.387861 0.003,2.576821 -0.0137,2.642132 -0.0166,0.06531 -0.12454,0.179337 -0.23992,0.253391 -0.20521,0.131717 -0.24103,0.1343 -1.64617,0.118749 l -1.43639,-0.01591 -0.0348,-0.147727 c -0.0303,-0.128301 -0.14381,-0.187507 -0.86356,-0.450273 l -0.82873,-0.302551 -0.0187,0.361216 c -0.0187,0.359692 -0.0202,0.362466 -0.36702,0.658083 l -0.34824,0.296869 -0.004,0.373934 c -0.004,0.330924 -0.0229,0.390465 -0.16732,0.517644 l -0.16329,0.14371 -1.82575,0.0019 -1.82574,0.0019 v 1.007942 1.007941 l 0.43576,0.327968 c 0.23966,0.180382 0.45339,0.327968 0.47498,0.327968 0.0216,0 0.0393,-0.440849 0.0393,-0.979666 0,-0.538818 0.0178,-0.979668 0.0394,-0.979668 0.0217,0 0.4382,0.414133 0.92554,0.920294 0.66251,0.68806 0.92224,0.920292 1.02929,0.920292 0.13395,0 0.14316,0.02101 0.14316,0.326556 0,0.280821 0.0158,0.326557 0.11239,0.326557 0.16224,0 0.18448,0.107138 0.18448,0.888191 0,0.534315 -0.02,0.717037 -0.0847,0.770704 -0.0722,0.05993 -0.0632,0.10212 0.0608,0.284955 0.25037,0.368966 0.24809,0.472325 -0.0163,0.736775 -0.20526,0.205256 -0.25288,0.227176 -0.3847,0.177056 -0.14034,-0.05336 -0.21188,0.0042 -1.06507,0.859032 l -0.91464,0.916231 -0.0297,-1.003112 -0.0298,-1.003112 -0.46016,0.333626 -0.46014,0.333627 v 0.66786 0.667858 l 0.43005,0.906181 0.43002,0.906181 0.0187,1.203925 0.0187,1.203922 -0.22605,0.09615 c -0.12435,0.05288 -0.35299,0.108991 -0.5081,0.124699 l -0.28203,0.02855 v 0.675245 0.675244 h -0.32365 -0.3236 l -0.0179,0.341399 -0.0179,0.3414 -0.33608,0.01764 -0.33606,0.01764 -0.0391,0.576093 c -0.0517,0.760101 -0.13433,1.232858 -0.269,1.539584 -0.0973,0.221602 -0.13852,0.255532 -0.35166,0.289613 l -0.24141,0.03861 -6.8e-4,0.274438 c -0.001,0.47333 -0.23911,1.197053 -0.46908,1.42702 -0.11236,0.112371 -0.19279,0.123954 -0.86084,0.123954 h -0.7369 l -0.15216,-0.180842 c -0.17789,-0.211403 -0.38254,-0.832006 -0.43273,-1.312291 -0.0338,-0.323239 -0.0432,-0.338703 -0.22698,-0.373182 -0.10543,-0.01978 -0.23429,-0.08298 -0.28629,-0.140449 -0.15699,-0.173474 -0.28102,-0.772059 -0.31924,-1.540821 l -0.0361,-0.727329 h -0.34723 -0.34721 v -0.356241 -0.356244 h -0.32355 -0.32354 l -0.0184,2.478855 c -0.0103,1.363369 -0.0411,2.525613 -0.0687,2.58276 -0.046,0.09481 -0.17914,0.103905 -1.52195,0.103905 -1.34282,0 -1.47605,-0.0091 -1.52196,-0.103905 z"
       id="path30" />
    <path
       style="fill:#000000;stroke-width:0.0593738"
       d="M 216.3835,51.215776 V 27.466267 h 1.48435 1.48432 v 23.749509 23.749508 h -1.48432 -1.48435 z"
       id="path28" />
    <path
       style="fill:#000000;stroke-width:0.0593738"
       d="M 171.85317,51.215776 V 27.466267 h 1.48435 1.48433 v 23.749509 23.749508 h -1.48433 -1.48435 z"
       id="path24" />
  </g>
</svg>
