<?xml version="1.0" encoding="UTF-8" standalone="no"?>
<!-- Created with Inkscape (http://www.inkscape.org/) -->

<svg
   xmlns:dc="http://purl.org/dc/elements/1.1/"
   xmlns:cc="http://creativecommons.org/ns#"
   xmlns:rdf="http://www.w3.org/1999/02/22-rdf-syntax-ns#"
   xmlns:svg="http://www.w3.org/2000/svg"
   xmlns="http://www.w3.org/2000/svg"
   xmlns:sodipodi="http://sodipodi.sourceforge.net/DTD/sodipodi-0.dtd"
   xmlns:inkscape="http://www.inkscape.org/namespaces/inkscape"
   sodipodi:docname="cambrian-polaris 3.svg"
   id="svg8"
   version="1.1"
   viewBox="0 0 213.09056 213.09058"
   height="213.09058mm"
   width="213.09058mm"
   inkscape:version="0.92.4 (5da689c313, 2019-01-14)"
   inkscape:export-filename="D:\GitHub\wills-spaceships\Outlines Ships\cambrian-polaris 4.png"
   inkscape:export-xdpi="96"
   inkscape:export-ydpi="96">
  <defs
     id="defs2" />
  <sodipodi:namedview
     id="base"
     pagecolor="#ffffff"
     bordercolor="#666666"
     borderopacity="1.0"
     inkscape:pageopacity="0.0"
     inkscape:pageshadow="2"
     inkscape:zoom="0.24748737"
     inkscape:cx="-185.97484"
     inkscape:cy="479.13789"
     inkscape:document-units="mm"
     inkscape:current-layer="layer1"
     showgrid="false"
     inkscape:window-width="1920"
     inkscape:window-height="1017"
     inkscape:window-x="1912"
     inkscape:window-y="-8"
     inkscape:window-maximized="1" />
  <metadata
     id="metadata5">
    <rdf:RDF>
      <cc:Work
         rdf:about="">
        <dc:format>image/svg+xml</dc:format>
        <dc:type
           rdf:resource="http://purl.org/dc/dcmitype/StillImage" />
        <dc:title></dc:title>
      </cc:Work>
    </rdf:RDF>
  </metadata>
  <g
     inkscape:label="Layer 1"
     inkscape:groupmode="layer"
     id="layer1"
     transform="translate(974.81643,523.79303)">
    <path
       style="fill:#000000;stroke-width:0.26636323"
       d="m -974.81643,-417.24773 v -106.5453 h 15.8486 15.84862 v 106.5453 106.54528 h -15.84862 -15.8486 z"
       id="path832"
       inkscape:connector-curvature="0" />
    <path
       style="fill:#000000;stroke-width:0.26636323"
       d="m -791.55853,-417.24773 v -106.5453 h 14.91633 14.91635 v 106.5453 106.54528 h -14.91635 -14.91633 z"
       id="path830"
       inkscape:connector-curvature="0" />
    <path
       style="fill:#000000;stroke-width:0.26636323"
       d="m -871.11527,-315.23917 c -1.76838,-0.31785 -4.60958,-1.38765 -6.47858,-2.43936 -5.20679,-2.92994 -10.78135,-9.42663 -14.69841,-17.12979 -2.81224,-5.53049 -4.18508,-9.91253 -6.31735,-20.16487 -1.64813,-7.92444 -2.17158,-9.69417 -3.30929,-11.18819 -1.36098,-1.7872 -1.89343,-1.95255 -6.04036,-1.8758 -3.19671,0.0593 -3.69261,0.008 -4.46699,-0.46551 -0.96613,-0.5901 -2.71686,-3.12673 -3.40918,-4.93955 -0.3634,-0.95156 -0.71648,-1.32581 -1.8591,-1.97067 -1.63344,-0.92188 -2.61344,-2.09637 -3.33613,-3.99838 -0.70861,-1.86488 -0.65089,-2.69628 0.26741,-3.8518 0.73833,-0.92906 0.76215,-1.03552 0.44013,-1.96777 -0.33965,-0.9833 -0.34468,-0.98595 -2.19809,-1.15396 -2.15837,-0.19566 -3.1573,-0.64496 -4.2821,-1.92607 -1.02499,-1.16738 -1.50282,-2.5658 -1.51459,-4.43262 -0.0104,-1.64159 0.73661,-3.18208 1.76564,-3.64123 0.55834,-0.24914 0.58979,-0.40512 0.51548,-2.55538 l -0.0792,-2.29004 1.08743,-1.17971 c 1.04535,-1.1341 1.0864,-1.24558 1.06088,-2.88132 -0.0376,-2.41096 -0.23588,-2.8923 -1.57967,-3.83525 -0.74886,-0.52547 -1.30855,-1.17408 -1.50852,-1.74816 -0.39464,-1.13299 -0.44579,-7.47528 -0.0711,-8.82417 0.25169,-0.90624 0.5431,-1.22499 2.34142,-2.56103 0.53022,-0.39391 0.64869,-0.78852 0.81388,-2.71074 l 0.19334,-2.2497 -1.08024,-0.99741 -1.08024,-0.9974 -0.0938,-2.3402 c -0.0915,-2.28639 -0.11443,-2.35735 -0.99235,-3.08673 -2.65388,-2.20481 -1.22952,-7.85531 2.32034,-9.20496 0.35081,-0.13339 1.34515,-0.31197 2.20962,-0.39684 1.74963,-0.1718 1.82672,-0.22092 2.22593,-1.41857 0.25056,-0.75166 0.19602,-0.95959 -0.48896,-1.86454 -1.04627,-1.38222 -1.0153,-2.48706 0.13391,-4.77842 0.79436,-1.5838 1.15178,-1.98469 2.62242,-2.94128 1.52089,-0.98926 1.80217,-1.31638 2.63392,-3.06317 1.07774,-2.2634 2.06736,-3.52655 3.245,-4.14192 0.69243,-0.36183 1.62494,-0.42686 5.4953,-0.3832 4.91911,0.0555 6.03976,-0.0928 6.50551,-0.86077 0.36129,-0.59568 -0.55981,-1.41831 -3.97506,-3.55012 -8.32483,-5.19638 -11.76933,-6.26019 -23.09031,-7.13135 -5.73711,-0.44149 -7.56195,-0.74435 -9.06415,-1.50421 -1.9351,-0.9789 -1.99266,-2.078 -0.31494,-6.01417 3.30792,-7.76083 6.08223,-12.2255 9.75451,-15.69779 5.1295,-4.85012 19.92464,-13.56188 27.24306,-16.04141 8.88736,-3.01108 19.53973,-4.56471 31.29769,-4.56471 15.06322,0 27.46902,2.37477 37.42403,7.16383 3.98067,1.91501 11.52718,6.34148 16.11459,9.45217 3.33493,2.2614 7.67445,6.46318 9.38596,9.08805 2.3767,3.64505 6.59621,12.77969 6.59621,14.27986 0,2.45827 -1.93306,3.16593 -10.46528,3.83112 -11.4875,0.89558 -14.06635,1.64897 -22.05695,6.44369 -4.30212,2.58148 -5.53967,3.60234 -5.14778,4.24652 0.46631,0.76649 1.58884,0.91477 6.50551,0.85929 3.87037,-0.0437 4.80288,0.0214 5.49532,0.3832 1.17861,0.61589 2.1674,1.87886 3.2485,4.14933 0.81094,1.70312 1.13162,2.08854 2.42158,2.9107 1.70462,1.0864 1.92166,1.32047 2.83042,3.0522 0.96281,1.83475 1.14353,3.51727 0.45859,4.26966 -0.93686,1.02911 -1.09381,1.57438 -0.74481,2.58755 0.31507,0.91468 0.3607,0.93835 2.41872,1.25455 2.5351,0.3895 3.93305,1.26148 4.80593,2.99778 1.27886,2.54388 1.0629,5.16597 -0.54056,6.56361 -0.94451,0.82325 -0.94917,0.83813 -0.94917,3.02594 v 2.19861 l -1.14525,1.12907 -1.14524,1.12905 0.19176,2.2314 c 0.1636,1.90388 0.28284,2.29908 0.81229,2.69243 1.79832,1.33604 2.08973,1.65479 2.34143,2.56103 0.37464,1.34889 0.3235,7.69118 -0.0711,8.82417 -0.19996,0.57408 -0.75964,1.22269 -1.5085,1.74816 -1.34381,0.94295 -1.54206,1.42429 -1.57966,3.83525 -0.0256,1.63429 0.0162,1.74798 1.05508,2.87502 l 1.08165,1.17344 -0.0548,2.28094 c -0.0547,2.27407 -0.0524,2.28245 0.75377,2.79293 2.05329,1.30004 2.05332,5.51944 5e-5,7.85797 -1.12483,1.28111 -2.12376,1.73041 -4.28212,1.92607 -1.85341,0.16801 -1.85845,0.17066 -2.19809,1.15396 -0.322,0.93225 -0.2982,1.03871 0.44012,1.96777 0.91831,1.15552 0.97602,1.98692 0.26743,3.8518 -0.7227,1.90201 -1.70269,3.0765 -3.33614,3.99838 -1.14263,0.64486 -1.49569,1.01911 -1.85909,1.97067 -0.6915,1.81065 -2.44232,4.34871 -3.40919,4.9421 -0.7766,0.4766 -1.26112,0.5271 -4.46698,0.46551 -4.14732,-0.0797 -4.67863,0.085 -6.04036,1.87325 -1.12387,1.47581 -1.68581,3.34695 -3.16664,10.5442 -0.66681,3.24088 -1.50189,7.04059 -1.85573,8.44379 -3.28123,13.01222 -11.25907,25.08454 -19.58775,29.64074 -3.72819,2.03952 -8.34106,2.92992 -11.88178,2.29348 z"
       id="path826"
       inkscape:connector-curvature="0" />
  </g>
</svg>
