<?xml version="1.0" encoding="UTF-8" standalone="no"?>
<!-- Created with Inkscape (http://www.inkscape.org/) -->

<svg
   xmlns:dc="http://purl.org/dc/elements/1.1/"
   xmlns:cc="http://creativecommons.org/ns#"
   xmlns:rdf="http://www.w3.org/1999/02/22-rdf-syntax-ns#"
   xmlns:svg="http://www.w3.org/2000/svg"
   xmlns="http://www.w3.org/2000/svg"
   xmlns:sodipodi="http://sodipodi.sourceforge.net/DTD/sodipodi-0.dtd"
   xmlns:inkscape="http://www.inkscape.org/namespaces/inkscape"
   inkscape:export-ydpi="96"
   inkscape:export-xdpi="96"
   inkscape:export-filename="D:\GitHub\wills-spaceships\Outlines Ships\argosy-aur 4.png"
   inkscape:version="0.92.4 (5da689c313, 2019-01-14)"
   width="84.175507mm"
   height="84.175507mm"
   viewBox="0 0 84.175504 84.175507"
   version="1.1"
   id="svg8"
   sodipodi:docname="argosy-aur 3.svg">
  <defs
     id="defs2" />
  <sodipodi:namedview
     id="base"
     pagecolor="#ffffff"
     bordercolor="#666666"
     borderopacity="1.0"
     inkscape:pageopacity="0.0"
     inkscape:pageshadow="2"
     inkscape:zoom="0.24748737"
     inkscape:cx="1013.9219"
     inkscape:cy="190.67013"
     inkscape:document-units="mm"
     inkscape:current-layer="layer1"
     showgrid="false"
     inkscape:window-width="1920"
     inkscape:window-height="1017"
     inkscape:window-x="-8"
     inkscape:window-y="-8"
     inkscape:window-maximized="1" />
  <metadata
     id="metadata5">
    <rdf:RDF>
      <cc:Work
         rdf:about="">
        <dc:format>image/svg+xml</dc:format>
        <dc:type
           rdf:resource="http://purl.org/dc/dcmitype/StillImage" />
        <dc:title />
      </cc:Work>
    </rdf:RDF>
  </metadata>
  <g
     inkscape:label="Layer 1"
     inkscape:groupmode="layer"
     id="layer1"
     transform="translate(577.53368,90.54443)">
    <path
       style="fill:#000000;stroke-width:0.10521939"
       d="M -577.53368,-48.456677 V -90.54443 h 7.94407 7.94406 v 42.087753 42.0877548 h -7.94406 -7.94407 z"
       id="path832"
       inkscape:connector-curvature="0" />
    <path
       style="fill:#000000;stroke-width:0.10521939"
       d="M -509.2463,-48.456677 V -90.54443 h 7.94406 7.94407 v 42.087753 42.0877548 h -7.94407 -7.94406 z"
       id="path830"
       inkscape:connector-curvature="0" />
    <path
       style="fill:#000000;stroke-width:0.10521939"
       d="m -548.00307,-10.212389 c -3.33358,-2.010127 -6.13076,-4.789125 -6.91203,-6.867103 -0.30127,-0.801308 -0.3076,-0.885315 -1.00203,-13.279451 l -0.60425,-10.784986 1.06208,-5.208359 c 0.58415,-2.864598 1.61149,-7.920433 2.283,-11.235188 1.60503,-7.922869 2.52496,-11.234692 4.31313,-15.527477 4.46496,-10.718874 10.56689,-15.712432 16.30482,-13.343186 5.21888,2.154927 10.1105,9.975235 13.10581,20.952462 0.43683,1.600877 2.27317,10.410537 4.76229,22.846595 l 0.32854,1.641433 -0.65899,11.49789 c -0.55698,9.718143 -0.68987,11.597886 -0.85852,12.143916 -0.53033,1.717012 -2.36514,3.854732 -4.95438,5.772276 -1.06672,0.790006 -2.57995,1.7624046 -2.74261,1.7624046 -0.0332,0 -0.18351,-0.2515256 -0.33391,-0.5589426 -0.15042,-0.307419 -0.43809,-0.745395 -0.63929,-0.973281 l -0.36582,-0.414336 -0.004,0.499791 -0.004,0.499794 h -4.62966 -4.62965 v -1.578292 -1.578291 h -1.26263 -1.26264 v 1.578291 1.578292 h -4.62965 -4.62965 l -0.004,-0.499794 -0.004,-0.499791 -0.36583,0.414336 c -0.2012,0.227886 -0.48888,0.665862 -0.63928,0.973281 -0.15041,0.307417 -0.30342,0.5588202 -0.34003,0.5586712 -0.0366,-1.045e-4 -0.3432,-0.1670792 -0.68132,-0.3709552 z"
       id="path826"
       inkscape:connector-curvature="0" />
  </g>
</svg>
