<?xml version="1.0" encoding="UTF-8" standalone="no"?>
<!-- Created with Inkscape (http://www.inkscape.org/) -->

<svg
   inkscape:export-ydpi="96"
   inkscape:export-xdpi="96"
   inkscape:export-filename="Crayfish-Aurora 4.png"
   inkscape:version="1.2.1 (9c6d41e410, 2022-07-14)"
   width="154.46278mm"
   height="154.4628mm"
   viewBox="0 0 154.46279 154.4628"
   version="1.1"
   id="svg8"
   sodipodi:docname="Crayfish-Aurora 3.svg"
   xml:space="preserve"
   xmlns:inkscape="http://www.inkscape.org/namespaces/inkscape"
   xmlns:sodipodi="http://sodipodi.sourceforge.net/DTD/sodipodi-0.dtd"
   xmlns="http://www.w3.org/2000/svg"
   xmlns:svg="http://www.w3.org/2000/svg"
   xmlns:rdf="http://www.w3.org/1999/02/22-rdf-syntax-ns#"
   xmlns:cc="http://creativecommons.org/ns#"
   xmlns:dc="http://purl.org/dc/elements/1.1/"><defs
     id="defs2" /><sodipodi:namedview
     id="base"
     pagecolor="#ffffff"
     bordercolor="#666666"
     borderopacity="1.0"
     inkscape:pageopacity="0.0"
     inkscape:pageshadow="2"
     inkscape:zoom="0.49497474"
     inkscape:cx="767.71594"
     inkscape:cy="349.51279"
     inkscape:document-units="mm"
     inkscape:current-layer="layer1"
     showgrid="false"
     inkscape:window-width="1920"
     inkscape:window-height="1017"
     inkscape:window-x="1912"
     inkscape:window-y="-8"
     inkscape:window-maximized="1"
     inkscape:showpageshadow="2"
     inkscape:pagecheckerboard="0"
     inkscape:deskcolor="#d1d1d1" /><metadata
     id="metadata5"><rdf:RDF><cc:Work
         rdf:about=""><dc:format>image/svg+xml</dc:format><dc:type
           rdf:resource="http://purl.org/dc/dcmitype/StillImage" /></cc:Work></rdf:RDF></metadata><g
     inkscape:label="Layer 1"
     inkscape:groupmode="layer"
     id="layer1"
     transform="translate(907.872, 100.159)"><path
       style="fill:#000000;stroke-width:0.193078"
       d="m -863.51921,45.1331 -0.71667,-0.656562 V 33.18103 21.885524 l 5.59927,-11.9963529 c 5.48748,-11.7568096 5.59928,-12.0208103 5.59928,-13.2209437 0,-1.0337951 0.1203,-1.473417 0.7723,-2.821635 0.42476,-0.8783763 0.77231,-1.7014921 0.77231,-1.8291413 0,-0.1276534 -0.75536,-1.3798474 -1.67859,-2.7826611 -1.63145,-2.478916 -1.67058,-2.564893 -1.39241,-3.060453 0.22303,-0.397386 0.43324,-0.509885 0.95267,-0.509885 0.63392,0 0.72376,0.09176 1.83875,1.878332 0.64475,1.033084 1.23129,1.937355 1.30342,2.009494 0.0722,0.07215 0.47468,-0.601859 0.8945,-1.497777 0.68297,-1.45739 0.74463,-1.709678 0.58558,-2.395648 -0.41973,-1.810427 -0.0878,-2.515357 1.11672,-2.372054 0.4923,0.05857 0.60571,-0.144746 3.2235,-5.778417 l 2.71326,-5.839124 1.01366,-0.0015 1.01367,-0.0014 9.7e-4,-4.875234 c 5.6e-4,-2.681375 0.0874,-5.185782 0.19279,-5.565343 0.29182,-1.050477 0.93038,-1.53473 2.19606,-1.665359 1.08094,-0.111486 1.08541,-0.114624 1.08541,-0.760706 v -0.648763 l -4.00638,-0.0014 -4.00637,-0.0014 -0.43444,-0.638134 c -0.41757,-0.613371 -0.43443,-0.800736 -0.43443,-4.828351 0,-4.017972 0.0179,-4.217787 0.43443,-4.860895 l 0.43444,-0.670674 3.90982,-0.0024 c 2.15043,-0.0014 3.91585,-0.06755 3.92315,-0.1472 0.008,-0.07965 0.0449,-0.383744 0.0834,-0.675775 l 0.07,-0.530964 h -3.83858 -3.83857 l -0.51031,-0.669051 c -0.4936,-0.647122 -0.50957,-0.749786 -0.48716,-3.13257 0.0225,-2.389436 0.0387,-2.479642 0.53662,-2.999444 0.323,-0.337073 0.7149,-0.535848 1.05654,-0.535848 0.52302,0 0.54313,-0.03574 0.54313,-0.965394 0,-0.888467 -0.0367,-0.965392 -0.46025,-0.965392 -0.28997,0 -0.71193,-0.278613 -1.14064,-0.753131 l -0.68039,-0.753124 -0.008,-9.882208 -0.008,-9.882206 0.78613,-0.852841 0.78611,-0.852832 h 13.08016 13.08014 l 0.79691,0.86454 0.7969,0.86454 v 9.85076 9.850763 l -0.69823,0.772866 c -0.45134,0.499574 -0.86474,0.772873 -1.16906,0.772873 -0.44121,0 -0.46709,0.05766 -0.41195,0.91712 0.0532,0.827323 0.10831,0.922862 0.56356,0.975688 0.27757,0.03219 0.75063,0.315278 1.05125,0.629051 0.54067,0.564333 0.54649,0.596188 0.53969,2.955035 -0.007,2.30466 -0.0249,2.408106 -0.54324,3.087711 l -0.53632,0.703161 h -3.83865 -3.83865 v 0.675775 0.675774 l 4.00637,0.0014 4.00639,0.0014 0.43442,0.638134 c 0.41804,0.614051 0.43439,0.797977 0.43315,4.873912 -9.8e-4,3.8931 -0.0321,4.282639 -0.38275,4.815014 l -0.38148,0.579236 -4.00979,0.09655 -4.00978,0.09655 -0.0305,0.602329 c -0.0301,0.594908 -0.0169,0.603706 1.06193,0.714146 0.89955,0.09207 1.18616,0.21637 1.62339,0.703997 0.29203,0.325697 0.54183,0.721137 0.55509,0.878751 0.0134,0.157614 0.0458,0.373457 0.0724,0.479649 0.0266,0.10619 0.0593,2.408655 0.0724,5.116581 l 0.0242,4.923437 1.01367,0.0026 1.01366,0.0026 2.72,5.837893 c 2.61162,5.605238 2.74008,5.835475 3.22353,5.777186 1.19977,-0.144649 1.53323,0.573573 1.10389,2.377646 -0.16662,0.700167 -0.11016,0.925631 0.60416,2.413486 0.684,1.424613 0.81715,1.595253 1.009,1.29322 2.52376,-3.973162 2.40813,-3.831043 3.06486,-3.767056 0.43111,0.04198 0.70554,0.214365 0.9024,0.566788 0.27364,0.489884 0.23032,0.587278 -1.32455,2.979682 -0.88407,1.3602866 -1.64198,2.6094371 -1.68425,2.7758963 -0.0422,0.1664632 0.27409,1.0259198 0.70305,1.909917 0.65738,1.3547589 0.77992,1.7974784 0.77992,2.818072 0,1.1819858 0.13331,1.4965302 5.59927,13.2115027 l 5.59928,12.000688 -0.008,11.246835 -0.008,11.246835 -0.5644,0.660098 c -0.50571,0.591468 -0.67834,0.664992 -1.66028,0.70715 -1.00582,0.04318 -1.14924,-0.0049 -1.74471,-0.583065 l -0.64882,-0.630095 V 34.026669 23.539044 l -2.64905,-5.711466 c -1.45697,-3.141306 -2.92869,-6.276223 -3.27051,-6.966477 l -0.62144,-1.2550134 -0.0124,1.0252854 c -0.0112,0.959564 -0.16345,1.277934 -2.37704,4.966529 l -2.36521,3.941239 -3.28234,0.0033 -3.28234,0.0033 -0.66351,-1.152541 c -0.36494,-0.633892 -0.68286,-1.132546 -0.70651,-1.108109 -0.0236,0.02441 0.005,1.499759 0.0647,3.278497 l 0.10756,3.234067 h 0.61728 c 1.00516,0 1.23002,0.436077 1.27106,2.46514 l 0.036,1.782584 h 6.25925 c 5.23299,0 6.35269,0.04833 6.82893,0.294574 l 0.56963,0.294577 v 6.711159 6.711158 l -0.59875,0.353699 c -0.55834,0.329825 -1.28177,0.355444 -10.71577,0.379522 l -10.11703,0.02584 -7e-5,0.880999 c -7e-5,0.726519 -0.10147,0.978171 -0.57852,1.435181 l -0.57843,0.554177 -2.82975,0.02057 -2.82974,0.02057 -0.64646,-0.609702 c -0.54208,-0.511243 -0.6465,-0.746322 -0.64659,-1.455755 l -9e-5,-0.846054 -10.11835,-0.0266 c -9.426,-0.0248 -10.15924,-0.05078 -10.71575,-0.379515 l -0.59741,-0.352882 v -6.711236 -6.711158 l 0.56965,-0.294574 c 0.47638,-0.246348 1.59856,-0.294578 6.8543,-0.294578 h 6.28462 v -1.804319 c 0,-2.028004 0.21957,-2.443405 1.29145,-2.443405 h 0.58524 l 0.10128,-3.234067 c 0.0557,-1.778739 0.0841,-3.254058 0.0631,-3.278496 -0.021,-0.02446 -0.33676,0.474216 -0.70169,1.108114 l -0.66352,1.15254 -3.28234,-0.0027 -3.28233,-0.0027 -2.31695,-3.8623 c -2.06869,-3.44848 -2.32728,-3.979074 -2.41348,-4.952232 l -0.0965,-1.0899387 -3.23492,6.9360417 -3.23491,6.936047 3.8e-4,10.426239 4e-4,10.426239 -0.56859,0.665271 c -0.50066,0.585796 -0.69178,0.671169 -1.59982,0.714669 -0.93622,0.04482 -1.09727,-0.01111 -1.7479,-0.607156 z"
       id="path186" /><path
       style="fill:#000000;stroke-width:0.193078"
       d="m -784.10831,-22.927544 v -77.231396 h 15.34974 15.34974 v 77.231396 77.231399 h -15.34974 -15.34974 z"
       id="path184" /><path
       style="fill:#000000;stroke-width:0.193078"
       d="m -907.87162,-22.927544 v -77.231396 h 15.34972 15.34976 v 77.231396 77.231399 h -15.34976 -15.34972 z"
       id="path180" /></g></svg>
