<?xml version="1.0" encoding="UTF-8" standalone="no"?>
<svg
   xmlns:dc="http://purl.org/dc/elements/1.1/"
   xmlns:cc="http://creativecommons.org/ns#"
   xmlns:rdf="http://www.w3.org/1999/02/22-rdf-syntax-ns#"
   xmlns:svg="http://www.w3.org/2000/svg"
   xmlns="http://www.w3.org/2000/svg"
   xmlns:sodipodi="http://sodipodi.sourceforge.net/DTD/sodipodi-0.dtd"
   xmlns:inkscape="http://www.inkscape.org/namespaces/inkscape"
   sodipodi:docname="manta 3.svg"
   inkscape:version="1.0 (4035a4fb49, 2020-05-01)"
   id="svg8"
   version="1.1"
   viewBox="0 0 45.175454 45.175465"
   height="45.175465mm"
   width="45.175453mm"
   inkscape:export-filename="C:\Users\W\GitHub\Novalike-Art-Pack-Source\Vectors - Outlines Ships\manta 4.png"
   inkscape:export-xdpi="96"
   inkscape:export-ydpi="96">
  <defs
     id="defs2" />
  <sodipodi:namedview
     inkscape:window-maximized="1"
     inkscape:window-y="-8"
     inkscape:window-x="68"
     inkscape:window-height="1057"
     inkscape:window-width="1844"
     showgrid="false"
     inkscape:document-rotation="0"
     inkscape:current-layer="layer1"
     inkscape:document-units="mm"
     inkscape:cy="-418.91763"
     inkscape:cx="-198.21787"
     inkscape:zoom="0.49497474"
     inkscape:pageshadow="2"
     inkscape:pageopacity="0.0"
     borderopacity="1.0"
     bordercolor="#666666"
     pagecolor="#ffffff"
     id="base" />
  <metadata
     id="metadata5">
    <rdf:RDF>
      <cc:Work
         rdf:about="">
        <dc:format>image/svg+xml</dc:format>
        <dc:type
           rdf:resource="http://purl.org/dc/dcmitype/StillImage" />
        <dc:title />
      </cc:Work>
    </rdf:RDF>
  </metadata>
  <g
     transform="translate(39.911487,-88.027866)"
     id="layer1"
     inkscape:groupmode="layer"
     inkscape:label="Layer 1">
    <path
       id="path24"
       d="M -39.911487,110.61559 V 88.027866 h 1.072918 1.072917 v 22.587724 22.58774 h -1.072917 -1.072918 z"
       style="fill:#000000;stroke-width:0.0564693" />
    <path
       id="path30"
       d="m -33.022229,131.35395 -1.496438,-0.48346 -0.988213,-1.40964 c -0.543518,-0.77531 -1.03173,-1.47741 -1.084921,-1.56025 -0.09623,-0.14986 -0.09442,-0.15471 0.357889,-0.96739 0.250029,-0.44923 1.421093,-2.73096 2.602367,-5.07051 1.587586,-3.14426 2.131245,-4.27024 2.08441,-4.31707 -0.03486,-0.0348 -0.06335,-0.15993 -0.06335,-0.27795 0,-0.19125 0.01534,-0.21459 0.141172,-0.21459 0.07765,0 0.141173,-0.0235 0.141173,-0.0523 0,-0.0288 0.04154,-0.0605 0.09235,-0.0706 0.08705,-0.0172 3.099304,-5.97008 11.160202,-22.055023 1.497993,-2.989137 2.736327,-5.434869 2.751857,-5.434959 0.01553,-9.2e-5 1.279026,2.496388 2.807771,5.547731 7.747187,15.463221 11.0173548,21.924941 11.1046012,21.942251 0.05061,0.009 0.092019,0.0418 0.092019,0.0706 0,0.0288 0.063525,0.0523 0.1411724,0.0523 0.1258181,0 0.1411724,0.0234 0.1411724,0.21459 0,0.11802 -0.028482,0.24307 -0.063295,0.27788 -0.046748,0.0468 0.4980741,1.17537 2.0839809,4.31708 1.18100256,2.33959 2.3520383,4.62134 2.6023003,5.07057 0.452771,0.81273 0.4545467,0.81752 0.3583174,0.96742 -0.05319,0.0829 -0.5409503,0.78483 -1.08391415,1.55997 l -0.98720897,1.40931 -1.53178918,0.48907 -1.5317893,0.48908 -2.535006,1e-5 -2.5350088,1e-5 -1.3078942,-0.42354 c -0.719344,-0.23293 -1.388197,-0.42352 -1.486343,-0.42352 -0.09814,0 -1.549639,-0.26802 -3.225544,-0.59561 l -3.047095,-0.59564 -3.042659,0.59564 c -1.673465,0.32759 -3.120493,0.59561 -3.215619,0.59561 -0.09512,0 -0.767192,0.19059 -1.493476,0.42351 l -1.320516,0.42353 -2.563108,-0.005 -2.563106,-0.005 z"
       style="fill:#000000;stroke-width:0.0564693" />
    <path
       id="path28"
       d="M 3.1181352,110.61559 V 88.027866 h 1.0729149 1.0729175 v 22.587724 22.58774 H 4.1910501 3.1181352 Z"
       style="fill:#000000;stroke-width:0.0564693" />
  </g>
</svg>
