<?xml version="1.0" encoding="UTF-8" standalone="no"?>
<!-- Created with Inkscape (http://www.inkscape.org/) -->

<svg
   xmlns:dc="http://purl.org/dc/elements/1.1/"
   xmlns:cc="http://creativecommons.org/ns#"
   xmlns:rdf="http://www.w3.org/1999/02/22-rdf-syntax-ns#"
   xmlns:svg="http://www.w3.org/2000/svg"
   xmlns="http://www.w3.org/2000/svg"
   xmlns:sodipodi="http://sodipodi.sourceforge.net/DTD/sodipodi-0.dtd"
   xmlns:inkscape="http://www.inkscape.org/namespaces/inkscape"
   sodipodi:docname="dart-vellos 3.svg"
   id="svg8"
   version="1.1"
   viewBox="0 0 48.18515 48.185132"
   height="48.185131mm"
   width="48.18515mm"
   inkscape:version="0.92.4 (5da689c313, 2019-01-14)"
   inkscape:export-filename="D:\GitHub\Novalike-Art-Pack-Source\Outlines Ships\dart-vellos 4.png"
   inkscape:export-xdpi="96"
   inkscape:export-ydpi="96">
  <defs
     id="defs2" />
  <sodipodi:namedview
     id="base"
     pagecolor="#ffffff"
     bordercolor="#666666"
     borderopacity="1.0"
     inkscape:pageopacity="0.0"
     inkscape:pageshadow="2"
     inkscape:zoom="0.24748738"
     inkscape:cx="1626.7933"
     inkscape:cy="623.87132"
     inkscape:document-units="mm"
     inkscape:current-layer="layer1"
     showgrid="false"
     inkscape:window-width="1920"
     inkscape:window-height="1017"
     inkscape:window-x="-8"
     inkscape:window-y="-8"
     inkscape:window-maximized="1" />
  <metadata
     id="metadata5">
    <rdf:RDF>
      <cc:Work
         rdf:about="">
        <dc:format>image/svg+xml</dc:format>
        <dc:type
           rdf:resource="http://purl.org/dc/dcmitype/StillImage" />
        <dc:title />
      </cc:Work>
    </rdf:RDF>
  </metadata>
  <g
     inkscape:label="Layer 1"
     inkscape:groupmode="layer"
     id="layer1"
     transform="translate(782.36672,-75.870299)">
    <path
       style="fill:#000000;stroke-width:0.06023143"
       d="m -782.36672,121.88712 v -2.16835 h 24.09258 24.09257 v 2.16835 2.16831 h -24.09257 -24.09258 z"
       id="path833"
       inkscape:connector-curvature="0" />
    <path
       style="fill:#000000;stroke-width:0.06023143"
       d="m -767.06829,117.85893 c -0.57519,-0.19827 -0.6986,-0.26998 -1.35522,-0.78754 -1.85988,-1.46598 -4.33632,-4.77365 -6.18283,-8.25819 -2.73867,-5.16805 -4.12579,-10.52617 -3.81239,-14.726372 0.21246,-2.847356 1.14104,-5.176315 2.9044,-7.284533 1.99614,-2.386517 5.3729,-4.627181 7.93442,-5.264939 0.72869,-0.181429 0.82691,-0.192028 1.41545,-0.152728 0.56925,0.03803 0.6785,0.06535 1.09354,0.273332 0.41077,0.205881 0.48492,0.270314 0.67935,0.590382 l 0.21825,0.359289 -0.10118,0.410849 c -0.0558,0.225969 -0.15361,0.52463 -0.21771,0.663689 -0.15548,0.337347 -0.73692,1.010287 -1.73701,2.010394 -1.04858,1.048579 -1.68195,1.731585 -1.68195,1.813791 0,0.03542 0.1423,-0.06221 0.31622,-0.217003 1.76132,-1.567775 2.88358,-1.865168 4.03483,-1.069205 0.46232,0.319638 1.1121,1.025815 1.96752,2.138279 1.43581,1.867271 1.93695,2.385915 2.63567,2.72777 0.99413,0.486389 1.96115,-0.07973 3.45344,-2.021529 1.46473,-1.90597 1.95121,-2.457263 2.50417,-2.837698 1.16666,-0.802694 2.27873,-0.510697 4.04601,1.062383 0.1739,0.154806 0.31622,0.253572 0.31622,0.219499 0,-0.08861 -0.60963,-0.749723 -1.63191,-1.769904 -1.05544,-1.053312 -1.62861,-1.712975 -1.78705,-2.056777 -0.064,-0.139059 -0.16207,-0.43772 -0.21773,-0.663689 l -0.10116,-0.410849 0.21825,-0.359289 c 0.19442,-0.320068 0.26858,-0.384501 0.67935,-0.590382 0.41503,-0.208025 0.52427,-0.235327 1.09354,-0.273332 0.58823,-0.03934 0.68713,-0.02864 1.41543,0.152375 2.56818,0.638294 5.94565,2.883218 7.95869,5.28998 1.73287,2.07178 2.66742,4.428264 2.88062,7.263453 0.3152,4.19201 -1.08139,9.581014 -3.81644,14.726464 -1.86852,3.51519 -4.33583,6.80376 -6.21449,8.28294 -0.6196,0.48784 -0.74921,0.56226 -1.31992,0.75783 l -0.63287,0.21689 -0.45416,-0.13958 -0.45419,-0.13955 -0.20254,-0.41869 c -0.19963,-0.41265 -0.20197,-0.42699 -0.16209,-0.99431 0.0966,-1.37327 0.26052,-1.92271 1.46488,-4.90813 1.0706,-2.65385 1.42233,-3.62605 1.74056,-4.81086 0.43093,-1.60448 0.79385,-3.82667 0.90705,-5.55427 l 0.0414,-0.63043 -0.29602,0.22394 c -1.80016,1.362 -3.57241,2.04023 -5.56626,2.1302 -1.02399,0.0462 -1.46319,-0.0211 -2.6033,-0.39908 -1.17831,-0.39065 -1.73964,-0.5015 -2.54648,-0.50288 -0.83162,-0.002 -1.46453,0.1201 -2.60591,0.50065 -1.1405,0.38018 -1.5781,0.44763 -2.60412,0.40131 -1.98363,-0.0895 -3.82142,-0.79198 -5.56627,-2.12756 l -0.296,-0.22658 0.0414,0.63043 c 0.1132,1.7276 0.47611,3.94979 0.90707,5.55427 0.31823,1.18481 0.66995,2.15701 1.74057,4.81086 1.20614,2.98989 1.36007,3.50533 1.46105,4.89264 0.0429,0.58827 0.0414,0.59689 -0.15723,1.00765 l -0.20043,0.41431 -0.39553,0.12637 c -0.21754,0.0695 -0.42262,0.13437 -0.45576,0.1441 -0.0331,0.009 -0.34499,-0.0806 -0.69303,-0.20048 z"
       id="path831"
       inkscape:connector-curvature="0" />
    <path
       style="fill:#000000;stroke-width:0.06023143"
       d="m -782.36672,78.038623 v -2.168324 h 24.09258 24.09257 v 2.168324 2.168337 h -24.09257 -24.09258 z"
       id="path827"
       inkscape:connector-curvature="0" />
  </g>
</svg>
