<?xml version="1.0" encoding="UTF-8" standalone="no"?>
<!-- Created with Inkscape (http://www.inkscape.org/) -->

<svg
   xmlns:dc="http://purl.org/dc/elements/1.1/"
   xmlns:cc="http://creativecommons.org/ns#"
   xmlns:rdf="http://www.w3.org/1999/02/22-rdf-syntax-ns#"
   xmlns:svg="http://www.w3.org/2000/svg"
   xmlns="http://www.w3.org/2000/svg"
   xmlns:sodipodi="http://sodipodi.sourceforge.net/DTD/sodipodi-0.dtd"
   xmlns:inkscape="http://www.inkscape.org/namespaces/inkscape"
   sodipodi:docname="carrier-aur 3.svg"
   id="svg8"
   version="1.1"
   viewBox="0 0 405.57837 405.58387"
   height="405.58386mm"
   width="405.57837mm"
   inkscape:version="0.92.4 (5da689c313, 2019-01-14)"
   inkscape:export-filename="D:\GitHub\wills-spaceships\Outlines Ships\carrier-aur 4.png"
   inkscape:export-xdpi="96"
   inkscape:export-ydpi="96">
  <defs
     id="defs2" />
  <sodipodi:namedview
     id="base"
     pagecolor="#ffffff"
     bordercolor="#666666"
     borderopacity="1.0"
     inkscape:pageopacity="0.0"
     inkscape:pageshadow="2"
     inkscape:zoom="0.12374369"
     inkscape:cx="-1004.2492"
     inkscape:cy="1444.489"
     inkscape:document-units="mm"
     inkscape:current-layer="layer1"
     showgrid="false"
     inkscape:window-width="1920"
     inkscape:window-height="1017"
     inkscape:window-x="1912"
     inkscape:window-y="-8"
     inkscape:window-maximized="1" />
  <metadata
     id="metadata5">
    <rdf:RDF>
      <cc:Work
         rdf:about="">
        <dc:format>image/svg+xml</dc:format>
        <dc:type
           rdf:resource="http://purl.org/dc/dcmitype/StillImage" />
        <dc:title></dc:title>
      </cc:Work>
    </rdf:RDF>
  </metadata>
  <g
     inkscape:label="Layer 1"
     inkscape:groupmode="layer"
     id="layer1"
     transform="translate(976.04669,-125.40551)">
    <path
       style="fill:#000000;stroke-width:0.50697303"
       d="m -976.04669,328.19741 v -202.7919 h 45.3747 45.37472 l -0.12733,202.66245 -0.12732,202.66243 -45.24735,0.12948 -45.24733,0.12949 z"
       id="path836"
       inkscape:connector-curvature="0" />
    <path
       style="fill:#000000;stroke-width:0.50697303"
       d="M -661.21647,328.19455 V 125.40551 h 45.37407 45.37409 v 202.78918 202.7892 h -45.37409 -45.37407 z"
       id="path834"
       inkscape:connector-curvature="0" />
    <path
       style="fill:#000000;stroke-width:0.50697303"
       d="m -790.01418,153.79578 0.14037,7.71747 0.13961,7.71748 2.1477,0.79312 c 3.20515,1.18309 3.5885,1.78377 1.74445,2.73738 -2.76145,1.42799 -6.74566,5.9545 -8.51877,9.67876 -2.28411,4.79754 -2.70284,8.37283 -2.71434,23.19402 -0.009,11.90722 -0.0584,12.54757 -0.95652,12.54757 -1.35631,0 -6.15126,2.07011 -6.15126,2.65567 0,0.27092 -0.56649,-0.0445 -1.25876,-0.70104 -1.1937,-1.13225 -1.2583,-1.48865 -1.26693,-6.89761 -0.005,-3.45846 -0.20871,-5.70344 -0.51613,-5.70344 -0.32446,0 -0.50649,-4.56301 -0.50649,-12.67458 v -12.67383 h -1.52092 -1.52092 v 12.67383 c 0,8.11157 -0.18276,12.67458 -0.50722,12.67458 -0.30981,0 -0.50721,2.36587 -0.50721,6.08366 0,3.7178 -0.19667,6.08369 -0.50649,6.08369 -0.29291,0 -0.50722,1.60541 -0.50722,3.80229 0,3.46432 0.0899,3.80229 1.01371,3.80229 0.84627,0 1.01443,0.33792 1.01443,2.04374 0,1.34905 -0.25852,2.14299 -0.76046,2.3356 -0.56622,0.21729 -0.76046,1.11944 -0.76046,3.53271 v 3.24161 h 3.54831 3.54908 v -3.24161 c 0,-2.41327 -0.19424,-3.31542 -0.76046,-3.53271 -1.12599,-0.43207 -0.97802,-3.65457 0.22278,-4.85536 0.97259,-0.97263 1.00516,-0.97256 3.10422,0.0416 1.16677,0.56371 2.85966,1.14499 3.7622,1.29145 l 1.64048,0.2666 0.33121,4.6348 c 0.48416,6.78637 1.95468,10.98132 5.33734,15.22403 1.45378,1.82344 1.57142,2.26579 1.57142,5.91733 v 3.94711 l -1.90115,0.61193 c -3.28341,1.05758 -3.16884,0.59591 -3.16884,12.73769 v 11.11949 l 2.53536,1.05381 2.53463,1.05305 v 2.97425 2.97426 h -7.60461 -7.60458 v -1.55432 c 0,-2.35489 -0.83112,-3.51565 -2.51681,-3.51565 -0.80678,0 -1.80271,0.33674 -2.21379,0.74785 -0.65859,0.65882 -0.78225,0.65704 -1.03896,-0.0118 -0.24643,-0.64227 -1.67937,-0.73723 -9.3015,-0.62011 l -9.01042,0.13813 v 12.67458 12.67455 l 8.87006,0.13889 c 7.50092,0.11776 8.95744,0.019 9.4389,-0.6394 0.50749,-0.69445 0.63857,-0.6955 1.20531,-0.0127 0.82649,0.99586 2.75956,0.9796 3.77034,-0.0312 0.43818,-0.43818 0.79687,-1.5786 0.79687,-2.53461 v -1.73778 h 7.60458 7.60461 v 2.98169 2.98242 l -4.81601,1.69321 c -4.78792,1.68304 -4.81674,1.70234 -4.81674,3.39013 0,1.2247 -0.54661,2.35914 -1.96203,4.0704 -4.46449,5.39759 -6.31439,10.51248 -6.28939,17.39105 0.023,6.34966 1.79902,11.3055 5.98416,16.70115 1.36378,1.75823 2.25171,3.46827 2.35491,4.53379 0.16262,1.67812 0.2547,1.73929 4.85534,3.24086 l 4.68976,1.53059 v 2.93489 2.9349 h -4.81601 -4.81674 v -1.69545 c 0,-3.25128 -3.90803,-4.57288 -5.05957,-1.71103 l -0.45227,1.12509 -0.0327,-1.15182 -0.032,-1.15258 -9.2525,0.13888 -9.25176,0.13813 -0.13664,12.10424 c -0.0956,8.50335 0.0363,12.31122 0.44261,12.80081 0.446,0.53738 2.4112,0.69658 8.58636,0.69658 4.40441,0 8.36883,-0.13817 8.80989,-0.30744 0.44106,-0.16924 0.8163,-0.79637 0.83398,-1.39392 0.0321,-1.08426 0.0329,-1.08463 0.48495,0.0385 1.15156,2.86185 5.05957,1.54028 5.05957,-1.71103 v -1.69543 h 4.81599 4.81675 v 2.95271 2.95272 l -2.40838,0.74784 -2.40837,0.74783 v 11.62077 11.62078 l 2.28139,0.84213 2.28138,0.84216 0.14035,7.3677 0.14037,7.36696 -1.5343,0.33715 -1.53428,0.33716 v 4.80411 4.80411 l -2.53535,1.05306 -2.53462,1.05379 v 8.52176 8.52176 l 2.53462,1.42289 2.53387,1.42362 7.3e-4,3.46587 c 5.1e-4,3.38588 -0.0344,3.4799 -1.52017,4.0407 -1.68978,0.63779 -2.06473,2.31066 -0.76047,3.39311 0.42993,0.35679 0.76047,1.46209 0.76047,2.54278 0,1.23149 0.27056,2.0154 0.76047,2.20338 0.63054,0.24202 0.76045,1.6315 0.76045,8.13635 0,4.6825 0.20384,7.97006 0.50648,8.1571 0.27876,0.17229 0.50713,1.21249 0.50722,2.31108 5e-5,1.79243 0.13032,1.99769 1.26767,1.99769 0.6971,0 1.2708,-0.28567 1.27511,-0.63418 0.005,-0.43788 0.12291,-0.46134 0.38023,-0.0766 0.56363,0.84288 2.14503,0.6517 2.16255,-0.2614 0.0127,-0.66063 0.11021,-0.63895 0.55178,0.12029 0.51885,0.89213 0.55949,0.89213 1.23575,0 0.65312,-0.86156 0.70082,-0.86418 0.71591,-0.0356 0.0265,1.45924 1.02357,1.00187 1.10578,-0.50719 l 0.0758,-1.39396 0.21166,1.39396 c 0.11615,0.76677 0.42365,1.39464 0.68396,1.39464 0.26032,0 0.50774,-0.62787 0.54956,-1.39464 l 0.0758,-1.39396 0.21165,1.39396 c 0.25398,1.6765 1.1297,1.85796 1.22683,0.25396 l 0.0691,-1.1407 0.21909,1.1407 c 0.25949,1.3473 1.13787,1.52917 1.22237,0.25323 0.056,-0.84495 0.0696,-0.84495 0.29038,0 0.16036,0.61377 0.73614,0.88745 1.86773,0.88745 1.58558,0 1.65452,-0.0908 2.24424,-2.94601 0.33464,-1.62008 0.60822,-6.52483 0.60822,-10.89966 0,-4.9649 0.19078,-7.95442 0.50723,-7.95442 0.31642,0 0.5072,2.98952 0.5072,7.95442 0,4.37483 0.27361,9.27958 0.60823,10.89966 0.5931,2.87145 0.65051,2.94601 2.28137,2.94601 1.23293,0 1.68844,-0.23356 1.73185,-0.88745 0.056,-0.84495 0.0695,-0.84495 0.29035,0 0.33098,1.26651 1.15918,1.0976 1.24096,-0.25323 l 0.0691,-1.1407 0.21907,1.1407 c 0.3076,1.59695 1.14806,1.4246 1.23947,-0.25396 l 0.0757,-1.39396 0.21165,1.39396 c 0.11616,0.76677 0.42364,1.39464 0.68397,1.39464 0.2603,0 0.50774,-0.62787 0.54954,-1.39464 l 0.0758,-1.39396 0.21165,1.39396 c 0.23186,1.53039 1.14765,1.92635 1.17338,0.50719 0.0152,-0.82856 0.0627,-0.82594 0.71589,0.0356 0.67626,0.89213 0.71692,0.89213 1.23575,0 0.44159,-0.75924 0.53884,-0.78092 0.55178,-0.12029 0.0176,0.9131 1.59892,1.10428 2.16255,0.2614 0.25736,-0.38476 0.37449,-0.36135 0.38023,0.0766 0.004,0.34851 0.57802,0.63418 1.27511,0.63418 1.13752,0 1.26769,-0.20521 1.26769,-1.99841 0,-1.09891 0.22763,-2.13876 0.50647,-2.31112 0.30262,-0.18703 0.50722,-3.47458 0.50722,-8.1571 0,-6.50481 0.12983,-7.89432 0.76046,-8.1363 0.48991,-0.18802 0.76046,-0.97191 0.76046,-2.20341 0,-1.08072 0.33054,-2.18597 0.76046,-2.54277 1.30427,-1.08248 0.9293,-2.7553 -0.76046,-3.39313 -1.47924,-0.55833 -1.52092,-0.66637 -1.52092,-3.93447 v -3.36043 l 2.53462,-1.57587 2.53536,-1.57591 v -8.47495 -8.47495 l -2.53536,-1.05381 -2.53462,-1.05305 v -4.80411 -4.80412 l -1.53429,-0.33717 -1.53428,-0.33713 0.14036,-7.36697 0.13961,-7.36768 2.28138,-0.84216 2.28137,-0.84215 v -11.62073 -11.62077 l -2.40763,-0.74785 -2.40836,-0.74782 v -2.95272 -2.95273 h 4.81599 4.81675 v 1.69544 c 0,3.25129 3.908,4.57287 5.05958,1.71102 0.45195,-1.12325 0.45288,-1.12285 0.48494,-0.0385 0.0177,0.59755 0.3929,1.22467 0.83397,1.39392 0.44108,0.1692 4.40549,0.30746 8.80989,0.30746 6.17516,0 8.14037,-0.15919 8.58636,-0.69661 0.40625,-0.48958 0.53819,-4.29746 0.44261,-12.80081 l -0.13665,-12.10423 -9.25175,-0.13812 -9.2525,-0.13887 -0.032,1.15257 -0.0327,1.15182 -0.45226,-1.12509 c -1.15157,-2.86185 -5.05959,-1.54024 -5.05959,1.71104 v 1.69544 h -4.84199 -4.84124 l 0.15224,-2.91486 0.1515,-2.91485 4.56275,-1.57513 c 4.49082,-1.54988 4.56524,-1.60221 4.715,-3.33517 0.1004,-1.16162 0.85064,-2.60607 2.20488,-4.24491 8.38279,-10.1444 8.32578,-24.04577 -0.1411,-34.28231 -1.41543,-1.71126 -1.96279,-2.84571 -1.96279,-4.07039 0,-1.68781 -0.0281,-1.70711 -4.81599,-3.39013 l -4.81599,-1.69322 v -2.98242 -2.98168 h 7.60459 7.60459 v 1.73776 c 0,0.95601 0.35869,2.09645 0.79686,2.53462 1.01078,1.0108 2.94387,1.02706 3.77036,0.0312 0.56673,-0.68245 0.69782,-0.68139 1.20529,0.0127 0.48146,0.65847 1.93798,0.75711 9.43891,0.63942 l 8.86931,-0.13888 v -12.67456 -12.67457 l -8.86931,-0.13887 c -7.50093,-0.11776 -8.95745,-0.0191 -9.43891,0.6394 -0.50747,0.69444 -0.63856,0.69549 -1.20529,0.0126 -0.34969,-0.42134 -1.28387,-0.7664 -2.07642,-0.7664 -1.65828,0 -2.4908,1.17497 -2.4908,3.51565 v 1.55432 h -7.60459 -7.60459 v -2.97425 -2.97426 l 2.53461,-1.05305 2.53461,-1.0538 V 271.2288 259.83453 l -2.53461,-0.84214 -2.53461,-0.84141 v -4.07485 c 0,-3.80284 0.10146,-4.19039 1.51795,-5.8037 3.24573,-3.69671 4.90321,-8.37273 5.39079,-15.20695 l 0.33047,-4.6348 1.64123,-0.2666 c 0.90253,-0.14646 2.59544,-0.72774 3.76219,-1.29145 2.09907,-1.01411 2.13163,-1.01416 3.10423,-0.0416 1.20079,1.20079 1.34877,4.42328 0.22279,4.85536 -0.56623,0.21729 -0.76047,1.11943 -0.76047,3.53271 v 3.2416 h 3.54831 3.54907 v -3.24158 c 0,-2.41327 -0.19423,-3.31542 -0.76046,-3.53271 -0.50195,-0.19261 -0.76046,-0.98655 -0.76046,-2.3356 0,-1.70582 0.16817,-2.04374 1.01444,-2.04374 0.92384,0 1.0137,-0.33797 1.0137,-3.80229 0,-2.19688 -0.21431,-3.80229 -0.50722,-3.80229 -0.30981,0 -0.50648,-2.36589 -0.50648,-6.08369 0,-3.71779 -0.1974,-6.08366 -0.50722,-6.08366 -0.32447,0 -0.50722,-4.56301 -0.50722,-12.67458 v -12.67383 h -1.52092 -1.52092 v 12.67383 c 0,8.11157 -0.18203,12.67458 -0.50648,12.67458 -0.30711,0 -0.50722,2.18806 -0.50722,5.55046 0,5.21794 -0.0762,5.63278 -1.26768,6.9184 -0.69707,0.75213 -1.26768,1.1364 -1.26768,0.85402 0,-0.60121 -4.76947,-2.67646 -6.15126,-2.67646 -0.89803,0 -0.94571,-0.64035 -0.95577,-12.54757 -0.0118,-14.81656 -0.43017,-18.38807 -2.71952,-23.22744 -1.76194,-3.72444 -5.67692,-8.17844 -8.44749,-9.61118 -0.82384,-0.42602 -1.49716,-0.94125 -1.49716,-1.14516 0,-0.20389 1.19697,-0.83317 2.66087,-1.39837 l 2.66161,-1.02782 0.14035,-7.71376 0.13962,-7.7145 h -6.60352 -6.60353 v 2.7886 2.78859 h -3.54904 -3.54907 v -2.78859 -2.7886 h -6.60351 z m 16.75685,135.869 c 1.45078,0 2.13462,0.26615 2.51678,0.98028 0.29076,0.54325 0.52506,4.17621 0.52506,8.14523 0,3.96901 -0.2343,7.60123 -0.52506,8.14449 -0.38216,0.71411 -1.066,0.98102 -2.51678,0.98102 -1.45081,0 -2.13536,-0.26691 -2.51755,-0.98102 -0.29074,-0.54326 -0.52429,-4.17548 -0.52429,-8.14449 0,-3.96902 0.23355,-7.60198 0.52429,-8.14523 0.38219,-0.71413 1.06674,-0.98028 2.51755,-0.98028 z m 0,79.59425 c 1.5067,0 1.97838,0.24831 2.45367,1.29144 0.74129,1.62701 0.7929,15.12292 0.0631,16.48653 -0.38217,0.71411 -1.06601,0.98027 -2.51678,0.98027 -1.45081,0 -2.13536,-0.26616 -2.51755,-0.98027 -0.72978,-1.36361 -0.67743,-14.85952 0.0639,-16.48653 0.47529,-1.04313 0.94697,-1.29144 2.45367,-1.29144 z"
       id="path832"
       inkscape:connector-curvature="0" />
  </g>
</svg>
