<?xml version="1.0" encoding="UTF-8" standalone="no"?>
<!-- Created with Inkscape (http://www.inkscape.org/) -->

<svg
   xmlns:dc="http://purl.org/dc/elements/1.1/"
   xmlns:cc="http://creativecommons.org/ns#"
   xmlns:rdf="http://www.w3.org/1999/02/22-rdf-syntax-ns#"
   xmlns:svg="http://www.w3.org/2000/svg"
   xmlns="http://www.w3.org/2000/svg"
   xmlns:sodipodi="http://sodipodi.sourceforge.net/DTD/sodipodi-0.dtd"
   xmlns:inkscape="http://www.inkscape.org/namespaces/inkscape"
   sodipodi:docname="destroyer-fed 3.svg"
   id="svg8"
   version="1.1"
   viewBox="0 0 126.94843 126.94843"
   height="126.94843mm"
   width="126.94843mm"
   inkscape:version="0.92.4 (5da689c313, 2019-01-14)"
   inkscape:export-filename="D:\GitHub\wills-spaceships\Outlines Ships\destroyer-fed 4.png"
   inkscape:export-xdpi="96"
   inkscape:export-ydpi="96">
  <defs
     id="defs2" />
  <sodipodi:namedview
     id="base"
     pagecolor="#ffffff"
     bordercolor="#666666"
     borderopacity="1.0"
     inkscape:pageopacity="0.0"
     inkscape:pageshadow="2"
     inkscape:zoom="0.49497475"
     inkscape:cx="484.24949"
     inkscape:cy="646.04787"
     inkscape:document-units="mm"
     inkscape:current-layer="layer1"
     showgrid="false"
     inkscape:window-width="1920"
     inkscape:window-height="1017"
     inkscape:window-x="1912"
     inkscape:window-y="-8"
     inkscape:window-maximized="1" />
  <metadata
     id="metadata5">
    <rdf:RDF>
      <cc:Work
         rdf:about="">
        <dc:format>image/svg+xml</dc:format>
        <dc:type
           rdf:resource="http://purl.org/dc/dcmitype/StillImage" />
        <dc:title />
      </cc:Work>
    </rdf:RDF>
  </metadata>
  <g
     inkscape:label="Layer 1"
     inkscape:groupmode="layer"
     id="layer1"
     transform="translate(421.19516,-100.81672)">
    <path
       style="fill:#000000;stroke-width:0.15868551"
       d="m -421.19516,226.25761 v -1.50748 h 63.4742 63.47423 v 1.50748 1.50754 h -63.47423 -63.4742 z"
       id="path832"
       inkscape:connector-curvature="0" />
    <path
       style="fill:#000000;stroke-width:0.15868551"
       d="m -400.21427,214.18789 c -0.44607,-0.31242 -0.76116,-0.90977 -1.37605,-2.60867 l -0.48821,-1.34883 -0.98931,-0.0474 -0.98931,-0.0471 v -1.39142 -1.39141 l -0.99177,-0.46555 c -0.54547,-0.25606 -1.48283,-0.74474 -2.08301,-1.08596 l -1.09123,-0.62037 0.10449,-2.79137 c 0.14269,-3.80723 0.71539,-6.51316 1.99876,-9.44365 0.50148,-1.1451 1.20643,-2.53791 1.56659,-3.09508 l 0.65477,-1.01309 v -9.65524 -9.65519 h 6.34745 6.3474 v 2.54832 c 0,1.68436 0.0548,2.51458 0.16115,2.44876 0.0887,-0.055 0.8612,-0.96946 1.71687,-2.03261 3.37022,-4.18755 5.0256,-7.82055 5.55158,-12.18383 l 0.28509,-2.36468 h -3.30195 -3.30194 v -0.52686 c 0,-0.37665 0.16479,-0.71935 0.57806,-1.20216 l 0.57805,-0.67533 -0.0145,-4.15348 c -0.007,-2.28438 -0.0181,-4.30128 -0.0225,-4.48193 -0.004,-0.18067 -0.26913,-0.63334 -0.58803,-1.00588 l -0.57986,-0.67742 0.0931,-3.68706 c 0.0688,-2.7301 0.18253,-4.19884 0.43783,-5.6589 1.31915,-7.54435 5.12745,-13.61158 10.87156,-17.32023 4.1664,-2.68998 8.83818,-4.06583 14.69844,-4.32869 l 2.48717,-0.11153 0.12848,0.76989 c 0.0708,0.42347 0.10609,3.73336 0.0788,7.35534 -0.0966,12.79407 -0.0684,30.89587 0.0515,33.36362 l 0.12156,2.49931 0.5758,1.6e-4 0.57576,1.7e-4 -0.0505,-2.6337 c -0.0411,-2.14785 -0.006,-2.68212 0.1833,-2.89621 0.12862,-0.1444 0.29606,-0.58387 0.37209,-0.97662 0.12131,-0.6267 0.19336,-0.72045 0.58876,-0.76607 0.42957,-0.0495 0.44589,-0.081 0.35099,-0.67442 -0.0917,-0.57331 -0.0706,-0.62243 0.26733,-0.62243 0.20174,0 0.45253,-0.0857 0.55724,-0.19042 0.14813,-0.14812 0.19046,-0.14812 0.19046,0 0,0.10461 0.17935,0.19042 0.39859,0.19042 0.3748,0 0.39263,0.0373 0.29903,0.62243 -0.0949,0.5935 -0.0786,0.62486 0.351,0.67442 0.39541,0.0456 0.46743,0.13937 0.58878,0.76607 0.0762,0.39275 0.24347,0.83222 0.37209,0.97662 0.19071,0.21409 0.22453,0.74836 0.1833,2.89621 l -0.0506,2.6337 0.57575,-1.7e-4 0.57579,-1.6e-4 0.12156,-2.49931 c 0.13783,-2.83382 0.15276,-23.58841 0.0234,-32.57017 -0.0764,-5.2946 0.0286,-8.59837 0.28121,-8.85086 0.17269,-0.17266 5.93011,0.28021 7.54666,0.59363 11.07157,2.14647 18.48753,9.79234 20.46454,21.09901 0.25532,1.46006 0.36897,2.92882 0.43783,5.65891 l 0.0932,3.68708 -0.57981,0.6774 c -0.31893,0.37255 -0.58282,0.82522 -0.58646,1.00589 -0.004,0.18066 -0.006,2.20491 -0.006,4.4983 l -4.2e-4,4.16982 0.56246,0.68642 c 0.3796,0.46327 0.56247,0.84878 0.56247,1.18584 v 0.49936 h -3.30064 -3.30066 l 0.28956,2.38104 c 0.53123,4.36813 2.18491,8.00486 5.52131,12.14241 0.86844,1.07695 1.65147,2.00289 1.74009,2.05768 0.10653,0.0659 0.16116,-0.76439 0.16116,-2.44874 v -2.54834 h 6.34743 6.34743 v 9.65522 9.65521 l 0.65476,1.0131 c 0.36015,0.55716 1.0651,1.94997 1.5666,3.09507 1.28335,2.93049 1.85606,5.63642 1.99875,9.44365 l 0.1045,2.79136 -1.09123,0.62038 c -0.60018,0.34121 -1.53755,0.82989 -2.08303,1.08594 l -0.99178,0.46557 v 1.39144 1.3914 l -0.98916,0.0471 -0.98917,0.0472 -0.56864,1.58599 c -0.35601,0.99286 -0.7492,1.77918 -1.05137,2.10256 l -0.48265,0.51661 h -2.33922 -2.33922 l -0.5142,-0.51571 c -0.28276,-0.28365 -0.66979,-0.94419 -0.86002,-1.46785 -0.19021,-0.52366 -0.45901,-1.25969 -0.59733,-1.63559 l -0.2515,-0.68344 -3.91086,0.12805 c -2.151,0.0705 -5.82106,0.11719 -8.15573,0.10386 l -4.24483,-0.0243 v 0.77391 0.77395 l -2.48626,0.0439 -2.48625,0.0437 -0.22603,0.6786 c -0.12431,0.37327 -0.45997,0.92669 -0.74588,1.22983 l -0.51983,0.55119 h -2.34644 -2.34645 l -0.57465,-0.60409 c -0.31608,-0.33225 -0.67348,-0.9035 -0.79427,-1.26949 l -0.2196,-0.6654 h -6.29661 -6.29664 l -0.21959,0.6654 c -0.12078,0.36599 -0.47819,0.93724 -0.79425,1.26949 l -0.57464,0.60409 h -2.34645 -2.34646 l -0.51985,-0.55119 c -0.28589,-0.30314 -0.62153,-0.85656 -0.74586,-1.22983 l -0.22604,-0.6786 -2.48625,-0.0437 -2.48624,-0.0439 v -0.80219 -0.80222 l -2.65799,0.11086 c -1.48602,0.0619 -5.06323,0.0252 -8.11312,-0.0829 -4.5699,-0.16237 -5.47747,-0.15897 -5.59279,0.0209 -0.0758,0.11811 -0.33442,0.8186 -0.57492,1.55662 -0.31119,0.95502 -0.60172,1.51546 -1.00774,1.94389 l -0.57049,0.60205 h -2.29021 c -1.81851,0 -2.36302,-0.051 -2.64379,-0.24766 z"
       id="path830"
       inkscape:connector-curvature="0" />
    <path
       style="fill:#000000;stroke-width:0.15868551"
       d="m -421.19516,102.32422 v -1.5075 h 63.4742 63.47423 v 1.5075 1.50754 h -63.47423 -63.4742 z"
       id="path826"
       inkscape:connector-curvature="0" />
  </g>
</svg>
