<?xml version="1.0" encoding="UTF-8" standalone="no"?>
<svg
   sodipodi:docname="Deimos-Old Earth 3.svg"
   id="svg8"
   version="1.1"
   viewBox="0 0 253.90019 253.90021"
   height="253.90019mm"
   width="253.90021mm"
   inkscape:version="1.2.1 (9c6d41e410, 2022-07-14)"
   inkscape:export-filename="Deimos-Old Earth 4.png"
   inkscape:export-xdpi="96"
   inkscape:export-ydpi="96"
   xml:space="preserve"
   xmlns:inkscape="http://www.inkscape.org/namespaces/inkscape"
   xmlns:sodipodi="http://sodipodi.sourceforge.net/DTD/sodipodi-0.dtd"
   xmlns="http://www.w3.org/2000/svg"
   xmlns:svg="http://www.w3.org/2000/svg"
   xmlns:rdf="http://www.w3.org/1999/02/22-rdf-syntax-ns#"
   xmlns:cc="http://creativecommons.org/ns#"
   xmlns:dc="http://purl.org/dc/elements/1.1/"><defs
     id="defs2" /><sodipodi:namedview
     inkscape:guide-bbox="true"
     showguides="true"
     inkscape:document-rotation="0"
     inkscape:window-maximized="1"
     inkscape:window-y="-8"
     inkscape:window-x="1912"
     inkscape:window-height="1017"
     inkscape:window-width="1920"
     showgrid="false"
     inkscape:current-layer="layer1"
     inkscape:document-units="mm"
     inkscape:cy="388.57143"
     inkscape:cx="540"
     inkscape:zoom="0.35"
     inkscape:pageshadow="2"
     inkscape:pageopacity="0.0"
     borderopacity="1.0"
     bordercolor="#666666"
     pagecolor="#ffffff"
     id="base"
     inkscape:showpageshadow="2"
     inkscape:pagecheckerboard="0"
     inkscape:deskcolor="#d1d1d1" /><metadata
     id="metadata5"><rdf:RDF><cc:Work
         rdf:about=""><dc:format>image/svg+xml</dc:format><dc:type
           rdf:resource="http://purl.org/dc/dcmitype/StillImage" /></cc:Work></rdf:RDF></metadata><g
     transform="translate(408.782, -2.74966)"
     id="layer1"
     inkscape:groupmode="layer"
     inkscape:label="Layer 1"><path
       style="fill:#000000;stroke-width:0.317375"
       d="M -408.78151,129.69976 V 2.7496643 h 12.06026 12.06027 V 129.69976 256.64986 h -12.06027 -12.06026 z"
       id="path126" /><path
       id="path210"
       style="fill:#000000;stroke-width:0.317375"
       d="m -359.54389,34.169728 c -4.12698,0 -5.00679,0.0842 -5.49424,0.525343 -0.55241,0.499948 -0.58021,1.670554 -0.58021,24.300126 0,15.781638 0.11014,23.98143 0.32823,24.388925 0.29785,0.556524 0.69818,0.613675 4.28456,0.613675 2.42577,0 3.95634,0.122923 3.95634,0.31753 0,0.177593 -0.87033,0.317065 -1.97584,0.317065 h -1.97538 l -2.15066,2.133914 -2.15017,2.133915 v 8.339472 8.339467 h -1.17482 c -0.89177,0 -1.42752,0.2446 -2.22179,1.01442 -0.9728,0.94293 -1.0465,1.16033 -1.0465,3.08139 0,1.95519 0.0635,2.13151 1.17528,3.27014 0.89069,0.91216 1.42872,1.20317 2.22178,1.20317 h 1.04605 v 20.78824 20.78823 h -1.01816 c -0.74589,0 -1.33955,0.31427 -2.22131,1.17528 -1.14911,1.1221 -1.20364,1.26809 -1.20364,3.2376 0,1.89022 0.085,2.15072 1.01442,3.10976 0.79734,0.82265 1.27285,1.0465 2.22178,1.0465 h 1.20691 v 8.32319 8.32274 l 2.13391,2.15064 2.1339,2.15021 h 1.99212 1.99212 v 1.01813 c 0,0.7459 0.31428,1.33955 1.17528,2.22132 1.12577,1.15288 1.26336,1.20362 3.27014,1.20362 1.94843,0 2.16415,-0.0723 3.08698,-1.03162 0.64193,-0.6673 1.02825,-1.42364 1.09392,-2.14228 l 0.10135,-1.11066 8.17256,-0.0846 8.17211,-0.0851 v 1.02373 c 0,0.75207 0.31167,1.34248 1.17527,2.2269 1.12231,1.14938 1.26843,1.20363 3.23993,1.20363 1.95271,0 2.12946,-0.0637 3.26782,-1.17528 0.91216,-0.89069 1.20363,-1.42873 1.20363,-2.22178 v -1.04603 h 1.99957 c 1.14303,0 2.19631,-0.17025 2.45889,-0.39703 0.25261,-0.21821 -0.005,0.11018 -0.57138,0.72943 -0.92354,1.00896 -1.03069,1.32411 -1.03069,3.0349 0,1.70695 0.10082,2.0059 0.95213,2.82151 l 0.95212,0.91215 v 8.40966 c 0,10.7997 -0.64122,9.87924 6.87874,9.87924 h 5.49889 v 2.69784 2.69738 h 9.36272 9.36228 v 4.02143 c 0,3.29671 0.0947,4.12631 0.52533,4.60209 0.65401,0.72268 1.93644,0.74901 2.70296,0.0553 0.50491,-0.45692 0.5802,-1.05573 0.5802,-4.6021 v -4.07675 h 1.58719 1.58672 v 4.02143 c 0,3.2967 0.0947,4.12631 0.52535,4.60209 0.654,0.72268 1.93644,0.74901 2.70295,0.0553 0.50491,-0.45692 0.58021,-1.05573 0.58021,-4.6021 v -4.07675 h 9.36272 9.36226 v -2.69738 -2.69784 h 5.45426 c 7.57196,0 6.92338,0.92129 6.92338,-9.83461 v -8.4543 l 0.95211,-0.91214 c 0.85131,-0.81561 0.95213,-1.11456 0.95213,-2.82151 0,-1.71079 -0.1067,-2.02594 -1.03023,-3.0349 -0.56678,-0.61926 -0.82398,-0.94764 -0.57137,-0.72944 0.26257,0.22679 1.31587,0.39704 2.45889,0.39704 h 1.99909 v 1.01767 c 0,0.7459 0.31427,1.34002 1.17528,2.22179 1.12229,1.14938 1.2684,1.20363 3.23993,1.20363 1.95269,0 2.12943,-0.0637 3.26781,-1.17528 0.91459,-0.89308 1.20364,-1.42765 1.20364,-2.2269 v -1.05208 l 8.17256,0.085 8.17211,0.0846 0.10182,1.11066 c 0.0656,0.71864 0.45152,1.47498 1.09345,2.14229 0.92014,0.95653 1.1426,1.03162 3.05909,1.03162 1.95518,0 2.13151,-0.0635 3.27013,-1.17528 0.91216,-0.89069 1.20364,-1.42825 1.20364,-2.22131 v -1.0465 h 1.97538 1.97584 l 2.1502,-2.13392 2.15019,-2.13391 v -8.33948 -8.33946 h 1.17526 c 0.89176,0 1.42708,-0.2446 2.22133,-1.01442 0.97281,-0.94293 1.04651,-1.15987 1.04651,-3.08093 0,-1.95519 -0.0635,-2.13197 -1.17529,-3.2706 -0.8907,-0.91215 -1.42825,-1.20319 -2.22131,-1.20319 h -1.0465 v -20.78822 -20.78824 h 1.01813 c 0.74589,0 1.34002,-0.3138 2.22179,-1.17481 1.15289,-1.12577 1.20318,-1.26382 1.20318,-3.27061 0,-1.94842 -0.0719,-2.16413 -1.03117,-3.08698 -0.66731,-0.64192 -1.42366,-1.02824 -2.14228,-1.09391 l -1.11113,-0.10135 -0.0847,-8.249272 -0.0852,-8.249285 -2.12787,-2.144608 -2.12834,-2.145071 h -1.99212 c -1.11648,0 -1.99212,-0.13919 -1.99212,-0.317066 0,-0.194608 1.53012,-0.31753 3.95588,-0.31753 3.58638,0 3.98673,-0.05715 4.28457,-0.613674 0.21806,-0.40746 0.32868,-8.589976 0.32868,-24.333602 0,-21.626004 -0.0464,-23.770957 -0.52533,-24.300125 -0.46615,-0.515102 -1.08321,-0.580668 -5.48357,-0.580668 -5.43314,0 -6.36872,0.25941 -6.36872,1.763851 0,0.775343 -7.7e-4,0.775461 -3.49145,0.775461 -3.37131,0 -3.49097,-0.02399 -3.49097,-0.689455 0,-0.379005 -0.23644,-0.949971 -0.52534,-1.269189 -0.46676,-0.515758 -1.08498,-0.580668 -5.55376,-0.580668 -4.60564,0 -5.0826,0.05373 -5.66395,0.63506 -0.34911,0.349113 -0.63458,0.92008 -0.63458,1.269192 0,0.596281 -0.21143,0.63506 -3.49098,0.63506 -3.37132,0 -3.49143,-0.02399 -3.49143,-0.689455 0,-0.379005 -0.23599,-0.949971 -0.52487,-1.269189 -0.46677,-0.515758 -1.08547,-0.580668 -5.55423,-0.580668 -4.60565,0 -5.08213,0.05373 -5.66349,0.63506 -0.62331,0.623304 -0.63505,1.057835 -0.63505,24.099753 0,14.478286 0.11866,23.776897 0.30963,24.279207 0.30951,0.814072 0.30964,0.814049 4.28456,0.814049 2.43846,0 3.97494,0.122839 3.97494,0.31753 0,0.177592 -0.86988,0.317066 -1.97537,0.317066 h -1.97587 l -2.15017,2.133913 -2.15019,2.133915 v 4.689494 4.689971 h -2.85638 -2.85638 V 96.90906 c 0,-0.753816 -0.23226,-2.146302 -0.51604,-3.094403 -0.43122,-1.440757 -0.51721,-3.482811 -0.5244,-12.434356 -0.007,-8.667874 -0.0938,-10.831401 -0.45422,-11.346009 -0.40855,-0.583289 -0.80301,-0.63599 -4.76668,-0.63599 -5.49342,0 -5.48152,-0.0074 -5.48076,3.778748 l 4.6e-4,2.727599 -3.96796,-0.09763 c -3.23212,-0.07941 -3.9675,-0.183582 -3.9675,-0.563001 0,-1.244796 -4.46537,-1.336087 -5.57143,-0.113902 -0.77758,0.859203 -3.31405,0.859203 -4.09163,0 -1.10605,-1.222185 -5.57095,-1.130894 -5.57095,0.113902 0,0.379419 -0.73587,0.483589 -3.96797,0.563001 l -3.96751,0.09763 -0.01,-2.697844 c -0.0137,-3.881622 0.0882,-3.808503 -5.30133,-3.808503 -3.75083,0 -4.51703,0.08241 -4.88429,0.524877 -0.34911,0.420621 -0.44288,2.704563 -0.47094,11.505008 -0.0297,9.28161 -0.11527,11.214796 -0.5551,12.498512 -0.28616,0.83524 -0.52071,2.156479 -0.52071,2.935865 v 1.417043 h -2.85636 -2.85638 V 93.60638 88.933151 l -2.13345,-2.150186 -2.13392,-2.150651 h -1.99211 c -1.11649,0 -1.99212,-0.13919 -1.99212,-0.317066 0,-0.194691 1.5365,-0.31753 3.97493,-0.31753 3.97493,0 3.97506,2.3e-5 4.28458,-0.814049 0.191,-0.502373 0.30962,-9.819996 0.30962,-24.3336 0,-21.439704 -0.0465,-23.570679 -0.52535,-24.099752 -0.4672,-0.516253 -1.08671,-0.580668 -5.60814,-0.580668 -5.52124,0 -6.24414,0.207983 -6.24414,1.794998 0,0.735612 -0.0402,0.744314 -3.49098,0.744314 -3.27954,0 -3.49143,-0.03878 -3.49143,-0.63506 0,-0.349112 -0.28549,-0.920079 -0.6346,-1.269192 -0.58073,-0.580744 -1.05811,-0.63506 -5.60861,-0.63506 -5.40283,0 -6.13443,0.214303 -6.13443,1.794998 0,0.735612 -0.0403,0.744314 -3.49098,0.744314 -3.25642,0 -3.49096,-0.04197 -3.49096,-0.622508 0,-0.342314 -0.31255,-0.913745 -0.69457,-1.269656 -0.63701,-0.59346 -1.10219,-0.647148 -5.60862,-0.647148 z m 29.15421,9.203727 c 1.35876,0 1.64853,0.116935 2.13484,0.859145 0.36913,0.563343 0.56253,1.468984 0.56253,2.632293 0,1.163309 -0.1934,2.068936 -0.56253,2.632293 -0.48631,0.742208 -0.77608,0.85868 -2.13484,0.85868 -1.35877,0 -1.649,-0.116472 -2.13531,-0.85868 -0.76073,-1.161012 -0.76073,-4.103574 0,-5.264586 0.48631,-0.74221 0.77654,-0.859145 2.13531,-0.859145 z m 97.11683,0 c 1.35876,0 1.64851,0.116935 2.13484,0.859145 0.36911,0.563343 0.56253,1.468984 0.56253,2.632293 0,1.163309 -0.19342,2.068936 -0.56253,2.632293 -0.48633,0.742208 -0.77608,0.85868 -2.13484,0.85868 -1.35877,0 -1.64901,-0.116472 -2.13532,-0.85868 -0.36911,-0.563344 -0.56254,-1.468984 -0.56254,-2.632293 0,-1.163309 0.19343,-2.06895 0.56254,-2.632293 0.48631,-0.74221 0.77655,-0.859145 2.13532,-0.859145 z m 19.31773,0 c 2.19428,0 2.73968,0.695183 2.73968,3.491438 0,1.673776 -0.13478,2.304002 -0.60437,2.822904 -0.45541,0.503223 -0.98255,0.668069 -2.13531,0.668069 -1.98093,0 -2.64531,-0.876591 -2.64531,-3.490973 0,-2.614383 0.66438,-3.491438 2.64531,-3.491438 z m -135.7946,4.65e-4 c 1.35508,0 1.64928,0.117067 2.12972,0.850311 0.36517,0.557328 0.55742,1.468278 0.55742,2.640662 0,1.172383 -0.19225,2.08287 -0.55742,2.640196 -0.48139,0.734679 -0.77374,0.850777 -2.14182,0.850777 -1.44286,0 -1.64205,-0.09173 -2.23201,-1.03116 -0.77992,-1.241936 -0.71248,-3.838066 0.13296,-5.128369 0.46001,-0.702065 0.7694,-0.822417 2.11115,-0.822417 z m 19.3047,17.122921 c 0.75091,0.0014 1.5085,0.238538 1.94332,0.705261 1.17583,1.262118 1.23085,4.475111 0.0986,5.736929 -0.34392,0.383262 -0.97232,0.555097 -2.02837,0.555097 -1.61191,0 -2.13088,-0.424794 -2.65414,-2.17343 -0.33732,-1.127186 0.12447,-3.506667 0.81451,-4.1967 0.42116,-0.421162 1.12075,-0.628409 1.82613,-0.627157 z m 97.26096,0.0065 c 0.53503,-0.006 1.07164,0.09793 1.49328,0.323574 1.27204,0.680779 1.61876,4.346258 0.56997,6.025635 -0.31931,0.511285 -0.73815,0.64157 -2.06232,0.64157 -1.75609,0 -2.25075,-0.38573 -2.78572,-2.173432 -0.3382,-1.130177 0.1031,-3.361833 0.81638,-4.127428 0.40823,-0.438184 1.18644,-0.681247 1.96841,-0.689919 z m 19.39119,0.0107 c 0.32577,0.0022 0.6764,0.04949 1.04975,0.143191 1.48839,0.373559 2.15817,3.506468 1.22643,5.736465 -0.44613,1.067717 -0.51236,1.10043 -2.21435,1.10043 -1.54792,0 -1.81899,-0.09901 -2.30547,-0.841479 -0.34914,-0.532868 -0.55184,-1.461195 -0.55184,-2.530943 0,-2.322712 1.03632,-3.619432 2.79548,-3.607664 z m -136.01173,0.0078 c 0.72889,3.61e-4 1.45055,0.161361 1.75224,0.463045 1.22824,1.228245 1.39674,4.146052 0.33473,5.795042 -0.38575,0.598961 -0.74278,0.714095 -2.21434,0.714095 -1.702,0 -1.76822,-0.03271 -2.21435,-1.10043 -0.82581,-1.976455 -0.39091,-4.921607 0.82243,-5.570959 0.38127,-0.204053 0.95241,-0.301074 1.51929,-0.300793 z m 0.055,14.589189 c 3.27953,0 3.49096,0.03877 3.49096,0.63506 0,0.59628 -0.21143,0.634596 -3.49096,0.634596 -3.27956,0 -3.49099,-0.03831 -3.49099,-0.634596 0,-0.596282 0.21143,-0.63506 3.49099,-0.63506 z m 19.36004,0 c 3.27952,0 3.49097,0.03877 3.49097,0.63506 0,0.59628 -0.21145,0.634596 -3.49097,0.634596 -3.27955,0 -3.49145,-0.03831 -3.49145,-0.634596 0,-0.596282 0.2119,-0.63506 3.49145,-0.63506 z m 97.11682,0 c 3.27953,0 3.49097,0.03877 3.49097,0.63506 0,0.59628 -0.21144,0.634596 -3.49097,0.634596 -3.27954,0 -3.49144,-0.03831 -3.49144,-0.634596 0,-0.596282 0.2119,-0.63506 3.49144,-0.63506 z m 19.35958,0 c 3.27953,0 3.49144,0.03877 3.49144,0.63506 0,0.59628 -0.21191,0.634596 -3.49144,0.634596 -3.27954,0 -3.49098,-0.03831 -3.49098,-0.634596 0,-0.596282 0.21144,-0.63506 3.49098,-0.63506 z" /><path
       style="fill:#000000;stroke-width:0.317375"
       d="M -179.00183,129.69976 V 2.7496643 h 12.06027 12.06025 V 129.69976 256.64986 h -12.06025 -12.06027 z"
       id="path184" /></g></svg>
