<?xml version="1.0" encoding="UTF-8" standalone="no"?>
<!-- Created with Inkscape (http://www.inkscape.org/) -->

<svg
   xmlns:dc="http://purl.org/dc/elements/1.1/"
   xmlns:cc="http://creativecommons.org/ns#"
   xmlns:rdf="http://www.w3.org/1999/02/22-rdf-syntax-ns#"
   xmlns:svg="http://www.w3.org/2000/svg"
   xmlns="http://www.w3.org/2000/svg"
   xmlns:sodipodi="http://sodipodi.sourceforge.net/DTD/sodipodi-0.dtd"
   xmlns:inkscape="http://www.inkscape.org/namespaces/inkscape"
   sodipodi:docname="dragon-polaris 3.svg"
   id="svg8"
   version="1.1"
   viewBox="0 0 215.20973 215.20972"
   height="215.20972mm"
   width="215.20975mm"
   inkscape:version="0.92.4 (5da689c313, 2019-01-14)"
   inkscape:export-filename="D:\GitHub\wills-spaceships\Outlines Ships\dragon-polaris 4.png"
   inkscape:export-xdpi="96"
   inkscape:export-ydpi="96">
  <defs
     id="defs2" />
  <sodipodi:namedview
     id="base"
     pagecolor="#ffffff"
     bordercolor="#666666"
     borderopacity="1.0"
     inkscape:pageopacity="0.0"
     inkscape:pageshadow="2"
     inkscape:zoom="0.24748737"
     inkscape:cx="74.505025"
     inkscape:cy="982.76002"
     inkscape:document-units="mm"
     inkscape:current-layer="layer1"
     showgrid="false"
     inkscape:window-width="1920"
     inkscape:window-height="1017"
     inkscape:window-x="1912"
     inkscape:window-y="-8"
     inkscape:window-maximized="1" />
  <metadata
     id="metadata5">
    <rdf:RDF>
      <cc:Work
         rdf:about="">
        <dc:format>image/svg+xml</dc:format>
        <dc:type
           rdf:resource="http://purl.org/dc/dcmitype/StillImage" />
        <dc:title />
      </cc:Work>
    </rdf:RDF>
  </metadata>
  <g
     inkscape:label="Layer 1"
     inkscape:groupmode="layer"
     id="layer1"
     transform="translate(849.32833,204.78114)">
    <path
       style="fill:#000000;stroke-width:0.26901215"
       d="M -849.32833,-97.176267 V -204.78114 h 22.46253 22.4625 V -97.176267 10.428584 h -22.4625 -22.46253 z"
       id="path832"
       inkscape:connector-curvature="0" />
    <path
       style="fill:#000000;stroke-width:0.26901215"
       d="M -679.04362,-97.176267 V -204.78114 h 22.4625 22.46253 V -97.176267 10.428584 h -22.46253 -22.4625 z"
       id="path830"
       inkscape:connector-curvature="0" />
    <path
       style="fill:#000000;stroke-width:0.26901215"
       d="m -742.22436,6.7317823 c -0.76566,-1.4306662 -2.44397,-17.4842983 -5.28036,-50.5091473 -2.11781,-24.657981 -2.78333,-30.344995 -4.07246,-34.799848 -2.10197,-7.263817 -5.90343,-10.587206 -11.65387,-10.188287 -4.97671,0.345249 -8.35902,3.565131 -10.38055,9.882044 -0.59901,1.871882 -0.75586,2.950029 -0.86472,5.944429 -0.1462,4.021772 0.1049,6.787407 1.27987,14.096979 1.61749,10.062574 2.95931,15.193136 5.8968,22.54689 3.0824,7.71651 3.55208,10.227178 2.24159,11.98244 -1.39742,1.871694 -3.91548,1.070845 -6.98162,-2.220423 -7.98288,-8.56904 -12.58157,-20.16005 -16.07369,-40.513773 -1.4479,-8.439068 -2.03228,-15.071359 -2.03228,-23.064919 0,-6.32262 0.26336,-9.180015 1.34535,-14.596777 2.20526,-11.04016 5.20386,-17.83436 10.26941,-23.26822 2.27388,-2.4392 5.52448,-5.11109 7.08157,-5.82083 4.11155,-1.87409 8.19393,1.62458 5.88342,5.04217 -0.38905,0.57548 -1.27437,1.71214 -1.96738,2.5259 -2.2379,2.62792 -3.67771,5.1354 -4.31692,7.51814 -0.72335,2.6964 -0.16058,7.59026 1.16838,10.16019 0.63935,1.23633 2.23063,2.421 3.73757,2.78251 3.44151,0.8256 6.86479,-1.03332 8.76076,-4.7573 3.21029,-6.30552 5.06745,-17.20863 7.8527,-46.10192 1.48006,-15.35377 2.13701,-19.99803 3.26193,-23.06003 1.14545,-3.11789 2.43595,-4.11019 5.3454,-4.11019 5.40329,0 6.31902,2.8911 8.60593,27.17022 2.95879,31.4119 5.26157,43.35175 9.31725,48.30961 2.42003,2.95834 6.93868,3.6229 9.61782,1.41452 1.79871,-1.48263 2.88714,-4.64563 2.89767,-8.42054 0.011,-3.97107 -1.24618,-6.93303 -4.62887,-10.90521 -2.90304,-3.40895 -3.33527,-4.823 -1.97018,-6.44531 0.97011,-1.15291 1.99854,-1.6261 3.51901,-1.61915 1.68781,0.007 2.99879,0.63167 5.46086,2.5991 3.90274,3.11862 7.4198,7.39021 9.48365,11.51813 1.90274,3.80572 4.1282,11.4005 5.32084,18.15832 1.10865,6.281857 1.03759,18.278345 -0.16491,27.842763 -1.37603,10.944766 -4.25979,23.692745 -6.96051,30.769846 -2.32796,6.100295 -6.23594,12.626277 -9.9643,16.639508 -3.20463,3.449468 -5.71878,4.360146 -7.11985,2.57896 -1.37944,-1.753677 -0.94369,-4.228442 2.10911,-11.97795 2.99806,-7.610513 4.22596,-12.20035 5.77872,-21.60062 1.25345,-7.588143 1.38129,-8.873024 1.37841,-13.854135 -0.003,-4.958822 -0.006,-4.986277 -0.91934,-7.63521 -1.10478,-3.204695 -2.9852,-6.193231 -4.73991,-7.533043 -2.42429,-1.851093 -6.23836,-2.519375 -9.25904,-1.62232 -5.12523,1.52203 -7.82385,6.37297 -9.26593,16.656079 -0.65052,4.638758 -1.1229,9.5028 -2.71701,27.977257 -2.63877,30.580965 -4.32189,47.1211407 -5.05143,49.6409113 -0.37643,1.300099 -0.82728,1.6186532 -1.22889,0.868236 z"
       id="path826"
       inkscape:connector-curvature="0" />
  </g>
</svg>
