<?xml version="1.0" encoding="UTF-8" standalone="no"?>
<svg
   xmlns:dc="http://purl.org/dc/elements/1.1/"
   xmlns:cc="http://creativecommons.org/ns#"
   xmlns:rdf="http://www.w3.org/1999/02/22-rdf-syntax-ns#"
   xmlns:svg="http://www.w3.org/2000/svg"
   xmlns="http://www.w3.org/2000/svg"
   xmlns:sodipodi="http://sodipodi.sourceforge.net/DTD/sodipodi-0.dtd"
   xmlns:inkscape="http://www.inkscape.org/namespaces/inkscape"
   sodipodi:docname="asteroid miner-civilian 3.svg"
   id="svg8"
   version="1.1"
   viewBox="0 0 158.26287 158.2629"
   height="158.26289mm"
   width="158.26288mm"
   inkscape:version="1.0 (4035a4fb49, 2020-05-01)"
   inkscape:export-filename="D:\GitHub\Novalike-Art-Pack-Source\Outlines Ships\asteroid miner-civilian 4.png"
   inkscape:export-xdpi="96"
   inkscape:export-ydpi="96">
  <defs
     id="defs2" />
  <sodipodi:namedview
     inkscape:guide-bbox="true"
     showguides="true"
     inkscape:document-rotation="0"
     inkscape:window-maximized="1"
     inkscape:window-y="-8"
     inkscape:window-x="1974"
     inkscape:window-height="1057"
     inkscape:window-width="1858"
     showgrid="false"
     inkscape:current-layer="layer1"
     inkscape:document-units="mm"
     inkscape:cy="318.30362"
     inkscape:cx="493.0527"
     inkscape:zoom="0.7"
     inkscape:pageshadow="2"
     inkscape:pageopacity="0.0"
     borderopacity="1.0"
     bordercolor="#666666"
     pagecolor="#ffffff"
     id="base" />
  <metadata
     id="metadata5">
    <rdf:RDF>
      <cc:Work
         rdf:about="">
        <dc:format>image/svg+xml</dc:format>
        <dc:type
           rdf:resource="http://purl.org/dc/dcmitype/StillImage" />
        <dc:title />
      </cc:Work>
    </rdf:RDF>
  </metadata>
  <g
     transform="translate(54.869795,-53.146493)"
     id="layer1"
     inkscape:groupmode="layer"
     inkscape:label="Layer 1">
    <path
       id="path331"
       d="M -54.869795,68.379295 V 53.146493 H 24.261652 103.39309 V 68.379295 83.6121 H 24.261652 -54.869795 Z"
       style="fill:#000000;stroke-width:0.197829" />
    <path
       id="path301"
       d="m 12.541167,155.27551 c -0.35559,-0.40002 -0.740017,-1.68186 -0.741623,-2.47285 -9.68e-4,-0.50264 -0.06135,-0.54403 -0.792415,-0.54403 h -0.791312 v -0.98914 c 0,-0.85726 0.05274,-0.98915 0.395661,-0.98915 0.33705,0 0.395651,-0.13189 0.395651,-0.89022 0,-0.81769 -0.04035,-0.89024 -0.494573,-0.89024 -0.485323,0 -0.494564,-0.0289 -0.494564,-1.54481 0,-0.93507 -0.097549,-1.66981 -0.247292,-1.8615 -0.1360704,-0.17418 -1.5381118,-0.9222 -3.1157907,-1.66226 -1.5776885,-0.74007 -3.8649711,-1.86095 -5.0828599,-2.49085 -4.2802943,-2.21382 -10.1382288,-4.89586 -10.4401246,-4.78001 -0.1784046,0.0684 -0.3033084,0.35858 -0.3033084,0.70443 0,0.56023 -0.030481,0.58143 -0.6429426,0.44821 -1.4249748,-0.30993 -1.5331868,-0.40665 -1.5331868,-1.37042 v -0.89512 h -1.027765 c -0.845839,0 -1.126001,-0.0942 -1.582643,-0.53159 -0.507472,-0.4862 -0.556532,-0.65933 -0.574559,-2.02775 -0.02961,-2.24414 -0.08815,-2.3545 -1.567887,-2.95384 -0.706923,-0.28633 -1.379814,-0.58287 -1.495303,-0.65896 -0.275401,-0.18146 0.123946,-3.36109 0.435054,-3.46383 0.12141,-0.0401 0.691441,0.11271 1.266881,0.33952 0.717403,0.28278 1.110218,0.34838 1.249869,0.20873 0.282407,-0.28241 0.136496,-0.38431 -1.290511,-0.90099 -0.851567,-0.30835 -1.243821,-0.55371 -1.232587,-0.77099 0.0087,-0.17529 0.03126,-0.53981 0.04954,-0.81002 l 0.033,-0.4913 1.285886,0.46675 c 1.194578,0.4336 1.285885,0.44157 1.285885,0.11212 0,-0.256 -0.316324,-0.45971 -1.137507,-0.73255 -0.981957,-0.32626 -1.146302,-0.45254 -1.201729,-0.92343 -0.123239,-1.04705 0.02816,-1.13064 1.273055,-0.70236 1.363567,0.46913 1.264016,0.46725 1.264016,0.0238 0,-0.27348 -0.296003,-0.45395 -1.186963,-0.72372 -0.652841,-0.19766 -1.186982,-0.40556 -1.186982,-0.462 0,-0.0564 0.357535,-2.88659 0.794534,-6.28922 0.436979,-3.40263 0.786541,-6.79199 0.776787,-7.53192 -0.0097,-0.73993 0.0419,-1.81269 0.114734,-2.38392 l 0.132548,-1.0386 h -0.7115 -0.7115 v -1.58263 -1.58263 h 12.8588614 12.858862 v 0.79132 0.79131 H 8.5343388 c -0.4896288,0 -0.8902438,0.082 -0.8902438,0.18211 0,0.10015 1.1350486,0.22504 2.522333,0.2775 1.387266,0.0524 2.810547,0.15851 3.162809,0.23564 0.809755,0.17731 1.405399,-0.0144 1.074126,-0.34564 -0.323745,-0.32374 -0.309105,-0.85625 0.01635,-0.59594 0.296913,0.23748 2.504993,0.20736 2.902135,-0.0396 0.220671,-0.13722 0.247204,-0.0935 0.1238,0.20399 -0.201473,0.48551 -0.203893,2.44228 -0.0019,2.92398 0.130284,0.31354 0.09676,0.34088 -0.222685,0.18132 -0.454348,-0.22693 -2.454182,-0.20109 -2.838889,0.0367 -0.212669,0.13143 -0.241766,0.084 -0.128048,-0.20855 0.278653,-0.7168 0.224455,-0.77478 -0.673424,-0.72064 -0.489619,0.0295 -1.958515,0.10309 -3.264179,0.16348 -1.305664,0.0604 -2.4585173,0.19201 -2.5618715,0.29251 -0.1158079,0.11249 0.1694541,0.18274 0.7418554,0.18274 h 0.9298012 v 0.79131 0.79131 H 0.99764516 -7.4309663 l -0.5878159,-0.49462 c -0.8992426,-0.75666 -1.3919389,-0.7996 -2.3995198,-0.20912 -0.695137,0.40738 -0.904536,0.65449 -0.978725,1.15503 -0.08418,0.56779 0.09444,0.86349 1.6486556,2.7298 0.9586755,1.15116 1.8962566,2.21943 2.0835057,2.37394 0.1872782,0.15451 2.5157535,2.88502 5.1744185,6.06781 2.65867471,3.18278 4.8965106,5.82553 4.9729353,5.87277 0.076444,0.0472 1.3807339,-0.28677 2.8984284,-0.74225 l 2.7594647,-0.82816 0.9340589,-1.91719 c 0.8256244,-1.69459 1.0414969,-1.98015 1.8592249,-2.45937 l 0.925128,-0.54217 2.789771,0.44357 c 3.604394,0.57309 3.482151,0.53011 3.482151,1.22433 0,0.31908 0.08167,0.58015 0.181444,0.58015 0.314726,0 0.654544,-1.9929 0.742107,-4.35223 0.120413,-3.2436 0.104718,-3.19982 1.110751,-3.12686 l 0.834226,0.0605 0.154117,2.27503 c 0.221078,3.26323 0.53656,5.14354 0.863005,5.14354 0.147818,0 0.268764,0.17805 0.268764,0.39566 0,0.36929 0.131841,0.39566 1.978284,0.39566 1.846404,0 1.978284,-0.0264 1.978284,-0.39566 0,-0.21761 0.120985,-0.39566 0.268754,-0.39566 0.326445,0 0.641927,-1.88031 0.862995,-5.14354 l 0.154136,-2.27503 0.771166,-0.0631 c 0.483232,-0.0396 0.832978,0.0343 0.936662,0.19783 0.09096,0.14354 0.16687,1.10669 0.168544,2.14035 9.68e-4,1.03366 0.136641,2.57713 0.299787,3.42995 0.163174,0.85281 0.296699,1.58726 0.296699,1.63209 0,0.0448 0.08893,0.0815 0.197826,0.0815 0.108889,0 0.197835,-0.26107 0.197835,-0.58016 0,-0.69421 -0.122253,-0.65123 3.482151,-1.22432 l 2.789771,-0.44357 0.913845,0.53555 c 0.802682,0.4704 1.028869,0.76961 1.859206,2.45937 l 0.94537,1.92382 2.769587,0.8362 c 1.523287,0.45992 2.787855,0.83826 2.81015,0.84077 0.02235,0.003 2.31635,-2.68838 5.097945,-5.97975 2.781585,-3.29137 5.935317,-7.00808 7.008301,-8.25934 1.762896,-2.05582 1.941543,-2.33639 1.853961,-2.91181 -0.07606,-0.49923 -0.287942,-0.74871 -0.98126,-1.15502 -1.007571,-0.59048 -1.500287,-0.54754 -2.399501,0.20911 l -0.587845,0.49463 h -8.428611 -8.428612 v -0.79131 -0.79131 h 0.929782 c 0.57243,0 0.857566,-0.0703 0.741865,-0.18274 -0.103403,-0.10051 -1.256207,-0.22587 -2.561881,-0.27859 -1.305664,-0.0527 -2.662168,-0.15848 -3.014459,-0.23502 -0.8105,-0.1761 -1.405012,0.0159 -1.074096,0.34674 0.371982,0.37198 0.290187,0.78862 -0.115344,0.58734 -0.431744,-0.21432 -2.437751,-0.17666 -2.808892,0.0527 -0.213056,0.13167 -0.241292,0.0846 -0.124933,-0.20856 0.198813,-0.50091 0.206283,-2.45686 0.01074,-2.92398 -0.13099,-0.31363 -0.09755,-0.34092 0.221969,-0.18131 0.454348,0.22693 2.454182,0.20108 2.838889,-0.0367 0.212669,-0.13144 0.241766,-0.084 0.128048,0.20855 -0.281672,0.72457 -0.227358,0.77493 0.772327,0.71611 0.544039,-0.032 2.079684,-0.10386 3.412548,-0.15968 1.332874,-0.0558 2.423411,-0.18541 2.423411,-0.288 0,-0.10259 -0.400615,-0.18652 -0.890234,-0.18652 h -0.890234 v -0.79131 -0.791318 H 51.958937 64.81779 v 1.582628 1.58263 h -0.711501 -0.711471 l 0.132538,1.0386 c 0.07286,0.57123 0.124362,1.64633 0.114502,2.38911 -0.0097,0.74279 0.339615,4.13959 0.776778,7.54846 0.437163,3.40886 0.794853,6.24615 0.794853,6.3051 0,0.0589 -0.53415,0.25704 -1.186992,0.44023 -0.908329,0.25486 -1.186963,0.4198 -1.186963,0.70264 0,0.44894 -0.09707,0.44971 1.238306,-0.01 0.606337,-0.20862 1.154402,-0.32731 1.217947,-0.26378 0.06367,0.0636 0.11546,0.40748 0.11546,0.76432 0,0.61301 -0.06541,0.67268 -1.186963,1.0816 -0.83083,0.30293 -1.186982,0.53618 -1.186982,0.77739 0,0.31504 0.110321,0.30456 1.285885,-0.12216 1.172893,-0.42573 1.286127,-0.43661 1.288604,-0.12382 9.68e-4,0.18861 0.05361,0.53241 0.115576,0.76399 0.09898,0.36903 -0.06019,0.48898 -1.288604,0.97094 -0.770846,0.30244 -1.401577,0.61959 -1.401577,0.70479 0,0.36366 0.43665,0.35889 1.421762,-0.0155 0.57811,-0.21972 1.153114,-0.39955 1.277786,-0.3996 0.139747,-6e-5 0.280337,0.60584 0.366641,1.58072 0.07702,0.86945 0.153004,1.64679 0.168951,1.72741 0.01597,0.0806 -0.638627,0.43415 -1.454672,0.7856 -1.693138,0.7292 -1.730983,0.79403 -1.760738,3.01718 -0.01771,1.31492 -0.07664,1.5324 -0.551297,2.02775 -0.451832,0.47159 -0.689322,0.55484 -1.582643,0.55484 l -1.051028,-1e-5 v 0.89512 c 0,0.96379 -0.108173,1.06051 -1.533186,1.37042 -0.61253,0.13323 -0.642943,0.11203 -0.642943,-0.4482 0,-0.34531 -0.124942,-0.63598 -0.30267,-0.70418 -0.295906,-0.11355 -6.804031,2.84962 -9.786586,4.45584 -0.816045,0.43948 -3.086132,1.55386 -5.044638,2.47643 -1.958496,0.92255 -3.672197,1.82136 -3.808189,1.99733 -0.149415,0.1933 -0.247292,0.93144 -0.247292,1.86477 0,1.51592 -0.0097,1.54482 -0.494574,1.54482 -0.454271,0 -0.494573,0.0726 -0.494573,0.89023 0,0.75834 0.05864,0.89023 0.395661,0.89023 0.342895,0 0.39566,0.13188 0.39566,0.98914 v 0.98909 h -0.791321 c -0.731105,0 -0.791399,0.0414 -0.792415,0.54403 -9.68e-4,0.79099 -0.386033,2.07283 -0.741623,2.47285 -0.230474,0.25929 -0.615171,0.3462 -1.532296,0.3462 -1.534696,0 -1.827825,-0.28316 -2.132121,-2.0596 l -0.223274,-1.30348 h -7.850182 -7.850163 l -0.131416,1.05164 c -0.07238,0.5784 -0.303773,1.3351 -0.514458,1.68155 -0.365983,0.60179 -0.439205,0.62989 -1.641186,0.62989 -0.949115,0 -1.333735,-0.0851 -1.565893,-0.3462 z"
       style="fill:#000000;stroke-width:0.197829" />
    <path
       id="path297"
       d="m -54.869795,196.17658 v -15.2328 h 79.131447 79.131438 v 15.2328 15.23281 H 24.261652 -54.869795 Z"
       style="fill:#000000;stroke-width:0.197829" />
  </g>
</svg>
