<?xml version="1.0" encoding="UTF-8" standalone="no"?>
<svg
   xmlns:dc="http://purl.org/dc/elements/1.1/"
   xmlns:cc="http://creativecommons.org/ns#"
   xmlns:rdf="http://www.w3.org/1999/02/22-rdf-syntax-ns#"
   xmlns:svg="http://www.w3.org/2000/svg"
   xmlns="http://www.w3.org/2000/svg"
   xmlns:sodipodi="http://sodipodi.sourceforge.net/DTD/sodipodi-0.dtd"
   xmlns:inkscape="http://www.inkscape.org/namespaces/inkscape"
   sodipodi:docname="star liner-civilian 3.svg"
   id="svg8"
   version="1.1"
   viewBox="0 0 177.14485 177.14485"
   height="177.14485mm"
   width="177.14485mm"
   inkscape:version="1.0.1 (3bc2e813f5, 2020-09-07)"
   inkscape:export-filename="C:\GitHub\SN-Shipyard-Source\Vectors - Outlines Ships\star liner-civilian 4.png"
   inkscape:export-xdpi="96"
   inkscape:export-ydpi="96">
  <defs
     id="defs2" />
  <sodipodi:namedview
     id="base"
     pagecolor="#ffffff"
     bordercolor="#666666"
     borderopacity="1.0"
     inkscape:pageopacity="0.0"
     inkscape:pageshadow="2"
     inkscape:zoom="0.35"
     inkscape:cx="894.37095"
     inkscape:cy="723.44682"
     inkscape:document-units="mm"
     inkscape:current-layer="layer1"
     showgrid="false"
     inkscape:window-width="1858"
     inkscape:window-height="1057"
     inkscape:window-x="1974"
     inkscape:window-y="-8"
     inkscape:window-maximized="1"
     inkscape:document-rotation="0" />
  <metadata
     id="metadata5">
    <rdf:RDF>
      <cc:Work
         rdf:about="">
        <dc:format>image/svg+xml</dc:format>
        <dc:type
           rdf:resource="http://purl.org/dc/dcmitype/StillImage" />
        <dc:title />
      </cc:Work>
    </rdf:RDF>
  </metadata>
  <g
     inkscape:label="Layer 1"
     inkscape:groupmode="layer"
     id="layer1"
     transform="translate(504.84183,-269.03321)">
    <path
       style="fill:#000000;stroke-width:0.22143105"
       d="m -504.84183,357.60563 v -88.57242 h 15.38947 15.38945 v 88.57242 88.57243 h -15.38945 -15.38947 z"
       id="path833"
       inkscape:connector-curvature="0" />
    <path
       style="fill:#000000;stroke-width:0.22143105"
       d="m -358.47589,357.60563 v -88.57242 h 15.38946 15.38945 v 88.57242 88.57243 h -15.38945 -15.38946 z"
       id="path830"
       inkscape:connector-curvature="0" />
    <path
       style="fill:#000000;stroke-width:0.22143105"
       d="m -453.61539,435.27257 c -0.33373,-0.53793 -2.48534,-104.32154 -2.49895,-120.53646 l -0.013,-15.07992 0.49822,-0.73203 c 0.74488,-1.09447 1.56078,-1.59907 2.75139,-1.70167 1.3593,-0.11708 2.3586,0.38028 3.32311,1.65415 1.01076,1.33494 1.17473,2.15475 1.17613,5.87991 l 9.3e-4,3.28371 0.71964,-0.15578 c 0.39582,-0.0856 1.28936,-0.44215 1.98565,-0.79213 l 1.26595,-0.63634 0.0625,-2.49157 0.0624,-2.49159 h 0.77499 0.77502 l 0.0643,1.82681 c 0.0354,1.00475 0.11669,1.82681 0.18084,1.82681 0.4596,0 4.14887,-3.21571 6.76469,-5.89635 5.75474,-5.89737 12.78945,-15.79857 18.0328,-25.38078 0.71639,-1.30922 1.3535,-2.37946 1.4158,-2.37832 0.0622,9.3e-4 0.61151,0.91762 1.22045,2.03665 6.10364,11.21653 14.24883,22.26597 20.94015,28.40661 1.53737,1.41081 3.81593,3.21219 4.06315,3.21219 0.0612,0 0.14014,-0.82206 0.17552,-1.82681 l 0.0643,-1.82681 h 0.77502 0.775 l 0.0625,2.49159 0.0625,2.49157 1.26597,0.63634 c 0.69629,0.34998 1.58981,0.70645 1.98562,0.79213 l 0.71965,0.15578 9.3e-4,-3.28371 c 9.3e-4,-3.59616 0.15093,-4.40374 1.05543,-5.69822 0.9798,-1.40225 1.66592,-1.79265 3.15052,-1.79265 1.45253,0 2.18893,0.40111 3.04469,1.65848 l 0.49822,0.73203 -0.0131,15.07992 c -0.014,16.22978 -2.16472,120.00006 -2.49823,120.53646 -0.38178,0.61405 -2.53296,0.23919 -2.69333,-0.46931 -0.0588,-0.25947 -0.40381,-14.57138 -0.7667,-31.80425 -0.3629,-17.23288 -0.71727,-33.57449 -0.78749,-36.31471 -0.13653,-5.32797 -0.98894,-44.84991 -0.99052,-45.92503 l -6.3e-4,-0.64238 -2.15894,0.1335 c -6.90869,0.42722 -10.25142,2.63721 -11.24452,7.43414 -0.18081,0.87332 -0.39905,4.38018 -0.53918,8.66373 -0.56217,17.18418 -3.24373,41.35739 -6.66643,60.09532 -0.35663,1.95207 -0.64836,3.67758 -0.64836,3.83446 0,0.17835 0.29038,0.28523 0.77499,0.28523 0.73858,0 0.77502,-0.0365 0.77502,-0.77745 0,-0.55179 0.33063,-1.30691 1.13919,-2.6018 0.62655,-1.00342 1.2493,-1.89759 1.38394,-1.98707 0.13461,-0.0895 1.34085,-0.16269 2.68051,-0.16269 1.33965,0 2.54569,0.0732 2.6801,0.16269 0.13439,0.0895 0.75718,0.99264 1.38394,2.00703 l 1.1396,1.84433 v 3.25783 3.25782 l -0.99647,0.97794 c -0.86488,0.84884 -0.99642,1.09965 -0.99642,1.90006 0,0.8092 0.12203,1.03461 0.99642,1.84063 l 0.99647,0.91848 v 3.23418 3.23416 l -1.15055,1.87617 c -0.69004,1.12517 -1.36055,1.956 -1.67516,2.07561 -0.59989,0.22808 -3.42342,0.26715 -4.45119,0.0616 -0.57129,-0.11421 -0.89826,-0.46903 -1.90985,-2.07222 -0.68357,-1.08337 -1.22053,-2.1917 -1.22053,-2.51932 0,-0.51677 -0.0872,-0.58495 -0.74732,-0.58495 -1.16899,0 -2.13129,-0.25021 -2.13129,-0.55414 0,-0.40877 -0.47398,-0.73155 -1.19414,-0.81316 l -0.6353,-0.072 -0.9597,3.52408 c -0.52782,1.93824 -1.0678,3.63219 -1.19994,3.76433 -0.33232,0.33232 -10.73256,0.33232 -11.0649,0 -0.13213,-0.13214 -0.66137,-1.794 -1.17607,-3.69301 -0.51471,-1.89902 -0.99328,-3.51022 -1.06351,-3.58044 -0.23552,-0.23553 -1.50853,0.34968 -1.63629,0.75219 -0.13262,0.41787 -0.98172,0.67215 -2.24449,0.67215 -0.66022,0 -0.74732,0.0683 -0.74732,0.58495 0,0.32761 -0.53695,1.43595 -1.22054,2.51932 -1.01158,1.60319 -1.33855,1.95795 -1.90985,2.07222 -1.02776,0.20555 -3.85129,0.16647 -4.45118,-0.0616 -0.31461,-0.11956 -0.98513,-0.95043 -1.67515,-2.0756 l -1.15054,-1.87617 v -3.25167 -3.25166 l 0.99644,-0.90685 c 0.87432,-0.79571 0.99643,-1.01914 0.99643,-1.82313 0,-0.79346 -0.13356,-1.04736 -0.99643,-1.8942 l -0.99644,-0.97794 v -3.26802 -3.26804 l 1.15435,-1.83414 c 0.6349,-1.00878 1.25768,-1.90733 1.38395,-1.99681 0.12623,-0.0895 1.32566,-0.16269 2.66532,-0.16269 1.33966,0 2.54589,0.0732 2.68053,0.16269 0.13461,0.0895 0.75737,0.98364 1.38394,1.98707 0.80853,1.29489 1.13917,2.05001 1.13917,2.6018 0,0.74622 0.0322,0.77745 0.80398,0.77745 0.78558,0 0.80107,-0.0165 0.67649,-0.71967 -4.18394,-23.61853 -6.63899,-45.12946 -7.24675,-63.49535 -0.13988,-4.22674 -0.36261,-7.80199 -0.53978,-8.66372 -0.98095,-4.77178 -4.37193,-7.01755 -11.22673,-7.43517 -2.03586,-0.124 -2.17454,-0.10559 -2.17387,0.28847 0.006,2.96934 -2.46548,113.92373 -2.54426,114.26543 -0.16339,0.70866 -2.3141,1.08322 -2.69493,0.46931 z"
       id="path826"
       inkscape:connector-curvature="0" />
  </g>
</svg>
