<?xml version="1.0" encoding="UTF-8" standalone="no"?>
<!-- Created with Inkscape (http://www.inkscape.org/) -->

<svg
   xmlns:dc="http://purl.org/dc/elements/1.1/"
   xmlns:cc="http://creativecommons.org/ns#"
   xmlns:rdf="http://www.w3.org/1999/02/22-rdf-syntax-ns#"
   xmlns:svg="http://www.w3.org/2000/svg"
   xmlns="http://www.w3.org/2000/svg"
   xmlns:sodipodi="http://sodipodi.sourceforge.net/DTD/sodipodi-0.dtd"
   xmlns:inkscape="http://www.inkscape.org/namespaces/inkscape"
   inkscape:export-ydpi="96"
   inkscape:export-xdpi="96"
   inkscape:export-filename="D:\GitHub\wills-spaceships\Outlines Ships\enterprise-aur 4.png"
   inkscape:version="0.92.4 (5da689c313, 2019-01-14)"
   width="172.98729mm"
   height="172.98727mm"
   viewBox="0 0 172.98729 172.98727"
   version="1.1"
   id="svg8"
   sodipodi:docname="enterprise-aur 3.svg">
  <defs
     id="defs2" />
  <sodipodi:namedview
     id="base"
     pagecolor="#ffffff"
     bordercolor="#666666"
     borderopacity="1.0"
     inkscape:pageopacity="0.0"
     inkscape:pageshadow="2"
     inkscape:zoom="0.49497475"
     inkscape:cx="475.87085"
     inkscape:cy="221.88321"
     inkscape:document-units="mm"
     inkscape:current-layer="layer1"
     showgrid="false"
     inkscape:window-width="1920"
     inkscape:window-height="1017"
     inkscape:window-x="1912"
     inkscape:window-y="-8"
     inkscape:window-maximized="1" />
  <metadata
     id="metadata5">
    <rdf:RDF>
      <cc:Work
         rdf:about="">
        <dc:format>image/svg+xml</dc:format>
        <dc:type
           rdf:resource="http://purl.org/dc/dcmitype/StillImage" />
        <dc:title />
      </cc:Work>
    </rdf:RDF>
  </metadata>
  <g
     inkscape:label="Layer 1"
     inkscape:groupmode="layer"
     id="layer1"
     transform="translate(-598.49493,-91.302655)">
    <path
       inkscape:connector-curvature="0"
       style="fill:#000000;stroke-width:0.2162341"
       d="m 598.49493,255.31623 v -8.97373 h 86.49363 86.49366 v 8.97373 8.9737 h -86.49366 -86.49363 z"
       id="path1168" />
    <path
       inkscape:connector-curvature="0"
       style="fill:#000000;stroke-width:0.2162341"
       d="m 669.26965,131.52284 -0.94612,3.13518 -0.94647,3.13549 -32.11677,9.8e-4 -32.11678,9.8e-4 -0.48652,0.71459 c -0.38197,0.56108 -0.48654,1.01819 -0.48654,2.12729 0,1.13806 -0.0839,1.48889 -0.43235,1.8042 -0.41726,0.37763 -0.43236,0.66589 -0.43236,8.2168 0,7.5509 0.015,7.83914 0.43236,8.21677 0.34883,0.3157 0.43271,0.66721 0.43395,1.81751 9.8e-4,1.05599 0.11226,1.59435 0.42887,2.0747 l 0.42761,0.64871 30.31669,0.10836 30.31639,0.10797 0.15361,0.6487 c 0.0844,0.35679 0.21724,0.92912 0.29522,1.27175 0.0786,0.3456 0.63583,1.09149 1.25149,1.6756 l 1.10987,1.05287 h 1.72122 1.72152 l -0.13808,1.45956 c -0.0759,0.80279 -0.13876,5.85363 -0.13939,11.22403 l -9.8e-4,9.76442 -0.74531,-0.22869 c -0.70683,-0.21693 -0.75244,-0.29127 -0.88499,-1.4393 -0.30903,-2.67675 -1.04776,-4.79273 -1.81719,-5.20451 -1.87477,-1.00334 -3.03031,1.11325 -3.16211,5.7927 -0.0735,2.61364 -0.0874,2.67788 -0.73329,3.41362 -1.47132,1.67576 -2.60368,5.00413 -2.60368,7.65328 0,1.6068 0.60802,4.27123 1.27176,5.57226 0.23846,0.46742 0.77972,1.30296 1.2027,1.85711 0.72972,0.95601 0.76861,1.09321 0.76432,2.68159 -0.002,0.92067 -0.19525,3.37665 -0.42792,5.45791 -0.59758,5.34489 -0.78101,4.75724 1.48712,4.75724 h 1.9192 l 0.0975,1.1761 c 0.0536,0.64691 0.22353,1.32815 0.37759,1.51374 v 0 c 0.3538,0.42628 1.81459,0.44509 2.16086,0.028 0.14123,-0.17019 0.3127,-0.85111 0.38103,-1.51343 0.0978,-0.94678 0.2038,-1.20429 0.49635,-1.20429 0.28501,0 0.402,0.25171 0.49951,1.07505 0.19066,1.60974 0.44361,1.95214 1.44185,1.95214 0.9503,0 1.51647,-0.5608 1.52135,-1.50774 0.004,-0.72836 0.22484,-1.51945 0.42445,-1.51945 0.0885,0 0.21822,0.48381 0.28824,1.07505 0.19119,1.61441 0.44252,1.95214 1.45229,1.95214 0.6119,0 0.93018,-0.11898 1.11718,-0.41842 0.25858,-0.41407 0.26462,-0.41407 0.55461,0 0.3765,0.53743 1.81435,0.57637 2.24228,0.0609 0.16322,-0.19666 0.34566,-0.89241 0.40511,-1.54638 l 0.10797,-1.18907 1.18907,-0.38677 c 0.81422,-0.26473 1.44758,-0.66343 2.00819,-1.26446 0.80179,-0.85951 0.84903,-0.8777 2.28567,-0.8777 1.44054,0 1.48548,0.0171 2.46589,0.9566 0.65785,0.63034 1.35352,1.05687 2.03891,1.24986 l 1.04021,0.293 0.10797,1.20365 c 0.0595,0.66211 0.24158,1.36461 0.40479,1.56127 0.43079,0.51906 1.89425,0.47922 2.2315,-0.0609 0.25857,-0.41407 0.26493,-0.41407 0.55495,0 0.20495,0.29259 0.54744,0.41842 1.13808,0.41842 0.99824,0 1.25118,-0.3424 1.44186,-1.95214 0.07,-0.59124 0.19973,-1.07505 0.28822,-1.07505 0.19959,0 0.4211,0.79109 0.42478,1.51945 0.005,0.94694 0.57102,1.50774 1.52132,1.50774 0.99827,0 1.2512,-0.3424 1.44186,-1.95214 0.0975,-0.82334 0.2142,-1.07505 0.4992,-1.07505 0.29255,0 0.39895,0.25751 0.49666,1.20429 0.15402,1.49226 0.41698,1.8229 1.44975,1.8229 1.04288,0 1.34808,-0.38434 1.46971,-1.85108 l 0.0977,-1.17611 h 1.91918 c 2.26814,0 2.08439,0.58766 1.48683,-4.75724 -0.2327,-2.08127 -0.42515,-4.53722 -0.42763,-5.4579 -0.004,-1.58841 0.0346,-1.7256 0.76433,-2.68161 0.42297,-0.55412 0.96424,-1.38969 1.20268,-1.85711 0.66373,-1.30101 1.27175,-3.96544 1.27175,-5.57223 0,-2.64916 -1.13232,-5.97755 -2.60369,-7.6533 -0.64595,-0.73574 -0.65996,-0.79997 -0.73358,-3.41361 -0.11125,-3.95222 -0.90362,-6.01537 -2.31036,-6.01537 -1.31144,0 -2.05006,1.41102 -2.59196,4.95078 -0.25405,1.6596 -0.27783,1.70568 -0.98382,1.92236 l -0.72345,0.22204 -9.9e-4,-9.76444 c -9.8e-4,-5.37039 -0.0635,-10.42124 -0.13935,-11.22401 l -0.1378,-1.45957 h 1.78077 1.78106 l 1.04877,-1.02692 c 0.8788,-0.86057 1.09553,-1.23756 1.33668,-2.32461 l 0.28794,-1.29741 30.32524,-0.10796 30.32524,-0.10835 0.4276,-0.64871 c 0.31663,-0.48037 0.42797,-1.01871 0.42922,-2.07472 9.7e-4,-1.15029 0.0848,-1.50179 0.43361,-1.8175 0.41726,-0.37763 0.43269,-0.66588 0.43269,-8.21678 0,-7.5509 -0.0154,-7.83915 -0.43269,-8.21679 -0.34839,-0.31531 -0.43236,-0.66613 -0.43236,-1.80419 0,-1.10912 -0.10453,-1.56621 -0.48652,-2.12731 l -0.48653,-0.71459 -32.11679,-9.8e-4 -32.11646,-9.8e-4 -0.94644,-3.13549 -0.94644,-3.13518 h -15.71835 z m 35.26971,54.37631 c 0.0497,0.006 0.10507,0.0837 0.18182,0.22078 0.12695,0.22686 0.27673,1.366 0.3329,2.53147 0.0562,1.16547 0.0161,2.11131 -0.0889,2.10194 -0.10508,-0.009 -0.45838,-0.11468 -0.78522,-0.23408 -0.45251,-0.16528 -0.57183,-0.32892 -0.50016,-0.68576 0.0517,-0.25774 0.1528,-0.90667 0.22458,-1.44184 0.0719,-0.5352 0.23292,-1.35799 0.35822,-1.8286 0.12643,-0.47452 0.19395,-0.67189 0.27686,-0.66391 z m -39.13213,0.066 c 0.0821,9.8e-4 0.15654,0.19233 0.28379,0.6297 0.13185,0.45318 0.3032,1.31059 0.38073,1.90524 0.0776,0.59464 0.18455,1.2407 0.23788,1.43583 0.0675,0.24625 -0.11353,0.42805 -0.59105,0.59454 -0.37842,0.13191 -0.73521,0.2401 -0.79283,0.2401 -0.1909,0 0.0951,-4.23083 0.31233,-4.61884 0.0678,-0.12124 0.11985,-0.18785 0.16915,-0.18657 z m 3.09938,6.31884 c 0.43264,0 1.12921,0.72492 1.12921,1.17512 0,0.27601 0.14595,0.62293 0.32435,0.77099 0.1784,0.14803 0.32436,0.3546 0.32436,0.45896 0,0.10433 -0.43789,0.18972 -0.97305,0.18972 h -0.97306 v -1.29739 c 0,-0.71357 0.0758,-1.2974 0.16819,-1.2974 z m 32.96377,0 c 0.0925,0 0.1682,0.58383 0.1682,1.2974 v 1.29739 h -0.97306 c -1.01168,0 -1.20154,-0.18987 -0.6487,-0.64868 0.17839,-0.14806 0.32433,-0.49498 0.32433,-0.77099 0,-0.4502 0.69655,-1.17512 1.12923,-1.17512 z m -35.21872,0.069 c 0.0414,-4.8e-4 0.0713,0.006 0.086,0.0204 0.2696,0.26963 0.30839,2.14004 0.0543,2.61508 -0.46869,0.87573 -0.79992,0.80682 -1.05859,-0.22046 -0.37666,-1.49587 -0.30989,-1.94928 0.33036,-2.24099 0.23451,-0.1068 0.46376,-0.17229 0.58822,-0.1739 z m 37.46698,0.007 c 0.1284,-0.002 0.36035,0.0604 0.59488,0.16724 0.44245,0.2016 0.56501,0.40721 0.55209,0.92714 -0.009,0.36742 -0.13278,1.05282 -0.27462,1.52324 l -0.25784,0.85555 -0.50111,-0.5312 c -0.42497,-0.45033 -0.48738,-0.70319 -0.41049,-1.66578 0.0499,-0.62425 0.1431,-1.18743 0.20714,-1.25148 0.0161,-0.0161 0.0471,-0.0239 0.0898,-0.0247 z m -40.29017,2.30498 c 0.0956,-0.0189 0.153,0.0992 0.153,0.39658 0,0.21925 0.19451,0.9643 0.43237,1.65566 0.52991,1.54023 0.53031,1.561 0.0235,1.10227 -0.32052,-0.29006 -0.56609,-0.32926 -1.13525,-0.18213 l -0.72629,0.18752 -0.11719,3.12219 c -0.0646,1.71717 -0.13815,3.0248 -0.16374,2.90586 -0.38881,-1.8033 -0.46591,-3.15432 -0.26355,-4.60933 0.25538,-1.83604 1.38327,-4.49622 1.79723,-4.57862 z m 43.12034,3.2e-4 c 0.41395,0.0826 1.54176,2.74149 1.79692,4.57609 0.16271,1.16964 0.16049,2.06914 -0.008,3.12125 -0.12986,0.81288 -0.27667,1.51833 -0.32624,1.56792 -0.0498,0.0496 -0.11734,-1.30376 -0.15045,-3.00755 l -0.0602,-3.09782 -0.72631,-0.18781 c -0.5693,-0.14732 -0.81462,-0.10797 -1.13524,0.18212 -0.50687,0.45872 -0.50647,0.43795 0.0236,-1.10228 0.23786,-0.69136 0.43267,-1.43641 0.43267,-1.65566 0,-0.29715 0.0575,-0.41529 0.15299,-0.39626 z"
       id="path1166" />
    <path
       inkscape:connector-curvature="0"
       style="fill:#000000;stroke-width:0.2162341"
       d="m 598.49493,100.27637 v -8.973715 h 86.49363 86.49366 v 8.973715 8.97371 h -86.49366 -86.49363 z"
       id="path1146" />
  </g>
</svg>
