<?xml version="1.0" encoding="UTF-8" standalone="no"?>
<!-- Created with Inkscape (http://www.inkscape.org/) -->

<svg
   xmlns:dc="http://purl.org/dc/elements/1.1/"
   xmlns:cc="http://creativecommons.org/ns#"
   xmlns:rdf="http://www.w3.org/1999/02/22-rdf-syntax-ns#"
   xmlns:svg="http://www.w3.org/2000/svg"
   xmlns="http://www.w3.org/2000/svg"
   xmlns:sodipodi="http://sodipodi.sourceforge.net/DTD/sodipodi-0.dtd"
   xmlns:inkscape="http://www.inkscape.org/namespaces/inkscape"
   inkscape:export-ydpi="96"
   inkscape:export-xdpi="96"
   inkscape:export-filename="D:\GitHub\Novalike-Art-Pack-Source\Outlines Ships\escape pod 4.png"
   inkscape:version="0.92.4 (5da689c313, 2019-01-14)"
   width="46.154011mm"
   height="46.154018mm"
   viewBox="0 0 46.154011 46.154017"
   version="1.1"
   id="svg8"
   sodipodi:docname="escape pod 3.svg">
  <defs
     id="defs2" />
  <sodipodi:namedview
     id="base"
     pagecolor="#ffffff"
     bordercolor="#666666"
     borderopacity="1.0"
     inkscape:pageopacity="0.0"
     inkscape:pageshadow="2"
     inkscape:zoom="0.24748738"
     inkscape:cx="105.55548"
     inkscape:cy="-325.56127"
     inkscape:document-units="mm"
     inkscape:current-layer="layer1"
     showgrid="false"
     inkscape:window-width="1920"
     inkscape:window-height="1017"
     inkscape:window-x="1912"
     inkscape:window-y="-8"
     inkscape:window-maximized="1" />
  <metadata
     id="metadata5">
    <rdf:RDF>
      <cc:Work
         rdf:about="">
        <dc:format>image/svg+xml</dc:format>
        <dc:type
           rdf:resource="http://purl.org/dc/dcmitype/StillImage" />
        <dc:title />
      </cc:Work>
    </rdf:RDF>
  </metadata>
  <g
     inkscape:label="Layer 1"
     inkscape:groupmode="layer"
     id="layer1"
     transform="translate(-297.50026,-64.869552)">
    <path
       style="fill:#000000;stroke-width:0.05769251"
       d="M 297.50026,87.946555 V 64.869552 h 3.46155 3.46155 v 23.077003 23.077015 h -3.46155 -3.46155 z"
       id="path840"
       inkscape:connector-curvature="0" />
    <path
       style="fill:#000000;stroke-width:0.05769251"
       d="M 336.73117,87.946555 V 64.869552 h 3.46155 3.46155 v 23.077003 23.077015 h -3.46155 -3.46155 z"
       id="path838"
       inkscape:connector-curvature="0" />
    <path
       style="fill:#000000;stroke-width:0.05769251"
       d="m 320.57731,66.676486 c -0.29257,0 -0.58514,0.01968 -1.06002,0.05907 -0.99121,0.08225 -1.13204,0.109196 -2.17014,0.415624 -1.00575,0.296882 -1.20586,0.378824 -2.12756,0.871135 -0.8823,0.471266 -1.13584,0.641068 -1.91028,1.279065 -0.74794,0.61619 -1.0083,0.875853 -1.60323,1.599023 -0.60604,0.736657 -0.78967,1.011581 -1.25101,1.873007 -0.4818,0.899593 -0.57648,1.12835 -0.86862,2.098987 -0.26227,0.871488 -0.34151,1.231412 -0.39626,1.799822 -0.0377,0.390776 -0.0806,0.720926 -0.0956,0.73355 -0.015,0.01261 -0.40998,0.228108 -0.87799,0.478919 l -0.85084,0.456019 -9e-5,1.860586 -1e-4,1.860582 h 0.40388 0.40387 v 0.173078 c 0,0.169233 0.006,0.173078 0.28844,0.173078 h 0.28844 v 3.137877 3.137787 l -0.28844,1.276362 -0.28844,1.276447 v 3.20633 3.206329 l 0.39561,0.433627 0.39569,0.433531 -0.22262,0.721308 c -0.12239,0.396699 -0.22251,0.756408 -0.22251,0.799301 0,0.0429 0.14098,0.52538 0.31337,1.07219 l 0.31344,0.99417 -0.22682,0.27103 -0.22691,0.27102 v 0.83472 0.83472 l 0.35461,0.0371 c 0.19503,0.0204 0.77916,0.037 1.29809,0.037 h 0.94346 l 8.7e-4,0.50488 c 5.5e-4,0.27765 0.0262,0.89419 0.0566,1.37016 0.13918,2.17407 0.47172,3.1715 1.12494,3.37409 0.0951,0.0295 0.64251,0.0483 1.21618,0.0418 1.04008,-0.0119 1.04364,-0.0125 1.25033,-0.17012 0.28833,-0.22002 0.48214,-0.65338 0.70794,-1.58297 0.23634,-0.97291 0.30883,-1.51517 0.35553,-2.65792 l 0.036,-0.87986 h 0.88525 0.88532 v 2.47228 2.47218 l 0.47597,0.0371 c 0.26178,0.0204 1.29375,0.037 2.29329,0.037 0.99953,0 2.03148,-0.0166 2.29327,-0.037 l 0.47596,-0.0371 v -2.47218 -2.47228 h 0.88517 0.88525 l 0.0378,0.90867 c 0.0449,1.0742 0.14721,1.81111 0.38267,2.75234 0.20789,0.83106 0.40201,1.24827 0.6792,1.45974 l 0.20731,0.15813 h 1.1337 c 1.11461,0 1.13724,-0.003 1.34448,-0.14418 0.50989,-0.34888 0.78228,-1.32899 0.90587,-3.25966 0.0304,-0.47597 0.0558,-1.09251 0.0565,-1.37016 l 8.7e-4,-0.50488 h 0.94347 c 0.5189,0 1.10297,-0.0166 1.29801,-0.037 l 0.35466,-0.0371 v -0.83472 -0.83471 l -0.22801,-0.2723 -0.22792,-0.2723 0.31347,-0.97609 c 0.1724,-0.53687 0.31381,-1.01878 0.31445,-1.07092 5.4e-4,-0.052 -0.0998,-0.422048 -0.22327,-0.821946 l -0.22439,-0.727048 0.39586,-0.418496 0.39577,-0.418494 8.6e-4,-3.21563 8.6e-4,-3.215626 -0.28843,-1.276444 -0.28853,-1.276363 V 85.545966 82.40809 h 0.28853 c 0.28205,0 0.28843,-0.0038 0.28843,-0.173079 v -0.173048 h 0.40387 0.40379 v -1.860588 -1.860587 l -0.84982,-0.458383 c -0.46802,-0.252117 -0.86608,-0.480243 -0.88457,-0.506977 -0.0183,-0.02672 -0.0626,-0.365666 -0.0977,-0.753161 -0.0525,-0.576615 -0.12325,-0.89832 -0.39027,-1.771845 -0.28554,-0.93407 -0.39369,-1.193351 -0.86641,-2.07693 -0.46141,-0.862498 -0.64363,-1.135435 -1.25041,-1.873007 -0.59374,-0.721722 -0.8568,-0.984276 -1.60325,-1.600121 -0.78211,-0.645265 -1.02029,-0.804345 -1.91839,-1.281433 -0.92399,-0.490848 -1.13432,-0.576878 -2.12745,-0.870036 -1.0292,-0.303798 -1.17227,-0.331135 -2.16212,-0.413258 -0.47487,-0.03941 -0.76745,-0.05907 -1.06002,-0.05907 z m -9.05775,17.808476 h 2.30764 2.30773 v 1.605786 1.605701 l -0.24517,0.194117 c -1.90087,1.50468 -3.2372,4.236639 -3.43601,7.024603 -0.0398,0.557073 -0.041,0.560409 -0.1986,0.578556 l -0.15872,0.01821 v -2.229563 -2.229556 l -0.28844,-1.271461 -0.28843,-1.271541 v -2.012451 z m 13.50006,0 h 2.30763 2.30772 v 2.012451 2.012451 l -0.28843,1.271543 -0.28851,1.271458 v 2.225673 2.225747 h -0.14604 c -0.17753,0 -0.18224,-0.01409 -0.22288,-0.663487 -0.0987,-1.579539 -0.65698,-3.331863 -1.50695,-4.730815 -0.51202,-0.842676 -1.29828,-1.748826 -1.9462,-2.242911 l -0.21634,-0.164961 v -1.608574 z m 0.074,6.863526 c 0.0562,-0.01408 0.15469,0.221449 0.32705,0.595202 0.40288,0.873614 0.64969,1.891135 0.72723,2.998094 l 0.0393,0.562501 h -0.58371 -0.58379 v -2.147491 c 0,-1.434214 -0.009,-1.987775 0.0739,-2.008306 z m -9.03281,5.49e-4 c 0.0827,0.01908 0.0744,0.572704 0.0744,2.007805 v 2.147495 h -0.58381 -0.58378 l 0.0394,-0.562502 c 0.0782,-1.116799 0.32079,-2.119348 0.72418,-2.992433 0.17381,-0.376249 0.27308,-0.613427 0.32966,-0.600365 z"
       id="path836"
       inkscape:connector-curvature="0" />
  </g>
</svg>
