<?xml version="1.0" encoding="UTF-8" standalone="no"?>
<svg
   xmlns:dc="http://purl.org/dc/elements/1.1/"
   xmlns:cc="http://creativecommons.org/ns#"
   xmlns:rdf="http://www.w3.org/1999/02/22-rdf-syntax-ns#"
   xmlns:svg="http://www.w3.org/2000/svg"
   xmlns="http://www.w3.org/2000/svg"
   xmlns:sodipodi="http://sodipodi.sourceforge.net/DTD/sodipodi-0.dtd"
   xmlns:inkscape="http://www.inkscape.org/namespaces/inkscape"
   inkscape:export-ydpi="96"
   inkscape:export-xdpi="96"
   inkscape:export-filename="C:\GitHub\SN-Shipyard-Source\Vectors - Outlines Ships\firebird-aurora 4.png"
   inkscape:version="1.0.1 (3bc2e813f5, 2020-09-07)"
   width="55.665138mm"
   height="55.665138mm"
   viewBox="0 0 55.665138 55.665137"
   version="1.1"
   id="svg8"
   sodipodi:docname="firebird-aurora 3.svg">
  <defs
     id="defs2" />
  <sodipodi:namedview
     inkscape:document-rotation="0"
     inkscape:window-maximized="1"
     inkscape:window-y="-8"
     inkscape:window-x="1974"
     inkscape:window-height="1057"
     inkscape:window-width="1858"
     showgrid="false"
     inkscape:current-layer="layer1"
     inkscape:document-units="mm"
     inkscape:cy="144.36706"
     inkscape:cx="73.376661"
     inkscape:zoom="0.70000002"
     inkscape:pageshadow="2"
     inkscape:pageopacity="0.0"
     borderopacity="1.0"
     bordercolor="#666666"
     pagecolor="#ffffff"
     id="base" />
  <metadata
     id="metadata5">
    <rdf:RDF>
      <cc:Work
         rdf:about="">
        <dc:format>image/svg+xml</dc:format>
        <dc:type
           rdf:resource="http://purl.org/dc/dcmitype/StillImage" />
        <dc:title />
      </cc:Work>
    </rdf:RDF>
  </metadata>
  <g
     transform="translate(-439.55704,166.88321)"
     id="layer1"
     inkscape:groupmode="layer"
     inkscape:label="Layer 1">
    <path
       style="fill:#000000;stroke-width:0.0695815"
       d="m 439.55704,-139.05065 v -27.83256 h 2.2266 2.22661 v 27.83256 27.83258 h -2.22661 -2.2266 z"
       id="path24" />
    <path
       style="fill:#000000;stroke-width:0.0695815"
       d="m 452.11649,-118.41059 c -0.3827,-0.2038 -1.79173,-1.02713 -3.13117,-1.82964 -2.30457,-1.38076 -2.44924,-1.47941 -2.69416,-1.83717 l -0.25881,-0.37808 -0.002,-5.15429 -0.002,-5.1543 -0.17395,-0.16342 c -0.17214,-0.16173 -0.17394,-0.1755 -0.17394,-1.33172 0,-1.08386 0.01,-1.17351 0.13459,-1.24034 0.25803,-0.13809 0.78275,-0.0824 1.23401,0.13115 0.81105,0.3837 6.4755,3.82515 6.66325,4.04827 0.3724,0.44258 0.3925,0.53525 0.37186,1.71513 l -0.0192,1.09594 -0.19511,0.0223 c -0.18306,0.0211 -0.1938,0.0403 -0.17394,0.31312 l 0.0211,0.29074 0.57405,0.0202 0.57404,0.0203 v -0.31592 c 0,-0.25784 -0.0229,-0.31593 -0.12524,-0.31593 -0.25924,0 -0.29226,-0.13362 -0.29159,-1.1794 5.9e-4,-0.99548 0.004,-1.01845 0.20791,-1.3738 0.11833,-0.20631 0.33453,-0.44867 0.50382,-0.56478 0.5893,-0.40418 6.06991,-3.65362 6.43361,-3.81447 0.40753,-0.18022 1.04724,-0.22397 1.18986,-0.0813 0.0585,0.0586 0.0835,0.442 0.0835,1.27926 v 1.19575 l -0.17395,0.11398 c -0.16149,0.10581 -0.17395,0.15377 -0.17395,0.66903 v 0.55505 h 0.38269 0.3827 l -0.004,-2.00047 c -0.006,-2.71336 -0.0645,-3.52719 -0.28181,-3.92157 l -0.16831,-0.30549 -0.60769,-0.0201 -0.60769,-0.02 v -1.04102 c 0,-0.57255 -0.0122,-1.04101 -0.0271,-1.04101 -0.015,0 -0.46108,0.2661 -0.99153,0.59132 l -0.96445,0.59132 -0.99806,1.4e-4 c -0.93957,1.4e-4 -1.00018,-0.008 -1.03443,-0.13904 -0.027,-0.10327 -0.0949,-0.13916 -0.2633,-0.13916 -0.12479,0 -0.26635,-0.0476 -0.31459,-0.10567 -0.0659,-0.0793 -0.0964,-0.78585 -0.12271,-2.83904 -0.0368,-2.8731 -0.0223,-3.03931 0.2654,-3.03931 0.11932,0 0.13671,-0.0487 0.13671,-0.3827 0,-0.21048 0.0313,-0.38269 0.0695,-0.38269 0.0454,0 0.0695,-1.1017 0.0695,-3.16596 v -3.16596 h 0.17395 c 0.12757,0 0.17396,0.0371 0.17396,0.13917 0,0.10205 0.0464,0.13917 0.17396,0.13917 0.12756,0 0.17395,-0.0371 0.17395,-0.13917 0,-0.10206 0.0464,-0.13917 0.17395,-0.13917 0.12756,0 0.17396,0.0371 0.17396,0.13917 0,0.18576 0.2499,0.18576 0.29849,0 0.0246,-0.0941 0.0949,-0.13917 0.21686,-0.13917 h 0.18046 v 3.16596 c 0,2.06426 0.0241,3.16596 0.0695,3.16596 0.0383,0 0.0695,0.17221 0.0695,0.38269 0,0.21049 0.0285,0.3827 0.0635,0.3827 0.0349,0 0.49679,0.27004 1.02632,0.60006 0.52953,0.33003 1.00193,0.61519 1.04976,0.63367 0.12709,0.0492 0.10634,-0.24206 -0.0824,-1.15652 l -0.16359,-0.79255 0.16581,-0.48752 c 0.1478,-0.4345 0.15413,-0.49608 0.0582,-0.56622 -0.0591,-0.0433 -0.13644,-0.20692 -0.17165,-0.36366 -0.0548,-0.24352 -0.0296,-0.38712 0.17252,-0.98736 0.22191,-0.65896 0.3207,-0.82226 1.59675,-2.63944 1.32138,-1.8817 1.36821,-1.9602 1.64052,-2.74994 l 0.28031,-0.81293 v -2.57526 -2.57526 h 0.38922 c 0.33069,0 0.39468,0.0209 0.4256,0.13916 0.0506,0.19368 0.36807,0.19368 0.36807,0 0,-0.12229 0.0464,-0.13916 0.3827,-0.13916 h 0.38269 v 2.05265 2.05265 h 0.48708 0.48707 v -2.05265 -2.05265 h 0.38269 c 0.33632,0 0.3827,0.0169 0.3827,0.13916 0,0.10205 0.0464,0.13916 0.17396,0.13916 0.12756,0 0.17394,-0.0371 0.17394,-0.13916 0,-0.12229 0.0464,-0.13916 0.3827,-0.13916 h 0.3827 v 2.6052 c 0,1.51203 0.0268,2.6218 0.0641,2.64479 0.0352,0.0217 0.17741,0.37975 0.31595,0.79554 0.24303,0.72935 0.29988,0.82416 1.6162,2.69558 1.2719,1.80824 1.38,1.98619 1.59591,2.62688 0.19747,0.58599 0.22216,0.72923 0.16756,0.9722 -0.0351,0.15674 -0.11228,0.32026 -0.17127,0.36339 -0.0955,0.0698 -0.0897,0.13064 0.0535,0.55477 l 0.16067,0.47633 -0.19724,0.97573 c -0.10849,0.53666 -0.18909,1.00021 -0.17911,1.03011 0.0188,0.0566 1.69691,-0.95082 1.91983,-1.15254 0.0699,-0.0634 0.17946,-0.11505 0.24341,-0.11505 0.0946,0 0.11628,-0.0714 0.11628,-0.3827 0,-0.21048 0.0313,-0.38269 0.0695,-0.38269 0.0454,0 0.0695,-1.1017 0.0695,-3.16596 v -3.16596 h 0.18047 c 0.12194,0 0.19227,0.0451 0.21686,0.13917 0.0486,0.18576 0.29848,0.18576 0.29848,0 0,-0.10206 0.0464,-0.13917 0.17395,-0.13917 0.12758,0 0.17396,0.0371 0.17396,0.13917 0,0.18576 0.24992,0.18576 0.29849,0 0.0246,-0.0941 0.0949,-0.13917 0.21685,-0.13917 h 0.18046 v 3.16596 c 0,2.06426 0.0241,3.16596 0.0695,3.16596 0.0382,0 0.0695,0.16479 0.0695,0.3662 0,0.31302 0.0227,0.37617 0.15655,0.43488 l 0.15656,0.0687 0.0182,2.84477 c 0.0131,2.04217 -0.004,2.87157 -0.0608,2.93981 -0.0434,0.0523 -0.18099,0.0951 -0.30579,0.0951 -0.16838,0 -0.23629,0.0358 -0.26329,0.13915 -0.0342,0.13102 -0.0949,0.13918 -1.03546,0.13918 h -0.99907 l -0.95793,-0.59145 c -0.52685,-0.3253 -0.97259,-0.59144 -0.99051,-0.59144 -0.018,0 -0.0326,0.46968 -0.0326,1.04371 v 1.04373 h -0.60896 -0.60896 l -0.17064,0.32167 c -0.21842,0.41173 -0.26994,1.13934 -0.27654,3.9054 l -0.005,2.03526 h 0.38271 0.38269 v -0.53949 c 0,-0.50925 -0.0117,-0.55052 -0.20874,-0.7365 l -0.20875,-0.19702 v -1.10243 c 0,-1.29459 0.0119,-1.32112 0.58993,-1.32112 0.53411,0 0.84275,0.16027 4.31557,2.24117 2.86915,1.71918 3.07586,1.85618 3.28887,2.17982 l 0.2273,0.34534 -0.0186,1.14809 c -0.0183,1.13123 -0.0208,1.14842 -0.1751,1.17032 -0.13547,0.0193 -0.15657,0.0639 -0.15657,0.33052 v 0.30828 h 0.55665 0.55665 v -0.30828 c 0,-0.26672 -0.0211,-0.31127 -0.15655,-0.33052 -0.15391,-0.0219 -0.15689,-0.0409 -0.17577,-1.12633 -0.0187,-1.06997 -0.0138,-1.1133 0.1552,-1.40169 0.096,-0.16368 0.27407,-0.38145 0.39588,-0.48396 0.28641,-0.241 5.91569,-3.60068 6.48188,-3.86853 0.45345,-0.21452 0.97766,-0.27057 1.23622,-0.1322 0.12486,0.0668 0.13459,0.15647 0.13459,1.24034 0,1.15622 -0.002,1.16999 -0.17396,1.33172 l -0.17395,0.16342 -6e-4,5.1195 -5.9e-4,5.1195 -0.2059,0.35901 c -0.11324,0.19745 -0.29299,0.41989 -0.39943,0.4943 -0.40975,0.28644 -5.22905,3.1433 -5.70613,3.38257 -0.55558,0.27862 -0.99226,0.32862 -1.25611,0.1438 -0.14309,-0.10016 -0.15471,-0.16294 -0.15471,-0.83497 v -0.72667 h -0.55665 -0.55666 v 0.76296 c 0,0.68308 -0.0141,0.77049 -0.13458,0.83498 -0.24871,0.1331 -0.71697,0.0806 -1.16325,-0.1306 -0.64696,-0.30606 -5.74291,-3.37837 -5.91392,-3.56544 -0.4036,-0.44154 -0.44165,-0.58291 -0.44193,-1.64189 l -2e-4,-0.99154 h -0.37971 -0.37971 l -0.22144,0.71321 c -0.12179,0.39227 -0.38478,1.24296 -0.58442,1.89044 l -0.36298,1.17724 -0.80654,0.91021 c -0.44358,0.50061 -0.8885,0.99716 -0.9887,1.10343 l -0.18218,0.19324 -0.98448,-0.0194 -0.98448,-0.0194 -0.98038,-1.09642 -0.98039,-1.09641 -0.33195,-1.0954 c -0.18258,-0.60247 -0.44211,-1.44765 -0.57675,-1.87819 l -0.2448,-0.78279 h -0.37625 -0.37624 v 0.98332 c 0,1.04879 -0.0383,1.19071 -0.44614,1.65074 -0.16106,0.1817 -5.25952,3.25519 -5.92055,3.56908 -0.43584,0.20695 -0.90578,0.25846 -1.15267,0.12633 -0.12055,-0.0645 -0.13459,-0.15193 -0.13459,-0.8378 v -0.76576 l -0.57405,0.0203 -0.57404,0.0203 -0.0191,0.7306 c -0.0218,0.84173 -0.062,0.90545 -0.56832,0.90307 -0.24802,-8.6e-4 -0.46902,-0.0824 -1.01303,-0.37204 z"
       id="path30" />
    <path
       style="fill:#000000;stroke-width:0.0695815"
       d="m 490.76896,-139.05065 v -27.83256 h 2.2266 2.22662 v 27.83256 27.83258 h -2.22662 -2.2266 z"
       id="path28" />
  </g>
</svg>
