<?xml version="1.0" encoding="UTF-8" standalone="no"?>
<!-- Created with Inkscape (http://www.inkscape.org/) -->

<svg
   xmlns:dc="http://purl.org/dc/elements/1.1/"
   xmlns:cc="http://creativecommons.org/ns#"
   xmlns:rdf="http://www.w3.org/1999/02/22-rdf-syntax-ns#"
   xmlns:svg="http://www.w3.org/2000/svg"
   xmlns="http://www.w3.org/2000/svg"
   xmlns:sodipodi="http://sodipodi.sourceforge.net/DTD/sodipodi-0.dtd"
   xmlns:inkscape="http://www.inkscape.org/namespaces/inkscape"
   sodipodi:docname="cruiser-aur 3.svg"
   id="svg8"
   version="1.1"
   viewBox="0 0 205.56463 205.56463"
   height="205.56464mm"
   width="205.56464mm"
   inkscape:version="0.92.4 (5da689c313, 2019-01-14)"
   inkscape:export-filename="D:\GitHub\wills-spaceships\Outlines Ships\cruiser-aur 4.png"
   inkscape:export-xdpi="96"
   inkscape:export-ydpi="96">
  <defs
     id="defs2" />
  <sodipodi:namedview
     id="base"
     pagecolor="#ffffff"
     bordercolor="#666666"
     borderopacity="1.0"
     inkscape:pageopacity="0.0"
     inkscape:pageshadow="2"
     inkscape:zoom="0.7"
     inkscape:cx="440.65603"
     inkscape:cy="509.26973"
     inkscape:document-units="mm"
     inkscape:current-layer="layer1"
     showgrid="false"
     inkscape:window-width="1920"
     inkscape:window-height="1017"
     inkscape:window-x="1912"
     inkscape:window-y="-8"
     inkscape:window-maximized="1" />
  <metadata
     id="metadata5">
    <rdf:RDF>
      <cc:Work
         rdf:about="">
        <dc:format>image/svg+xml</dc:format>
        <dc:type
           rdf:resource="http://purl.org/dc/dcmitype/StillImage" />
        <dc:title />
      </cc:Work>
    </rdf:RDF>
  </metadata>
  <g
     inkscape:label="Layer 1"
     inkscape:groupmode="layer"
     id="layer1"
     transform="translate(-451.8071,-123.14548)">
    <path
       style="fill:#000000;stroke-width:0.25695577"
       d="M 451.8071,225.9278 V 123.14548 h 24.15383 24.15385 V 225.9278 328.71012 H 475.96093 451.8071 Z"
       id="path836"
       inkscape:connector-curvature="0" />
    <path
       style="fill:#000000;stroke-width:0.25695577"
       d="M 609.06406,225.9278 V 123.14548 h 24.15383 24.15385 V 225.9278 328.71012 h -24.15385 -24.15383 z"
       id="path834"
       inkscape:connector-curvature="0" />
    <path
       style="fill:#000000;stroke-width:0.25695577"
       d="m 545.0821,134.19439 v 17.04716 17.04681 l -0.97527,0.29206 c -1.42345,0.42649 -3.00163,1.90546 -3.82686,3.58597 l -0.72229,1.47098 -0.0786,9.57146 -0.0786,9.57148 h -4.95606 -4.95606 l -0.45844,-2.18387 -0.45848,-2.18426 h -2.49704 -2.49741 l -0.42495,1.9347 c -0.36774,1.67375 -0.42496,3.90253 -0.42496,16.53865 0,14.21545 -0.0135,14.62219 -0.51378,15.25813 -0.45178,0.57432 -0.51416,1.04231 -0.51416,3.87051 0,2.7216 0.0695,3.28672 0.44981,3.66692 0.41486,0.41465 0.46091,1.64349 0.59695,15.8852 0.10665,11.15845 0.237,15.77412 0.47051,16.65644 l 0.32294,1.22066 h 2.51624 2.51585 l 0.45848,-2.18424 0.45844,-2.18425 h 4.95042 4.95041 l 0.0844,4.86422 c 0.0948,5.46667 0.21268,5.84985 2.09202,6.78423 0.92029,0.45753 0.94702,0.51108 0.94702,1.89066 0,1.15461 -0.17988,1.74978 -0.96357,3.18887 -0.52998,0.9732 -1.108,1.77061 -1.28467,1.77134 -0.20313,7.3e-4 -0.32104,0.3794 -0.32104,1.02946 0,0.7423 0.10708,1.02792 0.38541,1.02792 0.3338,0 0.38546,1.00041 0.38546,7.46065 v 7.46023 l -0.9636,1.78567 c -0.62281,1.15403 -1.12273,1.78684 -1.41339,1.78976 -0.36098,0.003 -0.4498,0.23256 -0.4498,1.16082 0,0.85652 0.0999,1.15631 0.38544,1.15631 0.33495,0 0.38545,1.12884 0.38545,8.61692 v 8.61655 l 0.96356,1.78564 c 0.74989,1.38954 1.09181,1.78614 1.54174,1.78978 0.40538,0.002 0.57816,0.15795 0.57816,0.51833 h 3.8e-4 c 0,0.50733 0.17117,0.51413 12.84766,0.51413 12.67648,0 12.84765,-0.007 12.84765,-0.51413 0,-0.36086 0.17222,-0.51462 0.57815,-0.51683 0.45603,-0.002 0.78289,-0.39555 1.54739,-1.86278 l 0.96922,-1.86017 -0.006,-8.54392 c -0.004,-7.42566 0.0446,-8.54352 0.3798,-8.54352 0.28549,0 0.38543,-0.29979 0.38543,-1.15631 0,-0.92928 -0.0884,-1.15671 -0.4498,-1.15819 -0.29064,-9.8e-4 -0.79024,-0.62734 -1.41301,-1.77096 l -0.96358,-1.76945 v -7.47944 c 0,-6.47691 0.0515,-7.47909 0.38542,-7.47909 0.27838,0 0.38544,-0.28562 0.38544,-1.02792 0,-0.65006 -0.11831,-1.02873 -0.32144,-1.02946 -0.17668,-7.1e-4 -0.7547,-0.79814 -1.28465,-1.77134 -0.78776,-1.44655 -0.9636,-2.03148 -0.9636,-3.20657 0,-1.38766 0.0299,-1.44994 0.86122,-1.7973 0.47361,-0.19792 1.13838,-0.74874 1.47736,-1.22405 0.58917,-0.82605 0.61995,-1.07681 0.70048,-5.68213 l 0.0845,-4.81793 h 4.95041 4.95079 l 0.45809,2.18425 0.45845,2.18424 h 2.49704 2.49741 l 0.42496,-1.93468 c 0.36775,-1.67374 0.42496,-3.9029 0.42496,-16.53903 0,-14.21544 0.0139,-14.62182 0.51415,-15.25776 0.45215,-0.57477 0.51377,-1.04237 0.51377,-3.88895 0,-2.89306 -0.0543,-3.29019 -0.51377,-3.74971 -0.5019,-0.50188 -0.51415,-0.85615 -0.51415,-15.15272 0,-12.66837 -0.0572,-14.89961 -0.42496,-16.57366 l -0.42496,-1.9347 h -2.49741 -2.49704 l -0.45845,2.18426 -0.45809,2.18387 h -4.95382 -4.95376 l -0.0809,-9.57148 -0.0808,-9.57146 -0.72233,-1.47098 c -0.82522,-1.68051 -2.40375,-3.15948 -3.82723,-3.58597 l -0.97524,-0.29206 v -17.04681 -17.04716 h -9.50693 z m -15.67443,65.52371 h 5.52479 5.52443 v 1.28504 1.28465 h -1.35767 c -1.29855,0 -1.4163,0.0595 -2.69805,1.3573 l -1.34036,1.35695 v 7.06801 7.06769 l 1.28466,1.26545 1.28504,1.26544 v 4.25934 4.25898 l -1.28504,1.26546 -1.28466,1.26547 v 7.0846 7.08459 l 1.35694,1.34036 c 1.28708,1.27112 1.42627,1.34036 2.69803,1.34036 h 1.34111 v 1.28466 1.28464 h -5.52443 -5.52479 v -11.00894 c 0,-10.68294 0.0155,-11.02328 0.51417,-11.47456 0.46145,-0.41759 0.51377,-0.79137 0.51377,-3.66086 0,-2.80676 -0.0625,-3.27526 -0.51377,-3.84907 -0.49558,-0.62996 -0.51417,-1.04242 -0.51417,-11.5393 z m 39.31423,0 h 5.5248 5.52443 v 11.00932 c 0,10.68297 -0.0151,11.02328 -0.51378,11.47459 -0.4625,0.41853 -0.51418,0.79153 -0.51418,3.72596 0,2.93444 0.0516,3.30709 0.51418,3.72562 0.49867,0.45128 0.51378,0.79162 0.51378,11.47456 l -7.3e-4,11.00894 h -5.52443 -5.52442 v -1.28464 -1.28466 h 1.39495 c 1.34682,0 1.43975,-0.0465 2.69238,-1.34901 l 1.29744,-1.34901 0.006,-7.07595 0.006,-7.07594 -1.28464,-1.26547 -1.28467,-1.26546 v -4.25898 -4.25934 l 1.28467,-1.26544 1.28464,-1.26545 v -7.0846 -7.08463 l -1.3569,-1.34034 c -1.2871,-1.27112 -1.42628,-1.34038 -2.69804,-1.34038 h -1.34111 v -1.28465 z"
       id="path832"
       inkscape:connector-curvature="0" />
  </g>
</svg>
