<?xml version="1.0" encoding="UTF-8" standalone="no"?>
<!-- Created with Inkscape (http://www.inkscape.org/) -->

<svg
   xmlns:dc="http://purl.org/dc/elements/1.1/"
   xmlns:cc="http://creativecommons.org/ns#"
   xmlns:rdf="http://www.w3.org/1999/02/22-rdf-syntax-ns#"
   xmlns:svg="http://www.w3.org/2000/svg"
   xmlns="http://www.w3.org/2000/svg"
   xmlns:sodipodi="http://sodipodi.sourceforge.net/DTD/sodipodi-0.dtd"
   xmlns:inkscape="http://www.inkscape.org/namespaces/inkscape"
   sodipodi:docname="carrier-dani 3.svg"
   id="svg8"
   version="1.1"
   viewBox="0 0 384.54572 384.54569"
   height="384.54568mm"
   width="384.54572mm"
   inkscape:version="0.92.4 (5da689c313, 2019-01-14)"
   inkscape:export-filename="D:\GitHub\wills-spaceships\Outlines Ships\carrier-dani 4.png"
   inkscape:export-xdpi="96"
   inkscape:export-ydpi="96">
  <defs
     id="defs2" />
  <sodipodi:namedview
     id="base"
     pagecolor="#ffffff"
     bordercolor="#666666"
     borderopacity="1.0"
     inkscape:pageopacity="0.0"
     inkscape:pageshadow="2"
     inkscape:zoom="0.12374369"
     inkscape:cx="1372.7523"
     inkscape:cy="1035.8682"
     inkscape:document-units="mm"
     inkscape:current-layer="layer1"
     showgrid="false"
     inkscape:window-width="1920"
     inkscape:window-height="1017"
     inkscape:window-x="1912"
     inkscape:window-y="-8"
     inkscape:window-maximized="1" />
  <metadata
     id="metadata5">
    <rdf:RDF>
      <cc:Work
         rdf:about="">
        <dc:format>image/svg+xml</dc:format>
        <dc:type
           rdf:resource="http://purl.org/dc/dcmitype/StillImage" />
        <dc:title />
      </cc:Work>
    </rdf:RDF>
  </metadata>
  <g
     inkscape:label="Layer 1"
     inkscape:groupmode="layer"
     id="layer1"
     transform="translate(285.26105,-131.31538)">
    <path
       style="fill:#000000;stroke-width:0.29949042"
       d="M -285.26105,323.58822 V 131.31538 h 43.57587 43.57581 v 192.27284 192.27285 h -43.57581 -43.57587 z"
       id="path832"
       inkscape:connector-curvature="0" />
    <path
       style="fill:#000000;stroke-width:0.29949042"
       d="M 12.132889,323.58822 V 131.31538 h 43.57588 43.575887 V 323.58822 515.86107 H 55.708769 12.132889 Z"
       id="path830"
       inkscape:connector-curvature="0" />
    <path
       style="fill:#000000;stroke-width:0.29949042"
       d="m -104.47613,494.37263 c -0.10204,-0.61771 -0.18712,-1.89328 -0.18888,-2.83462 0,-1.40301 -0.11131,-1.76933 -0.60235,-2.0321 -0.48679,-0.26053 -0.59893,-0.62707 -0.59893,-1.95723 v -1.63665 h -2.54565 -2.54567 v -3.89337 c 0,-2.14136 -0.11741,-3.89339 -0.26088,-3.89339 -0.14339,0 -0.3541,1.06985 -0.46819,2.37742 l -0.20732,2.37738 -1.02918,-0.0563 c -0.566,-0.0309 -1.03122,-0.19113 -1.03385,-0.35585 0,-0.16472 -0.13532,-0.0973 -0.29501,0.14975 -0.24152,0.3737 -0.29458,0.34851 -0.31598,-0.14975 l -0.0254,-0.59899 -0.25732,0.59899 c -0.2378,0.55323 -0.26132,0.54178 -0.30835,-0.14975 l -0.0508,-0.74873 -0.23974,0.74873 c -0.20367,0.63602 -0.24747,0.65856 -0.29068,0.14975 -0.0391,-0.4648 -0.0966,-0.49835 -0.25452,-0.14975 -0.12716,0.28067 -0.6811,0.47179 -1.47631,0.50937 -1.25916,0.0596 -1.27293,0.0491 -1.27293,-0.95566 0,-0.55871 -0.13472,-1.09912 -0.29942,-1.20091 -0.16477,-0.10182 -0.2995,-0.70825 -0.2995,-1.3477 0,-0.63945 -0.13482,-1.24591 -0.29951,-1.34771 -0.18423,-0.11387 -0.3008,-2.62751 -0.30299,-6.53159 v -6.34651 l -3.21599,-1.83109 c -2.831,-1.61182 -3.22669,-1.93576 -3.30505,-2.70535 -0.0568,-0.55981 -0.32634,-0.97841 -0.74877,-1.16383 -1.15312,-0.5061 -1.08691,-4.03317 0.0755,-4.03317 0.42652,0 0.59842,-0.24601 0.66813,-0.95641 0.0852,-0.86928 0.38024,-1.12328 3.23849,-2.78887 l 3.14467,-1.83249 0.084,-3.63419 0.084,-3.6342 -1.58141,-0.0908 -1.58142,-0.0908 v -4.3426 -4.34262 l 6.51388,-0.0807 6.51391,-0.0807 v -1.28848 -1.28844 l -2.24615,-1.28515 c -1.94552,-1.11314 -2.24615,-1.39625 -2.24615,-2.11491 0,-0.5779 -0.18184,-0.87733 -0.59902,-0.98641 -0.5176,-0.13534 -0.59901,-0.40851 -0.59901,-2.00965 0,-1.60116 0.0815,-1.8743 0.59901,-2.00965 0.42006,-0.10985 0.59902,-0.40853 0.59902,-0.99976 0,-0.73594 0.28552,-1.00554 2.24615,-2.12109 l 2.24615,-1.27797 v -2.58241 -2.58243 l -2.24615,-1.28515 c -1.94552,-1.11314 -2.24615,-1.39626 -2.24615,-2.11492 0,-0.57789 -0.18184,-0.87731 -0.59902,-0.98639 -0.5176,-0.13535 -0.59901,-0.4085 -0.59901,-2.00966 0,-1.60114 0.0815,-1.8743 0.59901,-2.00964 0.4188,-0.10951 0.59902,-0.40853 0.59902,-0.99399 0,-0.72659 0.29653,-1.00918 2.2425,-2.13639 l 2.24251,-1.29902 v -3.15963 c 0,-1.91585 0.1349,-3.2908 0.33694,-3.4929 0.92315,-0.92316 -0.13109,-0.98448 -16.92617,-0.98448 h -16.85692 l -4.08973,3.05825 -4.08962,3.05824 v 1.43953 1.43955 l -7.11292,-0.0803 -7.11294,-0.0803 -0.0781,-12.79669 -0.0781,-12.79671 0.67704,-0.16606 c 0.37243,-0.0913 3.57466,-0.12795 7.11614,-0.0814 l 6.43903,0.0847 0.0959,1.49745 0.0958,1.49744 4.12887,3.06979 4.12895,3.06977 h 13.07083 c 7.189,0 13.07086,-0.098 13.07086,-0.21799 0,-0.1199 -1.04225,-1.26639 -2.31609,-2.54779 l -2.31611,-2.32977 5.90996,-5.91558 c 3.25055,-3.25354 5.91005,-6.12322 5.91005,-6.37702 0,-0.25382 0.16173,-0.62318 0.35936,-0.82086 0.27954,-0.27952 0.27954,-0.43926 0,-0.71877 -0.19763,-0.19767 -0.35936,-0.87625 -0.35936,-1.508 0,-0.63172 -0.21768,-1.48078 -0.48366,-1.88679 l -0.48372,-0.73819 h -6.67962 c -3.67375,0 -6.88746,-0.0797 -7.14152,-0.17728 -0.2541,-0.0975 -1.30552,-1.63499 -2.33649,-3.41663 -1.6125,-2.78657 -1.97618,-3.23275 -2.60186,-3.192 -0.57388,0.0373 -0.91031,-0.26063 -1.59441,-1.41214 -0.81227,-1.36751 -0.83572,-1.49411 -0.37141,-2.00712 0.46242,-0.51098 0.45538,-0.61365 -0.10584,-1.53539 -0.75845,-1.2457 -0.75497,-2.4453 0.0111,-3.74366 0.57491,-0.97446 0.57738,-1.03215 0.0604,-1.41045 -0.51158,-0.37409 -0.49563,-0.46997 0.31054,-1.85769 0.97366,-1.6762 1.21781,-1.89122 1.93484,-1.70371 0.39671,0.10375 0.96305,-0.63924 2.42517,-3.18135 l 1.90771,-3.31671 h 7.11765 7.1176 l 0.45699,-0.8836 c 0.25129,-0.48598 0.4569,-1.33503 0.4569,-1.8868 0,-0.55175 0.14128,-1.14441 0.31386,-1.317 0.65581,-0.65582 -0.54588,-2.18083 -6.27637,-7.96519 l -5.85792,-5.91302 2.53438,-2.54757 2.53428,-2.54758 h -13.40704 -13.40711 l -4.0151,2.99114 -4.01504,2.99114 -0.0914,1.42634 -0.0914,1.42636 h -7.03803 -7.03805 v -12.87809 -12.87809 h 7.03805 7.03803 l 0.0916,1.43117 0.0916,1.43121 3.98073,2.98878 3.98073,2.98879 17.04172,-0.0774 c 14.98767,-0.068 17.02474,-0.13149 16.90096,-0.52658 -0.0773,-0.24708 -0.21214,-1.92182 -0.29952,-3.72163 l -0.15875,-3.27237 -2.09638,-1.23073 c -1.83084,-1.07479 -2.10837,-1.35269 -2.19029,-2.19331 -0.0705,-0.72014 -0.24,-0.9626 -0.6739,-0.9626 -0.51021,0 -0.58002,-0.21958 -0.58002,-1.82499 0,-1.55567 0.086,-1.84744 0.58231,-1.97724 0.38797,-0.10139 0.61286,-0.46035 0.67389,-1.07548 0.0781,-0.79118 0.40359,-1.11211 2.27409,-2.24431 l 2.18255,-1.32109 -0.086,-2.56951 -0.0862,-2.56951 -2.09637,-1.23106 c -1.83076,-1.07502 -2.10837,-1.35306 -2.19029,-2.19365 -0.0705,-0.72011 -0.24,-0.96259 -0.6739,-0.96259 -0.51422,0 -0.58002,-0.22089 -0.58002,-1.94668 0,-1.7258 0.0653,-1.9467 0.58002,-1.9467 0.43534,0 0.60341,-0.24256 0.6739,-0.97223 0.0824,-0.85381 0.35826,-1.13021 2.26514,-2.26937 l 2.17129,-1.29716 v -3.14113 c 0,-1.72763 -0.13981,-3.40244 -0.3108,-3.72181 -0.17089,-0.31937 -1.09668,-0.97743 -2.05734,-1.46236 -2.32944,-1.1759 -4.32301,-3.23152 -5.60731,-5.78174 -0.78088,-1.55051 -1.14174,-2.00631 -1.39118,-1.75687 -0.35315,0.3531 -3.71916,0.46817 -4.53518,0.15502 -0.37658,-0.14451 -0.4737,-0.66638 -0.4737,-2.54567 0,-1.37625 0.12514,-2.36386 0.29941,-2.36386 0.17285,0 0.29952,-0.94125 0.29952,-2.22479 0,-1.57827 0.13056,-2.35534 0.44925,-2.67402 0.37662,-0.37665 0.44927,-1.72751 0.44927,-8.35978 0,-10.66882 0.26793,-16.09148 0.79513,-16.09148 0.46609,0 0.41931,-0.95452 0.66805,13.62682 l 0.18396,10.78164 0.67388,0.0957 c 0.37059,0.0526 0.67382,0.28846 0.67382,0.52411 0,0.23562 0.20223,0.4284 0.44926,0.4284 0.39527,0 0.44961,-2.65527 0.45251,-22.08741 0,-18.71062 0.0714,-22.31249 0.44986,-23.55959 1.7202,-5.67065 7.50538,-9.31992 13.22237,-8.34063 2.21662,0.37967 4.63425,1.50253 6.016334,2.79425 0.517269,0.48343 1.015266,0.87899 1.106528,0.87899 0.09132,0 0.165958,-2.66359 0.165958,-5.91909 v -5.91911 l -5.31594,-2.29646 -5.31595,-2.29646 -0.0904,-1.51788 c -0.10429,-1.74882 0.17734,-1.66952 -3.95263,-1.11278 l -2.84517,0.38354 -2.37401,2.36673 c -1.30576,1.30171 -2.41194,2.23612 -2.4583,2.07648 -0.0459,-0.15965 0.68758,-2.85091 1.63076,-5.98058 l 1.71497,-5.69034 5.23563,-2.60957 5.23562,-2.60958 0.089,2.16034 0.0891,2.16036 4.0084,2.47081 c 2.20465,1.35892 4.085058,2.47078 4.178782,2.47078 0.09366,0 0.170382,-3.77359 0.170382,-8.38573 v -8.38573 h 5.091323 5.091399 v 8.38573 c 0,4.61214 0.0815,8.38573 0.180919,8.38573 0.0995,0 1.977118,-1.11186 4.1725,-2.47078 l 3.9915,-2.47081 0.09526,-2.16036 0.09526,-2.16034 5.224178,2.60958 5.224179,2.60957 1.733555,5.69034 c 0.953454,3.12967 1.687115,5.82509 1.630406,5.9898 -0.05688,0.16472 -1.182586,-0.79198 -2.501939,-2.12602 l -2.398875,-2.42552 -2.059803,-0.21103 c -1.132924,-0.11606 -2.624952,-0.28848 -3.315658,-0.38314 l -1.255849,-0.17212 -0.09186,1.55625 -0.09186,1.55627 -5.315947,2.29646 -5.315951,2.29646 v 5.91911 c 0,3.2555 0.07473,5.91909 0.165972,5.91909 0.09132,0 0.596642,-0.40755 1.123079,-0.90568 1.357718,-1.28476 3.729173,-2.37864 6.000111,-2.76762 5.71657,-0.97922 11.501903,2.67024 13.222044,8.34069 0.378291,1.2471 0.447056,4.84897 0.449857,23.55959 0,19.43214 0.05688,22.08741 0.452491,22.08741 0.247044,0 0.449179,-0.19278 0.449179,-0.4284 0,-0.23565 0.303244,-0.47148 0.673896,-0.52411 l 0.673811,-0.0957 0.183968,-10.78164 c 0.248827,-14.58134 0.202049,-13.62682 0.668123,-13.62682 0.528471,0 0.795125,5.42725 0.795125,16.18316 0,6.74772 0.07046,8.06068 0.449264,8.37507 0.324978,0.26975 0.449179,0.98369 0.449179,2.58231 0,1.27334 0.126918,2.20953 0.299509,2.20953 0.174375,0 0.299508,0.98761 0.299508,2.36386 0,1.87929 -0.09712,2.40116 -0.473712,2.54567 -0.816095,0.31315 -4.182009,0.19808 -4.535172,-0.15502 -0.24942,-0.24944 -0.610394,0.20636 -1.391172,1.75687 -1.232166,2.44674 -3.258691,4.59367 -5.323846,5.64015 -2.666973,1.35144 -2.651607,1.32194 -2.651607,5.11251 v 3.35438 l 2.171272,1.29716 c 1.906825,1.13916 2.182734,1.41556 2.265167,2.26937 0.07046,0.72967 0.238554,0.97223 0.67381,0.97223 0.510219,0 0.580001,0.21956 0.580001,1.82499 0,1.55567 -0.08592,1.84746 -0.582209,1.97724 -0.389837,0.10193 -0.612601,0.46035 -0.673897,1.0843 -0.07896,0.80296 -0.381941,1.10253 -2.187994,2.16309 l -2.096395,1.23106 -0.08617,2.56951 -0.08609,2.56951 2.182563,1.32109 c 1.870405,1.1322 2.195638,1.45313 2.27408,2.24431 0.06113,0.61513 0.285841,0.97402 0.673896,1.07548 0.490609,0.1283 0.58221,0.42042 0.58221,1.85554 0,1.43513 -0.0916,1.72726 -0.58221,1.85554 -0.387629,0.10129 -0.612941,0.46034 -0.673896,1.07353 -0.0781,0.78411 -0.403675,1.11082 -2.187996,2.19469 l -2.096396,1.27342 -0.16079,3.24045 c -0.08846,1.78225 -0.271324,3.4763 -0.406391,3.76456 -0.232443,0.49591 0.677205,0.5241 16.906227,0.5241 h 17.152 l 3.97741,-2.98628 3.977413,-2.9863 0.0916,-1.43118 0.09169,-1.43119 h 7.037959 7.038043 v 12.87809 12.87809 h -7.038043 -7.037959 l -0.09169,-1.43279 -0.09177,-1.43278 -3.993882,-2.9847 -3.993967,-2.98471 h -13.42801 -13.427997 l 2.534367,2.54758 2.534369,2.54757 -5.910215,5.91576 c -3.250626,3.25369 -5.910215,6.12345 -5.910215,6.37725 0,0.25379 -0.161723,0.6232 -0.359445,0.82086 -0.279473,0.27954 -0.279473,0.43926 0,0.71878 0.197722,0.19766 0.359445,0.81082 0.359445,1.36257 0,0.55176 0.205617,1.40081 0.456905,1.88679 l 0.456904,0.8836 h 7.12905 7.128967 l 1.892138,3.30575 c 1.251437,2.18632 2.054711,3.29022 2.372134,3.25992 0.967292,-0.0923 1.149307,0.0522 1.973892,1.56723 0.792577,1.45613 0.810152,1.56623 0.309187,1.93254 -0.506145,0.37012 -0.502918,0.43647 0.06792,1.40447 0.766009,1.29836 0.769573,2.49796 0.01103,3.74367 -0.56124,0.92173 -0.568372,1.0244 -0.105946,1.53538 0.464375,0.51301 0.440945,0.63962 -0.371414,2.00712 -0.684,1.15153 -1.020438,1.44955 -1.594328,1.41216 -0.625761,-0.041 -0.989451,0.40541 -2.60186,3.19199 -1.030964,1.78163 -2.082386,3.31912 -2.336477,3.41662 -0.25409,0.0975 -3.467789,0.17728 -7.141614,0.17728 h -6.679618 l -0.483646,0.73819 c -0.266062,0.40601 -0.483647,1.25507 -0.483647,1.8868 0,0.63174 -0.161724,1.31032 -0.359444,1.50799 -0.279474,0.27951 -0.279474,0.43925 0,0.71879 0.19772,0.19766 0.359444,0.56703 0.359444,0.82084 0,0.25381 2.659504,3.12348 5.909959,6.37702 l 5.910045,5.91558 -2.316104,2.32978 c -1.273932,1.28139 -2.316187,2.42789 -2.316187,2.54778 0,0.1199 5.881945,0.21801 13.070931,0.21801 h 13.070846 l 4.128865,-3.06979 4.128947,-3.06978 0.09576,-1.49745 0.09585,-1.49745 6.439025,-0.0847 c 3.541477,-0.0466 6.743713,-0.0103 7.116062,0.0814 l 0.677122,0.16607 -0.0781,12.79671 -0.0781,12.79668 h -7.038044 -7.037959 l -0.149754,-1.44209 -0.149756,-1.44209 -4.035902,-2.97539 -4.03599,-2.97539 h -16.83585 c -16.773878,0 -17.828017,0.0614 -16.904954,0.98447 0.202133,0.20216 0.334484,1.57641 0.336439,3.49291 v 3.15963 l 2.242922,1.27838 c 1.9716,1.12366 2.243008,1.38219 2.243008,2.13636 0,0.60613 0.175818,0.90399 0.59902,1.01465 0.517518,0.13534 0.598932,0.40851 0.598932,2.00965 0,1.60117 -0.0815,1.87431 -0.598932,2.00966 -0.417175,0.1091 -0.59902,0.40849 -0.59902,0.98639 0,0.71867 -0.300614,1.00177 -2.246148,2.11491 l -2.246151,1.28516 v 2.58243 2.58239 l 2.246151,1.278 c 1.960647,1.11554 2.246148,1.38514 2.246148,2.12108 0,0.59124 0.178959,0.88991 0.59902,0.99976 0.517518,0.13535 0.598932,0.40849 0.598932,2.00966 0,1.60113 -0.0815,1.87429 -0.598932,2.00964 -0.420061,0.10984 -0.59902,0.40851 -0.59902,0.99976 0,0.73593 -0.285501,1.00554 -2.246148,2.12107 l -2.246151,1.27798 v 1.28231 1.28226 l 6.513903,0.0807 6.513901,0.0808 v 4.34262 4.3426 l -1.581422,0.0909 -1.581422,0.0909 0.08404,3.63418 0.08404,3.63419 3.144678,1.83251 c 2.858242,1.66557 3.153166,1.91959 3.238486,2.78887 0.06961,0.7104 0.241525,0.9564 0.668123,0.9564 1.162721,0 1.22894,3.52707 0.07555,4.03318 -0.422352,0.18541 -0.691724,0.60401 -0.748687,1.16381 -0.0781,0.76961 -0.474054,1.09354 -3.305045,2.70537 l -3.216074,1.83108 v 6.3465 c 0,3.90407 -0.118769,6.41771 -0.30299,6.53158 -0.16478,0.10183 -0.299509,0.70826 -0.299509,1.34771 0,0.63944 -0.134813,1.24591 -0.29951,1.3477 -0.164695,0.10183 -0.299508,0.6422 -0.299508,1.20092 0,1.00483 -0.01358,1.01516 -1.27283,0.95565 -0.79521,-0.0376 -1.349236,-0.22869 -1.476408,-0.50938 -0.157904,-0.34858 -0.214953,-0.31504 -0.25443,0.14977 -0.0433,0.50881 -0.08702,0.48625 -0.290681,-0.14977 l -0.239827,-0.74871 -0.05094,0.74871 c -0.0467,0.69154 -0.07046,0.70298 -0.308338,0.14977 l -0.257402,-0.599 -0.02548,0.599 c -0.02122,0.49825 -0.07471,0.52343 -0.315895,0.14974 -0.159688,-0.24709 -0.292461,-0.31447 -0.29501,-0.14974 0,0.16471 -0.467855,0.32485 -1.033849,0.35584 l -1.029182,0.0563 -0.207397,-2.37739 c -0.114014,-1.30758 -0.324725,-2.37741 -0.468196,-2.37741 -0.143388,0 -0.260797,1.75202 -0.260797,3.89337 v 3.89338 h -2.54566 -2.545658 v 1.63665 c 0,1.33015 -0.112231,1.6967 -0.599019,1.95722 -0.47193,0.25255 -0.598934,0.62708 -0.598934,1.76568 0,0.79483 -0.08574,2.07041 -0.190503,2.83462 -0.176157,1.28526 -0.25477,1.38952 -1.048199,1.38952 -0.47176,0 -0.857772,-0.16175 -0.857772,-0.35938 0,-0.27954 -0.07975,-0.27954 -0.359363,0 -0.743937,0.74393 -1.137249,0.38924 -1.178849,-1.0632 -0.02205,-0.78244 -0.09394,-1.08566 -0.158762,-0.67385 -0.262743,1.6683 -0.429306,2.09643 -0.815833,2.09643 -0.257572,0 -0.49435,-0.57202 -0.650809,-1.57234 l -0.245855,-1.57231 -0.167075,1.49484 c -0.117325,1.04983 -0.31114,1.52216 -0.650886,1.58654 -0.52109,0.0987 -0.834598,-0.91004 -0.899294,-2.89421 l -0.03568,-1.08564 -0.228619,0.89847 c -0.125736,0.49416 -0.244587,1.40384 -0.264029,2.02155 -0.02804,0.88347 -0.154594,1.1231 -0.593752,1.1231 -0.563029,0 -0.881216,-1.2126 -0.973579,-3.71057 -0.0323,-0.86699 -0.05182,-0.84855 -0.282272,0.26641 -0.136254,0.6589 -0.255532,1.70335 -0.265045,2.32106 -0.01364,0.89413 -0.132175,1.1231 -0.58127,1.1231 -0.664219,0 -0.923568,-0.7731 -0.929353,-2.77028 0,-0.78243 -0.138794,-1.42259 -0.303578,-1.42259 -0.164697,0 -0.301289,0.64016 -0.303579,1.42259 -0.0087,1.99718 -0.265046,2.77028 -0.929263,2.77028 -0.449097,0 -0.567619,-0.22897 -0.581372,-1.1231 -0.01028,-0.61771 -0.128709,-1.66216 -0.265049,-2.32106 -0.23058,-1.11496 -0.250185,-1.1334 -0.282195,-0.26641 -0.09237,2.49797 -0.410543,3.71057 -0.973648,3.71057 -0.43916,0 -0.565825,-0.23963 -0.59367,-1.1231 -0.01953,-0.61771 -0.127263,-1.52739 -0.239495,-2.02155 -0.169782,-0.7477 -0.234817,-0.58037 -0.387544,0.99699 -0.203149,2.09881 -0.299842,2.30217 -0.97178,2.0443 -0.322856,-0.12386 -0.468536,-0.60915 -0.483231,-1.6093 -0.01617,-1.07569 -0.08512,-1.28297 -0.278455,-0.83301 -0.141612,0.32944 -0.266831,1.03699 -0.278465,1.57233 -0.02471,1.13902 -0.82415,1.36665 -1.05185,0.29949 -0.079,-0.37062 -0.20086,-0.9434 -0.27046,-1.27283 -0.0697,-0.32945 -0.14229,-0.0264 -0.16139,0.67385 -0.0357,1.30485 -0.45487,1.63138 -1.17282,0.91345 -0.27957,-0.27954 -0.35945,-0.27954 -0.35945,0 0,0.19763 -0.38662,0.35938 -0.85921,0.35938 -0.76033,0 -0.88071,-0.12939 -1.04498,-1.1231 z"
       id="path826"
       inkscape:connector-curvature="0" />
  </g>
</svg>
