<?xml version="1.0" encoding="UTF-8" standalone="no"?>
<!-- Created with Inkscape (http://www.inkscape.org/) -->

<svg
   xmlns:dc="http://purl.org/dc/elements/1.1/"
   xmlns:cc="http://creativecommons.org/ns#"
   xmlns:rdf="http://www.w3.org/1999/02/22-rdf-syntax-ns#"
   xmlns:svg="http://www.w3.org/2000/svg"
   xmlns="http://www.w3.org/2000/svg"
   xmlns:sodipodi="http://sodipodi.sourceforge.net/DTD/sodipodi-0.dtd"
   xmlns:inkscape="http://www.inkscape.org/namespaces/inkscape"
   inkscape:export-ydpi="96"
   inkscape:export-xdpi="96"
   inkscape:export-filename="D:\GitHub\wills-spaceships\Outlines Ships\patrol boat-fed 4.png"
   inkscape:version="0.92.4 (5da689c313, 2019-01-14)"
   width="118.68571mm"
   height="118.6857mm"
   viewBox="0 0 118.68571 118.6857"
   version="1.1"
   id="svg8"
   sodipodi:docname="patrol boat-fed 3.svg">
  <defs
     id="defs2" />
  <sodipodi:namedview
     id="base"
     pagecolor="#ffffff"
     bordercolor="#666666"
     borderopacity="1.0"
     inkscape:pageopacity="0.0"
     inkscape:pageshadow="2"
     inkscape:zoom="0.24748737"
     inkscape:cx="209.75898"
     inkscape:cy="1020.2442"
     inkscape:document-units="mm"
     inkscape:current-layer="layer1"
     showgrid="false"
     inkscape:window-width="1920"
     inkscape:window-height="1017"
     inkscape:window-x="1912"
     inkscape:window-y="-8"
     inkscape:window-maximized="1" />
  <metadata
     id="metadata5">
    <rdf:RDF>
      <cc:Work
         rdf:about="">
        <dc:format>image/svg+xml</dc:format>
        <dc:type
           rdf:resource="http://purl.org/dc/dcmitype/StillImage" />
        <dc:title></dc:title>
      </cc:Work>
    </rdf:RDF>
  </metadata>
  <g
     inkscape:label="Layer 1"
     inkscape:groupmode="layer"
     id="layer1"
     transform="translate(217.01507,-216.60519)">
    <path
       style="fill:#000000;stroke-width:0.14835711"
       d="m -217.01507,275.94803 v -59.34284 h 10.53335 10.53337 v 59.34284 59.34286 h -10.53337 -10.53335 z"
       id="path840"
       inkscape:connector-curvature="0" />
    <path
       style="fill:#000000;stroke-width:0.14835711"
       d="m -119.39608,275.94803 v -59.34284 h 10.53337 10.533344 v 59.34284 59.34286 h -10.533344 -10.53337 z"
       id="path838"
       inkscape:connector-curvature="0" />
    <path
       style="fill:#000000;stroke-width:0.14835711"
       d="m -154.022,218.06833 c -0.0211,3e-4 -0.0468,0.24692 -0.0839,0.61392 -0.0535,0.53037 -0.11466,2.68931 -0.13561,4.79778 -0.021,2.10847 -0.0739,3.92777 -0.1182,4.0428 -0.12423,0.32373 -2.94898,0.30036 -3.07402,-0.0254 -0.0495,-0.12905 -0.10038,-1.44765 -0.11321,-2.93011 l -0.0232,-2.69543 -0.16235,2.89297 -0.1621,2.89297 -1.44236,0.0424 c -1.39893,0.0412 -1.44433,0.0322 -1.51125,-0.29665 -0.038,-0.18652 -0.11301,-2.00811 -0.16669,-4.04801 -0.14496,-5.50937 -0.27156,-6.3216 -0.40487,-2.59632 -0.0599,1.67272 -0.10978,3.84251 -0.11147,4.82167 -0.002,0.97915 -0.0541,1.86119 -0.11692,1.96001 -0.0736,0.11587 -0.63918,0.19491 -1.59253,0.22254 l -1.47842,0.0429 -0.0378,13.76004 -0.0378,13.76005 h -0.37011 -0.37009 v -1.83222 c 0,-1.98875 -0.16662,-2.76671 -0.5922,-2.76671 -0.28571,0 -0.4427,-0.27429 -0.45268,-0.79103 -0.004,-0.17692 -0.12876,-0.55204 -0.2786,-0.83343 l -0.27251,-0.51157 -0.3147,0.61698 c -0.17311,0.33934 -0.31468,0.82007 -0.31468,1.06812 0,0.42726 -0.0313,0.45093 -0.59348,0.45093 -0.5622,0 -0.59351,-0.0237 -0.59351,-0.45093 0,-0.24805 -0.14156,-0.72878 -0.31469,-1.06812 l -0.31489,-0.61698 -0.27231,0.51157 c -0.14984,0.28139 -0.27544,0.65651 -0.27881,0.83343 -0.009,0.51674 -0.16677,0.79103 -0.45247,0.79103 -0.16534,0 -0.32809,0.17719 -0.4292,0.46724 -0.20328,0.58311 -0.22723,12.99347 -0.026,13.52253 0.0753,0.19815 0.28286,0.39827 0.46096,0.44485 0.28414,0.074 0.31719,0.16776 0.26992,0.76214 l -0.054,0.67737 h 0.77997 0.77997 v -0.7417 c 0,-0.72529 0.009,-0.74193 0.44506,-0.74193 0.43519,0 0.44508,0.0167 0.44508,0.74193 v 0.7417 h 0.77995 0.77995 l -0.0538,-0.67737 c -0.0472,-0.59438 -0.0144,-0.68784 0.26991,-0.76214 0.48903,-0.12788 0.59763,-0.62328 0.59763,-2.72412 V 260.519 h 0.37097 0.37096 v 3.40845 c 0,3.31904 0.0272,3.62934 1.03857,11.8298 l 1.03835,8.42137 v 6.68173 6.68173 l -1.27828,0.63391 c -0.70305,0.34867 -1.29897,0.61348 -1.32412,0.5883 -0.0561,-0.0561 -1.36235,-11.18222 -1.4943,-12.72801 -0.0778,-0.91141 -0.16379,-1.1864 -0.47485,-1.5206 l -0.37967,-0.40791 h -2.39441 c -3.09741,0 -2.96411,-0.11273 -3.26633,2.75933 -0.85944,8.16765 -1.99566,17.14047 -2.20905,17.44515 -0.15724,0.22448 -0.23449,0.6631 -0.23449,1.33128 v 0.99642 l -0.77887,-0.26404 c -0.5801,-0.19659 -0.79093,-0.34573 -0.82626,-0.58437 -0.036,-0.24268 -0.15032,-0.32034 -0.47201,-0.32034 -0.50714,0 -0.65716,-0.31877 -0.66326,-1.40953 l -0.004,-0.74172 -0.9273,-0.0442 -0.92708,-0.0441 v 0.88493 c 0,1.1604 -0.0873,1.35454 -0.60937,1.35454 h -0.42921 v 1.67838 c 0,1.67116 0.002,1.68016 0.44508,2.10473 0.43046,0.41241 0.60019,0.96426 0.29663,0.96426 -0.20737,0 -0.1855,0.68646 0.033,1.03639 0.15706,0.2515 0.11722,0.35688 -0.29664,0.78389 -0.47166,0.48663 -0.4781,0.51295 -0.4781,1.92763 0,1.2661 0.0335,1.45215 0.28686,1.58773 0.44847,0.24003 3.13123,0.19801 3.33151,-0.0521 0.1335,-0.16676 1.69334,-0.83278 1.95045,-0.83278 0.0377,0 0.0686,0.48748 0.0686,1.08313 0,0.61817 0.0733,1.15615 0.1706,1.25352 0.16082,0.16081 1.29257,11.52378 1.30675,13.1196 0.005,0.59384 0.0688,0.73909 0.43725,1.00141 0.40612,0.28919 0.63041,0.30664 3.90544,0.30664 3.41256,0 3.4803,-0.005 3.78507,-0.33382 0.27732,-0.29827 0.34547,-0.74412 0.64066,-4.19101 0.18168,-2.1215 0.37722,-3.91032 0.43442,-3.97522 0.0573,-0.0648 0.61501,0.1148 1.23959,0.39944 l 1.13573,0.51765 v 5.10203 c 0,2.80611 0.0453,5.14739 0.10084,5.20285 0.0556,0.0556 2.30865,0.0832 5.00706,0.0617 l 4.90621,-0.0389 0.0392,-5.16004 0.039,-5.16005 1.13702,-0.51808 c 0.62531,-0.28498 1.18219,-0.46647 1.23762,-0.40336 0.0554,0.0631 0.2495,1.85044 0.43117,3.97196 0.2952,3.44688 0.36337,3.89273 0.64068,4.19101 0.30477,0.32784 0.37249,0.33382 3.78505,0.33382 3.27506,0 3.49956,-0.0175 3.90567,-0.30665 0.36839,-0.26233 0.43177,-0.40757 0.43703,-1.0014 0.0143,-1.59583 1.14616,-12.9588 1.30696,-13.11962 0.0978,-0.0978 0.17039,-0.63947 0.17039,-1.26959 0,-0.8167 0.0477,-1.08117 0.18558,-1.0303 0.10205,0.0377 0.5407,0.18515 0.97491,0.32793 0.43419,0.14277 0.82513,0.35289 0.86885,0.4668 0.0971,0.25302 2.8652,0.29756 3.3213,0.0535 0.25255,-0.13516 0.28707,-0.3212 0.28707,-1.55252 0,-1.36085 -0.0131,-1.41373 -0.47245,-1.93699 -0.40039,-0.45603 -0.44551,-0.5807 -0.29664,-0.81908 0.21383,-0.34239 0.2319,-1.02705 0.0271,-1.02705 -0.30357,0 -0.1336,-0.55185 0.29686,-0.96424 0.44296,-0.42459 0.44507,-0.43358 0.44507,-2.10476 v -1.67835 h -0.43508 c -0.52719,0 -0.66296,-0.31898 -0.6185,-1.45388 l 0.0308,-0.78603 -0.93512,0.0442 -0.93512,0.0444 -0.004,0.74171 c -0.006,1.09789 -0.15499,1.40954 -0.67347,1.40954 -0.33794,0 -0.43508,0.067 -0.43508,0.30034 0,0.3042 -0.39188,0.52615 -1.22393,0.69324 l -0.40792,0.082 v -0.9499 c 0,-0.62572 -0.0801,-1.06404 -0.23449,-1.28456 -0.21338,-0.30468 -1.34961,-9.27751 -2.20906,-17.44516 -0.30222,-2.87205 -0.16891,-2.75932 -3.26631,-2.75932 h -2.39472 l -0.37988,0.40791 c -0.31111,0.33425 -0.39674,0.60904 -0.47442,1.52059 -0.13429,1.57628 -1.43564,12.66891 -1.49297,12.72626 -0.0261,0.0261 -0.62559,-0.23913 -1.33219,-0.58959 l -1.28479,-0.63716 0.0496,-7.27046 0.05,-7.27021 0.9951,-7.84136 c 0.9706,-7.6483 0.99511,-7.925 0.99511,-11.23805 v -3.3967 h 0.37075 0.37097 v 1.91892 c 0,2.10084 0.1088,2.59624 0.59785,2.72412 0.28415,0.074 0.31718,0.16775 0.26991,0.76214 l -0.0539,0.67737 h 0.77997 0.77996 v -0.7417 c 0,-0.7253 0.009,-0.74194 0.44507,-0.74194 0.43519,0 0.44508,0.0167 0.44508,0.74194 v 0.7417 h 0.77996 0.77995 l -0.0539,-0.67737 c -0.0472,-0.59439 -0.0142,-0.68784 0.26991,-0.76214 0.1781,-0.0465 0.38539,-0.24671 0.46072,-0.44485 0.15735,-0.41385 0.16137,-12.97972 0.004,-13.54404 -0.0568,-0.20356 -0.23354,-0.39481 -0.39315,-0.42509 -0.36009,-0.0683 -0.50559,-0.28326 -0.51656,-0.76256 -0.004,-0.204 -0.13115,-0.60115 -0.28101,-0.88255 l -0.2725,-0.51157 -0.31468,0.61699 c -0.17313,0.33934 -0.31491,0.81985 -0.31491,1.0679 0,0.42727 -0.0311,0.45114 -0.59327,0.45114 -0.56219,0 -0.59352,-0.0239 -0.59352,-0.45114 0,-0.24805 -0.14154,-0.72856 -0.31466,-1.0679 l -0.31489,-0.61699 -0.27232,0.51157 c -0.14983,0.2814 -0.27633,0.67855 -0.28099,0.88255 -0.011,0.4793 -0.15671,0.6943 -0.5168,0.76256 -0.40824,0.0775 -0.49406,0.52872 -0.51091,2.68674 l -0.0147,1.89155 h -0.3701 -0.37009 l -0.0378,-13.76005 -0.0381,-13.76005 -1.51906,-0.0423 c -1.43278,-0.0399 -1.52305,-0.0608 -1.58731,-0.37077 -0.0376,-0.18075 -0.10374,-2.16464 -0.14734,-4.40854 -0.0723,-3.72538 -0.0964,-4.91689 -0.143,-4.91622 z m -23.80915,91.26006 c 0.21394,0 0.72412,1.01122 0.72412,1.43517 0,0.23971 -0.15693,0.64855 -0.3488,0.90862 -0.33431,0.45312 -0.35914,0.46152 -0.59351,0.20254 -0.27001,-0.29837 -0.32881,-0.76604 -0.0962,-0.76604 0.0817,0 0.14844,-0.2003 0.14844,-0.44509 0,-0.24478 -0.0668,-0.44506 -0.14844,-0.44506 -0.0816,0 -0.14821,-0.12021 -0.14821,-0.26709 0,-0.26812 0.26359,-0.62305 0.46268,-0.62305 z m 40.35242,0.0183 c 0.0737,0.003 0.14975,0.0594 0.25013,0.15973 0.2156,0.21558 0.23617,0.71216 0.0295,0.71216 -0.0817,0 -0.14822,0.20029 -0.14822,0.44507 0,0.24479 0.0666,0.44509 0.14822,0.44509 0.0816,0 0.14843,0.12325 0.14843,0.27381 0,0.15054 -0.11718,0.37985 -0.26057,0.50962 -0.24181,0.21883 -0.28489,0.19912 -0.5935,-0.27166 -0.41466,-0.63254 -0.42153,-1.14906 -0.0239,-1.79245 0.21076,-0.34103 0.32698,-0.48596 0.44986,-0.48137 z"
       id="path836"
       inkscape:connector-curvature="0" />
  </g>
</svg>
