<?xml version="1.0" encoding="UTF-8" standalone="no"?>
<svg
   xmlns:dc="http://purl.org/dc/elements/1.1/"
   xmlns:cc="http://creativecommons.org/ns#"
   xmlns:rdf="http://www.w3.org/1999/02/22-rdf-syntax-ns#"
   xmlns:svg="http://www.w3.org/2000/svg"
   xmlns="http://www.w3.org/2000/svg"
   xmlns:sodipodi="http://sodipodi.sourceforge.net/DTD/sodipodi-0.dtd"
   xmlns:inkscape="http://www.inkscape.org/namespaces/inkscape"
   sodipodi:docname="hyperioid-alien 3.svg"
   id="svg8"
   version="1.1"
   viewBox="0 0 91.546678 91.546677"
   height="91.546677mm"
   width="91.546677mm"
   inkscape:version="1.0.1 (3bc2e813f5, 2020-09-07)"
   inkscape:export-filename="C:\GitHub\Supernova-Shipyard-Source\Vectors - Outlines Ships\hyperioid-alien 4.png"
   inkscape:export-xdpi="96"
   inkscape:export-ydpi="96">
  <defs
     id="defs2" />
  <sodipodi:namedview
     id="base"
     pagecolor="#ffffff"
     bordercolor="#666666"
     borderopacity="1.0"
     inkscape:pageopacity="0.0"
     inkscape:pageshadow="2"
     inkscape:zoom="0.35"
     inkscape:cx="-342.80044"
     inkscape:cy="-455.69178"
     inkscape:document-units="mm"
     inkscape:current-layer="layer1"
     showgrid="false"
     inkscape:window-width="1854"
     inkscape:window-height="1057"
     inkscape:window-x="58"
     inkscape:window-y="-8"
     inkscape:window-maximized="1"
     showguides="true"
     inkscape:guide-bbox="true"
     inkscape:document-rotation="0" />
  <metadata
     id="metadata5">
    <rdf:RDF>
      <cc:Work
         rdf:about="">
        <dc:format>image/svg+xml</dc:format>
        <dc:type
           rdf:resource="http://purl.org/dc/dcmitype/StillImage" />
        <dc:title />
      </cc:Work>
    </rdf:RDF>
  </metadata>
  <g
     inkscape:label="Layer 1"
     inkscape:groupmode="layer"
     id="layer1"
     transform="translate(180.39534,-131.16691)">
    <path
       style="fill:#000000;stroke-width:0.114433"
       d="m -180.39534,176.94023 v -45.77332 h 6.29383 6.29385 v 45.77332 45.77336 h -6.29385 -6.29383 z"
       id="path24" />
    <path
       style="fill:#000000;stroke-width:0.114433"
       d="m -151.4693,217.4482 c -0.83485,-0.13256 -1.23815,-0.34406 -1.68383,-0.88302 -0.97796,-1.18265 -2.52497,-4.98437 -3.3741,-8.29165 -0.50429,-1.96417 -0.63739,-3.01568 -0.63778,-5.03829 -3.2e-4,-1.96257 -0.12811,-3.18867 -0.64122,-6.15472 -0.46763,-2.70311 -1.04862,-6.89486 -1.25301,-9.04024 -0.15049,-1.57972 -0.17764,-2.72749 -0.12854,-5.43557 0.0618,-3.40571 0.12759,-4.32419 0.70557,-9.84129 0.19624,-1.87313 0.31445,-3.74976 0.34239,-5.43558 0.0464,-2.79939 0.12664,-3.50018 0.62915,-5.49443 0.93922,-3.72753 2.28607,-6.99915 3.38421,-8.22056 0.68072,-0.75709 1.6936,-1.22272 2.62553,-1.20691 0.71005,0.0121 3.33488,0.76038 4.18088,1.19199 0.47303,0.24131 1.0304,1.0291 1.39261,1.96831 0.80372,2.08398 -0.5104,7.93648 -2.83364,12.61986 -1.09657,2.21056 -1.43636,3.27727 -1.76129,5.52918 -0.35416,2.45457 -0.46116,4.09512 -0.46242,7.09152 -9.2e-4,3.63783 0.14913,6.00611 0.63491,9.97988 0.21929,1.79374 0.46265,3.87929 0.54081,4.63456 l 0.14212,1.37318 0.58053,0.034 0.58055,0.034 0.0744,-7.30045 c 0.0749,-7.34074 0.18115,-9.84235 0.47948,-11.28589 0.0889,-0.42972 0.42294,-1.37072 0.74252,-2.09113 0.88313,-1.99072 0.99391,-2.59886 1.08093,-5.93348 0.13884,-5.31963 0.53328,-8.32509 1.39291,-10.61363 0.61708,-1.6428 1.67515,-2.82539 3.75624,-4.19826 1.63811,-1.08066 2.10488,-1.45395 2.75266,-2.20149 1.6955,-1.95657 2.17779,-4.33079 2.51926,-12.40145 0.17161,-4.05642 0.27236,-5.08817 0.52685,-5.39479 0.0709,-0.0854 0.33113,-0.15523 0.57838,-0.15523 0.40234,0 0.4665,0.0406 0.61071,0.38566 0.20865,0.49938 0.37073,2.31552 0.45574,5.10713 0.21432,7.037 0.72779,9.96858 2.09996,11.98918 0.58214,0.85725 1.06487,1.2721 2.92132,2.51063 0.81016,0.54051 1.79607,1.28492 2.19088,1.65424 2.11535,1.9788 2.88322,4.99244 3.14418,12.33986 0.16363,4.60796 0.21836,4.93098 1.20225,7.0971 0.9684,2.13202 1.08445,3.55393 1.08599,13.30636 l 9.2e-4,7.1864 0.65526,-0.0343 0.65525,-0.0343 0.251,-2.23145 c 0.13805,-1.2273 0.38431,-3.39008 0.54725,-4.8062 0.44267,-3.84712 0.55604,-6.17037 0.48855,-10.01293 -0.0617,-3.51244 -0.21253,-5.19969 -0.66468,-7.43497 -0.32527,-1.60805 -0.56414,-2.25214 -1.59226,-4.29329 -1.86341,-3.6995 -3.26771,-9.1201 -2.97471,-11.48258 0.10758,-0.86723 0.60659,-2.02223 1.10026,-2.54648 0.37288,-0.39597 1.00936,-0.65804 3.05063,-1.256 1.59226,-0.46645 2.00533,-0.46454 3.0515,0.0141 1.41383,0.64682 2.45766,2.39549 3.71858,6.22959 1.21077,3.68161 1.32996,4.33893 1.44207,7.95312 0.0648,2.09017 0.22716,4.36686 0.50173,7.03764 0.57872,5.62887 0.67887,7.4048 0.60668,10.75674 -0.0795,3.68663 -0.36157,6.16225 -1.41508,12.41602 -0.47727,2.83312 -0.52769,3.32251 -0.6073,5.89332 -0.0739,2.38449 -0.1308,3.00034 -0.3812,4.11959 -0.60197,2.69083 -1.77833,6.08007 -2.79061,8.04005 -0.64745,1.25356 -1.28556,1.95947 -1.92604,2.13065 -0.71977,0.19234 -2.31965,0.28134 -3.41605,0.19001 -0.80751,-0.0673 -1.05908,-0.13449 -1.30828,-0.34967 l -0.30856,-0.2664 0.0303,-2.15194 c 0.0347,-2.45748 0.14908,-3.33813 1.00083,-7.70713 0.87858,-4.50654 0.91319,-4.71174 1.36505,-8.09616 l 0.0497,-0.3719 h -0.54732 -0.54731 l -0.0697,1.80232 c -0.14192,3.66888 -0.7662,5.47512 -1.97038,5.70103 -0.93015,0.1745 -1.9287,-0.70833 -3.00883,-2.66014 -0.89697,-1.62083 -1.36756,-2.30568 -2.04118,-2.97046 -0.57712,-0.56954 -1.8254,-1.3843 -1.94208,-1.26764 -0.0758,0.0759 0.16241,1.85894 0.31677,2.37015 0.0666,0.22029 0.36742,0.94122 0.66867,1.60208 0.30124,0.66084 0.63389,1.58614 0.7392,2.05619 0.4241,1.8927 0.33479,7.05762 -0.16409,9.49269 -0.36555,1.78414 -0.78904,2.38917 -1.8442,2.63472 -0.77854,0.18115 -5.45888,0.27267 -7.33487,0.14341 -2.2413,-0.15441 -2.68664,-0.39019 -3.13851,-1.66159 -0.50728,-1.42728 -0.79093,-4.5711 -0.69359,-7.68758 0.0812,-2.60011 0.22945,-3.35275 0.97902,-4.96981 0.30838,-0.66527 0.61875,-1.44132 0.68973,-1.72453 0.16629,-0.66354 0.37442,-2.19297 0.30752,-2.25987 -0.11958,-0.11958 -1.29771,0.64819 -1.88825,1.23052 -0.73601,0.7258 -1.22209,1.42962 -2.08479,3.01864 -1.28694,2.37056 -2.5198,3.16147 -3.66117,2.34873 -0.7675,-0.5465 -1.20853,-2.32638 -1.32301,-5.33932 l -0.0706,-1.85954 h -0.54372 -0.54373 l 0.0564,0.48634 c 0.18712,1.61285 0.70757,4.70954 1.29338,7.69564 0.84867,4.32607 0.99717,5.38359 1.08456,7.72426 0.10922,2.9244 0.0745,2.97138 -2.23778,3.03535 -0.84389,0.0233 -1.82908,-0.005 -2.18934,-0.0616 z"
       id="path30" />
    <path
       style="fill:#000000;stroke-width:0.114433"
       d="m -101.43633,176.94023 v -45.77332 h 6.293832 6.293836 v 45.77332 45.77336 h -6.293836 -6.293832 z"
       id="path28" />
  </g>
</svg>
