<?xml version="1.0" encoding="UTF-8" standalone="no"?>
<!-- Created with Inkscape (http://www.inkscape.org/) -->

<svg
   xmlns:dc="http://purl.org/dc/elements/1.1/"
   xmlns:cc="http://creativecommons.org/ns#"
   xmlns:rdf="http://www.w3.org/1999/02/22-rdf-syntax-ns#"
   xmlns:svg="http://www.w3.org/2000/svg"
   xmlns="http://www.w3.org/2000/svg"
   xmlns:sodipodi="http://sodipodi.sourceforge.net/DTD/sodipodi-0.dtd"
   xmlns:inkscape="http://www.inkscape.org/namespaces/inkscape"
   inkscape:export-ydpi="96"
   inkscape:export-xdpi="96"
   inkscape:export-filename="D:\GitHub\Novalike-Art-Pack-Source\Outlines Ships\javelin-vellos 4.png"
   inkscape:version="0.92.4 (5da689c313, 2019-01-14)"
   width="183.55701mm"
   height="183.55701mm"
   viewBox="0 0 183.55701 183.55701"
   version="1.1"
   id="svg8"
   sodipodi:docname="javelin-vellos 3.svg">
  <defs
     id="defs2" />
  <sodipodi:namedview
     id="base"
     pagecolor="#ffffff"
     bordercolor="#666666"
     borderopacity="1.0"
     inkscape:pageopacity="0.0"
     inkscape:pageshadow="2"
     inkscape:zoom="0.175"
     inkscape:cx="2155.238"
     inkscape:cy="144.25682"
     inkscape:document-units="mm"
     inkscape:current-layer="layer1"
     showgrid="false"
     inkscape:window-width="1920"
     inkscape:window-height="1017"
     inkscape:window-x="-8"
     inkscape:window-y="-8"
     inkscape:window-maximized="1" />
  <metadata
     id="metadata5">
    <rdf:RDF>
      <cc:Work
         rdf:about="">
        <dc:format>image/svg+xml</dc:format>
        <dc:type
           rdf:resource="http://purl.org/dc/dcmitype/StillImage" />
        <dc:title />
      </cc:Work>
    </rdf:RDF>
  </metadata>
  <g
     inkscape:label="Layer 1"
     inkscape:groupmode="layer"
     id="layer1"
     transform="translate(1225.5218,34.396941)">
    <path
       style="fill:#000000;stroke-width:0.22944626"
       d="m -1225.5218,57.381563 v -91.778504 h 19.3882 19.3882 v 91.778504 91.778497 h -19.3882 -19.3882 z"
       id="path836"
       inkscape:connector-curvature="0" />
    <path
       style="fill:#000000;stroke-width:0.22944626"
       d="m -1080.741,57.381563 v -91.778504 h 19.388 19.3882 v 91.778504 91.778497 h -19.3882 -19.388 z"
       id="path834"
       inkscape:connector-curvature="0" />
    <path
       style="fill:#000000;stroke-width:0.22944626"
       d="m -1133.7433,-28.43124 c -1.5402,0 -3.4791,4.858431 -5.1694,12.95408 -3.6702,17.5772034 -5.8987,44.206418 -5.3493,63.910307 0.4261,15.292665 3.4464,24.367859 8.6288,25.928321 0.3453,0.10394 1.1514,0.197859 1.7915,0.208716 3.6877,0.06253 6.5401,-2.956199 8.3281,-8.81396 1.661,-5.442451 2.1115,-9.599808 2.2565,-20.810817 0.1904,-14.741928 -0.687,-29.257139 -2.7025,-44.69597556 -2.2388,-17.14585044 -5.369,-28.68067144 -7.7837,-28.68067144 z m -14.5117,18.9736839 c -1.6408,-0.015946 -3.6095,1.73919 -5.9783,5.3070637 -0.8106,1.2211179 -2.4699,3.74961003 -3.6872,5.6189678 -4.8265,7.4132381 -7.109,9.4897646 -15.0925,13.7287976 -1.9369,1.028442 -4.2315,2.325121 -5.0988,2.881746 -3.9345,2.525341 -5.6509,5.578391 -5.6509,10.053174 0,4.789501 1.5513,8.327234 7.8446,17.891768 7.1206,10.821727 9.602,16.275537 12.3184,27.074768 2.5427,10.109602 4.0098,19.505571 6.8066,43.594561 2.0655,17.79263 3.0214,22.45347 5.1168,24.95228 0.488,0.58194 1.3502,0.49303 1.9984,-0.20637 0.7717,-0.83268 1.6127,-3.63105 2.057,-6.84272 0.8915,-6.44785 0.8195,-21.40231 -0.2221,-46.010125 -1.0848,-25.623241 -1.2712,-37.263807 -0.8137,-50.70785 0.4309,-12.658791 0.9233,-18.88498 2.4322,-30.7456867 1.4506,-11.4009921 1.408,-14.102029 -0.2507,-15.7605379 -0.546,-0.5460629 -1.1378,-0.8236001 -1.7798,-0.8298365 z m 28.9824,0.042002 c -0.5145,0.016168 -1.0019,0.1608567 -1.3642,0.4308829 -2.0858,1.5545103 -2.1868,4.1639904 -0.6247,16.1174798 1.4374,10.9973654 2.0057,18.1899194 2.4298,30.7456874 0.4619,13.673888 0.2851,24.714547 -0.8133,50.800273 -1.318,31.298661 -1.1311,44.542991 0.7111,50.374781 0.3089,0.97757 0.8152,2.05119 1.1253,2.38565 1.7278,1.86431 3.4,-0.70319 4.686,-7.19328 0.8519,-4.3005 1.4183,-8.49529 2.8964,-21.45311 2.2853,-20.029033 3.951,-30.310339 6.5797,-40.611986 2.541,-9.957489 5.1255,-15.563154 12.0075,-26.042263 6.3838,-9.720265 7.915,-13.203078 7.915,-18.006378 0,-3.31028 -0.9013,-5.737637 -2.902,-7.814728 -1.5,-1.55753 -2.5983,-2.279538 -7.3652,-4.843582 -8.4137,-4.525347 -10.6019,-6.4715565 -15.3092,-13.6182164 -1.621,-2.46080993 -3.4949,-5.3020832 -4.1647,-6.3136927 -1.3615,-2.0564959 -3.2345,-4.0770404 -4.2801,-4.6177165 -0.4713,-0.2438211 -1.0129,-0.3559734 -1.5274,-0.3398015 z"
       id="path832"
       inkscape:connector-curvature="0" />
  </g>
</svg>
