<?xml version="1.0" encoding="UTF-8" standalone="no"?>
<svg
   xmlns:dc="http://purl.org/dc/elements/1.1/"
   xmlns:cc="http://creativecommons.org/ns#"
   xmlns:rdf="http://www.w3.org/1999/02/22-rdf-syntax-ns#"
   xmlns:svg="http://www.w3.org/2000/svg"
   xmlns="http://www.w3.org/2000/svg"
   xmlns:sodipodi="http://sodipodi.sourceforge.net/DTD/sodipodi-0.dtd"
   xmlns:inkscape="http://www.inkscape.org/namespaces/inkscape"
   sodipodi:docname="scoutship 3.svg"
   inkscape:version="1.0 (4035a4fb49, 2020-05-01)"
   id="svg8"
   version="1.1"
   viewBox="0 0 121.34132 121.34146"
   height="121.34146mm"
   width="121.34132mm"
   inkscape:export-filename="C:\Users\W\GitHub\Novalike-Art-Pack-Source\Vectors - Outlines Ships\scoutship 4.png"
   inkscape:export-xdpi="96"
   inkscape:export-ydpi="96">
  <defs
     id="defs2" />
  <sodipodi:namedview
     inkscape:window-maximized="1"
     inkscape:window-y="-8"
     inkscape:window-x="1974"
     inkscape:window-height="1057"
     inkscape:window-width="1858"
     showgrid="false"
     inkscape:document-rotation="0"
     inkscape:current-layer="layer1"
     inkscape:document-units="mm"
     inkscape:cy="351.78225"
     inkscape:cx="415.00871"
     inkscape:zoom="0.24748737"
     inkscape:pageshadow="2"
     inkscape:pageopacity="0.0"
     borderopacity="1.0"
     bordercolor="#666666"
     pagecolor="#ffffff"
     id="base" />
  <metadata
     id="metadata5">
    <rdf:RDF>
      <cc:Work
         rdf:about="">
        <dc:format>image/svg+xml</dc:format>
        <dc:type
           rdf:resource="http://purl.org/dc/dcmitype/StillImage" />
        <dc:title />
      </cc:Work>
    </rdf:RDF>
  </metadata>
  <g
     transform="translate(-95.861433,-0.36346805)"
     id="layer1"
     inkscape:groupmode="layer"
     inkscape:label="Layer 1">
    <path
       id="path31"
       d="m 145.95881,119.74697 c -1.04739,-0.13147 -1.40911,-0.3456 -1.40911,-0.83413 0,-0.18047 0.23516,-1.14411 0.52258,-2.14142 0.43592,-1.51264 0.48683,-1.83332 0.30699,-1.93397 -0.16561,-0.0927 -0.20331,-0.40068 -0.16262,-1.32857 0.0519,-1.185 0.0461,-1.2079 -0.30698,-1.2079 h -0.35997 l -8.6e-4,-2.38891 -8.6e-4,-2.38892 -1.62941,-0.65037 c -1.60432,-0.64033 -1.65766,-0.65034 -3.44965,-0.64786 l -1.82011,0.003 -0.41712,-0.58978 c -0.2294,-0.32438 -0.41711,-0.75304 -0.41711,-0.95256 0,-0.29149 -0.14902,-0.42573 -0.75839,-0.68319 -0.47194,-0.19938 -0.75837,-0.41444 -0.75837,-0.56939 0,-0.13694 0.58015,-2.52201 1.28925,-5.300152 0.94815,-3.714775 1.28995,-5.307683 1.29188,-6.020734 0.004,-1.398351 0.35547,-2.856699 0.97334,-4.036272 0.82101,-1.567461 6.07363,-22.467037 6.91758,-27.52432 1.20741,-7.235278 1.68908,-12.564723 2.04,-22.571704 0.12433,-3.545445 0.2951,-7.197062 0.37946,-8.11471 0.54803,-5.960342 1.91392,-11.557896 4.37387,-17.924554 1.19331,-3.088495 3.80009,-8.9980908 3.96911,-8.9980908 0.17255,0 2.75381,5.8485429 3.9496,8.9489338 2.51285,6.515171 3.88708,12.154518 4.37993,17.973706 0.22541,2.661374 0.30551,4.302554 0.47382,9.707319 0.24783,7.958754 0.78217,13.791022 1.88983,20.62805 0.7703,4.754651 6.17825,26.32623 6.9883,27.875366 0.61799,1.181873 0.96861,2.639348 0.97241,4.042201 0.002,0.720764 0.33928,2.293676 1.29188,6.023572 0.70909,2.776439 1.28926,5.158839 1.28926,5.294229 0,0.15153 -0.2915,0.3693 -0.75839,0.56655 -0.60937,0.25745 -0.75839,0.39169 -0.75839,0.68319 0,0.19951 -0.1877,0.62817 -0.4171,0.95255 l -0.41713,0.58978 -1.86124,0.004 c -1.83506,0.003 -1.88363,0.0124 -3.45065,0.64677 l -1.58939,0.64352 v 2.39001 2.39001 h -0.34842 c -0.33746,0 -0.34723,0.0381 -0.31078,1.21004 0.0288,0.92687 -0.0137,1.23873 -0.18159,1.33271 -0.18455,0.10324 -0.13453,0.40987 0.316,1.93727 0.29438,0.99802 0.51581,1.9847 0.49209,2.19265 -0.0835,0.73103 -0.62081,0.83719 -4.13842,0.81758 -1.75186,-0.009 -3.38998,-0.0827 -3.64024,-0.16184 -0.40698,-0.12887 -0.45983,-0.21695 -0.50043,-0.834 -0.0291,-0.44372 0.12053,-1.24847 0.41954,-2.25499 0.31485,-1.05981 0.41519,-1.61479 0.31082,-1.71915 -0.0848,-0.0848 -0.15409,-0.68174 -0.15409,-1.32663 0,-1.10049 -0.0209,-1.17552 -0.34127,-1.221 -0.30652,-0.0434 -0.34588,-0.14501 -0.38644,-0.99646 l -0.0451,-0.94798 h -3.4741 -3.47409 l -0.0451,0.94798 c -0.0405,0.85145 -0.0799,0.95293 -0.38642,0.99646 -0.32031,0.0455 -0.34129,0.12051 -0.34129,1.221 0,0.64489 -0.0693,1.24188 -0.15411,1.32663 -0.10436,0.10436 -0.006,0.65121 0.30335,1.69398 0.25161,0.84692 0.45747,1.84249 0.45747,2.21238 0,0.62153 -0.0373,0.68584 -0.49296,0.84841 -0.60029,0.21421 -5.13637,0.33462 -6.44015,0.17095 z"
       style="fill:#000000;stroke-width:0.151677" />
    <path
       id="path29"
       d="m 192.88394,121.60369 c -0.0556,-0.0556 -0.0998,-27.357505 -0.098,-60.670729 l 0.003,-60.56949295 h 12.20691 12.2069 V 61.034205 121.70493 h -12.10886 c -6.65987,0 -12.15442,-0.0456 -12.21011,-0.10127 z"
       style="fill:#000000;stroke-width:0.151677" />
    <path
       id="path25"
       d="M 95.861433,61.034205 V 0.36346805 h 12.208277 12.20828 l 9.7e-4,60.67073695 9.6e-4,60.670725 H 108.07111 95.861588 Z"
       style="fill:#000000;stroke-width:0.151677" />
  </g>
</svg>
