<?xml version="1.0" encoding="UTF-8" standalone="no"?>
<svg
   xmlns:dc="http://purl.org/dc/elements/1.1/"
   xmlns:cc="http://creativecommons.org/ns#"
   xmlns:rdf="http://www.w3.org/1999/02/22-rdf-syntax-ns#"
   xmlns:svg="http://www.w3.org/2000/svg"
   xmlns="http://www.w3.org/2000/svg"
   xmlns:sodipodi="http://sodipodi.sourceforge.net/DTD/sodipodi-0.dtd"
   xmlns:inkscape="http://www.inkscape.org/namespaces/inkscape"
   sodipodi:docname="leech-wraith 3.svg"
   id="svg8"
   version="1.1"
   viewBox="0 0 66.040529 66.040527"
   height="66.040527mm"
   width="66.040527mm"
   inkscape:version="1.0.1 (3bc2e813f5, 2020-09-07)"
   inkscape:export-filename="C:\GitHub\Supernova-Shipyard-Source\Vectors - Outlines Ships\leech-wraith 4.png"
   inkscape:export-xdpi="96"
   inkscape:export-ydpi="96">
  <defs
     id="defs2" />
  <sodipodi:namedview
     id="base"
     pagecolor="#ffffff"
     bordercolor="#666666"
     borderopacity="1.0"
     inkscape:pageopacity="0.0"
     inkscape:pageshadow="2"
     inkscape:zoom="0.49497478"
     inkscape:cx="467.00226"
     inkscape:cy="132.19345"
     inkscape:document-units="mm"
     inkscape:current-layer="layer1"
     showgrid="false"
     inkscape:window-width="1855"
     inkscape:window-height="1057"
     inkscape:window-x="1977"
     inkscape:window-y="-8"
     inkscape:window-maximized="1"
     inkscape:document-rotation="0" />
  <metadata
     id="metadata5">
    <rdf:RDF>
      <cc:Work
         rdf:about="">
        <dc:format>image/svg+xml</dc:format>
        <dc:type
           rdf:resource="http://purl.org/dc/dcmitype/StillImage" />
        <dc:title></dc:title>
      </cc:Work>
    </rdf:RDF>
  </metadata>
  <g
     inkscape:label="Layer 1"
     inkscape:groupmode="layer"
     id="layer1"
     transform="translate(138.79312,-107.89942)">
    <path
       style="fill:#000000;stroke-width:0.0825511"
       d="m -138.79312,169.85371 v -4.08626 h 33.02027 33.020259 v 4.08626 4.08624 h -33.020259 -33.02027 z"
       id="path24" />
    <path
       style="fill:#000000;stroke-width:0.0825511"
       d="m -138.79312,111.98568 v -4.08626 h 33.02027 33.020259 v 4.08626 4.08626 h -33.020259 -33.02027 z"
       id="path30" />
    <path
       style="fill:#000000;stroke-width:0.0825511"
       d="m -106.46173,162.59264 c -0.3903,-0.13915 -0.63769,-0.3659 -1.00827,-0.92421 -0.44984,-0.67772 -0.79852,-1.57196 -1.97455,-5.06412 -1.25404,-3.72379 -1.52468,-4.44197 -2.19326,-5.81982 -0.75454,-1.55503 -1.38703,-2.44468 -3.06813,-4.31558 -1.45546,-1.61977 -2.59572,-2.42309 -4.36595,-3.0758 -2.30219,-0.84886 -7.10345,-1.75268 -12.04402,-2.26729 -1.52075,-0.15838 -1.75845,-0.2235 -1.98678,-0.54415 -0.27367,-0.38433 -0.71036,-0.54929 -2.1608,-0.81622 -1.72146,-0.31683 -2.17989,-0.45515 -2.47005,-0.74532 -0.22096,-0.22093 -0.23407,-0.27405 -0.23407,-0.94752 0,-0.3924 0.0383,-0.78493 0.0849,-0.87228 0.18199,-0.34003 0.80872,-0.54846 2.59191,-0.86196 1.46012,-0.2567 1.68336,-0.34051 2.20374,-0.82725 0.21754,-0.20349 0.41634,-0.36998 0.44177,-0.36998 0.22741,0 4.11169,-0.46411 5.24407,-0.62658 5.5287,-0.79326 8.88034,-1.48893 11.3243,-2.35047 0.64136,-0.2261 1.48354,-0.46644 1.87153,-0.5341 0.73497,-0.12818 0.83379,-0.19116 0.83751,-0.53383 0.004,-0.33106 0.21453,-1.03535 0.47638,-1.59062 0.2593,-0.54984 3.24693,-5.05209 3.90407,-5.88327 0.49246,-0.62291 1.22333,-1.20228 1.952,-1.54743 0.49471,-0.23434 0.64351,-0.26564 1.26249,-0.26564 0.6202,0 0.76736,0.0311 1.26736,0.26793 0.7747,0.3669 1.52614,0.98594 2.05858,1.69587 0.59283,0.79047 3.538312,5.21103 3.751924,5.63086 0.216187,0.42493 0.516433,1.39878 0.518055,1.68035 0.0021,0.35268 0.09569,0.41649 0.788861,0.53751 0.361778,0.0631 1.325721,0.33939 2.142075,0.61386 2.60365,0.87538 5.773725,1.52568 11.136744,2.28456 1.154796,0.1634 4.98972,0.621 5.204346,0.621 0.023,0 0.242144,0.18141 0.486981,0.40313 0.521135,0.47194 0.642341,0.51698 2.119422,0.7873 1.957985,0.35838 2.448799,0.52008 2.635105,0.86818 0.04692,0.0877 0.0853,0.48046 0.0853,0.87286 0,0.67347 -0.01314,0.72659 -0.234075,0.94752 -0.277596,0.27761 -0.791646,0.44241 -2.077345,0.66601 -1.871419,0.32547 -2.08135,0.39929 -2.575606,0.90568 -0.360778,0.36963 -0.321409,0.36007 -2.377435,0.57705 -3.854234,0.40676 -7.785478,1.09342 -10.222149,1.78547 -2.733849,0.77646 -3.979513,1.52827 -5.707162,3.4445 -1.19697,1.32762 -1.592025,1.81298 -2.125086,2.61081 -1.079343,1.61548 -1.599915,2.84127 -3.114535,7.33364 -1.42848,4.23696 -1.69153,4.8759 -2.3463,5.69901 -0.48856,0.61421 -1.31706,0.83091 -2.10393,0.55034 z"
       id="path28" />
  </g>
</svg>
