<?xml version="1.0" encoding="UTF-8" standalone="no"?>
<!-- Created with Inkscape (http://www.inkscape.org/) -->

<svg
   xmlns:dc="http://purl.org/dc/elements/1.1/"
   xmlns:cc="http://creativecommons.org/ns#"
   xmlns:rdf="http://www.w3.org/1999/02/22-rdf-syntax-ns#"
   xmlns:svg="http://www.w3.org/2000/svg"
   xmlns="http://www.w3.org/2000/svg"
   xmlns:sodipodi="http://sodipodi.sourceforge.net/DTD/sodipodi-0.dtd"
   xmlns:inkscape="http://www.inkscape.org/namespaces/inkscape"
   inkscape:export-ydpi="96"
   inkscape:export-xdpi="96"
   inkscape:export-filename="D:\GitHub\wills-spaceships\Outlines Ships\arrow-vls 4.png"
   inkscape:version="0.92.4 (5da689c313, 2019-01-14)"
   width="99.533089mm"
   height="331.77664mm"
   viewBox="0 0 99.533092 331.77664"
   version="1.1"
   id="svg8"
   sodipodi:docname="leviathan-civilian 3.svg">
  <defs
     id="defs2">
    <pattern
       y="0"
       x="0"
       height="6"
       width="6"
       patternUnits="userSpaceOnUse"
       id="EMFhbasepattern" />
  </defs>
  <sodipodi:namedview
     id="base"
     pagecolor="#ffffff"
     bordercolor="#666666"
     borderopacity="1.0"
     inkscape:pageopacity="0.0"
     inkscape:pageshadow="2"
     inkscape:zoom="0.35"
     inkscape:cx="-101.99549"
     inkscape:cy="610.2421"
     inkscape:document-units="mm"
     inkscape:current-layer="layer1"
     showgrid="false"
     inkscape:window-width="1920"
     inkscape:window-height="1017"
     inkscape:window-x="-8"
     inkscape:window-y="-8"
     inkscape:window-maximized="1"
     showguides="true"
     inkscape:guide-bbox="true">
    <sodipodi:guide
       inkscape:locked="false"
       id="guide833"
       orientation="0,1"
       position="126.99996,331.93617" />
    <sodipodi:guide
       inkscape:locked="false"
       id="guide835"
       orientation="0,1"
       position="236.74865,0.25717351" />
  </sodipodi:namedview>
  <metadata
     id="metadata5">
    <rdf:RDF>
      <cc:Work
         rdf:about="">
        <dc:format>image/svg+xml</dc:format>
        <dc:type
           rdf:resource="http://purl.org/dc/dcmitype/StillImage" />
        <dc:title />
      </cc:Work>
    </rdf:RDF>
  </metadata>
  <g
     inkscape:label="Layer 1"
     inkscape:groupmode="layer"
     id="layer1"
     transform="translate(794.11745,226.79783)">
    <path
       style="fill:#000000;stroke-width:0.2112115"
       d="m -770.78085,104.72164 c -1.18409,-0.37961 -2.37297,-1.61363 -2.74241,-2.84648 -0.23653,-0.78952 -0.39419,-0.93181 -1.75486,-1.58351 -1.6312,-0.781232 -3.32906,-1.27722 -3.77992,-1.104193 -0.15743,0.06035 -0.54523,0.639206 -0.86183,1.286253 -0.89431,1.82791 -2.4698,2.69039 -4.71176,2.57932 -2.19991,-0.10901 -3.24525,-0.84024 -3.99045,-2.79138 -0.29712,-0.778119 -0.54737,-1.045047 -1.37097,-1.46238 -1.65235,-0.837324 -1.67047,-0.89674 -1.67047,-5.477261 0,-4.246664 0.23261,-6.760696 1.28067,-13.838874 1.47587,-9.967561 1.50157,-10.232062 1.67328,-17.213737 0.17737,-7.209329 0.26631,-7.841399 1.36761,-9.720741 0.88187,-1.504734 2.38375,-2.205998 3.61908,-1.689839 l 0.7096,0.296481 0.23796,-0.883711 c 0.66992,-2.488046 2.3325,-4.105002 3.9273,-3.819609 2.01828,0.361166 3.53893,2.749419 4.39477,6.902366 0.21944,1.065097 0.56063,0.362419 0.50946,-1.049315 l -0.0495,-1.368292 2.46412,0.0024 2.46421,0.0024 1.89249,1.066845 c 1.04087,0.586744 1.98293,1.091943 2.09333,1.122629 0.11048,0.03065 1.05389,-0.324397 2.09652,-0.78906 l 1.89559,-0.844843 0.0975,-4.646659 c 0.079,-3.75846 0.16836,-4.828315 0.46788,-5.597107 0.20372,-0.522745 0.35315,-1.093012 0.33216,-1.267268 -0.0208,-0.174249 -0.0832,-1.631285 -0.1381,-3.237847 l -0.0998,-2.921056 0.75094,-0.70817 c 0.98508,-0.929099 0.98819,-1.597119 0.012,-2.51815 l -0.73929,-0.697208 v -2.139975 c 0,-1.554009 -0.0726,-2.148781 -0.264,-2.172141 -0.1452,-0.01774 -0.38684,-0.04228 -0.53692,-0.05466 -0.15007,-0.01225 -0.34014,-0.13055 -0.42236,-0.262642 -0.10929,-0.175496 -0.63297,-0.135112 -1.94486,0.150023 -0.98747,0.214592 -2.21746,0.447452 -2.73347,0.517448 -0.51601,0.06999 -1.60901,0.268471 -2.42892,0.441052 -0.81992,0.172581 -1.84722,0.358658 -2.28284,0.413489 -0.78271,0.09853 -0.79205,0.09103 -0.79205,-0.635811 0,-0.724836 -0.0111,-0.734234 -0.79206,-0.64713 -3.01016,0.33591 -3.39293,0.333481 -4.14786,-0.02651 -0.41949,-0.200249 -0.76276,-0.49189 -0.76276,-0.648271 0,-0.156381 -0.14257,-0.339036 -0.31683,-0.405907 -0.17475,-0.06704 -0.31684,-0.38056 -0.31684,-0.699004 0,-0.529211 -0.0993,-0.599629 -1.18936,-0.843599 -3.10962,-0.6959 -7.28757,-2.399574 -7.54781,-3.077838 -0.0719,-0.187302 -0.21841,-0.286382 -0.32555,-0.220168 -0.33814,0.209016 -1.49677,-0.950789 -2.07264,-2.074856 -0.3047,-0.59473 -0.85337,-1.841343 -1.21914,-2.770208 -0.51026,-1.29553 -0.75996,-1.68908 -1.07208,-1.689693 -0.818,-0.0021 -1.31525,-3.041234 -0.56615,-3.4604682 0.33017,-0.1848097 0.31078,-0.2292276 -0.1824,-0.4167412 -0.30367,-0.1154272 -0.6233,-0.3834967 -0.71031,-0.5956795 -0.0871,-0.2121836 -0.20835,-2.2191786 -0.26951,-4.4599638 -0.0993,-3.63740061 -0.15191,-4.09594013 -0.49086,-4.27732853 -0.29656,-0.15870454 -0.35571,-0.3764428 -0.27061,-0.99491207 0.54657,-3.9689812 1.3649,-6.75465 3.02788,-10.3070587 l 1.02099,-2.180928 3.98007,-0.0844 c 2.18903,-0.04642 4.17013,-0.140034 4.40251,-0.208045 0.2323,-0.06801 0.50954,-0.130929 0.61603,-0.139821 0.36618,-0.03056 -0.0367,-0.246061 -0.64293,-0.343683 -2.1619,-0.348267 -4.87135,-1.053797 -5.09279,-1.326113 -0.144,-0.177121 -0.3221,-0.261754 -0.39579,-0.188084 -0.19742,0.197377 -1.69571,-0.619103 -2.0412,-1.112282 -0.16373,-0.233833 -0.61842,-1.220042 -1.01038,-2.191594 -0.55848,-1.384365 -0.8326,-1.811772 -1.26743,-1.975906 -0.42229,-0.1594 -0.61316,-0.440924 -0.79892,-1.178538 -0.33823,-1.343495 -0.31316,-2.049322 0.0726,-2.049322 0.59886,0 0.2869,-1.298532 -0.38262,-1.592402 -0.58961,-0.258823 -0.73569,-1.281353 -0.76052,-5.324775 -0.0152,-2.471192 -0.0726,-3.009765 -0.32283,-3.009765 -0.1674,0 -0.35484,-0.08162 -0.41646,-0.181386 -0.16923,-0.273842 0.45295,-4.129996 0.9577,-5.935947 0.53118,-1.900255 2.60207,-6.772485 2.98078,-7.012847 0.14703,-0.09332 2.7622,-0.171133 5.81163,-0.172912 l 5.54429,-0.0032 v -1.056058 -1.056057 h -3.90742 -3.90741 v -0.745869 c 0,-0.410229 -0.11879,-0.78819 -0.26399,-0.839913 -0.23374,-0.08325 -1.52249,-0.258866 -2.20206,-0.300066 -0.13659,-0.0082 -0.56383,-0.786619 -0.94939,-1.729641 -0.50221,-1.228192 -0.83908,-1.767059 -1.18761,-1.89956 -0.53947,-0.205131 -1.01565,-1.17194 -1.22648,-2.490322 -0.12245,-0.765578 -0.0907,-0.865512 0.27501,-0.865512 0.38549,0 0.39931,-0.07807 0.20476,-1.151357 -0.16764,-0.924933 -0.29552,-1.163768 -0.65043,-1.214466 -0.56751,-0.08106 -0.72181,-1.038758 -0.74297,-4.61002 -0.0136,-2.366415 -0.0599,-2.683923 -0.43466,-3.004818 -0.34653,-0.296674 -0.39898,-0.533408 -0.30287,-1.367012 0.21698,-1.882067 0.74991,-4.382358 1.25857,-5.904705 0.49924,-1.494288 2.13069,-5.308343 2.39748,-5.604839 0.0751,-0.08359 1.75062,-0.203679 3.72317,-0.266865 1.97255,-0.06319 3.82408,-0.146276 4.1145,-0.184645 0.29041,-0.03836 0.65171,-0.08461 0.80298,-0.102752 0.15128,-0.01814 0.37208,-0.311315 0.49063,-0.651484 0.15422,-0.442469 0.34645,-0.611789 0.67543,-0.594945 1.01924,0.05219 1.83276,-0.06546 1.83276,-0.265047 0,-0.132521 -1.35747,-0.212417 -3.64342,-0.214445 -2.00385,-0.0017 -3.75359,-0.07337 -3.88835,-0.159096 -0.13475,-0.08572 -0.27732,-0.437663 -0.31683,-0.782086 -0.0591,-0.516302 -0.20165,-0.659066 -0.81114,-0.81331 -1.25274,-0.317037 -1.90023,-0.606284 -1.91459,-0.855239 -0.0303,-0.521011 -1.38925,-2.984141 -1.64661,-2.984141 -0.41135,0 -0.82478,-0.672373 -1.19359,-1.941112 -0.35093,-1.207021 -0.28714,-1.601268 0.22703,-1.403946 0.26327,0.100995 0.29376,-0.03406 0.18129,-0.801272 -0.0976,-0.665232 -0.31356,-1.075052 -0.77417,-1.468528 l -0.63886,-0.545783 -0.10678,-3.520036 c -0.0583,-1.936024 -0.18512,-3.520044 -0.28091,-3.520044 -0.73874,0 -0.59129,-2.7406 0.33703,-6.26408 0.28027,-1.06384 1.02866,-3.10732 1.66313,-4.54105 l 1.15351,-2.6068 1.972,-0.11767 c 2.18944,-0.13063 3.43428,-0.55519 3.61118,-1.23155 0.10174,-0.38905 0.0256,-0.44608 -0.598,-0.44608 -0.5216,0 -0.80443,-0.13716 -1.04742,-0.50792 -0.18297,-0.27935 -0.55879,-0.56465 -0.83499,-0.63397 -0.8968,-0.22509 -1.91436,-1.42976 -2.55682,-3.02693 -0.49214,-1.2234 -0.70472,-1.5292 -1.06451,-1.53129 -0.47921,-0.002 -0.68308,-0.36888 -1.23661,-2.22032 -0.17363,-0.58083 -0.31676,-1.07983 -0.31803,-1.10886 0,-0.029 0.20029,-0.0528 0.44775,-0.0528 0.40209,0 0.43641,-0.0844 0.32171,-0.79135 -0.071,-0.43525 -0.25657,-0.88672 -0.41319,-1.00326 -0.85839,-0.6389 -1.02109,-1.29432 -1.13747,-4.58096 -0.0758,-2.14965 -0.20029,-3.3054 -0.3704,-3.44577 -1.06419,-0.87838 -0.0511,-6.31156 2.06882,-11.09517 0.6395,-1.44298 1.28818,-2.66237 1.4417,-2.70976 0.15342,-0.0473 0.40839,-0.18889 0.56661,-0.31447 0.15814,-0.12558 0.59312,-0.202 0.96656,-0.16982 0.41582,0.0359 0.78431,-0.0684 0.95075,-0.26903 0.14951,-0.18013 0.35675,-0.27501 0.46061,-0.21085 0.10378,0.0642 0.24714,-0.0356 0.31859,-0.22169 0.0719,-0.18609 0.4662,-0.51093 0.87739,-0.72185 0.53325,-0.2736 0.84976,-0.64493 1.10409,-1.29559 0.32866,-0.84052 0.46867,-0.95479 1.78449,-1.45644 1.19342,-0.455 1.48503,-0.66573 1.77609,-1.28361 0.32146,-0.68254 0.48575,-0.77656 2.1417,-1.22581 1.51705,-0.41155 1.98891,-0.45636 3.06085,-0.29063 0.69697,0.10776 1.93255,0.18414 2.74568,0.16975 1.46093,-0.0259 1.47929,-0.0333 1.54731,-0.6273 0.0663,-0.58229 0.0997,-0.59792 1.05604,-0.49903 0.86693,0.0896 2.96928,0.50143 7.57376,1.4835 1.20181,0.25632 1.33248,0.24792 1.63488,-0.10517 0.18072,-0.21108 0.5101,-0.38378 0.73202,-0.38378 0.36226,0 0.41103,-0.19669 0.47729,-1.92417 0.0719,-1.8753 0.0914,-1.93874 0.76028,-2.49712 0.89663,-0.74838 0.88234,-1.36534 -0.0527,-2.2735 l -0.73928,-0.71794 v -2.76043 -2.76044 l 0.81743,-0.81744 c 0.54898,-0.54892 0.85975,-1.07846 0.9462,-1.61204 0.071,-0.43703 0.36586,-1.50744 0.65555,-2.37868 0.59712,-1.79554 0.67351,-2.79261 0.24148,-3.15118 -0.18783,-0.15587 -0.93965,-0.22336 -2.05262,-0.18427 l -1.75628,0.0617 -0.92003,1.32006 c -0.85998,1.2339 -0.97342,1.32008 -1.73841,1.32008 -0.67989,0 -0.90965,-0.11957 -1.35724,-0.70637 -0.29631,-0.38851 -0.53876,-0.91126 -0.53876,-1.16166 0,-0.25041 -0.0951,-0.4553 -0.21122,-0.4553 -0.11615,0 -0.21122,0.36855 -0.21122,0.81899 0,1.14968 -0.31078,1.32222 -2.25051,1.24957 l -1.65691,-0.062 -0.35524,-1.37288 c -0.46898,-1.8128 -0.51034,-4.9754 -0.067,-5.14545 0.23933,-0.0919 0.31685,-0.47856 0.31685,-1.58081 0,-1.03946 0.0911,-1.5349 0.31683,-1.72219 0.26782,-0.2223 0.31691,-1.18129 0.31748,-6.2038 4.7e-4,-3.26748 0.0631,-7.43783 0.13874,-9.26745 0.12285,-2.96265 0.17801,-3.32658 0.5042,-3.32658 0.54546,0 0.59599,0.6709 0.75557,10.02491 0.13458,7.8867 0.16994,8.46212 0.53859,8.76526 0.21698,0.17846 0.4389,0.56083 0.49318,0.84972 0.0543,0.28888 0.31357,0.68851 0.57636,0.88809 0.46643,0.35433 0.47929,0.34943 0.54642,-0.20841 0.11024,-0.91674 1.2434,-1.94501 2.13763,-1.93977 0.68859,0.004 0.82487,0.11742 1.64956,1.37287 l 0.89904,1.36849 h 1.88713 c 1.03784,0 1.93343,-0.0751 1.9901,-0.16679 0.0567,-0.0918 -0.42164,-1.90898 -1.0629,-4.03832 l -1.16597,-3.87154 -1.31165,-1.22697 c -0.72141,-0.67484 -1.52217,-1.40005 -1.77945,-1.61158 -0.40983,-0.33696 -0.44161,-0.47463 -0.25649,-1.1109 0.17036,-0.58513 0.14433,-0.80039 -0.13371,-1.10762 -0.32234,-0.35623 -0.1187,-1.12227 3.09181,-11.6296 l 3.43692,-11.24825 2.35022,-2.33966 2.35021,-2.33965 3.93249,-0.99877 3.93248,-0.99878 3.98797,1.00046 3.98789,1.00046 2.35069,2.33797 2.3507,2.33797 3.43587,11.24885 c 3.20741,10.50081 3.41305,11.27418 3.09134,11.6296 -0.27333,0.30207 -0.30271,0.52669 -0.14202,1.08708 0.1971,0.68709 0.16533,0.74052 -1.16716,1.96148 -0.75334,0.69033 -1.55161,1.41214 -1.77393,1.60403 -0.41607,0.35922 -2.8268,7.9897 -2.62651,8.31374 0.0567,0.0917 0.94245,0.16679 1.96832,0.16679 h 1.86519 l 0.92089,-1.36619 c 0.8405,-1.24704 0.98628,-1.36678 1.67144,-1.37288 0.94181,-0.009 2.10075,1.07396 2.10075,1.96194 0,0.5688 0.007,0.57144 0.53971,0.22203 0.29681,-0.1945 0.59449,-0.62776 0.66154,-0.96282 0.067,-0.33507 0.28507,-0.69657 0.48464,-0.80337 0.32992,-0.17659 0.37575,-0.96453 0.50578,-8.70497 0.15822,-9.41962 0.20875,-10.0949 0.75534,-10.0949 0.32617,0 0.38134,0.36393 0.50419,3.32658 0.0758,1.82962 0.13835,5.99997 0.13874,9.26745 5.6e-4,5.02251 0.0495,5.9815 0.31748,6.2038 0.22567,0.18729 0.31684,0.68273 0.31684,1.72219 0,1.10225 0.0774,1.48897 0.31683,1.58081 0.44313,0.17005 0.40178,3.33265 -0.067,5.14545 l -0.35523,1.37288 -1.65691,0.062 c -1.93975,0.0726 -2.25051,-0.0999 -2.25051,-1.24957 0,-0.45044 -0.0951,-0.81899 -0.21123,-0.81899 -0.11615,0 -0.21123,0.20489 -0.21123,0.4553 0,0.2504 -0.24243,0.77315 -0.53876,1.16166 -0.44759,0.5868 -0.67733,0.70637 -1.35723,0.70637 -0.76499,0 -0.87842,-0.0862 -1.73842,-1.32008 l -0.92001,-1.32006 -1.7563,-0.0617 c -1.11295,-0.0391 -1.86478,0.0284 -2.05261,0.18427 -0.45103,0.37431 -0.35922,1.327 0.33735,3.50148 0.34845,1.08794 0.63359,2.15585 0.63359,2.37312 0,0.21728 0.38023,0.77523 0.84482,1.2399 l 0.8449,0.84484 v 2.76044 2.76043 l -0.73928,0.71794 c -0.93511,0.90816 -0.9494,1.52512 -0.0527,2.2735 0.66896,0.55838 0.68828,0.62182 0.76028,2.49712 0.0687,1.7933 0.10464,1.92636 0.52799,1.95635 0.24986,0.0177 0.54929,0.0543 0.66544,0.0813 0.11615,0.027 0.42508,0.0601 0.68644,0.0735 0.28787,0.0148 0.47522,0.15967 0.47522,0.36758 0,0.34793 0.0455,0.34685 1.79533,-0.0424 0.2323,-0.0517 0.66002,-0.13954 0.95043,-0.19523 0.29041,-0.0557 0.76563,-0.15073 1.05604,-0.2112 0.29042,-0.0605 0.76563,-0.15609 1.05604,-0.21246 1.09293,-0.21211 1.59953,-0.31556 2.1121,-0.43127 1.07936,-0.24363 2.74951,-0.44383 2.85154,-0.3418 0.0583,0.058 0.10549,0.31694 0.10549,0.57541 0,0.31176 0.15997,0.50942 0.47521,0.58726 0.57333,0.14157 2.91485,0.0391 4.01679,-0.17595 0.56805,-0.11079 1.3451,-0.0123 2.71535,0.34422 1.85711,0.48317 1.92992,0.52511 2.23558,1.28798 0.27373,0.68334 0.48576,0.85048 1.58914,1.25278 1.09237,0.39832 1.32458,0.57907 1.63519,1.2728 0.3914,0.87427 1.78088,2.27297 2.65244,2.67008 0.29752,0.13559 0.82175,0.24652 1.16477,0.24652 0.34302,0 0.6237,0.0951 0.6237,0.21122 0,0.11617 0.12812,0.21121 0.28475,0.21121 0.15662,0 0.43338,0.35642 0.61507,0.79205 0.18161,0.43562 0.7191,1.67332 1.19423,2.75044 1.02307,2.31892 1.59504,4.28823 2.03162,6.99428 0.32019,1.9849 0.27868,2.59937 -0.21569,3.19198 -0.17179,0.20591 -0.30639,1.41344 -0.38438,3.44925 -0.1219,3.18119 -0.29105,3.84142 -1.14761,4.47859 -0.16165,0.12024 -0.34765,0.61924 -0.41334,1.10887 -0.10646,0.79426 -0.0726,0.89023 0.31149,0.89023 0.42644,0 0.42707,0.0125 0.0631,1.21594 -0.4998,1.65051 -0.82829,2.22096 -1.19757,2.07928 -0.21866,-0.084 -0.53494,0.3814 -1.12039,1.6487 -0.62745,1.35803 -1.00352,1.89319 -1.62905,2.31826 -0.44727,0.30395 -0.91595,0.55264 -1.04136,0.55264 -0.1254,0 -0.4389,0.28514 -0.6965,0.63364 -0.25768,0.3485 -0.60821,0.63364 -0.77896,0.63364 -0.36361,0 -0.38229,0.10485 -0.10928,0.61502 0.33463,0.62524 1.96832,1.12064 3.43116,1.04048 l 1.3032,-0.0714 0.99465,2.12546 c 1.81824,3.88537 3.30727,9.78437 2.73818,10.8477 -0.12916,0.24133 -0.32649,0.43878 -0.43857,0.43878 -0.11839,0 -0.20381,0.96064 -0.20381,2.29234 0,3.648636 -0.18248,4.884821 -0.76003,5.147945 -0.35053,0.159708 -0.54611,0.507902 -0.70712,1.258515 -0.27724,1.292648 -0.28156,1.228142 0.0818,1.228142 0.48983,0 0.53932,0.288785 0.22735,1.32541 -0.40896,1.358918 -0.69538,1.834409 -1.23103,2.043404 -0.30638,0.119568 -0.67032,0.682449 -1.07895,1.668788 -0.65299,1.575959 -0.89391,1.773908 -2.49878,2.052904 -0.72635,0.126274 -0.79205,0.195155 -0.79205,0.830828 0,0.437209 -0.12334,0.740473 -0.33408,0.821339 -0.18376,0.07052 -1.94206,0.128205 -3.90743,0.128205 -2.2414,0 -3.57334,0.07873 -3.57334,0.21121 0,0.116168 0.30895,0.229036 0.68645,0.250821 0.77425,0.04467 1.58602,0.100921 2.06587,0.143151 0.17778,0.01565 0.42324,0.29322 0.54538,0.616826 0.12574,0.333199 0.39771,0.60461 0.62714,0.625805 0.22279,0.0206 2.02986,0.101199 4.01574,0.179131 l 3.61078,0.141699 0.96831,2.136655 c 1.33193,2.938762 1.95562,4.892954 2.46565,7.725594 0.44775,2.486486 0.42987,3.051342 -0.10293,3.255801 -0.24793,0.09513 -0.30877,0.63443 -0.30877,2.735782 0,3.584674 -0.15128,4.564815 -0.73888,4.788239 -0.34734,0.132037 -0.51952,0.449756 -0.67782,1.250239 -0.16357,0.827044 -0.15216,1.073217 0.0495,1.073217 0.83588,0 0.1848,2.870839 -0.75198,3.315679 -0.38613,0.183331 -0.72851,0.727309 -1.23015,1.954174 -0.46261,1.131505 -0.81353,1.708275 -1.0491,1.72449 -0.19462,0.01339 -0.44895,0.04644 -0.5651,0.07343 -0.11615,0.02699 -0.56766,0.06355 -1.00328,0.08125 -0.77784,0.03159 -0.79206,0.04727 -0.79206,0.877016 v 0.844846 h -3.90741 -3.90742 v 1.056058 1.056058 l 5.54429,0.0032 c 3.04943,0.0017 5.65087,0.07306 5.78106,0.158409 0.37727,0.247315 2.33066,4.840072 2.90231,6.823654 0.28698,0.995837 0.67662,2.706651 0.86581,3.801808 0.33872,1.960332 0.33736,1.996627 -0.0879,2.341864 -0.39323,0.319217 -0.43195,0.586438 -0.43195,2.978784 0,3.975414 -0.17083,5.215251 -0.7551,5.481473 -0.54266,0.247249 -0.88002,1.205519 -0.50579,1.436788 0.31029,0.191756 0.32355,1.825896 0.0208,2.589045 -0.12788,0.322584 -0.43243,0.660479 -0.67685,0.750899 -0.30615,0.113252 -0.69571,0.773521 -1.25219,2.122508 -0.90613,2.196747 -1.21562,2.620923 -2.17946,2.987523 -0.36913,0.140392 -0.9688,0.385799 -1.33249,0.545327 -0.96152,0.421684 -4.44379,1.222598 -5.88619,1.353782 -0.35772,0.03255 -0.34159,0.06307 0.1056,0.199277 0.29041,0.08848 2.38134,0.177228 4.64662,0.19723 3.59098,0.03172 4.16159,0.08282 4.45432,0.398936 0.44264,0.477929 2.13516,4.3589836 2.8228,6.4727668 0.58355,1.7937138 1.43563,6.20011432 1.25538,6.4917754 -0.0599,0.0969687 -0.24596,0.17629898 -0.41336,0.17629898 -0.25121,0 -0.30797,0.58064144 -0.32522,3.32658142 -0.0287,4.5425682 -0.16684,5.5932815 -0.77129,5.8584788 -0.40848,0.179213 -0.45566,0.312952 -0.33528,0.9504519 0.31364,1.6613057 0.0719,2.8981387 -0.58577,2.9977667 -0.34207,0.05181 -0.57932,0.434695 -1.0234,1.651527 -1.0677,2.925913 -2.37209,5.069077 -3.08535,5.069077 -0.13827,0 -0.37616,0.150319 -0.52863,0.334052 -0.59144,0.712606 -4.47467,2.289469 -7.3781,2.996014 -0.56111,0.136527 -0.75596,0.304165 -0.80841,0.695435 -0.0383,0.283551 -0.45406,0.871966 -0.92441,1.307589 -0.81832,0.757975 -1.07672,0.892538 -1.53725,0.800703 -0.11407,-0.02275 -0.81799,-0.07982 -1.56415,-0.126812 -0.74615,-0.04699 -1.5319,-0.141088 -1.74624,-0.209078 -0.33048,-0.104908 -0.38955,-0.0057 -0.38955,0.654355 v 0.778045 l -1.19071,-0.129831 c -0.65492,-0.07142 -1.53407,-0.219533 -1.95372,-0.329152 -0.41965,-0.109598 -1.19071,-0.257826 -1.71342,-0.329343 -0.52272,-0.07152 -1.28309,-0.213323 -1.68972,-0.315106 -0.40657,-0.101805 -1.07185,-0.237148 -1.4785,-0.300786 -0.40657,-0.06364 -0.9723,-0.163182 -1.25721,-0.221223 -0.28482,-0.05806 -0.57579,-0.01183 -0.64652,0.102479 -0.0703,0.114413 -0.55042,0.245766 -1.06611,0.291916 -0.51561,0.04612 -1.00016,0.09333 -1.07672,0.104887 -0.0767,0.01162 -0.17163,1.029572 -0.21122,2.262266 -0.0719,2.235314 -0.0735,2.242749 -0.75845,2.813928 -0.94612,0.789319 -0.92584,1.559903 0.0647,2.467247 l 0.75118,0.688043 -0.1073,2.811939 c -0.0591,1.54658 -0.12174,3.049557 -0.13945,3.339979 -0.0176,0.290414 0.12022,1.047734 0.30653,1.68291 0.2616,0.891925 0.33872,2.127239 0.33872,5.42526 v 4.270382 l 2.01828,0.956068 2.0183,0.956052 2.08878,-1.166694 2.08877,-1.166711 2.44059,-0.03992 2.44058,-0.03992 -9e-5,1.425672 c -7e-5,1.437525 0.30966,1.925825 0.53589,0.84485 0.74017,-3.537177 1.84466,-5.556362 3.50173,-6.401756 1.23654,-0.630785 2.15496,-0.420877 3.27782,0.74917 0.78575,0.818763 0.98372,1.225638 1.66785,3.427286 0.0599,0.19383 0.22383,0.181241 0.67008,-0.05148 0.77887,-0.40627 1.02897,-0.391486 2.09333,0.123749 0.5908,0.286023 1.112,0.772782 1.52654,1.425679 1.22121,1.923647 1.33177,2.671739 1.5196,10.284686 0.16286,6.600297 0.21786,7.278051 1.03761,12.778295 0.47617,3.19458 1.05963,7.138952 1.29665,8.765279 0.29225,2.005327 0.46819,4.588336 0.54666,8.026041 0.11272,4.93819 0.1041,5.083645 -0.33288,5.633308 -0.24667,0.310332 -0.85472,0.719338 -1.35117,0.908946 -0.78871,0.301207 -0.94956,0.476876 -1.27461,1.39203 -0.72357,2.03724 -2.1611,2.9178 -4.60504,2.82079 -1.7662,-0.0701 -2.99978,-0.69807 -3.77818,-1.92336 -0.35531,-0.55928 -0.69945,-1.228459 -0.76483,-1.487045 -0.107,-0.423033 -0.22408,-0.461438 -1.16829,-0.382967 -0.61842,0.05141 -1.74391,0.413125 -2.74065,0.880832 -1.65092,0.77473 -1.70512,0.82442 -2.27693,2.08544 -0.69028,1.52241 -1.35429,2.10307 -2.92833,2.56064 -0.95091,0.27644 -1.3673,0.29422 -2.3356,0.0998 -1.82647,-0.36679 -2.71359,-1.07428 -3.48961,-2.78298 -0.48639,-1.07091 -0.8156,-1.51828 -1.25026,-1.69878 -0.3245,-0.13475 -0.87285,-0.509232 -1.2185,-0.832167 l -0.62856,-0.587151 -0.61804,0.519999 -0.61794,0.520007 -1.38007,-0.906686 -1.38006,-0.906694 -0.008,-2.081914 c -0.007,-1.900904 -0.0367,-2.068247 -0.37399,-1.924852 -0.20333,0.08639 -1.36762,0.526976 -2.58739,0.979091 -2.91332,1.07988 -4.14882,1.402633 -6.75871,1.765578 -0.84826,0.117986 -5.75696,0.126544 -6.54758,0.01142 -0.29041,-0.0423 -1.04718,-0.143563 -1.68173,-0.225067 -1.35269,-0.173762 -3.54324,-0.822819 -6.34433,-1.879781 -1.10355,-0.416423 -2.00648,-0.758693 -2.00648,-0.760593 0,-0.0024 0.0303,0.887974 0.0663,1.97749 l 0.067,1.980948 -1.3961,0.975928 -1.39604,0.975921 -0.62266,-0.460312 -0.62257,-0.460296 -0.4769,0.437019 c -0.26239,0.240377 -0.86812,0.633262 -1.34622,0.873092 -0.62266,0.31236 -0.90373,0.60367 -0.99106,1.02708 -0.2307,1.11902 -1.30958,2.50959 -2.33058,3.00383 -1.24236,0.6014 -2.92209,0.73474 -4.17923,0.3317 z"
       id="path827"
       inkscape:connector-curvature="0"
       inkscape:export-xdpi="96"
       inkscape:export-ydpi="96" />
    <path
       style="fill:#000000;fill-opacity:1;fill-rule:nonzero;stroke:none;stroke-width:0.26458332"
       d="m -525.47099,-160.70611 -3.13262,-0.95239 -3.13263,-0.9529 v -32.10915 -32.10967 l -0.71985,-0.48681 c -0.57149,-0.381 -1.01603,-0.48678 -2.13786,-0.48678 -1.12182,0 -1.48135,-0.0851 -1.79885,-0.44492 -0.381,-0.40217 -0.6565,-0.42325 -8.21294,-0.42325 -7.55645,0 -7.83142,0.0212 -8.21242,0.42325 -0.3175,0.35981 -0.67757,0.44492 -1.82056,0.44492 -1.05833,0 -1.58746,0.10573 -2.07429,0.42323 l -0.65629,0.42323 -0.10542,30.33149 -0.10594,30.3108 -0.65629,0.14779 c -0.33866,0.0847 -0.93102,0.21196 -1.26969,0.29663 -0.33866,0.0847 -1.07959,0.63468 -1.67225,1.24851 l -1.05833,1.12189 v 1.71463 1.71461 l -1.46038,-0.12711 c -0.80431,-0.0847 -5.84213,-0.14832 -11.21843,-0.14832 h -9.75806 l 0.23306,-0.74052 c 0.21167,-0.6985 0.27503,-0.76234 1.43919,-0.88934 2.66698,-0.29634 4.78358,-1.03691 5.20691,-1.82005 0.99482,-1.86266 -1.12184,-3.02683 -5.79964,-3.15383 -2.62464,-0.0847 -2.68788,-0.0849 -3.40755,-0.74102 -1.69332,-1.4605 -5.01625,-2.60347 -7.66206,-2.60347 -1.60866,0 -4.27594,0.61404 -5.5671,1.27021 -0.46567,0.254 -1.3121,0.7828 -1.86242,1.20613 -0.9525,0.74081 -1.10072,0.7834 -2.68821,0.76221 -0.91016,0 -3.36568,-0.19039 -5.46116,-0.42323 -5.33396,-0.59264 -4.74132,-0.78324 -4.74132,1.48156 v 1.92599 l -1.18545,0.10593 c -0.635,0.0423 -1.33341,0.21151 -1.50275,0.35968 -0.42334,0.35983 -0.44457,1.82041 -0.0424,2.18022 0.16933,0.127 0.8683,0.2962 1.52445,0.38087 0.9525,0.0847 1.20613,0.19097 1.20613,0.48731 0,0.27516 -0.25403,0.40214 -1.07952,0.50797 -1.60866,0.1905 -1.94717,0.44437 -1.94717,1.4392 0,0.95247 0.55027,1.50275 1.50276,1.52392 0.71966,0 1.52393,0.21156 1.52393,0.42323 0,0.0847 -0.48686,0.21196 -1.07952,0.27546 -1.60866,0.1905 -1.94717,0.44436 -1.94717,1.46036 0,0.61384 0.10572,0.93142 0.40205,1.12189 0.42333,0.254 0.42333,0.25403 0,0.55036 -0.52916,0.381 -0.57157,1.81994 -0.0424,2.24327 0.1905,0.14817 0.88896,0.33906 1.54513,0.40256 l 1.18546,0.10541 0.38085,1.18547 c 0.27516,0.8255 0.65638,1.46042 1.27021,2.01073 0.84666,0.80433 0.86764,0.84685 0.86764,2.28616 0,1.43933 -0.0211,1.4815 -0.95239,2.47634 -0.63499,0.65616 -1.05801,1.35461 -1.24851,2.03192 l -0.29662,1.03714 -1.20664,0.10594 c -0.65617,0.0635 -1.35463,0.25386 -1.54513,0.40206 -0.52916,0.4445 -0.48675,1.9051 0.0424,2.24377 0.42333,0.254 0.42333,0.25403 0,0.55036 -0.27516,0.21167 -0.40205,0.55041 -0.40205,1.14308 0,0.99483 0.33851,1.2487 1.94717,1.4392 0.59266,0.0635 1.07952,0.19076 1.07952,0.27543 0,0.21167 -0.80427,0.42323 -1.52393,0.42323 -0.95249,0.0212 -1.50276,0.57145 -1.50276,1.52395 0,1.01597 0.33851,1.24867 1.94717,1.43917 0.82549,0.10583 1.07952,0.23283 1.07952,0.50797 0,0.29636 -0.25363,0.40217 -1.20613,0.508 -1.50282,0.14817 -1.82056,0.40254 -1.82056,1.43971 0,1.03714 0.38126,1.35453 1.84175,1.46037 l 1.18494,0.10593 v 1.92599 c 0,2.2648 -0.59264,2.07422 4.74132,1.48156 2.09548,-0.23284 4.551,-0.42323 5.46116,-0.42323 1.58749,0 1.73571,0.0209 2.68821,0.76171 0.55032,0.42333 1.39675,0.95263 1.86242,1.20663 1.29116,0.65617 3.95844,1.27021 5.5671,1.27021 2.64581,0 5.96874,-1.14297 7.66206,-2.60345 0.71967,-0.65616 0.78291,-0.65637 3.40755,-0.74104 3.95814,-0.10583 6.01152,-0.91038 6.01152,-2.30735 0,-1.31234 -1.41838,-2.05312 -4.95319,-2.58228 -1.65099,-0.254 -1.69315,-0.29626 -1.92598,-0.99476 l -0.21136,-0.71935 h 9.75755 c 5.3763,0 10.41412,-0.0636 11.21843,-0.14829 l 1.46038,-0.12714 v 1.77819 1.77765 l 1.03715,1.05834 c 0.86783,0.86783 1.22736,1.07979 2.32802,1.33379 l 1.29139,0.2749 0.10594,30.331988 0.10594,30.33149 0.65577,0.42323 c 0.48683,0.3175 1.01596,0.42323 2.07429,0.42323 1.14299,0 1.50306,0.0846 1.82056,0.44442 0.381,0.40216 0.65597,0.42375 8.21242,0.42375 7.55644,0 7.83194,-0.0217 8.21294,-0.42375 0.3175,-0.35984 0.67703,-0.44442 1.79885,-0.44442 1.12183,0 1.56637,-0.10578 2.13786,-0.48678 l 0.71985,-0.48681 v -32.10965 -32.109668 l 3.13263,-0.9524 3.13262,-0.95239 v -15.70551 z m 0,167.7442977 -3.13262,-0.9524 -3.13263,-0.95239 v -32.1096797 -32.10967 l -0.71985,-0.48678 c -0.57149,-0.381 -1.01603,-0.48681 -2.13786,-0.48681 -1.12182,0 -1.48135,-0.0846 -1.79885,-0.44442 -0.381,-0.40214 -0.6565,-0.42322 -8.21294,-0.42322 -7.55645,0 -7.83142,0.0212 -8.21242,0.42322 -0.3175,0.35984 -0.67757,0.44442 -1.82056,0.44442 -1.05833,0 -1.58746,0.10573 -2.07429,0.42323 l -0.65629,0.42376 -0.10542,30.33149 -0.10594,30.3102897 -0.65629,0.1483 c -0.33866,0.0847 -0.93102,0.21143 -1.26969,0.29612 -0.33866,0.0847 -1.07959,0.63519 -1.67225,1.24902 l -1.05833,1.12189 v 1.7141 1.71463 l -1.46038,-0.12713 c -0.80431,-0.0847 -5.84213,-0.1478 -11.21843,-0.1478 h -9.75806 l 0.23306,-0.74104 c 0.21167,-0.6985 0.27503,-0.76182 1.43919,-0.88882 2.66698,-0.29633 4.78358,-1.0374 5.20691,-1.82057 0.99482,-1.86264 -1.12184,-3.02680002 -5.79964,-3.15380002 -2.62464,-0.0847 -2.68788,-0.0844 -3.40755,-0.7405205 -1.69332,-1.46049998 -5.01625,-2.60346998 -7.66206,-2.60346998 -1.60866,0 -4.27594,0.61354 -5.5671,1.26968 -0.46567,0.254 -1.3121,0.78332998 -1.86242,1.20665998 -0.9525,0.7408105 -1.10072,0.7834005 -2.68821,0.7622105 -0.91016,0 -3.36568,-0.1909005 -5.46116,-0.4237305 -5.33396,-0.59267 -4.74132,-0.78274 -4.74132,1.48206052 v 1.92598 l -1.18545,0.10594 c -0.635,0.0423 -1.33341,0.21151 -1.50275,0.35968 -0.42334,0.35983 -0.44457,1.82041 -0.0424,2.18022 0.16933,0.127 0.8683,0.2962 1.52445,0.38087 0.9525,0.0847 1.20613,0.19047 1.20613,0.48678 0,0.27516 -0.25403,0.40214 -1.07952,0.508 -1.60866,0.1905 -1.94717,0.44434 -1.94717,1.43917 0,0.9525003 0.55027,1.5032803 1.50276,1.5244503 0.71966,0 1.52393,0.21156 1.52393,0.42323 0,0.0847 -0.48686,0.21143 -1.07952,0.27493 -1.60866,0.1905 -1.94717,0.44439 -1.94717,1.46036 0,0.61384 0.10572,0.93142 0.40205,1.12192 0.42333,0.25397 0.42333,0.25402 0,0.55033 -0.52916,0.381 -0.57157,1.82047 -0.0424,2.2438 0.1905,0.16933 0.88896,0.33853 1.54513,0.40203 l 1.18546,0.10594 0.38085,1.18547 c 0.27516,0.8255 0.65638,1.46039 1.27021,2.01073 0.84666,0.80433 0.86764,0.84685 0.86764,2.28615 0,1.43934 -0.0211,1.48151 -0.95239,2.47635 -0.63499,0.65616 -1.05801,1.35458 -1.24851,2.03192 l -0.29662,1.03714 -1.20664,0.10594 c -0.65617,0.0635 -1.35463,0.25389 -1.54513,0.40203 -0.52916,0.4445 -0.48675,1.90513 0.0424,2.2438 0.42333,0.254 0.42333,0.25403 0,0.55036 -0.27516,0.21167 -0.40205,0.55041 -0.40205,1.14308 0,0.994832 0.33851,1.248699 1.94717,1.439199 0.59266,0.0635 1.07952,0.190236 1.07952,0.274902 0,0.211667 -0.80427,0.423228 -1.52393,0.423228 -0.95249,0.02117 -1.50276,0.57195 -1.50276,1.52445 0,1.016 0.33851,1.248701 1.94717,1.439201 0.82549,0.105833 1.07952,0.232806 1.07952,0.507973 0,0.296333 -0.25363,0.402167 -1.20613,0.507974 -1.50282,0.148193 -1.82056,0.402034 -1.82056,1.439201 0,1.03714 0.38126,1.354534 1.84175,1.460367 l 1.18494,0.10594 v 1.92651 c 0,2.264781 -0.59264,2.074228 4.74132,1.481561 2.09548,-0.232833 4.551,-0.423757 5.46116,-0.423757 1.58749,0 1.73571,0.02143 2.68821,0.762238 0.55032,0.423334 1.39675,0.952633 1.86242,1.206633 1.29116,0.656166 3.95844,1.269709 5.5671,1.269709 2.64581,0 5.96874,-1.142974 7.66206,-2.603474 0.71967,-0.656167 0.78291,-0.655849 3.40755,-0.740516 3.95814,-0.105833 6.01152,-0.910352 6.01152,-2.307352 0,-1.312333 -1.41838,-2.053113 -4.95319,-2.58228 -1.65099,-0.254 -1.69315,-0.29628 -1.92598,-0.99478 l -0.21136,-0.719852 h 9.75755 c 5.3763,0 10.41412,-0.06313 11.21843,-0.147796 l 1.46038,-0.127106 v 1.777656 1.778185 l 1.03715,1.058333 c 0.86783,0.86786 1.22736,1.079262 2.32802,1.333262 l 1.29139,0.275431 0.10594,30.331489 0.10594,30.331493 0.65577,0.42373 c 0.48683,0.31747 1.01596,0.42323 2.07429,0.42323 1.14299,0 1.50306,0.0846 1.82056,0.44442 0.381,0.40216 0.65597,0.42322 8.21242,0.42322 7.55644,0 7.83194,-0.0212 8.21294,-0.42322 0.3175,-0.35984 0.67703,-0.44442 1.79885,-0.44442 1.12183,0 1.56637,-0.10581 2.13786,-0.48678 l 0.71985,-0.48681 V 72.485359 40.375685 l 3.13263,-0.952394 3.13262,-0.952394 V 22.764858 Z M -579.84803,-125.44263 c 0,0.0635 -0.0844,0.10552 -0.21136,0.19018 -0.23283,0.127 -1.37573,0.27546 -2.53989,0.31782 -1.16416,0.0635 -2.11665,0.0212 -2.09548,-0.0847 0,-0.10584 0.10554,-0.44477 0.23254,-0.78344 0.16933,-0.4445 0.31765,-0.57144 0.67748,-0.48678 0.254,0.0423 0.91003,0.14838 1.43919,0.21188 0.55033,0.0847 1.35492,0.23265 1.84175,0.35965 0.46567,0.127 0.65577,0.19077 0.65577,0.27543 z m 0,167.744296 c 0,0.0635 -0.0844,0.106019 -0.21136,0.190686 -0.23283,0.127 -1.37573,0.274981 -2.53989,0.338481 -1.16416,0.04231 -2.11665,-1.06e-4 -2.09548,-0.105939 0,-0.105834 0.10554,-0.444236 0.23254,-0.782902 0.16933,-0.4445 0.31765,-0.571447 0.67748,-0.486781 0.254,0.04228 0.91003,0.147849 1.43919,0.211349 0.55033,0.08469 1.35492,0.233178 1.84175,0.360178 0.46567,0.127 0.65577,0.190262 0.65577,0.274928 z m -0.0636,-206.881436 c 0,0.0847 -0.19009,0.16963 -0.63459,0.29663 -0.4445,0.127 -1.31265,0.2962 -1.90531,0.38086 -0.59267,0.0635 -1.22752,0.19021 -1.43919,0.23255 -0.23283,0.0635 -0.4234,-0.10539 -0.59273,-0.59222 -0.127,-0.381 -0.23254,-0.7411 -0.23254,-0.78341 0,-0.1905 4.23319,0.085 4.61419,0.29663 0.127,0.0847 0.19017,0.12663 0.19017,0.16896 z m 0,167.7447977 c 0,0.0847 -0.19009,0.16912 -0.63459,0.29612 -0.4445,0.127 -1.31265,0.29671 -1.90531,0.38137 -0.59267,0.0635 -1.22752,0.19021 -1.43919,0.23255 -0.23283,0.0635 -0.4234,-0.10592 -0.59273,-0.59275 -0.127,-0.381 -0.23254,-0.74057 -0.23254,-0.78288 0,-0.1905 4.23319,0.0845 4.61419,0.2961 0.127,0.0847 0.19017,0.12716 0.19017,0.16949 z m -6.32881,-164.6333477 c 0,0.42333 -0.71926,1.12189 -1.16376,1.12189 -0.27516,0 -0.63524,0.14851 -0.78341,0.33901 -0.14816,0.16933 -0.33858,0.31728 -0.44442,0.31728 -0.10583,0 -0.19069,-0.44442 -0.19069,-0.97358 v -0.97359 h 1.2914 c 0.71967,0 1.29088,0.0632 1.29088,0.16899 z m 0,32.95663 c 0,0.10583 -0.57121,0.16899 -1.29088,0.16899 h -1.2914 v -0.97359 c 0,-1.01597 0.19061,-1.20658 0.63511,-0.6351 0.14817,0.16933 0.50825,0.31781 0.78341,0.31781 0.4445,0 1.16376,0.69858 1.16376,1.12189 z m 0,134.7881677 c 0,0.42333 -0.71926,1.12188 -1.16376,1.12188 -0.27516,0 -0.63524,0.14799 -0.78341,0.33849 -0.14816,0.16933 -0.33858,0.31781 -0.44442,0.31781 -0.10583,0 -0.19069,-0.44495 -0.19069,-0.97411 v -0.97356 h 1.2914 c 0.71967,0 1.29088,0.0637 1.29088,0.16949 z m 0,32.9561283 c 0,0.105833 -0.57121,0.169492 -1.29088,0.169492 h -1.2914 V 38.42851 c 0,-1.015973 0.19061,-1.206579 0.63511,-0.635106 0.14817,0.16936 0.50825,0.317289 0.78341,0.317289 0.4445,0 1.16376,0.698579 1.16376,1.121913 z m -0.063,-202.965386 c 0,0.0423 10e-6,0.0847 -0.0212,0.0847 -0.27516,0.27517 -2.13779,0.31705 -2.60346,0.063 -0.88899,-0.46566 -0.80464,-0.80433 0.21135,-1.05833 1.50282,-0.381 1.94747,-0.31716 2.2438,0.33898 0.10583,0.23284 0.1695,0.44456 0.1695,0.57156 z m 0,37.46439 c 0,0.127 -0.0637,0.35991 -0.1695,0.61391 -0.21167,0.42333 -0.40204,0.55033 -0.93121,0.55033 -0.35983,-0.0212 -1.05827,-0.1479 -1.52393,-0.2749 l -0.84698,-0.27543 0.52916,-0.48681 c 0.44449,-0.42333 0.69859,-0.48672 1.67225,-0.42322 0.61383,0.0635 1.18553,0.14784 1.24902,0.21134 0,0.0212 0.0212,0.0424 0.0212,0.0848 z m 0,130.2798777 c 0,0.0423 10e-6,0.0847 -0.0212,0.0847 -0.27516,0.27517 -2.13779,0.31758 -2.60346,0.0636 -0.88899,-0.46566 -0.80464,-0.80433 0.21135,-1.05833 1.50282,-0.381 1.94747,-0.31769 2.2438,0.33848 0.10583,0.23283 0.1695,0.44453 0.1695,0.57153 z m 0,37.4648903 c 0,0.127 -0.0637,0.359939 -0.1695,0.613939 -0.21167,0.423307 -0.40204,0.550333 -0.93121,0.550333 -0.35983,-0.02117 -1.05827,-0.148431 -1.52393,-0.275431 l -0.84698,-0.274902 0.52916,-0.486807 c 0.44449,-0.423333 0.69859,-0.48723 1.67225,-0.42373 0.61383,0.0635 1.18553,0.148352 1.24902,0.211852 0,0.02117 0.0212,0.04236 0.0212,0.08475 z m -2.30632,-207.994008 c -0.0141,0.0689 -0.14379,0.11782 -0.40308,0.11782 -0.21167,0 -0.95256,0.19042 -1.65106,0.44442 -1.54516,0.52917 -1.56636,0.52914 -1.10071,0.0212 0.29633,-0.3175 0.31767,-0.57158 0.1695,-1.14308 l -0.1695,-0.71985 -3.13262,-0.12661 c -1.71449,-0.0635 -3.02707,-0.12718 -2.90008,-0.16952 1.79916,-0.381 3.15421,-0.4659 4.6147,-0.25423 1.82031,0.254 4.48715,1.37604 4.57182,1.79937 0.003,0.0106 0.003,0.0206 10e-4,0.0305 z m 0,43.05525 c 0.002,0.01 0.002,0.0198 -10e-4,0.0305 -0.0847,0.4233 -2.7515,1.54484 -4.57181,1.79884 -1.18533,0.16934 -2.0743,0.16934 -3.13263,0 -0.80432,-0.14816 -1.50281,-0.27498 -1.56631,-0.33848 -0.0423,-0.0423 1.31218,-0.10599 3.0055,-0.14832 l 3.11144,-0.0636 0.1695,-0.71932 c 0.14817,-0.5715 0.12683,-0.8256 -0.1695,-1.1431 -0.46566,-0.508 -0.44445,-0.508 1.10071,0.0212 0.6985,0.254 1.43939,0.44442 1.65106,0.44442 0.25929,0 0.3889,0.0489 0.40307,0.11782 z m 0,124.6895477 c -0.0141,0.0689 -0.14379,0.11732 -0.40308,0.11732 -0.21167,0 -0.95256,0.19039 -1.65106,0.44439 -1.54516,0.52917 -1.56636,0.52917 -1.10071,0.0212 0.29633,-0.3175 0.31767,-0.57105 0.1695,-1.14255002 l -0.1695,-0.7198505 -3.13262,-0.12714 c -1.71449,-0.0635 -3.02707,-0.12665 -2.90008,-0.16899 1.79916,-0.38097 3.15421,-0.4659 4.6147,-0.25423 1.82031,0.254 4.48715,1.3760405 4.57182,1.79937052 0.003,0.0106 0.003,0.0206 10e-4,0.0305 z m 0,43.0547463 c 0.002,0.0098 0.002,0.02011 -10e-4,0.03048 v 0 c -0.0862,0.423598 -2.75203,1.544955 -4.57181,1.798875 -1.18533,0.169334 -2.0743,0.169334 -3.13263,0 -0.80432,-0.127 -1.50281,-0.274981 -1.56631,-0.338481 -0.0423,-0.04231 1.31218,-0.105992 3.0055,-0.148325 l 3.11144,-0.06355 0.1695,-0.719852 c 0.14817,-0.571474 0.12683,-0.825077 -0.1695,-1.142577 -0.46566,-0.508 -0.44445,-0.508 1.10071,0.02117 0.6985,0.254 1.43939,0.44442 1.65106,0.44442 0.25929,0 0.3889,0.04842 0.40307,0.117317 z"
       id="path819"
       inkscape:connector-curvature="0" />
    <text
       id="text849"
       y="207.50641"
       x="-735.70886">
      <tspan
         id="tspan847"
         dy="13.493751"
         style="font-style:normal;font-weight:normal;font-size:23.8125px;text-align:center;text-anchor:start;fill:#000000;fill-opacity:1;stroke:none"
         sodipodi:role="line"
         x="-735.70886"
         y="207.50641">353396.56 px<tspan
   id="tspan845"
   style="font-size:64.99999762%;baseline-shift:super">2</tspan>
</tspan>
    </text>
  </g>
</svg>
