<?xml version="1.0" encoding="UTF-8" standalone="no"?>
<!-- Created with Inkscape (http://www.inkscape.org/) -->

<svg
   xmlns:dc="http://purl.org/dc/elements/1.1/"
   xmlns:cc="http://creativecommons.org/ns#"
   xmlns:rdf="http://www.w3.org/1999/02/22-rdf-syntax-ns#"
   xmlns:svg="http://www.w3.org/2000/svg"
   xmlns="http://www.w3.org/2000/svg"
   xmlns:sodipodi="http://sodipodi.sourceforge.net/DTD/sodipodi-0.dtd"
   xmlns:inkscape="http://www.inkscape.org/namespaces/inkscape"
   sodipodi:docname="carrier-fed 3.svg"
   id="svg8"
   version="1.1"
   viewBox="0 0 238.377 238.377"
   height="238.377mm"
   width="238.377mm"
   inkscape:version="0.92.4 (5da689c313, 2019-01-14)"
   inkscape:export-filename="D:\GitHub\wills-spaceships\Outlines Ships\carrier-fed 4.png"
   inkscape:export-xdpi="96"
   inkscape:export-ydpi="96">
  <defs
     id="defs2" />
  <sodipodi:namedview
     id="base"
     pagecolor="#ffffff"
     bordercolor="#666666"
     borderopacity="1.0"
     inkscape:pageopacity="0.0"
     inkscape:pageshadow="2"
     inkscape:zoom="0.35"
     inkscape:cx="1415.7871"
     inkscape:cy="182.03655"
     inkscape:document-units="mm"
     inkscape:current-layer="layer1"
     showgrid="false"
     inkscape:window-width="1920"
     inkscape:window-height="1017"
     inkscape:window-x="1912"
     inkscape:window-y="-8"
     inkscape:window-maximized="1" />
  <metadata
     id="metadata5">
    <rdf:RDF>
      <cc:Work
         rdf:about="">
        <dc:format>image/svg+xml</dc:format>
        <dc:type
           rdf:resource="http://purl.org/dc/dcmitype/StillImage" />
        <dc:title />
      </cc:Work>
    </rdf:RDF>
  </metadata>
  <g
     inkscape:label="Layer 1"
     inkscape:groupmode="layer"
     id="layer1"
     transform="translate(947.18161,-146.78707)">
    <path
       style="fill:#000000;stroke-width:0.29797122"
       d="M -947.18161,265.97555 V 146.78707 h 8.04523 8.04522 v 119.18848 119.18852 h -8.04522 -8.04523 z"
       id="path832"
       inkscape:connector-curvature="0" />
    <path
       style="fill:#000000;stroke-width:0.29797122"
       d="M -724.89506,265.97555 V 146.78707 h 8.04522 8.04523 v 119.18848 119.18852 h -8.04523 -8.04522 z"
       id="path830"
       inkscape:connector-curvature="0" />
    <path
       style="fill:#000000;stroke-width:0.29797122"
       d="m -843.89312,364.9765 c -0.0811,-0.28678 -0.23138,-1.5271 -0.33366,-2.75623 -0.33923,-4.07603 -0.21263,-3.87362 -2.42283,-3.87362 h -1.92274 l 0.0841,-2.30928 0.0841,-2.30928 -0.8289,-0.0952 c -0.5783,-0.0664 -1.0632,-0.44927 -1.60394,-1.26637 -0.4263,-0.64415 -0.87716,-1.17119 -1.00197,-1.17119 -0.12482,0 -1.58193,-2.54723 -3.23809,-5.66049 l -3.01119,-5.66049 v -7.74822 -7.74821 h -3.72461 -3.72466 v -5.66146 -5.66143 h -7.74724 -7.74725 v 4.00569 c 0,3.80162 -0.0337,4.02937 -0.66225,4.46958 -0.57491,0.40268 -2.38369,0.46385 -13.71716,0.46385 -11.51573,0 -13.14151,-0.0568 -13.78936,-0.48122 l -0.73444,-0.48123 v -22.15694 -22.15692 l 0.82505,-0.42667 c 1.21589,-0.62876 26.04206,-0.62601 27.25873,0.004 l 0.81943,0.42366 v 4.01497 4.01495 h 7.74725 7.74724 v -3.40765 -3.40767 l -2.3838,-1.84409 c -7.99202,-6.18257 -13.10836,-15.8285 -13.10836,-24.71338 0,-8.87828 5.23045,-18.73463 13.13513,-24.75193 l 2.35703,-1.79428 v -5.91374 c 0,-5.87779 -0.004,-5.91489 -0.67042,-6.1038 -0.36875,-0.10458 -1.2403,-0.8833 -1.93681,-1.73059 l -1.2664,-1.54054 8.8e-4,-6.86839 8.9e-4,-6.86836 1.23363,-1.43935 c 0.67853,-0.79164 1.54921,-1.55933 1.93491,-1.70596 l 0.70151,-0.26661 v -12.96958 -12.96911 h 37.54438 37.54439 v 12.96911 12.96912 l 0.70122,0.26663 c 0.38569,0.14663 1.25639,0.9143 1.9349,1.70595 l 1.23364,1.43935 8.9e-4,6.8588 8.8e-4,6.8588 -1.21276,1.4844 c -0.667,0.81642 -1.53858,1.61082 -1.9368,1.76539 l -0.72382,0.281 v 5.8885 5.88852 l 2.38642,1.81661 c 3.36967,2.56512 7.19256,7.03503 9.34585,10.9276 2.42056,4.37585 3.75992,9.2924 3.75992,13.80201 0,8.82534 -5.07811,18.43703 -13.01527,24.6348 l -2.47692,1.93411 v 3.40193 3.40196 h 7.74727 7.74725 v -4.01499 -4.01494 l 0.83914,-0.43395 c 1.26863,-0.65602 25.9336,-0.66777 27.19988,-0.0129 l 0.8642,0.4469 v 22.15692 22.15694 l -0.73445,0.48122 c -0.64785,0.42451 -2.27363,0.48124 -13.78938,0.48124 -11.33345,0 -13.14222,-0.0612 -13.71714,-0.46385 -0.62851,-0.44022 -0.66225,-0.66796 -0.66225,-4.46958 v -4.00569 h -7.74725 -7.74727 v 5.66144 5.66146 h -3.72463 -3.72465 v 7.75407 7.75409 l -2.87591,5.43115 c -1.58178,2.98713 -3.02321,5.56523 -3.20319,5.72912 -0.18,0.16387 -0.69603,0.79189 -1.14677,1.39556 -0.53209,0.7127 -1.10684,1.13068 -1.63885,1.1919 l -0.81933,0.0942 0.0841,2.30928 0.0841,2.30928 h -1.94642 c -1.07053,0 -1.95526,0.0335 -1.96606,0.0745 -0.0114,0.0411 -0.17839,1.61649 -0.37245,3.50117 l -0.35284,3.42668 -4.95184,0.0814 -4.95182,0.0815 -0.20074,-2.1673 c -0.11041,-1.19203 -0.27939,-2.80423 -0.37555,-3.58268 l -0.17481,-1.41538 h -1.93946 -1.93944 l 0.18883,-1.60654 c 0.10382,-0.88361 0.10318,-2.4256 -8.9e-4,-3.42666 l -0.19018,-1.82014 h -1.40496 -1.40496 l -0.19023,1.82014 c -0.1046,1.00106 -0.10523,2.54305 -8.8e-4,3.42666 l 0.18881,1.60654 h -1.93945 -1.93944 l -0.17483,1.41538 c -0.0961,0.77845 -0.26485,2.3875 -0.37487,3.57564 l -0.20003,2.16031 H -838.89 c -4.37169,0 -4.8727,-0.0522 -5.00562,-0.52147 z"
       id="path826"
       inkscape:connector-curvature="0" />
  </g>
</svg>
