<?xml version="1.0" encoding="UTF-8" standalone="no"?>
<!-- Created with Inkscape (http://www.inkscape.org/) -->

<svg
   inkscape:export-ydpi="96"
   inkscape:export-xdpi="96"
   inkscape:export-filename="Mandibles-Vella 4.png"
   inkscape:version="1.2.1 (9c6d41e410, 2022-07-14)"
   width="164.11079mm"
   height="164.11079mm"
   viewBox="0 0 164.1108 164.1108"
   version="1.1"
   id="svg8"
   sodipodi:docname="Mandibles-Vella 3.svg"
   xml:space="preserve"
   xmlns:inkscape="http://www.inkscape.org/namespaces/inkscape"
   xmlns:sodipodi="http://sodipodi.sourceforge.net/DTD/sodipodi-0.dtd"
   xmlns="http://www.w3.org/2000/svg"
   xmlns:svg="http://www.w3.org/2000/svg"
   xmlns:rdf="http://www.w3.org/1999/02/22-rdf-syntax-ns#"
   xmlns:cc="http://creativecommons.org/ns#"
   xmlns:dc="http://purl.org/dc/elements/1.1/"><defs
     id="defs2" /><sodipodi:namedview
     id="base"
     pagecolor="#ffffff"
     bordercolor="#666666"
     borderopacity="1.0"
     inkscape:pageopacity="0.0"
     inkscape:pageshadow="2"
     inkscape:zoom="0.69999999"
     inkscape:cx="412.85715"
     inkscape:cy="285.71429"
     inkscape:document-units="mm"
     inkscape:current-layer="layer1"
     showgrid="false"
     inkscape:window-width="1858"
     inkscape:window-height="1057"
     inkscape:window-x="54"
     inkscape:window-y="-8"
     inkscape:window-maximized="1"
     inkscape:showpageshadow="2"
     inkscape:pagecheckerboard="0"
     inkscape:deskcolor="#d1d1d1" /><metadata
     id="metadata5"><rdf:RDF><cc:Work
         rdf:about=""><dc:format>image/svg+xml</dc:format><dc:type
           rdf:resource="http://purl.org/dc/dcmitype/StillImage" /></cc:Work></rdf:RDF></metadata><g
     inkscape:label="Layer 1"
     inkscape:groupmode="layer"
     id="layer1"
     transform="translate(413.683, -208.335)"><path
       style="fill:#000000;stroke-width:0.205139"
       d="m -334.70462,357.89103 v -12.50382 l -0.8821,-0.3902 c -0.48516,-0.21461 -1.85457,-1.14224 -3.04312,-2.06141 l -2.16102,-1.6712 -0.49397,-2.6664 c -0.32291,-1.74307 -0.58329,-2.66637 -0.75193,-2.66637 -0.18972,0 -0.25796,-0.5334 -0.25796,-2.01563 0,-1.88477 -0.0334,-2.0469 -0.51286,-2.49743 -0.50833,-0.47756 -0.51319,-0.5153 -0.5508,-4.29237 -0.0209,-2.09582 -0.0687,-3.30286 -0.10644,-2.68234 -0.1022,1.68264 -0.35755,2.05139 -1.42084,2.05139 h -0.88045 l -0.0593,1.79496 c -0.0582,1.76241 -0.0688,1.79608 -0.59222,1.85688 l -0.53293,0.062 -0.13604,2.60488 c -0.30312,5.80543 -1.94498,10.34033 -4.33681,11.9785 -1.17884,0.80738 -1.33341,0.75238 -1.33341,-0.47428 0,-0.87418 0.10313,-1.16727 0.6158,-1.75126 1.65883,-1.88929 2.63044,-5.24002 2.97535,-10.26077 l 0.14337,-2.08702 -0.58514,-0.0669 -0.58515,-0.0669 -0.0593,-1.79495 -0.0592,-1.79498 h -0.78077 c -0.94831,0 -1.45979,-0.49079 -1.45979,-1.40081 v -0.65056 h -1.23083 -1.23082 v 0.62891 c 0,1.08706 -0.31425,1.42246 -1.33264,1.42246 h -0.90792 l -0.0592,1.79498 c -0.0556,1.68439 -0.0877,1.79901 -0.52083,1.8605 -0.43581,0.062 -0.46148,0.15917 -0.46036,1.74369 0.004,4.53913 1.42161,9.35951 3.21185,10.91589 0.38799,0.33729 0.47943,0.621 0.47943,1.48726 0,0.61063 -0.0926,1.07045 -0.21532,1.07045 -0.43358,0 -1.34175,-0.60123 -2.0661,-1.36779 -2.04611,-2.16533 -3.24373,-6.03671 -3.59065,-11.60723 -0.13112,-2.10514 -0.15819,-2.20523 -0.59609,-2.20523 -0.56657,0 -0.70512,-0.45108 -0.70887,-2.30782 l -0.003,-1.3847 h -0.79543 c -0.43747,0 -0.90404,-0.13084 -1.03677,-0.29078 -0.13275,-0.15995 -0.27352,-1.05997 -0.31283,-2.0001 -0.0395,-0.94013 -0.0805,-1.82469 -0.0916,-1.96571 -0.0111,-0.14104 -0.28082,-0.25644 -0.59963,-0.25644 -0.34068,0 -0.76355,-0.19575 -1.0257,-0.47477 -0.4242,-0.45153 -0.44602,-0.65744 -0.44602,-4.20535 v -3.73056 h -0.718 c -0.64982,0 -0.71798,0.0548 -0.71798,0.57517 0,0.3822 -0.22871,0.79684 -0.68156,1.23578 l -0.68156,0.66059 -3.42376,-0.0204 c -3.34375,-0.0197 -3.43808,-0.0322 -4.03663,-0.53601 l -0.61287,-0.51569 v -12.55943 -12.5594 l 0.57537,-0.55125 0.57537,-0.5512 h 3.56745 3.5675 l 0.57533,0.5512 c 0.54004,0.51741 0.57536,0.65593 0.57536,2.25654 v 1.70529 h 0.62187 c 0.36352,0 0.6709,0.12783 0.73993,0.30772 0.0651,0.16924 0.29281,0.30772 0.5064,0.30772 0.34864,0 0.38832,0.16766 0.38832,1.64109 0,1.42958 -0.0465,1.64112 -0.36093,1.64112 -0.19849,0 -0.47623,0.18462 -0.61716,0.41027 -0.14484,0.23195 -0.47838,0.41029 -0.76731,0.41029 -0.51066,0 -0.51112,0.002 -0.51112,2.05137 v 2.05138 h 0.71798 c 0.4647,0 0.718,-0.0974 0.718,-0.2759 0,-0.54598 0.73167,-0.95492 1.70854,-0.95492 h 0.95826 v -1.84625 c 0,-1.09407 -0.0836,-1.84624 -0.20515,-1.84624 -0.11965,0 -0.20512,-0.68381 -0.20512,-1.64112 0,-0.95731 0.0855,-1.64109 0.20512,-1.64109 0.12661,0 0.20515,-1.05814 0.20515,-2.76411 v -2.76411 l 0.61542,-0.31824 c 0.33846,-0.17504 0.6154,-0.35449 0.6154,-0.39883 0,-0.0443 -0.32506,-0.28147 -0.72237,-0.52701 -1.07014,-0.66137 -1.71058,-1.62762 -2.47122,-3.72834 -0.69365,-1.91563 -0.71583,-2.32644 -0.11676,-2.16091 0.64922,0.17941 6.88604,4.68322 7.24672,5.23309 0.21031,0.32065 0.56181,0.56267 0.82977,0.57133 0.69395,0.0223 6.96758,4.49352 7.31786,5.21533 0.21689,0.44686 0.4207,0.58678 0.82054,0.56328 0.7493,-0.0439 7.35042,4.60333 7.44518,5.24156 0.055,0.37012 0.22471,0.20967 0.93191,-0.88083 0.83566,-1.28858 0.86487,-1.38987 0.86902,-3.01342 l 0.004,-1.68 -0.76927,-0.0636 -0.76927,-0.0638 -0.0601,-1.36024 -0.0601,-1.36019 0.69635,-0.13063 0.69633,-0.13062 0.13034,-1.83616 0.13031,-1.83617 1.57367,-1.50874 1.57365,-1.50876 0.0976,-4.22771 0.0976,-4.22772 -0.62374,-1.1052 c -0.34305,-0.60787 -0.65543,-1.31414 -0.69414,-1.5695 -0.0563,-0.37148 -0.4395,-0.6151 -1.91666,-1.21867 l -1.84623,-0.7544 -0.0555,-4.02002 -0.0555,-4.02001 2.51719,-1.03713 2.51718,-1.03715 0.0578,-2.5027 c 0.0567,-2.45625 0.0462,-2.52316 -0.56414,-3.60469 -0.34204,-0.60609 -0.62191,-1.27232 -0.62191,-1.48052 0,-0.28274 -0.48025,-0.58206 -1.89754,-1.18265 l -1.89753,-0.80411 -0.0555,-4.00851 -0.0555,-4.00848 2.51715,-1.03145 2.51714,-1.03145 0.0579,-2.51395 c 0.0567,-2.47132 0.047,-2.53241 -0.56415,-3.60086 -0.34202,-0.59777 -0.62185,-1.26889 -0.62185,-1.49132 0,-0.31886 -0.41243,-0.57115 -1.94881,-1.19205 l -1.94883,-0.78761 v -3.97407 -3.97409 l 1.077,-0.48353 c 0.59234,-0.26596 1.72315,-0.74798 2.51293,-1.07118 l 1.43597,-0.58762 0.10251,-3.99466 0.1025,-3.99466 0.6154,-0.86745 0.61543,-0.86745 h 3.79505 3.79507 l 0.61541,0.86745 0.61542,0.86745 0.1025,3.98601 0.10251,3.986 2.50822,1.0399 2.50823,1.03989 0.005,4.01402 0.005,4.01399 -1.94882,0.78761 c -1.5364,0.6209 -1.94881,0.87319 -1.94881,1.19205 0,0.22243 -0.27984,0.89355 -0.62186,1.49132 -0.61127,1.06838 -0.62086,1.12968 -0.56412,3.5995 l 0.0579,2.51259 2.51293,1.02416 2.51295,1.02413 v 3.97721 3.97724 l -1.07698,0.47009 c -0.59233,0.25853 -1.46931,0.63669 -1.94881,0.84035 -0.62806,0.26674 -0.87283,0.49064 -0.87534,0.80068 -0.002,0.23671 -0.27728,0.89198 -0.61191,1.4561 -0.58408,0.98466 -0.60857,1.12543 -0.6119,3.51811 l -0.004,2.49241 2.56846,1.07661 2.56847,1.07666 -0.0555,4.01894 -0.0555,4.0189 -1.84625,0.7544 c -1.47715,0.60357 -1.86033,0.84719 -1.91666,1.21867 -0.0387,0.25536 -0.34372,0.94864 -0.67781,1.54059 l -0.60742,1.07631 0.0464,3.55362 c 0.073,5.58111 0.0186,5.33095 1.38041,6.35687 0.6378,0.4805 1.1874,0.8895 1.22128,0.90889 0.034,0.0194 0.25526,1.06143 0.49186,2.31561 l 0.43021,2.28035 h 0.69708 0.69705 l -0.0607,1.38469 -0.0608,1.38471 -0.76927,0.0638 -0.76927,0.0636 0.004,1.68 c 0.004,1.61887 0.0354,1.72855 0.86069,3.01342 0.75651,1.17792 0.86963,1.27828 0.97009,0.86067 0.16334,-0.67887 6.92242,-5.39533 7.51911,-5.24682 0.32941,0.0819 0.48746,-0.0289 0.6721,-0.47141 0.29217,-0.70027 6.65001,-5.26263 7.36251,-5.28331 0.26947,-0.008 0.61874,-0.24803 0.83086,-0.57144 0.37951,-0.57859 6.92808,-5.28263 7.35927,-5.28638 0.49574,-0.004 0.45408,0.405 -0.22805,2.23973 -0.78256,2.10489 -1.41296,3.04896 -2.47355,3.70445 -0.3973,0.24554 -0.72239,0.48272 -0.72239,0.52701 0,0.0443 0.27693,0.22379 0.61544,0.39883 l 0.6154,0.31824 v 2.76411 c 0,2.32021 0.0495,2.76411 0.30771,2.76411 0.24789,0 0.3077,0.31908 0.3077,1.64109 0,1.322 -0.0599,1.64112 -0.3077,1.64112 -0.25085,0 -0.30771,0.34294 -0.30771,1.85569 v 1.8557 l 0.91628,-0.0474 c 0.65166,-0.0338 1.03676,0.0617 1.33342,0.33005 0.38467,0.34813 0.41711,0.6209 0.41711,3.50768 v 3.13022 l 1.00798,-0.42586 c 0.92822,-0.39217 0.99315,-0.46488 0.82055,-0.91884 -0.10312,-0.27114 -0.18742,-2.28704 -0.18742,-4.47982 v -3.98683 h -0.61369 c -0.39149,0 -0.70643,-0.14854 -0.8699,-0.41028 -0.14092,-0.22565 -0.46479,-0.41028 -0.71971,-0.41028 -0.44264,0 -0.46352,-0.074 -0.46352,-1.64111 0,-1.59418 0.014,-1.6411 0.49091,-1.6411 0.26999,0 0.54405,-0.13847 0.60898,-0.30772 0.0741,-0.19313 0.3878,-0.30771 0.84251,-0.30771 0.53591,0 0.72442,-0.0878 0.72442,-0.33787 0,-0.6215 2.27843,-5.70812 2.74804,-6.13501 0.36276,-0.32978 0.69676,-0.41092 1.53734,-0.37346 0.59063,0.0263 1.20084,0.1532 1.35601,0.28199 0.15517,0.12878 0.84174,1.5608 1.5257,3.18228 l 1.24357,2.94813 v 6.48604 6.48602 l -1.14766,2.70575 c -1.60137,3.77544 -1.4803,3.62888 -2.99791,3.62888 -1.01094,0 -1.35812,-0.0884 -1.73331,-0.44075 l -0.46915,-0.44073 -1.85188,0.77654 -1.85186,0.77659 v 4.14145 c 0,4.06379 -0.009,4.14984 -0.47478,4.5875 -0.26114,0.24533 -0.7227,0.44605 -1.0257,0.44605 -0.60294,0 -0.56489,-0.15658 -0.62913,2.58701 -0.0358,1.53187 -0.3189,1.92603 -1.38287,1.92603 h -0.79545 v 1.32005 c 0,1.57546 -0.26021,2.37244 -0.77462,2.37244 -0.33472,0 -0.40145,0.32737 -0.62795,3.08021 -0.41256,5.01407 -1.55341,8.62598 -3.335,10.5588 -0.76056,0.82508 -1.74765,1.54126 -2.12437,1.54126 -0.0622,0 -0.11275,-0.50202 -0.11275,-1.11562 0,-0.95107 0.0901,-1.21417 0.61049,-1.78399 1.63183,-1.78664 2.87686,-6.39138 2.87686,-10.64013 0,-1.5155 -0.0277,-1.61591 -0.46156,-1.67755 -0.43312,-0.0614 -0.46522,-0.17614 -0.52084,-1.8605 l -0.0592,-1.79497 h -0.90793 c -1.01837,0 -1.33262,-0.33541 -1.33262,-1.42247 v -0.6289 h -1.23082 -1.23085 v 0.68618 c 0,0.87906 -0.53533,1.36519 -1.50338,1.36519 h -0.75313 v 1.52177 c 0,1.86522 -0.1073,2.17072 -0.76207,2.17072 h -0.51303 l 0.14449,2.10268 c 0.35746,5.20185 1.55392,9.11193 3.21619,10.51064 0.49732,0.41846 0.58122,0.63904 0.58122,1.52799 0,1.19357 -0.12954,1.2493 -1.32703,0.57106 -2.44905,-1.38709 -4.25367,-6.17808 -4.55258,-12.08624 l -0.13175,-2.60489 -0.53296,-0.0619 c -0.5233,-0.0608 -0.53405,-0.0945 -0.59224,-1.85688 l -0.0592,-1.79497 h -0.88049 c -1.06325,0 -1.31868,-0.36876 -1.42081,-2.05138 -0.0376,-0.62054 -0.0856,0.58652 -0.10644,2.68234 -0.0376,3.77707 -0.0425,3.81482 -0.5508,4.29235 -0.4788,0.44983 -0.51286,0.61415 -0.51286,2.47549 0,1.50243 -0.0694,2.02035 -0.28204,2.10193 -0.18465,0.0707 -0.33144,0.63472 -0.42489,1.63194 -0.25162,2.68496 -0.3246,2.84001 -2.38691,5.06952 -1.75044,1.89236 -2.01397,2.09691 -3.15193,2.4462 l -1.24178,0.38119 -0.0529,12.43504 -0.0529,12.43505 h -3.07551 -3.07548 z"
       id="path202" /><path
       style="fill:#000000;stroke-width:0.205139"
       d="m -259.62393,290.39089 v -82.05541 h 5.02588 5.02591 v 82.05541 82.05539 h -5.02591 -5.02588 z"
       id="path200" /><path
       style="fill:#000000;stroke-width:0.205139"
       d="m -413.68294,290.39089 v -82.05541 h 4.61561 4.61563 v 82.05541 82.05539 h -4.61563 -4.61561 z"
       id="path196" /></g></svg>
