<?xml version="1.0" encoding="UTF-8" standalone="no"?>
<!-- Created with Inkscape (http://www.inkscape.org/) -->

<svg
   xmlns:dc="http://purl.org/dc/elements/1.1/"
   xmlns:cc="http://creativecommons.org/ns#"
   xmlns:rdf="http://www.w3.org/1999/02/22-rdf-syntax-ns#"
   xmlns:svg="http://www.w3.org/2000/svg"
   xmlns="http://www.w3.org/2000/svg"
   xmlns:sodipodi="http://sodipodi.sourceforge.net/DTD/sodipodi-0.dtd"
   xmlns:inkscape="http://www.inkscape.org/namespaces/inkscape"
   inkscape:export-ydpi="96"
   inkscape:export-xdpi="96"
   inkscape:export-filename="D:\GitHub\Novalike-Art-Pack-Source\Outlines Ships\manticore-pirate 4.png"
   sodipodi:docname="manticore-pirate 3.svg"
   inkscape:version="0.92.4 (5da689c313, 2019-01-14)"
   id="svg869"
   version="1.1"
   viewBox="0 0 203.91845 203.91844"
   height="203.91844mm"
   width="203.91844mm">
  <defs
     id="defs863" />
  <sodipodi:namedview
     id="base"
     pagecolor="#ffffff"
     bordercolor="#666666"
     borderopacity="1.0"
     inkscape:pageopacity="0.0"
     inkscape:pageshadow="2"
     inkscape:zoom="0.175"
     inkscape:cx="2221.5531"
     inkscape:cy="383.43975"
     inkscape:document-units="mm"
     inkscape:current-layer="layer1"
     showgrid="false"
     inkscape:window-width="1920"
     inkscape:window-height="1017"
     inkscape:window-x="-8"
     inkscape:window-y="-8"
     inkscape:window-maximized="1"
     showguides="true"
     inkscape:guide-bbox="true" />
  <metadata
     id="metadata866">
    <rdf:RDF>
      <cc:Work
         rdf:about="">
        <dc:format>image/svg+xml</dc:format>
        <dc:type
           rdf:resource="http://purl.org/dc/dcmitype/StillImage" />
        <dc:title />
      </cc:Work>
    </rdf:RDF>
  </metadata>
  <g
     inkscape:label="Layer 1"
     inkscape:groupmode="layer"
     id="layer1"
     transform="translate(917.02534,75.741427)">
    <path
       style="fill:#000000;stroke-width:0.25489804"
       d="m -917.02534,26.217783 v -101.95921 h 15.67623 15.67622 V 26.217783 128.17701 h -15.67622 -15.67623 z"
       id="path1470"
       inkscape:connector-curvature="0" />
    <path
       style="fill:#000000;stroke-width:0.25489804"
       d="m -744.45935,26.217783 v -101.95921 h 15.67623 15.67622 V 26.217783 128.17701 h -15.67622 -15.67623 z"
       id="path1468"
       inkscape:connector-curvature="0" />
    <path
       style="fill:#000000;stroke-width:0.25489804"
       d="m -814.93882,-67.074815 c -0.21027,0 -0.38232,0.172057 -0.38232,0.382347 0,0.254899 -0.25491,0.38235 -0.76469,0.38235 -0.42059,-4e-6 -0.76468,-0.114832 -0.76468,-0.255023 0,-0.140197 -0.17208,-0.254651 -0.38236,-0.254651 -0.2103,0 -0.38236,0.114455 -0.38236,0.254651 0,0.140194 -0.22153,0.255023 -0.4925,0.255023 -0.6347,0 -0.659,0.106268 -1.18474,5.161682 l -0.44396,4.269668 h -1.29715 c -4.09875,9.05e-4 -13.64072,1.701974 -19.48551,3.473605 -4.4437,1.346956 -9.16315,3.750165 -11.50736,5.859543 -1.36107,1.224711 -2.07377,2.092433 -2.47479,3.012104 l -0.56346,1.291541 -0.0101,-1.210518 c -0.0102,-1.004222 -0.0907,-1.210887 -0.48166,-1.210887 -0.41506,0 -0.49096,0.29683 -0.63586,2.485255 -0.0905,1.366891 -0.16506,3.030226 -0.1658,3.696145 -9e-4,1.125206 -0.047,1.210517 -0.64668,1.210517 -0.3549,0 -0.71127,0.172059 -0.79198,0.382348 -0.0808,0.210289 -0.33995,0.382346 -0.57612,0.382346 -0.26463,0 -0.68187,0.513524 -1.08693,1.338214 -0.3615,0.736023 -1.70416,2.595666 -2.9841,4.13226 l -2.32731,2.793674 v 1.843031 c 0,1.013676 -0.11483,1.913961 -0.25502,2.000604 -0.33928,0.209681 -0.33928,6.927591 0,7.137267 0.14018,0.08664 0.25502,0.755038 0.25502,1.485329 0,1.315053 0.0274,1.360272 2.81308,4.724452 3.15155,3.8057704 4.00926,4.6232622 4.85104,4.6232622 0.31935,-1.9e-6 1.01655,0.2008549 1.54953,0.4461942 l 0.96896,0.4458232 0.006,1.5932381 0.006,1.5932367 h -1.05368 c -1.37986,0 -3.07278,0.5068729 -3.4598,1.0361444 -0.71808,0.9819772 -3.46248,4.1951232 -3.64163,4.2636938 -0.10746,0.041123 -1.43193,-1.30652847 -2.94378,-2.9949286 -1.51183,-1.6883947 -2.88823,-3.0696043 -3.05839,-3.0696043 -0.17019,0 -0.4479,0.1667547 -0.61723,0.370772 -0.2368,0.2853184 -0.41261,0.305602 -0.76207,0.087371 -0.5907,-0.368918 -1.28667,-0.093272 -1.28667,0.5096712 0,0.2607241 1.49128,2.1191765 3.3138,4.1300207 l 3.31381,3.6561951 -0.0101,2.6962174 c -0.009,2.4538797 -0.0636,2.7629659 -0.61498,3.4373899 -0.5804,0.709907 -0.6414,0.726404 -1.44499,0.393547 -0.7338,-0.303952 -2.63526,-1.5260874 -6.21502,-3.9948527 -0.56076,-0.3867423 -2.68267,-2.0888887 -4.71547,-3.7823992 -2.0328,-1.6935017 -3.9227,-3.20466062 -4.19947,-3.35823029 -0.56309,-0.31240024 -1.40843,-0.0021047 -1.40843,0.51713756 0,0.17159161 1.57735,1.62621203 3.50497,3.23240233 1.92768,1.6061892 3.95063,3.3830174 4.49558,3.9485524 2.22276,2.3067129 4.94544,7.3438769 4.21405,7.7959239 -0.22371,0.138254 -0.12987,1.277157 0.37225,4.520956 1.1569,7.473807 1.94789,15.901714 2.26569,24.142377 0.0583,1.51447 0.0668,1.530243 0.86142,1.607427 1.16259,0.112907 2.63871,-0.565089 2.63871,-1.212012 0,-0.433578 0.16312,-0.523583 0.95586,-0.526473 1.78697,-0.0065 2.02244,-0.171734 2.18359,-1.532001 0.0806,-0.681114 0.37723,-1.675343 0.659,-2.209323 l 0.51227,-0.970805 0.0112,3.998962 0.0112,3.999334 1.08358,0.15645 c 0.5958,0.08623 2.86099,0.179324 5.03397,0.206855 l 3.95115,0.05004 0.0714,-0.892017 c 0.0392,-0.490681 0.17673,-1.121678 0.30541,-1.402065 0.12868,-0.280391 0.26979,-0.739333 0.31365,-1.019715 0.0733,-0.468556 0.32699,-0.51986 3.1357,-0.636995 l 3.05614,-0.1277 0.14861,-2.421407 c 0.22669,-3.694954 -0.20663,-3.419196 5.05489,-3.217092 2.46547,0.0947 5.25673,0.242909 6.20306,0.329324 l 1.72058,0.1572 v 2.12979 c 0,2.102067 0.0101,2.130166 0.63734,2.130166 0.62613,0 0.637,0.03522 0.637,2.021512 0,1.902254 -0.0338,2.026259 -0.57351,2.102908 -0.54366,0.0772 -0.57702,0.209673 -0.64597,2.545745 l -0.0729,2.464345 1.34717,0.213205 c 1.33504,0.211162 1.3481,0.221866 1.42783,1.190352 0.0762,0.9252 0.0486,0.965835 -0.51006,0.763577 -0.91174,-0.330039 -4.29422,-0.149979 -5.44995,0.290119 -1.38097,0.525881 -2.56169,1.791193 -3.24882,3.481824 -0.30974,0.762111 -0.87113,1.779486 -1.24786,2.260845 -0.77021,0.984177 -0.84487,0.900384 -1.05852,-1.192222 -0.27193,-2.662675 -2.13282,-5.097961 -4.3197,-5.653056 -0.5711,-0.144985 -1.11362,-0.217121 -1.20568,-0.160182 -0.0922,0.05691 -0.90019,0.170088 -1.79599,0.251288 -1.87832,0.170269 -3.40797,0.954735 -4.1849,2.146221 -0.2804,0.429995 -0.65781,0.782105 -0.83861,0.782617 -0.57154,0.0013 -2.30035,0.992347 -3.00164,1.720932 -0.96731,1.00491 -1.89188,3.119201 -2.05364,4.69607 -0.0766,0.746841 -0.19021,1.519001 -0.25239,1.716083 -0.17299,0.547726 -1.11831,-1.485251 -1.11831,-2.404978 0,-2.362876 -1.59461,-5.121049 -3.56845,-6.172063 -1.0554,-0.56197 -1.33033,-0.59714 -3.44112,-0.440594 -1.26175,0.09359 -2.75662,0.370717 -3.32202,0.616086 -1.88731,0.819053 -3.27481,3.041005 -3.59383,5.755364 -0.0967,0.822416 -0.32875,1.788443 -0.51566,2.146593 -0.47692,0.913865 -0.46929,6.776027 0.0101,7.694731 l 0.35023,0.670976 -1.94463,0.313283 c -1.06957,0.172362 -2.26025,0.537846 -2.64576,0.812104 -0.5987,0.425898 -0.70125,0.677921 -0.70125,1.726545 0,1.586566 0.54301,1.963386 3.17043,2.201473 1.67849,0.152104 1.92533,0.235074 1.7497,0.58696 -0.26443,0.529576 -0.26722,7.421662 -0.004,7.947526 0.1666,0.332008 -0.13887,0.475144 -1.7844,0.83638 -2.55799,0.561542 -3.13237,1.028236 -3.13237,2.546109 0,1.548915 0.73994,2.079873 3.24548,2.32918 1.6836,0.167532 1.82146,0.224099 1.59287,0.651199 -0.32898,0.61508 -0.32309,6.647514 0.008,7.516995 0.17545,0.461492 0.65061,0.843012 1.49395,1.199302 1.13313,0.47872 1.27217,0.63454 1.65818,1.85909 0.56977,1.80747 1.25188,2.60175 2.53044,2.94639 1.24159,0.3347 3.46657,0.13687 4.50678,-0.40103 0.70543,-0.36478 1.59097,-1.86108 1.93113,-3.26263 0.11591,-0.47734 0.48926,-0.87263 1.13547,-1.20231 0.52957,-0.27014 1.13443,-0.66284 1.34421,-0.87259 0.33857,-0.338605 0.3998,-0.257 0.54736,0.727 0.18366,1.22462 0.55138,1.64976 2.0346,2.35155 0.83359,0.39442 1.07158,0.68841 1.43976,1.77994 0.91804,2.72144 1.83866,3.30777 4.8544,3.09199 2.09887,-0.15015 2.86285,-0.59938 3.60019,-2.1171 0.34943,-0.71922 0.71995,-1.13543 1.01076,-1.13543 0.42346,0 0.4589,0.32446 0.4589,4.18639 0,4.106 0.0124,4.20095 0.64445,4.9522 0.35445,0.42129 1.1411,0.95553 1.74816,1.1874 1.03514,0.39527 1.1301,0.51473 1.52044,1.91881 0.50414,1.81329 1.61454,3.15838 2.91056,3.52478 h 7.3e-4 c 1.27145,0.3594 4.16182,0.16602 5.14863,-0.34428 0.94599,-0.48919 1.64086,-1.54897 2.23133,-3.40418 0.38369,-1.20552 0.56986,-1.43044 1.6287,-1.96698 1.88932,-0.95739 2.26534,-1.61196 2.26534,-3.94183 0,-1.25676 0.13863,-2.24112 0.38085,-2.70554 0.20942,-0.40157 0.38162,-1.21773 0.38235,-1.81353 7.3e-4,-0.59584 0.0586,-1.08321 0.12884,-1.08321 0.0698,0 1.18839,0.19484 2.48523,0.43313 3.29387,0.60523 11.87269,0.60523 15.16655,0 1.29687,-0.23829 2.41522,-0.43313 2.48524,-0.43313 0.0698,0 0.1285,0.48737 0.12921,1.08321 7.4e-4,0.5958 0.17293,1.41196 0.38236,1.81353 0.24294,0.46578 0.38046,1.45055 0.38046,2.72047 0,1.74996 0.0771,2.08173 0.63589,2.74591 0.34959,0.41546 1.13156,0.98865 1.73773,1.27361 0.92258,0.43365 1.15586,0.69756 1.43196,1.62161 0.53707,1.79767 1.26106,3.00428 2.11444,3.52328 1.09077,0.66329 3.27298,0.90147 4.90704,0.53579 1.69921,-0.38026 2.57203,-1.27607 3.29664,-3.38252 0.50638,-1.47202 0.65588,-1.65974 1.72206,-2.16713 2.14001,-1.0184 2.25226,-1.3229 2.25226,-6.10634 0,-3.84765 0.0356,-4.17145 0.45888,-4.17145 0.29082,0 0.66093,0.41621 1.01039,1.13543 0.73736,1.51772 1.50168,1.96695 3.60056,2.1171 3.01573,0.21578 3.93636,-0.37055 4.85438,-3.09199 0.36821,-1.09153 0.60617,-1.38552 1.43979,-1.77994 1.49033,-0.70518 1.85095,-1.12733 2.03981,-2.38667 0.11216,-0.748309 0.24338,-1.026601 0.3801,-0.805389 0.11494,0.185909 0.69398,0.570429 1.28666,0.854309 0.93775,0.44909 1.13825,0.69816 1.54397,1.91807 0.69867,2.10057 1.34452,2.75333 3.05842,3.09127 3.12917,0.617 4.86647,-0.25408 5.69001,-2.8527 0.40286,-1.27114 0.54236,-1.43187 1.6851,-1.94307 0.82744,-0.37018 1.33143,-0.78232 1.50061,-1.227335 0.32855,-0.864396 0.33189,-6.897814 0.005,-7.510252 -0.22857,-0.4271 -0.0902,-0.483667 1.59323,-0.651199 2.50554,-0.249307 3.24547,-0.780265 3.24547,-2.32918 0,-1.517873 -0.57437,-1.984567 -3.13235,-2.546109 -1.6455,-0.361236 -1.95099,-0.504372 -1.7844,-0.83638 0.26375,-0.525864 0.26058,-7.41795 -0.004,-7.947526 -0.17565,-0.351886 0.0712,-0.434856 1.75005,-0.58696 2.6274,-0.238087 3.17004,-0.614907 3.17004,-2.201473 0,-1.048624 -0.10215,-1.300647 -0.70084,-1.726545 -0.38552,-0.274258 -1.5762,-0.639742 -2.64582,-0.812104 l -1.94459,-0.313283 0.34987,-0.670976 c 0.47936,-0.918704 0.48736,-6.780866 0.0112,-7.694731 -0.1869,-0.35815 -0.41895,-1.324177 -0.51566,-2.146593 -0.31942,-2.717871 -1.8052,-5.071043 -3.66923,-5.81212 -0.52396,-0.208302 -1.98485,-0.457702 -3.2466,-0.554105 -2.11552,-0.161626 -2.38335,-0.127853 -3.44111,0.435369 -1.97386,1.051014 -3.56847,3.809187 -3.56847,6.172063 0,0.919727 -0.9453,2.95308 -1.11829,2.405355 -0.0622,-0.197082 -0.17486,-0.960409 -0.25016,-1.696291 -0.17324,-1.692521 -0.97316,-3.516298 -2.02225,-4.610942 -0.82067,-0.856294 -2.4249,-1.823062 -3.03526,-1.828843 -0.18082,-0.0016 -0.58642,-0.40039 -0.901,-0.886043 -0.74708,-1.153444 -2.1764,-1.859131 -4.1815,-2.064452 -1.95976,-0.200661 -2.81627,-0.170397 -3.60133,0.128073 -1.78474,0.678557 -3.42233,3.120205 -3.66106,5.458148 -0.21367,2.092606 -0.28831,2.176399 -1.05852,1.192222 -0.37677,-0.481359 -0.93851,-1.498734 -1.24825,-2.260845 -0.68778,-1.692247 -1.86709,-2.955362 -3.25443,-3.485186 -1.15982,-0.442936 -4.85172,-0.625235 -5.57243,-0.275186 -0.41282,0.200532 -0.4546,0.117186 -0.38232,-0.763574 0.0809,-0.982235 0.0903,-0.99025 1.42855,-1.201926 l 1.34719,-0.213205 -0.0729,-2.464345 c -0.069,-2.336072 -0.10256,-2.468532 -0.64631,-2.545745 -0.53971,-0.07665 -0.5735,-0.200654 -0.5735,-2.102908 0,-1.986269 0.0112,-2.021512 0.63734,-2.021512 0.62888,0 0.63738,-0.02767 0.63738,-2.12979 v -2.130172 l 1.72056,-0.157198 c 0.94632,-0.08643 3.73912,-0.234547 6.20643,-0.329325 3.70276,-0.142231 4.52577,-0.110228 4.71397,0.184083 0.12542,0.196096 0.28594,1.503742 0.35696,2.905685 l 0.12918,2.549105 3.05881,0.127326 3.05878,0.127323 0.0833,0.764694 c 0.046,0.420589 0.18946,0.873834 0.31883,1.00702 0.12944,0.133181 0.23527,0.664632 0.23527,1.181021 0,0.772857 0.10138,0.957422 0.57352,1.043237 0.76922,0.139814 8.91239,-0.399864 9.25698,-0.61347 0.1816,-0.112596 0.23534,-1.485376 0.16167,-4.133379 -0.0607,-2.180601 -0.0419,-3.96461 0.0415,-3.96461 0.33726,-3e-6 1.21902,2.152284 1.35615,3.310064 0.16076,1.35759 0.39726,1.522881 2.18354,1.529389 0.79272,0.0028 0.95587,0.09289 0.95587,0.526473 0,0.623765 1.3289,1.261297 2.629,1.261297 h 0.86142 l 0.17212,-4.396993 c 0.27561,-7.041728 1.0508,-14.70368 2.24518,-22.194797 0.45065,-2.826765 0.49711,-3.563698 0.23447,-3.726017 -0.73574,-0.45471 1.95885,-5.436812 4.21739,-7.7977884 0.54089,-0.5654058 2.56044,-2.3381792 4.48811,-3.9395928 1.92767,-1.6014214 3.50497,-3.04612244 3.50497,-3.2103712 0,-0.16425632 -0.16496,-0.4355564 -0.36629,-0.60264529 -0.52696,-0.43731324 -0.9536,-0.15803696 -5.39543,3.52924289 -4.39114,3.6452074 -7.65584,6.0077258 -9.97947,7.2220268 l -1.59401,0.833398 -0.62727,-0.764695 c -0.57886,-0.705984 -0.62743,-0.9770592 -0.63586,-3.5277483 l -0.0101,-2.7626816 3.31043,-3.60989337 c 1.82064,-1.98530263 3.31199,-3.81381603 3.31344,-4.06355823 0.005,-0.5852388 -0.69964,-0.8537927 -1.28297,-0.4895087 -0.34946,0.2182309 -0.52527,0.1979462 -0.76209,-0.087372 -0.16929,-0.2040171 -0.45514,-0.370772 -0.63513,-0.370772 -0.17995,0 -1.56727,1.3764509 -3.08301,3.0587756 -1.51579,1.68233127 -2.81749,3.0587768 -2.89263,3.0587768 -0.0752,0 -0.9964,-1.07186058 -2.04726,-2.381826 -2.05548,-2.5621702 -2.7577,-2.9710329 -5.10083,-2.9710329 h -1.016 l 0.006,-1.5932355 0.005,-1.5932388 0.96931,-0.4458213 c 0.53297,-0.2453404 1.23018,-0.4461948 1.54953,-0.4461948 0.85041,0 1.82778,-0.9297305 4.90633,-4.6673239 2.72687,-3.310581 2.75779,-3.36283 2.75779,-4.67815 0,-0.731585 0.11447,-1.400923 0.25467,-1.48757 0.33928,-0.209675 0.33928,-6.927586 0,-7.137268 -0.1402,-0.08663 -0.25467,-0.982642 -0.25467,-1.991267 v -1.834072 l -2.29556,-2.803005 c -1.26259,-1.541641 -2.61059,-3.404793 -2.99529,-4.140476 -0.42562,-0.813897 -0.86916,-1.337962 -1.13285,-1.338212 -0.23836,-3.85e-4 -0.52492,-0.161651 -0.637,-0.358454 -0.11205,-0.196797 -0.49076,-0.397638 -0.84125,-0.446195 l -0.63738,-0.08813 -0.0705,-3.632297 c -0.0666,-3.421609 -0.0999,-3.632298 -0.57353,-3.632298 -0.42106,-2e-6 -0.50341,0.175993 -0.50631,1.083191 l -0.004,1.083568 -0.66949,-1.274741 c -1.09113,-2.076884 -3.75418,-4.212221 -7.60774,-6.100376 -4.28143,-2.09782 -9.16153,-3.590627 -15.93125,-4.873059 -2.56012,-0.484981 -8.21311,-1.133972 -9.87568,-1.133972 -1.01897,0 -1.33971,-0.09142 -1.33971,-0.381227 0,-0.646152 -0.77426,-7.866879 -0.91144,-8.499755 -0.0849,-0.392433 -0.25664,-0.547845 -0.50108,-0.454035 -0.22166,0.08504 -0.37188,-0.0085 -0.37188,-0.231875 0,-0.205888 -0.22929,-0.374131 -0.50969,-0.374131 -0.28039,0 -0.50965,0.114454 -0.50965,0.25465 0,0.140193 -0.2869,0.255022 -0.63739,0.255022 -0.39651,0 -0.63735,-0.144443 -0.63735,-0.382346 0,-0.210291 -0.17207,-0.382347 -0.38237,-0.382347 z m 39.60765,25.605677 c 0.0102,0.0016 0.0192,0.0055 0.0291,0.01158 0.14019,0.08665 0.25501,0.724308 0.25501,1.416997 0,0.6927 -0.1148,1.259431 -0.25501,1.259431 -0.14021,0 -0.25503,-0.637654 -0.25503,-1.416998 0,-0.82476 0.0849,-1.295919 0.22589,-1.271005 z m -79.49904,0.138896 c 0.1402,0 0.25501,0.5734 0.25501,1.27437 0,0.700968 -0.11481,1.274738 -0.25501,1.274738 -0.14018,0 -0.25503,-0.57377 -0.25503,-1.274738 0,-0.70097 0.11483,-1.27437 0.25503,-1.27437 z m -7.13467,63.087263 0.62691,0.764696 c 0.41186,0.502445 0.63012,1.092504 0.63591,1.72056 0.0101,0.852106 -0.0598,0.955869 -0.62804,0.955869 -0.61693,0 -0.6377,-0.05487 -0.63626,-1.720562 z m 93.79712,0 9.2e-4,1.720563 h -3.9e-4 l 9.1e-4,1.720562 h -0.79421 c -0.69947,0 -0.77605,-0.06856 -0.64071,-0.573521 0.0845,-0.315433 0.15893,-0.745579 0.16613,-0.955867 0.008,-0.210289 0.29488,-0.726463 0.63962,-1.147041 z m -37.84825,32.754522 c 0.043,-1e-6 0.0259,0.200481 -0.0387,0.445824 -0.12655,0.481511 -1.0944,1.835347 -1.10373,1.54395 -0.006,-0.199589 1.02157,-1.989774 1.14255,-1.989774 z m -18.13347,0.02014 c 0.0624,-0.03119 0.30204,0.273839 0.67996,0.885299 0.30779,0.498051 0.50471,0.960435 0.43759,1.027558 -0.13457,0.134552 -0.77275,-0.786464 -1.03052,-1.487194 -0.0983,-0.267393 -0.12452,-0.406938 -0.0872,-0.425663 z m 18.28507,5.157958 -0.0765,1.043239 -0.0762,1.043241 -1.15673,0.07543 c -1.33217,0.08692 -1.48779,-0.0044 -1.33636,-0.782613 0.0818,-0.420535 0.43882,-0.672594 1.37818,-0.973421 z m -18.37804,0.0082 1.25496,0.401762 c 0.92781,0.297077 1.28381,0.549749 1.36547,0.969312 0.0607,0.312139 0.0502,0.627825 -0.0231,0.701215 -0.19528,0.194046 -2.22727,0.163504 -2.42739,-0.03654 -0.0935,-0.09347 -0.16988,-0.589895 -0.16988,-1.102987 z"
       id="path1466"
       inkscape:connector-curvature="0" />
    <path
       style="fill:#000000;stroke-width:0.2112115"
       d="m -841.37181,-119.90624 c -1.18409,-0.37962 -2.37297,-1.61364 -2.74241,-2.84649 -0.23653,-0.78952 -0.39419,-0.93181 -1.75486,-1.5835 -1.6312,-0.78124 -3.32906,-1.27723 -3.77992,-1.10419 -0.15743,0.0603 -0.54523,0.63921 -0.86183,1.28625 -0.89431,1.82792 -2.4698,2.69038 -4.71176,2.57931 -2.19991,-0.10901 -3.24525,-0.84023 -3.99045,-2.79138 -0.29712,-0.77811 -0.54737,-1.04505 -1.37097,-1.46238 -1.65235,-0.83732 -1.67047,-0.89672 -1.67047,-5.47724 0,-4.24667 0.23261,-6.76071 1.28067,-13.83887 1.47587,-9.96757 1.50157,-10.23208 1.67328,-17.21374 0.17737,-7.20934 0.26631,-7.84141 1.36761,-9.72074 0.88187,-1.50474 2.38375,-2.20602 3.61908,-1.68984 l 0.7096,0.29646 0.23796,-0.88371 c 0.66992,-2.48803 2.3325,-4.10501 3.9273,-3.8196 2.01828,0.36116 3.53893,2.74942 4.39477,6.90237 0.21944,1.06508 0.56063,0.36243 0.50946,-1.04931 l -0.0495,-1.36829 2.46412,0.003 2.46421,0.003 1.89249,1.06685 c 1.04087,0.58674 1.98293,1.09194 2.09333,1.12263 0.11048,0.0306 1.05388,-0.32441 2.09652,-0.78907 l 1.89559,-0.84484 0.0975,-4.64666 c 0.079,-3.75846 0.16836,-4.82831 0.46788,-5.59711 0.20372,-0.52273 0.35315,-1.09302 0.33215,-1.26727 -0.0208,-0.17423 -0.0832,-1.63129 -0.13809,-3.23784 l -0.0998,-2.92106 0.75094,-0.70817 c 0.98508,-0.9291 0.98818,-1.59712 0.012,-2.51815 l -0.73929,-0.6972 v -2.13998 c 0,-1.55401 -0.0726,-2.14878 -0.264,-2.17214 -0.1452,-0.0177 -0.38684,-0.0423 -0.53692,-0.0547 -0.15007,-0.0123 -0.34014,-0.13055 -0.42236,-0.26264 -0.10929,-0.1755 -0.63297,-0.13511 -1.94486,0.15002 -0.98747,0.21459 -2.21746,0.44745 -2.73347,0.51745 -0.51601,0.07 -1.60901,0.26847 -2.42892,0.44105 -0.81992,0.17258 -1.84722,0.35866 -2.28284,0.41349 -0.78271,0.0985 -0.79205,0.091 -0.79205,-0.63581 0,-0.72484 -0.0111,-0.73423 -0.79206,-0.64713 -3.01016,0.33591 -3.39293,0.33348 -4.14786,-0.0265 -0.41949,-0.20025 -0.76276,-0.49189 -0.76276,-0.64827 0,-0.15638 -0.14257,-0.33904 -0.31683,-0.40591 -0.17475,-0.067 -0.31684,-0.38056 -0.31684,-0.699 0,-0.52921 -0.0993,-0.59963 -1.18936,-0.8436 -3.10962,-0.6959 -7.28757,-2.39958 -7.54781,-3.07784 -0.0719,-0.1873 -0.21841,-0.28638 -0.32555,-0.22017 -0.33814,0.20902 -1.49677,-0.95079 -2.07264,-2.07485 -0.3047,-0.59473 -0.85337,-1.84135 -1.21914,-2.77021 -0.51026,-1.29553 -0.75996,-1.68908 -1.07208,-1.68969 -0.818,-0.002 -1.31525,-3.04124 -0.56615,-3.46047 0.33017,-0.18481 0.31078,-0.22923 -0.1824,-0.41674 -0.30368,-0.11593 -0.62331,-0.384 -0.71032,-0.59619 -0.0871,-0.21218 -0.20835,-2.21918 -0.26951,-4.45996 -0.0993,-3.6374 -0.15191,-4.09594 -0.49086,-4.27733 -0.29656,-0.1587 -0.35571,-0.37644 -0.27061,-0.99491 0.54657,-3.96898 1.3649,-6.75465 3.02788,-10.30706 l 1.02099,-2.18093 3.98007,-0.0844 c 2.18903,-0.0464 4.17013,-0.14003 4.40251,-0.20804 0.2323,-0.068 0.50954,-0.13093 0.61603,-0.13982 0.36618,-0.0306 -0.0367,-0.24606 -0.64293,-0.34369 -2.1619,-0.34826 -4.87135,-1.05379 -5.09279,-1.32611 -0.144,-0.17712 -0.3221,-0.26175 -0.39579,-0.18808 -0.19742,0.19737 -1.69571,-0.61911 -2.0412,-1.11228 -0.16373,-0.23384 -0.61842,-1.22005 -1.01038,-2.1916 -0.55848,-1.38436 -0.8326,-1.81177 -1.26743,-1.97591 -0.42229,-0.1594 -0.61316,-0.44092 -0.79892,-1.17853 -0.33823,-1.3435 -0.31316,-2.04933 0.0726,-2.04933 0.59886,0 0.2869,-1.29853 -0.38262,-1.5924 -0.58961,-0.25882 -0.73569,-1.28135 -0.76052,-5.32477 -0.0152,-2.47119 -0.0726,-3.00977 -0.32283,-3.00977 -0.1674,0 -0.35484,-0.0816 -0.41646,-0.18138 -0.16923,-0.27385 0.45295,-4.13 0.9577,-5.93595 0.53118,-1.90026 2.60207,-6.77249 2.98078,-7.01285 0.14703,-0.0933 2.7622,-0.17113 5.81163,-0.17291 l 5.54429,-0.003 v -1.05674 -1.05606 h -3.90742 -3.90741 v -0.74587 c 0,-0.41023 -0.11879,-0.78819 -0.26399,-0.83991 -0.23374,-0.0833 -1.52249,-0.25887 -2.20206,-0.30007 -0.13659,-0.008 -0.56383,-0.78662 -0.94939,-1.72964 -0.50221,-1.22819 -0.83908,-1.76706 -1.18761,-1.89956 -0.53947,-0.20513 -1.01565,-1.17194 -1.22648,-2.49032 -0.12245,-0.76558 -0.0907,-0.86551 0.27501,-0.86551 0.38549,0 0.39931,-0.0781 0.20476,-1.15136 -0.16764,-0.92493 -0.29552,-1.16377 -0.65043,-1.21447 -0.56751,-0.0811 -0.72181,-1.03875 -0.74297,-4.61002 -0.0136,-2.36641 -0.0599,-2.68392 -0.43466,-3.00481 -0.34653,-0.29668 -0.39898,-0.53341 -0.30287,-1.36702 0.21698,-1.88206 0.74991,-4.38235 1.25857,-5.9047 0.49924,-1.49429 2.13069,-5.30834 2.39748,-5.60484 0.0751,-0.0836 1.75062,-0.20368 3.72317,-0.26686 1.97255,-0.0632 3.82408,-0.14628 4.1145,-0.18465 0.29041,-0.0384 0.65171,-0.0846 0.80298,-0.10275 0.15128,-0.0182 0.37208,-0.31132 0.49063,-0.65149 0.15422,-0.44246 0.34645,-0.61178 0.67543,-0.59494 1.01924,0.0522 1.83276,-0.0655 1.83276,-0.26505 0,-0.13252 -1.35747,-0.21242 -3.64342,-0.21444 -2.00385,-0.002 -3.75359,-0.0734 -3.88835,-0.1591 -0.13475,-0.0857 -0.27732,-0.43766 -0.31683,-0.78209 -0.0591,-0.5163 -0.20165,-0.65906 -0.81114,-0.8133 -1.25274,-0.31704 -1.90023,-0.60629 -1.91459,-0.85524 -0.0303,-0.52102 -1.38925,-2.98415 -1.64661,-2.98415 -0.41135,0 -0.82478,-0.67237 -1.19359,-1.94111 -0.35093,-1.20702 -0.28714,-1.60127 0.22703,-1.40394 0.26327,0.10099 0.29376,-0.0341 0.18129,-0.80127 -0.0976,-0.66524 -0.31356,-1.07506 -0.77417,-1.46853 l -0.63886,-0.54579 -0.10678,-3.52003 c -0.0583,-1.93603 -0.18512,-3.52005 -0.28091,-3.52005 -0.73874,0 -0.59129,-2.7406 0.33703,-6.26408 0.28027,-1.06384 1.02866,-3.10732 1.66313,-4.54105 l 1.15351,-2.60679 1.972,-0.11767 c 2.18944,-0.13063 3.43428,-0.55519 3.61118,-1.23155 0.10174,-0.38905 0.0256,-0.44608 -0.598,-0.44608 -0.5216,0 -0.80443,-0.13716 -1.04742,-0.50792 -0.18297,-0.27935 -0.55879,-0.56465 -0.83499,-0.63398 -0.8968,-0.22508 -1.91436,-1.42975 -2.55682,-3.02692 -0.49214,-1.22341 -0.70472,-1.5292 -1.06451,-1.53129 -0.47921,-0.002 -0.68308,-0.36889 -1.23661,-2.22032 -0.17363,-0.58083 -0.31676,-1.07983 -0.31803,-1.10886 0,-0.029 0.20029,-0.0528 0.44775,-0.0528 0.40209,0 0.43641,-0.0844 0.32171,-0.79135 -0.071,-0.43525 -0.25657,-0.88672 -0.41319,-1.00326 -0.85839,-0.6389 -1.02109,-1.29432 -1.13747,-4.58096 -0.0758,-2.14965 -0.20029,-3.3054 -0.3704,-3.44578 -1.06419,-0.87838 -0.0511,-6.31155 2.06882,-11.09517 0.6395,-1.44297 1.28818,-2.66237 1.4417,-2.70975 0.15342,-0.0473 0.40839,-0.1889 0.56661,-0.31448 0.15814,-0.12557 0.59312,-0.20199 0.96656,-0.16982 0.41582,0.0359 0.78431,-0.0684 0.95075,-0.26902 0.14951,-0.18013 0.35675,-0.27501 0.46061,-0.21086 0.10378,0.0642 0.24714,-0.0356 0.31859,-0.22168 0.0719,-0.18609 0.4662,-0.51093 0.87739,-0.72185 0.53325,-0.2736 0.84976,-0.64493 1.10409,-1.29559 0.32866,-0.84052 0.46867,-0.9548 1.78449,-1.45645 1.19342,-0.45499 1.48503,-0.66572 1.77609,-1.28361 0.32146,-0.68253 0.48575,-0.77656 2.1417,-1.2258 1.51705,-0.41155 1.98891,-0.45636 3.06085,-0.29063 0.69697,0.10776 1.93255,0.18414 2.74568,0.16974 1.46093,-0.0259 1.47929,-0.0333 1.54731,-0.6273 0.0663,-0.58229 0.0997,-0.59791 1.05604,-0.49902 0.86693,0.0896 2.96928,0.50143 7.57376,1.4835 1.20181,0.25631 1.33248,0.24792 1.63488,-0.10518 0.18072,-0.21107 0.5101,-0.38377 0.73202,-0.38377 0.36226,0 0.41102,-0.19669 0.47729,-1.92418 0.0719,-1.8753 0.0914,-1.93873 0.76028,-2.49711 0.89663,-0.74838 0.88234,-1.36534 -0.0527,-2.27351 l -0.73927,-0.71793 v -2.76043 -2.76044 l 0.81742,-0.81744 c 0.54899,-0.54893 0.85976,-1.07847 0.94621,-1.61204 0.071,-0.43704 0.36586,-1.50744 0.65555,-2.37869 0.59711,-1.79554 0.67351,-2.7926 0.24148,-3.15118 -0.18784,-0.15586 -0.93965,-0.22335 -2.05262,-0.18426 l -1.75628,0.0617 -0.92003,1.32005 c -0.85998,1.2339 -0.97343,1.32008 -1.73841,1.32008 -0.67989,0 -0.90965,-0.11957 -1.35724,-0.70637 -0.29631,-0.38851 -0.53876,-0.91126 -0.53876,-1.16165 0,-0.25041 -0.0951,-0.45531 -0.21122,-0.45531 -0.11616,0 -0.21122,0.36855 -0.21122,0.81899 0,1.14968 -0.31079,1.32222 -2.25051,1.24957 l -1.65691,-0.062 -0.35524,-1.37288 c -0.46898,-1.8128 -0.51034,-4.9754 -0.067,-5.14545 0.23933,-0.0919 0.31685,-0.47856 0.31685,-1.58081 0,-1.03946 0.0911,-1.5349 0.31683,-1.72219 0.26782,-0.2223 0.31691,-1.18129 0.31748,-6.2038 4.7e-4,-3.26748 0.0631,-7.43783 0.13874,-9.26745 0.12285,-2.96265 0.17801,-3.32658 0.5042,-3.32658 0.54546,0 0.59599,0.6709 0.75557,10.02491 0.13458,7.8867 0.16994,8.46212 0.53859,8.76526 0.21698,0.17846 0.4389,0.56083 0.49318,0.84972 0.0543,0.28888 0.31357,0.68851 0.57636,0.88809 0.46643,0.35433 0.47929,0.34943 0.54642,-0.20841 0.11023,-0.91674 1.24339,-1.94501 2.13763,-1.93977 0.68859,0.004 0.82487,0.11742 1.64956,1.37287 l 0.89904,1.36849 h 1.88712 c 1.03785,0 1.93344,-0.0751 1.99011,-0.16679 0.0567,-0.0918 -0.42164,-1.90898 -1.0629,-4.03832 l -1.16597,-3.87154 -1.31165,-1.22697 c -0.72141,-0.67484 -1.52217,-1.40005 -1.77945,-1.61158 -0.40983,-0.33696 -0.44161,-0.47463 -0.25649,-1.1109 0.17036,-0.58513 0.14433,-0.80039 -0.13371,-1.10762 -0.32235,-0.35623 -0.1187,-1.12227 3.09181,-11.6296 l 3.43692,-11.24825 2.35021,-2.33966 2.35022,-2.33965 3.93249,-0.99876 3.93248,-0.99878 3.98797,1.00046 3.98789,1.00046 2.35069,2.33797 2.3507,2.33797 3.43587,11.24885 c 3.20741,10.50081 3.41305,11.27418 3.09134,11.6296 -0.27333,0.30207 -0.30271,0.52669 -0.14202,1.08708 0.1971,0.68708 0.16533,0.74051 -1.16716,1.96148 -0.75334,0.69033 -1.55161,1.41214 -1.77393,1.60403 -0.41607,0.35921 -2.8268,7.98969 -2.62651,8.31374 0.0567,0.0917 0.94245,0.16679 1.96832,0.16679 h 1.86519 l 0.92089,-1.36619 c 0.8405,-1.24705 0.98628,-1.36679 1.67144,-1.37288 0.94181,-0.009 2.10075,1.07396 2.10075,1.96194 0,0.5688 0.007,0.57144 0.53971,0.22202 0.29681,-0.19449 0.59449,-0.62775 0.66154,-0.96281 0.067,-0.33507 0.28507,-0.69657 0.48464,-0.80337 0.32992,-0.17659 0.37575,-0.96453 0.50578,-8.70497 0.15822,-9.41962 0.20875,-10.0949 0.75534,-10.0949 0.32617,0 0.38134,0.36393 0.50419,3.32658 0.0758,1.82962 0.13835,5.99997 0.13874,9.26745 5.3e-4,5.02251 0.0495,5.9815 0.31748,6.2038 0.22567,0.18729 0.31684,0.68273 0.31684,1.72218 0,1.10226 0.0774,1.48898 0.31683,1.58082 0.44313,0.17005 0.40178,3.33265 -0.067,5.14545 l -0.35523,1.37288 -1.65691,0.062 c -1.93975,0.0726 -2.25051,-0.0999 -2.25051,-1.24957 0,-0.45044 -0.0951,-0.81899 -0.21123,-0.81899 -0.11615,0 -0.21123,0.20489 -0.21123,0.4553 0,0.2504 -0.24243,0.77315 -0.53876,1.16166 -0.44759,0.5868 -0.67733,0.70637 -1.35723,0.70637 -0.76499,0 -0.87842,-0.0862 -1.73842,-1.32008 l -0.92001,-1.32006 -1.7563,-0.0617 c -1.11295,-0.0391 -1.86478,0.0284 -2.05261,0.18427 -0.45103,0.37431 -0.35922,1.327 0.33735,3.50148 0.34845,1.08794 0.63359,2.15585 0.63359,2.37312 0,0.21728 0.38023,0.77523 0.84482,1.2399 l 0.8449,0.84484 v 2.76044 2.76043 l -0.73928,0.71794 c -0.93511,0.90816 -0.9494,1.52512 -0.0527,2.2735 0.66896,0.55838 0.68828,0.62181 0.76028,2.49712 0.0687,1.7933 0.10464,1.92636 0.52799,1.95635 0.24986,0.0177 0.54929,0.0543 0.66544,0.0813 0.11615,0.027 0.42508,0.0601 0.68644,0.0735 0.28787,0.0148 0.47522,0.15967 0.47522,0.36758 0,0.34793 0.0455,0.34685 1.79533,-0.0424 0.2323,-0.0517 0.66002,-0.13955 0.95043,-0.19524 0.29041,-0.0557 0.76563,-0.15073 1.05604,-0.21119 0.29042,-0.0605 0.76563,-0.15609 1.05604,-0.21246 1.09293,-0.21212 1.59953,-0.31556 2.1121,-0.43127 1.07936,-0.24364 2.74951,-0.44384 2.85154,-0.3418 0.0583,0.058 0.10549,0.31693 0.10549,0.57541 0,0.31175 0.15997,0.50941 0.47521,0.58725 0.57333,0.14158 2.91485,0.0391 4.01679,-0.17595 0.56805,-0.11078 1.3451,-0.0123 2.71535,0.34422 1.85711,0.48318 1.92992,0.52512 2.23558,1.28799 0.27373,0.68334 0.48576,0.85047 1.58914,1.25277 1.09237,0.39833 1.32458,0.57908 1.63519,1.27281 0.3914,0.87427 1.78088,2.27296 2.65244,2.67008 0.29752,0.13558 0.82175,0.24652 1.16477,0.24652 0.34302,0 0.6237,0.0951 0.6237,0.21122 0,0.11617 0.12812,0.2112 0.28475,0.2112 0.15662,0 0.43338,0.35642 0.61507,0.79206 0.18161,0.43562 0.7191,1.67332 1.19423,2.75043 1.02307,2.31892 1.59504,4.28824 2.03162,6.99429 0.32019,1.98489 0.27868,2.59937 -0.21569,3.19197 -0.17179,0.20592 -0.30639,1.41345 -0.38438,3.44926 -0.1219,3.18118 -0.29105,3.84142 -1.14761,4.47858 -0.16165,0.12024 -0.34765,0.61925 -0.41334,1.10888 -0.10646,0.79426 -0.0726,0.89023 0.31149,0.89023 0.42644,0 0.42707,0.0125 0.0631,1.21594 -0.4998,1.6505 -0.82829,2.22096 -1.19757,2.07928 -0.21866,-0.084 -0.53494,0.38139 -1.12039,1.6487 -0.62745,1.35803 -1.00352,1.89318 -1.62905,2.31826 -0.44727,0.30394 -0.91595,0.55263 -1.04136,0.55263 -0.1254,0 -0.4389,0.28515 -0.6965,0.63364 -0.25768,0.34851 -0.60821,0.63364 -0.77896,0.63364 -0.36361,0 -0.38229,0.10486 -0.10928,0.61503 0.33463,0.62524 1.96832,1.12064 3.43116,1.04048 l 1.3032,-0.0714 0.99465,2.12546 c 1.81824,3.88536 3.30727,9.78437 2.73818,10.84769 -0.12916,0.24133 -0.32649,0.43878 -0.43857,0.43878 -0.11839,0 -0.20381,0.96065 -0.20381,2.29234 0,3.64864 -0.18248,4.88483 -0.76003,5.14795 -0.35053,0.15971 -0.54611,0.5079 -0.70712,1.25852 -0.27724,1.29264 -0.28156,1.22814 0.0818,1.22814 0.48983,0 0.53932,0.28878 0.22735,1.32541 -0.40896,1.35891 -0.69538,1.83441 -1.23103,2.0434 -0.30638,0.11957 -0.67032,0.68245 -1.07895,1.66879 -0.65299,1.57596 -0.89391,1.77391 -2.49878,2.0529 -0.72635,0.12628 -0.79205,0.19516 -0.79205,0.83083 0,0.43721 -0.12334,0.74047 -0.33408,0.82134 -0.18376,0.0705 -1.94206,0.1282 -3.90743,0.1282 -2.2414,0 -3.57334,0.0787 -3.57334,0.21122 0,0.11616 0.30895,0.22903 0.68645,0.25082 0.77425,0.0447 1.58602,0.10092 2.06587,0.14315 0.17778,0.0157 0.42324,0.29322 0.54538,0.61682 0.12574,0.3332 0.39771,0.60461 0.62714,0.62581 0.22279,0.0206 2.02986,0.1012 4.01574,0.17913 l 3.61078,0.1417 0.96831,2.13665 c 1.33193,2.93877 1.95562,4.89296 2.46565,7.7256 0.44775,2.48648 0.42987,3.05134 -0.10293,3.2558 -0.24793,0.0951 -0.30877,0.63443 -0.30877,2.73578 0,3.58468 -0.15128,4.56482 -0.73888,4.78824 -0.34734,0.13204 -0.51952,0.44976 -0.67782,1.25024 -0.16357,0.82704 -0.15216,1.07322 0.0495,1.07322 0.83588,0 0.1848,2.87084 -0.75198,3.31567 -0.38613,0.18334 -0.72851,0.72731 -1.23015,1.95418 -0.46261,1.1315 -0.81353,1.70827 -1.0491,1.72449 -0.19462,0.0134 -0.44895,0.0464 -0.5651,0.0734 -0.11615,0.027 -0.56766,0.0635 -1.00328,0.0812 -0.77784,0.0316 -0.79206,0.0473 -0.79206,0.87701 v 0.84485 h -3.90741 -3.90742 v 1.05606 1.05606 l 5.54429,0.003 c 3.04943,0.002 5.65087,0.0731 5.78106,0.15841 0.37727,0.24731 2.33066,4.84007 2.90231,6.82366 0.28698,0.99583 0.67662,2.70665 0.86581,3.8018 0.33872,1.96034 0.33736,1.99663 -0.0879,2.34187 -0.39323,0.31922 -0.43195,0.58644 -0.43195,2.97878 0,3.97542 -0.17083,5.21525 -0.7551,5.48147 -0.54266,0.24725 -0.88002,1.20553 -0.50579,1.43679 0.31029,0.19176 0.32355,1.8259 0.0208,2.58905 -0.12788,0.32258 -0.43243,0.66048 -0.67685,0.7509 -0.30615,0.11325 -0.69571,0.77352 -1.25219,2.1225 -0.90613,2.19675 -1.21562,2.62093 -2.17946,2.98753 -0.36913,0.14039 -0.9688,0.3858 -1.33249,0.54532 -0.96152,0.42169 -4.44379,1.2226 -5.88619,1.35379 -0.35772,0.0325 -0.34159,0.0631 0.1056,0.19927 0.29041,0.0885 2.38134,0.17723 4.64662,0.19723 3.59099,0.0317 4.16159,0.0828 4.45432,0.39894 0.44264,0.47793 2.13516,4.35898 2.8228,6.47277 0.58355,1.79371 1.43563,6.20011 1.25538,6.49177 -0.0599,0.097 -0.24596,0.1763 -0.41336,0.1763 -0.2512,0 -0.30797,0.58064 -0.32522,3.32658 -0.0287,4.54257 -0.16684,5.59328 -0.77129,5.85848 -0.40848,0.17921 -0.45566,0.31295 -0.33528,0.95045 0.31364,1.66131 0.0719,2.89814 -0.58577,2.99777 -0.34207,0.0518 -0.57932,0.43469 -1.0234,1.65153 -1.0677,2.92591 -2.37209,5.06907 -3.08535,5.06907 -0.13827,0 -0.37616,0.15032 -0.52863,0.33406 -0.59144,0.7126 -4.47467,2.28947 -7.3781,2.99601 -0.56111,0.13653 -0.75596,0.30417 -0.80841,0.69543 -0.0383,0.28356 -0.45406,0.87197 -0.92441,1.30759 -0.81831,0.75798 -1.07671,0.89254 -1.53725,0.80071 -0.11407,-0.0228 -0.81799,-0.0798 -1.56415,-0.12681 -0.74615,-0.047 -1.5319,-0.14109 -1.74624,-0.20908 -0.33048,-0.10491 -0.38955,-0.006 -0.38955,0.65435 v 0.77805 l -1.19071,-0.12983 c -0.65492,-0.0714 -1.53407,-0.21954 -1.95372,-0.32916 -0.41964,-0.10959 -1.19071,-0.25782 -1.71342,-0.32934 -0.52272,-0.0715 -1.28309,-0.21332 -1.68972,-0.3151 -0.40657,-0.10181 -1.07185,-0.23715 -1.4785,-0.30079 -0.40657,-0.0636 -0.9723,-0.16318 -1.25721,-0.22122 -0.28482,-0.0581 -0.57579,-0.0118 -0.64652,0.10247 -0.0703,0.11442 -0.55042,0.24577 -1.06611,0.29192 -0.51561,0.0461 -1.00016,0.0933 -1.07672,0.10489 -0.0767,0.0116 -0.17163,1.02957 -0.21122,2.26227 -0.0719,2.23531 -0.0735,2.24274 -0.75845,2.81392 -0.94612,0.78932 -0.92584,1.5599 0.0647,2.46725 l 0.75118,0.68804 -0.1073,2.81194 c -0.0591,1.54658 -0.12174,3.04954 -0.13945,3.33998 -0.0176,0.2904 0.12022,1.04772 0.30653,1.68291 0.2616,0.89193 0.33872,2.12725 0.33872,5.42525 v 4.2704 l 2.01828,0.95605 2.0183,0.95607 2.08878,-1.16671 2.08878,-1.1667 2.44058,-0.0399 2.44058,-0.0399 -9e-5,1.42568 c -7e-5,1.43754 0.30966,1.92583 0.53589,0.84485 0.74018,-3.53717 1.84466,-5.55636 3.50173,-6.40176 1.23654,-0.63076 2.15496,-0.42087 3.27782,0.74917 0.78575,0.81878 0.98373,1.22566 1.66785,3.42731 0.0599,0.19381 0.22384,0.18124 0.67008,-0.0515 0.77887,-0.40627 1.02897,-0.39148 2.09333,0.12375 0.5908,0.28601 1.112,0.77279 1.52654,1.42568 1.22122,1.92365 1.33177,2.67173 1.5196,10.28467 0.16286,6.60032 0.21786,7.27805 1.03761,12.77831 0.47617,3.19458 1.05964,7.13894 1.29665,8.76528 0.29226,2.00533 0.4682,4.58832 0.54667,8.02603 0.11271,4.93821 0.10409,5.08365 -0.33288,5.63332 -0.24668,0.31033 -0.85473,0.71933 -1.35118,0.90895 -0.78871,0.3012 -0.94956,0.47686 -1.27461,1.39203 -0.72356,2.03724 -2.1611,2.9178 -4.60504,2.82077 -1.7662,-0.0701 -2.99978,-0.69807 -3.77818,-1.92336 -0.35531,-0.55927 -0.69945,-1.22846 -0.76483,-1.48704 -0.107,-0.42304 -0.22408,-0.46143 -1.16829,-0.38295 -0.61842,0.0514 -1.74391,0.41312 -2.74065,0.88082 -1.65092,0.77473 -1.70512,0.82442 -2.27693,2.08545 -0.69028,1.52241 -1.35429,2.10306 -2.92833,2.56063 -0.95091,0.27644 -1.3673,0.29422 -2.3356,0.0998 -1.82647,-0.36679 -2.71359,-1.07428 -3.48961,-2.78299 -0.48639,-1.0709 -0.8156,-1.51826 -1.25026,-1.69878 -0.3245,-0.13473 -0.87285,-0.50922 -1.2185,-0.83217 l -0.62856,-0.58714 -0.61804,0.51999 -0.61794,0.52001 -1.38007,-0.90667 -1.38006,-0.9067 -0.008,-2.0819 c -0.007,-1.90093 -0.0367,-2.06825 -0.37399,-1.92487 -0.20333,0.0864 -1.36762,0.52697 -2.58739,0.97909 -2.91332,1.07989 -4.14882,1.40263 -6.75871,1.76559 -0.84826,0.11798 -5.75696,0.12655 -6.54758,0.0114 -0.29041,-0.0423 -1.04718,-0.14356 -1.68173,-0.22505 -1.35269,-0.17375 -3.54324,-0.82283 -6.34433,-1.87979 -1.10355,-0.41642 -2.00648,-0.75869 -2.00648,-0.76059 0,-0.003 0.0303,0.88797 0.0663,1.97749 l 0.067,1.98096 -1.3961,0.97592 -1.39604,0.97592 -0.62266,-0.4603 -0.62257,-0.4603 -0.4769,0.43702 c -0.26239,0.24037 -0.86812,0.63325 -1.34622,0.8731 -0.62266,0.31234 -0.90373,0.60364 -0.99106,1.02706 -0.2307,1.11902 -1.30958,2.50959 -2.33058,3.00384 -1.24236,0.60139 -2.92209,0.73474 -4.17923,0.3317 z"
       id="path827"
       inkscape:connector-curvature="0"
       inkscape:export-xdpi="96"
       inkscape:export-ydpi="96" />
    <text
       id="text836"
       y="8.6666117"
       x="102.08652">
      <tspan
         id="tspan834"
         dy="13.493751"
         style="font-style:normal;font-weight:normal;font-size:23.81250191px;text-align:center;text-anchor:start;fill:#000000;fill-opacity:1;stroke:none"
         sodipodi:role="line"
         x="102.08652"
         y="8.6666117">230746.68 px<tspan
   id="tspan832"
   style="font-size:64.99999762%;baseline-shift:super">2</tspan>
</tspan>
    </text>
  </g>
</svg>
