<?xml version="1.0" encoding="UTF-8" standalone="no"?>
<!-- Created with Inkscape (http://www.inkscape.org/) -->

<svg
   xmlns:dc="http://purl.org/dc/elements/1.1/"
   xmlns:cc="http://creativecommons.org/ns#"
   xmlns:rdf="http://www.w3.org/1999/02/22-rdf-syntax-ns#"
   xmlns:svg="http://www.w3.org/2000/svg"
   xmlns="http://www.w3.org/2000/svg"
   xmlns:sodipodi="http://sodipodi.sourceforge.net/DTD/sodipodi-0.dtd"
   xmlns:inkscape="http://www.inkscape.org/namespaces/inkscape"
   inkscape:export-ydpi="96"
   inkscape:export-xdpi="96"
   inkscape:export-filename="D:\GitHub\wills-spaceships\Outlines Ships\manta-polaris 4.png"
   inkscape:version="0.92.4 (5da689c313, 2019-01-14)"
   width="83.006851mm"
   height="83.006851mm"
   viewBox="0 0 83.006852 83.006852"
   version="1.1"
   id="svg8"
   sodipodi:docname="manta-polaris 3.svg">
  <defs
     id="defs2" />
  <sodipodi:namedview
     id="base"
     pagecolor="#ffffff"
     bordercolor="#666666"
     borderopacity="1.0"
     inkscape:pageopacity="0.0"
     inkscape:pageshadow="2"
     inkscape:zoom="0.24748737"
     inkscape:cx="-590.81047"
     inkscape:cy="849.85752"
     inkscape:document-units="mm"
     inkscape:current-layer="layer1"
     showgrid="false"
     inkscape:window-width="1920"
     inkscape:window-height="1017"
     inkscape:window-x="1912"
     inkscape:window-y="-8"
     inkscape:window-maximized="1" />
  <metadata
     id="metadata5">
    <rdf:RDF>
      <cc:Work
         rdf:about="">
        <dc:format>image/svg+xml</dc:format>
        <dc:type
           rdf:resource="http://purl.org/dc/dcmitype/StillImage" />
        <dc:title />
      </cc:Work>
    </rdf:RDF>
  </metadata>
  <g
     inkscape:label="Layer 1"
     inkscape:groupmode="layer"
     id="layer1"
     transform="translate(118.62455,-69.348126)">
    <path
       style="fill:#000000;stroke-width:0.10375856"
       d="M -118.62455,110.85155 V 69.348126 h 7.47062 7.47061 v 41.503424 41.50343 h -7.47061 -7.47062 z"
       id="path832"
       inkscape:connector-curvature="0" />
    <path
       style="fill:#000000;stroke-width:0.10375856"
       d="M -50.558933,110.85155 V 69.348126 h 7.470617 7.470617 v 41.503424 41.50343 h -7.470617 -7.470617 z"
       id="path830"
       inkscape:connector-curvature="0" />
    <path
       style="fill:#000000;stroke-width:0.10375856"
       d="m -77.458544,148.54186 c -0.354945,-0.39769 -0.530711,-1.64972 -1.066962,-7.60032 -0.747689,-8.29684 -0.870469,-8.71587 -2.606354,-8.89502 -0.389155,-0.0402 -0.59353,-0.11453 -0.660933,-0.24047 -0.308371,-0.5762 -0.656858,-4.23344 -0.661963,-6.94709 -0.0051,-2.69971 0.129059,-3.38277 0.886768,-4.51564 0.284971,-0.42607 0.561651,-0.92642 0.614842,-1.11189 0.42169,-1.47034 -0.632793,-5.1286 -1.889992,-6.55685 -0.451057,-0.51244 -1.19616,-1.02084 -1.817268,-1.23998 l -0.422961,-0.14922 -0.187792,0.62022 c -0.344834,1.13891 -0.753602,1.23201 -2.422835,0.55178 l -0.871441,-0.35511 -0.359249,0.31541 c -0.427496,0.37535 -0.746556,0.50905 -1.214852,0.50905 -0.777703,0 -4.37224,-1.4893 -5.113395,-2.11858 -0.47342,-0.40197 -0.438711,-0.69698 0.233457,-1.98448 0.313868,-0.6012 0.570669,-1.12942 0.570669,-1.17384 0,-0.0443 -0.37534,-0.23571 -0.834091,-0.42511 -1.54077,-0.63615 -1.918263,-1.06274 -2.212314,-2.50009 -0.493678,-2.41315 -0.724841,-7.701936 -0.489567,-11.200759 0.294728,-4.382942 1.083263,-8.857197 2.142205,-12.155123 0.595091,-1.853334 0.910666,-2.267853 1.72583,-2.266929 0.452267,5.72e-4 0.994414,0.341198 1.078948,0.678011 0.03928,0.156524 -0.04504,0.778674 -0.200842,1.481778 -1.111142,5.014468 -0.972379,10.603964 0.366237,14.752471 0.296875,0.920037 0.925739,2.267475 1.337718,2.866269 l 0.340595,0.495036 0.09786,-0.30585 c 0.288132,-0.900496 0.969286,-0.998304 2.775011,-0.398461 l 1.126796,0.374311 0.353819,-0.218672 c 0.194597,-0.120269 0.526043,-0.218672 0.736538,-0.218672 0.704004,0 3.494195,1.302714 4.197659,1.95985 0.431598,0.40317 0.424684,0.82153 -0.03256,1.97011 -0.195922,0.49215 -0.371013,0.95828 -0.389093,1.03584 -0.09422,0.40422 1.973463,0.67177 5.206934,0.67379 3.214236,0.002 5.28508,-0.2647 5.215238,-0.67166 -0.0135,-0.0787 -0.188607,-0.53205 -0.389096,-1.00738 -0.472131,-1.11934 -0.48139,-1.58919 -0.03944,-2.00203 0.428049,-0.39985 1.424835,-0.95108 2.721846,-1.505199 1.192105,-0.509292 1.753483,-0.572903 2.169323,-0.245801 0.145097,0.114135 0.308875,0.207513 0.363948,0.207513 0.05507,0 0.599008,-0.16342 1.20875,-0.363154 1.27086,-0.416305 2.101269,-0.478764 2.373014,-0.178491 0.09192,0.101563 0.23286,0.341015 0.31321,0.532113 l 0.146088,0.347444 0.335643,-0.487834 c 0.407578,-0.592394 1.037178,-1.943027 1.332764,-2.859072 1.338618,-4.148507 1.477378,-9.738003 0.366237,-14.752471 -0.155798,-0.703104 -0.240125,-1.325254 -0.200843,-1.481778 0.08453,-0.336813 0.626682,-0.677499 1.078949,-0.678011 0.816838,-8.86e-4 1.130322,0.412436 1.730845,2.2823 1.047877,3.262807 1.844577,7.78825 2.13719,12.139752 0.235274,3.498823 0.0041,8.787609 -0.489566,11.200759 -0.294052,1.43735 -0.671544,1.86394 -2.212315,2.50009 -0.458752,0.1894 -0.834092,0.38071 -0.834092,0.42511 0,0.0444 0.256802,0.57264 0.570671,1.17384 0.672167,1.2875 0.706875,1.58251 0.233456,1.98448 -0.741156,0.62928 -4.335693,2.11858 -5.113396,2.11858 -0.468295,0 -0.787356,-0.1337 -1.214851,-0.50905 l -0.359248,-0.31541 -0.871442,0.35511 c -1.670157,0.68061 -2.077925,0.58739 -2.423521,-0.55403 l -0.188474,-0.62249 -0.516338,0.20351 c -0.680061,0.26807 -1.324016,0.71891 -1.768476,1.23816 -1.229078,1.43591 -2.257691,5.06659 -1.84404,6.5089 0.05319,0.18547 0.329016,0.68454 0.612944,1.10905 0.61864,0.92494 0.803223,1.62561 0.903348,3.42901 0.10712,1.92939 -0.273616,6.79171 -0.61338,7.83337 -0.112241,0.34413 -0.148827,0.36657 -0.71189,0.43692 -0.326463,0.0408 -0.736933,0.14827 -0.912154,0.23888 -0.823947,0.42608 -1.069336,1.57805 -1.60223,7.52153 -0.611368,6.81873 -0.814729,8.35022 -1.159375,8.73104 -0.218468,0.24141 -0.477145,0.24541 -0.686705,0.0106 z"
       id="path826"
       inkscape:connector-curvature="0" />
  </g>
</svg>
