<?xml version="1.0" encoding="UTF-8" standalone="no"?>
<svg
   sodipodi:docname="Marten-Federation 3.svg"
   id="svg8"
   version="1.1"
   viewBox="0 0 87.960358 87.960358"
   height="87.960358mm"
   width="87.960358mm"
   inkscape:version="1.2.1 (9c6d41e410, 2022-07-14)"
   inkscape:export-filename="Marten-Federation 4.png"
   inkscape:export-xdpi="96"
   inkscape:export-ydpi="96"
   xml:space="preserve"
   xmlns:inkscape="http://www.inkscape.org/namespaces/inkscape"
   xmlns:sodipodi="http://sodipodi.sourceforge.net/DTD/sodipodi-0.dtd"
   xmlns="http://www.w3.org/2000/svg"
   xmlns:svg="http://www.w3.org/2000/svg"
   xmlns:rdf="http://www.w3.org/1999/02/22-rdf-syntax-ns#"
   xmlns:cc="http://creativecommons.org/ns#"
   xmlns:dc="http://purl.org/dc/elements/1.1/"><defs
     id="defs2" /><sodipodi:namedview
     inkscape:document-rotation="0"
     inkscape:window-maximized="1"
     inkscape:window-y="-8"
     inkscape:window-x="-8"
     inkscape:window-height="1057"
     inkscape:window-width="1858"
     showgrid="false"
     inkscape:current-layer="layer1"
     inkscape:document-units="mm"
     inkscape:cy="122.22846"
     inkscape:cx="-2.0203051"
     inkscape:zoom="0.9899495"
     inkscape:pageshadow="2"
     inkscape:pageopacity="0.0"
     borderopacity="1.0"
     bordercolor="#666666"
     pagecolor="#ffffff"
     id="base"
     inkscape:showpageshadow="2"
     inkscape:pagecheckerboard="0"
     inkscape:deskcolor="#d1d1d1" /><metadata
     id="metadata5"><rdf:RDF><cc:Work
         rdf:about=""><dc:format>image/svg+xml</dc:format><dc:type
           rdf:resource="http://purl.org/dc/dcmitype/StillImage" /><dc:title /></cc:Work></rdf:RDF></metadata><g
     transform="translate(375.752, 214.748)"
     id="layer1"
     inkscape:groupmode="layer"
     inkscape:label="Layer 1"><path
       id="path188"
       style="fill:#000000;stroke-width:0.109951"
       d="m -338.1571,-212.44307 c -0.0164,-6.5e-4 -0.0311,0.007 -0.045,0.0211 -0.0315,0.0315 -1.14781,5.42096 -2.4808,11.97677 -1.333,6.55582 -2.4647,11.96081 -2.51496,12.01107 -0.0502,0.0504 -0.40671,0.25145 -0.79209,0.44695 l -0.70061,0.35545 -2.11956,4.22637 -2.1194,4.22655 0.0644,0.60478 c 0.0354,0.3326 0.0892,2.3788 0.11934,4.54707 l 0.0547,3.94226 2.10103,3.95901 2.10119,3.95903 0.77858,-0.0768 c 0.42828,-0.0421 0.79592,-0.0938 0.8169,-0.11468 0.0211,-0.021 -0.32761,-1.19187 -0.77472,-2.60209 l -0.81301,-2.56391 0.68289,-0.0325 0.68273,-0.0323 3.44539,1.85815 3.44557,1.85815 0.0333,0.5708 c 0.0307,0.52445 0.0685,0.59498 0.4632,0.86795 l 0.42973,0.29698 0.004,2.3365 0.004,2.33651 h -0.51636 c -0.74159,0 -1.13288,0.38688 -1.13288,1.12002 v 0.52923 h -0.45871 c -0.50098,0 -0.8607,0.2369 -0.8607,0.56677 0,0.17532 -0.0934,0.20317 -0.68725,0.20505 -2.09339,0.007 -4.32472,0.66973 -5.33995,1.58691 -0.52666,0.47581 -1.00969,1.3828 -1.00969,1.89585 0,0.27976 -0.0466,0.36335 -0.20294,0.36335 -0.30814,0 -0.54648,0.3354 -0.58608,0.82462 -0.0306,0.37748 -0.075,0.44435 -0.31408,0.47222 -0.24149,0.0282 -0.35863,0.211 -0.87971,1.37435 l -0.60108,1.34194 v 7.03688 7.03672 l 0.60479,1.34485 c 0.50251,1.11755 0.64507,1.34524 0.8433,1.34695 0.18994,0.002 0.27697,0.11974 0.42699,0.57935 0.1036,0.31747 0.2094,0.61434 0.23514,0.6597 0.0264,0.0454 0.95537,0.0825 2.06511,0.0825 h 2.0184 l 0.21067,-0.63233 c 0.14634,-0.43911 0.27509,-0.6438 0.4215,-0.67018 0.11592,-0.0209 0.37168,-0.1913 0.56822,-0.37881 l 0.35723,-0.34095 0.002,-4.67882 0.002,-4.67878 0.69352,-2.52897 0.69368,-2.52882 h 0.87134 0.87134 l 0.0309,1.427 c 0.0298,1.37484 0.0417,1.43809 0.32291,1.73171 l 0.29201,0.30475 h 4.57685 4.57669 l 0.29199,-0.30475 c 0.2813,-0.29362 0.2931,-0.35687 0.32293,-1.73171 l 0.0309,-1.427 h 0.87133 0.87134 l 0.69369,2.52882 0.69354,2.52897 0.002,4.67878 0.002,4.67882 0.35724,0.34095 c 0.19653,0.18751 0.45229,0.35793 0.56822,0.37881 0.14652,0.0265 0.27513,0.23148 0.42214,0.67259 l 0.21162,0.63458 2.04241,-0.0297 2.04256,-0.0299 0.21068,-0.63214 c 0.17179,-0.5156 0.25554,-0.63217 0.45386,-0.63217 0.20668,0 0.33324,-0.20955 0.843,-1.39607 l 0.59977,-1.39607 v -6.98775 -6.98762 l -0.60332,-1.34209 c -0.52073,-1.15863 -0.64093,-1.34647 -0.87955,-1.37433 -0.23662,-0.0277 -0.28148,-0.0956 -0.31197,-0.47208 -0.0397,-0.48923 -0.27812,-0.82462 -0.58627,-0.82462 -0.15624,0 -0.20276,-0.0837 -0.20276,-0.36336 0,-0.83375 -0.86647,-1.98378 -1.8865,-2.50417 -1.12023,-0.57148 -2.97449,-0.9788 -4.46315,-0.9802 -0.59441,-5.8e-4 -0.68724,-0.0279 -0.68724,-0.20342 0,-0.30816 -0.3354,-0.54666 -0.82462,-0.58627 -0.43673,-0.0353 -0.44008,-0.039 -0.47434,-0.53036 -0.0506,-0.72416 -0.43976,-1.0994 -1.14046,-1.0994 h -0.52924 l 0.004,-2.33651 0.004,-2.3365 0.42971,-0.29698 c 0.39536,-0.27337 0.43231,-0.34302 0.46304,-0.87103 l 0.0335,-0.57385 3.44475,-1.85508 3.44461,-1.85526 0.68627,0.0325 0.68629,0.0324 -0.81595,2.56375 c -0.4487,1.41006 -0.79855,2.58089 -0.77744,2.60192 0.0212,0.0211 0.38938,0.0729 0.8182,0.11515 l 0.7797,0.0768 2.10007,-3.95822 2.10005,-3.95822 0.0537,-3.94325 c 0.0295,-2.16875 0.0864,-4.19789 0.12626,-4.50935 0.0722,-0.56487 0.0674,-0.57679 -2.00842,-4.79057 l -2.08089,-4.2243 -0.84266,-0.46239 c -0.46347,-0.25437 -0.84267,-0.49156 -0.84267,-0.52701 0,-0.18747 -4.84597,-23.83367 -4.8943,-23.88199 -0.1113,-0.1113 -0.2623,0.16749 -1.10745,2.0445 l -0.85411,1.89664 h -4.4691 -4.4691 l -0.85409,-1.89664 c -0.73935,-1.64202 -0.94752,-2.06112 -1.06252,-2.06576 z m -0.35208,59.07175 c 0.22147,-0.004 0.25077,0.0429 0.25077,0.17328 0,0.31329 0.33241,0.55172 0.82463,0.59158 l 0.4397,0.0357 v 0.82462 0.82462 l -0.98955,0.055 c -0.89957,0.05 -1.06979,0.0974 -1.87297,0.52216 -0.48595,0.25702 -1.0179,0.46741 -1.18202,0.46741 -0.27884,0 -0.29846,-0.0314 -0.29846,-0.4777 0,-0.50361 -0.23537,-0.84171 -0.58593,-0.84171 -0.38573,0 -0.0763,-0.89293 0.46837,-1.35114 0.40653,-0.34207 1.51708,-0.69192 2.50899,-0.79048 0.19536,-0.0195 0.3358,-0.0316 0.43647,-0.0333 z m 13.47559,0 c 0.10069,0.002 0.24112,0.0139 0.43647,0.0334 0.99191,0.0985 2.10246,0.4484 2.509,0.79047 0.55986,0.4711 0.85243,1.35115 0.44919,1.35115 -0.32988,0 -0.56676,0.35972 -0.56676,0.86069 0,0.44706 -0.01,0.45826 -0.3574,0.44438 -0.19653,-0.008 -0.77784,-0.23941 -1.29187,-0.51476 -0.87906,-0.47086 -0.98681,-0.50118 -1.81419,-0.50814 l -0.87955,-0.008 v -0.82463 -0.82462 l 0.43971,-0.0356 c 0.49222,-0.0399 0.82462,-0.27829 0.82462,-0.59157 0,-0.13029 0.0292,-0.17704 0.25078,-0.1733 z" /><path
       style="fill:#000000;stroke-width:0.109951"
       d="m -301.97482,-170.7676 v -43.98018 h 7.09182 7.09179 v 43.98018 43.98018 h -7.09179 -7.09182 z"
       id="path184" /><path
       style="fill:#000000;stroke-width:0.109951"
       d="m -375.75157,-170.7676 v -43.98018 h 7.0918 7.0918 v 43.98018 43.98018 h -7.0918 -7.0918 z"
       id="path126" /></g></svg>
