<?xml version="1.0" encoding="UTF-8" standalone="no"?>
<!-- Created with Inkscape (http://www.inkscape.org/) -->

<svg
   xmlns:dc="http://purl.org/dc/elements/1.1/"
   xmlns:cc="http://creativecommons.org/ns#"
   xmlns:rdf="http://www.w3.org/1999/02/22-rdf-syntax-ns#"
   xmlns:svg="http://www.w3.org/2000/svg"
   xmlns="http://www.w3.org/2000/svg"
   xmlns:sodipodi="http://sodipodi.sourceforge.net/DTD/sodipodi-0.dtd"
   xmlns:inkscape="http://www.inkscape.org/namespaces/inkscape"
   sodipodi:docname="metrology ship-civ 3.svg"
   id="svg8"
   version="1.1"
   viewBox="0 0 145.63321 152.77199"
   height="152.77199mm"
   width="145.63321mm"
   inkscape:version="0.92.4 (5da689c313, 2019-01-14)"
   inkscape:export-filename="D:\GitHub\wills-spaceships\Outlines Ships\metrology ship-civ 4.png"
   inkscape:export-xdpi="96"
   inkscape:export-ydpi="96">
  <defs
     id="defs2" />
  <sodipodi:namedview
     id="base"
     pagecolor="#ffffff"
     bordercolor="#666666"
     borderopacity="1.0"
     inkscape:pageopacity="0.0"
     inkscape:pageshadow="2"
     inkscape:zoom="0.24748737"
     inkscape:cx="-155.07713"
     inkscape:cy="952.6576"
     inkscape:document-units="mm"
     inkscape:current-layer="layer1"
     showgrid="false"
     inkscape:window-width="1920"
     inkscape:window-height="1017"
     inkscape:window-x="1912"
     inkscape:window-y="-8"
     inkscape:window-maximized="1" />
  <metadata
     id="metadata5">
    <rdf:RDF>
      <cc:Work
         rdf:about="">
        <dc:format>image/svg+xml</dc:format>
        <dc:type
           rdf:resource="http://purl.org/dc/dcmitype/StillImage" />
        <dc:title></dc:title>
      </cc:Work>
    </rdf:RDF>
  </metadata>
  <g
     inkscape:label="Layer 1"
     inkscape:groupmode="layer"
     id="layer1"
     transform="translate(293.78651,-121.07232)">
    <path
       style="fill:#000000;stroke-width:0.20396809"
       d="m -220.95945,121.07232 c -0.15735,0 -10.82065,14.14974 -10.82065,14.35852 0,0.0678 1.97329,0.12314 4.38519,0.12314 h 4.38552 v 6.62902 c 0,5.28584 -0.0533,6.62878 -0.26381,6.62878 -0.14509,0 -2.00483,0.17939 -4.13246,0.3986 -3.666,0.37767 -4.11894,0.47447 -8.65956,1.85002 -4.64615,1.40754 -4.93067,1.52528 -9.38085,3.8767 -4.47787,2.36608 -4.68821,2.50621 -8.66856,5.77723 -3.92292,3.22386 -4.20279,3.50431 -7.3004,7.30999 -3.06153,3.76134 -3.33961,4.17966 -5.61142,8.44357 -2.31848,4.3515 -2.4347,4.63178 -3.87252,9.33632 -1.41737,4.63764 -1.50024,5.02142 -1.88471,8.75339 -0.22113,2.14665 -0.40185,4.02171 -0.40185,4.1668 0,0.21232 -2.01181,0.26382 -10.30049,0.26382 h -10.30049 v 2.03949 2.03979 h 10.30049 c 9.67198,0 10.30094,0.0216 10.30557,0.35673 0.003,0.19632 0.18107,2.04881 0.39619,4.11629 0.36818,3.53849 0.47779,4.04554 1.86857,8.63986 1.4423,4.76465 1.53442,4.9876 3.8686,9.36861 2.26986,4.26027 2.55509,4.68964 5.62219,8.46598 3.11711,3.83787 3.3747,4.09615 7.31027,7.3291 3.98148,3.27065 4.1894,3.40941 8.66856,5.77396 4.44362,2.3458 4.74151,2.46864 9.38261,3.8767 4.56336,1.38443 4.97905,1.47319 8.66855,1.84765 2.13149,0.21632 3.99015,0.39506 4.13036,0.39737 0.20059,0.003 0.25516,2.20214 0.25516,10.30437 v 10.30019 h 2.03949 2.03977 v -10.30019 c 0,-9.67196 0.0219,-10.30095 0.35705,-10.30556 0.19631,-0.003 2.04852,-0.18106 4.116,-0.39618 3.53619,-0.36794 4.04748,-0.47851 8.62075,-1.8629 4.72955,-1.43171 4.98345,-1.53649 9.35544,-3.85726 4.31782,-2.29202 4.65337,-2.5152 8.55024,-5.69537 3.91328,-3.19359 4.17127,-3.45129 7.33747,-7.32195 3.14885,-3.84947 3.37888,-4.19449 5.6867,-8.52783 2.34965,-4.41185 2.43926,-4.62839 3.88266,-9.39669 1.39076,-4.59432 1.50042,-5.10137 1.86858,-8.63986 0.21511,-2.06748 0.39328,-3.91997 0.39617,-4.11629 0.004,-0.33514 0.63361,-0.35673 10.30559,-0.35673 h 10.30018 v -2.03979 -2.03949 h -10.30018 c -8.2887,0 -10.30049,-0.0516 -10.30049,-0.26382 0,-0.14509 -0.17971,-2.00956 -0.39947,-4.1429 -0.38174,-3.70533 -0.46656,-4.09719 -1.8907,-8.76177 -1.44616,-4.73669 -1.5621,-5.0174 -3.87759,-9.37397 -2.30471,-4.33628 -2.50216,-4.63154 -5.73001,-8.56667 -3.23388,-3.94244 -3.4736,-4.18141 -7.33866,-7.31774 -3.80533,-3.08779 -4.20985,-3.35571 -8.49019,-5.62784 -4.37234,-2.32097 -4.62611,-2.42584 -9.35574,-3.85756 -4.57327,-1.3844 -5.08456,-1.49466 -8.62075,-1.86258 -2.06748,-0.21514 -3.91969,-0.39332 -4.116,-0.39621 -0.33254,-0.004 -0.35705,-0.45877 -0.35705,-6.63416 v -6.62902 h 4.38521 c 2.41192,0 4.38553,-0.0508 4.38553,-0.11295 0,-0.20264 -10.64775,-14.36871 -10.80006,-14.36871 z m -2.40219,32.02279 c 0.33133,0 0.35225,1.35094 0.35225,22.94671 v 22.9464 h -22.94639 c -21.59579,0 -22.94641,-0.0208 -22.94641,-0.35226 0,-0.19361 0.14633,-1.82271 0.32535,-3.62032 0.2945,-2.95697 0.45786,-3.70629 1.71261,-7.86275 1.32356,-4.38422 1.48792,-4.78358 3.60064,-8.73665 2.05849,-3.85162 2.42797,-4.40261 5.26062,-7.84778 1.67562,-2.03795 3.28003,-3.88897 3.56537,-4.11334 0.28537,-0.22437 1.91062,-1.55536 3.61167,-2.95764 2.76898,-2.28263 3.52721,-2.78135 7.24008,-4.76345 3.95462,-2.11121 4.36011,-2.27834 8.74115,-3.60092 4.15643,-1.25478 4.90577,-1.41782 7.86273,-1.71231 1.79761,-0.17903 3.42669,-0.32569 3.62033,-0.32569 z m 4.78349,0 c 0.1936,0 1.82303,0.14718 3.62063,0.32687 2.958,0.29571 3.70731,0.45928 7.88991,1.72249 4.44066,1.34112 4.78342,1.48311 8.76175,3.6248 3.81932,2.05608 4.42583,2.4636 7.82063,5.25527 3.38593,2.78439 3.91623,3.31538 6.63383,6.64222 2.70493,3.31129 3.14059,3.96464 5.17249,7.75753 2.12125,3.95961 2.27996,4.34397 3.6048,8.7325 1.25358,4.15243 1.41698,4.90235 1.71142,7.85885 0.17903,1.79761 0.32539,3.42671 0.32539,3.62032 0,0.33133 -1.35066,0.35226 -22.9464,0.35226 h -22.94643 v -22.9464 c 0,-21.59577 0.0205,-22.94671 0.35198,-22.94671 z m -27.37763,49.97239 h 22.94639 v 22.9464 22.94639 l -0.76486,-0.0239 c -0.42069,-0.0132 -2.18777,-0.18858 -3.9266,-0.38991 -2.71225,-0.31401 -3.77102,-0.55442 -7.4522,-1.69021 -3.97867,-1.22755 -4.59132,-1.48412 -8.41579,-3.5283 -3.81461,-2.03893 -4.40182,-2.43218 -7.81581,-5.23077 -3.41349,-2.79815 -3.91717,-3.30167 -6.68644,-6.68644 -2.75866,-3.37179 -3.16869,-3.98568 -5.20058,-7.78712 -2.10362,-3.93562 -2.26986,-4.33972 -3.59256,-8.72113 -1.25475,-4.15646 -1.41811,-4.90578 -1.71261,-7.86273 -0.17902,-1.79764 -0.32535,-3.42673 -0.32535,-3.62034 0,-0.33133 1.35062,-0.35196 22.94641,-0.35196 z m 27.02565,0 h 22.94643 c 21.59574,0 22.9464,0.0205 22.9464,0.35195 0,0.19361 -0.14636,1.82271 -0.32539,3.62034 -0.29465,2.95847 -0.45748,3.70529 -1.7165,7.87558 -1.33064,4.40765 -1.48661,4.78581 -3.60091,8.7277 -2.02742,3.78 -2.45777,4.42359 -5.21073,7.79162 -2.78388,3.40587 -3.26623,3.88822 -6.6721,6.67207 -3.36661,2.7518 -4.01268,3.18372 -7.78415,5.20658 -3.93376,2.10993 -4.31352,2.2667 -8.72739,3.59972 -4.17538,1.26101 -4.92585,1.42475 -7.88305,1.72037 -1.7976,0.17972 -3.42703,0.32686 -3.62063,0.32686 -0.33135,0 -0.35198,-1.35063 -0.35198,-22.94639 z"
       id="path840"
       inkscape:connector-curvature="0" />
  </g>
</svg>
