<?xml version="1.0" encoding="UTF-8" standalone="no"?>
<!-- Created with Inkscape (http://www.inkscape.org/) -->

<svg
   xmlns:dc="http://purl.org/dc/elements/1.1/"
   xmlns:cc="http://creativecommons.org/ns#"
   xmlns:rdf="http://www.w3.org/1999/02/22-rdf-syntax-ns#"
   xmlns:svg="http://www.w3.org/2000/svg"
   xmlns="http://www.w3.org/2000/svg"
   xmlns:sodipodi="http://sodipodi.sourceforge.net/DTD/sodipodi-0.dtd"
   xmlns:inkscape="http://www.inkscape.org/namespaces/inkscape"
   inkscape:export-ydpi="96"
   inkscape:export-xdpi="96"
   inkscape:export-filename="D:\GitHub\wills-spaceships\Outlines Ships\rage gunboat-fed 4.png"
   inkscape:version="0.92.4 (5da689c313, 2019-01-14)"
   width="83.903084mm"
   height="83.903069mm"
   viewBox="0 0 83.903086 83.903069"
   version="1.1"
   id="svg8"
   sodipodi:docname="rage gunboat-fed 3.svg">
  <defs
     id="defs2" />
  <sodipodi:namedview
     id="base"
     pagecolor="#ffffff"
     bordercolor="#666666"
     borderopacity="1.0"
     inkscape:pageopacity="0.0"
     inkscape:pageshadow="2"
     inkscape:zoom="0.49497474"
     inkscape:cx="442.95002"
     inkscape:cy="474.86306"
     inkscape:document-units="mm"
     inkscape:current-layer="layer1"
     showgrid="false"
     inkscape:window-width="1920"
     inkscape:window-height="1017"
     inkscape:window-x="1912"
     inkscape:window-y="-8"
     inkscape:window-maximized="1" />
  <metadata
     id="metadata5">
    <rdf:RDF>
      <cc:Work
         rdf:about="">
        <dc:format>image/svg+xml</dc:format>
        <dc:type
           rdf:resource="http://purl.org/dc/dcmitype/StillImage" />
        <dc:title />
      </cc:Work>
    </rdf:RDF>
  </metadata>
  <g
     inkscape:label="Layer 1"
     inkscape:groupmode="layer"
     id="layer1"
     transform="translate(522.76424,37.81018)">
    <path
       style="fill:#000000;stroke-width:0.10487884"
       d="M -522.76424,4.1413527 V -37.81018 h 4.98175 4.98174 V 4.1413527 46.092889 h -4.98174 -4.98175 z"
       id="path860"
       inkscape:connector-curvature="0" />
    <path
       style="fill:#000000;stroke-width:0.10487884"
       d="M -448.82467,4.1413527 V -37.81018 h 4.98176 4.98175 V 4.1413527 46.092889 h -4.98175 -4.98176 z"
       id="path858"
       inkscape:connector-curvature="0" />
    <path
       style="fill:#000000;stroke-width:0.10487884"
       d="m -485.72504,-34.768776 -5.43594,2.423684 c -2.9898,1.332952 -5.46702,2.453795 -5.5049,2.49082 -0.0379,0.03703 -0.10306,4.303034 -0.14488,9.480115 l -0.0761,9.412978 h -0.8101 -0.80994 l -0.0668,0.707931 c -0.0368,0.3893634 -0.0674,1.1427313 -0.0677,1.6742726 -6.3e-4,1.1299589 0.0443,1.1835739 0.99446,1.1835739 0.48535,0 0.65296,0.050986 0.95067,0.2885193 l 0.36148,0.2883658 v 0.9297753 0.9297752 l -0.78658,0.808253 -0.7866,0.8082532 3.1e-4,0.7790636 c 3.6e-4,0.6574574 0.1311,1.76050217 0.36257,3.06017831 l 0.0514,0.28836509 h -1.45029 -1.45027 l -0.0678,-0.80241524 c -0.0373,-0.44132713 -0.0677,-1.32650626 -0.0677,-1.96709186 0,-1.2197301 -0.23156,-3.5023128 -0.4245,-4.184297 -0.0621,-0.2193885 -0.24338,-0.5448569 -0.40282,-0.7232959 -0.28909,-0.3235626 -0.2933,-0.3244757 -1.60513,-0.3750129 -0.72345,-0.027859 -1.66843,-0.0177 -2.09998,0.022737 -0.76055,0.07127 -0.7899,0.084463 -0.95344,0.4274013 -0.27136,0.5690216 -0.486,1.9658277 -0.59624,3.878878 -0.0565,0.9811279 -0.10341,7.5018031 -0.10431,14.4995503 -8.9e-4,12.647133 -3.1e-4,12.716507 0.20831,12.716507 0.17352,0 0.2097,0.06986 0.2097,0.404509 v 0.404665 l 0.64464,0.06729 c 0.9864,0.103099 1.60727,0.08083 1.75095,-0.06284 0.10371,-0.103708 0.14811,-0.101294 0.21784,0.01151 0.0676,0.109578 0.3815,0.134357 1.3853,0.109384 1.21252,-0.03017 1.31661,-0.04945 1.58607,-0.293283 l 0.28838,-0.261017 V 20.4304 16.202473 h 1.47316 1.473 l -0.0582,0.340752 c -0.25959,1.520253 -0.37014,2.445671 -0.37042,3.103349 l -3e-4,0.769846 0.73419,0.813015 c 0.49769,0.551179 0.73422,0.897869 0.73422,1.076186 0,0.256684 0.0231,0.264576 0.95988,0.331076 0.52801,0.03749 1.70795,0.06821 2.62202,0.06821 h 1.66198 v 0.471956 c 0,0.349597 0.0409,0.471954 0.15731,0.471954 0.13505,0 0.15733,0.324828 0.15733,2.293866 0,1.328858 -0.0663,2.906108 -0.15793,3.749367 -0.14516,1.337688 -0.14146,1.778424 0.0455,5.440999 0.184,3.601847 0.18786,3.99744 0.0405,4.111017 -0.14553,0.112105 -0.13102,0.213976 0.1346,0.943908 0.22483,0.617937 0.43972,0.975851 0.87781,1.462108 0.5475,0.607604 0.94893,0.937159 0.77923,0.639719 -0.0408,-0.07144 0.0791,0.01176 0.26624,0.184816 l 0.34046,0.314638 -0.0741,-0.603156 -0.0741,-0.603002 h 0.45276 c 0.36717,0 0.5209,0.06452 0.81254,0.340908 l 0.35966,0.340753 -0.0681,-0.288365 c -0.11985,-0.506365 0.27813,-0.344808 1.01166,0.410656 l 0.67874,0.699022 0.0727,-0.67859 0.0726,-0.678587 0.96403,0.04409 c 0.5302,0.02428 1.02299,0.09173 1.09508,0.14979 0.0898,0.07223 0.13106,0.06827 0.13106,-0.0123 0,-0.07564 0.25826,-0.117682 0.72268,-0.117682 h 0.72269 l 0.4048,0.679973 h -1.4e-4 c 0.22262,0.373932 0.42837,0.679817 0.4572,0.679817 0.0289,0 0.23458,-0.305885 0.4572,-0.679817 l 0.40483,-0.679973 h 0.72266 c 0.46443,0 0.7227,0.04203 0.7227,0.117682 0,0.08055 0.0414,0.08453 0.13103,0.0123 0.0722,-0.05804 0.5649,-0.125501 1.09511,-0.14979 l 0.964,-0.04424 0.0731,0.682889 0.0732,0.682891 0.6663,-0.703324 c 0.40547,-0.427976 0.7515,-0.703322 0.88401,-0.703322 0.17,0 0.20313,0.04609 0.15117,0.20986 -0.091,0.286476 0.0705,0.263493 0.36717,-0.05238 0.19033,-0.202589 0.35111,-0.262248 0.70747,-0.262248 h 0.46121 l -0.0725,0.603001 -0.0727,0.603158 0.34353,-0.314791 c 0.18889,-0.173044 0.30971,-0.255539 0.26854,-0.183437 -0.18202,0.318798 0.14498,0.0549 0.72789,-0.587331 0.4956,-0.546018 0.6977,-0.875184 0.9304,-1.515725 0.26518,-0.729965 0.27967,-0.831797 0.13412,-0.943908 -0.14742,-0.113578 -0.14362,-0.509088 0.0398,-4.111017 0.18586,-3.653399 0.18966,-4.105223 0.0455,-5.423024 -0.0914,-0.835846 -0.15716,-2.405163 -0.15716,-3.749366 0,-1.985073 0.0222,-2.311842 0.15732,-2.311842 0.11653,0 0.15732,-0.122356 0.15732,-0.471953 V 22.70492 h 1.66199 c 0.91405,0 2.09399,-0.03073 2.62201,-0.06821 0.94612,-0.06715 0.95993,-0.07199 0.96112,-0.340754 6.3e-4,-0.191308 0.21879,-0.507657 0.73051,-1.059441 l 0.72945,-0.786591 0.003,-0.786592 c 0.003,-0.672171 -0.10452,-1.583664 -0.36685,-3.120092 l -0.0583,-0.34091 h 1.47301 1.47318 v 4.228084 4.227927 l 0.28836,0.261018 c 0.26947,0.243833 0.37355,0.263112 1.58608,0.293284 1.00379,0.02499 1.31756,1.91e-4 1.3853,-0.109386 0.0697,-0.112822 0.11415,-0.11523 0.21784,-0.01151 0.14366,0.143657 0.76453,0.165933 1.75095,0.06284 l 0.64462,-0.06729 v -0.404665 c 0,-0.338908 0.0351,-0.404508 0.21661,-0.404508 h 0.21662 l -0.0445,-13.975209 c -0.0484,-15.1730006 -0.0694,-15.7140046 -0.66569,-17.087465 -0.16632,-0.3831686 -0.17214,-0.3859583 -0.95543,-0.4593577 -0.43344,-0.04061 -1.37188,-0.051312 -2.08538,-0.023813 -1.39339,0.053677 -1.57555,0.1230116 -1.86862,0.7111585 -0.29887,0.5998236 -0.57927,2.7743331 -0.58165,4.509994 -6.4e-4,0.6056757 -0.0318,1.49059027 -0.0688,1.96647813 l -0.0674,0.8652505 h -1.45013 -1.45013 l 0.0514,-0.28836518 c 0.23254,-1.3057138 0.36195,-2.40388335 0.36164,-3.06770575 l -3.1e-4,-0.7865916 -0.78243,-0.7865911 -0.7826,-0.7865909 -0.003,-0.9439099 -0.003,-0.9439094 0.36133,-0.2883658 c 0.29771,-0.2375323 0.46548,-0.2885193 0.95083,-0.2885193 0.93534,0 0.99507,-0.065373 0.99507,-1.0890905 0,-0.4795746 -0.0305,-1.232944 -0.0678,-1.674271 l -0.0678,-0.802416 h -0.82363 -0.82362 l -1.4e-4,-2.595752 c -5e-5,-1.427663 -0.0314,-5.681463 -0.0697,-9.452767 l -0.0697,-6.856864 -0.48072,-0.211396 c -0.26443,-0.116308 -2.73786,-1.2194 -5.49645,-2.451184 l -5.01575,-2.239633 h -4.91311 z m -14.70005,36.5972329 1.54615,0.029039 1.54614,0.029037 0.17667,1.1012276 c 0.0971,0.6056737 0.18011,1.1601695 0.18437,1.2322745 0.006,0.099894 -0.40422,0.1310477 -1.72282,0.1310477 h -1.73051 V 3.0897715 Z m 39.2248,0 v 1.2613106 1.2613123 h -1.73051 c -1.3186,0 -1.72871,-0.031155 -1.72281,-0.1310483 0.004,-0.072104 0.0873,-0.626754 0.18435,-1.2324288 l 0.17653,-1.1012277 1.54614,-0.028885 z m -39.2248,10.8081011 h 1.73051 c 0.95177,0 1.73082,0.03539 1.7311,0.07865 3.4e-4,0.04326 -0.077,0.586062 -0.1719,1.206158 l -0.17238,1.127346 h -1.55858 -1.55875 v -1.206004 z m 37.49429,0 h 1.73051 v 1.206158 1.206005 h -1.55874 -1.55859 l -0.17253,-1.127346 c -0.0949,-0.620095 -0.17207,-1.162896 -0.17177,-1.206159 3.3e-4,-0.04326 0.77933,-0.07865 1.73112,-0.07865 z m -26.19257,11.221985 h 0.28791 0.2879 l -0.0639,2.805611 c -0.035,1.543031 -0.10184,3.041383 -0.1484,3.329801 l -0.0845,0.524496 -0.0789,-0.367179 c -0.0434,-0.201889 -0.10618,-1.700248 -0.13952,-3.3298 z m 16.07165,0 h 0.27409 0.27408 l -0.0577,2.910387 c -0.0318,1.600713 -0.0982,3.099221 -0.14794,3.329955 -0.0812,0.377113 -0.10314,0.296989 -0.21647,-0.792737 -0.0693,-0.666739 -0.12614,-2.165245 -0.12614,-3.329956 z m -14.19811,0.02412 c 0.0761,3.8e-4 0.16614,0.01006 0.25195,0.02889 l 0.31203,0.06852 -8.8e-4,2.482525 c -5.9e-4,1.402624 -0.0642,3.052909 -0.1461,3.793612 -0.12714,1.149795 -0.12284,1.749422 0.0348,4.876867 0.0988,1.961233 0.1618,3.60133 0.13979,3.64459 -0.0221,0.04323 -0.22602,0.07865 -0.45321,0.07865 -0.35789,0 -0.41365,-0.03165 -0.41602,-0.235978 -8.9e-4,-0.129786 0.0777,-1.930213 0.17634,-4.001015 0.16898,-3.546893 0.16906,-3.863005 6.6e-4,-5.45375 -0.19794,-1.8729 -0.2398,-5.149315 -0.067,-5.256029 0.0296,-0.01828 0.0916,-0.02727 0.16761,-0.02688 z m 12.87428,0 c 0.0761,-3.8e-4 0.13807,0.0085 0.16761,0.02673 0.17171,0.106122 0.13073,3.374039 -0.0662,5.280915 -0.16612,1.608787 -0.16601,1.94184 8.5e-4,5.453752 0.0979,2.05716 0.17679,3.846493 0.17529,3.976279 -0.003,0.204172 -0.0583,0.235826 -0.41602,0.235826 -0.22734,0 -0.43138,-0.0354 -0.45337,-0.07865 -0.0219,-0.04326 0.041,-1.683354 0.1398,-3.644589 0.1577,-3.127443 0.16201,-3.727072 0.0348,-4.876866 -0.0818,-0.740703 -0.14534,-2.390835 -0.14594,-3.793461 l -8.8e-4,-2.482524 0.31201,-0.06852 c 0.0858,-0.01882 0.17594,-0.0285 0.25197,-0.02889 z m -11.1567,0.0808 h 0.73406 0.7342 l -0.005,2.228726 c -0.003,1.225771 -0.0618,2.747823 -0.13105,3.382342 -0.10358,0.948654 -0.0949,1.768652 0.0491,4.614617 0.0964,1.903549 0.17901,3.708777 0.18359,4.011616 l 0.008,0.550613 h -0.78657 -0.78661 l 8.9e-4,-0.655544 c 6.4e-4,-0.360518 0.0701,-1.981072 0.15439,-3.601266 0.13442,-2.584828 0.13439,-3.105329 -3.1e-4,-4.247594 -0.0935,-0.793133 -0.15381,-2.275084 -0.15439,-3.79269 z m 2.62189,0 h 0.78658 0.78659 l 0.002,2.176184 c 8.9e-4,1.321809 -0.0674,2.835071 -0.17484,3.854298 -0.16504,1.566403 -0.16537,1.907718 -0.005,5.128512 0.0943,1.897714 0.1465,3.49056 0.11614,3.539659 -0.0304,0.0491 -0.40638,0.08925 -0.83558,0.08925 h -0.78047 l 0.008,-0.445682 c 0.004,-0.245156 0.0881,-2.050383 0.18635,-4.011616 0.14817,-2.95725 0.15682,-3.762793 0.0508,-4.719548 -0.0702,-0.634518 -0.13045,-2.156572 -0.13382,-3.382343 z m 2.62201,0 h 0.78659 0.78659 l -0.006,2.228726 c -0.003,1.225771 -0.0636,2.747823 -0.13381,3.382342 -0.10597,0.956756 -0.0973,1.762299 0.051,4.719547 0.0982,1.961233 0.18215,3.766461 0.18636,4.011616 h -1.5e-4 l 0.008,0.445683 h -0.78044 c -0.4292,0 -0.80537,-0.04048 -0.8359,-0.08987 -0.0306,-0.04942 0.0223,-1.639568 0.11736,-3.533669 0.16194,-3.224705 0.16158,-3.550975 -0.005,-5.127898 -0.10871,-1.028698 -0.17708,-2.530956 -0.1759,-3.86029 z m 2.72694,0 h 0.73421 0.73421 l -8.9e-4,2.438432 c -6.1e-4,1.430981 -0.0641,3.001793 -0.15363,3.801908 -0.1334,1.192564 -0.13337,1.731383 -1.5e-4,4.299983 0.0837,1.615134 0.15304,3.231529 0.15364,3.592047 h 1.4e-4 l 8.9e-4,0.655544 h -0.78659 -0.78659 l 0.008,-0.498225 c 0.004,-0.273994 0.0867,-2.079223 0.18343,-4.011615 0.14184,-2.833463 0.15248,-3.726516 0.0546,-4.614617 -0.0666,-0.605676 -0.12564,-2.127732 -0.13106,-3.382344 z m -11.25885,8.633302 c 0.0237,0.02374 0.34898,5.849806 0.35106,6.285663 1.8e-4,0.04325 -0.14128,0.07865 -0.31434,0.07865 -0.30523,0 -0.31468,-0.0148 -0.31617,-0.498071 -0.003,-0.751114 0.24309,-5.902616 0.27945,-5.866251 z m 16.01513,0 c 0.0364,-0.03636 0.28183,5.115135 0.27946,5.866249 -8.8e-4,0.483253 -0.011,0.498074 -0.31618,0.498074 -0.17306,0 -0.31453,-0.0354 -0.31433,-0.07865 0.002,-0.435857 0.32732,-6.261939 0.35105,-6.285662 z"
       id="path856"
       inkscape:connector-curvature="0" />
  </g>
</svg>
