<?xml version="1.0" encoding="UTF-8" standalone="no"?>
<svg
   xmlns:dc="http://purl.org/dc/elements/1.1/"
   xmlns:cc="http://creativecommons.org/ns#"
   xmlns:rdf="http://www.w3.org/1999/02/22-rdf-syntax-ns#"
   xmlns:svg="http://www.w3.org/2000/svg"
   xmlns="http://www.w3.org/2000/svg"
   xmlns:sodipodi="http://sodipodi.sourceforge.net/DTD/sodipodi-0.dtd"
   xmlns:inkscape="http://www.inkscape.org/namespaces/inkscape"
   sodipodi:docname="lightning-civilian 3.svg"
   id="svg8"
   version="1.1"
   viewBox="0 0 96.455111 96.455111"
   height="96.455109mm"
   width="96.455109mm"
   inkscape:version="1.0 (4035a4fb49, 2020-05-01)"
   inkscape:export-filename="C:\Users\W\GitHub\art-files\Vectors - Outlines Ships\lightning-civilian 4.png"
   inkscape:export-xdpi="96"
   inkscape:export-ydpi="96">
  <defs
     id="defs2" />
  <sodipodi:namedview
     inkscape:document-rotation="0"
     inkscape:window-maximized="1"
     inkscape:window-y="-8"
     inkscape:window-x="68"
     inkscape:window-height="1057"
     inkscape:window-width="1844"
     showgrid="false"
     inkscape:current-layer="layer1"
     inkscape:document-units="mm"
     inkscape:cy="192.99076"
     inkscape:cx="-193.20686"
     inkscape:zoom="0.69999999"
     inkscape:pageshadow="2"
     inkscape:pageopacity="0.0"
     borderopacity="1.0"
     bordercolor="#666666"
     pagecolor="#ffffff"
     id="base" />
  <metadata
     id="metadata5">
    <rdf:RDF>
      <cc:Work
         rdf:about="">
        <dc:format>image/svg+xml</dc:format>
        <dc:type
           rdf:resource="http://purl.org/dc/dcmitype/StillImage" />
        <dc:title />
      </cc:Work>
    </rdf:RDF>
  </metadata>
  <g
     transform="translate(-297.21153,-89.384901)"
     id="layer1"
     inkscape:groupmode="layer"
     inkscape:label="Layer 1">
    <path
       inkscape:connector-curvature="0"
       id="path836"
       d="M 297.21153,137.61246 V 89.384901 h 1.32625 1.32627 v 48.227559 48.22755 h -1.32627 -1.32625 z"
       style="fill:#000000;stroke-width:0.120569" />
    <path
       inkscape:connector-curvature="0"
       id="path834"
       d="M 391.01414,137.61246 V 89.384901 h 1.32626 1.32624 v 48.227559 48.22755 h -1.32624 -1.32626 z"
       style="fill:#000000;stroke-width:0.120569" />
    <path
       inkscape:connector-curvature="0"
       id="path830"
       d="m 345.21128,181.65025 c -0.8985,-7.24024 -2.379,-22.25285 -3.1598,-32.04118 -0.1481,-1.85676 -0.28743,-3.39852 -0.30966,-3.42617 -0.14071,-0.17505 -0.22879,0.30587 -0.28149,1.5367 l -0.0603,1.40721 -0.32241,0.0373 c -0.58596,0.0678 -1.46519,-0.53301 -2.52905,-1.728 -0.17576,-0.19741 -0.49243,-0.48903 -0.70372,-0.64803 -0.69765,-0.52496 -0.70007,-0.54466 -0.82049,-6.67638 -0.061,-3.10157 -0.14672,-5.67522 -0.1907,-5.71918 -0.1759,-0.17592 -1.08015,0.91442 -1.52063,1.83345 -0.6088,1.27042 -0.82802,2.32462 -0.97344,4.68215 -0.25761,4.17622 -0.34601,5.10408 -0.53904,5.65688 -0.27321,0.78242 -0.64834,1.05473 -1.45296,1.05473 -1.16549,0 -3.13483,-1.25086 -5.57028,-3.53814 -2.01968,-1.89677 -2.5237,-2.31349 -3.48041,-2.87741 -1.69502,-0.99913 -4.25296,-1.98755 -6.78807,-2.62301 -1.23167,-0.30873 -1.71235,-0.40542 -3.35206,-0.6742 -0.27328,-0.0449 -0.39211,-0.0169 -0.39269,0.0919 -3.2e-4,0.0859 -0.18013,0.27825 -0.39932,0.42746 -0.32199,0.21923 -0.56481,0.27129 -1.26514,0.27129 -0.76997,0 -0.86665,0.0254 -0.86665,0.22823 0,0.12547 -0.0739,0.25649 -0.1637,0.29105 -0.09,0.0345 -0.19932,0.24087 -0.24285,0.45848 -0.0435,0.21759 -0.13474,0.60206 -0.20265,0.85433 -0.12106,0.4497 -0.13487,0.45873 -0.69762,0.45873 -0.3157,0 -0.63192,-0.0579 -0.70268,-0.12847 -0.091,-0.091 -0.22114,0.10222 -0.44589,0.66379 -0.53618,1.33939 -0.80034,2.4737 -0.94728,4.0675 l -0.14086,1.52812 -0.70336,0.0815 c -0.38684,0.0449 -1.12955,0.0439 -1.65037,-0.001 l -0.94699,-0.0839 -0.3224,-2.00823 c -0.17731,-1.10453 -0.40571,-3.01196 -0.50759,-4.23876 -0.1485,-1.78835 -0.22777,-2.27831 -0.39994,-2.47164 -0.16836,-0.18911 -0.23025,-0.54035 -0.28694,-1.62771 -0.0396,-0.76257 -0.18489,-1.87483 -0.32253,-2.47164 -0.13771,-0.59682 -0.30102,-1.70906 -0.36308,-2.47167 l -0.11297,-1.38653 0.30632,-0.2713 c 0.16847,-0.14919 0.41177,-0.27128 0.54072,-0.27128 0.19151,0 0.23441,-0.0847 0.23441,-0.46358 0,-0.31045 0.0797,-0.53564 0.24111,-0.6818 0.23346,-0.21127 0.24115,-0.37134 0.24115,-5.01805 0,-5.47913 -0.0952,-5.04946 1.11881,-5.04946 0.47526,0 0.69914,0.0572 0.82472,0.211 0.14331,0.17547 0.17007,0.99674 0.15899,4.88058 l -0.0143,4.66959 0.28167,0.26459 c 0.17398,0.16346 0.28313,0.4064 0.28549,0.63546 0.002,0.32012 0.0242,0.34403 0.15301,0.17486 0.0999,-0.13102 0.43795,-0.22494 1.02101,-0.28349 0.56774,-0.0569 0.8718,-0.13972 0.8718,-0.23751 0,-0.0824 0.10856,-0.24812 0.24114,-0.36816 0.23351,-0.21131 0.24115,-0.37135 0.24115,-5.05846 0,-3.60385 0.0369,-4.87718 0.14469,-4.9849 0.17077,-0.17082 1.5226,-0.19218 1.78191,-0.028 0.15187,0.0961 0.18198,0.83094 0.20293,4.95527 0.024,4.71141 0.0313,4.84968 0.27377,5.10774 0.13715,0.14589 0.24923,0.3296 0.24923,0.40821 0,0.0856 0.18781,0.14295 0.46917,0.14295 0.39996,0 0.4804,0.0445 0.54487,0.30143 0.0676,0.26951 0.13731,0.30143 0.65838,0.30143 0.40482,0 0.70545,0.0827 0.98468,0.2713 0.38972,0.26299 0.401,0.29378 0.37159,1.01053 l -0.0303,0.73928 1.00264,0.36234 c 2.55456,0.92317 4.52951,1.34046 6.79962,1.43669 2.43136,0.10298 3.36631,-0.1635 4.75161,-1.35454 1.56168,-1.3427 2.41339,-2.83153 3.30725,-5.78125 0.30144,-0.9947 0.76239,-2.24259 1.02436,-2.77308 0.9364,-1.89625 2.52402,-3.02443 5.09895,-3.62342 l 0.92922,-0.21616 -0.0532,-0.49159 c -0.0294,-0.27038 -0.14383,-1.53187 -0.25447,-2.80329 -0.23007,-2.64375 -0.20451,-2.79398 0.59152,-3.4753 0.6953,-0.59521 1.60186,-0.78196 2.40718,-0.49593 0.58591,0.20811 0.60534,0.20744 0.85839,-0.0297 0.79218,-0.74199 2.03645,-0.64691 2.43162,0.18581 0.23945,0.5046 0.16403,0.90832 -0.30904,1.65428 -0.89593,1.41267 -1.11907,2.19099 -0.40004,1.39507 0.2414,-0.26716 0.58972,-0.57485 0.7741,-0.68379 0.21293,-0.12589 0.36125,-0.33682 0.4066,-0.57856 0.0391,-0.20931 0.23351,-0.53582 0.43162,-0.72565 0.19813,-0.18982 0.36041,-0.45701 0.36066,-0.59382 6.7e-4,-0.37838 0.42804,-0.99842 0.83221,-1.20743 0.47324,-0.2447 1.37433,-0.23779 1.9063,0.0145 0.46245,0.21946 0.87691,0.79021 0.87766,1.20855 2.2e-4,0.14543 0.10112,0.33532 0.22363,0.42197 0.25144,0.17749 0.62078,0.83672 0.62078,1.10799 0,0.0982 0.10101,0.2107 0.224,0.24983 0.12318,0.039 0.48482,0.32758 0.80362,0.64108 0.5376,0.52872 0.57359,0.54594 0.4969,0.23768 -0.0454,-0.18281 -0.33261,-0.73737 -0.63809,-1.23241 -0.72017,-1.16692 -0.76754,-1.72815 -0.1895,-2.2446 0.58248,-0.52044 1.51334,-0.4509 2.16752,0.16192 0.26269,0.24608 0.28709,0.24792 0.69737,0.052 0.76293,-0.36383 1.81635,-0.17146 2.56352,0.46809 0.79289,0.67866 0.81824,0.83262 0.58204,3.53409 -0.11395,1.30131 -0.23033,2.55714 -0.25905,2.7907 l -0.0522,0.42456 1.11229,0.28317 c 1.361,0.34646 2.35967,0.79058 3.18492,1.41638 1.26807,0.96162 1.88458,2.06269 2.76026,4.93 0.91792,3.00549 1.72741,4.41997 3.30672,5.77782 1.38263,1.18876 2.3122,1.45429 4.74791,1.35611 2.24049,-0.0902 4.68243,-0.61681 6.96309,-1.50134 l 0.85339,-0.33102 -0.0758,-0.74176 -0.0758,-0.74174 0.52251,-0.25297 c 0.28737,-0.13901 0.74848,-0.25291 1.02468,-0.25291 0.43512,0 0.5123,-0.0403 0.57787,-0.30143 0.0644,-0.25691 0.14491,-0.30142 0.54486,-0.30142 0.31266,0 0.46919,-0.0544 0.46919,-0.16218 0,-0.0891 0.10856,-0.26038 0.24116,-0.38039 0.23348,-0.2113 0.24113,-0.37136 0.24113,-5.05844 0,-3.6039 0.0369,-4.8772 0.14466,-4.98494 0.19057,-0.19057 1.69032,-0.19057 1.88087,0 0.10768,0.10779 0.14468,1.38104 0.14468,4.98494 0,4.68708 0.007,4.84714 0.24116,5.05844 0.13258,0.11986 0.24114,0.2857 0.24114,0.36814 0,0.0975 0.30409,0.18048 0.87181,0.23753 0.58308,0.0584 0.92125,0.15244 1.02101,0.28349 0.12932,0.17006 0.14968,0.14998 0.15301,-0.15192 0.002,-0.20746 0.11927,-0.45483 0.28975,-0.61286 l 0.28592,-0.26498 0.0158,-4.74055 c 0.011,-3.29852 0.0568,-4.79001 0.15088,-4.90318 0.17177,-0.20697 1.56606,-0.22109 1.76927,-0.0178 0.10768,0.10769 0.14467,1.36765 0.14467,4.92465 0,4.62684 0.008,4.78694 0.24114,4.99819 0.16148,0.14617 0.24116,0.37136 0.24116,0.6818 0,0.37203 0.0444,0.4636 0.22486,0.4636 0.12374,0 0.36938,0.11382 0.54603,0.25261 0.3178,0.24997 0.32033,0.26407 0.24337,1.3564 -0.043,0.60707 -0.23422,1.90029 -0.42544,2.87378 -0.20528,1.04508 -0.34768,2.16181 -0.34768,2.72668 0,0.75568 -0.0479,1.01757 -0.228,1.24649 -0.18549,0.23583 -0.26284,0.7049 -0.41508,2.51808 -0.10287,1.22553 -0.33222,3.13178 -0.50948,4.23607 l -0.32232,2.00786 -1.06424,0.0843 c -0.58534,0.0463 -1.32798,0.0477 -1.65036,0.004 l -0.58609,-0.0808 -0.13887,-1.52918 c -0.14239,-1.56682 -0.50223,-3.051 -1.0261,-4.23208 -0.17424,-0.39282 -0.32444,-0.5971 -0.37676,-0.51242 -0.0478,0.0774 -0.35302,0.14085 -0.6781,0.14085 -0.58252,0 -0.59287,-0.007 -0.71459,-0.4587 -0.0679,-0.2523 -0.15913,-0.63677 -0.20266,-0.85435 -0.0437,-0.21762 -0.15281,-0.42392 -0.24284,-0.45849 -0.09,-0.0345 -0.16368,-0.16551 -0.16368,-0.29103 0,-0.20279 -0.097,-0.22825 -0.86668,-0.22825 -0.70033,0 -0.94314,-0.0519 -1.26516,-0.27129 -0.21916,-0.1492 -0.39886,-0.34154 -0.3993,-0.42744 -7e-4,-0.109 -0.1195,-0.13686 -0.39267,-0.0919 -1.63975,0.26878 -2.12042,0.36545 -3.35208,0.67418 -3.10742,0.77891 -6.17836,2.07025 -7.78251,3.27254 -0.20558,0.15407 -1.16088,1.00158 -2.12291,1.88334 -3.09746,2.83908 -4.69484,3.88269 -5.94305,3.88269 -0.79411,0 -1.17118,-0.27559 -1.44325,-1.05476 -0.19302,-0.55278 -0.28143,-1.48064 -0.53907,-5.65683 -0.14544,-2.35756 -0.36457,-3.41174 -0.97343,-4.68215 -0.44044,-0.91908 -1.34472,-2.00939 -1.52059,-1.83351 -0.044,0.044 -0.12976,2.61765 -0.19072,5.71921 -0.12026,6.12349 -0.12335,6.14806 -0.81457,6.67638 -0.20805,0.159 -0.71431,0.63368 -1.12497,1.05481 -0.88679,0.90934 -1.6286,1.37667 -2.09951,1.32261 l -0.33661,-0.0384 -0.0299,-1.20567 c -0.0162,-0.66313 -0.0581,-1.32777 -0.0926,-1.47697 -0.13314,-0.57513 -0.267,-0.22397 -0.34466,0.90423 -0.61133,8.88122 -3.28853,35.47742 -3.57122,35.47742 -0.0454,0 -0.1481,-0.52898 -0.22833,-1.17555 z"
       style="fill:#000000;stroke-width:0.120569" />
  </g>
</svg>
