<?xml version="1.0" encoding="UTF-8" standalone="no"?>
<svg
   xmlns:dc="http://purl.org/dc/elements/1.1/"
   xmlns:cc="http://creativecommons.org/ns#"
   xmlns:rdf="http://www.w3.org/1999/02/22-rdf-syntax-ns#"
   xmlns:svg="http://www.w3.org/2000/svg"
   xmlns="http://www.w3.org/2000/svg"
   xmlns:sodipodi="http://sodipodi.sourceforge.net/DTD/sodipodi-0.dtd"
   xmlns:inkscape="http://www.inkscape.org/namespaces/inkscape"
   width="72.949219mm"
   height="72.949234mm"
   viewBox="0 0 72.949219 72.949234"
   version="1.1"
   id="svg8"
   sodipodi:docname="Muskrat-Sigma 3.svg"
   inkscape:version="1.0.1 (3bc2e813f5, 2020-09-07)"
   inkscape:export-filename="C:\GitHub\SN-Shipyard-Source\Vectors - Outlines Ships\Muskrat-Sigma 4.png"
   inkscape:export-xdpi="96"
   inkscape:export-ydpi="96">
  <defs
     id="defs2" />
  <sodipodi:namedview
     id="base"
     pagecolor="#ffffff"
     bordercolor="#666666"
     borderopacity="1.0"
     inkscape:pageopacity="0.0"
     inkscape:pageshadow="2"
     inkscape:zoom="0.7"
     inkscape:cx="676.87958"
     inkscape:cy="258.39917"
     inkscape:document-units="mm"
     inkscape:current-layer="layer1"
     inkscape:document-rotation="0"
     showgrid="false"
     inkscape:window-width="1858"
     inkscape:window-height="1057"
     inkscape:window-x="54"
     inkscape:window-y="-8"
     inkscape:window-maximized="1" />
  <metadata
     id="metadata5">
    <rdf:RDF>
      <cc:Work
         rdf:about="">
        <dc:format>image/svg+xml</dc:format>
        <dc:type
           rdf:resource="http://purl.org/dc/dcmitype/StillImage" />
        <dc:title></dc:title>
      </cc:Work>
    </rdf:RDF>
  </metadata>
  <g
     inkscape:label="Layer 1"
     inkscape:groupmode="layer"
     id="layer1"
     transform="translate(466.92659,11.087305)">
    <path
       style="fill:#000000;stroke-width:0.0911863"
       d="m -439.753,59.118829 c -0.74472,-0.142851 -0.79618,-0.169112 -0.92095,-0.470074 -0.13336,-0.321635 -0.16364,-1.703821 -0.05,-2.280819 0.0535,-0.272166 0.0396,-0.341951 -0.0684,-0.341951 -0.24437,0 -0.41965,-0.380254 -0.41922,-0.909359 5.1e-4,-0.507352 0.24716,-2.319356 0.47985,-3.524082 l 0.1254,-0.6492 -0.86775,-0.154992 c -1.12227,-0.200461 -1.22481,-0.256716 -1.17923,-0.647033 l 0.0357,-0.306203 -0.64222,-0.113582 c -0.58952,-0.104263 -0.68522,-0.154434 -1.16652,-0.6115 -0.28839,-0.273857 -0.52433,-0.545184 -0.52433,-0.602952 0,-0.05778 0.61182,-1.846392 1.3596,-3.97471 0.74777,-2.12832 1.33793,-3.904752 1.31141,-3.947622 -0.0265,-0.04288 -0.23054,-0.05061 -0.45342,-0.0172 -0.2522,0.03782 -0.45147,0.0224 -0.52763,-0.0408 -0.0924,-0.07662 -0.19731,-0.05591 -0.42744,0.08441 -0.40657,0.24786 -0.60944,0.234925 -0.91558,-0.05836 -0.28954,-0.277395 -0.32273,-0.530643 -0.10946,-0.835135 0.13462,-0.192198 0.17285,-0.845063 0.133,-2.270944 -0.005,-0.177289 -0.0548,-0.205171 -0.36709,-0.205171 -0.33921,0 -0.38391,-0.03323 -0.72948,-0.542115 -0.30501,-0.449128 -0.36815,-0.618005 -0.36815,-0.984547 0,-0.396017 -0.0383,-0.479792 -0.36476,-0.798596 l -0.36472,-0.35617 v -2.744175 -2.744178 l 0.36474,-0.356164 c 0.32618,-0.318493 0.36475,-0.402814 0.36475,-0.79719 0,-0.352967 0.0636,-0.53565 0.31916,-0.91494 0.17553,-0.260652 0.31915,-0.505237 0.31915,-0.543521 0,-0.03829 -0.12311,-0.06961 -0.27356,-0.06961 h -0.27356 v -0.769311 -0.769309 l 0.26884,-0.02857 0.26886,-0.02858 -0.31444,-0.4973 c -0.24066,-0.380599 -0.31445,-0.595596 -0.31445,-0.916157 0,-0.36851 -0.0439,-0.461664 -0.36475,-0.77502 l -0.36474,-0.356164 v -2.800624 -2.800611 l 0.36474,-0.288885 c 0.33708,-0.266968 0.36475,-0.322965 0.36475,-0.73804 0,-0.37509 0.0639,-0.546435 0.38754,-1.039085 0.35914,-0.546687 0.41204,-0.590069 0.72165,-0.59183 l 0.33411,-0.0017 0.0324,-1.071443 c 0.0277,-0.915167 0.009,-1.103162 -0.12894,-1.28891 -0.23426,-0.315826 -0.19892,-0.578713 0.11867,-0.882508 0.31352,-0.299889 0.53301,-0.305053 0.93066,-0.0219 0.19892,0.141629 0.2829,0.158073 0.38303,0.07498 0.0706,-0.05854 0.30503,-0.09314 0.52109,-0.07688 l 0.39287,0.02954 0.0231,-9.2318379 0.0231,-9.2318379 0.72705,-0.3655456 0.72703,-0.3655456 h 2.64848 2.64844 l 0.72748,0.3657638 0.72746,0.3657636 v 0.4093221 0.4093216 h 3.64747 3.64745 v -0.4093776 -0.4093219 l 0.72748,-0.3657638 0.72746,-0.3657639 h 2.64846 2.64844 l 0.72705,0.3655457 0.72702,0.3655454 0.0232,9.231838 0.0231,9.231837 0.39288,-0.02954 c 0.21606,-0.01624 0.45056,0.01836 0.52112,0.07689 0.1,0.08298 0.18419,0.06764 0.38221,-0.06961 0.46856,-0.324755 0.58021,-0.325797 0.90762,-0.0085 0.34042,0.32996 0.38068,0.586385 0.1425,0.907501 -0.13778,0.18575 -0.15659,0.373745 -0.12893,1.288912 l 0.0323,1.07144 h 0.34873 c 0.32989,0 0.36887,0.03191 0.72165,0.590478 0.3074,0.486731 0.37291,0.670221 0.37291,1.04435 0,0.419869 0.0273,0.475825 0.36475,0.746987 l 0.36475,0.293119 v 2.793012 2.793016 l -0.36475,0.356166 c -0.32617,0.318492 -0.36475,0.402813 -0.36475,0.797188 0,0.353554 -0.0636,0.535261 -0.32065,0.916158 l -0.32064,0.475129 0.25225,0.04625 c 0.24871,0.0456 0.25264,0.05684 0.27875,0.797882 l 0.0266,0.751633 h -0.27725 c -0.15247,-10e-7 -0.27724,0.03132 -0.27724,0.0696 0,0.03829 0.14362,0.282868 0.31915,0.543522 0.25544,0.37929 0.31915,0.561972 0.31915,0.91494 0,0.394374 0.0386,0.478697 0.36476,0.79719 l 0.36474,0.356164 v 2.776733 2.776731 l -0.36474,0.31221 c -0.33703,0.288481 -0.365,0.348051 -0.36789,0.783832 -0.002,0.407048 -0.0566,0.546542 -0.39399,1.018743 -0.36119,0.505588 -0.41633,0.546331 -0.72636,0.536718 -0.28236,-0.0087 -0.33639,0.02014 -0.34124,0.182376 -0.0411,1.384347 -0.002,2.067282 0.133,2.258547 0.21328,0.304493 0.18009,0.55774 -0.10944,0.835135 -0.30614,0.293289 -0.50903,0.306223 -0.91558,0.05837 -0.23661,-0.144254 -0.3336,-0.162286 -0.4323,-0.08038 -0.0818,0.06789 -0.27412,0.08359 -0.53843,0.04396 -0.37463,-0.05617 -0.41116,-0.04492 -0.41116,0.126696 0,0.103594 0.59499,1.880248 1.32219,3.948116 0.72721,2.067871 1.32221,3.80539 1.32221,3.861153 0,0.05577 -0.23594,0.325453 -0.52432,0.599308 -0.48176,0.457493 -0.57666,0.507176 -1.16885,0.611916 l -0.64454,0.113992 0.0416,0.283098 c 0.0573,0.390981 -0.10856,0.487058 -1.15864,0.670847 l -0.88071,0.154146 0.24886,1.423941 c 0.34783,1.990177 0.42135,3.122132 0.22252,3.425582 -0.0838,0.127836 -0.21368,0.232432 -0.28871,0.232432 -0.10136,0 -0.12113,0.0609 -0.0769,0.237026 0.10824,0.431285 0.0813,1.986149 -0.0405,2.334635 -0.12837,0.367385 -0.15245,0.380069 -1.00509,0.529653 -0.51794,0.09086 -0.59857,0.08413 -0.76213,-0.06366 -0.26682,-0.241083 -0.62451,-0.978872 -0.85379,-1.761039 -0.17981,-0.613419 -0.22671,-0.688598 -0.45513,-0.729492 -0.19245,-0.03445 -0.30652,-0.149607 -0.46694,-0.471335 -0.23308,-0.467489 -0.63912,-1.995195 -0.89872,-3.381298 -0.0916,-0.488986 -0.21025,-0.887451 -0.26374,-0.885473 -0.0534,0.0019 -0.45965,0.07931 -0.90257,0.171895 -0.95044,0.19863 -1.14567,0.168576 -1.21685,-0.187342 -0.04,-0.199999 -0.1034,-0.261708 -0.2689,-0.261708 -0.1951,0 -0.21657,0.03971 -0.21657,0.400584 0,0.281161 -0.043,0.417084 -0.14425,0.455934 -0.18826,0.07225 -5.3592,0.07225 -5.54745,0 -0.10122,-0.03884 -0.14423,-0.174773 -0.14423,-0.455934 0,-0.360877 -0.0215,-0.400584 -0.21658,-0.400584 -0.16635,0 -0.22891,0.06172 -0.26979,0.266148 -0.0783,0.391703 -0.0975,0.392161 -1.93585,0.0461 l -0.2793,-0.05259 -0.11148,0.62246 c -0.21697,1.211362 -0.75464,3.272365 -0.95931,3.67721 -0.1669,0.33015 -0.26024,0.415634 -0.4775,0.43744 -0.24784,0.02487 -0.27999,0.06991 -0.39071,0.547122 -0.14888,0.641797 -0.58972,1.631333 -0.85035,1.908751 -0.20874,0.22217 -0.26385,0.228866 -0.89219,0.108337 z"
       id="path30" />
    <path
       style="fill:#000000;stroke-width:0.0911863"
       d="m -405.64923,25.38731 v -36.474615 h 5.83594 5.83592 V 25.38731 61.861928 h -5.83592 -5.83594 z"
       id="path28" />
    <path
       style="fill:#000000;stroke-width:0.0911863"
       d="m -466.92659,25.38731 v -36.474615 h 5.83594 5.83594 V 25.38731 61.861928 h -5.83594 -5.83594 z"
       id="path24" />
  </g>
</svg>
