<?xml version="1.0" encoding="UTF-8" standalone="no"?>
<svg
   xmlns:dc="http://purl.org/dc/elements/1.1/"
   xmlns:cc="http://creativecommons.org/ns#"
   xmlns:rdf="http://www.w3.org/1999/02/22-rdf-syntax-ns#"
   xmlns:svg="http://www.w3.org/2000/svg"
   xmlns="http://www.w3.org/2000/svg"
   xmlns:sodipodi="http://sodipodi.sourceforge.net/DTD/sodipodi-0.dtd"
   xmlns:inkscape="http://www.inkscape.org/namespaces/inkscape"
   sodipodi:docname="nanopod-krypt 3.svg"
   id="svg8"
   version="1.1"
   viewBox="0 0 67.295695 67.295679"
   height="67.295677mm"
   width="67.295692mm"
   inkscape:version="1.0.1 (3bc2e813f5, 2020-09-07)"
   inkscape:export-filename="C:\GitHub\Supernova-Shipyard-Source\Vectors - Outlines Ships\krypt pod-alien 4.png"
   inkscape:export-xdpi="96"
   inkscape:export-ydpi="96">
  <defs
     id="defs2" />
  <sodipodi:namedview
     id="base"
     pagecolor="#ffffff"
     bordercolor="#666666"
     borderopacity="1.0"
     inkscape:pageopacity="0.0"
     inkscape:pageshadow="2"
     inkscape:zoom="0.24748737"
     inkscape:cx="428.63991"
     inkscape:cy="361.98853"
     inkscape:document-units="mm"
     inkscape:current-layer="layer1"
     showgrid="false"
     inkscape:window-width="1854"
     inkscape:window-height="1057"
     inkscape:window-x="58"
     inkscape:window-y="-8"
     inkscape:window-maximized="1"
     inkscape:document-rotation="0" />
  <metadata
     id="metadata5">
    <rdf:RDF>
      <cc:Work
         rdf:about="">
        <dc:format>image/svg+xml</dc:format>
        <dc:type
           rdf:resource="http://purl.org/dc/dcmitype/StillImage" />
        <dc:title />
      </cc:Work>
    </rdf:RDF>
  </metadata>
  <g
     inkscape:label="Layer 1"
     inkscape:groupmode="layer"
     id="layer1"
     transform="translate(962.79647,-728.09582)">
    <path
       style="fill:#000000;stroke-width:0.0841196"
       d="m -962.79647,761.74367 v -33.64785 h 0.88326 0.88325 v 33.64785 33.64783 h -0.88325 -0.88326 z"
       id="path116" />
    <path
       style="fill:#000000;stroke-width:0.0841196"
       d="m -929.77952,789.92283 c -0.43303,-0.0276 -0.77793,-0.10009 -0.96738,-0.20316 -0.21625,-0.11765 -0.49543,-0.16552 -1.0515,-0.1803 -0.54016,-0.0143 -0.93783,-0.0803 -1.38798,-0.23025 -0.8816,-0.29366 -1.35982,-0.33289 -2.90634,-0.23843 -1.09068,0.0666 -1.46246,0.0593 -1.93474,-0.0377 -0.69494,-0.14287 -2.0218,-0.76686 -3.09289,-1.45448 -0.42482,-0.27272 -0.92381,-0.54278 -1.10888,-0.60013 -0.73937,-0.22908 -2.12438,-0.90099 -2.5962,-1.25947 -0.27481,-0.20881 -0.63588,-0.45537 -0.80236,-0.5479 -0.35652,-0.19815 -1.43039,-1.25447 -2.49111,-2.45039 -0.41567,-0.46866 -0.83557,-0.94183 -0.93311,-1.05149 -0.33817,-0.38022 -1.67485,-1.55404 -1.98442,-1.74264 -0.50251,-0.30617 -0.91646,-0.90115 -1.53065,-2.20006 -0.31721,-0.67085 -0.7072,-1.49547 -0.86662,-1.83248 -0.18597,-0.39309 -0.5331,-0.89064 -0.96836,-1.38798 -0.66742,-0.76256 -1.21321,-1.72173 -1.49421,-2.62586 -0.0575,-0.18506 -0.2563,-0.77103 -0.44176,-1.30213 -0.18722,-0.53621 -0.4252,-1.46776 -0.53513,-2.0947 -0.16811,-0.95894 -0.18531,-1.21983 -0.11415,-1.73146 0.071,-0.51052 0.0618,-0.65293 -0.0607,-0.9336 -0.17293,-0.39653 -0.26544,-2.6649 -0.19963,-4.89468 0.004,-0.12723 -0.0172,-0.92204 -0.0465,-1.76622 -0.0646,-1.85917 0.007,-2.54042 0.51484,-4.87311 0.48235,-2.21717 0.70718,-3.05087 1.23236,-4.56962 0.39364,-1.13839 0.42615,-1.29546 0.48768,-2.35535 0.0789,-1.36057 0.26557,-2.03057 0.82792,-2.97253 0.3224,-0.54004 0.51919,-0.75543 1.08822,-1.19113 0.422,-0.32312 0.95025,-0.63424 1.34591,-0.79267 1.22274,-0.48964 1.54448,-0.70086 2.73184,-1.79337 1.38921,-1.27826 2.67733,-2.16307 3.4934,-2.39962 0.31173,-0.0903 0.81281,-0.23484 1.11353,-0.32105 0.30073,-0.0862 1.01526,-0.39288 1.58785,-0.68146 0.57257,-0.28858 1.27794,-0.60352 1.56747,-0.69987 0.28952,-0.0963 0.59345,-0.24926 0.67539,-0.33981 0.0819,-0.0905 0.18331,-0.16463 0.22527,-0.16463 0.042,0 0.35235,-0.13463 0.68981,-0.29919 0.33745,-0.16454 0.81776,-0.35072 1.06733,-0.41373 0.24959,-0.063 0.62414,-0.17357 0.83233,-0.24568 1.19141,-0.41269 2.9871,-0.8374 4.59696,-1.08727 0.37697,-0.0585 0.73658,-0.1486 0.79915,-0.2002 0.15163,-0.12508 0.95047,-0.40888 1.88024,-0.66796 1.13757,-0.31699 2.19635,-0.38605 3.69972,-0.24133 1.46384,0.14093 1.65262,0.17157 2.42759,0.39409 0.5056,0.14517 0.62556,0.15236 0.98887,0.0592 0.33395,-0.0856 0.5612,-0.0851 1.18175,0.002 1.71929,0.24334 2.92763,0.76944 3.82247,1.66428 0.41906,0.41907 0.61206,0.55012 0.89449,0.60743 2.5146,0.5102 3.84936,0.97107 4.76327,1.64467 0.54392,0.4009 0.78055,0.6728 1.3566,1.55881 0.56725,0.87251 0.95887,1.17087 1.97752,1.50663 1.26059,0.41551 1.97715,0.93558 3.01565,2.18876 0.20516,0.24756 0.30882,0.45787 0.30882,0.62654 0,0.13966 0.0962,0.56927 0.21374,0.9547 0.11757,0.38542 0.18998,0.73924 0.16091,0.78628 -0.0291,0.0471 0.0964,0.33929 0.27886,0.64947 0.67742,1.1518 1.28139,2.27449 1.75147,3.2558 0.26596,0.55519 0.56812,1.17978 0.67145,1.38798 0.10335,0.2082 0.26823,0.65078 0.36641,0.98352 0.12359,0.41885 0.28785,0.7384 0.53391,1.03868 0.19548,0.23855 0.42082,0.51518 0.50078,0.61476 0.15389,0.19166 0.45622,1.25302 0.73447,2.57846 0.14297,0.68101 0.15402,0.87867 0.0748,1.3373 -0.0803,0.46448 -0.0736,0.57103 0.0488,0.77819 0.43877,0.74278 1.01974,2.40177 1.18642,3.38785 0.071,0.41996 0.16741,0.87713 0.21427,1.01592 0.16105,0.47702 0.34018,2.58124 0.28284,3.32273 -0.0446,0.57654 -0.116,0.84535 -0.36875,1.38798 -0.34083,0.73164 -0.83393,1.53979 -1.0479,1.71736 -0.0741,0.0615 -0.13471,0.19287 -0.13471,0.29196 0,0.5292 -0.55961,1.52111 -1.213,2.15007 -0.16563,0.15944 -0.30115,0.34473 -0.30115,0.41177 0,0.067 -0.13318,0.39877 -0.29596,0.7372 -0.16277,0.33842 -0.3307,0.79663 -0.37315,1.01825 -0.11403,0.59512 -0.30854,1.00251 -0.66703,1.39704 -0.17583,0.1935 -0.44423,0.62493 -0.59642,0.95872 -0.21377,0.46884 -0.38885,0.70442 -0.76969,1.03566 -0.67769,0.58944 -1.1164,1.4731 -1.03521,2.08515 0.0358,0.2697 0.0224,0.43486 -0.0385,0.47246 -0.0514,0.0318 -0.0936,0.1786 -0.0936,0.32623 -4e-5,0.14763 -0.10889,0.49555 -0.2419,0.77315 -0.30708,0.64089 -1.63146,1.93783 -2.53404,2.48152 -1.41685,0.85348 -2.36837,1.54601 -3.36829,2.45146 -1.27545,1.15497 -1.55183,1.36786 -2.12154,1.63424 -0.2423,0.11327 -0.61549,0.30971 -0.82929,0.4365 -1.10447,0.65501 -1.34259,0.77697 -1.91656,0.98162 -0.57604,0.2054 -0.79601,0.23626 -1.48007,0.20764 -0.47875,-0.02 -1.17918,0.15054 -1.6824,0.40968 -0.88639,0.45644 -1.39319,0.59576 -2.73388,0.75144 -1.60286,0.18614 -2.77666,0.19938 -2.97629,0.0335 -0.10849,-0.0901 -0.18575,-0.0962 -0.32828,-0.0262 -0.25483,0.12522 -1.08723,0.35135 -1.65357,0.44921 -1.04605,0.18075 -1.25248,0.19779 -1.89761,0.1566 z"
       id="path122" />
    <path
       style="fill:#000000;stroke-width:0.0841196"
       d="m -897.26729,761.74367 v -33.64785 h 0.88325 0.88326 v 33.64785 33.64783 h -0.88326 -0.88325 z"
       id="path120" />
  </g>
</svg>
