<?xml version="1.0" encoding="UTF-8" standalone="no"?>
<!-- Created with Inkscape (http://www.inkscape.org/) -->

<svg
   xmlns:dc="http://purl.org/dc/elements/1.1/"
   xmlns:cc="http://creativecommons.org/ns#"
   xmlns:rdf="http://www.w3.org/1999/02/22-rdf-syntax-ns#"
   xmlns:svg="http://www.w3.org/2000/svg"
   xmlns="http://www.w3.org/2000/svg"
   xmlns:sodipodi="http://sodipodi.sourceforge.net/DTD/sodipodi-0.dtd"
   xmlns:inkscape="http://www.inkscape.org/namespaces/inkscape"
   inkscape:export-ydpi="96"
   inkscape:export-xdpi="96"
   inkscape:export-filename="D:\GitHub\Novalike-Art-Pack-Source\Outlines Ships\pegasus-civilian 3.png"
   inkscape:version="0.92.4 (5da689c313, 2019-01-14)"
   width="113.11817mm"
   height="113.11816mm"
   viewBox="0 0 113.11817 113.11816"
   version="1.1"
   id="svg8"
   sodipodi:docname="pegasus-civilian 3.svg">
  <defs
     id="defs2" />
  <sodipodi:namedview
     id="base"
     pagecolor="#ffffff"
     bordercolor="#666666"
     borderopacity="1.0"
     inkscape:pageopacity="0.0"
     inkscape:pageshadow="2"
     inkscape:zoom="0.35"
     inkscape:cx="-161.60829"
     inkscape:cy="588.5191"
     inkscape:document-units="mm"
     inkscape:current-layer="layer1"
     showgrid="false"
     inkscape:window-width="1920"
     inkscape:window-height="1017"
     inkscape:window-x="-8"
     inkscape:window-y="-8"
     inkscape:window-maximized="1" />
  <metadata
     id="metadata5">
    <rdf:RDF>
      <cc:Work
         rdf:about="">
        <dc:format>image/svg+xml</dc:format>
        <dc:type
           rdf:resource="http://purl.org/dc/dcmitype/StillImage" />
        <dc:title />
      </cc:Work>
    </rdf:RDF>
  </metadata>
  <g
     inkscape:label="Layer 1"
     inkscape:groupmode="layer"
     id="layer1"
     transform="translate(578.35628,-1.7457135)">
    <path
       style="fill:#000000;stroke-width:0.1413977"
       d="m -578.35628,111.96523 v -2.89866 h 56.55909 56.55908 v 2.89866 2.89865 h -56.55908 -56.55909 z"
       id="path832"
       inkscape:connector-curvature="0" />
    <path
       style="fill:#000000;stroke-width:0.1413977"
       d="m -524.9433,106.84168 c -0.63268,-0.0499 -0.67163,-0.0765 -0.67163,-0.45817 0,-0.44971 -0.0775,-0.48008 -1.62608,-0.63792 -0.91052,-0.0927 -3.93356,-0.59651 -4.35733,-0.72604 -0.19084,-0.0584 -0.24531,-0.19202 -0.21208,-0.52061 0.0426,-0.4215 0.0117,-0.45099 -0.66232,-0.63201 -2.16765,-0.58213 -6.15077,-1.93082 -6.15077,-2.08263 0,-0.0277 0.85899,-2.104939 1.90886,-4.615983 1.04987,-2.511046 1.90887,-4.604597 1.90887,-4.652328 0,-0.147985 -1.89113,-0.845595 -1.99056,-0.734289 -0.0515,0.05781 -0.87223,2.01393 -1.82361,4.346988 -0.95136,2.33307 -1.80335,4.382992 -1.89331,4.555402 -0.16221,0.31094 -0.18177,0.30447 -2.42439,-0.804551 -1.24347,-0.614902 -2.68449,-1.358848 -3.20222,-1.653196 l -0.94139,-0.535192 -0.28273,0.349169 -0.28272,0.349159 -1.42964,-0.967097 c -0.7863,-0.531912 -1.93051,-1.371503 -2.54269,-1.865771 -1.09197,-0.88165 -1.11777,-0.893431 -1.36267,-0.622829 -0.13729,0.151702 -0.32155,0.275822 -0.40943,0.275822 -0.088,0 -1.33034,-1.176703 -2.76092,-2.614891 l -2.60106,-2.614884 0.32463,-0.345557 0.32464,-0.345554 -1.067,-1.351015 c -1.41294,-1.789011 -2.73921,-3.795384 -2.55048,-3.858295 0.0833,-0.02771 0.26197,-0.13137 0.39726,-0.230301 0.22623,-0.165425 0.17162,-0.309906 -0.67975,-1.79772 -0.89964,-1.572158 -2.43301,-4.769839 -2.33302,-4.865209 0.0275,-0.02599 2.11758,-0.892151 4.64506,-1.924717 2.52749,-1.032572 4.61264,-1.888581 4.63364,-1.902246 0.0209,-0.01368 -0.1512,-0.463668 -0.38269,-0.999989 -0.25146,-0.582571 -0.49453,-0.957613 -0.6038,-0.931614 -0.10071,0.02396 -2.17341,0.877653 -4.60627,1.897119 -2.64053,1.10651 -4.47322,1.801339 -4.54706,1.723945 -0.20412,-0.213956 -1.35724,-3.555398 -1.79313,-5.196027 l -0.40686,-1.531435 -0.45057,0.07177 -0.45057,0.07176 -0.21161,-0.944084 c -0.18896,-0.843036 -0.49709,-2.836726 -0.73049,-4.72648 -0.0769,-0.622466 -0.11211,-0.671637 -0.48082,-0.671637 -0.33248,0 -0.41236,-0.0726 -0.48623,-0.441873 -0.1142,-0.570892 -0.11226,-5.828391 0.003,-6.521967 0.0776,-0.469153 0.13438,-0.530242 0.49333,-0.530242 0.22313,0 0.40571,-0.01779 0.40571,-0.03955 0,-0.340656 0.49152,-3.839687 0.64992,-4.626551 0.32536,-1.616314 0.30619,-1.579998 0.80698,-1.529371 0.42167,0.04263 0.45081,0.01199 0.63016,-0.662294 0.58937,-2.215859 1.77649,-5.798044 2.00402,-6.047126 0.0933,-0.10234 2.52227,0.855675 7.26146,2.864235 1.15004,0.487412 2.11014,0.862112 2.13356,0.832667 0.17443,-0.21938 0.75153,-1.910969 0.677,-1.984503 -0.0517,-0.05103 -1.81201,-0.79253 -3.91177,-1.647759 -2.09976,-0.855227 -4.14746,-1.704278 -4.55043,-1.886771 l -0.73267,-0.331808 0.66198,-1.420441 c 0.59385,-1.274259 1.65684,-3.309355 2.3768,-4.550411 0.26345,-0.454103 0.26319,-0.457434 -0.0533,-0.679656 -0.175,-0.122825 -0.31816,-0.280882 -0.31816,-0.351235 0,-0.195049 1.46808,-2.318585 2.58108,-3.733482 0.81381,-1.034537 0.96332,-1.30173 0.83085,-1.484676 -0.0888,-0.122705 -0.20051,-0.304517 -0.24812,-0.404031 -0.089,-0.18623 1.35189,-1.743794 3.84053,-4.151318 l 1.34219,-1.298444 0.33569,0.315359 0.33567,0.315363 1.11162,-0.895221 c 1.58069,-1.272993 4.04257,-2.900228 4.10722,-2.714772 0.0301,0.08618 0.13328,0.264256 0.2294,0.395714 0.15902,0.217461 0.28927,0.172674 1.44424,-0.496603 1.31245,-0.760542 4.88737,-2.531363 5.10516,-2.528825 0.14203,0.0015 0.10071,-0.0936 2.27247,5.230277 0.90416,2.216409 1.65555,4.046474 1.66974,4.066808 0.0142,0.02031 0.47561,-0.161717 1.02541,-0.404553 l 0.99962,-0.441527 -0.63271,-1.504317 c -3.31538,-7.882536 -3.23694,-7.673957 -2.96176,-7.875182 0.31573,-0.230863 4.64675,-1.66133 5.7893,-1.912111 0.82646,-0.1814 0.82729,-0.182111 0.75302,-0.639756 -0.0503,-0.311016 -0.0126,-0.481861 0.118,-0.531966 0.24916,-0.09561 4.27924,-0.751478 5.33617,-0.868422 0.77636,-0.08591 0.81302,-0.10794 0.81302,-0.488849 0,-0.2333 0.0927,-0.434522 0.22367,-0.484718 0.29022,-0.1113708 6.53545,-0.1084119 6.95228,0.0033 0.23426,0.06279 0.31814,0.190064 0.31814,0.482788 0,0.379053 0.0378,0.401787 0.81304,0.489191 1.29074,0.14552 4.29646,0.631199 4.88802,0.789833 0.49166,0.13184 0.53602,0.183271 0.49504,0.573881 l -0.045,0.429064 2.12082,0.611297 c 2.04498,0.589432 4.40484,1.414856 4.63646,1.621706 0.0615,0.05494 -0.74976,2.152356 -1.80282,4.660901 -1.05307,2.508548 -1.9147,4.604705 -1.9147,4.658129 0,0.101548 1.74338,0.790746 1.9191,0.758668 0.0555,-0.01013 0.90637,-1.978745 1.89081,-4.374702 0.98441,-2.395954 1.85165,-4.465671 1.92718,-4.59937 0.12378,-0.219188 0.31077,-0.162191 1.90158,0.579606 0.97035,0.452486 2.38411,1.182257 3.14169,1.62172 0.75756,0.439458 1.42683,0.79902 1.48728,0.79902 0.0604,0 0.20689,-0.159909 0.32547,-0.355353 l 0.21562,-0.355351 1.26647,0.863533 c 0.69654,0.474943 1.83415,1.311627 2.52802,1.859298 1.03474,0.816714 1.30171,0.96671 1.4847,0.834193 0.12269,-0.08886 0.30218,-0.199611 0.39884,-0.246118 0.19549,-0.09402 2.15755,1.711345 4.16391,3.83135 l 1.28407,1.356791 -0.30551,0.325198 -0.3055,0.325198 0.85931,1.076534 c 0.47265,0.592097 1.30416,1.731667 1.84785,2.532375 l 0.98849,1.455834 -0.36355,0.29117 -0.36354,0.291174 0.7329,1.264202 c 1.11879,1.929813 2.56772,5.027035 2.42055,5.174192 -0.0704,0.07044 -2.15917,0.959889 -4.64162,1.976557 -2.48245,1.016669 -4.53088,1.864652 -4.55211,1.884408 -0.0861,0.08026 0.81453,1.914789 0.9401,1.914789 0.0746,0 1.77936,-0.689133 3.78829,-1.531405 5.45157,-2.285617 5.26518,-2.215033 5.4256,-2.054608 0.20775,0.207752 1.45773,3.853018 1.85095,5.397901 l 0.33523,1.316994 0.44864,-0.08412 c 0.51393,-0.09637 0.48122,-0.158817 0.81232,1.550668 0.1717,0.886667 0.64792,4.217488 0.64792,4.53197 0,0.03492 0.18255,0.06346 0.40569,0.06346 0.35896,0 0.41577,0.0611 0.49334,0.530243 0.11463,0.693642 0.11657,6.092367 0.003,6.663366 -0.0745,0.371937 -0.15272,0.441868 -0.4949,0.441868 -0.22358,0 -0.40652,0.02855 -0.40652,0.06346 0,0.314486 -0.47619,3.645309 -0.64792,4.531972 -0.32768,1.691949 -0.30494,1.646873 -0.80626,1.598178 -0.41905,-0.04068 -0.45,-0.0082 -0.63239,0.664189 -0.44818,1.652238 -1.08193,3.69241 -1.44105,4.639082 -0.21214,0.559256 -0.42581,1.128055 -0.47479,1.263997 -0.10695,0.296912 0.15133,0.38986 -5.43019,-1.954219 -2.11604,-0.88869 -3.89985,-1.615799 -3.964,-1.615799 -0.11511,0 -0.81443,1.724723 -0.77761,1.917773 0.0146,0.07648 4.50136,1.96254 8.90219,3.742112 0.30441,0.123102 0.30692,0.141651 0.0892,0.662274 -0.36015,0.861973 -1.87334,3.847848 -2.46954,4.87293 -0.63013,1.08338 -0.65282,1.195872 -0.26613,1.318603 0.15557,0.04937 0.28281,0.168093 0.28281,0.263825 0,0.254074 -1.56594,2.561558 -2.68427,3.955428 -0.93997,1.171524 -0.95885,1.2108 -0.69633,1.448381 0.14843,0.134317 0.26984,0.316138 0.26984,0.404051 0,0.08793 -1.17669,1.33032 -2.61488,2.760896 l -2.61488,2.601057 -0.34024,-0.319632 -0.34022,-0.319634 -1.25147,0.987776 c -0.6883,0.543273 -1.82412,1.378529 -2.52403,1.856123 l -1.27259,0.868365 -0.29797,-0.372539 -0.29795,-0.372539 -1.39882,0.813112 c -1.83951,1.069315 -4.89444,2.48891 -5.0409,2.34246 -0.0637,-0.0636 -0.94799,-2.146224 -1.96526,-4.62797 -1.01725,-2.481758 -1.8645,-4.529475 -1.88278,-4.550493 -0.0722,-0.08291 -1.98183,0.810726 -1.95706,0.915788 0.0144,0.06166 0.86071,2.110308 1.88036,4.552422 1.01967,2.44211 1.82657,4.511553 1.79312,4.598743 -0.0789,0.20576 -3.26747,1.34264 -5.23135,1.86529 l -1.53145,0.40755 0.0713,0.44802 c 0.0691,0.43368 0.0501,0.45291 -0.58951,0.60023 -1.00738,0.23201 -3.00355,0.5568 -4.07995,0.66381 -1.29945,0.12922 -1.60057,0.2549 -1.60057,0.66807 0,0.30847 -0.0732,0.3445 -0.86913,0.42769 -0.88192,0.0921 -4.72544,0.0838 -5.95331,-0.0132 z"
       id="path830"
       inkscape:connector-curvature="0" />
    <path
       style="fill:#000000;stroke-width:0.1413977"
       d="M -578.35628,4.6443668 V 1.7457135 h 56.55909 56.55908 v 2.8986533 2.8986528 h -56.55908 -56.55909 z"
       id="path826"
       inkscape:connector-curvature="0" />
  </g>
</svg>
