<?xml version="1.0" encoding="UTF-8" standalone="no"?>
<svg
   xmlns:dc="http://purl.org/dc/elements/1.1/"
   xmlns:cc="http://creativecommons.org/ns#"
   xmlns:rdf="http://www.w3.org/1999/02/22-rdf-syntax-ns#"
   xmlns:svg="http://www.w3.org/2000/svg"
   xmlns="http://www.w3.org/2000/svg"
   xmlns:sodipodi="http://sodipodi.sourceforge.net/DTD/sodipodi-0.dtd"
   xmlns:inkscape="http://www.inkscape.org/namespaces/inkscape"
   sodipodi:docname="phantom-wraith 3.svg"
   id="svg8"
   version="1.1"
   viewBox="0 0 118.98376 118.9808"
   height="118.9808mm"
   width="118.98376mm"
   inkscape:version="1.0.1 (3bc2e813f5, 2020-09-07)"
   inkscape:export-filename="C:\GitHub\Supernova-Shipyard-Source\Vectors - Outlines Ships\phantom-wraith 4.png"
   inkscape:export-xdpi="96"
   inkscape:export-ydpi="96">
  <defs
     id="defs2" />
  <sodipodi:namedview
     id="base"
     pagecolor="#ffffff"
     bordercolor="#666666"
     borderopacity="1.0"
     inkscape:pageopacity="0.0"
     inkscape:pageshadow="2"
     inkscape:zoom="0.24748739"
     inkscape:cx="-398.15341"
     inkscape:cy="1021.1428"
     inkscape:document-units="mm"
     inkscape:current-layer="layer1"
     showgrid="false"
     inkscape:window-width="1855"
     inkscape:window-height="1057"
     inkscape:window-x="1977"
     inkscape:window-y="-8"
     inkscape:window-maximized="1"
     inkscape:document-rotation="0" />
  <metadata
     id="metadata5">
    <rdf:RDF>
      <cc:Work
         rdf:about="">
        <dc:format>image/svg+xml</dc:format>
        <dc:type
           rdf:resource="http://purl.org/dc/dcmitype/StillImage" />
        <dc:title />
      </cc:Work>
    </rdf:RDF>
  </metadata>
  <g
     inkscape:label="Layer 1"
     inkscape:groupmode="layer"
     id="layer1"
     transform="translate(-147.38309,499.73229)">
    <path
       style="fill:#000000;stroke-width:0.148727"
       d="m 147.38309,-492.81635 v -6.91594 h 59.49187 59.49189 l -0.0386,6.87858 -0.0386,6.87858 -59.45321,0.0372 -59.45322,0.0374 z"
       id="path30" />
    <path
       style="fill:#000000;stroke-width:0.148727"
       d="m 205.75804,-399.92225 c -1.08315,-0.50255 -1.8839,-1.60887 -2.7558,-3.80741 -0.25952,-0.65439 -1.2616,-3.53224 -2.22687,-6.3952 -2.88457,-8.55577 -3.84009,-10.52058 -6.88014,-14.14754 -0.69418,-0.82822 -1.48807,-1.93252 -1.76416,-2.45399 -0.91908,-1.73593 -2.95894,-3.41476 -5.3097,-4.36997 -0.51483,-0.20918 -2.14875,-0.71504 -3.63096,-1.12417 -3.80749,-1.05093 -4.64029,-1.35459 -7.32631,-2.67153 -3.48644,-1.70944 -5.60445,-3.18227 -9.92159,-6.89933 -2.70788,-2.33148 -2.79447,-2.43752 -2.79447,-3.42157 0,-0.7691 -0.24978,-1.37054 -1.48718,-3.58067 -1.06868,-1.90883 -2.27791,-5.33178 -2.8109,-7.95684 -0.68647,-3.38109 -0.77738,-7.80318 -0.2339,-11.37754 0.28251,-1.85797 0.33982,-1.99925 1.11014,-2.73653 0.51191,-0.48996 0.59418,-0.68708 0.96834,-2.32016 0.64166,-2.80067 1.04925,-3.97135 1.54957,-4.45069 0.43493,-0.41667 0.45902,-0.42124 1.6765,-0.31756 0.67938,0.0578 1.38347,0.20068 1.56463,0.31737 0.64832,0.41763 0.70703,0.72863 0.78545,4.16259 l 0.075,3.28114 0.42591,0.50571 0.42593,0.50572 -0.10808,1.49292 c -0.31954,4.41353 0.20317,7.32505 1.94478,10.83246 0.75903,1.5286 2.005,3.38098 2.62521,3.90284 0.31405,0.26427 0.6122,0.36605 1.07218,0.36605 0.62024,0 0.65356,0.0255 1.25603,0.95694 1.339,2.07051 3.80206,3.57203 7.25591,4.42337 1.00329,0.2473 1.78892,0.32629 3.32845,0.33467 l 2.01518,0.0115 2.14915,-1.06904 c 1.77644,-0.88364 2.45866,-1.13772 3.93386,-1.46524 3.27507,-0.72711 3.29907,-0.73651 3.41224,-1.33978 0.15669,-0.83523 1.06412,-2.45228 3.03337,-5.40547 2.97475,-4.46112 3.49419,-5.04777 4.81725,-5.44068 1.06238,-0.31549 4.82441,-0.31377 5.89011,0.002 1.33228,0.39565 1.75423,0.87188 4.7406,5.3506 2.16989,3.25424 2.67899,4.14165 3.00389,5.23607 0.28504,0.9603 -0.10194,0.78443 3.50921,1.59435 1.46869,0.32939 2.16425,0.58939 3.92809,1.46836 l 2.14339,1.06809 2.0953,-0.0182 c 2.46879,-0.0216 4.27441,-0.41897 6.29023,-1.38484 2.27205,-1.08864 3.41727,-2.02936 4.38481,-3.60184 0.42604,-0.69236 0.4708,-0.7211 1.12323,-0.7211 0.60469,0 0.74499,-0.0688 1.27345,-0.62434 1.23791,-1.3013 2.7846,-4.10198 3.5372,-6.405 0.82035,-2.51033 1.05768,-4.94654 0.79606,-8.17096 -0.10335,-1.27472 -0.0989,-1.29982 0.36117,-1.99438 l 0.46593,-0.70343 0.008,-2.91184 c 0.0121,-4.13592 0.14246,-4.38686 2.37123,-4.55904 1.23919,-0.0958 1.27225,-0.0897 1.67308,0.31159 0.46392,0.46435 0.90355,1.75057 1.52407,4.45886 0.37416,1.63308 0.45644,1.8302 0.96835,2.32016 0.77229,0.73919 0.82692,0.87483 1.13249,2.81178 0.41902,2.6562 0.38227,7.77139 -0.0743,10.33556 -0.63143,3.54669 -1.75318,6.70938 -3.48151,9.8159 -0.80045,1.43879 -0.9175,1.75254 -0.97087,2.60272 -0.0381,0.6069 -0.15141,1.07227 -0.30446,1.25028 -0.33148,0.38552 -5.08409,4.46195 -6.19285,5.31176 -1.6043,1.2296 -3.65949,2.53518 -5.49016,3.48761 -2.74189,1.42654 -4.67724,2.14218 -8.56445,3.16697 -4.76901,1.25724 -7.24437,2.89995 -8.67247,5.7553 -0.20714,0.41412 -0.48526,0.84316 -0.61807,0.95337 -0.40428,0.33549 -2.35594,2.83901 -3.08145,3.9527 -1.6271,2.49772 -2.36364,4.26966 -4.88072,11.74188 -1.85875,5.51794 -2.55099,7.28386 -3.25251,8.29726 -1.10736,1.59973 -2.42301,2.10341 -3.81148,1.4592 z"
       id="path28" />
    <path
       style="fill:#000000;stroke-width:0.148727"
       d="m 147.38309,-387.66724 v -6.91577 h 59.4904 59.4904 v 6.91577 6.91575 h -59.4904 -59.4904 z"
       id="path24" />
  </g>
</svg>
