<?xml version="1.0" encoding="UTF-8" standalone="no"?>
<!-- Created with Inkscape (http://www.inkscape.org/) -->

<svg
   xmlns:dc="http://purl.org/dc/elements/1.1/"
   xmlns:cc="http://creativecommons.org/ns#"
   xmlns:rdf="http://www.w3.org/1999/02/22-rdf-syntax-ns#"
   xmlns:svg="http://www.w3.org/2000/svg"
   xmlns="http://www.w3.org/2000/svg"
   xmlns:sodipodi="http://sodipodi.sourceforge.net/DTD/sodipodi-0.dtd"
   xmlns:inkscape="http://www.inkscape.org/namespaces/inkscape"
   sodipodi:docname="cargo drone-civilian 3.svg"
   id="svg8"
   version="1.1"
   viewBox="0 0 60.304325 60.304345"
   height="60.304344mm"
   width="60.304329mm"
   inkscape:version="0.92.4 (5da689c313, 2019-01-14)"
   inkscape:export-filename="D:\GitHub\Novalike-Art-Pack-Source\Outlines Ships\cargo drone-civilian 4.png"
   inkscape:export-xdpi="96"
   inkscape:export-ydpi="96">
  <defs
     id="defs2" />
  <sodipodi:namedview
     id="base"
     pagecolor="#ffffff"
     bordercolor="#666666"
     borderopacity="1.0"
     inkscape:pageopacity="0.0"
     inkscape:pageshadow="2"
     inkscape:zoom="0.24748737"
     inkscape:cx="295.06053"
     inkscape:cy="725.08331"
     inkscape:document-units="mm"
     inkscape:current-layer="layer1"
     showgrid="false"
     inkscape:window-width="1920"
     inkscape:window-height="1017"
     inkscape:window-x="1912"
     inkscape:window-y="-8"
     inkscape:window-maximized="1" />
  <metadata
     id="metadata5">
    <rdf:RDF>
      <cc:Work
         rdf:about="">
        <dc:format>image/svg+xml</dc:format>
        <dc:type
           rdf:resource="http://purl.org/dc/dcmitype/StillImage" />
        <dc:title />
      </cc:Work>
    </rdf:RDF>
  </metadata>
  <g
     inkscape:label="Layer 1"
     inkscape:groupmode="layer"
     id="layer1"
     transform="translate(533.34021,135.98947)">
    <path
       style="fill:#000000;stroke-width:0.07538044"
       d="m -533.34021,-105.8373 v -30.15217 h 3.16598 3.16597 v 30.15217 30.152175 h -3.16597 -3.16598 z"
       id="path832"
       inkscape:connector-curvature="0" />
    <path
       style="fill:#000000;stroke-width:0.07538044"
       d="m -479.36782,-105.8373 v -30.15217 h 3.16598 3.16596 v 30.15217 30.152175 h -3.16596 -3.16598 z"
       id="path830"
       inkscape:connector-curvature="0" />
    <path
       style="fill:#000000;stroke-width:0.07538044"
       d="m -488.97883,-80.79131 c -0.5749,-0.02517 -0.61596,-0.03911 -0.88,-0.296589 -0.15229,-0.148583 -0.29862,-0.359074 -0.32512,-0.467752 -0.0265,-0.108719 -0.128,-0.316337 -0.22567,-0.461432 -0.4,-0.594601 -0.64015,-1.528913 -0.87186,-3.39212 -0.54102,-4.350577 -0.82758,-7.029272 -0.82664,-7.727356 v -0.754671 l -0.5842,-0.16543 c -1.44323,-0.408701 -2.69072,-0.578768 -5.13003,-0.699398 -2.18606,-0.108167 -3.99017,-0.101195 -3.87417,0.01477 0.0679,0.06797 0.0904,1.039009 0.0904,3.906642 v 3.816192 l -0.17938,0.168533 c -0.15965,0.149972 -0.17603,0.219922 -0.14889,0.635023 0.0168,0.256576 -0.0466,1.280597 -0.14098,2.275626 l -0.17148,1.809122 h -0.94224 -0.94227 l -0.17066,-1.809122 c -0.0939,-0.995029 -0.1573,-2.01905 -0.14095,-2.275626 0.0265,-0.414568 0.009,-0.485255 -0.14973,-0.635023 l -0.17939,-0.168533 v -3.816192 c 0,-2.867633 0.0225,-3.838661 0.0905,-3.906642 0.17081,-0.170833 -3.94626,-0.07714 -6.12092,0.139337 -0.90369,0.08999 -2.43086,0.387422 -3.0264,0.589503 l -0.40342,0.13689 -0.0455,1.086051 c -0.0251,0.597324 -0.16908,2.120646 -0.32029,3.38516 -0.15117,1.264502 -0.36392,3.045367 -0.47271,3.957467 -0.21038,1.763623 -0.49158,2.843797 -0.89266,3.42873 -0.0997,0.145696 -0.2033,0.353835 -0.22983,0.462512 -0.0265,0.108729 -0.17952,0.325857 -0.3401,0.482616 l -0.29187,0.285034 -1.15344,-0.04595 c -0.63438,-0.0253 -1.47039,-0.09888 -1.85776,-0.163719 -0.6368,-0.106524 -0.7398,-0.147706 -1.07415,-0.429678 -0.33452,-0.282054 -0.36988,-0.342076 -0.36988,-0.627956 0,-0.307108 -0.0137,-0.323915 -0.46355,-0.591242 -0.25498,-0.151329 -0.48778,-0.275146 -0.51734,-0.275146 -0.1028,0 -0.22642,-1.082891 -0.15716,-1.375695 0.0419,-0.177369 0.0399,-0.282681 -0.005,-0.282681 -0.0822,0 -0.0651,-2.451064 0.0198,-2.845596 0.0308,-0.143469 0.0225,-0.244993 -0.0198,-0.244993 -0.0822,0 -0.0651,-2.451068 0.0198,-2.845615 0.0308,-0.143467 0.0225,-0.244979 -0.0198,-0.244979 -0.0822,0 -0.0651,-2.451069 0.0198,-2.845614 0.0292,-0.134704 0.0256,-0.24498 -0.008,-0.24498 -0.0333,0 -0.06,-2.654337 -0.0591,-5.898514 0.002,-5.921794 0.0397,-6.916154 0.26409,-6.916154 0.0538,0 0.0978,-0.0266 0.0978,-0.0592 0,-0.0325 0.18643,-0.15976 0.41432,-0.28267 0.31869,-0.17192 0.41439,-0.26389 0.41459,-0.39845 1.4e-4,-0.0962 0.10907,-0.37134 0.24206,-0.6114 l 0.24177,-0.43645 0.78757,-0.0481 c 1.16988,-0.0717 3.2111,-0.0583 3.29316,0.0214 0.0394,0.0383 0.16824,0.0807 0.28634,0.0943 0.24056,0.0278 0.29835,0.14403 0.91025,1.83378 0.35067,0.96838 0.37451,1.11293 0.83867,5.08819 0.10897,0.93284 0.20691,1.705101 0.21777,1.716169 0.0114,0.0114 0.37248,-0.06374 0.80365,-0.166146 1.16724,-0.277343 2.22677,-0.416173 3.57302,-0.468213 l 1.20608,-0.0467 1.15778,1.366915 c 0.74727,0.882289 1.20828,1.366925 1.3003,1.366925 0.13661,0 0.14256,-0.09219 0.14256,-2.186041 v -2.186029 h 0.53896 0.53898 l -0.30505,-0.22101 c -0.5553,-0.40225 -0.82942,-0.90404 -1.03959,-1.90326 -0.0607,-0.28816 -0.11029,-0.65221 -0.11029,-0.80903 0,-0.26494 -0.016,-0.28558 -0.22548,-0.29154 -0.12405,-0.004 -0.39373,-0.0979 -0.59938,-0.20989 -0.62514,-0.34026 -0.63537,-0.39621 -0.68139,-3.72643 l -0.0392,-2.82674 -0.82915,-0.0378 -0.82921,-0.0378 v -3.65598 -3.65593 l 0.82921,-0.0378 0.82915,-0.0378 0.0392,-2.75139 c 0.047,-3.30397 0.0487,-3.31252 0.74836,-3.68541 0.24185,-0.12897 0.51129,-0.23437 0.59876,-0.23437 0.1573,0 0.15907,-0.0194 0.15907,-1.77146 v -1.7714 h 1.16238 1.16242 l 0.0477,-0.21644 c 0.0417,-0.19013 0.0896,-0.22219 0.39341,-0.26384 0.44061,-0.0604 0.96289,-0.0604 1.4035,0 0.30379,0.0415 0.35164,0.0737 0.3934,0.26384 l 0.0477,0.21644 h 1.16238 1.16241 v 1.7714 c 0,1.75198 0.002,1.77146 0.15908,1.77146 0.0876,0 0.35691,0.10554 0.59876,0.23437 0.69961,0.37289 0.70135,0.38144 0.74833,3.68541 l 0.0392,2.75139 0.8008,0.0214 0.80081,0.0213 0.0328,0.31792 c 0.0179,0.17486 0.0307,1.82741 0.0284,3.67233 l -0.004,3.35444 -0.82917,0.0378 -0.82918,0.0378 -0.0392,2.82678 c -0.0458,3.31311 -0.0594,3.38965 -0.66191,3.71327 -0.1949,0.10455 -0.46459,0.21361 -0.59934,0.2421 -0.2388,0.0504 -0.24501,0.0618 -0.24501,0.44829 0,0.43804 0.22688,1.41453 0.41171,1.77193 0.16033,0.31002 0.58534,0.72497 0.92778,0.90575 l 0.28118,0.14851 -0.99879,0.002 -0.99878,0.002 v 2.148358 c 0,2.056854 0.005,2.148346 0.14255,2.148346 0.092,0 0.55304,-0.484625 1.30033,-1.366915 l 1.15776,-1.366929 1.20609,0.0467 c 1.34624,0.0519 2.40577,0.1909 3.57301,0.468236 0.43118,0.102452 0.79698,0.17322 0.81291,0.157292 0.016,-0.01599 0.11162,-0.737338 0.21261,-1.603118 0.52863,-4.53113 0.47955,-4.28497 1.24472,-6.24205 l 0.30516,-0.78051 0.33245,-0.0838 c 0.35931,-0.0905 2.63523,-0.11253 3.6289,-0.0351 l 0.61177,0.0477 0.27392,0.47624 c 0.15066,0.26196 0.27392,0.54049 0.27392,0.61904 0,0.14408 0.81503,0.69308 1.02893,0.69308 0.0796,0 0.10387,0.20913 0.11136,0.9611 0.0325,3.2735 0.0364,19.925755 0.005,21.219592 -0.035,1.437233 -0.049,1.56414 -0.17264,1.56414 -0.0742,0 -0.15602,0.0346 -0.1821,0.07685 -0.0261,0.04227 -0.21471,0.161547 -0.41907,0.265096 -0.35571,0.180255 -0.37171,0.201904 -0.37495,0.507397 -0.002,0.286169 -0.0415,0.352453 -0.37328,0.642396 -0.31417,0.274615 -0.45269,0.338793 -0.92002,0.426192 -0.30259,0.05662 -0.80455,0.124855 -1.1155,0.151783 -0.3109,0.02695 -0.65014,0.05744 -0.7538,0.06797 -0.10366,0.01093 -0.45979,0.0067 -0.79145,-0.0067 z"
       id="path826"
       inkscape:connector-curvature="0" />
  </g>
</svg>
