<?xml version="1.0" encoding="UTF-8" standalone="no"?>
<svg
   xmlns:dc="http://purl.org/dc/elements/1.1/"
   xmlns:cc="http://creativecommons.org/ns#"
   xmlns:rdf="http://www.w3.org/1999/02/22-rdf-syntax-ns#"
   xmlns:svg="http://www.w3.org/2000/svg"
   xmlns="http://www.w3.org/2000/svg"
   xmlns:sodipodi="http://sodipodi.sourceforge.net/DTD/sodipodi-0.dtd"
   xmlns:inkscape="http://www.inkscape.org/namespaces/inkscape"
   inkscape:export-ydpi="96"
   inkscape:export-xdpi="96"
   inkscape:export-filename="C:\GitHub\Supernova-Shipyard-Source\Vectors - Outlines Ships\raven-polaris 4.png"
   inkscape:version="1.0.1 (3bc2e813f5, 2020-09-07)"
   width="337.02011mm"
   height="337.02011mm"
   viewBox="0 0 337.0201 337.0201"
   version="1.1"
   id="svg8"
   sodipodi:docname="raven-polaris 3.svg">
  <defs
     id="defs2" />
  <sodipodi:namedview
     id="base"
     pagecolor="#ffffff"
     bordercolor="#666666"
     borderopacity="1.0"
     inkscape:pageopacity="0.0"
     inkscape:pageshadow="2"
     inkscape:zoom="0.0875"
     inkscape:cx="3307.9938"
     inkscape:cy="596.39772"
     inkscape:document-units="mm"
     inkscape:current-layer="layer1"
     showgrid="false"
     inkscape:window-width="1854"
     inkscape:window-height="1057"
     inkscape:window-x="58"
     inkscape:window-y="-8"
     inkscape:window-maximized="1"
     inkscape:document-rotation="0" />
  <metadata
     id="metadata5">
    <rdf:RDF>
      <cc:Work
         rdf:about="">
        <dc:format>image/svg+xml</dc:format>
        <dc:type
           rdf:resource="http://purl.org/dc/dcmitype/StillImage" />
        <dc:title />
      </cc:Work>
    </rdf:RDF>
  </metadata>
  <g
     inkscape:label="Layer 1"
     inkscape:groupmode="layer"
     id="layer1"
     transform="translate(388.528,163.39635)">
    <path
       style="fill:#000000;stroke-width:0.421274"
       d="m -263.52249,162.35467 c -1.47695,-3.72765 -3.36968,-12.8941 -8.50307,-41.17965 -4.59405,-25.313813 -4.64398,-25.684438 -4.64936,-34.544569 0,-7.174053 0.0693,-7.874368 1.36482,-12.987391 1.86708,-7.368554 2.08179,-9.508407 1.1888,-11.846663 -0.89431,-2.341772 -3.19668,-4.444565 -4.86635,-4.444565 -1.99175,0 -3.24945,1.570053 -5.73677,7.161683 -1.28839,2.89626 -2.81907,5.892446 -3.40158,6.658186 -0.90614,1.191002 -1.28002,1.373676 -2.58706,1.263829 -3.35153,-0.281713 -4.88903,-4.704202 -8.73233,-25.118253 -4.58153,-24.335555 -6.65174,-32.064842 -14.78914,-55.2172442 -6.30198,-17.9303028 -7.69855,-22.7088068 -8.02145,-27.4472288 -0.20753,-3.046257 -0.13481,-3.709772 0.47349,-4.318068 1.76963,-1.769658 4.96008,-0.493788 15.63092,6.250774 6.85665,4.333818 10.43545,6.045489 13.36569,6.392525 l 2.12561,0.251755 -0.2835,-1.417405 c -0.15582,-0.779575 -0.47324,-5.066845 -0.70516,-9.527279 -0.62727,-12.065431 0.32172,-29.524147 2.35492,-43.322159 2.09027,-14.186004 6.01011,-31.256437 7.59741,-33.085597 0.30893,-0.35606 1.32683,-3.19968 2.26186,-6.31912 3.62704,-12.10052 9.10326,-24.65751 12.44022,-28.52591 1.54656,-1.7928 3.18926,-2.35068 3.83674,-1.30301 0.63314,1.02438 0.17636,4.11347 -1.2982,8.78065 -3.80161,12.03271 -8.00448,29.72746 -7.42829,31.27394 0.19548,0.52449 0.20109,3.03892 0.0132,5.58763 -1.22904,16.61069 -1.32277,19.309613 -1.10448,31.803548 0.27418,15.700465 1.50608,27.436548 4.02446,38.338776 l 0.72987,3.159559 1.37507,-0.13937 c 2.83759,-0.287615 4.25446,1.846215 6.94588,10.460618 2.89919,9.279384 5.62523,11.603398 15.34418,13.0813215 6.27129,0.9536488 6.93465,0.2519687 13.36368,-14.1345155 3.12549,-6.994016 3.90684,-8.431814 6.01335,-11.06501 1.65951,-2.074621 3.30771,-3.04771 5.16177,-3.04771 3.90421,0 6.47548,3.465107 12.23447,16.487534 2.13696,4.832095 4.41626,9.214898 5.36025,10.3071545 1.31812,1.5249852 3.48589,1.9784337 6.94408,1.452547 6.88424,-1.0468413 10.36726,-2.7850695 12.58938,-6.2828415 0.68268,-1.074605 1.91853,-4.133925 2.74645,-6.79848 2.68341,-8.636949 4.08954,-10.750371 6.95984,-10.460618 1.3561,0.136898 1.39014,0.09816 1.91471,-2.177646 1.03821,-4.504949 2.63364,-14.328016 3.36337,-20.709517 1.011,-8.839403 1.03082,-36.28378 0.0346,-47.28341 -0.40758,-4.49794 -0.53799,-7.92162 -0.32352,-8.48593 0.5547,-1.45892 -3.16679,-17.7261 -6.55858,-28.66868 -2.45259,-7.91226 -2.80391,-9.57461 -2.30248,-10.89356 0.63852,-1.67934 2.17888,-1.41317 3.97669,0.6872 3.28396,3.83655 8.81498,16.40084 12.21393,27.74501 1.06234,3.54568 2.19702,6.74606 2.52148,7.11197 0.78971,0.89059 1.95151,4.79063 3.77478,12.67161 4.67956,20.227382 7.11256,45.258492 6.16965,63.475944 -0.2257,4.361605 -0.53297,8.641113 -0.68271,9.509986 -0.26619,1.545061 -0.24336,1.579788 1.03713,1.579788 1.49939,0 6.20906,-1.68442 8.44896,-3.021825 0.83365,-0.497742 4.22555,-2.593311 7.53757,-4.656805 9.23938,-5.756546 12.08353,-6.804604 13.80218,-5.086045 0.59851,0.598576 0.6784,1.272851 0.48626,4.107429 -0.32684,4.820162 -1.70778,9.623456 -7.45148,25.9186956 -9.10395,25.8286844 -10.82452,32.3696444 -16.40269,62.3603414 -2.78682,14.982932 -4.70228,19.799142 -7.87434,19.799142 -1.87233,0 -2.95592,-1.488632 -5.86371,-8.055632 -2.41318,-5.450319 -3.7135,-7.110277 -5.5696,-7.110277 -1.41603,0 -3.59695,1.489952 -4.59669,3.140305 -1.2029,1.985875 -0.96357,6.517998 0.67948,12.868158 2.31083,8.930721 2.25387,16.425008 -0.2386,31.385005 -4.49328,26.96891 -10.22851,55.4509 -11.74306,58.3182 l -0.57129,1.08158 -0.45498,-1.18592 c -0.2989,-0.77886 -0.4557,-7.06896 -0.457,-18.32547 0,-17.8099 -0.40351,-27.48945 -1.49701,-36.09692 -1.63959,-12.904411 -4.78513,-22.90407 -7.9461,-25.26004 -1.14784,-0.855478 -1.15513,-0.855592 -1.76437,-0.02376 -1.57726,2.153209 -2.24922,6.688323 -3.74599,25.28383 -1.53833,19.11107 -3.51467,30.12119 -5.40695,30.12119 -1.58871,0 -3.07366,-6.02165 -6.38867,-25.90844 -1.27465,-7.64613 -2.52111,-14.632054 -2.76998,-15.524254 l -0.45258,-1.622176 -3.28827,3.199991 c -6.65878,6.479959 -10.23065,6.479329 -16.89182,-0.0029 l -3.29137,-3.20296 -0.47481,1.835776 c -0.26115,1.009674 -0.5505,2.120153 -0.64303,2.467707 -0.092,0.347546 -0.9391,5.466046 -1.88118,11.374436 -3.06292,19.209 -5.02636,27.38288 -6.57757,27.38288 -2.06521,0 -3.9219,-10.67848 -5.64018,-32.43821 -1.33245,-16.871975 -1.9391,-20.797531 -3.54942,-22.9668 -0.49318,-0.664346 -0.77598,-0.74187 -1.3819,-0.378895 -2.35227,1.40884 -5.1453,8.128372 -6.83551,16.445401 -2.23084,10.976734 -2.97922,22.291564 -2.98185,45.078364 0,19.76255 -0.2209,21.94292 -1.8003,17.95687 z"
       id="path46" />
    <path
       style="fill:#000000;stroke-width:0.421274"
       d="M -101.63958,5.1137174 V -163.39635 h 25.065899 25.065778 V 5.1137174 173.62377 h -25.065778 -25.065899 z"
       id="path44" />
    <path
       style="fill:#000000;stroke-width:0.421274"
       d="M -388.528,5.1137174 V -163.39635 h 25.06589 25.06592 V 5.1137174 173.62377 h -25.06592 -25.06589 z"
       id="path40" />
  </g>
</svg>
