<?xml version="1.0" encoding="UTF-8" standalone="no"?>
<!-- Created with Inkscape (http://www.inkscape.org/) -->

<svg
   xmlns:dc="http://purl.org/dc/elements/1.1/"
   xmlns:cc="http://creativecommons.org/ns#"
   xmlns:rdf="http://www.w3.org/1999/02/22-rdf-syntax-ns#"
   xmlns:svg="http://www.w3.org/2000/svg"
   xmlns="http://www.w3.org/2000/svg"
   xmlns:sodipodi="http://sodipodi.sourceforge.net/DTD/sodipodi-0.dtd"
   xmlns:inkscape="http://www.inkscape.org/namespaces/inkscape"
   sodipodi:docname="reaver-pirate 3.svg"
   id="svg8"
   version="1.1"
   viewBox="0 0 213.61222 213.61224"
   height="213.61224mm"
   width="213.61223mm"
   inkscape:version="0.92.4 (5da689c313, 2019-01-14)"
   inkscape:export-filename="D:\GitHub\Novalike-Art-Pack-Source\Outlines Ships\reaver-pirate 4.png"
   inkscape:export-xdpi="96"
   inkscape:export-ydpi="96">
  <defs
     id="defs2" />
  <sodipodi:namedview
     id="base"
     pagecolor="#ffffff"
     bordercolor="#666666"
     borderopacity="1.0"
     inkscape:pageopacity="0.0"
     inkscape:pageshadow="2"
     inkscape:zoom="0.35"
     inkscape:cx="-608.67025"
     inkscape:cy="735.62382"
     inkscape:document-units="mm"
     inkscape:current-layer="layer1"
     showgrid="false"
     inkscape:window-width="1920"
     inkscape:window-height="1017"
     inkscape:window-x="-8"
     inkscape:window-y="-8"
     inkscape:window-maximized="1" />
  <metadata
     id="metadata5">
    <rdf:RDF>
      <cc:Work
         rdf:about="">
        <dc:format>image/svg+xml</dc:format>
        <dc:type
           rdf:resource="http://purl.org/dc/dcmitype/StillImage" />
        <dc:title />
      </cc:Work>
    </rdf:RDF>
  </metadata>
  <g
     inkscape:label="Layer 1"
     inkscape:groupmode="layer"
     id="layer1"
     transform="translate(-526.64642,-128.43715)">
    <path
       style="fill:#000000;stroke-width:0.26701528"
       d="M 526.64642,235.24328 V 128.43715 h 4.53926 4.53925 v 106.80613 106.80611 h -4.53925 -4.53926 z"
       id="path832"
       inkscape:connector-curvature="0" />
    <path
       style="fill:#000000;stroke-width:0.26701528"
       d="M 731.18014,235.24328 V 128.43715 h 4.53926 4.53925 v 106.80613 106.80611 h -4.53925 -4.53926 z"
       id="path830"
       inkscape:connector-curvature="0" />
    <path
       style="fill:#000000;stroke-width:0.26701528"
       d="m 550.87511,294.01519 c -0.55234,-0.11685 -1.08239,-0.29059 -1.17788,-0.38608 -0.0955,-0.0955 -0.51754,-2.12683 -0.93787,-4.51407 -4.24706,-24.12026 -5.91332,-41.86175 -6.26332,-66.6885 l -0.15622,-11.08113 3.63405,-4.99006 3.63408,-4.99002 1.22435,-0.18361 c 1.42594,-0.21384 11.45538,0.0186 12.3015,0.28508 0.31559,0.0994 1.13602,0.99613 1.82318,1.99274 l 1.24935,1.81202 2.86485,0.18567 c 1.57566,0.10213 2.98593,0.26718 3.13392,0.36677 0.148,0.0996 1.14132,1.4176 2.20738,2.92889 l 1.9383,2.7478 0.471,-0.61168 c 0.25904,-0.33642 1.46739,-2.02767 2.6852,-3.75834 1.21781,-1.73065 2.43094,-3.26265 2.69586,-3.40444 0.51662,-0.27649 10.17732,-0.35538 11.73142,-0.0958 0.85867,0.14342 1.19989,0.53892 4.20167,4.8701 l 3.26711,4.714 0.004,4.47251 0.004,4.47249 h 3.82446 3.82445 l 0.58658,-8.21071 c 0.80729,-11.30058 0.72138,-10.74738 1.66914,-10.74738 0.7053,0 0.77598,-0.0831 0.77598,-0.91271 0,-0.50199 -0.0729,-1.10278 -0.16207,-1.33507 -0.19225,-0.50101 -1.19691,-0.55866 -1.66029,-0.0952 -0.2581,0.2581 -0.43755,0.2581 -0.85083,0 -0.63158,-0.39443 -1.59905,-0.43078 -1.59905,-0.06 0,0.14685 -0.24031,0.26701 -0.53403,0.26701 -0.29371,0 -0.53403,-0.12016 -0.53403,-0.26701 0,-0.14687 -0.2933,-0.26702 -0.65177,-0.26702 -0.3585,0 -0.72605,0.12015 -0.81681,0.26702 -0.21464,0.34728 -1.20157,0.34728 -1.20157,0 0,-0.37071 -0.96746,-0.33437 -1.59905,0.06 -0.41329,0.2581 -0.59273,0.2581 -0.85083,0 -0.39252,-0.39253 -1.55534,-0.43744 -1.55534,-0.06 0,0.36827 -0.69993,0.33469 -1.3387,-0.0642 -0.42218,-0.26366 -0.63865,-0.26366 -1.06082,0 -0.6388,0.39892 -1.33871,0.4325 -1.33871,0.0642 0,-0.37738 -1.16282,-0.33247 -1.55535,0.06 -0.2581,0.2581 -0.43754,0.2581 -0.85083,0 -0.63158,-0.39443 -1.59904,-0.43078 -1.59904,-0.06 0,0.36827 -0.69991,0.33469 -1.33871,-0.0642 -0.42217,-0.26366 -0.63864,-0.26366 -1.06081,0 -0.6388,0.39892 -1.3387,0.4325 -1.3387,0.0642 0,-0.14687 -0.30039,-0.26702 -0.66755,-0.26702 -0.36714,0 -0.66753,0.12015 -0.66753,0.26702 0,0.14685 -0.23322,0.26701 -0.51827,0.26701 -0.28504,0 -0.59253,-0.12016 -0.68329,-0.26701 -0.21486,-0.34766 -1.46858,-0.34766 -1.46858,0 0,0.34269 -0.88084,0.34742 -1.22169,0.006 -0.16924,-0.16922 -0.60772,-0.15383 -1.25216,0.044 -0.85138,0.26128 -1.06648,0.23671 -1.52005,-0.17376 -0.29057,-0.26298 -1.28315,-0.85473 -2.2057,-1.31505 l -1.67735,-0.83689 0.0984,-9.34276 c 0.0665,-6.31108 0.21799,-10.03592 0.46691,-11.47888 0.20267,-1.17488 0.36866,-3.91347 0.36886,-6.08577 2.7e-4,-3.58084 -0.0495,-4.00316 -0.53367,-4.52285 -0.4945,-0.5308 -0.53403,-0.94231 -0.53403,-5.56068 v -4.98746 l 1.06234,-0.70302 c 1.20156,-0.79515 1.40816,-0.83223 2.12899,-0.38207 0.40629,0.25373 0.65719,0.24429 1.19795,-0.0452 0.5731,-0.30672 0.79226,-0.30813 1.35155,-0.008 0.55744,0.29834 0.77765,0.29834 1.33508,0 0.55744,-0.29833 0.77765,-0.29833 1.33508,0 0.5593,0.29933 0.77844,0.2979 1.35155,-0.008 0.54075,-0.2894 0.79167,-0.29884 1.19795,-0.0452 0.62344,0.38932 1.58923,0.4221 1.58923,0.054 0,-0.34729 0.98694,-0.34729 1.20157,0 0.21487,0.34765 1.46859,0.34765 1.46859,0 0,-0.14686 0.30039,-0.26702 0.66753,-0.26702 0.36714,0 0.66754,0.12016 0.66754,0.26702 0,0.14686 0.30039,0.267 0.66754,0.267 0.36714,0 0.66754,-0.12014 0.66754,-0.267 0,-0.14686 0.30039,-0.26702 0.66754,-0.26702 0.36714,0 0.66753,0.12016 0.66753,0.26702 0,0.34765 1.25372,0.34765 1.46859,0 0.21464,-0.34729 1.20156,-0.34729 1.20156,0 0,0.34765 1.25372,0.34765 1.46859,0 0.21463,-0.34729 1.20157,-0.34729 1.20157,0 0,0.14686 0.2933,0.267 0.65178,0.267 0.35848,0 0.72604,-0.12014 0.8168,-0.267 0.0907,-0.14686 0.39825,-0.26702 0.68331,-0.26702 0.28503,0 0.51826,0.12016 0.51826,0.26702 0,0.36818 0.96579,0.33541 1.58923,-0.0541 0.4063,-0.25373 0.65721,-0.24428 1.19795,0.0452 0.57941,0.31009 0.78863,0.31009 1.36804,0 0.54075,-0.2894 0.79166,-0.29885 1.19795,-0.0452 0.62344,0.38935 1.58923,0.42213 1.58923,0.0541 0,-0.34729 0.98693,-0.34729 1.20157,0 0.22531,0.36457 1.46858,0.33942 1.46858,-0.0297 0,-0.19138 0.31438,-0.23775 0.88532,-0.13066 0.73386,0.13768 0.99654,0.0455 1.53534,-0.53871 1.13427,-1.22989 2.20372,-1.50228 6.45761,-1.64473 l 3.93846,-0.13189 v -2.23335 -2.23335 h 0.89746 c 1.43329,0 1.8756,-1.26112 2.57531,-7.34292 0.69689,-6.05703 0.75492,-6.34909 1.22589,-6.16836 0.19828,0.0761 0.4802,-0.0669 0.62647,-0.31785 0.22424,-0.38464 0.26724,-0.34349 0.27408,0.26234 0.004,0.3952 0.12828,0.7928 0.27515,0.88356 0.14684,0.0907 0.26699,0.0307 0.26699,-0.13351 0,-0.16418 0.0933,-0.24082 0.20752,-0.17028 0.11413,0.0705 0.24451,1.48946 0.28975,3.15319 0.0453,1.66372 0.1321,3.07501 0.19302,3.1362 0.0609,0.0612 0.11076,-1.59098 0.11076,-3.67146 0,-2.34381 0.10161,-3.78272 0.26703,-3.78272 0.16544,0 0.267,1.43891 0.267,3.78272 0,2.08048 0.0485,3.73264 0.10763,3.67146 0.0593,-0.0611 0.14127,-1.43299 0.18239,-3.04844 0.079,-3.10185 0.17058,-3.61975 0.53642,-3.03242 0.15973,0.25645 0.27848,0.10002 0.40652,-0.53549 0.14072,-0.69848 0.23296,-0.80468 0.41557,-0.47837 0.12909,0.23067 0.39694,0.35715 0.59522,0.28107 0.47478,-0.18219 0.54003,0.14518 1.22957,6.16836 0.69627,6.0821 1.13784,7.34292 2.57164,7.34292 h 0.89745 v 2.26962 2.26964 l 2.87041,0.002 c 4.36328,0.003 6.13957,0.36482 7.29119,1.4849 0.8112,0.78899 1.07384,0.89871 1.80234,0.75301 0.55475,-0.11096 0.85279,-0.0655 0.85279,0.12984 0,0.37178 1.242,0.4 1.46859,0.0334 0.0907,-0.14686 0.39824,-0.267 0.68329,-0.267 0.28505,0 0.51828,0.12014 0.51828,0.267 0,0.36819 0.96579,0.33541 1.58923,-0.054 0.40629,-0.25374 0.6572,-0.24429 1.19794,0.0452 0.5731,0.30671 0.79227,0.30813 1.35156,0.008 0.55743,-0.29833 0.77765,-0.29833 1.33508,0 0.5593,0.29934 0.77844,0.2979 1.35155,-0.008 0.54076,-0.28942 0.79166,-0.29887 1.19795,-0.0452 0.62345,0.38933 1.58923,0.42211 1.58923,0.054 0,-0.14686 0.23322,-0.26701 0.51828,-0.26701 0.28505,0 0.59253,0.12015 0.68329,0.26701 0.0907,0.14685 0.45832,0.26701 0.81681,0.26701 0.35847,0 0.65178,-0.12016 0.65178,-0.26701 0,-0.14686 0.23322,-0.26701 0.51827,-0.26701 0.28505,0 0.59253,0.12015 0.6833,0.26701 0.0907,0.14685 0.45832,0.26701 0.8168,0.26701 0.35848,0 0.65178,-0.12016 0.65178,-0.26701 0,-0.14686 0.3004,-0.26701 0.66755,-0.26701 0.36713,0 0.66753,0.12015 0.66753,0.26701 0,0.14685 0.3004,0.26701 0.66754,0.26701 0.36714,0 0.66753,-0.12016 0.66753,-0.26701 0,-0.14686 0.30041,-0.26701 0.66754,-0.26701 0.36715,0 0.66754,0.12015 0.66754,0.26701 0,0.34766 1.25372,0.34766 1.46859,0 0.21462,-0.34729 1.20157,-0.34729 1.20157,0 0,0.36819 0.96578,0.3354 1.58923,-0.054 0.40629,-0.25373 0.6572,-0.24429 1.19794,0.0452 0.57311,0.30672 0.79225,0.30813 1.35156,0.008 0.55744,-0.29833 0.77763,-0.29833 1.33508,0 0.55743,0.29833 0.77763,0.29833 1.33508,0 0.55929,-0.29933 0.77845,-0.2979 1.35155,0.008 0.54075,0.2894 0.79166,0.29884 1.19794,0.0452 0.70772,-0.44197 1.13334,-0.40287 1.73915,0.15981 0.2847,0.26443 0.7279,0.56105 0.9849,0.65916 0.42218,0.16119 0.46729,0.66396 0.46729,5.20973 0,4.66223 -0.0392,5.07337 -0.53403,5.60453 -0.48418,0.51969 -0.534,0.94201 -0.53367,4.52286 2e-4,2.1723 0.16619,4.91089 0.36886,6.08576 0.24893,1.44297 0.40043,5.1678 0.46691,11.47888 l 0.0984,9.34276 -1.67736,0.8369 c -0.92255,0.4603 -1.91513,1.05206 -2.2057,1.31504 -0.45357,0.41048 -0.66868,0.43505 -1.52006,0.17376 -0.64442,-0.19778 -1.08292,-0.21317 -1.25215,-0.0439 -0.34086,0.34087 -1.22169,0.33613 -1.22169,-0.006 0,-0.14686 -0.2933,-0.26701 -0.65177,-0.26701 -0.35848,0 -0.72605,0.12015 -0.81682,0.26701 -0.21463,0.34729 -1.20155,0.34729 -1.20155,0 0,-0.14686 -0.3004,-0.26701 -0.66754,-0.26701 -0.36716,0 -0.66754,0.12015 -0.66754,0.26701 0,0.36827 -0.69992,0.3347 -1.3387,-0.0642 -0.42217,-0.26365 -0.63864,-0.26365 -1.06082,0 -0.63878,0.39892 -1.3387,0.43251 -1.3387,0.0642 0,-0.37737 -1.16283,-0.33246 -1.55536,0.0601 -0.2581,0.25809 -0.43754,0.25809 -0.85082,0 -0.63159,-0.39443 -1.59905,-0.43078 -1.59905,-0.0601 0,0.36827 -0.6999,0.3347 -1.33871,-0.0642 -0.42216,-0.26365 -0.63864,-0.26365 -1.06081,0 -0.63879,0.39892 -1.33869,0.43251 -1.33869,0.0642 0,-0.37737 -1.16282,-0.33246 -1.55536,0.0601 -0.2581,0.25809 -0.43754,0.25809 -0.85081,0 -0.6316,-0.39443 -1.59906,-0.43078 -1.59906,-0.0601 0,0.14686 -0.24032,0.26702 -0.53403,0.26702 -0.29372,0 -0.53404,-0.12016 -0.53404,-0.26702 0,-0.14686 -0.36047,-0.26701 -0.80104,-0.26701 -0.44058,0 -0.80105,0.12015 -0.80105,0.26701 0,0.14686 -0.24031,0.26702 -0.53403,0.26702 -0.29372,0 -0.53402,-0.12016 -0.53402,-0.26702 0,-0.37737 -1.16283,-0.33246 -1.55536,0.0601 -0.2581,0.25809 -0.43755,0.25809 -0.85083,0 -1.238,-0.77316 -1.86606,-0.29175 -1.86606,1.43035 0,0.82702 0.072,0.91272 0.76665,0.91272 0.93713,0 0.85438,-0.53223 1.67078,10.74738 l 0.59426,8.2107 h 3.82447 3.82445 v -4.43669 -4.43669 l 3.26762,-4.75069 c 3.01454,-4.38276 3.34025,-4.76271 4.2055,-4.9059 1.52011,-0.25157 11.21198,-0.18308 11.70868,0.0828 0.25059,0.13412 1.65376,1.92548 3.11816,3.98081 1.4644,2.05532 2.73908,3.68965 2.83263,3.63183 0.0936,-0.0579 0.90767,-1.18203 1.80916,-2.49823 0.90149,-1.31621 1.81537,-2.5694 2.03083,-2.78487 0.26886,-0.26885 1.31272,-0.45144 3.32744,-0.58202 l 2.93567,-0.19028 1.23822,-1.81217 c 0.68101,-0.99669 1.49439,-1.89297 1.80751,-1.99172 0.84216,-0.26561 10.8745,-0.49722 12.29699,-0.28391 l 1.22436,0.18361 3.60381,4.97156 3.60381,4.97157 -10e-4,6.69385 c -0.004,18.40214 -1.3014,37.29519 -3.76767,54.89012 -0.78637,5.61022 -3.04905,19.43215 -3.33284,20.3593 -0.22351,0.73022 -1.23524,0.86917 -6.2486,0.85817 -4.32737,-0.01 -7.53583,-0.37236 -7.85472,-0.88834 -0.0662,-0.10732 -0.31056,-1.33084 -0.54274,-2.71894 -0.68518,-4.09642 -0.45049,-3.72462 -2.35499,-3.73068 -2.27462,-0.007 -5.33554,-0.47513 -5.69579,-0.87068 -0.48822,-0.53608 -3.06985,-16.91197 -4.11201,-26.08349 -0.30816,-2.71188 -0.59163,-4.96205 -0.62994,-5.00035 -0.0383,-0.0383 -0.28003,2.00026 -0.53714,4.53017 -0.80179,7.88959 -4.099,29.84763 -4.54957,30.2982 -0.84277,0.84277 -11.90575,0.70999 -12.76899,-0.15326 -0.52169,-0.5217 -3.76638,-22.14988 -4.5934,-30.6184 -0.22947,-2.34974 -0.48533,-4.78586 -0.56857,-5.41359 l -0.15135,-1.14134 -4.32167,0.0732 -4.32172,0.0732 -0.1802,6.54187 c -0.19299,7.00587 -1.45728,30.16361 -1.65771,30.36405 -0.30323,0.30322 -2.28237,0.37137 -2.79636,0.0963 -0.48248,-0.25821 -0.57277,-0.54639 -0.57413,-1.83234 -7.6e-4,-0.83927 -0.0787,-2.51724 -0.17308,-3.72882 l -0.17147,-2.20288 h -1.13123 -1.13124 l -0.15675,-1.40183 c -0.0861,-0.77101 -0.23638,-3.17414 -0.3337,-5.3403 l -0.17693,-3.93849 H 633.4521 617.23598 l -0.17693,3.93849 c -0.0973,2.16616 -0.24747,4.56929 -0.3337,5.3403 l -0.15676,1.40183 h -1.13122 -1.13122 l -0.17148,2.20288 c -0.0943,1.21158 -0.17221,2.88955 -0.17309,3.72882 -10e-4,1.23438 -0.10033,1.57876 -0.51808,1.80236 -0.61464,0.32893 -2.14636,0.35756 -2.63244,0.0491 -0.39977,-0.25359 -1.5665,-19.14257 -1.87441,-30.34603 l -0.18346,-6.67538 -4.32167,-0.0732 -4.32165,-0.0732 -0.15135,1.14134 c -0.0833,0.62773 -0.33861,3.06385 -0.56748,5.41359 -0.8163,8.381 -4.0697,30.09359 -4.58666,30.61056 -0.86936,0.86936 -11.92859,1.00935 -12.77621,0.16172 -0.43617,-0.43617 -3.79608,-22.79286 -4.5535,-30.29883 -0.25528,-2.52991 -0.49551,-4.56849 -0.53384,-4.53017 -0.0383,0.0383 -0.32177,2.28848 -0.62994,5.00035 -1.04572,9.20292 -3.62137,25.555 -4.10845,26.0835 -0.36477,0.39576 -3.42621,0.86345 -5.69933,0.87068 -1.90451,0.006 -1.66981,-0.36574 -2.355,3.73068 -0.23218,1.3881 -0.4754,2.60998 -0.54048,2.71529 -0.42698,0.69086 -10.31071,1.30974 -12.73296,0.79728 z"
       id="path826"
       inkscape:connector-curvature="0" />
  </g>
</svg>
