<?xml version="1.0" encoding="UTF-8" standalone="no"?>
<svg
   xmlns:dc="http://purl.org/dc/elements/1.1/"
   xmlns:cc="http://creativecommons.org/ns#"
   xmlns:rdf="http://www.w3.org/1999/02/22-rdf-syntax-ns#"
   xmlns:svg="http://www.w3.org/2000/svg"
   xmlns="http://www.w3.org/2000/svg"
   xmlns:sodipodi="http://sodipodi.sourceforge.net/DTD/sodipodi-0.dtd"
   xmlns:inkscape="http://www.inkscape.org/namespaces/inkscape"
   sodipodi:docname="revenant-wraith 3.svg"
   id="svg8"
   version="1.1"
   viewBox="0 0 197.91129 197.91131"
   height="197.9113mm"
   width="197.91129mm"
   inkscape:version="1.0.1 (3bc2e813f5, 2020-09-07)"
   inkscape:export-filename="C:\GitHub\Supernova-Shipyard-Source\Vectors - Outlines Ships\revenant-wraith 4.png"
   inkscape:export-xdpi="96"
   inkscape:export-ydpi="96">
  <defs
     id="defs2" />
  <sodipodi:namedview
     id="base"
     pagecolor="#ffffff"
     bordercolor="#666666"
     borderopacity="1.0"
     inkscape:pageopacity="0.0"
     inkscape:pageshadow="2"
     inkscape:zoom="0.24748739"
     inkscape:cx="1159.3749"
     inkscape:cy="549.07045"
     inkscape:document-units="mm"
     inkscape:current-layer="layer1"
     showgrid="false"
     inkscape:window-width="1856"
     inkscape:window-height="1057"
     inkscape:window-x="56"
     inkscape:window-y="-8"
     inkscape:window-maximized="1"
     inkscape:document-rotation="0" />
  <metadata
     id="metadata5">
    <rdf:RDF>
      <cc:Work
         rdf:about="">
        <dc:format>image/svg+xml</dc:format>
        <dc:type
           rdf:resource="http://purl.org/dc/dcmitype/StillImage" />
        <dc:title />
      </cc:Work>
    </rdf:RDF>
  </metadata>
  <g
     inkscape:label="Layer 1"
     inkscape:groupmode="layer"
     id="layer1"
     transform="translate(-205.86587,130.38712)">
    <path
       style="fill:#000000;stroke-width:0.24739"
       d="m 205.86587,-122.96544 v -7.42168 h 98.95564 98.95565 v 7.42168 7.42168 h -98.95565 -98.95564 z"
       id="path30" />
    <path
       style="fill:#000000;stroke-width:0.24739"
       d="m 303.90001,32.131937 c -1.85902,-0.388603 -3.00562,-1.602077 -4.54348,-4.808494 -1.12867,-2.353262 -2.10211,-5.183988 -6.16777,-17.9357083 -2.9967,-9.39897338 -5.56613,-15.196062 -8.61451,-19.4359607 -0.7889,-1.097268 -1.68785,-2.518646 -1.99764,-3.158623 -0.88244,-1.822837 -3.13736,-3.895237 -5.63735,-5.181046 -2.8101,-1.445298 -4.70489,-2.011952 -9.7129,-2.904746 -8.89837,-1.586329 -14.09957,-3.560966 -20.54128,-7.798487 -2.69888,-1.775387 -6.92498,-5.259524 -7.97954,-6.578595 -0.43256,-0.541064 -0.77524,-1.322753 -0.86137,-1.964938 -0.0987,-0.735827 -0.56637,-1.684372 -1.50856,-3.059719 -3.31158,-4.834042 -4.06336,-6.036198 -5.35995,-8.571003 -3.23282,-6.320103 -4.80782,-12.281937 -5.22122,-19.763728 -0.1756,-3.178358 0.0608,-4.515388 0.99474,-5.625294 0.63163,-0.750643 0.82658,-1.360543 1.64363,-5.141634 1.55714,-7.206272 5.12281,-14.511466 9.79776,-20.073228 3.66729,-4.362953 5.10272,-5.779303 6.13351,-6.052033 0.7669,-0.2029 1.63543,-0.88333 3.72165,-2.91558 4.85787,-4.73226 5.53645,-5.07101 7.23612,-3.6124 1.77523,1.52347 1.49034,2.43917 -2.32587,7.47543 -1.64136,2.16611 -2.45255,3.4679 -2.66045,4.26938 -0.22054,0.850137 -0.83928,1.791833 -2.35528,3.584638 -2.48101,2.933979 -4.18653,5.49829 -5.4739,8.230267 -1.80259,3.825349 -3.20295,9.404703 -3.20295,12.761384 0,1.275605 0.0955,1.599997 0.6383,2.166474 0.71122,0.742356 1.07866,2.000801 1.08752,3.724668 0.0277,5.405421 3.94599,14.751631 7.80003,18.605674 0.93289,0.932881 1.26252,1.102458 2.34535,1.206505 0.94548,0.09084 1.48899,0.315609 2.17787,0.900622 1.48271,1.259154 4.26714,3.122965 5.86575,3.926357 3.85473,1.937203 8.60667,3.281288 11.60076,3.281288 2.02534,0 2.46918,-0.175756 4.93697,-1.954989 2.61414,-1.884734 3.29871,-2.21021 7.53527,-3.582548 3.6924,-1.19607 4.83326,-1.693852 6.15995,-2.687715 0.43652,-0.326997 2.35848,-2.95868 4.27105,-5.848182 3.98153,-6.015285 5.24024,-7.432961 7.0582,-7.949665 1.592,-0.452466 6.52767,-0.464661 8.0908,-0.01999 0.64061,0.182237 1.61537,0.717066 2.16616,1.188503 0.5666,0.484999 2.62405,3.28934 4.73866,6.458917 2.05549,3.080968 4.08649,5.863471 4.51336,6.183351 1.31353,0.984331 2.44754,1.475016 6.38324,2.76202 3.79097,1.239659 4.84007,1.765878 8.15267,4.089204 1.69977,1.192148 1.8327,1.23966 3.70653,1.324757 2.3216,0.105424 4.80343,-0.390897 8.13843,-1.62754 3.86738,-1.434051 6.47653,-2.927546 9.85296,-5.639909 0.831,-0.667559 1.30167,-0.861815 2.10281,-0.86788 1.17611,-0.0089 1.71103,-0.398498 3.40518,-2.480106 3.48084,-4.276869 6.12048,-11.076555 6.65305,-17.138035 0.24372,-2.77422 0.38058,-3.221415 1.21766,-3.978966 0.6544,-0.592214 0.69317,-2.493541 0.11933,-5.852634 -1.08616,-6.358182 -3.68241,-11.74664 -8.27846,-17.181836 -1.53081,-1.810299 -2.13386,-2.730992 -2.36014,-3.603354 -0.21436,-0.82635 -0.9989,-2.08544 -2.6614,-4.27119 -3.79899,-4.99469 -4.09418,-5.934 -2.3374,-7.43774 0.56876,-0.48684 1.2149,-0.88514 1.43592,-0.88514 0.78813,0 2.77187,1.5181 5.81223,4.44788 2.32546,2.24091 3.24396,2.97379 3.72697,2.97379 0.47804,0 1.10354,0.48736 2.46065,1.91726 7.47375,7.874661 11.46353,15.094679 13.58464,24.583154 0.35347,1.581119 0.64266,3.040869 0.64266,3.243891 0,0.203015 0.32784,0.781675 0.72854,1.285894 1.17059,1.472991 1.33959,2.329966 1.15373,5.850434 -0.52331,9.912794 -3.0318,17.076764 -9.1775,26.210087 -1.7681,2.627629 -2.84774,4.469595 -2.84774,4.858542 0,1.637471 -1.86757,3.693273 -6.51718,7.173979 -6.97168,5.219025 -12.92597,7.679215 -22.94112,9.478762 -4.76056,0.85539 -6.84544,1.449582 -9.28414,2.646009 -2.77982,1.363778 -5.32647,3.703876 -6.14499,5.646592 -0.172,0.408191 -0.99477,1.688433 -1.82843,2.844972 -1.97563,2.7408692 -4.62346,7.9333106 -6.18152,12.1220724 -0.68325,1.8368607 -2.36985,6.9021569 -3.74804,11.2562056 -4.47646,14.142389 -5.61047,16.733167 -8.01338,18.307623 -0.85134,0.557818 -2.27562,0.817263 -3.30515,0.602046 z"
       id="path28" />
    <path
       style="fill:#000000;stroke-width:0.24739"
       d="m 205.86587,60.102504 v -7.421678 h 98.95564 98.95565 v 7.421678 7.42167 h -98.95565 -98.95564 z"
       id="path24" />
  </g>
</svg>
