<?xml version="1.0" encoding="UTF-8" standalone="no"?>
<svg
   xmlns:dc="http://purl.org/dc/elements/1.1/"
   xmlns:cc="http://creativecommons.org/ns#"
   xmlns:rdf="http://www.w3.org/1999/02/22-rdf-syntax-ns#"
   xmlns:svg="http://www.w3.org/2000/svg"
   xmlns="http://www.w3.org/2000/svg"
   xmlns:sodipodi="http://sodipodi.sourceforge.net/DTD/sodipodi-0.dtd"
   xmlns:inkscape="http://www.inkscape.org/namespaces/inkscape"
   width="74.019272mm"
   height="74.019272mm"
   viewBox="0 0 74.019272 74.019272"
   version="1.1"
   id="svg8"
   sodipodi:docname="salamander-federation 3.svg"
   inkscape:export-filename="C:\GitHub\SN-Shipyard-Source\Vectors - Outlines Ships\salamander-federation 4.png"
   inkscape:export-xdpi="96"
   inkscape:export-ydpi="96"
   inkscape:version="1.0.1 (3bc2e813f5, 2020-09-07)">
  <defs
     id="defs2" />
  <sodipodi:namedview
     id="base"
     pagecolor="#ffffff"
     bordercolor="#666666"
     borderopacity="1.0"
     inkscape:pageopacity="0.0"
     inkscape:pageshadow="2"
     inkscape:zoom="0.7"
     inkscape:cx="27.180242"
     inkscape:cy="63.121372"
     inkscape:document-units="mm"
     inkscape:current-layer="layer1"
     inkscape:document-rotation="0"
     showgrid="false"
     inkscape:window-width="1858"
     inkscape:window-height="1057"
     inkscape:window-x="1974"
     inkscape:window-y="-8"
     inkscape:window-maximized="1" />
  <metadata
     id="metadata5">
    <rdf:RDF>
      <cc:Work
         rdf:about="">
        <dc:format>image/svg+xml</dc:format>
        <dc:type
           rdf:resource="http://purl.org/dc/dcmitype/StillImage" />
      </cc:Work>
    </rdf:RDF>
  </metadata>
  <g
     inkscape:label="Layer 1"
     inkscape:groupmode="layer"
     id="layer1"
     transform="translate(-238.37698,-21.418648)">
    <path
       style="fill:#000000;stroke-width:0.0925242"
       d="m 268.23074,92.530565 c -0.23117,-0.249425 -0.52286,-1.080368 -0.52504,-1.495672 -0.002,-0.330428 -0.0608,-0.415273 -0.41495,-0.596562 -0.37013,-0.189447 -0.51281,-0.64073 -0.57674,-1.824063 l -0.0512,-0.948372 h -0.40308 -0.40307 v -0.416359 -0.416358 h -0.41635 -0.41636 v -0.832717 -0.832716 h -0.31394 c -0.20092,0 -0.33415,-0.05269 -0.3701,-0.146354 -0.0309,-0.08049 -0.0562,-1.154853 -0.0562,-2.38746 v -2.241108 l 0.24626,-0.494162 c 0.13543,-0.27179 0.5751,-0.843283 0.97703,-1.269988 0.83154,-0.882803 1.18008,-1.525437 1.18144,-2.178327 7.9e-4,-0.419618 -0.0182,-0.450915 -0.49326,-0.809586 -0.27178,-0.205201 -0.5216,-0.373094 -0.55514,-0.373094 -0.0335,0 -0.061,0.530208 -0.061,1.178237 v 1.178236 l -1.09249,-1.08964 c -0.83009,-0.827925 -1.13156,-1.074645 -1.25517,-1.027211 -0.11244,0.04315 -0.25874,-0.03067 -0.47371,-0.239022 -0.27298,-0.264584 -0.29973,-0.33113 -0.21877,-0.544085 0.0507,-0.133447 0.15451,-0.311436 0.23062,-0.395532 0.0924,-0.102063 0.10561,-0.173152 0.0398,-0.21381 -0.0595,-0.03679 -0.0985,-0.443338 -0.0985,-1.026951 0,-0.904358 0.0118,-0.96604 0.18504,-0.96604 0.15763,0 0.18505,-0.06168 0.18505,-0.416359 0,-0.349531 0.0287,-0.416358 0.17843,-0.416358 0.108,0 0.57271,-0.420059 1.17712,-1.064028 0.54928,-0.585215 1.02982,-1.064026 1.06788,-1.064026 0.038,0 0.0808,0.520536 0.0951,1.156748 l 0.0258,1.156744 0.54411,-0.386182 0.5441,-0.386184 -0.0527,-0.628839 c -0.0638,-0.761273 -0.3071,-1.339692 -0.85926,-2.04298 -0.51948,-0.661699 -0.77758,-1.237441 -0.84425,-1.883286 l -0.0518,-0.501938 h -2.12395 c -1.99897,0 -2.13978,-0.01126 -2.39269,-0.191346 -0.23277,-0.165754 -0.26872,-0.250814 -0.26872,-0.635886 0,-0.408317 -0.0339,-0.475806 -0.41636,-0.828322 -0.40425,-0.372626 -0.41636,-0.399873 -0.41636,-0.937025 v -0.553238 h -0.84614 c -0.76375,0 -0.88537,0.02478 -1.24891,0.254442 l -0.40277,0.254441 -1.8e-4,1.858907 c -10e-5,1.381738 0.0352,1.975495 0.13761,2.313101 0.0933,0.307505 0.13811,0.868504 0.1388,1.73701 9.7e-4,1.214734 -0.0121,1.306807 -0.24502,1.734828 l -0.24599,0.452009 -0.56358,-1.83e-4 -0.56356,-1.86e-4 -0.25445,-0.486999 c -0.23976,-0.458912 -0.25444,-0.556761 -0.25444,-1.69677 0,-0.806432 0.0459,-1.361202 0.13779,-1.663967 0.1027,-0.33855 0.13804,-0.939567 0.13878,-2.360494 l 9.7e-4,-1.90637 -0.64767,-0.430669 -0.64767,-0.430672 9.8e-4,-1.225206 9.7e-4,-1.225207 0.65096,-0.416358 c 0.48268,-0.308724 0.66481,-0.482136 0.70451,-0.6708 0.0529,-0.251278 0.0625,-0.254441 0.77603,-0.254441 0.71939,0 0.72261,0.0011 0.75176,0.254441 l 0.0293,0.254442 1.22594,0.02581 1.22595,0.02581 v -0.569294 c 0,-0.558745 0.008,-0.576091 0.41635,-0.935791 0.38278,-0.336929 0.41636,-0.401684 0.41636,-0.802747 0,-0.239937 0.0499,-0.486214 0.11103,-0.547279 0.0863,-0.08636 -0.0627,-0.111159 -0.6708,-0.111613 -0.77589,-5.24e-4 -0.78306,-0.0027 -0.94374,-0.285072 -0.21372,-0.375489 -0.20468,-0.892161 0.0221,-1.264122 0.1829,-0.299973 0.18519,-0.300704 0.94341,-0.300704 0.59115,0 0.73538,-0.02468 0.64902,-0.111028 -0.0611,-0.06107 -0.11102,-0.305866 -0.11102,-0.543999 0,-0.400923 -0.0308,-0.458225 -0.41637,-0.774146 -0.38222,-0.313204 -0.41635,-0.375611 -0.41635,-0.761237 0,-0.297789 -0.0337,-0.407281 -0.11566,-0.376147 -0.0636,0.02416 -0.50718,0.184743 -0.98572,0.356865 -0.57579,0.207106 -0.88454,0.367709 -0.91289,0.474867 -0.0389,0.147082 -0.20527,0.161916 -1.81569,0.161916 -1.45481,0 -1.80973,-0.02584 -1.97847,-0.144032 l -0.20565,-0.144033 v -3.146951 -3.146947 l 0.57829,0.01366 c 0.31805,0.0075 0.63512,0.01039 0.70459,0.0063 0.0981,-0.0057 0.11265,-0.116622 0.0651,-0.497375 -0.0793,-0.634357 -0.01,-0.805248 0.32738,-0.805248 h 0.26767 l -9.7e-4,-0.717063 c -5.3e-4,-0.394385 -0.063,-0.921449 -0.13879,-1.171256 -0.0926,-0.305015 -0.13708,-0.852022 -0.13562,-1.665435 0.002,-1.141966 0.0166,-1.237697 0.25443,-1.673859 l 0.25229,-0.462621 0.52903,-0.02766 0.52901,-0.02766 0.27881,0.444018 c 0.27556,0.438864 0.27882,0.459149 0.28056,1.747781 9.7e-4,0.894214 -0.0416,1.446439 -0.13603,1.75796 -0.094,0.310072 -0.1381,0.872558 -0.13879,1.772661 l -9.7e-4,1.318467 h 0.46261 0.46263 v 0.357447 0.357447 l 0.76332,0.273461 0.76332,0.273462 0.0279,-0.392209 c 0.0234,-0.328709 0.0945,-0.453632 0.43949,-0.771599 0.3787,-0.349072 0.41159,-0.415357 0.41159,-0.829465 0,-0.724361 0.056,-0.740931 2.60383,-0.77034 l 2.15298,-0.02486 0.0721,-0.34734 c 0.13371,-0.643963 0.55762,-1.309378 1.37019,-2.15081 0.4446,-0.460385 0.92807,-1.065081 1.07439,-1.343772 0.2592,-0.493719 0.26682,-0.548594 0.29712,-2.140452 l 0.0311,-1.633742 -0.50153,-0.378657 c -0.27584,-0.20826 -0.52897,-0.378657 -0.56252,-0.378657 -0.0336,0 -0.061,0.530206 -0.061,1.178236 v 1.178236 l -1.08854,-1.085712 c -0.5987,-0.597141 -1.16078,-1.085712 -1.24907,-1.085712 -0.12795,0 -0.16053,-0.08233 -0.16053,-0.405567 0,-0.327753 -0.0355,-0.414851 -0.18505,-0.453959 -0.16954,-0.04434 -0.18505,-0.126203 -0.18505,-0.976832 0,-0.530163 0.0404,-0.953418 0.0942,-0.986662 0.0587,-0.03631 0.0297,-0.151497 -0.0774,-0.306163 -0.29546,-0.426755 -0.30174,-0.548748 -0.0439,-0.85512 0.1923,-0.228532 0.29806,-0.280213 0.50986,-0.249129 0.23965,0.03517 0.36816,-0.06901 1.24531,-1.009492 0.53795,-0.576792 1.01334,-1.048713 1.05642,-1.048713 0.0431,0 0.09,0.521739 0.10423,1.159422 l 0.0258,1.159422 0.53202,-0.390749 0.53201,-0.390751 v -2.754684 c 0,-3.139089 -0.0541,-2.946245 0.82664,-2.946245 h 0.4687 V 25.08762 c 0,-1.00113 -0.0313,-0.985843 2.01968,-0.985843 h 1.68128 v 0.832717 0.832717 h 0.51496 c 0.82925,0 0.8729,0.05106 0.8729,1.02102 v 0.829462 h 1.29534 1.29534 v -0.829462 c 0,-0.969962 0.0437,-1.02102 0.87289,-1.02102 h 0.51497 v -0.832683 -0.832717 h 1.70644 c 2.02265,0 1.99452,-0.01465 1.99452,1.038352 v 0.627082 h 0.41033 c 0.22569,0 0.51714,0.0406 0.64767,0.09023 l 0.23733,0.09023 v 2.772921 2.77292 l 0.53201,0.381161 0.53203,0.381161 0.0258,-1.162523 c 0.0142,-0.639388 0.0502,-1.162524 0.0801,-1.162524 0.0298,0 0.50612,0.473276 1.05851,1.051723 0.86995,0.91099 1.03629,1.045616 1.24313,1.006077 0.16608,-0.03175 0.30779,0.01917 0.46538,0.167216 0.27364,0.257067 0.28569,0.498895 0.0446,0.894314 -0.10547,0.172964 -0.14402,0.320386 -0.0922,0.352425 0.0491,0.03029 0.0892,0.472881 0.0892,0.983524 0,0.85063 -0.0155,0.932498 -0.18504,0.976834 -0.14955,0.03911 -0.18505,0.126204 -0.18505,0.453958 0,0.323235 -0.0326,0.405567 -0.16053,0.405567 -0.0883,0 -0.65038,0.488571 -1.24908,1.085712 l -1.08854,1.085712 v -1.178228 c 0,-0.648028 -0.0274,-1.178235 -0.061,-1.178235 -0.0335,0 -0.28336,0.167892 -0.55514,0.373093 l -0.49416,0.373095 7e-5,1.54678 c 8e-5,1.532883 0.003,1.552153 0.28289,2.144611 0.1996,0.421927 0.524,0.847141 1.10252,1.44515 0.82405,0.851812 1.23892,1.499653 1.37257,2.14336 l 0.0721,0.347341 2.15297,0.02486 c 2.55602,0.02951 2.60384,0.04389 2.60384,0.783715 0,0.432467 0.0275,0.487649 0.41143,0.825601 0.3514,0.309325 0.41552,0.420646 0.43949,0.763067 l 0.0281,0.400911 0.76332,-0.277694 0.76333,-0.277693 v -0.358054 -0.358055 h 0.46262 0.46262 l -9.8e-4,-1.272205 c -7.9e-4,-0.826977 -0.0489,-1.450295 -0.13769,-1.781087 -0.0894,-0.333352 -0.13697,-0.957422 -0.13769,-1.809238 -9.8e-4,-1.284598 0.002,-1.305617 0.27444,-1.734827 0.27371,-0.43158 0.27892,-0.434472 0.78458,-0.434472 h 0.50906 l 0.27857,0.485751 c 0.27065,0.471945 0.2786,0.520179 0.27944,1.69699 5.3e-4,0.810022 -0.0448,1.361689 -0.13691,1.665435 -0.0758,0.249807 -0.13823,0.776872 -0.13879,1.171257 l -9.7e-4,0.717062 h 0.28069 0.2807 l -0.0166,0.603354 c -0.009,0.331843 0.01,0.629623 0.0417,0.661733 0.0321,0.03211 0.35043,0.04985 0.7074,0.03942 l 0.64902,-0.01896 v 3.145458 3.145461 l -0.20563,0.144032 c -0.16875,0.118194 -0.52366,0.144033 -1.97848,0.144033 -1.61042,0 -1.77676,-0.01485 -1.81568,-0.161917 -0.0284,-0.107157 -0.33711,-0.26776 -0.9129,-0.474866 -0.47854,-0.172122 -0.92211,-0.33271 -0.98572,-0.356864 -0.082,-0.03114 -0.11566,0.07867 -0.11566,0.377735 0,0.386493 -0.0347,0.450674 -0.41635,0.769685 -0.39555,0.330643 -0.41636,0.372095 -0.41636,0.829612 0,0.298691 -0.0439,0.499302 -0.11565,0.528246 -0.0636,0.02568 0.22845,0.04996 0.64903,0.05398 0.76041,0.0072 0.76571,0.009 0.94802,0.308009 0.2268,0.37196 0.23583,0.888633 0.0221,1.264121 -0.16069,0.282326 -0.16786,0.28449 -0.94375,0.285073 -0.60809,5.25e-4 -0.75715,0.02525 -0.67079,0.111613 0.0611,0.06107 0.11102,0.305576 0.11102,0.543361 0,0.393853 0.0371,0.466489 0.41636,0.816117 0.40469,0.373021 0.41636,0.399376 0.41636,0.939709 v 0.555924 l 1.22595,-0.02581 1.22594,-0.02581 0.0293,-0.25444 c 0.0292,-0.253734 0.0313,-0.254442 0.76332,-0.254442 0.71133,0 0.73404,0.0068 0.73404,0.220097 0,0.172048 0.15123,0.318483 0.69274,0.670797 l 0.69274,0.450706 9.7e-4,1.225205 9.8e-4,1.225206 -0.64767,0.430673 -0.64767,0.430668 v 1.914727 c 0,1.43078 0.0348,2.029524 0.13778,2.36892 0.0946,0.31178 0.13582,0.845852 0.13152,1.703269 -0.006,1.191987 -0.0179,1.268106 -0.2591,1.665434 -0.25014,0.411939 -0.25872,0.416647 -0.80857,0.443467 l -0.55575,0.02711 -0.24818,-0.455988 c -0.23558,-0.432847 -0.24818,-0.521514 -0.24818,-1.747228 0,-0.878585 0.044,-1.436395 0.13779,-1.745437 0.10214,-0.336722 0.138,-0.9328 0.13861,-2.304677 l 7.9e-4,-1.850481 -0.40276,-0.254441 c -0.36354,-0.229665 -0.48516,-0.254441 -1.24891,-0.254441 h -0.84614 v 0.566612 c 0,0.555559 -0.008,0.573756 -0.41636,0.933104 -0.38579,0.33958 -0.41636,0.399423 -0.41636,0.814948 0,0.389399 -0.0354,0.473657 -0.26872,0.639807 -0.25292,0.180095 -0.39371,0.191346 -2.39386,0.191346 h -2.12513 l -0.0462,0.439491 c -0.0687,0.653487 -0.38783,1.39892 -0.82196,1.919875 -0.54261,0.651145 -0.8389,1.341332 -0.89152,2.076762 l -0.0439,0.613795 0.51595,0.389546 c 0.28378,0.214253 0.53856,0.389549 0.56618,0.389549 0.0276,0 0.0502,-0.520447 0.0502,-1.156551 0,-0.636104 0.0177,-1.15655 0.0393,-1.15655 0.0215,0 0.50713,0.47881 1.07898,1.064026 0.58054,0.594111 1.11485,1.064028 1.20982,1.064028 0.1399,0 0.17009,0.07388 0.17009,0.416358 0,0.354674 0.0274,0.416358 0.18505,0.416358 0.17323,0 0.18504,0.06168 0.18504,0.966041 0,0.555678 -0.04,0.990773 -0.0942,1.024263 -0.0581,0.03593 -0.0227,0.158589 0.0926,0.320447 0.1027,0.144224 0.18673,0.367277 0.18673,0.49567 0,0.29318 -0.42435,0.648741 -0.69047,0.578543 -0.1474,-0.03888 -0.42564,0.186612 -1.27568,1.033802 l -1.08715,1.083525 V 76.44592 c 0,-0.648029 -0.0274,-1.178237 -0.061,-1.178237 -0.0335,0 -0.28336,0.167893 -0.55515,0.373093 -0.48147,0.363516 -0.49415,0.384962 -0.49415,0.835355 0,0.665224 0.40245,1.400224 1.22244,2.232555 0.37167,0.377266 0.7885,0.911619 0.92874,1.190599 l 0.25444,0.506142 v 2.234812 c 0,1.229148 -0.0253,2.300675 -0.0562,2.381169 -0.0359,0.09366 -0.16917,0.146353 -0.3701,0.146353 h -0.31393 v 0.832717 0.832717 h -0.41636 -0.41635 v 0.416359 0.416358 h -0.40308 -0.40307 l -0.0512,0.948371 c -0.0681,1.26039 -0.20015,1.640182 -0.64614,1.858102 -0.28993,0.14167 -0.34697,0.216714 -0.34697,0.456549 0,0.465149 -0.28475,1.343908 -0.51651,1.593983 -0.19849,0.214172 -0.27794,0.23182 -1.04376,0.23182 -0.81028,0 -0.83423,-0.0063 -1.06616,-0.281962 -0.27024,-0.321161 -0.51939,-1.07245 -0.51939,-1.566181 0,-0.297169 -0.0333,-0.343971 -0.3007,-0.422695 -0.18529,-0.05455 -0.34691,-0.185949 -0.42111,-0.342343 -0.16237,-0.342303 -0.29476,-1.192566 -0.29542,-1.897369 l -5.2e-4,-0.578275 h -0.41636 -0.41636 v -0.416358 -0.416359 h -0.36399 -0.36399 l -0.0318,2.798852 c -0.0175,1.539372 -0.0663,2.871718 -0.10854,2.96077 -0.0691,0.145767 -0.25064,0.16192 -1.82041,0.16192 h -1.7437 l -0.0964,-0.346967 c -0.0563,-0.20261 -0.0966,-1.43443 -0.0969,-2.96077 l -5.2e-4,-2.613805 h -0.37009 -0.3701 v 0.416359 0.416358 h -0.41637 -0.41635 l -0.002,0.624537 c -0.003,1.324807 -0.34272,2.243709 -0.82851,2.243709 -0.13025,0 -0.17158,0.106213 -0.21114,0.542507 -0.0524,0.577493 -0.30665,1.254805 -0.56996,1.518104 -0.12785,0.127845 -0.32673,0.159968 -0.99049,0.159968 -0.75997,0 -0.84817,-0.01904 -1.03826,-0.224157 z"
       id="path46" />
    <path
       style="fill:#000000;stroke-width:0.0925242"
       d="M 301.20084,58.428285 V 21.418648 h 5.5977 5.59771 v 37.009637 37.009633 h -5.59771 -5.5977 z"
       id="path44" />
    <path
       style="fill:#000000;stroke-width:0.0925242"
       d="M 238.37698,58.428285 V 21.418648 h 5.5977 5.59772 v 37.009637 37.009633 h -5.59772 -5.5977 z"
       id="path40" />
  </g>
</svg>
