<?xml version="1.0" encoding="UTF-8" standalone="no"?>
<!-- Created with Inkscape (http://www.inkscape.org/) -->

<svg
   xmlns:dc="http://purl.org/dc/elements/1.1/"
   xmlns:cc="http://creativecommons.org/ns#"
   xmlns:rdf="http://www.w3.org/1999/02/22-rdf-syntax-ns#"
   xmlns:svg="http://www.w3.org/2000/svg"
   xmlns="http://www.w3.org/2000/svg"
   xmlns:sodipodi="http://sodipodi.sourceforge.net/DTD/sodipodi-0.dtd"
   xmlns:inkscape="http://www.inkscape.org/namespaces/inkscape"
   sodipodi:docname="scarab-polaris 3.svg"
   id="svg8"
   version="1.1"
   viewBox="0 0 238.18705 238.18706"
   height="238.18706mm"
   width="238.18704mm"
   inkscape:version="0.92.4 (5da689c313, 2019-01-14)"
   inkscape:export-filename="D:\GitHub\wills-spaceships\Outlines Ships\scarab-polaris 4.png"
   inkscape:export-xdpi="96"
   inkscape:export-ydpi="96">
  <defs
     id="defs2" />
  <sodipodi:namedview
     id="base"
     pagecolor="#ffffff"
     bordercolor="#666666"
     borderopacity="1.0"
     inkscape:pageopacity="0.0"
     inkscape:pageshadow="2"
     inkscape:zoom="0.175"
     inkscape:cx="-706.94697"
     inkscape:cy="580.54698"
     inkscape:document-units="mm"
     inkscape:current-layer="layer1"
     showgrid="false"
     inkscape:window-width="1920"
     inkscape:window-height="1017"
     inkscape:window-x="-8"
     inkscape:window-y="-8"
     inkscape:window-maximized="1" />
  <metadata
     id="metadata5">
    <rdf:RDF>
      <cc:Work
         rdf:about="">
        <dc:format>image/svg+xml</dc:format>
        <dc:type
           rdf:resource="http://purl.org/dc/dcmitype/StillImage" />
        <dc:title />
      </cc:Work>
    </rdf:RDF>
  </metadata>
  <g
     inkscape:label="Layer 1"
     inkscape:groupmode="layer"
     id="layer1"
     transform="translate(226.95372,267.08676)">
    <path
       style="fill:#000000;stroke-width:0.29773381"
       d="m -226.95372,-147.99323 v -119.09353 h 6.99675 6.99674 v 119.09353 119.093524 h -6.99674 -6.99675 z"
       id="path832"
       inkscape:connector-curvature="0" />
    <path
       style="fill:#000000;stroke-width:0.29773381"
       d="m -2.7601633,-147.99323 v -119.09353 h 6.9967461 6.9967462 v 119.09353 119.093524 H 4.2365828 -2.7601633 Z"
       id="path830"
       inkscape:connector-curvature="0" />
    <path
       style="fill:#000000;stroke-width:0.29773381"
       d="m -121.25822,-36.929474 c -7.78991,-0.651653 -8.66862,-1.891584 -9.81789,-13.853668 -0.80413,-8.369648 -1.12411,-9.36543 -3.20515,-9.974284 -0.61561,-0.180114 -3.93289,-0.446893 -7.37171,-0.592845 -6.83457,-0.290071 -8.42171,-0.50011 -13.56243,-1.794827 -9.20647,-2.318699 -15.01527,-5.066798 -22.41528,-10.604494 -1.61108,-1.205631 -3.18533,-2.192057 -3.49836,-2.192057 -0.64967,0 -1.76008,-0.997827 -1.76008,-1.581639 0,-0.214887 -0.59063,-1.186243 -1.31253,-2.158571 -1.73085,-2.33127 -2.33204,-3.937592 -5.56466,-14.868153 -4.512,-15.256598 -6.08196,-22.472098 -7.25557,-33.346178 -1.17239,-10.86275 -1.59976,-26.43419 -1.20732,-43.99019 0.22325,-9.98856 0.22839,-10.04853 0.86002,-10.05308 0.34949,-0.002 0.80311,-0.11101 1.00804,-0.24114 0.20493,-0.13011 0.69545,-2.03727 1.09002,-4.23816 1.4066,-7.84585 2.33969,-10.80989 3.78606,-12.02692 0.69746,-0.58688 1.02102,-0.68979 1.44881,-0.46085 1.67369,0.89573 2.77153,3.92373 4.14798,11.44057 0.50325,2.74836 0.91501,5.05021 0.91501,5.11518 0,0.0649 0.40617,0.11816 0.90255,0.11816 0.49641,0 0.95551,0.16748 1.02026,0.37217 0.0646,0.2047 0.3339,3.48208 0.59815,7.28305 0.53572,7.70625 1.2113,12.80571 2.39902,18.10814 1.7265,7.70789 4.02006,14.46933 7.01598,20.68312 2.62874,5.45222 4.23192,8.04679 7.54277,12.20708 7.34414,9.22843 14.32722,14.32379 23.90643,17.44389 4.61673,1.50375 5.26431,1.57495 5.85242,0.64345 0.23261,-0.36846 1.16863,-3.29476 2.08002,-6.50288 0.91139,-3.20813 2.7398,-9.23726 4.06315,-13.39803 4.16843,-13.1061 4.87433,-16.57868 4.86654,-23.9404 -0.005,-5.26661 -0.24377,-7.79456 -1.48677,-15.77991 -0.40786,-2.62005 -1.12987,-7.86558 -1.60449,-11.65675 -0.47463,-3.79115 -1.08623,-7.81056 -1.35915,-8.93199 -0.72138,-2.96445 -2.43819,-6.47126 -4.92991,-10.07006 -5.27382,-7.61704 -6.0287,-8.80224 -7.40034,-11.61939 -3.00093,-6.16343 -3.98002,-10.66376 -3.98361,-18.31062 -0.003,-6.18802 0.32383,-8.54444 2.22295,-16.03051 1.97725,-7.79418 2.30452,-8.73567 2.97108,-8.54722 0.31817,0.09 0.83899,0.23721 1.15738,0.32722 0.47175,0.13337 0.97662,-0.43139 2.72822,-3.05178 2.93435,-4.38977 4.52513,-6.4792 6.48888,-8.52279 2.62054,-2.72714 4.12829,-3.26262 4.91312,-1.74491 1.07944,2.08736 0.86015,6.8279 -0.68686,14.84887 l -0.82288,4.2665 0.95441,0.72799 c 0.944,0.72002 0.9513,0.74515 0.66754,2.30497 -0.15777,0.86737 -0.24113,2.65205 -0.18518,3.96596 0.18585,4.36619 2.65606,7.92211 6.90772,9.94388 1.00553,0.47815 3.73747,1.37066 6.07095,1.98336 l 4.24272,1.11401 4.2427,-1.11401 c 7.049062,-1.85086 10.024625,-3.74038 11.896552,-7.55447 0.965186,-1.96659 0.980441,-2.06172 0.980441,-6.11482 0,-4.07328 0.0087,-4.12308 0.761598,-4.67265 l 0.7616,-0.55549 -0.99643,-5.30159 c -1.261227,-6.71048 -1.474724,-12.16209 -0.537003,-13.71255 0.97075,-1.60508 2.262762,-1.18376 4.952073,1.61495 1.962129,2.04191 3.554698,4.13323 6.478944,8.508 1.17668,1.76036 2.1708,3.20064 2.20916,3.20064 0.03839,0 0.497308,-0.12263 1.019895,-0.2725 0.662356,-0.18997 1.037939,-0.16674 1.239969,0.0767 0.366156,0.44118 2.819205,9.5393 3.589006,13.31124 2.20385,10.7987 1.280726,20.42542 -2.782188,29.01388 -1.181482,2.49747 -2.653601,4.80973 -7.731255,12.14341 -2.333313,3.37001 -4.061688,6.93767 -4.768883,9.84376 -0.272907,1.12144 -0.884523,5.14085 -1.359148,8.932 -0.47463,3.79116 -1.196649,9.0367 -1.604487,11.65674 -1.243011,7.98535 -1.481195,10.51331 -1.486772,15.77991 -0.0076,7.36172 0.698111,10.83431 4.866543,23.94041 1.323344,4.16077 3.151763,10.18988 4.063148,13.39803 0.911396,3.20812 1.847399,6.13442 2.080024,6.50287 0.588643,0.93234 1.234836,0.86059 5.882443,-0.65322 9.837803,-3.20433 16.213253,-7.90096 24.244411,-17.86032 7.330029,-9.0899 13.268893,-24.30812 15.54913,-39.84431 0.308108,-2.0993 0.776394,-6.92681 1.040632,-10.72782 0.264238,-3.80099 0.533406,-7.07836 0.598147,-7.28306 0.06473,-0.20469 0.523853,-0.37218 1.020259,-0.37218 0.496397,0 0.90254,-0.0532 0.90254,-0.11814 0,-0.065 0.411765,-2.36682 0.915024,-5.11519 1.376439,-7.51683 2.474292,-10.54484 4.14797,-11.44056 0.427789,-0.22895 0.751359,-0.12603 1.448808,0.46084 1.446388,1.21704 2.379464,4.18108 3.786066,12.02693 0.394572,2.20088 0.88508,4.10805 1.090012,4.23816 0.204932,0.13013 0.658516,0.23865 1.007962,0.24114 0.632031,0.004 0.63654,0.0588 0.860225,10.35082 0.251637,11.57764 0.03257,29.0236 -0.443904,35.35589 -0.747065,9.92798 -2.201732,20.00731 -3.890059,26.95415 -1.170984,4.8181 -6.633924,23.389819 -7.616701,25.8936 -0.417799,1.064398 -1.258165,2.605171 -1.867487,3.423938 -0.609312,0.818769 -1.286412,1.929227 -1.504654,2.467686 -0.398463,0.983109 -1.094451,1.551722 -1.899321,1.551722 -0.237821,0 -1.870903,1.072825 -3.629078,2.384056 -7.226289,5.389292 -13.013348,8.108168 -22.162724,10.412487 -5.140704,1.294716 -6.727848,1.504756 -13.56241,1.794825 -3.438822,0.145954 -6.756095,0.412732 -7.371721,0.592847 -2.018093,0.590434 -2.434516,1.768241 -3.052766,8.634481 -1.093895,12.14865 -1.900738,13.829265 -7.151253,14.895653 -2.115456,0.429657 -25.257138,0.662374 -29.615068,0.297817 z"
       id="path826"
       inkscape:connector-curvature="0" />
  </g>
</svg>
