<?xml version="1.0" encoding="UTF-8" standalone="no"?>
<!-- Created with Inkscape (http://www.inkscape.org/) -->

<svg
   xmlns:dc="http://purl.org/dc/elements/1.1/"
   xmlns:cc="http://creativecommons.org/ns#"
   xmlns:rdf="http://www.w3.org/1999/02/22-rdf-syntax-ns#"
   xmlns:svg="http://www.w3.org/2000/svg"
   xmlns="http://www.w3.org/2000/svg"
   xmlns:sodipodi="http://sodipodi.sourceforge.net/DTD/sodipodi-0.dtd"
   xmlns:inkscape="http://www.inkscape.org/namespaces/inkscape"
   inkscape:export-ydpi="96"
   inkscape:export-xdpi="96"
   inkscape:export-filename="D:\GitHub\wills-spaceships\Outlines Ships\ida frigate-civ 4.png"
   inkscape:version="0.92.4 (5da689c313, 2019-01-14)"
   width="248.20435mm"
   height="248.20438mm"
   viewBox="0 0 248.20435 248.20437"
   version="1.1"
   id="svg8"
   sodipodi:docname="ida frigate-civ 3.svg">
  <defs
     id="defs2" />
  <sodipodi:namedview
     id="base"
     pagecolor="#ffffff"
     bordercolor="#666666"
     borderopacity="1.0"
     inkscape:pageopacity="0.0"
     inkscape:pageshadow="2"
     inkscape:zoom="0.175"
     inkscape:cx="425.97768"
     inkscape:cy="1324.3858"
     inkscape:document-units="mm"
     inkscape:current-layer="layer1"
     showgrid="false"
     inkscape:window-width="1920"
     inkscape:window-height="1017"
     inkscape:window-x="1912"
     inkscape:window-y="-8"
     inkscape:window-maximized="1" />
  <metadata
     id="metadata5">
    <rdf:RDF>
      <cc:Work
         rdf:about="">
        <dc:format>image/svg+xml</dc:format>
        <dc:type
           rdf:resource="http://purl.org/dc/dcmitype/StillImage" />
        <dc:title />
      </cc:Work>
    </rdf:RDF>
  </metadata>
  <g
     inkscape:label="Layer 1"
     inkscape:groupmode="layer"
     id="layer1"
     transform="translate(-456.71717,-472.55173)">
    <path
       style="fill:#000000;stroke-width:0.3102555"
       d="M 456.71717,596.65391 V 472.55173 h 30.24987 30.24997 V 596.65391 720.7561 h -30.24997 -30.24987 z"
       id="path852"
       inkscape:connector-curvature="0" />
    <path
       style="fill:#000000;stroke-width:0.3102555"
       d="M 644.42177,596.65391 V 472.55173 h 30.24987 30.24987 V 596.65391 720.7561 h -30.24987 -30.24987 z"
       id="path850"
       inkscape:connector-curvature="0" />
    <path
       style="fill:#000000;stroke-width:0.3102555"
       d="m 573.99347,481.54939 v 0.9653 c 0,0.93575 -0.0334,0.95891 -1.08937,0.7608 -1.04833,-0.19666 -1.18335,-0.10714 -3.57129,2.37008 -2.44385,2.5353 -2.47859,2.59424 -2.30736,3.87214 0.15804,1.17938 0.0878,1.36129 -0.77262,1.99742 l -0.94667,0.6999 v 4.93833 c 0,4.89836 0.007,4.94355 0.77578,5.54869 0.42657,0.33556 0.77534,0.76692 0.77534,0.95849 0,0.57442 -1.62432,2.08878 -2.24056,2.08878 -0.87171,0 -2.10286,0.92916 -2.10286,1.58703 0,0.51718 -0.2512,0.5849 -2.17194,0.5849 h -2.17148 v -1.55158 c 0,-0.8532 -0.1398,-1.55112 -0.3104,-1.55112 -0.17071,0 -0.31042,0.71699 -0.31042,1.59339 v 1.59339 l -1.39616,-0.19134 -1.39614,-0.19134 v 2.78641 c 0,2.2192 0.0912,2.78639 0.44721,2.78639 0.2459,0 0.52189,-0.12119 0.61353,-0.26951 0.0917,-0.14834 1.63587,-0.2895 3.4313,-0.31359 3.12342,-0.0419 3.2645,-0.0159 3.2645,0.60764 0,0.76996 1.1366,1.80671 2.0165,1.83926 0.34125,0.0127 1.08409,0.41953 1.6502,0.90394 0.92556,0.79194 1.00812,0.99407 0.81806,2.00696 -0.202,1.077 -0.10515,1.24403 2.2074,3.79124 2.3836,2.62548 2.4363,2.66167 3.60309,2.47508 1.13838,-0.18201 1.18436,-0.15545 1.18436,0.69081 0,0.53788 0.30148,1.16408 0.77533,1.6093 0.5508,0.51739 0.77578,1.05462 0.77578,1.85334 0,0.61871 0.16748,1.29274 0.37223,1.49751 0.45891,0.45889 1.35293,0.41521 -8.74913,0.4263 -4.85666,0.005 -8.7736,0.138 -9.09269,0.30814 -0.41694,0.22226 -0.53618,0.59184 -0.46492,1.44204 l 0.0951,1.14301 9.54036,0.0822 9.54035,0.0818 v 1.50886 c 0,0.96267 0.16838,1.64874 0.46539,1.89517 0.81332,0.67501 0.50938,0.93076 -1.1062,0.93076 -0.86442,0 -1.84186,0.14422 -2.17193,0.32086 -0.56233,0.30105 -0.60038,0.20397 -0.60038,-1.55113 0,-1.79047 -0.0337,-1.87243 -0.77532,-1.87243 -0.52812,0 -0.777,0.17341 -0.7858,0.5431 -0.009,0.51708 -0.0293,0.51708 -0.42177,0 -0.33585,-0.44241 -0.9022,-0.5431 -3.05723,-0.5431 -3.51857,0 -3.64672,0.18031 -3.64672,5.11921 0,4.93891 0.12815,5.11921 3.64672,5.11921 2.15503,0 2.72138,-0.10068 3.05723,-0.5431 0.3585,-0.47233 0.41222,-0.32103 0.41222,1.16347 0,1.4845 -0.0536,1.6358 -0.41222,1.16346 -0.33585,-0.44242 -0.9022,-0.54265 -3.05723,-0.54265 -3.52718,0 -3.64672,0.17043 -3.64672,5.1942 0,4.9299 0.0818,5.04424 3.62852,5.04424 2.1723,0 2.73923,-0.10019 3.07543,-0.5431 0.35867,-0.47305 0.41297,-0.32713 0.42177,1.13391 0.01,1.60517 -0.0141,1.65495 -0.55718,1.16345 -0.42909,-0.38834 -1.17684,-0.51355 -3.06724,-0.51355 -3.352,0 -3.5013,0.21878 -3.5013,5.11921 0,4.9389 0.12815,5.11921 3.64672,5.11921 2.15503,0 2.72138,-0.10024 3.05723,-0.54263 0.39209,-0.51709 0.41211,-0.51709 0.42177,0 0.007,0.36967 0.25768,0.54263 0.7858,0.54263 0.74394,0 0.77532,-0.0784 0.77532,-1.92333 0,-1.49613 0.083,-1.8407 0.37268,-1.55112 0.20475,0.20475 1.18181,0.37221 2.17149,0.37221 1.82937,0 2.16982,0.23736 1.33434,0.93077 -0.29701,0.24642 -0.46539,0.93251 -0.46539,1.89515 v 1.50842 l -9.54035,0.0822 -9.54036,0.0823 -0.099,1.02849 c -0.18642,1.94292 -0.31075,1.91879 9.90984,1.91879 h 9.26995 v 1.35433 c 0,0.90034 0.21557,1.62805 0.64309,2.17149 l 0.64263,0.8176 h -1.97697 c -1.12403,0 -2.13751,0.16055 -2.34919,0.37223 -0.28969,0.28956 -0.37268,-0.0893 -0.37268,-1.70611 0,-2.01046 -0.0252,-2.07877 -0.77532,-2.07877 -0.51493,0 -0.7758,0.17268 -0.7758,0.51355 0,0.47779 -0.0392,0.47779 -0.56718,0 -0.42909,-0.38834 -1.17684,-0.51355 -3.06724,-0.51355 -3.36054,0 -3.5013,0.20908 -3.5013,5.1942 0,4.92989 0.0818,5.04423 3.62852,5.04423 2.1723,0 2.73923,-0.1002 3.07543,-0.54311 0.35867,-0.47303 0.41297,-0.32712 0.42177,1.13393 0.01,1.60516 -0.0141,1.65495 -0.55718,1.16345 -0.42909,-0.38834 -1.17684,-0.51309 -3.06724,-0.51309 -3.36054,0 -3.5013,0.20908 -3.5013,5.1942 0,4.92988 0.0818,5.04422 3.62852,5.04422 2.1723,0 2.73923,-0.10018 3.07543,-0.5431 0.35867,-0.47306 0.41297,-0.32713 0.42177,1.13392 0.01,1.60516 -0.0141,1.65496 -0.55718,1.16345 -0.42909,-0.38834 -1.17684,-0.51355 -3.06724,-0.51355 -3.36054,0 -3.5013,0.20955 -3.5013,5.19466 0,4.9299 0.0818,5.04378 3.62852,5.04378 2.1723,0 2.73923,-0.0998 3.07543,-0.54266 0.39209,-0.51709 0.41211,-0.51709 0.42177,0 0.007,0.36969 0.25768,0.54266 0.7858,0.54266 0.74394,0 0.77532,-0.0784 0.77532,-1.92336 0,-1.49612 0.0831,-1.84114 0.37268,-1.55158 0.21168,0.21167 1.22516,0.37268 2.34919,0.37268 h 1.97697 l -0.64263,0.81714 c -0.42752,0.54346 -0.64309,1.27163 -0.64309,2.17195 v 1.35433 l -9.23041,0.005 c -5.0766,0.003 -9.41428,0.12131 -9.63943,0.26405 -0.25652,0.16261 -0.37238,0.71104 -0.30995,1.46887 l 0.099,1.20935 9.54036,0.0823 9.54035,0.0822 v 1.722 c 0,0.94728 -0.14492,1.99274 -0.32177,2.32329 -0.31633,0.59114 -0.33583,0.59047 -1.19162,-0.0422 -1.88399,-1.39292 -5.31997,-1.46978 -7.25981,-0.1627 l -0.99985,0.67354 -0.0809,11.72456 c -0.0794,11.44449 -0.066,11.74559 0.56401,12.63033 0.35495,0.4985 0.91519,0.90668 1.24482,0.90668 0.87965,0 0.74309,0.76812 -0.50038,2.81503 -0.60481,0.99558 -1.20144,2.40957 -1.32571,3.14269 -0.19488,1.14997 -0.34113,1.34653 -1.06528,1.43069 -1.19873,0.13926 -2.0938,1.41886 -2.0938,2.99272 v 1.2998 l -1.93922,0.44221 c -1.61225,0.36757 -1.95565,0.55991 -2.03834,1.14028 -0.0637,0.44862 -0.31313,0.69808 -0.69806,0.69808 -0.51888,0 -0.599,0.22703 -0.599,1.7061 0,1.49957 0.0754,1.70656 0.62079,1.70656 0.55188,0 0.62039,0.20684 0.62039,1.86153 0,1.65469 -0.0689,1.86154 -0.62039,1.86154 -0.53963,0 -0.62079,0.20672 -0.62079,1.58021 0,1.31939 0.10271,1.60743 0.62079,1.7429 0.54925,0.1436 0.62039,0.42285 0.62039,2.42919 0,2.11861 0.1079,2.48262 1.64519,5.54869 l 1.64521,3.28086 h -1.33481 -1.33525 v 1.70655 1.70656 h 1.39617 c 1.65917,0 1.60986,-0.31738 0.77578,4.96379 -0.33684,2.133 -0.61672,3.9832 -0.61672,4.11118 -0.002,0.12799 -0.35281,0.2327 -0.77943,0.2327 -0.74131,0 -0.7758,0.0827 -0.7758,1.86153 0,1.44787 0.10348,1.86153 0.4654,1.86153 0.256,0 0.46537,0.0785 0.46537,0.17451 0,0.23193 -1.49528,10.29057 -1.69202,11.38235 l -0.15405,0.85307 h 2.74867 c 3.05815,0 3.11497,0.0455 3.12814,2.48233 0.008,1.45659 0.53852,3.28346 1.12257,3.86759 h 0.003 c 0.72853,0.72858 5.74207,0.67589 6.40265,-0.0673 0.66961,-0.75329 1.16345,-2.71963 1.16345,-4.65383 v -1.62884 h 6.82531 6.82576 v 1.62884 c 0.002,1.9342 0.49339,3.90054 1.16303,4.65383 0.66057,0.74314 5.67402,0.79585 6.40265,0.0673 0.6158,-0.61577 1.118,-2.43819 1.118,-4.07483 0.003,-2.24035 0.0503,-2.27509 3.14315,-2.27509 2.7071,0 2.76181,-0.0147 2.60825,-0.69808 -0.15004,-0.6682 -1.71656,-11.20552 -1.71656,-11.54688 0,-0.0907 0.20938,-0.16497 0.46538,-0.16497 0.362,0 0.46539,-0.41366 0.46539,-1.86153 0,-1.77878 -0.0342,-1.86153 -0.77534,-1.86153 -0.42663,0 -0.7758,-0.0507 -0.7758,-0.11225 0,-0.0615 -0.27769,-1.91133 -0.61716,-4.11074 -0.83689,-5.42268 -0.88847,-5.08468 0.77215,-5.08468 h 1.39615 v -1.70656 -1.70655 h -1.3348 -1.33479 l 1.64521,-3.28086 c 1.53739,-3.06607 1.64519,-3.43008 1.64519,-5.54869 0,-2.00634 0.0713,-2.28559 0.62036,-2.42919 0.51802,-0.13547 0.62035,-0.42351 0.62035,-1.7429 0,-1.37349 -0.081,-1.58021 -0.62035,-1.58021 -0.55194,0 -0.62036,-0.20685 -0.62036,-1.86154 0,-1.65469 0.0688,-1.86153 0.62036,-1.86153 0.54483,0 0.62035,-0.20699 0.62035,-1.70656 0,-1.47907 -0.0799,-1.7061 -0.59899,-1.7061 -0.38494,0 -0.63476,-0.24946 -0.69807,-0.69808 -0.0824,-0.58037 -0.42573,-0.77271 -2.03787,-1.14028 l -1.93925,-0.44221 v -1.2998 c 0,-1.57386 -0.89542,-2.85346 -2.09422,-2.99272 -0.72416,-0.0841 -0.87032,-0.28072 -1.06529,-1.43069 -0.12428,-0.73312 -0.7209,-2.14711 -1.32571,-3.14269 -1.24339,-2.04691 -1.37957,-2.81503 -0.49992,-2.81503 0.32971,0 0.88789,-0.40563 1.24072,-0.90121 0.62053,-0.8716 0.6417,-1.2735 0.6417,-12.2754 0,-7.20793 -0.11703,-11.59309 -0.31947,-11.97135 -1.04902,-1.96003 -6.38625,-2.31871 -8.26329,-0.55536 l -0.67173,0.6308 -0.33675,-0.62899 c -0.18531,-0.3461 -0.33677,-1.40464 -0.33677,-2.35192 v -1.722 l 9.54034,-0.0823 9.54037,-0.0823 0.0992,-1.20935 c 0.0619,-0.75784 -0.054,-1.30626 -0.31042,-1.46887 -0.22514,-0.14274 -4.56289,-0.26142 -9.63943,-0.26406 l -9.22994,-0.005 v -1.45386 c 0,-1.06558 -0.18002,-1.64516 -0.67444,-2.17149 l -0.6749,-0.71807 h 2.00879 c 1.14866,0 2.16817,-0.15978 2.38099,-0.37268 0.28971,-0.28956 0.37222,0.0554 0.37222,1.55158 0,1.84497 0.0318,1.92336 0.77578,1.92336 0.52812,0 0.77655,-0.17297 0.78535,-0.54266 0.01,-0.51709 0.0297,-0.51709 0.4222,0 0.33613,0.44291 0.90272,0.54266 3.07498,0.54266 3.54715,0 3.62899,-0.11388 3.62899,-5.04378 0,-4.98511 -0.14121,-5.19466 -3.50172,-5.19466 -1.89043,0 -2.63773,0.12521 -3.06681,0.51355 -0.54344,0.49151 -0.56733,0.44171 -0.55764,-1.16345 0.009,-1.46105 0.063,-1.60698 0.4222,-1.13392 0.33613,0.44292 0.90272,0.5431 3.07498,0.5431 3.54715,0 3.62899,-0.11434 3.62899,-5.04422 0,-4.98512 -0.14121,-5.1942 -3.50172,-5.1942 -1.89043,0 -2.63773,0.12475 -3.06681,0.51309 -0.54344,0.4915 -0.56733,0.44171 -0.55764,-1.16345 0.009,-1.46105 0.063,-1.60696 0.4222,-1.13393 0.33613,0.44291 0.90272,0.54311 3.07498,0.54311 3.54715,0 3.62899,-0.11434 3.62899,-5.04423 0,-4.98512 -0.14121,-5.1942 -3.50172,-5.1942 -1.89043,0 -2.63773,0.12521 -3.06681,0.51355 -0.52777,0.47779 -0.56719,0.47779 -0.56719,0 0,-0.34087 -0.26087,-0.51355 -0.7758,-0.51355 -0.75008,0 -0.77578,0.0683 -0.77578,2.07877 0,1.61677 -0.0826,1.99567 -0.37222,1.70611 -0.21159,-0.21168 -1.22504,-0.37223 -2.34919,-0.37223 h -1.9774 l 0.64306,-0.8176 c 0.42744,-0.54344 0.64309,-1.27115 0.64309,-2.17149 v -1.35433 h 9.26947 c 10.22062,0 10.09641,0.0241 9.90986,-1.91879 l -0.0987,-1.02848 -9.54037,-0.0823 -9.54034,-0.0823 v -1.50842 c 0,-0.96265 -0.16847,-1.64873 -0.46538,-1.89515 -0.83549,-0.69341 -0.4955,-0.93077 1.33387,-0.93077 0.98976,0 1.9672,-0.16746 2.17195,-0.37221 0.28971,-0.28958 0.37222,0.055 0.37222,1.55112 0,1.84495 0.0317,1.92333 0.77578,1.92333 0.52812,0 0.77655,-0.17296 0.78535,-0.54263 0.01,-0.51709 0.0296,-0.51709 0.42221,0 0.33577,0.44239 0.90175,0.54263 3.05679,0.54263 3.51857,0 3.64717,-0.18031 3.64717,-5.11921 0,-4.90043 -0.14975,-5.11921 -3.50172,-5.11921 -1.89043,0 -2.63773,0.12521 -3.06681,0.51355 -0.54344,0.4915 -0.56733,0.44171 -0.55764,-1.16345 0.009,-1.46104 0.063,-1.60696 0.42221,-1.13391 0.33612,0.44291 0.90271,0.5431 3.07497,0.5431 3.54715,0 3.62899,-0.11434 3.62899,-5.04424 0,-4.9851 -0.14121,-5.1942 -3.50172,-5.1942 -1.89043,0 -2.63773,0.12521 -3.06681,0.51356 -0.54344,0.4915 -0.56733,0.44172 -0.55764,-1.16346 0.009,-1.46103 0.063,-1.60743 0.42221,-1.13438 0.33577,0.44241 0.90175,0.5431 3.05679,0.5431 3.51857,0 3.64717,-0.1803 3.64717,-5.11921 0,-4.9389 -0.1286,-5.11921 -3.64717,-5.11921 -2.15504,0 -2.72102,0.10069 -3.05679,0.5431 -0.39215,0.51708 -0.41254,0.51708 -0.42221,0 -0.007,-0.36969 -0.25723,-0.5431 -0.78535,-0.5431 -0.7413,0 -0.77578,0.0821 -0.77578,1.87243 0,1.7551 -0.0373,1.85218 -0.59991,1.55113 -0.33007,-0.17664 -1.30751,-0.32086 -2.17195,-0.32086 -1.61567,0 -1.91961,-0.25575 -1.10618,-0.93076 0.29691,-0.24643 0.46538,-0.9325 0.46538,-1.89517 v -1.50886 l 9.54034,-0.0818 9.54037,-0.0823 0.0987,-1.02847 c 0.17625,-1.83606 0.0701,-1.86371 -7.17208,-1.86108 -11.09821,0.004 -11.55534,-0.0134 -11.13876,-0.42993 0.20476,-0.20477 0.37269,-0.87881 0.37269,-1.49751 0,-0.79872 0.22462,-1.33596 0.77533,-1.85334 0.47384,-0.44523 0.77579,-1.07142 0.77579,-1.6093 0,-0.84653 0.0455,-0.87274 1.18618,-0.69036 1.16592,0.18644 1.22708,0.14519 3.57217,-2.40098 2.29778,-2.49482 2.37884,-2.63449 2.19469,-3.78216 -0.17283,-1.07658 -0.091,-1.2775 0.84894,-2.0815 0.57226,-0.48945 1.31042,-0.89555 1.64067,-0.90258 0.78376,-0.0164 2.03696,-1.20465 2.03696,-1.93152 0,-0.51971 0.28804,-0.56576 3.26449,-0.52583 1.79543,0.0241 3.3392,0.16525 3.43083,0.31359 0.0918,0.14832 0.3681,0.26951 0.61401,0.26951 0.35609,0 0.44673,-0.56719 0.44673,-2.78639 v -2.78641 l -1.39614,0.19134 -1.39615,0.19134 v -1.59339 c 0,-0.8764 -0.13933,-1.59339 -0.30994,-1.59339 -0.1707,0 -0.31041,0.69792 -0.31041,1.55112 v 1.55158 h -2.17194 c -1.92077,0 -2.17148,-0.0677 -2.17148,-0.5849 0,-0.65787 -1.23114,-1.58703 -2.10285,-1.58703 -0.62469,0 -2.24105,-1.51765 -2.24105,-2.10423 0,-0.20003 0.34919,-0.59218 0.7758,-0.87169 0.77498,-0.50772 0.7758,-0.51296 0.7758,-5.57051 v -5.0624 l -0.94531,-0.67309 c -0.86082,-0.61292 -0.92919,-0.7877 -0.76808,-1.96014 0.17441,-1.26935 0.14182,-1.32302 -2.33508,-3.85669 -2.39399,-2.44885 -2.56189,-2.56024 -3.57537,-2.37009 -1.02571,0.19249 -1.06347,0.16549 -1.06347,-0.76579 v -0.9653 h -6.82578 z m 13.99878,59.76674 c 0.20988,0.0244 0.27313,1.08519 0.27313,4.08346 0,2.4231 -0.0343,4.40379 -0.0773,4.40115 -0.0426,-0.003 -0.28706,-0.14044 -0.54308,-0.30586 -0.25593,-0.16542 -1.19841,-0.30277 -2.09422,-0.30541 -1.66967,-0.005 -1.98215,-0.2559 -1.16345,-0.93532 0.34042,-0.28256 0.46538,-1.03206 0.46538,-2.79229 0,-1.76023 -0.12496,-2.50975 -0.46538,-2.79231 -0.83551,-0.69337 -0.4955,-0.93075 1.33387,-0.93075 0.98976,0 1.96719,-0.16745 2.17195,-0.37222 0.0361,-0.0362 0.0691,-0.0539 0.0991,-0.0504 z m -14.346,4.5e-4 c 0.0299,-0.004 0.0633,0.0138 0.0995,0.0501 0.20475,0.20477 1.18184,0.37222 2.1715,0.37222 1.82937,0 2.16984,0.23737 1.33433,0.93075 -0.34052,0.28256 -0.46539,1.03208 -0.46539,2.79231 0,1.76023 0.12487,2.50973 0.46539,2.79229 0.83551,0.69339 0.49504,0.93077 -1.33433,0.93077 -0.98966,0 -1.96675,0.16744 -2.1715,0.37222 -0.28967,0.28956 -0.37266,-0.62042 -0.37266,-4.09528 0,-3.0405 0.0633,-4.11756 0.27315,-4.14528 z m 14.346,11.4787 c 0.20988,0.0244 0.27313,1.08566 0.27313,4.08392 0,2.4231 -0.0343,4.40332 -0.0773,4.40068 -0.0426,-0.003 -0.28706,-0.13999 -0.54308,-0.3054 -0.25593,-0.16542 -1.19841,-0.30277 -2.09422,-0.30542 -0.89591,-0.003 -1.62884,-0.0805 -1.62884,-0.1727 0,-0.0923 0.31419,-0.59233 0.69807,-1.11164 0.49743,-0.67274 0.69807,-1.37549 0.69807,-2.44371 0,-1.06822 -0.20064,-1.77055 -0.69807,-2.44326 -0.38388,-0.51932 -0.69807,-1.01988 -0.69807,-1.1121 0,-0.0923 0.80951,-0.16771 1.79926,-0.16771 0.98976,0 1.96719,-0.16745 2.17195,-0.37223 0.0361,-0.0361 0.0691,-0.0538 0.0991,-0.0504 z m -14.346,9e-4 c 0.0299,-0.004 0.0633,0.0134 0.0995,0.0496 0.20475,0.20478 1.18184,0.37223 2.1715,0.37223 0.98976,0 1.79972,0.0756 1.79972,0.16771 0,0.0923 -0.29001,0.55965 -0.64398,1.03846 -1.03304,1.39717 -1.08991,3.04389 -0.16498,4.76654 l 0.79125,1.47343 h -1.79064 c -0.98491,0 -1.95812,0.1679 -2.16287,0.37265 -0.28967,0.28958 -0.37266,-0.62087 -0.37266,-4.09572 0,-3.0405 0.0633,-4.11711 0.27315,-4.14483 z m 14.346,26.99314 c 0.20988,0.0328 0.27313,1.13323 0.27313,4.23707 0,2.50842 -0.0611,4.56067 -0.13681,4.56067 -0.0753,0 -0.22315,-0.1393 -0.32859,-0.30994 -0.10545,-0.17064 -1.10083,-0.31042 -2.21238,-0.31042 h -2.02105 l 0.64308,-0.8176 c 0.52152,-0.66308 0.64309,-1.25977 0.64309,-3.15996 0,-1.97826 -0.10483,-2.45453 -0.67446,-3.0609 l -0.67491,-0.71808 h 2.0088 c 1.14868,0 2.16816,-0.15931 2.38101,-0.37221 0.0361,-0.0361 0.0691,-0.0533 0.0992,-0.0487 z m -14.346,9.1e-4 c 0.0299,-0.005 0.0633,0.0115 0.0995,0.0478 0.21294,0.2129 1.2319,0.37221 2.38057,0.37221 h 2.00877 l -0.67444,0.71808 c -0.56972,0.60637 -0.67446,1.08264 -0.67446,3.06089 0,1.9002 0.1215,2.49689 0.64309,3.15997 l 0.64264,0.8176 h -1.97698 c -1.12404,0 -2.13749,0.16054 -2.34919,0.37221 -0.28967,0.28958 -0.37266,-0.65474 -0.37266,-4.25025 0,-3.14607 0.0633,-4.26247 0.27315,-4.29843 z m 14.346,11.47869 c 0.20988,0.0327 0.27313,1.13323 0.27313,4.23708 0,2.50842 -0.0611,4.56066 -0.13681,4.56066 -0.0753,0 -0.22315,-0.13976 -0.32859,-0.3104 -0.10545,-0.17064 -1.1123,-0.30995 -2.23783,-0.30995 -1.94528,0 -2.02197,-0.0276 -1.54522,-0.55447 0.71202,-0.78667 1.45615,-2.68441 1.45615,-3.71351 0,-0.48133 -0.27905,-1.42301 -0.62036,-2.0924 -0.34124,-0.66943 -0.62039,-1.25738 -0.62039,-1.30662 0,-0.0493 0.73988,-0.0896 1.64432,-0.0896 0.90434,0 1.81175,-0.16744 2.01651,-0.3722 0.0361,-0.0362 0.0691,-0.0533 0.0992,-0.0487 z m -14.346,4.6e-4 c 0.0299,-0.005 0.0633,0.012 0.0995,0.0482 0.20475,0.20476 1.11218,0.3722 2.01654,0.3722 0.90443,0 1.64429,0.0403 1.64429,0.0896 0,0.0493 -0.27905,0.63719 -0.62039,1.30662 -0.34131,0.66939 -0.62079,1.61107 -0.62079,2.0924 0,1.0291 0.74422,2.92684 1.45613,3.71351 0.47677,0.52678 0.40222,0.55447 -1.50113,0.55447 -1.14401,0 -2.16199,0.15954 -2.37465,0.37221 -0.28967,0.28957 -0.37266,-0.65519 -0.37266,-4.25071 0,-3.14608 0.0633,-4.26247 0.27315,-4.29844 z m 2.81274,47.44045 c 0.0258,-0.002 0.048,0.003 0.0659,0.0141 0.14353,0.0887 0.26131,0.99092 0.26131,2.00469 0,1.58478 -0.0805,1.8429 -0.57262,1.8429 -0.93082,0 -1.5993,1.01553 -1.5993,2.42917 0,1.03938 -0.11003,1.29389 -0.55855,1.29389 -0.30719,0 -0.74347,0.17483 -0.96939,0.38813 -0.33965,0.32061 -0.3686,0.0918 -0.16817,-1.3189 0.13333,-0.93852 0.32508,-2.40447 0.42629,-3.25767 0.15542,-1.31068 0.29341,-1.56651 0.88942,-1.65111 0.38802,-0.055 1.0036,-0.50339 1.36797,-0.99621 0.31881,-0.43123 0.67653,-0.73838 0.85714,-0.74898 z m 8.72049,0 c 0.18064,0.0107 0.53877,0.31775 0.85759,0.74898 0.36436,0.49282 0.97996,0.94115 1.36797,0.99621 0.49163,0.0698 0.729,0.33522 0.78352,0.87578 0.0431,0.4266 0.23813,1.79099 0.43311,3.03181 0.33606,2.13833 0.26468,2.99607 -0.18816,2.26327 -0.11248,-0.18198 -0.47548,-0.33131 -0.80668,-0.33131 -0.50367,0 -0.6022,-0.2204 -0.6022,-1.34797 0,-1.42107 -0.66414,-2.37509 -1.65336,-2.37509 -0.42636,0 -0.51855,-0.32736 -0.51855,-1.8429 0,-1.01377 0.11731,-1.91601 0.26086,-2.00469 0.0179,-0.0111 0.04,-0.0156 0.0659,-0.0141 z"
       id="path848"
       inkscape:connector-curvature="0" />
  </g>
</svg>
