<?xml version="1.0" encoding="UTF-8" standalone="no"?>
<!-- Created with Inkscape (http://www.inkscape.org/) -->

<svg
   sodipodi:docname="Seraph-Heraan 3.svg"
   id="svg8"
   version="1.1"
   viewBox="0 0 213.88203 213.88203"
   height="213.88203mm"
   width="213.88203mm"
   inkscape:version="1.2.1 (9c6d41e410, 2022-07-14)"
   inkscape:export-filename="Seraph-Heraan 4.png"
   inkscape:export-xdpi="96"
   inkscape:export-ydpi="96"
   xml:space="preserve"
   xmlns:inkscape="http://www.inkscape.org/namespaces/inkscape"
   xmlns:sodipodi="http://sodipodi.sourceforge.net/DTD/sodipodi-0.dtd"
   xmlns="http://www.w3.org/2000/svg"
   xmlns:svg="http://www.w3.org/2000/svg"
   xmlns:rdf="http://www.w3.org/1999/02/22-rdf-syntax-ns#"
   xmlns:cc="http://creativecommons.org/ns#"
   xmlns:dc="http://purl.org/dc/elements/1.1/"><defs
     id="defs2" /><sodipodi:namedview
     id="base"
     pagecolor="#ffffff"
     bordercolor="#666666"
     borderopacity="1.0"
     inkscape:pageopacity="0.0"
     inkscape:pageshadow="2"
     inkscape:zoom="0.49497474"
     inkscape:cx="216.17265"
     inkscape:cy="454.56865"
     inkscape:document-units="mm"
     inkscape:current-layer="layer1"
     showgrid="false"
     inkscape:window-width="1920"
     inkscape:window-height="1017"
     inkscape:window-x="-8"
     inkscape:window-y="-8"
     inkscape:window-maximized="1"
     inkscape:showpageshadow="2"
     inkscape:pagecheckerboard="0"
     inkscape:deskcolor="#d1d1d1" /><metadata
     id="metadata5"><rdf:RDF><cc:Work
         rdf:about=""><dc:format>image/svg+xml</dc:format><dc:type
           rdf:resource="http://purl.org/dc/dcmitype/StillImage" /></cc:Work></rdf:RDF></metadata><g
     inkscape:label="Layer 1"
     inkscape:groupmode="layer"
     id="layer1"
     transform="translate(53.861138,-99.756618)"><path
       style="fill:#000000;stroke-width:0.26735"
       d="M -53.861138,111.52013 V 99.756618 H 53.079878 160.02089 v 11.763512 11.76352 H 53.079878 -53.861138 Z"
       id="path186" /><path
       style="fill:#000000;stroke-width:0.26735"
       d="m -17.16713,275.07301 c -0.14636,-0.18378 -0.327129,-2.23863 -0.401691,-4.56636 -0.08293,-2.58869 -0.251857,-4.34847 -0.435002,-4.5316 -0.221002,-0.22105 -0.299425,-0.17318 -0.299425,0.18217 0,0.43723 -0.178835,0.46402 -1.938306,0.29087 -1.066066,-0.10487 -1.962741,-0.21177 -1.992607,-0.23737 -0.181605,-0.15594 -3.287607,-13.94898 -3.287607,-14.59956 0,-1.40663 4.572215,-27.9333 4.830602,-28.02576 0.145818,-0.0522 0.249093,-3.18376 0.249093,-7.55272 0,-7.04783 -0.02723,-7.46358 -0.488105,-7.46358 -0.764897,0 -1.650716,-1.12763 -1.650716,-2.10138 0,-1.05942 1.022769,-2.17625 1.992995,-2.17625 0.374298,0 0.680534,-0.0973 0.680534,-0.21627 0,-0.11891 0.421077,-0.91552 0.935729,-1.77014 l 0.935733,-1.55395 v -10.9291 c 0,-10.88573 -0.0023,-10.92905 -0.555266,-10.92905 -0.305399,0 -0.921773,-0.36652 -1.369732,-0.81445 -0.696327,-0.69632 -0.791948,-0.95318 -0.659246,-1.77098 0.221192,-1.36303 0.858763,-1.95954 2.09435,-1.95954 0.985641,0 1.059372,-0.0623 1.663613,-1.40361 0.833404,-1.8501 2.298165,-3.49718 3.723757,-4.18729 1.059644,-0.51299 1.618872,-0.55824 6.8993378,-0.55824 h 5.74624172 l 1.52154388,0.91624 c 0.8368529,0.50394 1.5322712,0.89495 1.5453685,0.86886 0.013075,-0.026 0.065472,-4.76941 0.1163718,-10.54088 0.08875,-10.05796 0.072079,-10.4936 -0.4010824,-10.4936 -0.2715068,0 -0.8170584,-0.38436 -1.2123399,-0.85409 -0.57675695,-0.68542 -0.68930425,-1.03518 -0.56989778,-1.77097 0.21523879,-1.32637 0.86229708,-1.91988 2.09292898,-1.91988 0.7499323,0 1.0790681,-0.12954 1.1908567,-0.46789 0.7785717,-2.35787 1.4365641,-3.75135 2.1888977,-4.6356 l 0.8897327,-1.04565 h 9.3717753 9.371772 l 0.879365,0.93237 c 0.545833,0.57878 1.166215,1.74462 1.635681,3.07386 0.754553,2.13646 0.758555,2.14151 1.712293,2.14216 1.277538,7.7e-4 2.118583,0.88845 2.118583,2.23576 0,1.13364 -0.946812,2.30993 -1.859316,2.30993 -0.368618,0 -0.546856,0.17405 -0.546856,0.53471 0,0.50724 0.178238,0.53473 3.47049,0.53473 3.955377,0 3.677192,-0.19509 3.812399,2.67352 l 0.06936,1.47043 5.41389,0.0726 c 5.170072,0.0692 5.413886,0.0496 5.413886,-0.43665 0,-0.28423 -0.236166,-0.57082 -0.534708,-0.64892 -0.424849,-0.11087 -0.534699,-0.36467 -0.534699,-1.23426 v -1.09445 h -1.64044 -1.640457 l 0.170294,-1.24246 c 0.272068,-1.98491 1.874882,-4.99139 3.591797,-6.73723 3.937469,-4.0039 7.933088,-4.0039 11.870555,0 1.716919,1.74584 3.319735,4.75232 3.591799,6.73723 l 0.170286,1.24246 H 61.13682 59.496361 v 1.09445 c 0,0.86959 -0.109833,1.12317 -0.534702,1.23426 -0.298539,0.0782 -0.534706,0.36469 -0.534706,0.64892 0,0.48612 0.243814,0.5058 5.413888,0.43665 l 5.413887,-0.0726 0.06924,-1.47043 c 0.135209,-2.86861 -0.142976,-2.67352 3.8124,-2.67352 3.29225,0 3.470492,-0.0272 3.470492,-0.53473 0,-0.36044 -0.178242,-0.53471 -0.546859,-0.53471 -0.928065,0 -1.859317,-1.17569 -1.859317,-2.34739 0,-1.32502 0.855188,-2.1971 2.156056,-2.19876 0.905902,-7.3e-4 0.929513,-0.0313 1.72056,-2.18703 0.463146,-1.26226 1.154307,-2.56089 1.635679,-3.0734 l 0.833628,-0.8875 h 9.372039 9.372046 l 0.797018,0.79701 c 0.66351,0.66353 1.61193,2.68536 2.29106,4.88424 0.10575,0.34242 0.42819,0.46789 1.20291,0.46789 1.23853,0 2.16662,0.92277 2.16662,2.15432 0,0.9222 -1.19009,2.39062 -1.93752,2.39062 -0.54593,0 -0.55091,0.0661 -0.37801,5.01285 0.0964,2.75707 0.17552,7.52399 0.17595,10.59306 l 7.6e-4,5.58015 0.60154,-0.43293 c 2.04345,-1.47081 2.22433,-1.50375 8.25966,-1.50375 5.18158,0 5.77302,0.048 6.81113,0.55033 1.46375,0.70858 2.93359,2.34564 3.7368,4.16177 0.61345,1.38713 0.67211,1.43704 1.68889,1.43704 2.64224,0 2.89193,3.83987 0.28686,4.41204 l -0.79878,0.17539 v 10.90783 10.90781 l 0.93573,1.55396 c 0.51466,0.85463 0.93573,1.65124 0.93573,1.77016 0,0.1189 0.28455,0.21624 0.63233,0.21624 0.34777,0 0.94931,0.24935 1.33675,0.55414 1.31819,1.03682 0.77032,3.19598 -0.9665,3.80894 -0.43021,0.15172 -0.46787,0.7557 -0.46787,7.50343 0,4.38859 0.10197,7.37414 0.25372,7.42741 0.13954,0.049 1.31862,6.40531 2.62019,14.12513 l 2.36647,14.03604 -1.68443,7.19621 c -0.92644,3.95789 -1.71451,7.22062 -1.75127,7.25054 -0.0367,0.0302 -0.93914,0.13738 -2.00519,0.239 -1.75881,0.16743 -1.93906,0.13953 -1.94643,-0.29937 -0.007,-0.46322 -0.02,-0.46348 -0.28621,-0.006 -0.16108,0.27681 -0.26885,2.12237 -0.25613,4.38685 0.0289,5.14668 0.26304,4.89373 -4.52923,4.89373 -3.14896,0 -3.71821,-0.0657 -4.07635,-0.46788 -0.32671,-0.36723 -0.44105,-1.35961 -0.53135,-4.61186 -0.076,-2.73212 -0.55925,-7.67347 -1.4188,-14.50385 l -1.30371,-10.35992 h -4.04619 -4.04618 l -0.46442,-4.49707 c -0.25542,-2.47339 -0.96672,-9.18056 -1.58065,-14.90488 l -1.1162,-10.40782 -11.034625,-0.0699 -11.034614,-0.0698 -0.224548,-0.59857 c -0.123496,-0.32924 -0.311351,-2.34307 -0.417438,-4.47522 -0.16164,-3.24883 -0.601097,-6.35864 -1.350596,-9.55789 -0.125103,-0.53399 -0.30633,-0.60146 -1.614864,-0.60146 -0.810665,0 -1.905843,-0.18049 -2.433726,-0.40103 -0.527888,-0.22057 -1.005259,-0.40107 -1.060824,-0.40107 -0.05552,0 -0.101028,2.13881 -0.101028,4.75286 0,5.19569 -0.186431,5.94125 -1.485594,5.94125 h -0.653236 v 11.62986 11.6298 h -1.73778 -1.737783 v -6.28279 -6.28275 h -2.94087 -2.940874 v 5.32843 c 0,5.32226 7.59e-4,5.32856 0.601542,5.41391 0.56905,0.081 0.609545,0.23706 0.74972,2.89263 0.08152,1.54396 0.171734,2.60089 0.200519,2.34874 0.09101,-0.79766 0.998189,-1.01198 4.282771,-1.01198 2.747957,0 3.284707,0.0716 3.827356,0.51086 l 0.631164,0.51082 0.07687,9.43525 c 0.05395,6.62061 -0.01394,9.6549 -0.228136,10.17167 -0.395732,0.95534 -1.350767,1.2304 -4.447956,1.28095 -2.497529,0.0409 -4.022158,-0.37512 -4.141525,-1.12975 -0.02849,-0.18006 -0.118727,0.87574 -0.200512,2.3462 -0.136025,2.44473 -0.200224,2.69609 -0.750279,2.93742 -0.402583,0.17667 -0.601545,0.49452 -0.601545,0.96111 0,1.39106 -1.838588,2.11777 -2.765762,1.09327 -0.344021,-0.38013 -0.442472,-1.0345 -0.442472,-2.9409 v -2.45195 h -1.069376 -1.069407 v 2.49844 c 0,2.74658 -0.310644,3.3833 -1.650568,3.3833 -1.231209,0 -1.557663,-0.71877 -1.557663,-3.42979 v -2.45195 h -1.06941 -1.069408 v 2.49844 c 0,2.08086 -0.08171,2.57235 -0.488922,2.94086 -1.051302,0.95143 -2.719315,0.22385 -2.719315,-1.18613 0,-0.41845 -0.214751,-0.74501 -0.601543,-0.9147 -0.551723,-0.24206 -0.612613,-0.48535 -0.735221,-2.93742 -0.07349,-1.47046 -0.217707,-2.46933 -0.32042,-2.2197 -0.265155,0.64442 -2.012908,1.04185 -4.424428,1.00614 -2.688679,-0.0395 -3.673945,-0.35139 -4.060204,-1.28384 -0.214032,-0.51677 -0.282087,-3.55106 -0.228136,-10.17167 l 0.07687,-9.43525 0.631162,-0.51082 c 0.545401,-0.44145 1.081209,-0.51086 3.943448,-0.51086 2.935705,0 3.37199,0.0599 3.837431,0.52512 0.52195,0.52198 0.525602,0.50936 0.601544,-2.07199 0.07245,-2.46293 0.107478,-2.60151 0.677944,-2.68252 0.600843,-0.0854 0.601542,-0.0915 0.601542,-5.41391 v -5.32768 h -2.940861 -2.940883 v 6.28279 6.28281 H 38.50913 36.771335 v -11.76355 -11.76351 h -0.79265 c -0.510048,0 -0.891329,-0.18437 -1.06941,-0.51713 -0.16067,-0.30023 -0.276759,-2.48851 -0.276759,-5.21697 v -4.69982 l -0.968387,0.40458 c -0.532611,0.22256 -1.673248,0.40465 -2.534748,0.40465 -1.404402,0 -1.580951,0.0624 -1.707307,0.60154 -0.749499,3.1992 -1.188937,6.30904 -1.350594,9.55785 -0.10609,2.13214 -0.293939,4.14599 -0.41744,4.4752 l -0.224551,0.59854 -11.031601,0.0699 -11.0315925,0.0697 -0.8423977,7.88689 c -0.4633163,4.33781 -1.1769626,11.04502 -1.5858835,14.90493 l -0.743479,7.01802 h -4.040682 -4.0406766 l -1.4044664,11.56293 c -0.9379586,7.72234 -1.401601,12.54829 -1.3958821,14.52936 0.011579,3.9556 0.1359039,3.85118 -4.5915702,3.85118 -2.577679,0 -3.699053,-0.0959 -3.888425,-0.33422 z"
       id="path184" /><path
       style="fill:#000000;stroke-width:0.26735"
       d="M -53.861138,301.87511 V 290.11163 H 53.079878 160.02089 v 11.76348 11.76354 H 53.079878 -53.861138 Z"
       id="path180" /></g></svg>
