<?xml version="1.0" encoding="UTF-8" standalone="no"?>
<!-- Created with Inkscape (http://www.inkscape.org/) -->

<svg
   xmlns:dc="http://purl.org/dc/elements/1.1/"
   xmlns:cc="http://creativecommons.org/ns#"
   xmlns:rdf="http://www.w3.org/1999/02/22-rdf-syntax-ns#"
   xmlns:svg="http://www.w3.org/2000/svg"
   xmlns="http://www.w3.org/2000/svg"
   xmlns:sodipodi="http://sodipodi.sourceforge.net/DTD/sodipodi-0.dtd"
   xmlns:inkscape="http://www.inkscape.org/namespaces/inkscape"
   sodipodi:docname="skyboat-civ 3.svg"
   id="svg8"
   version="1.1"
   viewBox="0 0 131.14381 131.27161"
   height="131.27161mm"
   width="131.14381mm"
   inkscape:version="0.92.4 (5da689c313, 2019-01-14)"
   inkscape:export-filename="D:\GitHub\wills-spaceships\Outlines Ships\skyboat-civ 4.png"
   inkscape:export-xdpi="96"
   inkscape:export-ydpi="96">
  <defs
     id="defs2" />
  <sodipodi:namedview
     id="base"
     pagecolor="#ffffff"
     bordercolor="#666666"
     borderopacity="1.0"
     inkscape:pageopacity="0.0"
     inkscape:pageshadow="2"
     inkscape:zoom="0.24748737"
     inkscape:cx="-270.95761"
     inkscape:cy="657.92523"
     inkscape:document-units="mm"
     inkscape:current-layer="layer1"
     showgrid="false"
     inkscape:window-width="1920"
     inkscape:window-height="1017"
     inkscape:window-x="-8"
     inkscape:window-y="-8"
     inkscape:window-maximized="1" />
  <metadata
     id="metadata5">
    <rdf:RDF>
      <cc:Work
         rdf:about="">
        <dc:format>image/svg+xml</dc:format>
        <dc:type
           rdf:resource="http://purl.org/dc/dcmitype/StillImage" />
        <dc:title />
      </cc:Work>
    </rdf:RDF>
  </metadata>
  <g
     inkscape:label="Layer 1"
     inkscape:groupmode="layer"
     id="layer1"
     transform="translate(571.30216,-138.23623)">
    <path
       style="fill:#000000;stroke-width:0.16406921"
       d="m -571.25575,269.29456 c -0.0429,-0.11279 -0.0589,-29.62679 -0.0359,-65.58666 l 0.0419,-65.38157 2.74816,-0.045 2.74815,-0.0451 v 65.63165 65.63163 h -2.71229 c -2.01894,0 -2.73219,-0.0524 -2.79013,-0.20508 z"
       id="path840"
       inkscape:connector-curvature="0" />
    <path
       style="fill:#000000;stroke-width:0.16406921"
       d="m -445.65466,203.87197 v -65.63562 l 2.74815,0.0451 2.74817,0.045 v 65.54564 65.54564 l -2.74817,0.0451 -2.74815,0.045 z"
       id="path838"
       inkscape:connector-curvature="0" />
    <path
       style="fill:#000000;stroke-width:0.16406921"
       d="m -505.77819,142.93826 c -0.46274,0.008 -0.93019,0.0522 -1.40236,0.131 -4.79861,0.80115 -8.73508,5.01454 -12.50706,13.3867 -0.58952,1.30845 -1.12251,2.5452 -1.18439,2.74823 -0.0833,0.27335 -0.23735,0.36916 -0.59362,0.36916 -0.26463,0 -0.48115,0.0737 -0.48115,0.16391 0,0.0903 -0.11075,0.16415 -0.24611,0.16415 -0.13535,0 -0.2461,0.093 -0.2461,0.20669 0,0.11372 -0.51691,0.60098 -1.14857,1.08271 -1.02515,0.7818 -1.14855,0.93572 -1.14855,1.43384 v 0.55805 h -0.80249 c -0.78824,0 -0.80737,0.0122 -1.0755,0.68232 -0.23952,0.59854 -0.27016,1.44951 -0.24947,6.93202 l 0.0236,6.24968 -1.42181,4.67597 c -3.48286,11.4528 -5.27178,16.4188 -7.71287,21.41103 -3.59997,7.3623 -7.04085,10.71817 -11.51928,11.23522 -4.12535,0.47628 -5.25369,0.74395 -7.32953,1.73761 -2.66255,1.27455 -4.66009,3.28645 -6.0156,6.05913 -0.93642,1.91542 -1.38406,3.96432 -1.21875,5.57842 0.4449,4.34387 3.00358,8.06518 6.99329,10.171 1.94075,1.02436 3.7166,1.4698 6.87409,1.72394 1.21407,0.0977 2.65046,0.28876 3.1919,0.42443 4.88684,1.22464 9.1587,4.80165 11.6409,9.74777 1.16425,2.31992 1.6131,4.00343 1.88135,7.05506 0.17293,1.96736 0.43611,2.82041 1.19687,3.87975 0.79214,1.10302 1.63054,1.53453 2.98186,1.53453 1.28523,0 1.78044,-0.21469 2.60787,-1.13054 0.9963,-1.10278 1.59437,-2.67582 1.59437,-4.19313 0,-0.30218 0.18361,-0.87073 0.40811,-1.26345 0.27502,-0.48108 0.41298,-0.98159 0.42275,-1.5343 l 0.0144,-0.82026 0.20718,0.57415 c 0.11391,0.31584 0.32977,0.59812 0.47971,0.62728 0.14992,0.0291 0.27731,0.13994 0.28312,0.2461 0.005,0.10621 0.13673,1.33753 0.2908,2.73624 l 0.28,2.54297 0.84045,0.049 0.84045,0.049 0.14035,0.93537 c 0.13745,0.91516 0.15284,0.93647 0.70755,0.98923 0.38009,0.0361 0.63061,-0.0329 0.75995,-0.20981 0.17086,-0.23369 0.20385,-0.23522 0.28912,-0.0131 0.1622,0.42265 0.56652,0.27936 0.68087,-0.2413 0.10694,-0.48694 0.41025,-0.69195 0.41025,-0.27734 0,0.11811 0.11075,0.35789 0.24611,0.53306 0.23482,0.30391 0.25644,0.30524 0.47273,0.0266 0.20189,-0.25995 0.23771,-0.26334 0.32687,-0.0311 0.0724,0.18855 0.27109,0.24668 0.71669,0.20982 0.61566,-0.051 0.61677,-0.0522 0.75703,-0.98634 l 0.14061,-0.9354 0.84022,-0.049 0.84044,-0.049 0.28,-2.54297 c 0.15408,-1.39871 0.28499,-2.62677 0.2908,-2.72902 0.005,-0.10228 0.14685,-0.22171 0.31364,-0.26533 0.17972,-0.047 0.35699,-0.30555 0.43501,-0.63449 0.11939,-0.50341 0.14288,-0.44741 0.25139,0.60108 0.11624,1.12305 0.59446,2.33995 1.32857,3.38104 0.23115,0.32779 0.30848,0.73363 0.3122,1.64075 0.004,0.9882 0.0778,1.32332 0.40929,1.86142 0.34362,0.55788 0.40449,0.85929 0.40498,2.00993 6.1e-4,1.03992 0.0532,1.35357 0.22686,1.35357 0.12432,0 0.31788,0.11075 0.43021,0.2461 0.14467,0.17431 0.52771,0.2461 1.31272,0.2461 0.78499,0 1.16781,-0.0717 1.31247,-0.2461 0.11233,-0.13535 0.30588,-0.2461 0.4302,-0.2461 0.17364,0 0.2264,-0.31365 0.22687,-1.35357 6.2e-4,-1.15064 0.0615,-1.45205 0.40521,-2.00993 0.33143,-0.5381 0.40511,-0.87322 0.40929,-1.86142 0.003,-0.90712 0.0812,-1.31296 0.3122,-1.64075 0.74378,-1.05477 1.21161,-2.25334 1.31969,-3.38104 0.10008,-1.04365 0.12359,-1.10235 0.2437,-0.60301 0.08,0.3325 0.25711,0.58564 0.44388,0.63449 0.17091,0.0447 0.31553,0.16498 0.32135,0.26726 0.005,0.10226 0.13648,1.33031 0.29056,2.72902 l 0.28023,2.54297 0.84021,0.049 0.84045,0.049 0.14061,0.9354 0.14035,0.93538 0.63642,-0.0246 c 0.34995,-0.0135 0.69025,-0.11177 0.75634,-0.21871 0.0861,-0.13933 0.14842,-0.12086 0.2199,0.0655 0.16512,0.4303 0.56879,0.29316 0.68422,-0.23241 0.0593,-0.27071 0.17021,-0.49219 0.24611,-0.49219 0.0759,0 0.18663,0.22148 0.24612,0.49219 0.11434,0.52066 0.51867,0.66397 0.68086,0.2413 0.0818,-0.21336 0.12402,-0.21655 0.28191,-0.0213 0.10217,0.12631 0.444,0.22085 0.75994,0.21007 0.56938,-0.0194 0.57545,-0.0276 0.71476,-0.95509 l 0.1406,-0.9354 0.84022,-0.049 0.84045,-0.049 0.28023,-2.54298 c 0.15407,-1.39871 0.28475,-2.63006 0.29057,-2.73624 0.005,-0.10621 0.13319,-0.21694 0.28311,-0.2461 0.14993,-0.0292 0.36579,-0.31144 0.4797,-0.62727 l 0.20717,-0.57416 0.0144,0.82025 c 0.01,0.55272 0.14773,1.05322 0.42275,1.53431 0.22451,0.39272 0.4081,0.96126 0.4081,1.26346 0,1.5173 0.59831,3.09034 1.59462,4.19312 0.82742,0.91585 1.3224,1.13054 2.60765,1.13054 1.3513,0 2.18971,-0.43152 2.98184,-1.53454 0.76074,-1.05932 1.02394,-1.91239 1.19687,-3.87974 0.26498,-3.0144 0.7171,-4.73064 1.8364,-6.97166 2.50387,-5.0131 6.77073,-8.60253 11.68585,-9.83045 0.54143,-0.13526 1.98114,-0.32858 3.19936,-0.42948 3.05094,-0.25272 4.82544,-0.67473 6.59096,-1.56772 5.07697,-2.56784 7.96896,-7.73762 7.11658,-12.7212 -0.66398,-3.88202 -3.43041,-7.49138 -7.08172,-9.23924 -2.07585,-0.99366 -3.20442,-1.26133 -7.32977,-1.73762 -4.47291,-0.5164 -7.92349,-3.88198 -11.51905,-11.23521 -2.46085,-5.03265 -4.19187,-9.83822 -7.71237,-21.41103 l -1.42255,-4.67598 0.0236,-6.24967 c 0.0206,-5.4825 -0.01,-6.33347 -0.24948,-6.93201 -0.26813,-0.67016 -0.28725,-0.68232 -1.0755,-0.68232 h -0.80247 v -0.57176 c 0,-0.51683 -0.11067,-0.65473 -1.14857,-1.43144 -0.63167,-0.47269 -1.14832,-0.95364 -1.14832,-1.06878 0,-0.11512 -0.11075,-0.20933 -0.24611,-0.20933 -0.13535,0 -0.24609,-0.074 -0.24609,-0.16415 0,-0.0903 -0.21653,-0.1639 -0.48117,-0.1639 -0.35626,0 -0.51032,-0.0958 -0.59362,-0.36915 -0.24384,-0.80013 -2.29982,-5.20923 -3.07942,-6.60395 -3.65312,-6.53549 -7.68965,-9.74373 -12.16292,-9.66199 z m -6.56453,89.97402 h 1.68788 l 0.11584,0.6972 c 0.14026,0.84412 0.41502,1.40923 0.89741,1.84579 0.56383,0.51025 0.86623,1.22585 0.97097,2.29689 0.0881,0.90075 0.128,0.98117 0.46769,0.945 l 0.37132,-0.0398 -0.33094,0.64842 c -0.23821,0.46691 -0.33071,0.96906 -0.33071,1.79506 0,0.99255 -0.0637,1.24164 -0.47418,1.85228 -0.26088,0.38803 -0.60311,1.00079 -0.76043,1.36174 -0.15733,0.36095 -0.33407,1.17301 -0.3927,1.80468 -0.0964,1.03975 -0.11919,1.09632 -0.24129,0.59555 -0.0786,-0.3228 -0.26026,-0.58594 -0.43573,-0.63185 -0.3234,-0.0846 -0.36066,-0.21959 -0.98009,-3.53221 l -0.36051,-1.92774 h -0.5297 -0.52971 l -0.48787,-2.66604 -0.48789,-2.66627 -0.93345,-0.049 -0.93347,-0.0492 v 0.50038 c 0,0.27521 -0.074,0.50037 -0.16415,0.50037 -0.0903,0 -0.16414,-0.22148 -0.16414,-0.4922 0,-0.48175 -0.0175,-0.49221 -0.82605,-0.49221 -0.75046,0 -0.81135,-0.0274 -0.665,-0.3009 0.11663,-0.21792 0.29463,-0.2814 0.64483,-0.23 0.40447,0.0594 0.61995,-0.0625 1.31582,-0.74384 0.96467,-0.94457 1.2344,-1.02214 3.55625,-1.02214 z m 11.58972,0 h 1.68763 c 2.32185,0 2.59159,0.0776 3.55626,1.02215 0.69587,0.6814 0.91158,0.8032 1.31606,0.74384 0.3502,-0.0515 0.52796,0.0121 0.64459,0.23001 0.14633,0.27341 0.0855,0.30089 -0.66501,0.30089 -0.80854,0 -0.82604,0.01 -0.82604,0.4922 0,0.27072 -0.0738,0.4922 -0.16414,0.4922 -0.0903,0 -0.16391,-0.22514 -0.16391,-0.50037 v -0.50038 l -0.93348,0.0493 -0.93369,0.049 -0.48765,2.66628 -0.48786,2.66604 h -0.52973 -0.52969 l -0.3605,1.92773 c -0.60686,3.24531 -0.66538,3.46365 -0.94356,3.51779 -0.14361,0.028 -0.3545,0.30928 -0.46841,0.62512 l -0.20693,0.57416 -0.0125,-0.9373 c -0.014,-1.05293 -0.44551,-2.29357 -1.17163,-3.36951 -0.41881,-0.62055 -0.48164,-0.86326 -0.48164,-1.86045 0,-0.84002 -0.092,-1.32697 -0.34344,-1.82005 -0.31007,-0.6078 -0.31528,-0.66238 -0.0541,-0.56214 0.38063,0.14606 0.55504,-0.15377 0.56263,-0.96664 0.006,-0.77351 0.4589,-1.83513 0.97696,-2.2964 0.48709,-0.4337 0.76273,-0.99659 0.9039,-1.84626 z m -20.20527,1.57348 0.25331,0.3617 c 0.22045,0.31474 0.40352,0.36171 1.41005,0.36171 0.85665,0 1.137,0.0531 1.08055,0.20501 -0.0419,0.1128 -0.28431,1.33101 -0.53859,2.70714 l -0.46241,2.50214 h -0.52752 -0.52779 l -0.3605,1.92772 c -0.60688,3.24531 -0.66538,3.46365 -0.94356,3.5178 -0.14361,0.028 -0.35426,0.30927 -0.46818,0.62512 -0.11392,0.3158 -0.21249,0.46341 -0.21918,0.32805 -0.006,-0.13536 -0.12871,-2.19698 -0.27112,-4.58152 -0.33034,-5.53179 -0.16447,-6.65831 1.12167,-7.61696 z m 30.52672,0.0134 0.44415,0.33119 c 1.28593,0.95847 1.44172,2.04972 1.10433,7.74121 -0.14748,2.48802 -0.29393,4.54931 -0.3254,4.5808 -0.0315,0.0315 -0.10905,-0.17837 -0.17233,-0.46649 -0.0674,-0.30708 -0.24031,-0.55664 -0.41772,-0.60301 -0.2135,-0.0558 -0.35145,-0.3279 -0.46816,-0.9236 -0.0909,-0.46439 -0.32636,-1.67491 -0.52319,-2.69008 l -0.35787,-1.84578 h -0.52467 -0.52441 l -0.48908,-2.66605 -0.48909,-2.66628 1.07768,-0.0447 c 0.86654,-0.036 1.13508,-0.11339 1.37159,-0.39584 z"
       id="path836"
       inkscape:connector-curvature="0" />
  </g>
</svg>
