<?xml version="1.0" encoding="UTF-8" standalone="no"?>
<!-- Created with Inkscape (http://www.inkscape.org/) -->

<svg
   xmlns:dc="http://purl.org/dc/elements/1.1/"
   xmlns:cc="http://creativecommons.org/ns#"
   xmlns:rdf="http://www.w3.org/1999/02/22-rdf-syntax-ns#"
   xmlns:svg="http://www.w3.org/2000/svg"
   xmlns="http://www.w3.org/2000/svg"
   xmlns:sodipodi="http://sodipodi.sourceforge.net/DTD/sodipodi-0.dtd"
   xmlns:inkscape="http://www.inkscape.org/namespaces/inkscape"
   sodipodi:docname="sprite-polaris 3.svg"
   id="svg8"
   version="1.1"
   viewBox="0 0 158.20829 158.20826"
   height="158.20825mm"
   width="158.2083mm"
   inkscape:version="0.92.4 (5da689c313, 2019-01-14)"
   inkscape:export-filename="D:\GitHub\Novalike-Art-Pack-Source\Outlines Ships\sprite-polaris 4.png"
   inkscape:export-xdpi="96"
   inkscape:export-ydpi="96">
  <defs
     id="defs2" />
  <sodipodi:namedview
     id="base"
     pagecolor="#ffffff"
     bordercolor="#666666"
     borderopacity="1.0"
     inkscape:pageopacity="0.0"
     inkscape:pageshadow="2"
     inkscape:zoom="0.12374369"
     inkscape:cx="3167.7189"
     inkscape:cy="447.82532"
     inkscape:document-units="mm"
     inkscape:current-layer="layer1"
     showgrid="false"
     inkscape:window-width="1920"
     inkscape:window-height="1017"
     inkscape:window-x="-8"
     inkscape:window-y="-8"
     inkscape:window-maximized="1" />
  <metadata
     id="metadata5">
    <rdf:RDF>
      <cc:Work
         rdf:about="">
        <dc:format>image/svg+xml</dc:format>
        <dc:type
           rdf:resource="http://purl.org/dc/dcmitype/StillImage" />
        <dc:title />
      </cc:Work>
    </rdf:RDF>
  </metadata>
  <g
     inkscape:label="Layer 1"
     inkscape:groupmode="layer"
     id="layer1"
     transform="translate(2034.3036,228.576)">
    <path
       style="fill:#000000;stroke-width:0.1977603"
       d="M -2034.3036,-149.47187 V -228.576 h 16.4141 16.414 v 79.10413 79.10412 h -16.414 -16.4141 z"
       id="path832"
       inkscape:connector-curvature="0" />
    <path
       style="fill:#000000;stroke-width:0.1977603"
       d="M -1908.9235,-149.47187 V -228.576 h 16.414 16.4142 v 79.10413 79.10412 h -16.4142 -16.414 z"
       id="path830"
       inkscape:connector-curvature="0" />
    <path
       style="fill:#000000;stroke-width:0.1977603"
       d="m -1959.4202,-72.855851 c -3.0496,-0.738226 -6.3538,-3.122698 -11.6115,-8.378641 -5.3636,-5.361895 -8.5895,-9.494467 -9.9024,-12.685424 -0.3372,-0.818946 -0.4434,-1.485316 -0.4545,-2.848828 -0.014,-1.619238 0.043,-1.895849 0.6202,-3.065295 0.3486,-0.706981 1.7488,-2.697431 3.1113,-4.423161 2.5842,-3.27259 3.4668,-4.56712 4.8066,-7.04693 0.915,-1.6934 1.1608,-2.37314 0.8582,-2.37314 -0.4575,0 -2.9642,-1.71171 -4.2517,-2.90301 -3.4344,-3.17852 -5.4537,-7.75352 -6.5746,-14.89541 -0.5093,-3.24594 -0.5129,-11.61107 -0.014,-14.83203 1.0681,-6.78948 3.1136,-11.53731 6.2741,-14.56165 1.0535,-1.00812 2.8167,-2.29919 3.4103,-2.49701 0.3846,-0.12826 -1.283,-2.90316 -3.297,-5.48601 -0.5512,-0.70699 -1.9309,-2.39784 -3.0659,-3.75745 -3.4533,-4.13648 -4.688,-6.37541 -5.1724,-9.37776 -1.0171,-6.30497 2.0723,-14.63881 9.6103,-25.92245 6.7573,-10.11572 12.2129,-15.722 16.3793,-16.83136 1.3365,-0.35588 5.6372,-0.35588 6.9738,0 4.1286,1.09939 9.6487,6.75899 16.3509,16.76466 8.6427,12.90224 11.5273,22.26372 8.8712,28.79 -0.7336,1.80287 -2.0231,3.72255 -4.4767,6.66474 -2.5376,3.04297 -3.796,4.6561 -4.7918,6.14162 -0.8209,1.22449 -1.7179,2.87196 -1.6064,2.95037 0.035,0.0246 0.5081,0.29813 1.0518,0.6081 1.3737,0.78287 3.5211,2.8936 4.672,4.59195 1.8781,2.77161 3.2733,6.86461 4.0643,11.92225 0.5066,3.23958 0.5053,11.60667 0,14.83203 -1.1172,7.09835 -3.0887,11.58207 -6.5216,14.83203 -1.1277,1.06745 -3.5727,2.76064 -4.3708,3.02664 -0.2679,0.0892 1.4181,3.37795 2.7574,5.37817 0.5825,0.87013 2.0389,2.8214 3.2359,4.33613 3.2597,4.124006 3.9646,5.916634 3.3985,8.643098 -0.6123,2.949833 -3.7692,7.393641 -9.3099,13.104888 -5.507,5.676764 -9.4081,8.536783 -12.7039,9.313877 -1.6222,0.382486 -6.7228,0.373305 -8.3267,-0.01492 z"
       id="path826"
       inkscape:connector-curvature="0" />
  </g>
</svg>
