<?xml version="1.0" encoding="UTF-8" standalone="no"?>
<svg
   xmlns:dc="http://purl.org/dc/elements/1.1/"
   xmlns:cc="http://creativecommons.org/ns#"
   xmlns:rdf="http://www.w3.org/1999/02/22-rdf-syntax-ns#"
   xmlns:svg="http://www.w3.org/2000/svg"
   xmlns="http://www.w3.org/2000/svg"
   xmlns:sodipodi="http://sodipodi.sourceforge.net/DTD/sodipodi-0.dtd"
   xmlns:inkscape="http://www.inkscape.org/namespaces/inkscape"
   sodipodi:docname="starbridge-civilian 3.svg"
   id="svg8"
   version="1.1"
   viewBox="0 0 87.076698 87.076698"
   height="87.076698mm"
   width="87.076698mm"
   inkscape:version="1.0 (4035a4fb49, 2020-05-01)"
   inkscape:export-filename="D:\GitHub\wills-spaceships\Outlines Ships\starbridge-civ 4.png"
   inkscape:export-xdpi="96"
   inkscape:export-ydpi="96">
  <defs
     id="defs2" />
  <sodipodi:namedview
     inkscape:document-rotation="0"
     inkscape:window-maximized="1"
     inkscape:window-y="-8"
     inkscape:window-x="68"
     inkscape:window-height="1057"
     inkscape:window-width="1844"
     showgrid="false"
     inkscape:current-layer="layer1"
     inkscape:document-units="mm"
     inkscape:cy="65.097308"
     inkscape:cx="132.68731"
     inkscape:zoom="0.7"
     inkscape:pageshadow="2"
     inkscape:pageopacity="0.0"
     borderopacity="1.0"
     bordercolor="#666666"
     pagecolor="#ffffff"
     id="base" />
  <metadata
     id="metadata5">
    <rdf:RDF>
      <cc:Work
         rdf:about="">
        <dc:format>image/svg+xml</dc:format>
        <dc:type
           rdf:resource="http://purl.org/dc/dcmitype/StillImage" />
        <dc:title />
      </cc:Work>
    </rdf:RDF>
  </metadata>
  <g
     transform="translate(726.336, -155.64)"
     id="layer1"
     inkscape:groupmode="layer"
     inkscape:label="Layer 1">
    <path
       inkscape:connector-curvature="0"
       id="path4539"
       d="m -726.33584,199.17871 v -43.53836 h 5.49672 5.49673 v 43.53836 43.53834 h -5.49673 -5.49672 z"
       style="fill:#000000;stroke-width:0.10884587" />
    <path
       inkscape:connector-curvature="0"
       id="path4537"
       d="m -650.25256,199.17871 v -43.53836 h 5.49671 5.49671 v 43.53836 43.53834 h -5.49671 -5.49671 z"
       style="fill:#000000;stroke-width:0.10884587" />
    <path
       id="path4535"
       d="m -682.79749,157.57807 c -1.84976,0 -3.69954,0.5428 -4.90715,1.62855 -0.55009,0.49457 -0.66295,0.7381 -0.86961,1.87601 -0.0707,0.38911 -0.19086,0.75825 -0.26706,0.82032 -0.10204,0.083 -0.81346,3.22319 -0.81346,3.59047 0,0.0285 -0.067,0.0518 -0.1491,0.0518 -0.10203,0 -0.2249,0.36919 -0.3895,1.17015 -0.13227,0.64355 -0.45637,2.12099 -0.72022,3.28324 -0.34634,1.5258 -0.44764,2.15186 -0.36431,2.25228 0.0836,0.10092 -0.0846,0.9244 -0.61433,3.00261 -0.40142,1.57495 -0.78073,3.0717 -0.84282,3.32613 -0.062,0.25442 -0.17479,0.46254 -0.25047,0.46254 -0.0757,0 -0.16352,0.0858 -0.19516,0.19054 -0.0316,0.10479 -0.33006,1.1701 -0.66314,2.3674 -0.33306,1.1973 -0.83609,2.90786 -1.11769,3.80126 -0.32464,1.02992 -0.46841,1.63879 -0.39302,1.66394 0.23171,0.0772 -1.98106,6.47901 -2.34348,6.77996 -0.10813,0.0899 -0.32962,0.53063 -0.49219,0.9796 -0.16258,0.44899 -0.73697,1.83625 -1.2765,3.08282 -0.54243,1.25325 -0.95204,2.34173 -0.91633,2.43484 0.16217,0.42253 -4.75013,9.25776 -5.1632,9.28657 -0.0897,0.007 -0.65314,0.65703 -1.25178,1.44613 -0.65777,0.86702 -1.68064,2.01665 -2.58503,2.90535 l -1.49653,1.47054 0.96509,3.69603 c 0.53078,2.03275 1.01266,3.71173 1.07083,3.73111 0.0581,0.0193 0.86059,0.61146 1.78319,1.3157 0.9226,0.70428 2.37557,1.78442 3.22871,2.40026 0.98916,0.71401 1.56971,1.20514 1.60255,1.35573 0.0283,0.12989 0.39698,2.93012 0.81905,6.22269 0.42209,3.29261 0.79621,6.14656 0.83149,6.34216 l 0.0643,0.35554 2.6815,-0.0289 2.6815,-0.0291 0.0299,-1.60543 0.0301,-1.60541 h 0.60076 c 0.55342,0 0.61558,0.0256 0.78638,0.32573 0.18228,0.32036 0.20045,0.32592 1.08052,0.32653 0.88064,5.8e-4 0.89782,0.006 1.06094,0.32146 0.38059,0.73595 1.03717,1.1531 1.03717,0.65895 0,-0.29678 0.28372,-0.27625 0.37374,0.027 l 0.0727,0.2449 0.1,-0.2449 c 0.12994,-0.31898 0.5036,-0.31999 0.6046,-0.002 l 0.0771,0.24316 0.09,-0.24316 c 0.11853,-0.3204 0.51079,-0.3204 0.62932,0 l 0.09,0.24316 0.0771,-0.24316 c 0.0959,-0.30199 0.38904,-0.32124 0.38904,-0.0256 0,0.44984 0.54228,0.0928 1.03254,-0.68019 0.18212,-0.28706 0.22667,-0.29941 1.08931,-0.29941 0.89681,0 0.89978,-8.3e-4 1.03463,-0.32655 0.12413,-0.29973 0.1789,-0.32654 0.6663,-0.32654 0.32366,0 0.53111,0.0482 0.53111,0.12357 0,0.23364 0.552,0.6384 0.8707,0.6384 0.31871,0 0.87072,-0.40476 0.87072,-0.6384 0,-0.0754 0.20747,-0.12357 0.53111,-0.12357 0.48592,0 0.54232,0.0274 0.66455,0.32257 0.13179,0.31812 0.14619,0.32275 1.07161,0.35363 0.8562,0.0286 0.94885,0.0533 1.06317,0.28319 0.17425,0.3504 0.70856,0.89109 0.88059,0.89109 0.0786,0 0.14287,-0.098 0.14287,-0.21779 0,-0.29574 0.29319,-0.27649 0.38903,0.0256 l 0.0771,0.24316 0.0899,-0.24316 c 0.0535,-0.14402 0.18145,-0.24313 0.31459,-0.24313 0.13312,0 0.26144,0.0991 0.31474,0.24313 l 0.0899,0.24316 0.0771,-0.24316 c 0.10101,-0.31817 0.47465,-0.31716 0.60459,0.002 l 0.1,0.2449 0.0727,-0.2449 c 0.0901,-0.30336 0.37371,-0.32392 0.37371,-0.027 0,0.49415 0.65661,0.0769 1.03718,-0.65895 0.1635,-0.31619 0.17854,-0.32067 1.07497,-0.32067 0.90759,0 0.90948,-5.5e-4 1.04451,-0.32653 0.12848,-0.31021 0.16707,-0.32652 0.77216,-0.32652 h 0.63697 l 0.0301,1.60541 0.0301,1.60543 2.6815,0.0291 2.68134,0.0289 0.0649,-0.35554 c 0.0355,-0.1956 0.40922,-3.04955 0.83054,-6.34216 0.42132,-3.29257 0.78929,-6.0916 0.81779,-6.21998 0.0328,-0.14784 0.70073,-0.70533 1.82145,-1.52044 0.97326,-0.70784 2.38834,-1.76048 3.14468,-2.33919 0.75636,-0.5787 1.46351,-1.10156 1.57145,-1.162 0.14758,-0.0826 0.43457,-1.02455 1.15645,-3.79489 l 0.96033,-3.68502 -1.44853,-1.41504 c -0.81533,-0.79648 -1.9574,-2.06918 -2.61279,-2.91158 -0.6404,-0.82314 -1.22581,-1.49851 -1.30089,-1.50067 -0.38625,-0.0115 -5.29256,-8.87464 -5.13707,-9.27987 0.0348,-0.0908 -0.3971,-1.23501 -0.95984,-2.54278 -0.56274,-1.30776 -1.13702,-2.69607 -1.27618,-3.08521 -0.13915,-0.38912 -0.34136,-0.7809 -0.4493,-0.8707 -0.36251,-0.30154 -2.57433,-6.70261 -2.34269,-6.7798 0.0755,-0.0253 -0.0685,-0.63403 -0.39367,-1.6641 -0.28198,-0.8934 -0.78523,-2.60396 -1.11831,-3.80126 -0.33308,-1.1973 -0.63121,-2.26264 -0.66249,-2.3674 -0.0312,-0.10482 -0.12132,-0.19054 -0.2001,-0.19054 -0.0788,0 -0.16702,-0.11021 -0.19612,-0.2449 -0.029,-0.1347 -0.4053,-1.6321 -0.83595,-3.32757 -0.56356,-2.21865 -0.75108,-3.12118 -0.66886,-3.22025 0.0817,-0.0985 -0.022,-0.73829 -0.36545,-2.25084 -0.26383,-1.16225 -0.58792,-2.63969 -0.7202,-3.28324 -0.1646,-0.80096 -0.28745,-1.17015 -0.38951,-1.17015 -0.082,0 -0.14908,-0.0231 -0.14908,-0.0518 0,-0.36728 -0.71144,-3.50734 -0.81349,-3.59047 -0.0762,-0.0619 -0.19637,-0.43121 -0.26704,-0.82032 -0.20668,-1.13791 -0.31952,-1.38144 -0.86962,-1.87601 -1.2076,-1.08575 -3.05738,-1.62855 -4.90714,-1.62855 z"
       style="fill:#000000;stroke-width:0.108846" />
    <text
       x="-591.46149"
       y="192.43806"
       id="text27"><tspan
         y="192.43806"
         x="-591.46149"
         sodipodi:role="line"
         style="font-style:normal;font-weight:normal;font-size:3.175px;text-align:center;text-anchor:start;fill:#000000;fill-opacity:1;stroke:none"
         dy="3.175"
         id="tspan25">37382.29 px<tspan
   style="font-size:65%;baseline-shift:super"
   id="tspan23">2</tspan></tspan></text>
  </g>
</svg>
