<?xml version="1.0" encoding="UTF-8" standalone="no"?>
<!-- Created with Inkscape (http://www.inkscape.org/) -->

<svg
   xmlns:dc="http://purl.org/dc/elements/1.1/"
   xmlns:cc="http://creativecommons.org/ns#"
   xmlns:rdf="http://www.w3.org/1999/02/22-rdf-syntax-ns#"
   xmlns:svg="http://www.w3.org/2000/svg"
   xmlns="http://www.w3.org/2000/svg"
   xmlns:sodipodi="http://sodipodi.sourceforge.net/DTD/sodipodi-0.dtd"
   xmlns:inkscape="http://www.inkscape.org/namespaces/inkscape"
   sodipodi:docname="striker-polaris 3.svg"
   id="svg8"
   version="1.1"
   viewBox="0 0 88.873902 88.873934"
   height="88.873932mm"
   width="88.873901mm"
   inkscape:version="0.92.4 (5da689c313, 2019-01-14)"
   inkscape:export-filename="D:\GitHub\Novalike-Art-Pack-Source\Outlines Ships\striker-polaris 4.png"
   inkscape:export-xdpi="96"
   inkscape:export-ydpi="96">
  <defs
     id="defs2" />
  <sodipodi:namedview
     id="base"
     pagecolor="#ffffff"
     bordercolor="#666666"
     borderopacity="1.0"
     inkscape:pageopacity="0.0"
     inkscape:pageshadow="2"
     inkscape:zoom="0.16"
     inkscape:cx="-109.96708"
     inkscape:cy="390.80987"
     inkscape:document-units="mm"
     inkscape:current-layer="layer1"
     showgrid="false"
     inkscape:window-width="1920"
     inkscape:window-height="1017"
     inkscape:window-x="-8"
     inkscape:window-y="-8"
     inkscape:window-maximized="1" />
  <metadata
     id="metadata5">
    <rdf:RDF>
      <cc:Work
         rdf:about="">
        <dc:format>image/svg+xml</dc:format>
        <dc:type
           rdf:resource="http://purl.org/dc/dcmitype/StillImage" />
        <dc:title />
      </cc:Work>
    </rdf:RDF>
  </metadata>
  <g
     inkscape:label="Layer 1"
     inkscape:groupmode="layer"
     id="layer1"
     transform="translate(12.412348,104.84601)">
    <path
       style="fill:#000000;stroke-width:0.11109243"
       d="m -12.412348,-60.409047 v -44.436963 h 6.776645 6.7766456 v 44.436963 44.436966 h -6.7766456 -6.776645 z"
       id="path833"
       inkscape:connector-curvature="0" />
    <path
       style="fill:#000000;stroke-width:0.11109243"
       d="m 62.908331,-60.409047 v -44.436963 h 6.776644 6.776577 v 44.436963 44.436966 h -6.776577 -6.776644 z"
       id="path831"
       inkscape:connector-curvature="0" />
    <path
       style="fill:#000000;stroke-width:0.11109243"
       d="m 19.06177,-19.689635 c -0.496725,-0.216029 -0.66333,-0.617239 -0.792745,-1.908739 -0.06176,-0.61816 -0.179229,-1.23229 -0.26061,-1.364731 -0.08144,-0.132439 -0.472985,-0.398285 -0.870145,-0.590767 -1.109347,-0.537628 -1.784686,-0.99382 -2.599182,-1.755721 -1.934204,-1.809366 -3.859694,-5.095874 -5.6590634,-9.659288 C 6.4795609,-41.056835 5.3584799,-45.752529 4.7028348,-52.465935 4.4547121,-55.006024 4.3288667,-55.805342 3.8191721,-58.076103 3.065678,-61.433265 2.4851006,-65.699948 2.1186118,-70.574002 l -0.033624,-0.444369 0.4928145,-0.05558 0.4928834,-0.05557 0.478199,-2.055206 c 0.8391296,-3.605849 1.5706662,-5.487621 2.3874261,-6.141324 l 0.4074539,-0.326093 0.4064245,0.317537 c 0.8896325,0.69505 1.8592048,3.410952 2.7159692,7.607895 0.1263943,0.619018 0.1317465,0.625384 0.5761176,0.684987 0.246682,0.03308 0.475386,0.08695 0.508047,0.11969 0.03293,0.03274 0.150479,0.67433 0.261504,1.425766 0.436891,2.954726 1.381898,5.234592 3.000871,7.239466 1.840951,2.279773 4.004065,3.385621 6.390601,3.267124 0.716921,-0.03562 0.998186,-0.103195 1.388691,-0.333744 1.402689,-0.828185 2.50593,-2.866044 3.103455,-5.732698 1.161085,-5.570334 1.458202,-8.656347 2.055178,-21.348599 0.606857,-12.900822 1.380663,-16.29593 3.873005,-16.99373 0.312762,-0.0875 0.949605,-0.1241 1.710098,-0.098 1.116622,0.0382 1.254406,0.0679 1.756484,0.37681 1.916364,1.17943 2.601035,4.594104 3.151419,15.715168 0.122484,2.474578 0.275227,5.549063 0.339453,6.832178 0.345698,6.903142 0.805781,10.922058 1.780982,15.556642 0.597318,2.838823 1.701452,4.869662 3.094808,5.69231 0.390504,0.230548 0.671771,0.298144 1.388691,0.333742 2.926215,0.145294 5.636008,-1.639949 7.550451,-4.974372 0.964014,-1.678953 1.508567,-3.317077 1.8391,-5.532216 0.112121,-0.751436 0.230625,-1.393029 0.263355,-1.425766 0.03293,-0.03274 0.261366,-0.08659 0.508117,-0.11969 0.444507,-0.05963 0.449654,-0.06573 0.575156,-0.684986 0.841943,-4.154601 1.826886,-6.912564 2.716861,-7.607898 l 0.406425,-0.317537 0.395719,0.320302 c 0.835973,0.676581 1.499716,2.362181 2.35497,5.980478 l 0.525203,2.221851 0.491442,0.05558 0.491442,0.05557 -0.03362,0.444371 c -0.365872,4.866223 -0.944733,9.123572 -1.699257,12.497897 -0.537554,2.403736 -0.63801,3.033341 -0.877831,5.499073 -0.299243,3.076736 -0.597868,5.143764 -1.075312,7.443188 -1.266963,6.101424 -4.072547,13.393788 -6.603384,17.163779 -1.493129,2.224196 -2.660939,3.334038 -4.486039,4.263536 -0.549974,0.280051 -1.066531,0.616067 -1.147912,0.74671 -0.08145,0.130634 -0.198717,0.743284 -0.260679,1.361443 -0.130992,1.307954 -0.296773,1.696037 -0.817102,1.913454 -0.804753,0.336249 -1.492786,0.105807 -2.082421,-0.697476 -0.496175,-0.675873 -1.398778,-1.320615 -2.763453,-1.973927 -4.521446,-2.164485 -11.960872,-2.128536 -16.368962,0.07908 -1.256876,0.62946 -2.111649,1.25733 -2.579624,1.894838 -0.589086,0.802502 -1.309712,1.039454 -2.106848,0.692762 z"
       id="path827"
       inkscape:connector-curvature="0" />
  </g>
</svg>
