<?xml version="1.0" encoding="UTF-8" standalone="no"?>
<!-- Created with Inkscape (http://www.inkscape.org/) -->

<svg
   sodipodi:docname="Tekel-Sho 3.svg"
   id="svg8"
   version="1.1"
   viewBox="0 0 156.63361 73.6551"
   height="73.655098mm"
   width="156.63361mm"
   inkscape:version="1.2.1 (9c6d41e410, 2022-07-14)"
   inkscape:export-filename="Tekel-Sho 4.png"
   inkscape:export-xdpi="96"
   inkscape:export-ydpi="96"
   xml:space="preserve"
   xmlns:inkscape="http://www.inkscape.org/namespaces/inkscape"
   xmlns:sodipodi="http://sodipodi.sourceforge.net/DTD/sodipodi-0.dtd"
   xmlns="http://www.w3.org/2000/svg"
   xmlns:svg="http://www.w3.org/2000/svg"
   xmlns:rdf="http://www.w3.org/1999/02/22-rdf-syntax-ns#"
   xmlns:cc="http://creativecommons.org/ns#"
   xmlns:dc="http://purl.org/dc/elements/1.1/"><defs
     id="defs2" /><sodipodi:namedview
     id="base"
     pagecolor="#ffffff"
     bordercolor="#666666"
     borderopacity="1.0"
     inkscape:pageopacity="0.0"
     inkscape:pageshadow="2"
     inkscape:zoom="0.64"
     inkscape:cx="487.5"
     inkscape:cy="66.40625"
     inkscape:document-units="mm"
     inkscape:current-layer="layer1"
     showgrid="false"
     inkscape:window-width="1350"
     inkscape:window-height="1040"
     inkscape:window-x="531"
     inkscape:window-y="3"
     inkscape:window-maximized="0"
     inkscape:showpageshadow="2"
     inkscape:pagecheckerboard="0"
     inkscape:deskcolor="#d1d1d1" /><metadata
     id="metadata5"><rdf:RDF><cc:Work
         rdf:about=""><dc:format>image/svg+xml</dc:format><dc:type
           rdf:resource="http://purl.org/dc/dcmitype/StillImage" /></cc:Work></rdf:RDF></metadata><g
     inkscape:label="Layer 1"
     inkscape:groupmode="layer"
     id="layer1"
     transform="translate(389.03018,443.07202)"><path
       style="fill:#000000;stroke-width:0.466172"
       d="m -388.71939,-437.78874 c -0.17094,-0.17093 -0.31079,-1.42959 -0.31079,-2.79703 v -2.48625 h 78.31679 78.31681 v 2.79703 2.79702 h -78.00602 c -42.9033,0 -78.14587,-0.13985 -78.31679,-0.31077 z"
       id="path462" /><path
       style="fill:#000000;stroke-width:0.466172"
       d="m -334.37158,-386.3632 -22.95894,-7.51907 v -5.71493 -5.71493 h -2.54351 -2.54354 l -0.13696,3.36645 -0.13697,3.36643 -1.98122,0.39037 c -1.7933,0.35333 -1.98123,0.52042 -1.98123,1.76144 v 1.37108 h -8.85725 -8.85726 v -11.88737 c 0,-9.9032 0.10941,-11.88736 0.6555,-11.88736 0.6517,0 0.74912,-0.46682 1.48862,-7.13237 l 0.29997,-2.70371 2.1577,0.13979 2.15769,0.13976 0.41321,4.77825 c 0.41838,4.83838 1.2184,6.56975 1.2184,2.63686 0,-1.71124 0.17779,-2.18792 0.88505,-2.37287 0.76298,-0.19953 0.92998,-0.85894 1.21064,-4.78025 0.17907,-2.50186 0.48393,-4.80501 0.67745,-5.11814 0.20855,-0.33747 1.09121,-0.50874 2.1672,-0.42054 2.01375,0.16506 1.93717,-0.0428 2.75918,7.49101 0.20463,1.87531 0.49244,2.68049 0.95819,2.68049 0.48782,0 0.66571,0.62105 0.66571,2.32414 v 2.32415 l 2.09777,0.52821 2.09776,0.52823 v 3.20787 3.20785 h 2.56396 2.56394 v -5.59406 c 0,-3.07673 0.14033,-5.59405 0.31184,-5.59405 0.17152,0 3.20026,0.944 6.73053,2.09776 3.53027,1.15378 6.64148,2.09778 6.9138,2.09778 0.31056,0 0.49514,-1.47707 0.49514,-3.96246 v -3.96245 h 9.32343 9.32343 v 7.1339 7.1339 l 3.17974,1.02409 c 1.74884,0.56326 3.32217,1.0241 3.49627,1.0241 0.17412,0 0.31657,-3.53519 0.31657,-7.85597 0,-7.39139 0.0625,-7.94966 1.05817,-9.43998 2.88594,-4.31998 8.28935,-4.07895 11.4119,0.50905 0.98215,1.44306 1.04889,2.02621 1.04889,9.16402 0,4.19257 0.16906,7.62288 0.37566,7.62288 0.2066,0 1.66968,-0.437 3.25126,-0.9711 l 2.87561,-0.97111 0.12846,-7.07036 0.12844,-7.07034 h 9.32342 9.32343 l 0.13539,3.84592 c 0.0745,2.11525 0.26725,3.84591 0.4284,3.84591 0.16115,0 3.18142,-0.944 6.71168,-2.09778 3.53025,-1.15376 6.64147,-2.09776 6.9138,-2.09776 0.32189,0 0.49514,1.95731 0.49514,5.59405 v 5.59406 h 2.33086 2.33085 v -3.23576 -3.23578 l 1.98122,-0.38959 c 1.96716,-0.38682 1.98224,-0.40521 2.12321,-2.58858 0.10016,-1.55172 0.39229,-2.33296 0.9924,-2.65414 0.6889,-0.36867 0.91252,-1.28309 1.17723,-4.81376 0.17973,-2.39723 0.48872,-4.62063 0.68663,-4.94088 0.21719,-0.35139 1.08038,-0.52326 2.1771,-0.43346 l 1.81723,0.1488 0.3601,3.03012 c 0.80047,6.73557 0.85682,6.99258 1.53315,6.99258 0.49406,0 0.67069,0.61388 0.67069,2.33086 0,1.28196 0.19009,2.33086 0.42244,2.33086 0.40229,0 0.57074,-0.95607 1.25262,-7.10914 l 0.29706,-2.68047 h 2.01265 c 2.36754,0 2.35316,-0.0292 2.79687,5.66975 0.2671,3.43053 0.44817,4.07314 1.20325,4.2706 0.84855,0.2219 0.88318,0.75741 0.76407,11.81168 l -0.12474,11.57923 h -8.85726 -8.85725 l -0.14281,-1.23325 c -0.11932,-1.03096 -0.48258,-1.3188 -2.21432,-1.75486 l -2.0715,-0.5216 v -3.25649 -3.25649 h -2.31651 -2.3165 l -0.13096,5.699 -0.13082,5.69898 -23.30857,7.58264 c -12.81973,4.17045 -23.51836,7.56121 -23.77474,7.53501 -0.2564,-0.0262 -10.7977,-3.4312 -23.42513,-7.5667 z"
       id="path460" /><path
       style="fill:#000000;stroke-width:0.466172"
       d="m -389.03018,-371.98088 v -2.56392 h 78.31679 78.31681 v 2.56392 2.56396 h -78.31681 -78.31679 z"
       id="path456" /></g></svg>
