<?xml version="1.0" encoding="UTF-8" standalone="no"?>
<!-- Created with Inkscape (http://www.inkscape.org/) -->

<svg
   sodipodi:docname="Tekel-Dai 3.svg"
   id="svg8"
   version="1.1"
   viewBox="0 0 380.05899 90.739069"
   height="90.739067mm"
   width="380.05899mm"
   inkscape:version="1.2.1 (9c6d41e410, 2022-07-14)"
   inkscape:export-filename="Tekel-Dai 4.png"
   inkscape:export-xdpi="96"
   inkscape:export-ydpi="96"
   xml:space="preserve"
   xmlns:inkscape="http://www.inkscape.org/namespaces/inkscape"
   xmlns:sodipodi="http://sodipodi.sourceforge.net/DTD/sodipodi-0.dtd"
   xmlns="http://www.w3.org/2000/svg"
   xmlns:svg="http://www.w3.org/2000/svg"
   xmlns:rdf="http://www.w3.org/1999/02/22-rdf-syntax-ns#"
   xmlns:cc="http://creativecommons.org/ns#"
   xmlns:dc="http://purl.org/dc/elements/1.1/"><defs
     id="defs2" /><sodipodi:namedview
     id="base"
     pagecolor="#ffffff"
     bordercolor="#666666"
     borderopacity="1.0"
     inkscape:pageopacity="0.0"
     inkscape:pageshadow="2"
     inkscape:zoom="0.32"
     inkscape:cx="984.375"
     inkscape:cy="-326.5625"
     inkscape:document-units="mm"
     inkscape:current-layer="layer1"
     showgrid="false"
     inkscape:window-width="1350"
     inkscape:window-height="1040"
     inkscape:window-x="531"
     inkscape:window-y="3"
     inkscape:window-maximized="0"
     inkscape:showpageshadow="2"
     inkscape:pagecheckerboard="0"
     inkscape:deskcolor="#d1d1d1" /><metadata
     id="metadata5"><rdf:RDF><cc:Work
         rdf:about=""><dc:format>image/svg+xml</dc:format><dc:type
           rdf:resource="http://purl.org/dc/dcmitype/StillImage" /></cc:Work></rdf:RDF></metadata><g
     inkscape:label="Layer 1"
     inkscape:groupmode="layer"
     id="layer1"
     transform="translate(490.16715,263.06718)"><path
       style="fill:#000000;stroke-width:0.475074"
       d="m -490.16715,-260.21674 v -2.85044 h 190.0295 190.02949 v 2.85044 2.85045 h -190.02949 -190.0295 z"
       id="path207" /><path
       style="fill:#000000;stroke-width:0.475074"
       d="m -490.16715,-174.94101 v -2.6129 h 190.0295 190.02949 v 2.6129 2.6129 h -190.02949 -190.0295 z"
       id="path201" /><path
       style="fill:#000000;stroke-width:0.475074"
       d="m -305.14802,-181.89001 c -21.38537,-2.00769 -39.53243,-8.60059 -47.80431,-17.36748 -2.90416,-3.07794 -3.89446,-4.8658 -4.28881,-7.74297 -0.28252,-2.06108 -0.35742,-2.14602 -1.89233,-2.14602 -1.1039,0 -1.59819,-0.22041 -1.59819,-0.71262 0,-0.50277 -0.50864,-0.7126 -1.72734,-0.7126 h -1.72733 l 0.27713,2.01905 c 0.15243,1.11049 0.41893,2.90485 0.59227,3.98747 l 0.31513,1.96841 -2.31883,0.49732 c -4.14737,0.88945 -15.53456,2.89066 -18.24736,3.20685 l -2.64572,0.30835 -0.61728,-3.49958 c -0.3395,-1.9248 -0.69772,-3.63769 -0.79605,-3.80644 -0.0984,-0.16877 -0.95259,-0.13238 -1.8984,0.0809 -1.47902,0.33358 -1.75303,0.26017 -1.95824,-0.52453 -0.13115,-0.5018 -0.28864,-0.91237 -0.34982,-0.91237 -0.56232,0 -3.10346,1.11622 -3.10346,1.36321 0,0.17606 0.41282,1.80889 0.91738,3.62852 0.50457,1.81961 0.86566,3.36013 0.80242,3.42338 -0.20074,0.20074 -7.88005,2.36658 -15.37544,4.33642 l -7.24214,1.90331 -0.69531,-2.45792 c -0.38243,-1.35186 -0.8344,-3.04581 -1.00439,-3.76437 -0.34504,-1.45853 -0.53143,-1.52045 -2.41762,-0.80334 -1.03797,0.39463 -1.43101,0.35573 -1.82307,-0.18044 -0.43446,-0.59413 -0.72886,-0.5922 -2.25055,0.0147 l -1.75071,0.69829 1.1675,3.10177 c 0.64211,1.70599 1.16751,3.3738 1.16751,3.70624 0,0.70732 -1.19017,1.20978 -12.54234,5.29508 -4.6773,1.68323 -8.74417,2.96832 -9.03746,2.85579 -0.2933,-0.11258 -1.04281,-1.67299 -1.66558,-3.46762 -0.62277,-1.79466 -1.18259,-3.32898 -1.24404,-3.40958 -0.0614,-0.0806 -0.90919,0.18659 -1.88386,0.59382 -1.02194,0.42701 -3.15531,0.74044 -5.03961,0.74044 -3.16861,0 -3.2675,-0.0361 -3.2675,-1.18767 0,-1.06891 -0.19003,-1.18768 -1.9003,-1.18768 -1.85505,0 -1.90028,0.0397 -1.90028,1.66274 v 1.66276 h -2.85046 -2.85045 v -2.37534 -2.37538 h -1.66274 -1.66276 v 2.37538 2.37534 h -2.85045 -2.85045 l 0.015,-7.95746 c 0.0121,-6.24345 0.16537,-8.15613 0.71261,-8.87968 0.55431,-0.73285 0.69751,-2.70782 0.69751,-9.62024 v -8.69806 h 1.42522 1.42521 v 6.23414 c 0,5.48757 0.0854,6.16328 0.71262,5.64269 0.62676,-0.52016 0.71262,0.10238 0.71262,5.16767 v 5.75903 h 1.66275 1.66275 v -4.42239 c 0,-3.15299 0.2002,-4.6871 0.6975,-5.34457 0.55452,-0.73315 0.70061,-2.75438 0.71262,-9.85991 l 0.015,-8.93775 1.54398,0.14888 1.54399,0.14886 0.1348,6.17596 c 0.0901,4.13449 0.28413,5.9404 0.58656,5.46335 0.2962,-0.46719 0.45428,2.02794 0.45905,7.24488 l 0.006,7.95748 h 1.90029 c 1.87811,0 1.90037,-0.0208 1.90626,-1.78154 l 0.005,-1.78151 15.19043,-5.46336 c 11.41079,-4.10397 15.1919,-5.65485 15.1964,-6.23299 0.004,-0.51436 0.7544,-0.9709 2.26256,-1.37648 1.24113,-0.33376 2.40417,-0.73568 2.58453,-0.89311 0.18036,-0.15746 -0.0868,-1.77814 -0.59385,-3.60152 -0.50696,-1.82338 -0.92176,-3.57703 -0.92176,-3.89702 0,-0.51897 2.72318,-1.56707 4.08939,-1.57395 0.28949,-0.002 0.71706,0.85779 0.95014,1.90944 l 0.42381,1.91209 1.83675,-1.25413 c 1.70335,-1.16304 1.81908,-1.38588 1.59346,-3.06794 -0.17807,-1.32769 -0.0551,-1.88599 0.45871,-2.08318 1.00309,-0.38491 2.52329,-0.33273 2.53185,0.0871 0.004,0.19596 0.19014,0.64485 0.41363,0.99753 0.32478,0.51252 0.7777,0.39552 2.25611,-0.58286 1.01736,-0.67325 2.85381,-1.52628 4.08099,-1.89561 l 2.23126,-0.67149 0.73998,2.54545 c 0.407,1.39999 0.86963,3.19371 1.02811,3.98603 0.32747,1.63734 0.34874,1.64309 3.22965,0.87258 1.54402,-0.41297 2.16189,-0.83367 2.26343,-1.54113 0.11149,-0.77742 0.64116,-1.05262 2.63374,-1.36851 2.83028,-0.4487 2.7578,-0.23378 1.82899,-5.42204 l -0.61517,-3.43636 1.70908,-0.28655 c 3.09792,-0.51943 3.12679,-0.5108 3.28962,0.9833 0.22394,2.05479 0.67898,2.29097 2.62558,1.36271 1.59772,-0.76191 1.7323,-0.98531 1.7323,-2.87592 0,-1.45283 0.19623,-2.04985 0.67375,-2.04985 0.37057,0 1.01192,-0.12981 1.42523,-0.28835 0.45652,-0.17518 0.75432,-0.0352 0.75873,0.3563 0.0203,1.79689 0.78349,1.97729 3.1453,0.7435 1.27093,-0.6639 3.1958,-1.33062 4.27749,-1.4816 1.96536,-0.27428 1.96691,-0.27326 2.27408,1.5043 0.16908,0.97832 0.52063,2.86338 0.78126,4.18903 l 0.47384,2.41031 2.6297,-0.47666 c 2.17359,-0.39397 2.5913,-0.62351 2.40829,-1.32334 -0.1881,-0.71928 0.20914,-0.8954 2.63965,-1.1704 l 2.86105,-0.32368 -0.25228,-2.78231 c -0.13877,-1.53028 -0.11219,-2.78328 0.059,-2.78447 0.17119,-0.002 4.90759,-0.42532 10.52533,-0.94251 5.61777,-0.51719 10.56723,-0.94379 10.99881,-0.94799 0.60826,-0.005 0.86025,0.64289 1.12045,2.88473 0.3084,2.65724 0.41841,2.8702 1.35309,2.6194 0.55958,-0.15014 1.60944,-0.27589 2.33304,-0.27946 1.204,-0.005 1.51382,-0.42982 3.65084,-4.99478 l 2.3352,-4.98826 h 1.93128 1.93128 v 8.66117 8.66119 l 4.64046,-4.62305 4.64047,-4.62307 h 14.94783 14.94782 l 4.64047,4.62307 4.64047,4.62305 v -8.66119 -8.66117 h 2.0426 2.04261 l 2.27423,4.9437 2.27421,4.94372 2.21543,0.18937 c 1.23825,0.10587 2.36939,-0.0317 2.56447,-0.31175 0.19199,-0.2756 0.35232,-1.51657 0.35632,-2.75771 0.005,-1.83049 0.16425,-2.25619 0.83864,-2.25446 0.45727,0.002 5.42773,0.42533 11.04546,0.94251 5.61775,0.5172 10.40204,0.94379 10.63177,0.94799 0.22972,0.004 0.27577,1.2619 0.10238,2.79489 l -0.31535,2.7872 2.86689,0.32435 c 2.34026,0.26478 2.86687,0.48366 2.86687,1.19152 0,0.59118 0.47253,0.96168 1.48461,1.1641 3.49254,0.69851 3.53259,0.66448 4.26201,-3.62243 l 0.66687,-3.91937 2.13784,0.15561 c 1.1758,0.0856 3.07333,0.67347 4.21674,1.30645 1.1434,0.63296 2.16416,1.15086 2.26835,1.15086 0.10428,0 0.3796,-0.50014 0.61201,-1.1114 0.34674,-0.91202 0.68553,-1.0728 1.88854,-0.89623 1.37124,0.20125 1.46599,0.34421 1.46599,2.2116 0,1.82324 0.15949,2.08606 1.83832,3.02965 l 1.83834,1.03318 0.25956,-1.9351 c 0.14275,-1.06431 0.33368,-2.00923 0.42431,-2.09985 0.27528,-0.27529 4.66586,0.77214 4.66578,1.11308 -5e-5,0.1748 -0.32071,1.99344 -0.7126,4.04142 -0.39191,2.04801 -0.71254,3.78744 -0.71254,3.86542 0,0.078 0.98936,0.29018 2.19857,0.47151 2.97733,0.44647 3.60194,0.7336 3.30116,1.51747 -0.26793,0.69821 0.69988,1.21206 3.38103,1.79509 1.46093,0.31769 1.53568,0.25839 2.01905,-1.60223 0.27609,-1.06267 0.7307,-2.81221 1.01028,-3.88784 l 0.50829,-1.9557 1.98583,0.31605 c 1.09221,0.17382 2.94785,0.94257 4.12367,1.70832 l 2.13783,1.39223 0.74784,-0.98427 c 0.48386,-0.63686 1.15462,-0.92683 1.9003,-0.82152 1.02019,0.14406 1.15245,0.40215 1.15245,2.24853 0,1.88938 0.16612,2.19095 1.76429,3.20276 l 1.76429,1.11699 0.51062,-1.89632 c 0.28085,-1.04297 0.6215,-1.89631 0.75702,-1.89631 0.32603,0 4.46772,1.04459 4.46772,1.12685 0,0.0352 -0.42757,1.55898 -0.95016,3.38636 -1.3566,4.7438 -1.35581,4.74629 1.67514,5.42458 1.94348,0.43493 2.59122,0.78233 2.49414,1.33767 -0.10164,0.58139 3.28875,2.00282 15.07121,6.31858 l 15.20236,5.56843 0.14745,1.72083 c 0.13844,1.61562 0.24735,1.72085 1.78153,1.72085 h 1.63408 v -7.8969 c 0,-6.96559 0.084,-7.82714 0.7126,-7.30547 0.62729,0.5206 0.71261,-0.15514 0.71261,-5.64272 v -6.23412 h 1.42522 1.42525 v 8.69807 c 0,6.91241 0.14317,8.88738 0.69748,9.62022 0.49966,0.66062 0.70179,2.23608 0.71262,5.55416 l 0.015,4.63197 h 1.66276 1.66276 v -5.75905 c 0,-5.0653 0.0858,-5.68781 0.71262,-5.16764 0.6273,0.52061 0.71262,-0.15848 0.71262,-5.67282 v -6.26422 l 1.54398,0.14886 1.54399,0.14886 0.3602,9.26394 c 0.19811,5.09517 0.47487,12.95171 0.61502,17.45897 l 0.25484,8.19502 h -2.87163 -2.87164 v -2.37537 -2.37537 h -1.66221 -1.66276 v 2.37537 2.37537 h -2.85045 -2.85043 v -1.66276 c 0,-1.58358 -0.0791,-1.66276 -1.66277,-1.66276 -1.45689,0 -1.66275,0.14704 -1.66275,1.18769 0,1.15168 -0.099,1.18768 -3.26578,1.18768 -1.7962,0 -4.13736,-0.30751 -5.20262,-0.68335 l -1.93684,-0.68336 -0.91277,2.46488 c -0.50203,1.35568 -1.06133,2.94589 -1.24288,3.53379 -0.18158,0.58791 -0.55037,1.06892 -0.81954,1.06892 -0.84426,0 -21.20373,-7.35677 -21.6935,-7.83882 -0.0857,-0.0844 0.40317,-1.70369 1.08659,-3.59834 0.68345,-1.89463 1.07431,-3.59458 0.86863,-3.77769 -0.20569,-0.1831 -1.06878,-0.56475 -1.91798,-0.8481 -1.27444,-0.42524 -1.54399,-0.39352 -1.54399,0.18176 0,0.50853 -0.32518,0.61532 -1.20292,0.39502 -2.54415,-0.63853 -2.68497,-0.54134 -3.50904,2.42164 -1.32853,4.77683 -1.07596,4.51665 -3.68924,3.80085 -1.25838,-0.34468 -6.06135,-1.63578 -10.67325,-2.86913 -4.61192,-1.23335 -8.65086,-2.40656 -8.97543,-2.60716 -0.4589,-0.28363 -0.37204,-1.16698 0.39062,-3.97266 l 0.98075,-3.60794 -1.5068,-0.41682 c -1.14129,-0.31571 -1.64451,-0.24569 -2.07448,0.28862 -0.3741,0.46487 -1.13904,0.63874 -2.24305,0.50984 l -1.67537,-0.19559 -0.51205,2.6347 c -0.28164,1.44909 -0.61705,3.1847 -0.7454,3.8569 l -0.23335,1.22219 -8.88839,-1.54684 c -10.05999,-1.75073 -13.9746,-2.49986 -14.19025,-2.71551 -0.0817,-0.0816 0.16926,-1.80924 0.55762,-3.83903 0.38835,-2.02978 0.7061,-3.75522 0.7061,-3.83429 0,-0.079 -0.74824,-0.23113 -1.66274,-0.3379 -1.35613,-0.1583 -1.66277,-0.0365 -1.66277,0.66064 0,0.67583 -0.38517,0.85476 -1.83985,0.85476 h -1.83985 l -0.22469,2.33832 c -0.95413,9.92986 -20.38473,20.49198 -44.14634,23.99713 -5.1305,0.75683 -17.4072,1.28742 -21.31003,0.92102 z m 21.85339,-17.52395 c 9.08908,-1.63678 17.10068,-4.61301 19.64738,-7.29883 0.64983,-0.68531 1.32285,-2.01539 1.49561,-2.95575 l 0.31412,-1.70972 -2.95953,-0.30933 c -7.44672,-0.77834 -8.09914,-0.63729 -13.95185,3.01619 l -5.32735,3.3255 h -5.93988 c -5.71634,0 -5.98174,0.0446 -7.05194,1.18375 l -1.11206,1.18373 -1.55196,-1.18373 c -1.45582,-1.11043 -1.90696,-1.18375 -7.28279,-1.18375 h -5.73081 l -5.32959,-3.3255 c -5.84106,-3.64471 -6.41486,-3.77206 -13.60719,-3.02031 -2.90958,0.3041 -2.92014,0.31075 -2.92014,1.83624 0,0.84205 0.44487,2.09655 0.98858,2.78778 1.39216,1.76983 7.89483,4.73399 13.50118,6.15432 4.12994,1.04631 6.68241,1.50988 13.30205,2.41583 3.44292,0.47121 19.22622,-0.14387 23.51617,-0.91642 z"
       id="path248" /></g></svg>
