<?xml version="1.0" encoding="UTF-8" standalone="no"?>
<!-- Created with Inkscape (http://www.inkscape.org/) -->

<svg
   sodipodi:docname="Terrapin-Civilian 3.svg"
   id="svg8"
   version="1.1"
   viewBox="0 0 137.54073 137.54072"
   height="137.54071mm"
   width="137.54073mm"
   inkscape:version="1.2 (dc2aedaf03, 2022-05-15)"
   inkscape:export-filename="Terrapin-Civilian 4.png"
   inkscape:export-xdpi="96"
   inkscape:export-ydpi="96"
   xml:space="preserve"
   xmlns:inkscape="http://www.inkscape.org/namespaces/inkscape"
   xmlns:sodipodi="http://sodipodi.sourceforge.net/DTD/sodipodi-0.dtd"
   xmlns="http://www.w3.org/2000/svg"
   xmlns:svg="http://www.w3.org/2000/svg"
   xmlns:rdf="http://www.w3.org/1999/02/22-rdf-syntax-ns#"
   xmlns:cc="http://creativecommons.org/ns#"
   xmlns:dc="http://purl.org/dc/elements/1.1/"><defs
     id="defs2" /><sodipodi:namedview
     id="base"
     pagecolor="#ffffff"
     bordercolor="#666666"
     borderopacity="1.0"
     inkscape:pageopacity="0.0"
     inkscape:pageshadow="2"
     inkscape:zoom="0.70000002"
     inkscape:cx="359.99999"
     inkscape:cy="282.85714"
     inkscape:document-units="mm"
     inkscape:current-layer="layer1"
     showgrid="false"
     inkscape:window-width="1920"
     inkscape:window-height="1017"
     inkscape:window-x="1912"
     inkscape:window-y="-8"
     inkscape:window-maximized="1"
     inkscape:showpageshadow="2"
     inkscape:pagecheckerboard="0"
     inkscape:deskcolor="#d1d1d1" /><metadata
     id="metadata5"><rdf:RDF><cc:Work
         rdf:about=""><dc:format>image/svg+xml</dc:format><dc:type
           rdf:resource="http://purl.org/dc/dcmitype/StillImage" /><dc:title /></cc:Work></rdf:RDF></metadata><g
     inkscape:label="Layer 1"
     inkscape:groupmode="layer"
     id="layer1"
     transform="translate(-268.643, -41.4341)"><path
       style="fill:#000000;stroke-width:0.171927"
       d="M 268.64264,110.2045 V 41.434143 h 7.04896 7.04896 v 68.770357 68.77036 h -7.04896 -7.04896 z"
       id="path126" /><path
       style="fill:#000000;stroke-width:0.171927"
       d="m 291.8956,142.69742 c -0.53627,-0.82021 -0.55874,-0.9238 -0.55874,-2.57582 v -1.72124 h -1.18372 c -1.53329,0 -1.65109,-0.16657 -1.82705,-2.58292 -0.1691,-2.32237 -0.16888,-16.8697 3.3e-4,-19.3326 0.17246,-2.51141 0.28088,-2.6699 1.82672,-2.6699 h 1.18372 v -1.66122 c 0,-1.56498 0.0308,-1.70941 0.5337,-2.49292 0.41167,-0.64155 0.6377,-0.83391 0.98857,-0.8413 0.25019,-0.005 3.49588,-0.0247 7.21263,-0.043 l 6.75777,-0.0333 0.50612,0.78873 c 0.47525,0.74062 0.5061,0.89523 0.5061,2.5359 0,1.62989 0.0228,1.7472 0.34227,1.7472 0.196,0 0.49961,0.23878 0.71048,0.55877 0.20251,0.30729 0.70612,0.77755 1.1191,1.04499 l 0.75086,0.48628 v 1.27596 1.27597 h 0.85965 c 0.74502,0 0.85963,0.046 0.85963,0.34386 0,0.31991 0.11469,0.34384 1.64488,0.34384 1.48471,0 1.63653,-0.0293 1.55885,-0.30084 -0.0472,-0.16551 -0.31794,-1.26795 -0.6014,-2.44996 -0.79412,-3.31159 -2.01376,-7.38276 -3.04348,-10.15907 -0.51383,-1.38541 -0.93427,-2.56535 -0.93427,-2.62202 0,-0.0567 0.95151,-0.12473 2.11445,-0.15119 l 2.11443,-0.048 -3.73174,-8.824177 -3.73171,-8.824168 0.72609,-0.311247 c 2.12731,-0.911856 6.99368,-2.499673 9.87407,-3.221737 l 1.77798,-0.445711 -0.11015,-0.734246 c -0.0922,-0.615258 -0.06,-0.749111 0.19917,-0.825963 1.30955,-0.388337 9.29985,-1.656043 10.43796,-1.656043 0.12643,0 0.27652,-0.233383 0.33354,-0.518619 0.1438,-0.718858 0.58996,-0.849152 3.67867,-1.074247 1.92311,-0.140159 3.32064,-0.140159 5.24373,0 3.08872,0.225095 3.53489,0.355389 3.67866,1.074247 0.057,0.285236 0.20533,0.518619 0.32949,0.518619 0.6993,0 6.15057,0.775784 7.98371,1.136185 2.99637,0.589098 2.78666,0.484395 2.66011,1.32822 l -0.10733,0.716643 1.6034,0.415192 c 3.01502,0.780715 8.00841,2.415178 10.04337,3.28746 l 0.72609,0.311247 -3.73173,8.824168 -3.73171,8.824177 2.1144,0.048 c 1.17755,0.0266 2.11444,0.12002 2.11444,0.21043 0,0.0892 -0.22224,0.72523 -0.49387,1.41325 -1.148,2.90782 -2.72776,8.0591 -3.54712,11.56648 -0.24299,1.04016 -0.48283,2.02657 -0.53298,2.19208 -0.0823,0.2719 0.0669,0.30084 1.55368,0.30084 1.53028,0 1.64488,-0.0242 1.64488,-0.34384 0,-0.29799 0.11457,-0.34386 0.85964,-0.34386 h 0.85962 v -1.27873 -1.27879 l 0.75068,-0.5391 c 0.41287,-0.2965 0.91805,-0.76548 1.12269,-1.04222 0.20459,-0.27673 0.52439,-0.50313 0.71067,-0.50313 0.31475,0 0.33872,-0.12348 0.33872,-1.7472 0,-1.6553 0.0275,-1.79025 0.52553,-2.56618 l 0.52557,-0.819 7.16812,0.051 7.16814,0.051 0.55875,0.83705 c 0.53507,0.80156 0.55875,0.9082 0.55875,2.5153 v 1.67823 h 1.18652 c 1.18471,0 1.1871,7.2e-4 1.59007,0.64475 l 0.40355,0.64473 1.7e-4,11.00323 c 1.7e-4,10.78639 -0.005,11.01513 -0.35255,11.60501 -0.34564,0.58953 -0.37791,0.60277 -1.59031,0.65225 l -1.23745,0.0506 v 1.71369 c 0,1.64354 -0.0227,1.74874 -0.55875,2.5683 l -0.55875,0.85453 -7.16965,0.003 -7.16966,0.003 -0.52402,-0.76165 c -0.50298,-0.73111 -0.52403,-0.8346 -0.52403,-2.5789 0,-1.76976 -0.009,-1.81724 -0.38685,-1.81771 -0.22811,-3.4e-4 -0.52,-0.19424 -0.71144,-0.4728 -0.17854,-0.25976 -0.64273,-0.70733 -1.03157,-0.99459 -0.70152,-0.51831 -0.7073,-0.53172 -0.75726,-1.75313 l -0.0503,-1.23081 -0.80931,-0.0519 c -0.68937,-0.0445 -0.81741,-0.10949 -0.86422,-0.43893 -0.0551,-0.38667 -0.0567,-0.38684 -3.54258,-0.38684 h -3.48766 l -0.16008,0.55878 -0.16009,0.55875 -2.9122,0.0472 c -1.60172,0.0261 -2.98764,0.12275 -3.07982,0.2149 -0.22839,0.22838 -23.00731,0.22838 -23.23572,0 -0.0922,-0.0921 -1.47807,-0.18888 -3.07979,-0.2149 l -2.91221,-0.0472 -0.16011,-0.55875 -0.16006,-0.55878 h -3.49958 c -3.38502,-10e-6 -3.49963,0.011 -3.49963,0.34383 0,0.24643 -0.12178,0.34994 -0.42982,0.36535 -1.31034,0.0657 -1.19879,-0.0513 -1.25403,1.31327 l -0.0506,1.2488 -0.83635,0.6244 c -0.46002,0.34343 -0.93389,0.80659 -1.05304,1.02923 -0.13243,0.24739 -0.37249,0.40482 -0.61741,0.40482 -0.39448,0 -0.40077,0.0288 -0.40077,1.81722 0,1.74431 -0.021,1.8478 -0.52406,2.57889 l -0.52402,0.76165 -7.16964,-0.003 -7.16968,-0.003 -0.55873,-0.85456 z"
       id="path186" /><path
       style="fill:#000000;stroke-width:0.171927"
       d="M 392.08542,110.2045 V 41.434143 h 7.04898 7.04896 v 68.770357 68.77036 h -7.04896 -7.04898 z"
       id="path184" /></g></svg>
