<?xml version="1.0" encoding="UTF-8" standalone="no"?>
<!-- Created with Inkscape (http://www.inkscape.org/) -->

<svg
   xmlns:dc="http://purl.org/dc/elements/1.1/"
   xmlns:cc="http://creativecommons.org/ns#"
   xmlns:rdf="http://www.w3.org/1999/02/22-rdf-syntax-ns#"
   xmlns:svg="http://www.w3.org/2000/svg"
   xmlns="http://www.w3.org/2000/svg"
   xmlns:sodipodi="http://sodipodi.sourceforge.net/DTD/sodipodi-0.dtd"
   xmlns:inkscape="http://www.inkscape.org/namespaces/inkscape"
   sodipodi:docname="thunderforge-aur 3.svg"
   id="svg8"
   version="1.1"
   viewBox="0 0 333.9462 333.94614"
   height="333.94614mm"
   width="333.9462mm"
   inkscape:version="0.92.4 (5da689c313, 2019-01-14)"
   inkscape:export-filename="D:\GitHub\wills-spaceships\Outlines Ships\thunderforge-aur 4.png"
   inkscape:export-xdpi="96"
   inkscape:export-ydpi="96">
  <defs
     id="defs2" />
  <sodipodi:namedview
     id="base"
     pagecolor="#ffffff"
     bordercolor="#666666"
     borderopacity="1.0"
     inkscape:pageopacity="0.0"
     inkscape:pageshadow="2"
     inkscape:zoom="0.24748737"
     inkscape:cx="1908.2399"
     inkscape:cy="1067.9324"
     inkscape:document-units="mm"
     inkscape:current-layer="layer1"
     showgrid="false"
     inkscape:window-width="1920"
     inkscape:window-height="1017"
     inkscape:window-x="1912"
     inkscape:window-y="-8"
     inkscape:window-maximized="1" />
  <metadata
     id="metadata5">
    <rdf:RDF>
      <cc:Work
         rdf:about="">
        <dc:format>image/svg+xml</dc:format>
        <dc:type
           rdf:resource="http://purl.org/dc/dcmitype/StillImage" />
        <dc:title />
      </cc:Work>
    </rdf:RDF>
  </metadata>
  <g
     inkscape:label="Layer 1"
     inkscape:groupmode="layer"
     id="layer1"
     transform="translate(1352.7684,94.941688)">
    <path
       style="fill:#000000;stroke-width:0.41743273"
       d="M -1352.7684,72.031391 V -94.941688 h 33.3945 33.3946 V 72.031391 239.00446 h -33.3946 -33.3945 z"
       id="path840"
       inkscape:connector-curvature="0" />
    <path
       style="fill:#000000;stroke-width:0.41743273"
       d="M -1085.6113,72.031391 V -94.941688 h 33.3944 33.3947 V 72.031391 239.00446 h -33.3947 -33.3944 z"
       id="path838"
       inkscape:connector-curvature="0" />
    <path
       style="fill:#000000;stroke-width:0.41743273"
       d="m -1210.7341,-70.313462 -0.2892,9.288288 c -0.1592,5.108323 -0.4631,12.293392 -0.6757,15.966798 -0.2124,3.673407 -0.3902,8.527643 -0.3902,10.78762 0,3.756335 -0.074,4.127818 -0.8381,4.327399 -0.7157,0.187111 -0.8353,0.569739 -0.8353,2.674585 0,1.537595 0.175,2.455678 0.4682,2.455678 0.3217,0 0.3366,0.163254 0.046,0.521587 -0.2324,0.286987 -0.5567,2.071918 -0.7208,3.966018 -0.2189,2.526243 -0.4537,3.443819 -0.8812,3.443819 -0.3203,0 -0.5828,0.19808 -0.5828,0.440263 0,0.242185 -0.3868,1.290561 -0.8604,2.329716 -0.7926,1.74038 -0.8096,1.967718 -0.209,2.88432 0.8197,1.2506758 0.818,1.8166265 -0.011,3.4798951 -0.6075,1.2175433 -0.6075,1.4186184 0,2.3456131 0.8342,1.2733618 0.8326,1.8297419 -0.012,3.5220885 -0.6429,1.28838932 -0.6327,1.41393864 0.2085,2.5516793 1.0984,1.4855824 1.1001,1.8082711 0.016,3.2738296 l -0.8682,1.1746428 0.8682,1.6197914 c 0.4777,0.8910597 0.8683,1.9520571 0.8683,2.3572315 0,0.5075153 0.3251,0.7368276 1.0437,0.7368276 0.9146,0 1.0432,0.1806821 1.0432,1.4608091 0,1.280131 -0.1286,1.460811 -1.0432,1.460811 -0.6493,0 -1.0437,0.236547 -1.0437,0.626149 0,0.344383 -0.1881,0.626149 -0.4175,0.626149 -0.2413,0 -0.4171,1.321869 -0.4171,3.130744 0,1.808875 0.1758,3.130745 0.4171,3.130745 0.2294,0 0.4175,0.281769 0.4175,0.626152 0,0.344381 -0.1881,0.626149 -0.4175,0.626149 -0.2413,0 -0.4171,1.321872 -0.4171,3.130745 0,1.808871 0.1758,3.130744 0.4171,3.130744 0.2294,0 0.4175,0.266044 0.4175,0.591294 0,0.325246 0.2346,0.701344 0.5217,0.835276 0.4172,0.194796 0.4172,0.291931 0,0.486731 -0.3634,0.169518 -0.5217,1.438031 -0.5217,4.174529 0,3.823445 0.027,3.930554 0.96,3.930554 1.227,0 1.9622,0.739142 1.9622,1.973222 v 0.971634 l 5.9485,-0.115567 5.9484,-0.115568 0.1284,-1.547641 c 0.1024,-1.232785 -0.088,-1.735534 -0.9393,-2.475245 -0.8997,-0.782272 -1.0675,-1.284329 -1.0675,-3.190057 v -2.261841 l 1.3563,0.827936 c 0.7461,0.455103 2.5308,2.37698 3.9658,4.271144 2.1567,2.846594 2.6086,3.723736 2.6086,5.057497 v 1.613678 h -11.0046 -11.0048 l -0.5319,-2.504596 -0.5313,-2.504596 h -2.6484 c -2.5497,0 -2.6574,0.04311 -2.8996,1.148348 -0.1384,0.631368 -0.377,1.429502 -0.5302,1.773882 -0.1529,0.344383 -0.3719,20.947232 -0.4866,45.784095 l -0.2085,45.157936 -3.7612,-3.6236 c -2.0687,-1.99287 -9.0833,-8.69478 -15.5883,-14.89367 -11.4849,-10.94402 -11.881,-11.27481 -13.6695,-11.39847 l -1.8426,-0.12719 0.1066,17.29981 0.107,17.29982 19.9719,19.78608 19.9726,19.78605 -0.4733,1.75858 c -0.2605,0.96706 -0.6543,1.758 -0.875,1.758 -0.2208,0 -0.4011,0.3613 -0.4011,0.80288 0,0.44155 -0.4866,1.38057 -1.0811,2.08695 -0.9061,1.0767 -1.3779,1.28472 -2.9215,1.28472 -2.1854,0 -2.2185,0.14673 -0.8439,3.81007 l 0.9985,2.65992 2.3413,0.12536 2.3413,0.12534 v 2.69231 c 0,1.5167 0.1825,2.69234 0.4178,2.69234 0.2608,0 0.417,2.50479 0.417,6.67913 v 6.67912 h 14.819 c 8.913,0 14.8192,0.1554 14.8192,0.39011 0,0.21465 0.186,0.88016 0.4139,1.47915 h 0.01 c 0.4002,1.05267 0.5152,1.08534 3.4298,0.96676 3.0073,-0.12238 3.0167,-0.12681 3.4035,-1.47978 l 0.3877,-1.35624 h 14.7585 14.7584 v -6.67912 c 0,-4.17434 0.1562,-6.67913 0.4171,-6.67913 0.235,0 0.4176,-1.17563 0.4176,-2.69234 v -2.69231 l 2.3415,-0.12534 2.3411,-0.12536 0.9984,-2.65992 c 1.3707,-3.65269 1.337,-3.81007 -0.8027,-3.81007 -1.4276,0 -2.0322,-0.24259 -2.9216,-1.17099 -0.6169,-0.64394 -1.122,-1.58293 -1.122,-2.08694 0,-0.50402 -0.1804,-0.91662 -0.4013,-0.91662 -0.2208,0 -0.6152,-0.7942 -0.8766,-1.76531 l -0.4752,-1.76594 20.0667,-19.88207 20.0667,-19.88206 v -17.17325 -17.17386 l -1.7672,0.0184 c -1.7464,0.0183 -1.9476,0.19154 -17.4208,14.97986 l -15.6531,14.96096 -0.2092,-45.139005 c -0.1149,-24.826432 -0.3336,-45.420747 -0.4867,-45.76513 -0.153,-0.344382 -0.3911,-1.142516 -0.5294,-1.773884 -0.2424,-1.105239 -0.3506,-1.148347 -2.9003,-1.148347 h -2.6484 l -0.5313,2.504595 -0.5315,2.504596 h -11.0053 -11.0045 v -1.613709 c 0,-1.33376 0.4527,-2.210902 2.6091,-5.057497 1.4349,-1.894165 3.2192,-3.816041 3.9653,-4.271145 l 1.3564,-0.827934 v 2.327267 c 0,2.034002 -0.1336,2.415324 -1.064,3.02496 -0.9004,0.589726 -1.0457,0.962123 -0.9392,2.409818 l 0.1247,1.712738 5.949,0.115569 5.9485,0.115567 v -0.971632 c 0,-1.234083 0.7347,-1.973223 1.9615,-1.973223 0.9339,0 0.96,-0.107112 0.96,-3.930554 0,-2.736499 -0.1581,-4.005012 -0.5215,-4.174529 -0.4175,-0.194802 -0.4175,-0.291936 0,-0.486733 0.2869,-0.133932 0.5215,-0.510028 0.5215,-0.835273 0,-0.325254 0.1881,-0.591296 0.4176,-0.591296 0.2415,0 0.4178,-1.321873 0.4178,-3.130745 0,-1.808872 -0.1763,-3.130744 -0.4178,-3.130744 -0.2295,0 -0.4176,-0.281767 -0.4176,-0.62615 0,-0.344382 0.1881,-0.626149 0.4176,-0.626149 0.2415,0 0.4178,-1.321872 0.4178,-3.130746 0,-1.808875 -0.1763,-3.130746 -0.4178,-3.130746 -0.2295,0 -0.4176,-0.281766 -0.4176,-0.626148 0,-0.389602 -0.3937,-0.62615 -1.043,-0.62615 -0.9146,0 -1.0438,-0.180679 -1.0438,-1.46081 0,-1.188679 0.1574,-1.4608101 0.845,-1.4608101 0.5443,0 0.9914,-0.4090029 1.2553,-1.1483474 0.2256,-0.6313672 0.6927,-1.6506411 1.0382,-2.2648993 0.5047,-0.8965612 0.532,-1.3287891 0.1389,-2.1915217 -0.2693,-0.5910788 -0.6476,-1.0743597 -0.8402,-1.0743597 -0.6371,0 -0.3641,-1.2676663 0.5345,-2.48319404 0.8409,-1.13774058 0.8517,-1.26328992 0.209,-2.55167936 -0.8442,-1.6923458 -0.8465,-2.2487261 -0.013,-3.5220885 0.6073,-0.9269945 0.6073,-1.1280698 0,-2.3456133 -0.7372,-1.4775614 -0.8566,-2.7048726 -0.2972,-3.0506416 0.7516,-0.463996 0.756,-1.845303 0.012,-3.418748 -0.4219,-0.891753 -0.7692,-1.856229 -0.7808,-2.143215 -0.01,-0.286986 -0.2763,-0.52159 -0.597,-0.52159 -0.4274,0 -0.6622,-0.917575 -0.8811,-3.443818 -0.164,-1.894099 -0.4886,-3.679033 -0.7209,-3.966018 -0.29,-0.358334 -0.2754,-0.521586 0.046,-0.521586 0.2932,0 0.4685,-0.918084 0.4685,-2.455678 0,-2.104848 -0.1189,-2.487475 -0.8348,-2.674585 -0.7627,-0.199584 -0.839,-0.571065 -0.839,-4.327401 0,-2.259977 -0.1783,-7.114212 -0.3923,-10.787618 -0.2141,-3.673407 -0.5198,-10.858477 -0.6793,-15.966799 l -0.2908,-9.288288 h -1.9791 -1.9793 l -0.2881,8.244503 c -0.1583,4.534365 -0.4614,11.71942 -0.6732,15.9668 -0.212,4.247378 -0.3888,9.571425 -0.3888,11.831402 0,3.75631 -0.074,4.127821 -0.839,4.327401 -0.7155,0.18711 -0.8347,0.569737 -0.8347,2.674585 0,1.537594 0.1751,2.455678 0.4684,2.455678 0.3216,0 0.3365,0.163252 0.046,0.521586 -0.2324,0.286985 -0.5566,2.071919 -0.7209,3.966018 l -0.2985,3.443818 h -2.0436 -2.0441 v -3.931765 -3.932389 l -2.1284,-2.329102 -2.1292,-2.329715 h -9.081 -9.0817 l -2.1474,2.271013 -2.1476,2.2704 v 3.991091 3.990475 h -2.0434 -2.0444 l -0.2983,-3.443819 c -0.1642,-1.8941 -0.4887,-3.679032 -0.7209,-3.966017 -0.2901,-0.358334 -0.2751,-0.521586 0.046,-0.521586 0.2934,0 0.4685,-0.918085 0.4685,-2.455679 0,-2.104847 -0.1192,-2.487474 -0.8346,-2.674586 -0.763,-0.199579 -0.839,-0.571089 -0.839,-4.327399 0,-2.259977 -0.177,-7.584026 -0.3889,-11.831403 -0.2118,-4.247379 -0.5148,-11.432436 -0.6734,-15.966799 l -0.2878,-8.244503 h -1.983 z m -5.9514,120.638253 h 9.6008 9.6011 v 1.461421 c 0,1.444567 -0.02,1.460807 -1.8056,1.460807 -1.3863,0 -2.0338,0.242565 -2.7864,1.043791 -0.5391,0.573964 -1.1357,1.043174 -1.325,1.043174 -0.1897,0 -0.3442,-0.46921 -0.3442,-1.043174 0,-1.036008 -0.029,-1.043791 -3.7657,-1.043791 -3.7069,0 -3.7961,0.02408 -5.82,1.565377 l -2.055,1.56537 -0.024,7.562094 -0.024,7.562708 1.947,1.516458 c 1.9213,1.496817 1.9987,1.517058 5.8443,1.517058 3.5795,0 3.8971,-0.06603 3.8971,-0.8102 0,-1.279486 0.7344,-1.401373 1.4908,-0.24703 0.5844,0.892147 1.0101,1.05723 2.7314,1.05723 h 2.0391 v 1.460813 1.461423 h -4.7137 -4.7135 l -1.7565,1.789783 -1.7568,1.789788 v 12.074161 12.073538 l 1.7568,1.78979 1.7565,1.7904 h 4.7403 4.7396 l -0.1304,1.35624 c -0.1253,1.30143 -0.2119,1.36179 -2.1191,1.48404 -1.5659,0.10046 -2.1296,0.34383 -2.6545,1.14469 -0.7358,1.12291 -1.41,1.00174 -1.41,-0.25315 0,-0.74433 -0.3178,-0.81021 -3.9056,-0.81021 -3.8305,0 -3.9432,0.0288 -5.8444,1.48038 l -1.9384,1.47976 v 7.4563 7.45573 l 2.041,1.70844 2.0406,1.70846 h 3.8034 c 3.7786,0 3.8034,-0.006 3.8034,-1.04317 0,-0.57398 0.2076,-1.04378 0.4616,-1.04378 0.2539,0 0.8315,0.4698 1.2829,1.04378 0.6548,0.83239 1.1944,1.04317 2.6684,1.04317 1.834,0 1.8484,0.0116 1.8484,1.46142 v 1.46081 h -9.3231 c -5.1275,0 -9.4475,-0.12515 -9.6007,-0.27821 -0.1529,-0.15306 -0.2782,-19.40757 -0.2782,-42.787263 z m 42.5786,0 h 9.6026 9.6034 l -0.1071,42.682696 -0.1059,42.682693 -9.4968,0.11189 -9.4962,0.11192 v -1.46876 c 0,-1.45383 0.018,-1.46877 1.8057,-1.46877 1.3864,0 2.0333,-0.24257 2.786,-1.04379 0.5391,-0.57396 1.1356,-1.04316 1.3251,-1.04316 0.1894,0 0.3448,0.4692 0.3448,1.04316 0,1.03648 0.025,1.04379 3.8027,1.04379 h 3.8033 l 2.0413,-1.70846 2.0404,-1.70844 v -7.45573 -7.4563 l -1.9384,-1.47976 c -1.9011,-1.45163 -2.0134,-1.48038 -5.8439,-1.48038 -3.5877,0 -3.9054,0.0659 -3.9054,0.81021 0,1.27083 -0.7326,1.40414 -1.4767,0.26843 -0.5345,-0.81566 -1.0922,-1.06203 -2.6276,-1.16119 -1.8631,-0.12031 -1.9545,-0.18579 -2.0795,-1.48282 l -0.1309,-1.35685 h 4.7401 4.7402 l 1.7562,-1.78979 1.7568,-1.78979 V 93.111431 81.037891 l -1.7568,-1.789788 -1.7562,-1.790393 h -4.7138 -4.7134 v -1.460813 -1.460813 h 2.0388 c 1.7212,0 2.1474,-0.164895 2.732,-1.05723 0.7564,-1.154343 1.4908,-1.033068 1.4908,0.246418 0,0.744157 0.3174,0.810812 3.8971,0.810812 3.8454,0 3.9225,-0.02022 5.8436,-1.517058 l 1.947,-1.517069 v -7.425125 -7.425733 l -1.983,-1.699285 -1.9824,-1.699903 -3.8615,-0.0022 c -3.841,-0.0031 -3.8608,0.0031 -3.8608,1.041337 0,0.573969 -0.2077,1.043171 -0.4618,1.043171 -0.2537,0 -0.8311,-0.469202 -1.2828,-1.043171 -0.6548,-0.832414 -1.1949,-1.043792 -2.6691,-1.043792 -1.8338,0 -1.8479,-0.01108 -1.8479,-1.460807 z m -37.7388,93.087689 h 2.381 c 1.3094,0 2.3806,0.12724 2.3806,0.28312 0,0.15588 -0.2257,0.90748 -0.5015,1.66993 -0.2756,0.76247 -0.6134,1.38621 -0.7503,1.38621 -0.1368,0 -0.9823,-0.75096 -1.879,-1.66931 z m 49.7201,0 h 2.3804 l -1.6301,1.66995 c -0.8967,0.91835 -1.7429,1.66931 -1.8796,1.66931 -0.2393,0 -1.2511,-2.47231 -1.2511,-3.05614 0,-0.15588 1.071,-0.28312 2.3804,-0.28312 z"
       id="path836"
       inkscape:connector-curvature="0" />
  </g>
</svg>
