<?xml version="1.0" encoding="UTF-8" standalone="no"?>
<!-- Created with Inkscape (http://www.inkscape.org/) -->

<svg
   xmlns:dc="http://purl.org/dc/elements/1.1/"
   xmlns:cc="http://creativecommons.org/ns#"
   xmlns:rdf="http://www.w3.org/1999/02/22-rdf-syntax-ns#"
   xmlns:svg="http://www.w3.org/2000/svg"
   xmlns="http://www.w3.org/2000/svg"
   xmlns:sodipodi="http://sodipodi.sourceforge.net/DTD/sodipodi-0.dtd"
   xmlns:inkscape="http://www.inkscape.org/namespaces/inkscape"
   sodipodi:docname="thunderhead-civilian 3.svg"
   id="svg8"
   version="1.1"
   viewBox="0 0 62.087113 62.08711"
   height="62.087109mm"
   width="62.087112mm"
   inkscape:version="0.92.4 (5da689c313, 2019-01-14)"
   inkscape:export-filename="D:\GitHub\Novalike-Art-Pack-Source\Outlines Ships\thunderhead-civilian 4.png"
   inkscape:export-xdpi="96"
   inkscape:export-ydpi="96">
  <defs
     id="defs2" />
  <sodipodi:namedview
     id="base"
     pagecolor="#ffffff"
     bordercolor="#666666"
     borderopacity="1.0"
     inkscape:pageopacity="0.0"
     inkscape:pageshadow="2"
     inkscape:zoom="0.24748738"
     inkscape:cx="-806.87433"
     inkscape:cy="143.87582"
     inkscape:document-units="mm"
     inkscape:current-layer="layer1"
     showgrid="false"
     inkscape:window-width="1920"
     inkscape:window-height="1017"
     inkscape:window-x="-8"
     inkscape:window-y="-8"
     inkscape:window-maximized="1" />
  <metadata
     id="metadata5">
    <rdf:RDF>
      <cc:Work
         rdf:about="">
        <dc:format>image/svg+xml</dc:format>
        <dc:type
           rdf:resource="http://purl.org/dc/dcmitype/StillImage" />
        <dc:title />
      </cc:Work>
    </rdf:RDF>
  </metadata>
  <g
     inkscape:label="Layer 1"
     inkscape:groupmode="layer"
     id="layer1"
     transform="translate(-57.676128,399.83221)">
    <path
       style="fill:#000000;stroke-width:0.07760889"
       d="m 57.676128,-368.78866 v -31.04355 h 3.802835 3.802838 v 31.04355 31.04356 h -3.802838 -3.802835 z"
       id="path832"
       inkscape:connector-curvature="0" />
    <path
       style="fill:#000000;stroke-width:0.07760889"
       d="m 112.15759,-368.78866 v -31.04355 h 3.80282 3.80283 v 31.04355 31.04356 h -3.80283 -3.80282 z"
       id="path830"
       inkscape:connector-curvature="0" />
    <path
       style="fill:#000000;stroke-width:0.07760889"
       d="m 72.577038,-343.93645 c 0,-0.0333 -0.134035,-0.0476 -0.297854,-0.0318 l -0.297855,0.0285 -0.05138,-1.76569 c -0.02826,-0.97113 -0.05138,-2.32032 -0.05138,-2.99821 v -1.23252 l -0.355791,-0.38038 -0.355792,-0.38037 0.01802,-1.73116 c 0.01787,-1.71714 0.01567,-1.74307 -0.270992,-3.2057 -0.158949,-0.81102 -0.321264,-1.50776 -0.360699,-1.5483 -0.03944,-0.0405 -0.0717,-0.34101 -0.0717,-0.66769 v -0.59396 l -0.593777,-0.0503 c -0.326577,-0.0276 -0.754395,-0.0507 -0.950709,-0.0513 l -0.356933,-7.6e-4 -0.950709,-1.52959 -0.950708,-1.52958 v -3.11115 -3.11116 l 0.935596,-2.98318 c 0.514579,-1.64078 0.960876,-3.00868 0.991767,-3.03979 0.03089,-0.0311 0.788563,-0.066 1.683704,-0.0776 l 1.627534,-0.0211 0.02432,-0.25223 c 0.02415,-0.25037 0.0274,-0.25223 0.442735,-0.25223 0.412676,0 0.418926,-0.004 0.455675,-0.25223 0.03096,-0.2096 0.601501,-19.05428 0.593289,-19.59623 -0.0025,-0.17147 0.01404,-0.17463 0.922485,-0.17463 h 0.92513 l 0.04224,0.48505 c 0.03273,0.37617 0.601585,19.0251 0.592995,19.44102 -0.0013,0.0672 0.1418,0.0971 0.463651,0.0971 h 0.465655 v 0.26047 0.26047 l 0.639785,0.0534 c 0.351882,0.0293 0.661322,0.078 0.687642,0.10819 0.02632,0.0301 0.332389,1.39937 0.680154,3.04275 0.548293,2.59099 0.63222,3.08987 0.631709,3.75518 l -4.96e-4,0.76723 0.360074,-0.0492 c 0.198034,-0.0271 0.477429,-0.0493 0.620867,-0.0493 0.180085,0 0.260798,-0.0361 0.260798,-0.11641 0,-0.0893 0.09918,-0.11642 0.426855,-0.11642 h 0.426847 v -0.81489 -0.8149 h 2.095437 2.095442 v -1.74002 -1.74004 l 0.222205,-0.0487 0.222206,-0.0487 0.04344,-2.92588 c 0.04552,-3.06566 0.150453,-4.55629 0.487392,-6.92276 0.453931,-3.18816 1.288687,-6.40504 1.861685,-7.17427 0.11108,-0.14913 0.113348,-0.14913 0.224434,0 0.576045,0.77332 1.405835,3.97127 1.861551,7.17427 0.349018,2.45313 0.443776,3.78911 0.488223,6.88394 l 0.04258,2.96468 0.222276,0.0487 0.222282,0.0488 v 1.74003 1.74004 h 2.095442 2.095445 v 0.81489 0.8149 h 0.426847 c 0.327677,0 0.426838,0.027 0.426838,0.11641 0,0.0751 0.07573,0.11665 0.213433,0.11709 0.117379,4.2e-4 0.396772,0.0228 0.620869,0.0494 l 0.407454,0.0488 -4.39e-4,-0.76749 c -2.29e-4,-0.66523 0.08383,-1.16556 0.632089,-3.75543 0.347852,-1.64337 0.653832,-3.0126 0.679943,-3.04276 0.02607,-0.0301 0.335378,-0.0788 0.687259,-0.10819 l 0.639797,-0.0534 v -0.26046 -0.26049 h 0.4538 0.45379 l 0.0489,-1.29993 c 0.0269,-0.71499 0.15544,-4.96699 0.28559,-9.44889 0.13015,-4.48192 0.25612,-8.40213 0.27995,-8.71159 l 0.0434,-0.56266 h 0.92467 c 0.82989,0 0.92444,0.0138 0.92214,0.13581 -0.0102,0.48891 0.56091,19.29283 0.59298,19.55744 l 0.0399,0.32982 h 0.4172 c 0.41392,0 0.41736,0.002 0.4415,0.25225 l 0.0243,0.25223 1.67098,0.0209 1.67095,0.021 0.95006,3.04468 0.95004,3.04468 -0.002,3.1064 -0.002,3.10643 -0.9507,1.52956 -0.95071,1.5296 -0.35694,7.7e-4 c -0.19631,5e-4 -0.62413,0.0237 -0.9507,0.0513 l -0.59375,0.0503 v 0.59395 c 0,0.32669 -0.0323,0.62714 -0.0717,0.66769 -0.0395,0.0406 -0.20173,0.73729 -0.36068,1.54829 -0.28666,1.46267 -0.28886,1.48859 -0.271,3.20573 l 0.018,1.73115 -0.35579,0.38037 -0.3558,0.38037 v 1.23253 c 0,0.67789 -0.0231,2.02709 -0.0513,2.99822 l -0.0514,1.76569 -0.29785,-0.0285 c -0.1638,-0.0156 -0.29786,-8.7e-4 -0.29786,0.0318 0,0.0332 -0.10477,0.0603 -0.23281,0.0603 h -0.23283 l -0.0105,-0.60148 c -0.006,-0.33082 -0.0234,-0.51416 -0.0391,-0.40744 -0.0155,0.10669 -0.0658,0.37737 -0.1114,0.60145 -0.08,0.39264 -0.0924,0.40747 -0.33971,0.40747 h -0.25664 l -0.0646,-1.37757 -0.0646,-1.37757 -0.0679,1.24175 c -0.0372,0.68296 -0.0998,1.25338 -0.13879,1.2676 -0.0391,0.0143 -0.0709,0.0775 -0.0709,0.14075 0,0.0828 -0.0703,0.10808 -0.25224,0.0906 l -0.25222,-0.0243 -0.0489,-1.04773 c -0.0709,-1.51716 -0.0878,-1.55803 -0.14275,-0.34923 -0.0558,1.22465 -0.12492,1.43577 -0.47061,1.43577 -0.22703,0 -0.23026,-0.006 -0.24176,-0.44625 -0.0106,-0.41135 -0.0153,-0.42198 -0.0583,-0.13582 -0.0808,0.53895 -0.14811,0.59428 -0.65091,0.53519 -0.41926,-0.0493 -0.442,-0.0633 -0.47649,-0.29347 -0.02,-0.13295 -0.0559,-1.48058 -0.08,-2.99472 l -0.0438,-2.753 -0.31281,-0.31872 -0.312817,-0.31872 0.0068,-1.70123 c 0.0068,-1.701 0.0068,-1.70145 -0.315595,-3.29221 -0.189044,-0.93242 -0.345882,-1.96043 -0.378923,-2.48349 -0.05627,-0.89126 -0.05725,-0.89443 -0.651341,-2.2785 -0.327227,-0.7623 -0.594951,-1.45681 -0.594951,-1.54333 0,-0.1425 -0.0339,-0.15267 -0.360086,-0.10798 -0.198039,0.0271 -0.477421,0.0493 -0.620861,0.0493 -0.180082,0 -0.260801,0.0361 -0.260801,0.11642 0,0.0893 -0.09917,0.11642 -0.426848,0.11642 h -0.426846 v 0.85409 0.8541 l -7.120629,-0.0198 -7.12061,-0.0198 -0.02204,-0.83431 -0.02204,-0.83428 h -0.424223 c -0.325347,0 -0.424225,-0.0271 -0.424225,-0.11642 0,-0.0805 -0.08071,-0.11641 -0.2608,-0.11641 -0.143438,0 -0.422826,-0.0222 -0.620866,-0.0493 -0.328105,-0.045 -0.360076,-0.035 -0.360076,0.11102 0,0.0882 -0.267099,0.78269 -0.593548,1.54332 -0.591597,1.37841 -0.59375,1.38591 -0.651341,2.27547 -0.03333,0.5151 -0.194176,1.56528 -0.380327,2.48349 -0.322502,1.59076 -0.322544,1.59121 -0.315606,3.29221 l 0.0068,1.70123 -0.312426,0.31833 -0.312426,0.31833 -0.05939,2.96042 c -0.03265,1.62824 -0.07684,2.97738 -0.09819,2.99813 -0.02135,0.0208 -0.234005,0.0619 -0.472583,0.0914 -0.424681,0.0526 -0.4356,0.049 -0.520721,-0.16714 -0.04782,-0.12144 -0.100595,-0.32559 -0.117261,-0.45362 -0.01668,-0.12807 -0.03554,-0.0319 -0.04195,0.21341 -0.01149,0.4403 -0.01468,0.44625 -0.241725,0.44625 -0.345691,0 -0.414892,-0.21112 -0.470634,-1.43577 -0.05502,-1.2088 -0.07173,-1.16792 -0.142731,0.34925 l -0.04903,1.04771 -0.252228,0.0243 c -0.187379,0.018 -0.252231,-0.007 -0.252231,-0.0971 2e-6,-0.0668 -0.03087,-0.12133 -0.0686,-0.12133 -0.03773,0 -0.09991,-0.56752 -0.138175,-1.26114 l -0.06958,-1.26113 -0.06528,1.37755 -0.06528,1.37756 h -0.256631 c -0.247297,0 -0.25965,-0.015 -0.339711,-0.40746 -0.04569,-0.22408 -0.09582,-0.49475 -0.11141,-0.60148 -0.01558,-0.1067 -0.03308,0.0767 -0.0389,0.40746 l -0.01059,0.60148 h -0.232001 c -0.128053,0 -0.232825,-0.0271 -0.232825,-0.0603 z"
       id="path826"
       inkscape:connector-curvature="0" />
  </g>
</svg>
