<?xml version="1.0" encoding="UTF-8" standalone="no"?>
<!-- Created with Inkscape (http://www.inkscape.org/) -->

<svg
   xmlns:dc="http://purl.org/dc/elements/1.1/"
   xmlns:cc="http://creativecommons.org/ns#"
   xmlns:rdf="http://www.w3.org/1999/02/22-rdf-syntax-ns#"
   xmlns:svg="http://www.w3.org/2000/svg"
   xmlns="http://www.w3.org/2000/svg"
   xmlns:sodipodi="http://sodipodi.sourceforge.net/DTD/sodipodi-0.dtd"
   xmlns:inkscape="http://www.inkscape.org/namespaces/inkscape"
   sodipodi:docname="valkyrie-civilian 3.svg"
   id="svg8"
   version="1.1"
   viewBox="0 0 105.27797 105.27795"
   height="105.27795mm"
   width="105.27797mm"
   inkscape:version="0.92.4 (5da689c313, 2019-01-14)"
   inkscape:export-filename="D:\GitHub\Novalike-Art-Pack-Source\Outlines Ships\valkyrie-civilian 4.png"
   inkscape:export-xdpi="96"
   inkscape:export-ydpi="96">
  <defs
     id="defs2" />
  <sodipodi:namedview
     id="base"
     pagecolor="#ffffff"
     bordercolor="#666666"
     borderopacity="1.0"
     inkscape:pageopacity="0.0"
     inkscape:pageshadow="2"
     inkscape:zoom="0.24748739"
     inkscape:cx="306.69868"
     inkscape:cy="-208.40664"
     inkscape:document-units="mm"
     inkscape:current-layer="layer1"
     showgrid="false"
     inkscape:window-width="1920"
     inkscape:window-height="1017"
     inkscape:window-x="-8"
     inkscape:window-y="-8"
     inkscape:window-maximized="1" />
  <metadata
     id="metadata5">
    <rdf:RDF>
      <cc:Work
         rdf:about="">
        <dc:format>image/svg+xml</dc:format>
        <dc:type
           rdf:resource="http://purl.org/dc/dcmitype/StillImage" />
        <dc:title />
      </cc:Work>
    </rdf:RDF>
  </metadata>
  <g
     inkscape:label="Layer 1"
     inkscape:groupmode="layer"
     id="layer1"
     transform="translate(96.279185,456.93863)">
    <path
       style="fill:#000000;stroke-width:0.13159743"
       d="m -96.279185,-404.29964 v -52.63899 h 5.527091 5.52709 v 52.63899 52.63896 h -5.52709 -5.527091 z"
       id="path832"
       inkscape:connector-curvature="0" />
    <path
       style="fill:#000000;stroke-width:0.13159743"
       d="m -2.0554055,-404.29964 v -52.63899 h 5.5270914 5.5271004 v 52.63899 52.63896 H 3.4716859 -2.0554055 Z"
       id="path830"
       inkscape:connector-curvature="0" />
    <path
       style="fill:#000000;stroke-width:0.13159743"
       d="m -46.138094,-354.96228 c -0.613872,-0.059 -1.36424,-0.20218 -1.667491,-0.31797 -1.142671,-0.43641 -2.2764,-2.20195 -2.745937,-4.27627 -0.165647,-0.73178 -0.240429,-1.8606 -0.289185,-4.36568 l -0.06574,-3.37869 -0.770916,-0.47584 c -1.503387,-0.92793 -2.08544,-1.95929 -3.023208,-5.35678 -0.727448,-2.6356 -1.154433,-3.64974 -2.022007,-4.80253 -1.518896,-2.01823 -4.573477,-3.56855 -8.006093,-4.0634 l -0.625088,-0.0901 v 0.60711 0.60716 h 0.504462 c 0.277454,0 0.537651,0.0332 0.578216,0.0739 0.04057,0.0405 -0.171635,0.47908 -0.471564,0.97447 -0.421704,0.69658 -0.63107,0.91847 -0.923658,0.97904 -0.544442,0.11263 -6.173069,0.0929 -6.349932,-0.0225 -0.237219,-0.15455 -1.224349,-1.78139 -1.151964,-1.8985 0.03613,-0.0584 0.299106,-0.1063 0.584349,-0.1063 h 0.51862 v -0.78961 c 0,-0.75518 -0.01431,-0.78956 -0.33008,-0.78956 h -0.330077 l 0.03394,-7.46816 0.03396,-7.46815 0.296092,-0.042 c 0.272008,-0.0387 0.296099,-0.11094 0.296099,-0.88827 v -0.84623 h -0.592191 -0.59219 v -2.364 -2.36402 l 0.491138,-0.33374 0.491146,-0.33374 h 3.548406 3.548404 l 0.500574,0.3469 0.500561,0.34687 v 2.35084 2.35089 h -0.59219 -0.592186 v 0.86773 0.86774 l 0.690883,-0.0855 c 4.355638,-0.5387 7.265687,-2.17998 8.683644,-4.89768 0.554557,-1.06287 0.717877,-1.53247 1.41755,-4.07601 0.291254,-1.05878 0.720699,-2.28372 0.954327,-2.72205 0.514135,-0.96458 1.430734,-1.91044 2.177939,-2.24736 l 0.55138,-0.24864 v -7.94165 -7.94165 h -0.657989 c -0.577237,0 -0.657988,0.0333 -0.657988,0.27183 0,0.36136 -0.232935,0.78092 -0.433571,0.78092 -0.224828,0 -0.504173,0.48526 -0.68183,1.18438 -0.140569,0.55324 -0.181968,0.59485 -0.62902,0.63262 -0.463497,0.0391 -0.483192,0.0226 -0.626253,-0.5264 -0.188778,-0.72439 -0.43071,-1.2906 -0.551468,-1.2906 -0.05187,0 -0.210401,-0.12454 -0.352245,-0.27681 -0.190798,-0.20478 -0.255146,-0.45304 -0.247334,-0.95409 0.0071,-0.49198 -0.124983,-1.01927 -0.484829,-1.92745 -0.637919,-1.60986 -0.977046,-2.81875 -0.986574,-3.51682 -0.0062,-0.48602 0.04127,-0.58116 0.380677,-0.75669 0.21354,-0.11042 0.480024,-0.20078 0.59219,-0.20078 0.137184,0 0.203928,-0.12468 0.203928,-0.38073 0,-0.21512 0.0849,-0.41328 0.195232,-0.45563 0.164628,-0.0631 0.200739,-0.62768 0.230302,-3.60011 l 0.0351,-3.52517 0.581631,-0.0417 c 1.23262,-0.0881 1.144678,-0.35766 1.136415,3.48323 -0.0062,3.03016 0.01678,3.41433 0.223016,3.6765 0.126662,0.16106 0.230305,0.41669 0.230305,0.56811 0,0.15145 0.06502,0.27537 0.1446,0.27537 0.07954,0 0.342582,0.0941 0.584544,0.20875 0.311237,0.14769 0.451797,0.31132 0.480488,0.55927 0.03724,0.32173 0.0892,0.35053 0.632721,0.35053 h 0.592191 l 0.09519,-1.71073 c 0.371869,-6.68267 2.278903,-13.09151 5.149379,-17.30508 0.515482,-0.7567 1.785252,-1.97397 2.059083,-1.97397 0.273834,0 1.543603,1.21727 2.059098,1.97397 2.861006,4.19971 4.785915,10.64668 5.147204,17.23923 l 0.09734,1.77658 0.625091,0.0401 c 0.613109,0.0392 0.625088,0.0329 0.625088,-0.34691 0,-0.31079 0.08818,-0.42883 0.447577,-0.5994 0.24617,-0.11674 0.512653,-0.21238 0.59219,-0.21238 0.07954,0 0.144613,-0.12387 0.144613,-0.27536 0,-0.15143 0.103629,-0.40706 0.230292,-0.56811 0.206128,-0.26204 0.229695,-0.64785 0.2246,-3.67689 -0.0062,-3.84032 -0.09436,-3.57069 1.134832,-3.48284 l 0.581631,0.0416 0.0351,3.52518 c 0.02963,2.97244 0.06564,3.53693 0.230303,3.6001 0.110319,0.0424 0.195232,0.24049 0.195232,0.45564 0,0.25611 0.06677,0.38071 0.203938,0.38071 0.112156,0 0.37864,0.0905 0.592189,0.20078 0.339434,0.17552 0.387295,0.27069 0.380667,0.75667 -0.0092,0.6981 -0.348652,1.90697 -0.986573,3.51686 -0.363267,0.91677 -0.492497,1.43359 -0.484573,1.93794 0.0093,0.58987 -0.03929,0.73051 -0.340915,0.98818 -0.407844,0.34837 -0.612596,0.73147 -0.813911,1.52281 -0.139785,0.54952 -0.158792,0.56557 -0.622729,0.52639 -0.447053,-0.0377 -0.488452,-0.0793 -0.62902,-0.63261 -0.187281,-0.737 -0.40978,-1.10074 -0.770143,-1.25902 -0.186012,-0.0816 -0.293241,-0.26575 -0.320696,-0.55044 -0.04045,-0.41918 -0.05412,-0.42767 -0.690886,-0.42767 h -0.649644 v 7.94165 7.94167 l 0.551381,0.24861 c 0.747198,0.33693 1.663805,1.28278 2.177929,2.24737 0.233628,0.43835 0.663072,1.66327 0.954327,2.72207 0.699681,2.54356 0.862995,3.01313 1.417551,4.076 1.421873,2.72518 4.315985,4.35751 8.683643,4.8977 l 0.690885,0.0855 v -0.86773 -0.86773 h -0.59219 -0.59218 v -2.35087 -2.35086 l 0.500563,-0.34688 0.500563,-0.34689 h 3.548405 3.548414 l 0.491137,0.33373 0.491137,0.33374 v 2.36402 2.36401 h -0.592189 -0.592182 v 0.84625 c 0,0.77736 0.02407,0.84964 0.296092,0.88825 l 0.29609,0.042 0.03396,7.46813 0.03394,7.46818 h -0.330081 c -0.315692,0 -0.33008,0.0343 -0.33008,0.78956 v 0.78959 h 0.518623 c 0.285248,0 0.546439,0.0449 0.580426,0.0999 0.07616,0.12323 -0.883554,1.73975 -1.123016,1.89158 -0.196516,0.12455 -5.793881,0.15597 -6.374956,0.0357 -0.292594,-0.0606 -0.501955,-0.28246 -0.923661,-0.97899 -0.299926,-0.49544 -0.512129,-0.93395 -0.471562,-0.97451 0.04057,-0.0405 0.300772,-0.0739 0.578227,-0.0739 h 0.504448 v -0.60714 -0.60713 l -0.625088,0.0884 c -1.023064,0.14453 -3.000515,0.69891 -4.047257,1.13468 -1.989152,0.8281 -3.551429,2.12022 -4.480884,3.70611 -0.661544,1.12874 -0.918409,1.82362 -1.52125,4.1152 -0.285603,1.0857 -0.734651,2.41678 -0.997893,2.95802 -0.516637,1.06227 -1.392703,2.02875 -2.234479,2.46511 l -0.503072,0.2608 -0.07811,3.40891 c -0.08686,3.78558 -0.225693,4.68859 -0.971605,6.3168 -0.512438,1.11857 -1.256167,1.98288 -1.984499,2.30624 -0.982593,0.43624 -4.222527,0.612 -6.767294,0.36708 z"
       id="path826"
       inkscape:connector-curvature="0" />
  </g>
</svg>
