<?xml version="1.0" encoding="UTF-8" standalone="no"?>
<!-- Created with Inkscape (http://www.inkscape.org/) -->

<svg
   xmlns:dc="http://purl.org/dc/elements/1.1/"
   xmlns:cc="http://creativecommons.org/ns#"
   xmlns:rdf="http://www.w3.org/1999/02/22-rdf-syntax-ns#"
   xmlns:svg="http://www.w3.org/2000/svg"
   xmlns="http://www.w3.org/2000/svg"
   xmlns:sodipodi="http://sodipodi.sourceforge.net/DTD/sodipodi-0.dtd"
   xmlns:inkscape="http://www.inkscape.org/namespaces/inkscape"
   sodipodi:docname="viper racer-civ 3.svg"
   id="svg8"
   version="1.1"
   viewBox="0 0 63.272148 63.272149"
   height="63.272148mm"
   width="63.272148mm"
   inkscape:version="0.92.4 (5da689c313, 2019-01-14)"
   inkscape:export-filename="D:\GitHub\wills-spaceships\Outlines Ships\viper racer-civ 4.png"
   inkscape:export-xdpi="96"
   inkscape:export-ydpi="96">
  <defs
     id="defs2" />
  <sodipodi:namedview
     id="base"
     pagecolor="#ffffff"
     bordercolor="#666666"
     borderopacity="1.0"
     inkscape:pageopacity="0.0"
     inkscape:pageshadow="2"
     inkscape:zoom="0.49497477"
     inkscape:cx="-26.655178"
     inkscape:cy="-92.392029"
     inkscape:document-units="mm"
     inkscape:current-layer="layer1"
     showgrid="false"
     inkscape:window-width="1920"
     inkscape:window-height="1017"
     inkscape:window-x="-8"
     inkscape:window-y="-8"
     inkscape:window-maximized="1" />
  <metadata
     id="metadata5">
    <rdf:RDF>
      <cc:Work
         rdf:about="">
        <dc:format>image/svg+xml</dc:format>
        <dc:type
           rdf:resource="http://purl.org/dc/dcmitype/StillImage" />
        <dc:title />
      </cc:Work>
    </rdf:RDF>
  </metadata>
  <g
     inkscape:label="Layer 1"
     inkscape:groupmode="layer"
     id="layer1"
     transform="translate(450.82082,755.53981)">
    <path
       style="fill:#000000;stroke-width:0.07909018"
       d="m -450.82082,-696.49899 v -4.23132 h 31.63606 31.63609 v 4.23132 4.23133 h -31.63609 -31.63606 z"
       id="path832"
       inkscape:connector-curvature="0" />
    <path
       style="fill:#000000;stroke-width:0.07909018"
       d="m -426.44668,-703.32052 c -0.0386,-0.0761 -0.24165,-0.68058 -0.45109,-1.34322 l -0.38084,-1.20481 -2.04352,-1.3427 -2.04353,-1.3427 -3.63114,-0.93246 c -3.61717,-0.92887 -3.63419,-0.93236 -4.42853,-0.90743 -0.77719,0.0244 -0.7974,0.0298 -0.7974,0.21091 0,0.10226 -0.0375,0.19835 -0.0831,0.21359 -0.0456,0.0151 -0.14572,0.27625 -0.22219,0.58001 l -0.139,0.55227 -0.40644,0.0238 -0.40641,0.0238 -0.082,-0.30488 c -0.0451,-0.16769 -0.10469,-0.41784 -0.13228,-0.55585 -0.0277,-0.13804 -0.0993,-0.2917 -0.15931,-0.34151 -0.06,-0.0498 -0.1091,-0.15737 -0.1091,-0.23905 0,-0.0916 -0.0559,-0.1485 -0.14592,-0.1485 -0.23565,0 -0.40773,-0.25888 -0.40773,-0.61344 0,-0.61586 -0.16731,-1.52344 -0.43447,-2.35646 -0.30439,-0.94914 -0.40366,-1.41482 -0.47354,-2.22144 -0.0472,-0.54469 -0.0413,-0.57048 0.16341,-0.73158 0.12051,-0.0948 0.3274,-0.16702 0.47846,-0.16702 0.25697,0 0.26614,-0.0107 0.26614,-0.31062 0,-0.23713 0.0467,-0.34743 0.19776,-0.46614 l 0.19771,-0.15553 v -2.80028 c 0,-2.07253 0.0246,-2.82495 0.0949,-2.89519 0.13053,-0.13051 1.22018,-0.1272 1.30179,0.004 0.0338,0.0543 0.0665,1.35547 0.0726,2.89132 0.011,2.7578 0.0133,2.79394 0.18043,2.91106 0.13061,0.0915 0.16931,0.2004 0.16931,0.47659 0,0.38763 0.15581,0.45413 0.23824,0.10164 0.0373,-0.15943 0.1002,-0.19594 0.3722,-0.2159 0.30664,-0.0225 0.32894,-0.0103 0.35276,0.19772 0.0237,0.20659 0.0529,0.22335 0.42431,0.2451 0.43833,0.0256 10.48156,-1.14782 10.57123,-1.23518 0.0307,-0.0298 0.27012,-0.74808 0.53224,-1.59617 l 0.47655,-1.54194 0.52177,-8.69993 c 0.28697,-4.78495 0.52037,-8.98464 0.51865,-9.33263 -0.002,-0.348 0.037,-1.40683 0.086,-2.35293 l 0.0891,-1.72023 0.20462,-2.1e-4 c 0.11255,-1.8e-4 0.49825,0.13179 0.85711,0.29324 l 0.6525,0.29351 v 0.4796 0.47959 l 0.86256,0.65607 0.86255,0.65606 0.42266,-0.12864 c 0.23247,-0.0708 1.0008,-0.16874 1.7074,-0.21779 1.50264,-0.10431 3.7435,0.005 4.43664,0.21718 l 0.42232,0.12907 0.8629,-0.65201 0.8629,-0.652 v -0.48356 -0.48357 l 0.65247,-0.29351 c 0.35889,-0.16145 0.74458,-0.29342 0.85714,-0.29324 l 0.20461,2.1e-4 0.0891,1.72023 c 0.0491,0.9461 0.0877,2.00493 0.086,2.35293 -0.002,0.34799 0.23168,4.54768 0.51866,9.33263 l 0.52177,8.69993 0.47656,1.54194 c 0.26212,0.84809 0.50162,1.56636 0.53224,1.59617 0.0897,0.0875 10.1329,1.26082 10.57121,1.23518 0.3716,-0.0218 0.40062,-0.0385 0.42432,-0.2451 0.0238,-0.20776 0.0462,-0.22027 0.35277,-0.19772 0.27197,0.0199 0.3349,0.0564 0.37218,0.2159 0.0818,0.34993 0.23825,0.28656 0.23825,-0.0966 0,-0.27266 0.0384,-0.37835 0.16901,-0.46508 0.16697,-0.11085 0.16916,-0.14629 0.18057,-2.91621 0.006,-1.5422 0.0391,-2.84848 0.0729,-2.90286 0.0813,-0.13117 1.17112,-0.13447 1.30166,-0.004 0.0703,0.0702 0.0949,0.82265 0.0949,2.89518 v 2.80027 l 0.19772,0.15554 c 0.15094,0.11872 0.19773,0.22903 0.19773,0.46616 0,0.29988 0.009,0.31062 0.26615,0.31062 0.14951,0 0.35749,0.0718 0.47457,0.16392 0.1997,0.15711 0.2065,0.1876 0.16286,0.73158 -0.0644,0.80301 -0.16268,1.2691 -0.4691,2.22452 -0.26923,0.83951 -0.43448,1.74104 -0.43448,2.3702 0,0.35641 -0.171,0.5997 -0.42145,0.5997 -0.0765,0 -0.13218,0.0625 -0.13218,0.14852 0,0.0815 -0.0491,0.18923 -0.10911,0.23903 -0.06,0.0498 -0.13169,0.20349 -0.1593,0.34152 -0.0277,0.13802 -0.0873,0.38816 -0.13228,0.55585 l -0.082,0.30488 -0.40641,-0.0238 -0.40643,-0.0238 -0.13675,-0.54336 c -0.0753,-0.29885 -0.17521,-0.5818 -0.2222,-0.62875 -0.0469,-0.0471 -0.0855,-0.14712 -0.0855,-0.22253 0,-0.11939 -0.10319,-0.14035 -0.79708,-0.16214 -0.7941,-0.0248 -0.81069,-0.0215 -4.43,0.90857 l -3.63291,0.9336 -2.03564,1.33812 -2.03562,1.3381 -0.43498,1.3269 -0.43502,1.32689 -0.83042,0.0244 c -0.50784,0.0149 -0.94661,-0.0135 -1.12942,-0.0728 -0.22826,-0.074 -0.32086,-0.0752 -0.39149,-0.004 -0.25473,0.25472 -1.07243,-0.0262 -1.31083,-0.4504 -0.17945,-0.31932 -0.69471,-0.56548 -1.18209,-0.56473 -0.2328,2.2e-4 -0.25704,0.0229 -0.25704,0.23767 0,0.23172 -0.009,0.23726 -0.39209,0.23726 -0.35329,0 -0.41392,0.0275 -0.61293,0.27682 l -0.2209,0.2768 h -0.90952 -0.90953 l -0.22087,-0.2768 c -0.19903,-0.24944 -0.25968,-0.27682 -0.61296,-0.27682 -0.38292,0 -0.39208,-0.005 -0.39208,-0.23726 0,-0.22225 -0.0188,-0.237 -0.29658,-0.23287 -0.45465,0.006 -0.93426,0.23715 -1.14456,0.54977 -0.30714,0.45656 -0.96187,0.68368 -1.32223,0.45864 -0.11724,-0.0732 -0.19786,-0.0732 -0.35856,0 -0.12023,0.0548 -0.56994,0.0945 -1.07078,0.0945 -0.74287,0 -0.87331,-0.0193 -0.93379,-0.13839 z"
       id="path830"
       inkscape:connector-curvature="0" />
    <path
       style="fill:#000000;stroke-width:0.07909018"
       d="m -450.82082,-751.30848 v -4.23133 h 31.63606 31.63609 v 4.23133 4.23132 h -31.63609 -31.63606 z"
       id="path826"
       inkscape:connector-curvature="0" />
  </g>
</svg>
