<?xml version="1.0" encoding="UTF-8" standalone="no"?>
<!-- Created with Inkscape (http://www.inkscape.org/) -->

<svg
   xmlns:dc="http://purl.org/dc/elements/1.1/"
   xmlns:cc="http://creativecommons.org/ns#"
   xmlns:rdf="http://www.w3.org/1999/02/22-rdf-syntax-ns#"
   xmlns:svg="http://www.w3.org/2000/svg"
   xmlns="http://www.w3.org/2000/svg"
   xmlns:sodipodi="http://sodipodi.sourceforge.net/DTD/sodipodi-0.dtd"
   xmlns:inkscape="http://www.inkscape.org/namespaces/inkscape"
   sodipodi:docname="shuttle-civ 3.svg"
   id="svg8"
   version="1.1"
   viewBox="0 0 49.42698 49.426979"
   height="49.426979mm"
   width="49.426979mm"
   inkscape:version="0.92.4 (5da689c313, 2019-01-14)"
   inkscape:export-filename="D:\GitHub\wills-spaceships\Outlines Ships\shuttle-civ 4.png"
   inkscape:export-xdpi="96"
   inkscape:export-ydpi="96">
  <defs
     id="defs2" />
  <sodipodi:namedview
     id="base"
     pagecolor="#ffffff"
     bordercolor="#666666"
     borderopacity="1.0"
     inkscape:pageopacity="0.0"
     inkscape:pageshadow="2"
     inkscape:zoom="0.35"
     inkscape:cx="1462.3041"
     inkscape:cy="-131.96233"
     inkscape:document-units="mm"
     inkscape:current-layer="layer1"
     showgrid="false"
     inkscape:window-width="1920"
     inkscape:window-height="1017"
     inkscape:window-x="1912"
     inkscape:window-y="-8"
     inkscape:window-maximized="1" />
  <metadata
     id="metadata5">
    <rdf:RDF>
      <cc:Work
         rdf:about="">
        <dc:format>image/svg+xml</dc:format>
        <dc:type
           rdf:resource="http://purl.org/dc/dcmitype/StillImage" />
        <dc:title></dc:title>
      </cc:Work>
    </rdf:RDF>
  </metadata>
  <g
     inkscape:label="Layer 1"
     inkscape:groupmode="layer"
     id="layer1"
     transform="translate(405.35848,-226.55014)">
    <path
       style="fill:#000000;stroke-width:0.06178372"
       d="m -405.35848,251.26362 v -24.71348 h 3.21276 3.21275 v 24.71348 24.7135 h -3.21275 -3.21276 z"
       id="path832"
       inkscape:connector-curvature="0" />
    <path
       style="fill:#000000;stroke-width:0.06178372"
       d="m -362.35701,251.26362 v -24.71348 h 3.21275 3.21276 v 24.71348 24.7135 h -3.21276 -3.21275 z"
       id="path830"
       inkscape:connector-curvature="0" />
    <path
       style="fill:#000000;stroke-width:0.06178372"
       d="m -387.96222,274.06959 c -0.46539,-0.0973 -0.49466,-0.11321 -0.57997,-0.31765 -0.0983,-0.23546 -0.12737,-1.24552 -0.0501,-1.73959 0.043,-0.27392 0.0364,-0.29285 -0.12686,-0.37107 -0.22805,-0.1093 -0.275,-0.3945 -0.19651,-1.19381 0.0518,-0.52715 0.26169,-1.86791 0.39908,-2.54858 0.0392,-0.19445 0.034,-0.2009 -0.168,-0.20405 -0.33296,-0.005 -1.35136,-0.21894 -1.43221,-0.30057 -0.0404,-0.0408 -0.0737,-0.17524 -0.0737,-0.29835 v -0.22388 l -0.44064,-0.0966 c -0.39315,-0.0863 -0.48542,-0.13677 -0.85599,-0.46852 l -0.41534,-0.37182 0.8133,-2.31576 c 0.44734,-1.27368 0.92287,-2.62044 1.05679,-2.99281 0.13393,-0.37236 0.24347,-0.74273 0.24347,-0.82299 0,-0.13875 -0.0183,-0.14524 -0.36703,-0.13101 -0.20187,0.008 -0.40418,-0.0159 -0.4496,-0.0537 -0.0629,-0.0522 -0.14722,-0.0251 -0.35278,0.11296 -0.1486,0.0998 -0.3105,0.18148 -0.35975,0.18148 -0.0494,0 -0.18618,-0.0967 -0.30429,-0.21473 -0.24016,-0.24018 -0.23841,-0.32999 0.0141,-0.72212 0.11103,-0.17237 0.12802,-0.24108 0.0712,-0.28812 -0.0523,-0.0435 -0.0654,-0.22082 -0.0439,-0.59558 0.0171,-0.29355 0.0216,-1.00494 0.0103,-1.58082 l -0.0206,-1.04708 h -0.27144 c -0.26634,0 -0.27683,-0.008 -0.55084,-0.41638 -0.25003,-0.3727 -0.27933,-0.45337 -0.27933,-0.76921 0,-0.34256 -0.008,-0.35963 -0.27802,-0.58523 l -0.27803,-0.23241 v -2.19805 -2.19806 l 0.27803,-0.23238 c 0.26993,-0.22565 0.27802,-0.24268 0.27802,-0.58524 0,-0.31586 0.0291,-0.39651 0.27933,-0.76923 0.27461,-0.40933 0.28396,-0.41639 0.55318,-0.41639 h 0.27385 l 0.0182,-1.00396 c 0.0103,-0.55222 0.005,-1.26365 -0.0126,-1.58098 -0.0216,-0.40297 -0.008,-0.59522 0.0423,-0.6375 0.0547,-0.0451 0.0274,-0.13303 -0.10812,-0.34643 -0.0998,-0.15724 -0.18132,-0.32495 -0.18132,-0.37265 0,-0.0477 0.0967,-0.1834 0.2147,-0.30147 0.24048,-0.24046 0.32989,-0.23853 0.72454,0.0157 0.13366,0.0861 0.2443,0.12213 0.26622,0.0865 0.0206,-0.0336 0.19921,-0.0606 0.39683,-0.0606 0.35303,0 0.36003,-0.003 0.39796,-0.19307 0.0212,-0.10619 0.0386,-3.34545 0.0386,-7.19831 v -7.00525 l 0.5338,-0.24664 0.53378,-0.24659 h 2.06022 2.06019 l 0.52337,0.25954 0.52335,0.25956 0.0182,0.34284 0.0182,0.34283 h 2.87292 2.87296 l 0.0182,-0.34283 0.0181,-0.34284 0.52335,-0.25956 0.52335,-0.25954 h 2.06793 2.06794 l 0.52608,0.2609 0.52605,0.26089 7.8e-4,6.95237 c 3.6e-4,3.82377 0.018,7.05659 0.0389,7.18401 l 0.0383,0.23169 h 0.35897 c 0.19743,0 0.37585,0.0275 0.39649,0.0606 0.0219,0.0355 0.13255,-4.7e-4 0.26622,-0.0865 0.39465,-0.25427 0.48404,-0.25622 0.72451,-0.0157 0.1181,0.11807 0.21473,0.25374 0.21473,0.30147 0,0.0477 -0.0815,0.21541 -0.18133,0.37265 -0.13535,0.2134 -0.16273,0.30123 -0.10811,0.34643 0.051,0.0423 0.064,0.23453 0.0423,0.6375 -0.0171,0.31733 -0.0227,1.02876 -0.0126,1.58098 l 0.0183,1.00396 h 0.27384 c 0.26921,0 0.27856,0.007 0.55317,0.41639 0.24951,0.37193 0.27932,0.45381 0.27932,0.76696 0,0.33917 0.009,0.35825 0.27804,0.58759 l 0.27802,0.23703 v 2.1957 2.19568 l -0.27802,0.23241 c -0.26991,0.2256 -0.27804,0.24267 -0.27804,0.58523 0,0.31584 -0.0292,0.39651 -0.27932,0.76921 -0.27532,0.41046 -0.28327,0.41638 -0.55604,0.41638 h -0.27675 l -0.008,0.97311 c -0.005,0.53521 -0.002,1.25462 0.006,1.59874 0.009,0.39081 -0.009,0.64085 -0.0504,0.66619 -0.0416,0.0258 7.8e-4,0.14558 0.1171,0.32864 0.10058,0.15846 0.18272,0.32717 0.18272,0.37487 0,0.0477 -0.0967,0.18337 -0.21471,0.30146 -0.24019,0.24018 -0.32999,0.23844 -0.72213,-0.0141 -0.17934,-0.11552 -0.23991,-0.12945 -0.29163,-0.067 -0.0446,0.0539 -0.18293,0.0703 -0.43783,0.0517 -0.35166,-0.0254 -0.37256,-0.0192 -0.37256,0.11005 0,0.0754 0.47563,1.48937 1.057,3.14227 l 1.05699,3.00527 -0.42371,0.38224 c -0.38714,0.34921 -0.46106,0.38947 -0.8562,0.46609 l -0.43249,0.0839 v 0.22584 c 0,0.1242 -0.0315,0.25763 -0.0701,0.2965 -0.0757,0.0762 -1.17639,0.30713 -1.46691,0.30745 -0.16751,1.8e-4 -0.17532,0.0117 -0.1371,0.20101 0.13738,0.68066 0.34733,2.02144 0.39909,2.54857 0.0785,0.79932 0.0317,1.08451 -0.19653,1.19381 -0.1632,0.0781 -0.16967,0.0971 -0.12685,0.37106 0.077,0.49297 0.0482,1.50415 -0.0496,1.73871 -0.0858,0.2053 -0.11146,0.21885 -0.61087,0.32111 -0.49775,0.10195 -0.52831,0.10174 -0.67385,-0.003 -0.2148,-0.15506 -0.5329,-0.81527 -0.69507,-1.44261 -0.13393,-0.51809 -0.14228,-0.53196 -0.30079,-0.50028 -0.21623,0.0434 -0.36398,-0.16547 -0.5765,-0.8145 -0.13776,-0.42068 -0.48433,-1.91756 -0.62681,-2.70721 -0.0372,-0.20652 -0.0597,-0.23142 -0.17391,-0.19442 -0.33411,0.10811 -1.26224,0.27928 -1.42861,0.26349 -0.15795,-0.015 -0.19391,-0.0523 -0.24314,-0.25151 -0.0397,-0.16149 -0.0846,-0.22363 -0.14407,-0.20079 -0.0476,0.0182 -0.11181,0.0332 -0.14302,0.0332 -0.0311,0 -0.0567,0.13604 -0.0567,0.30232 0,0.21867 -0.027,0.31267 -0.0977,0.3398 -0.12757,0.049 -4.12539,0.049 -4.25299,0 -0.0707,-0.0272 -0.0977,-0.12113 -0.0977,-0.3398 0,-0.16628 -0.0256,-0.30232 -0.0567,-0.30232 -0.0312,0 -0.0956,-0.0149 -0.14304,-0.0332 -0.0597,-0.0228 -0.10417,0.0392 -0.14405,0.20079 -0.0493,0.19934 -0.0852,0.23652 -0.24313,0.25154 -0.16582,0.0158 -1.09698,-0.15582 -1.4247,-0.26248 -0.12014,-0.0391 -0.14022,0.0216 -0.36067,1.09027 -0.25127,1.218 -0.51579,2.12066 -0.71763,2.44878 -0.0999,0.16216 -0.16041,0.2009 -0.29021,0.18536 -0.15708,-0.0187 -0.17106,0.004 -0.32625,0.53642 -0.19565,0.67105 -0.46678,1.23548 -0.67043,1.39563 -0.0825,0.0651 -0.16714,0.11503 -0.18805,0.11134 -0.0208,-0.004 -0.25857,-0.0528 -0.52813,-0.10909 z"
       id="path826"
       inkscape:connector-curvature="0" />
  </g>
</svg>
