<?xml version="1.0" encoding="UTF-8" standalone="no"?>
<!-- Created with Inkscape (http://www.inkscape.org/) -->

<svg
   inkscape:export-ydpi="96"
   inkscape:export-xdpi="96"
   inkscape:export-filename="C:\Users\SN\GitHub\Supernova-Shipyard-Source\Vectors - Outlines Ships\carrier-aur 4.png"
   inkscape:version="1.1 (c68e22c387, 2021-05-23)"
   width="370.4165mm"
   height="370.41653mm"
   viewBox="0 0 370.4165 370.41655"
   version="1.1"
   id="svg8"
   sodipodi:docname="carrier-aurora 3.svg"
   xmlns:inkscape="http://www.inkscape.org/namespaces/inkscape"
   xmlns:sodipodi="http://sodipodi.sourceforge.net/DTD/sodipodi-0.dtd"
   xmlns="http://www.w3.org/2000/svg"
   xmlns:svg="http://www.w3.org/2000/svg"
   xmlns:rdf="http://www.w3.org/1999/02/22-rdf-syntax-ns#"
   xmlns:cc="http://creativecommons.org/ns#"
   xmlns:dc="http://purl.org/dc/elements/1.1/">
  <defs
     id="defs2" />
  <sodipodi:namedview
     id="base"
     pagecolor="#ffffff"
     bordercolor="#666666"
     borderopacity="1.0"
     inkscape:pageopacity="0.0"
     inkscape:pageshadow="2"
     inkscape:zoom="0.16"
     inkscape:cx="1140.625"
     inkscape:cy="940.625"
     inkscape:document-units="mm"
     inkscape:current-layer="layer1"
     showgrid="false"
     inkscape:window-width="1858"
     inkscape:window-height="1057"
     inkscape:window-x="54"
     inkscape:window-y="-8"
     inkscape:window-maximized="1"
     inkscape:pagecheckerboard="0"
     inkscape:snap-grids="false"
     inkscape:snap-to-guides="true"
     inkscape:snap-text-baseline="true" />
  <metadata
     id="metadata5">
    <rdf:RDF>
      <cc:Work
         rdf:about="">
        <dc:format>image/svg+xml</dc:format>
        <dc:type
           rdf:resource="http://purl.org/dc/dcmitype/StillImage" />
      </cc:Work>
    </rdf:RDF>
  </metadata>
  <g
     inkscape:label="Layer 1"
     inkscape:groupmode="layer"
     id="layer1"
     transform="translate(1499.8878,-193.83368)">
    <path
       style="fill:#000000;stroke-width:0.463022"
       d="M -1499.8878,379.04195 V 193.83368 h 58.8036 58.8037 v 185.20827 185.20827 h -58.8037 -58.8036 z"
       id="path22" />
    <path
       style="fill:#000000;stroke-width:0.463022"
       d="m -1332.0056,559.31867 c -0.1477,-0.38525 -0.2687,-1.17875 -0.2687,-1.7634 0,-0.58466 -0.3126,-1.32239 -0.6945,-1.63942 -0.3821,-0.31703 -0.6946,-1.07178 -0.6946,-1.67726 0,-0.8286 -0.2576,-1.10451 -1.0417,-1.11562 -1.6223,-0.0229 -2.4733,-0.98427 -2.5139,-2.83967 -0.028,-1.3379 0.1714,-1.7666 0.9487,-2.02662 0.9764,-0.32639 0.9756,-0.33182 -0.081,-0.53823 -0.8648,-0.16868 -0.9645,-0.33423 -0.522,-0.86726 0.3907,-0.47106 0.3985,-0.65875 0.027,-0.65875 -0.3071,0 -0.5198,-0.85028 -0.5198,-2.07814 0,-2.06646 0.012,-2.07979 1.8521,-2.37429 1.1171,-0.17861 1.8521,-0.54832 1.8521,-0.9315 0,-0.7897 -0.062,-0.78835 -1.6502,0.0353 -0.711,0.36899 -1.4122,0.59715 -1.558,0.50709 -0.1457,-0.09 -0.329,-1.33147 -0.4072,-2.75867 -0.113,-2.06613 0.012,-2.6544 0.6179,-2.88663 0.5979,-0.22945 0.6304,-0.37185 0.1522,-0.66731 -0.3623,-0.22394 -0.6455,-1.41372 -0.7011,-2.94618 -0.1,-2.73688 0.4623,-3.49465 2.5899,-3.49465 0.6824,0 0.9573,-0.29862 0.9596,-1.04178 0,-0.57298 0.4169,-1.6669 0.9231,-2.43085 1.5103,-2.28066 1.2286,-3.17259 -1.3893,-4.3987 l -2.3149,-1.08433 v -7.79223 -7.79218 h -1.6207 c -1.4072,0 -1.6206,0.14801 -1.6206,1.12445 0,2.21854 -2.561,3.59477 -4.4212,2.37592 -0.7838,-0.51355 -1.135,-1.16998 -1.135,-2.12199 0,-0.89546 -0.2352,-1.37838 -0.6714,-1.37838 -0.4927,0 -0.7084,0.70905 -0.8102,2.66237 l -0.1389,2.66237 h -9.2605 -9.2605 l -0.122,-14.45892 -0.1222,-14.45893 1.0486,-0.25798 c 0.5766,-0.14188 4.7988,-0.1987 9.3828,-0.12627 l 8.3344,0.13176 0.1387,2.66236 c 0.1024,1.95331 0.3176,2.66237 0.8103,2.66237 0.4022,0 0.6714,-0.45083 0.6714,-1.12448 0,-1.49149 1.1557,-2.57968 2.7395,-2.57968 1.4981,0 2.8167,1.26356 2.8167,2.69882 0,0.95292 0.2054,1.00534 3.9357,1.00534 h 3.9356 v -4.52136 -4.52138 l -6.0193,-4.31421 c -5.7974,-4.15535 -6.0204,-4.37674 -6.0556,-6.01235 -0.037,-1.74131 -0.151,-1.66241 -0.6064,0.42182 -0.6806,3.11445 -5.3474,2.37857 -5.3693,-0.84665 0,-0.59817 -0.293,-1.0418 -0.6786,-1.0418 -0.4925,0 -0.7083,0.70905 -0.8101,2.66237 l -0.139,2.66237 -8.3343,0.13174 c -4.584,0.0725 -8.8062,0.0156 -9.3827,-0.12626 l -1.0484,-0.25798 0.1221,-14.45892 0.1221,-14.45892 h 9.2602 9.2606 l 0.1388,2.66236 c 0.1024,1.95331 0.3176,2.66236 0.8102,2.66236 0.3927,0 0.6715,-0.4438 0.6715,-1.06903 0,-1.68226 1.0828,-2.78946 2.728,-2.78946 1.7789,0 2.3509,0.51369 2.8306,2.5423 0.3175,1.34293 0.3722,1.18 0.4133,-1.23138 0.032,-1.82217 -0.4309,-4.45248 -1.3417,-7.63888 -1.2703,-4.44415 -1.3891,-5.46372 -1.3891,-11.92179 0,-5.30335 0.1443,-7.07962 0.5788,-7.13258 0.3183,-0.0388 0.7871,-0.11891 1.0418,-0.17809 0.2546,-0.0592 0.9573,-0.13162 1.5615,-0.161 0.8891,-0.0431 0.9955,-0.17746 0.5584,-0.70432 -0.2972,-0.35798 -0.6448,-1.55608 -0.7725,-2.66236 -0.1273,-1.10631 -0.4298,-2.74071 -0.6714,-3.63203 -0.6323,-2.33243 -0.5323,-8.13133 0.1934,-11.21496 0.3429,-1.45698 0.5199,-2.75255 0.3935,-2.87902 -0.334,-0.33401 0.8585,-3.03779 1.3398,-3.03779 0.2238,0 0.407,-0.41672 0.407,-0.92603 0,-0.50932 0.4166,-1.34277 0.9261,-1.85208 0.5091,-0.50934 0.9259,-1.09808 0.9259,-1.30838 0,-0.62666 2.1262,-2.4304 2.4653,-2.09136 0.172,0.17211 0.3128,-0.0388 0.3128,-0.46869 0,-0.4299 0.573,-1.03338 1.2733,-1.34107 0.7003,-0.30766 1.3775,-0.68873 1.5049,-0.84679 0.1273,-0.15805 0.7276,-0.54882 1.3338,-0.86836 l 1.1022,-0.58098 -1.7968,-1.00749 -1.7967,-1.00747 -0.1261,-9.36185 c -0.077,-5.71525 -0.3018,-9.36182 -0.5788,-9.36182 -0.2495,0 -0.4534,-1.15598 -0.4534,-2.56883 0,-2.1769 0.1798,-2.72439 1.179,-3.58842 1.1457,-0.99082 1.1633,-1.09145 0.6189,-3.56619 -0.3079,-1.40065 -0.8186,-2.76355 -1.135,-3.02867 -0.3182,-0.26661 -0.6466,-1.87076 -0.7348,-3.58937 l -0.1596,-3.10734 1.2732,7.6e-4 c 1.2436,7.4e-4 1.2734,-0.0622 1.2734,-2.69894 0,-2.38088 -0.1321,-2.77061 -1.1186,-3.29849 -0.6151,-0.32927 -1.2373,-1.04164 -1.3827,-1.58307 -0.1453,-0.54145 -0.267,-11.35031 -0.2705,-24.01972 v -23.0351 h 2.0836 2.0836 V 273.936 260.50841 h -1.7987 c -2.9107,0 -3.4066,-1.2095 -3.0951,-7.54992 0.6698,-13.63752 1.1223,-20.22105 1.5555,-22.63507 0.26,-1.4494 0.6257,-9.31498 0.8126,-17.47904 l 0.3395,-14.84377 h 1.2567 c 1.2313,0 1.2627,0.0717 1.556,3.54252 0.1647,1.94837 0.2996,7.69044 0.2996,12.76012 0,9.07784 0.6792,17.77105 1.4553,18.63227 0.2182,0.24193 0.3967,1.47473 0.3967,2.73954 0,3.71565 0.674,1.96467 0.926,-2.40562 l 0.2316,-4.01494 h 14.5851 14.5852 l 0.2314,4.01494 c 0.2527,4.37965 0.9261,6.118 0.9261,2.39018 0,-1.2733 0.1557,-2.47076 0.3459,-2.66103 0.8196,-0.81981 1.4683,-8.63415 1.4865,-17.91211 0.012,-5.50047 0.1543,-11.59498 0.3192,-13.54335 0.2972,-3.51699 0.3088,-3.54252 1.6205,-3.54252 h 1.3211 l 0.021,6.36653 c 0.039,11.60914 0.7887,27.5033 1.3222,28.03688 0.3231,0.32296 0.5085,2.98803 0.5085,7.30813 0,4.72992 0.186,7.15854 0.6114,7.97834 0.4014,0.77414 0.5883,2.7415 0.5439,5.73328 -0.083,5.6957 -0.775,7.08464 -3.5236,7.08464 h -1.7991 v 13.42759 13.4276 h 2.0837 2.0837 v 23.03529 c 0,12.6694 -0.1249,23.47826 -0.2706,24.0197 -0.1453,0.54142 -0.7768,1.25874 -1.4033,1.594 -1.0302,0.55146 -1.126,0.85492 -1.0027,3.18277 0.1247,2.3573 0.2333,2.58444 1.2938,2.70749 1.1239,0.13047 1.1529,0.22372 0.9979,3.22212 -0.091,1.76177 -0.4134,3.29481 -0.7507,3.56984 -0.3251,0.26513 -0.8156,1.62803 -1.0899,3.02867 -0.476,2.42982 -0.4469,2.58988 0.6348,3.49005 0.9607,0.79933 1.1339,1.34744 1.1339,3.58841 0,1.45473 -0.204,2.64496 -0.4535,2.64496 -0.2768,0 -0.5022,3.64659 -0.5786,9.36184 l -0.1261,9.36185 -1.8273,1.02459 -1.8273,1.02461 1.2485,0.56887 c 0.6867,0.31287 1.2486,0.72929 1.2486,0.92536 0,0.19607 0.4635,0.42308 1.03,0.50446 0.5668,0.0813 1.2696,0.6299 1.5622,1.21892 0.2926,0.58902 0.6675,1.04223 0.8333,1.00708 0.588,-0.12455 1.0047,0.26042 2.4851,2.2961 0.8238,1.13248 1.4976,2.43473 1.4976,2.89389 0,0.45915 0.1831,0.83484 0.4069,0.83484 0.4813,0 1.674,2.70377 1.3399,3.03777 -0.1259,0.12652 0.051,1.42204 0.3936,2.87903 0.7256,3.08363 0.8257,8.88252 0.1933,11.21495 -0.2417,0.89132 -0.5439,2.52572 -0.6715,3.63203 -0.1275,1.10628 -0.4647,2.29165 -0.7489,2.63413 -0.417,0.50255 -0.1313,0.65045 1.4844,0.76668 l 2.0011,0.14398 0.1286,7.11219 c 0.1207,6.72165 0.051,7.3838 -1.2735,12.05961 -0.8983,3.17213 -1.388,5.93681 -1.3647,7.7045 0.037,2.76501 0.1222,2.85446 0.6064,0.63706 0.3264,-1.49342 2.1767,-2.41608 3.6908,-1.84042 1.1469,0.43605 1.6855,1.34388 1.6855,2.84071 0,0.48848 0.3021,0.88816 0.6714,0.88816 0.4927,0 0.7085,-0.70906 0.8103,-2.66237 l 0.1389,-2.66236 h 9.2604 9.2606 l 0.122,14.45893 0.1219,14.45891 -1.0483,0.25798 c -0.5766,0.14188 -4.799,0.19869 -9.3829,0.12627 l -8.3344,-0.13175 -0.1386,-2.66237 c -0.1024,-1.95331 -0.3178,-2.66237 -0.8103,-2.66237 -0.3694,0 -0.6715,0.39967 -0.6715,0.88817 0,1.49682 -0.5386,2.40466 -1.6856,2.8407 -1.514,0.57567 -3.3644,-0.34699 -3.6906,-1.84042 -0.4555,-2.08398 -0.5691,-2.16318 -0.6064,-0.42325 -0.036,1.63559 -0.2537,1.8511 -6.056,5.97834 l -6.0192,4.2816 v 4.5554 4.55541 h 3.9357 c 3.8199,0 3.9356,-0.032 3.9356,-1.08581 0,-1.44615 1.374,-2.61838 3.0694,-2.61838 1.7218,0 2.4868,0.74088 2.4868,2.40771 0,0.8239 0.2448,1.29648 0.6715,1.29648 0.4925,0 0.7084,-0.70908 0.8103,-2.6624 l 0.139,-2.66235 8.3343,-0.13176 c 4.5838,-0.0725 8.806,-0.0156 9.3826,0.12627 l 1.0485,0.25797 -0.1221,14.45894 -0.1221,14.45893 h -9.2604 -9.2603 l -0.1389,-2.66238 c -0.1025,-1.95331 -0.3178,-2.66237 -0.8103,-2.66237 -0.4362,0 -0.6716,0.48291 -0.6716,1.37837 0,1.74323 -1.6677,2.96894 -3.4357,2.52519 -1.3237,-0.33221 -2.1205,-1.43964 -2.1205,-2.94709 0,-0.78444 -0.2915,-0.95647 -1.6205,-0.95647 h -1.6206 v 7.79219 7.79222 l -2.3151,1.08434 c -2.6006,1.21808 -2.8277,1.91513 -1.3908,4.27173 0.5084,0.8338 0.9252,1.98483 0.9261,2.55781 0,0.74362 0.2755,1.04182 0.9583,1.04182 2.1276,0 2.6891,0.75773 2.5897,3.49465 -0.054,1.53243 -0.3388,2.7222 -0.7011,2.94615 -0.4782,0.2955 -0.4455,0.43786 0.1525,0.6673 0.6051,0.23226 0.731,0.8205 0.6177,2.88662 -0.079,1.42722 -0.2614,2.66862 -0.4072,2.75869 -0.1458,0.09 -0.8469,-0.13811 -1.558,-0.50706 -1.588,-0.82385 -1.6503,-0.82516 -1.6503,-0.0353 0,0.38322 0.7352,0.75289 1.8522,0.93149 1.8417,0.29452 1.8521,0.30788 1.8521,2.3743 0,1.22786 -0.2127,2.07814 -0.5197,2.07814 -0.3591,0 -0.3416,0.21466 0.056,0.69451 0.4772,0.57502 0.4272,0.69705 -0.2904,0.70925 -0.8129,0.0139 -0.8172,0.0526 -0.068,0.62155 0.5309,0.40314 0.7773,1.18323 0.7343,2.32471 -0.068,1.80513 -0.8779,2.59529 -2.6602,2.59529 -0.6986,0 -0.9566,0.29697 -0.9566,1.10084 0,0.60548 -0.3009,1.35059 -0.6687,1.65583 -0.3679,0.3052 -0.7324,1.32044 -0.8102,2.25601 l -0.1416,1.70108 -7.0612,0.0834 c -6.9864,0.0825 -7.0609,0.0726 -7.0609,-0.93289 0,-0.5589 -0.4167,-1.79367 -0.9261,-2.74395 -0.8724,-1.62779 -0.9262,-2.61242 -0.9262,-17.00916 V 523.9675 h -1.389 -1.3891 v 15.39545 c 0,14.58381 -0.051,15.46866 -0.923,16.78451 -0.5058,0.76397 -0.9211,1.94266 -0.9229,2.6193 v 1.23022 l -6.908,0.0106 c -5.7463,0.008 -6.9532,-0.1067 -7.1768,-0.68931 z"
       id="path126" />
    <path
       style="fill:#000000;stroke-width:0.463022"
       d="M -1247.0784,379.04195 V 193.83368 h 58.8036 58.8035 v 185.20827 185.20827 h -58.8035 -58.8036 z"
       id="path124" />
  </g>
</svg>
