<?xml version="1.0" encoding="UTF-8" standalone="no"?>
<!-- Created with Inkscape (http://www.inkscape.org/) -->

<svg
   xmlns:dc="http://purl.org/dc/elements/1.1/"
   xmlns:cc="http://creativecommons.org/ns#"
   xmlns:rdf="http://www.w3.org/1999/02/22-rdf-syntax-ns#"
   xmlns:svg="http://www.w3.org/2000/svg"
   xmlns="http://www.w3.org/2000/svg"
   xmlns:sodipodi="http://sodipodi.sourceforge.net/DTD/sodipodi-0.dtd"
   xmlns:inkscape="http://www.inkscape.org/namespaces/inkscape"
   sodipodi:docname="zephyr-polaris 3.svg"
   id="svg8"
   version="1.1"
   viewBox="0 0 85.863602 85.86361"
   height="85.863609mm"
   width="85.863602mm"
   inkscape:version="0.92.4 (5da689c313, 2019-01-14)"
   inkscape:export-filename="D:\GitHub\Novalike-Art-Pack-Source\Outlines Ships\zephyr-polaris 4.png"
   inkscape:export-xdpi="96"
   inkscape:export-ydpi="96">
  <defs
     id="defs2" />
  <sodipodi:namedview
     id="base"
     pagecolor="#ffffff"
     bordercolor="#666666"
     borderopacity="1.0"
     inkscape:pageopacity="0.0"
     inkscape:pageshadow="2"
     inkscape:zoom="0.17500001"
     inkscape:cx="476.93038"
     inkscape:cy="-493.36869"
     inkscape:document-units="mm"
     inkscape:current-layer="layer1"
     showgrid="false"
     inkscape:window-width="1920"
     inkscape:window-height="1017"
     inkscape:window-x="1912"
     inkscape:window-y="-8"
     inkscape:window-maximized="1" />
  <metadata
     id="metadata5">
    <rdf:RDF>
      <cc:Work
         rdf:about="">
        <dc:format>image/svg+xml</dc:format>
        <dc:type
           rdf:resource="http://purl.org/dc/dcmitype/StillImage" />
        <dc:title />
      </cc:Work>
    </rdf:RDF>
  </metadata>
  <g
     inkscape:label="Layer 1"
     inkscape:groupmode="layer"
     id="layer1"
     transform="translate(1119.0113,615.2127)">
    <path
       style="fill:#000000;stroke-width:0.10732951"
       d="m -1119.0113,-572.2809 v -42.9318 h 3.6492 3.6492 v 42.9318 42.93181 h -3.6492 -3.6492 z"
       id="path833"
       inkscape:connector-curvature="0" />
    <path
       style="fill:#000000;stroke-width:0.10732951"
       d="m -1040.4461,-572.2809 v -42.9318 h 3.6492 3.6492 v 42.9318 42.93181 h -3.6492 -3.6492 z"
       id="path831"
       inkscape:connector-curvature="0" />
    <path
       style="fill:#000000;stroke-width:0.10732951"
       d="m -1078.8701,-542.29266 c -4.5809,-0.21628 -7.175,-0.64227 -10.756,-1.76628 -2.2722,-0.7132 -3.2294,-0.8396 -4.592,-0.60638 -0.5609,0.096 -1.7442,0.37438 -2.6297,0.61864 -2.514,0.69354 -3.7514,0.94735 -5.2591,1.07875 -1.7459,0.15217 -2.8712,-0.0117 -4.1057,-0.59806 -1.5282,-0.72573 -2.8253,-2.37334 -3.2951,-4.18583 -0.6059,-2.33653 0.436,-5.88611 2.6512,-9.03268 1.0606,-1.50658 3.3838,-3.76976 5.3935,-5.25442 2.0553,-1.51819 3.1213,-2.45449 4.2677,-3.74854 2.0449,-2.30834 3.5808,-5.34192 4.6411,-9.16683 0.4039,-1.45725 1.167,-4.67547 2.8526,-12.03075 1.9238,-8.3951 3.8104,-15.79233 4.8097,-18.85915 1.1476,-3.52154 3.2135,-6.1113 5.8473,-7.3298 1.1223,-0.51923 1.8356,-0.68373 2.9651,-0.68373 1.1295,0 1.8428,0.1645 2.9652,0.68373 2.6481,1.22513 4.6956,3.79621 5.8539,7.35057 0.9252,2.83903 2.8918,10.47958 4.3792,17.01378 1.3843,6.08121 2.8974,12.47702 3.278,13.85535 0.7975,2.88875 2.1157,5.8293 3.4594,7.71712 1.1069,1.55515 2.9931,3.37719 5.1794,5.00331 2.6166,1.94613 4.0324,3.28907 5.4276,5.14815 2.6379,3.51488 3.6735,7.47239 2.6343,10.06754 -0.9053,2.26085 -2.5162,3.60335 -4.8064,4.00557 -0.7891,0.13858 -1.1726,0.14688 -2.2895,0.0495 -1.6383,-0.14279 -2.4986,-0.3149 -4.9909,-0.99838 -2.7495,-0.75405 -3.7401,-0.90829 -4.8834,-0.76037 -0.5019,0.0649 -1.7093,0.36602 -2.6832,0.66915 -3.0289,0.94259 -5.107,1.34894 -8.2108,1.60546 -1.4546,0.12023 -6.7081,0.22042 -8.1034,0.15454 z"
       id="path827"
       inkscape:connector-curvature="0" />
  </g>
</svg>
