<?xml version="1.0" encoding="UTF-8" standalone="no"?>
<!-- Created with Inkscape (http://www.inkscape.org/) -->

<svg
   inkscape:export-ydpi="96"
   inkscape:export-xdpi="96"
   inkscape:export-filename="Ziggurat-Moash 4.png"
   inkscape:version="1.2.1 (9c6d41e410, 2022-07-14)"
   width="264.465mm"
   height="264.465mm"
   viewBox="0 0 264.46499 264.465"
   version="1.1"
   id="svg8"
   sodipodi:docname="Ziggurat-Moash 3.svg"
   xml:space="preserve"
   xmlns:inkscape="http://www.inkscape.org/namespaces/inkscape"
   xmlns:sodipodi="http://sodipodi.sourceforge.net/DTD/sodipodi-0.dtd"
   xmlns="http://www.w3.org/2000/svg"
   xmlns:svg="http://www.w3.org/2000/svg"
   xmlns:rdf="http://www.w3.org/1999/02/22-rdf-syntax-ns#"
   xmlns:cc="http://creativecommons.org/ns#"
   xmlns:dc="http://purl.org/dc/elements/1.1/"><defs
     id="defs2" /><sodipodi:namedview
     id="base"
     pagecolor="#ffffff"
     bordercolor="#666666"
     borderopacity="1.0"
     inkscape:pageopacity="0.0"
     inkscape:pageshadow="2"
     inkscape:zoom="0.32"
     inkscape:cx="290.625"
     inkscape:cy="546.875"
     inkscape:document-units="mm"
     inkscape:current-layer="layer1"
     showgrid="false"
     inkscape:window-width="1920"
     inkscape:window-height="1017"
     inkscape:window-x="-8"
     inkscape:window-y="-8"
     inkscape:window-maximized="1"
     inkscape:pagecheckerboard="0"
     inkscape:snap-grids="false"
     inkscape:snap-to-guides="true"
     inkscape:snap-text-baseline="true"
     inkscape:showpageshadow="2"
     inkscape:deskcolor="#d1d1d1" /><metadata
     id="metadata5"><rdf:RDF><cc:Work
         rdf:about=""><dc:format>image/svg+xml</dc:format><dc:type
           rdf:resource="http://purl.org/dc/dcmitype/StillImage" /></cc:Work></rdf:RDF></metadata><g
     inkscape:label="Layer 1"
     inkscape:groupmode="layer"
     id="layer1"
     transform="translate(1600.94, -980.503)"><path
       style="fill:#000000;stroke-width:0.330581"
       d="M -1600.9362,993.56097 V 980.503 h 132.2326 132.2324 v 13.05797 13.05793 h -132.2324 -132.2326 z"
       id="path186" /><path
       style="fill:#000000;stroke-width:0.330581"
       d="m -1532.6241,1176.8865 c -0.8018,-0.2834 -7.9108,-19.5236 -7.629,-20.6473 0.1023,-0.4074 -0.1208,-1.5483 -0.4959,-2.5353 -0.4013,-1.0563 -0.5462,-1.8399 -0.3517,-1.9046 0.1817,-0.061 0.3303,-0.321 0.3303,-0.5786 0,-0.3156 -0.3806,-0.4682 -1.1675,-0.4682 -0.7327,0 -1.2382,-0.1848 -1.3577,-0.4961 -0.1046,-0.2725 -0.3814,-0.4957 -0.6152,-0.4957 -0.7529,0 -0.8936,-1.0361 -0.1668,-1.2263 0.3645,-0.094 0.6624,-0.2873 0.6624,-0.4267 0,-0.1393 -0.2979,-0.3314 -0.6624,-0.4265 -0.7863,-0.2057 -0.5567,-1.2265 0.2756,-1.2265 0.4101,0 0.3669,-0.1171 -0.1868,-0.5048 -0.4168,-0.2919 -0.6422,-0.7103 -0.534,-0.9919 0.1625,-0.4237 -1.5318,-0.4868 -13.0719,-0.4868 h -13.2585 v 1.5955 c 0,2.2469 -0.8776,3.033 -3.3859,3.033 -1.6107,0 -1.9458,-0.1149 -2.5406,-0.8713 -0.6279,-0.7982 -0.6852,-1.3104 -0.6852,-6.1158 0,-4.2422 -0.086,-5.2448 -0.457,-5.2448 -0.3498,0 -0.4681,0.6745 -0.5057,2.8863 -0.026,1.5873 -0.1739,3.0109 -0.3263,3.1631 -0.1521,0.1523 -0.8544,0.2296 -1.56,0.1716 l -1.2834,-0.105 -0.1651,-3.3058 -0.1654,-3.3059 -0.4336,2.1023 c -0.3752,1.8195 -0.6549,2.3235 -2.077,3.7456 -1.0888,1.0888 -2.5758,2.0803 -4.4083,2.9389 -1.5209,0.7129 -2.8627,1.2958 -2.9819,1.2958 -0.1189,0 -0.3697,-0.4399 -0.5572,-0.9778 -0.299,-0.8573 -0.4598,-0.9542 -1.3053,-0.7851 -0.5722,0.1144 -0.964,0.053 -0.964,-0.1521 0,-0.1897 -0.079,-0.5536 -0.1781,-0.8089 -0.1077,-0.2809 0.1484,-0.6129 0.6484,-0.8406 0.7494,-0.3414 0.794,-0.47 0.4779,-1.3767 -0.3181,-0.9122 -0.2579,-1.0765 0.6858,-1.8706 1.4715,-1.2381 1.9745,-2.4044 2.3591,-5.472 0.1857,-1.4811 0.5301,-3.1539 0.7653,-3.7171 0.3284,-0.786 0.3477,-1.5071 0.083,-3.1031 -0.3793,-2.2925 0.045,-4.6961 1.0167,-5.7706 0.4779,-0.5282 0.4901,-1.2337 0.1235,-7.2073 -0.5112,-8.3287 -0.4427,-8.5794 2.3427,-8.5794 h 1.8828 l 0.2251,1.5019 c 0.1238,0.8261 0.045,4.1752 -0.177,7.4419 -0.3979,5.8755 -0.3946,5.9461 0.2928,6.5146 0.5924,0.4899 0.7069,0.9893 0.7758,3.3847 0.075,2.6338 0.1272,2.8166 0.8244,2.9155 0.7373,0.1047 0.7439,0.069 0.7439,-4.0091 0,-4.5903 0.1647,-4.9773 2.0445,-4.7969 l 1.0958,0.1053 0.095,3.0579 c 0.074,2.4195 0.1961,3.0579 0.5785,3.0579 0.3983,0 0.4836,-0.7212 0.4836,-4.0877 0,-3.635 0.075,-4.1843 0.6852,-4.9586 0.6396,-0.8135 0.864,-0.8715 3.3885,-0.8754 h 2.7032 l 4.7934,-4.0558 c 2.6364,-2.2306 16.0995,-13.5649 29.9176,-25.1871 13.8184,-11.6222 27.0317,-22.7375 29.3632,-24.7006 2.3311,-1.9632 4.3905,-3.5694 4.5761,-3.5694 0.225,0 0.2578,1.5447 0.099,4.6283 l -0.2386,4.6281 h 2.1773 2.1772 l 0.095,-2.4371 0.095,-2.4373 8.0991,-6.8178 8.0995,-6.8178 h 3.3881 c 3.1475,-9e-4 3.3886,-0.048 3.3886,-0.6508 0,-1.102 1.0768,-1.3339 6.1932,-1.3339 5.0759,0 5.7077,0.1536 5.7077,1.3884 0,0.5341 0.3465,0.5951 3.3885,0.5963 h 3.3885 l 8.0991,6.8178 8.0995,6.8178 0.096,2.4372 0.095,2.4372 h 2.126 2.1256 l 0.091,-4.6525 0.091,-4.6524 15.8681,13.3453 c 8.7271,7.3403 24.1201,20.2935 34.2066,28.7852 l 18.339,15.4391 h 2.7116 c 2.5358,0 2.7562,0.056 3.3969,0.8713 0.6093,0.7743 0.6849,1.3238 0.6849,4.9585 0,2.5048 0.1282,4.0879 0.3308,4.0879 0.1915,0 0.3305,-1.0542 0.3305,-2.5011 0,-3.0856 0.3243,-3.7801 1.7639,-3.7801 1.728,0 1.8726,0.3755 1.8726,4.8595 0,3.7727 0.044,4.0662 0.6272,4.0662 0.5582,0 0.64,-0.3126 0.7439,-2.8391 0.1017,-2.4804 0.212,-2.9164 0.8714,-3.4504 l 0.755,-0.6115 -0.3851,-5.932 c -0.2118,-3.2627 -0.2822,-6.6192 -0.1562,-7.4589 l 0.2291,-1.5264 h 1.9631 c 1.7144,0 1.9633,0.08 1.9633,0.6335 0,0.3485 0.1643,0.6886 0.3651,0.7555 0.2656,0.087 0.2493,1.9328 -0.059,6.7452 l -0.4243,6.6232 0.8856,1.7772 c 0.9414,1.8892 1.0927,3.4899 0.5516,5.8337 -0.2413,1.0452 -0.2046,1.5941 0.1527,2.2828 0.2585,0.4987 0.5654,1.8876 0.6819,3.0866 0.3009,3.0989 0.7327,4.2469 2.1942,5.8324 1.1452,1.2424 1.2485,1.4906 0.948,2.2808 -0.4371,1.1493 -0.4685,1.0694 0.5195,1.3174 0.5949,0.1494 0.7967,0.3704 0.6612,0.7239 -0.1074,0.2803 -0.1956,0.6643 -0.1956,0.8541 0,0.2046 -0.3918,0.2667 -0.964,0.1521 -0.8455,-0.1692 -1.0062,-0.072 -1.3052,0.7851 -0.1875,0.538 -0.4383,0.9779 -0.5573,0.9779 -0.119,0 -1.4609,-0.5831 -2.9816,-1.2958 -3.8874,-1.8217 -5.8537,-3.8319 -6.5254,-6.6711 l -0.5006,-2.1158 -0.028,2.9918 c -0.017,1.8491 -0.1806,3.1432 -0.426,3.3884 -0.523,0.523 -2.5579,0.5108 -2.7485,-0.016 -0.082,-0.2274 -0.2153,-1.5995 -0.2954,-3.0495 -0.08,-1.4586 -0.3045,-2.6895 -0.5014,-2.755 -0.2438,-0.081 -0.3557,1.5394 -0.3557,5.1537 0,4.8335 -0.057,5.345 -0.6849,6.1435 -0.5983,0.7605 -0.9262,0.8712 -2.587,0.8712 -2.476,0 -3.3393,-0.7963 -3.3393,-3.0793 v -1.5494 h -13.2587 c -11.5403,0 -13.2344,0.063 -13.072,0.4868 0.1081,0.2815 -0.1173,0.6999 -0.534,0.9917 -0.5535,0.3877 -0.5971,0.5049 -0.1868,0.5049 0.8325,0 1.0617,1.0205 0.2755,1.2263 -0.7714,0.2019 -0.8937,0.7573 -0.1666,0.7573 0.2756,0 0.4958,0.2939 0.4958,0.6613 0,0.3635 -0.2072,0.6609 -0.4603,0.6609 -0.2535,0 -0.5462,0.2231 -0.6509,0.4958 -0.1194,0.3113 -0.625,0.496 -1.3577,0.496 -0.8173,0 -1.1672,0.1486 -1.1672,0.4958 0,0.2727 0.1405,0.496 0.3127,0.496 0.172,0 0.017,0.8553 -0.3435,1.9009 -0.361,1.0454 -0.5798,2.2102 -0.4861,2.5884 0.1007,0.4064 -1.2997,4.7311 -3.4258,10.5786 -3.4398,9.46 -3.6375,9.9 -4.5378,10.0997 -1.6167,0.3587 -5.0843,0.3045 -5.8233,-0.09 -0.5297,-0.2836 -0.7377,-0.2836 -0.8322,0 -0.082,0.2475 -1.1905,0.378 -3.2116,0.378 -2.0211,0 -3.1288,-0.1305 -3.2111,-0.378 -0.093,-0.2807 -0.3162,-0.2763 -0.8646,0.016 -1.0925,0.5846 -5.5735,0.3959 -6.3231,-0.2667 -0.799,-0.7062 -7.6244,-19.6062 -7.396,-20.48 0.096,-0.3688 -0.074,-1.4233 -0.3804,-2.3436 -0.5144,-1.5488 -0.6347,-1.6731 -1.6199,-1.6731 -0.5855,0 -1.236,-0.1717 -1.4458,-0.3814 -0.2883,-0.2883 -0.6626,-0.1671 -1.532,0.4959 -1.0954,0.8358 -1.3362,0.8772 -5.085,0.8772 h -3.9346 l -1.5241,-1.1875 c -0.8383,-0.6532 -1.6882,-1.086 -1.8885,-0.9622 -0.255,0.1574 -0.2606,0.3502 -0.018,0.642 0.2459,0.2961 0.1622,0.9509 -0.289,2.2628 -0.3494,1.0155 -0.5581,2.1414 -0.4638,2.5024 0.2027,0.7747 -6.6483,19.8829 -7.3106,20.3906 -0.6446,0.4939 -5.2947,0.6033 -6.1513,0.1449 -0.5175,-0.277 -0.8155,-0.2828 -1.0767,-0.021 -0.2053,0.2051 -1.5891,0.3612 -3.2043,0.3612 -1.6153,0 -2.999,-0.1561 -3.2041,-0.3612 -0.2613,-0.2613 -0.5569,-0.2566 -1.0682,0.016 -0.8747,0.4684 -5.4745,0.3802 -6.1362,-0.1174 -0.7208,-0.5421 -7.5125,-19.3754 -7.3329,-20.3348 0.081,-0.4378 -0.1259,-1.5956 -0.462,-2.5721 -0.3362,-0.977 -0.5273,-1.9946 -0.4248,-2.2617 0.3052,-0.7955 -0.6557,-0.5633 -2.0569,0.4967 -1.2678,0.9594 -1.3906,0.9828 -5.205,0.9919 -3.7247,0.01 -3.9598,-0.032 -5.0564,-0.8681 -0.8692,-0.6631 -1.2437,-0.7842 -1.5318,-0.4959 -0.2099,0.2098 -0.8513,0.3814 -1.4256,0.3814 -0.9604,0 -1.0964,0.1417 -1.6954,1.7677 -0.3666,0.995 -0.553,2.0428 -0.4263,2.3967 0.2831,0.7911 -6.6249,19.9046 -7.3984,20.4701 -0.7272,0.5318 -5.2904,0.6262 -6.2198,0.1289 -0.5483,-0.2934 -0.7707,-0.2978 -0.8642,-0.016 -0.082,0.2476 -1.1905,0.3782 -3.2115,0.3782 -2.0209,0 -3.129,-0.1306 -3.2113,-0.3782 -0.092,-0.2807 -0.3161,-0.2762 -0.8643,0.016 -0.76,0.4065 -5.0169,0.4403 -6.1253,0.049 z"
       id="path184" /><path
       style="fill:#000000;stroke-width:0.330581"
       d="m -1600.9362,1235.3813 v -9.587 h 132.2326 132.2324 v 9.587 9.5867 h -132.2324 -132.2326 z"
       id="path180" /></g></svg>
