<?xml version="1.0" encoding="UTF-8" standalone="no"?>
<!-- Created with Inkscape (http://www.inkscape.org/) -->

<svg
   width="238.16716mm"
   height="238.16718mm"
   viewBox="0 0 238.16716 238.16717"
   version="1.1"
   id="svg5"
   xml:space="preserve"
   inkscape:version="1.2.1 (9c6d41e410, 2022-07-14)"
   sodipodi:docname="Bat Sizing 2.svg"
   inkscape:export-filename="Bat Sizing 3.png"
   inkscape:export-xdpi="96"
   inkscape:export-ydpi="96"
   xmlns:inkscape="http://www.inkscape.org/namespaces/inkscape"
   xmlns:sodipodi="http://sodipodi.sourceforge.net/DTD/sodipodi-0.dtd"
   xmlns="http://www.w3.org/2000/svg"
   xmlns:svg="http://www.w3.org/2000/svg"><sodipodi:namedview
     id="namedview7"
     pagecolor="#ffffff"
     bordercolor="#000000"
     borderopacity="0.25"
     inkscape:showpageshadow="2"
     inkscape:pageopacity="0.0"
     inkscape:pagecheckerboard="0"
     inkscape:deskcolor="#d1d1d1"
     inkscape:document-units="mm"
     showgrid="false"
     inkscape:zoom="0.39063903"
     inkscape:cx="385.26617"
     inkscape:cy="450.54382"
     inkscape:window-width="1920"
     inkscape:window-height="1057"
     inkscape:window-x="1912"
     inkscape:window-y="-8"
     inkscape:window-maximized="1"
     inkscape:current-layer="layer1" /><defs
     id="defs2" /><g
     inkscape:label="Layer 1"
     inkscape:groupmode="layer"
     id="layer1"
     transform="translate(4.76859, -18.6986)"><path
       id="path199"
       style="fill:#000000;stroke-width:0.297708"
       d="m 113.6684,82.194916 c -0.47747,0.01839 -0.92235,0.07455 -1.28851,0.173277 -1.18924,0.32066 -5.70147,3.782396 -6.20653,4.761599 -0.13868,0.268851 -0.91844,1.092364 -1.73277,1.829864 l -1.4804,1.340851 -0.17211,3.496919 c -0.16598,3.3701 -0.15049,3.496919 0.43086,3.496919 0.95723,0 1.18058,0.565956 1.35772,3.444585 0.1618,2.62942 0.14915,2.69997 -0.48087,2.67937 -0.62094,-0.0203 -0.65319,0.12087 -0.79603,3.49926 l -0.14885,3.52075 0.93557,0.71287 c 0.67354,0.51299 1.03408,1.12349 1.28735,2.17933 0.19515,0.81336 0.67358,1.76887 1.07397,2.14501 0.61657,0.5793 0.72217,0.953 0.72217,2.56135 0,1.99265 -0.0727,2.07327 -1.39492,1.55367 -0.46095,-0.18116 -2.91441,-1.13856 -5.45238,-2.12816 l -4.614482,-1.79962 -3.795795,-0.10293 c -3.115217,-0.0843 -3.795787,-0.0273 -3.795787,0.3169 0,0.23071 1.33356,1.46893 2.963137,2.75206 1.629585,1.28312 2.968008,2.46738 2.97476,2.63112 0.0067,0.16374 -1.014335,0.58256 -2.268869,0.93092 l -2.281074,0.63321 -1.735669,-0.58611 c -1.624174,-0.54849 -1.73694,-0.64672 -1.740321,-1.52634 -0.0099,-2.29768 0.02082,-2.27955 -3.826602,-2.2863 l -3.463193,-0.007 -7.168856,-6.17106 c -3.942996,-3.39409 -8.029064,-6.93157 -9.080123,-7.86138 l -1.911267,-1.6909 0.782067,-0.83963 c 0.430276,-0.46199 0.918251,-1.10815 1.083847,-1.43563 0.448256,-0.886371 -0.02405,-3.351081 -0.788464,-4.115497 -0.641126,-0.640741 -0.753947,-0.647745 -11.481564,-0.647745 H 39.340018 l -0.796022,0.744269 c -1.219344,1.139332 -1.715607,2.297807 -1.492615,3.48645 0.491611,2.620523 1.17879,3.063153 4.75404,3.063153 h 2.485172 l 3.411442,3.94463 3.411442,3.94465 0.936737,5.3797 c 0.515261,2.95889 0.936737,5.53779 0.936737,5.73089 0,0.24183 -0.779109,0.35121 -2.502035,0.35121 -2.085993,0 -3.92891,0.348 -11.089658,2.09386 -4.723357,1.15159 -9.074201,2.22406 -9.668564,2.3834 -0.912839,0.24471 -1.123747,0.46277 -1.360623,1.40423 -0.156988,0.62407 -0.173144,1.52655 -0.03605,2.05025 0.226412,0.86489 0.396167,0.96899 2.25433,1.38677 1.105158,0.24848 3.985583,0.89432 6.400743,1.43506 l 4.391206,0.98325 v 1.42633 c 0,0.85788 -0.23738,1.8695 -0.595418,2.53751 -0.733471,1.36851 -0.81398,4.56446 -0.147109,5.84311 0.244595,0.46901 0.44482,1.03462 0.44482,1.25713 0,0.2225 0.294618,1.01074 0.654726,1.75194 l 0.654727,1.34785 h 3.232351 3.232353 l -0.425632,0.81868 c -0.809422,1.55764 -1.096638,2.95499 -1.096638,5.33376 0,2.01073 0.09424,2.47411 0.595418,2.92767 0.327477,0.29637 0.595418,0.83476 0.595418,1.19665 0,0.36189 0.27756,1.01117 0.616932,1.4426 0.605547,0.7698 0.683628,0.78441 4.20165,0.78441 h 3.584718 l -0.204093,1.41411 c -0.329199,2.28179 -0.472923,2.66939 -1.096059,2.94744 -0.960985,0.4288 -3.120914,5.77451 -3.695777,9.147 -0.271982,1.5954 -0.415296,2.97928 -0.318642,3.07592 0.09661,0.0966 0.546339,0.1893 0.999536,0.20584 0.81723,0.0298 0.825421,0.0511 1.01756,2.56076 0.106555,1.39179 0.208898,3.73624 0.227351,5.20991 0.04278,3.40995 0.204681,4.01907 1.066403,4.01907 0.454355,0 0.782854,-0.26633 1.010582,-0.81871 0.490328,-1.18936 1.210983,-5.88778 1.222236,-7.96371 0.01212,-2.3383 0.241914,-3.12594 0.911734,-3.12594 0.487536,0 0.527352,0.20631 0.388998,2.00954 -0.148695,1.93813 -0.120951,2.04392 0.776833,2.97708 1.323347,1.37553 2.542918,1.32849 4.065008,-0.15699 l 1.152458,-1.12454 4.126061,3.41725 c 2.2694,1.87942 6.335414,5.71875 9.03535,8.53239 2.699924,2.81363 5.214018,5.27908 5.586694,5.47853 0.510921,0.27341 0.832412,0.27965 1.307132,0.0256 0.500377,-0.2678 0.788127,-0.23277 1.402484,0.16979 l 0.77277,0.50646 -0.879754,0.32095 c -1.182405,0.4314 -2.321071,1.3935 -2.567162,2.16886 -0.143475,0.45206 -0.540199,0.69196 -1.379811,0.83382 -2.418524,0.4086 -1.408731,1.46375 4.849983,5.06745 1.130835,0.65111 2.005892,1.35751 2.001391,1.61588 -0.0042,0.25253 -1.478003,1.45613 -3.274791,2.67415 -3.20529,2.1728 -3.936312,3.07413 -2.745673,3.38527 v 5.9e-4 c 0.286542,0.0749 2.193557,0.15193 4.237703,0.17095 l 3.71671,0.0343 7.000809,-1.97872 c 3.98709,-1.12704 7.24689,-2.21018 7.57239,-2.51541 0.50587,-0.47437 0.54007,-0.73408 0.29771,-2.26305 -0.21543,-1.35908 -0.4167,-1.78995 -0.94371,-2.02116 -0.96503,-0.42338 -0.82414,-0.74835 0.32446,-0.74835 1.22475,0 1.68507,-0.8251 1.68507,-3.01954 v -1.5025 l 1.3711,0.80359 c 1.35969,0.79682 1.38098,0.79931 2.51656,0.28723 1.57491,-0.7102 6.11554,-0.71708 7.67996,-0.0116 l 1.11932,0.50471 2.6224,-1.51413 2.62181,-1.51471 1.34261,0.75067 c 2.24957,1.25732 3.97775,1.07428 7.20897,-0.76288 l 2.66135,-1.51297 0.20293,-2.05954 c 0.11161,-1.13261 0.31528,-2.05896 0.45237,-2.05896 0.13709,0 2.06229,1.00478 4.27841,2.23282 2.21612,1.22805 4.17322,2.23282 4.34934,2.23282 0.17613,0 4.56184,-4.30217 9.74589,-9.56042 l 9.42553,-9.56041 0.20234,0.98848 c 0.26314,1.28668 1.86206,2.63208 3.1399,2.64334 0.69149,0.006 1.20757,-0.25697 1.88335,-0.95941 0.8978,-0.93318 0.92555,-1.03896 0.77685,-2.97709 -0.13863,-1.8068 -0.0992,-2.00954 0.3919,-2.00954 0.73003,0 0.90615,0.56647 0.91291,2.92709 0.006,2.23221 0.70524,6.91844 1.21816,8.16257 0.39471,0.95743 1.29376,1.08289 1.74323,0.24306 0.16949,-0.31673 0.32224,-1.7569 0.33957,-3.20038 0.0174,-1.44349 0.11784,-3.83045 0.22328,-5.30411 0.17543,-2.4513 0.24257,-2.67318 0.7873,-2.60611 1.34138,0.16511 1.44702,-0.22977 0.90939,-3.38759 -0.54298,-3.18932 -2.66523,-8.60121 -3.57191,-9.10863 -0.8819,-0.49354 -1.85776,-0.0316 -2.05896,0.97454 -0.17365,0.86825 -0.24676,0.90985 -1.45076,0.82276 -1.1463,-0.0829 -1.28208,-0.17659 -1.41934,-0.97685 -0.39931,-2.328 -4.98032,-2.14901 -5.5931,0.21863 l -0.24944,0.96407 -12.18747,0.62681 c -8.57005,0.4409 -12.38823,0.53667 -12.86428,0.32155 -0.83062,-0.37536 -0.88269,-0.62393 -1.1007,-5.26514 -0.0961,-2.04675 -0.2575,-4.90049 -0.35877,-6.34143 l -0.18431,-2.62008 -1.94092,0.0895 -1.94094,0.0895 -3.39749,-4.91221 -3.3969,-4.91219 12.15491,-0.0796 12.15489,-0.0796 0.74428,0.85649 c 1.13508,1.30597 2.60807,2.04751 5.68205,2.86021 2.74641,0.72609 8.82922,1.65253 10.8501,1.65253 1.19117,0 1.39832,0.46245 1.26525,2.82822 l -0.0837,1.48856 6.14315,0.0802 c 5.59154,0.0732 6.16109,0.0341 6.34085,-0.43435 0.12487,-0.32545 -0.008,-0.68327 -0.35992,-0.97339 -0.6002,-0.49402 -0.8602,-2.09617 -0.34017,-2.09617 0.1736,0 0.5167,-0.20095 0.7623,-0.44656 0.25966,-0.25965 0.9867,-0.44655 1.73741,-0.44655 2.24665,0 8.40328,-0.90903 11.00419,-1.62462 2.6609,-0.73209 4.6268,-1.85851 5.64658,-3.23525 0.5823,-0.78611 0.62275,-1.22147 0.62275,-6.72171 V 131.931 l -0.81114,-1.0635 c -1.85864,-2.43679 -7.01554,-4.00669 -15.06628,-4.58657 -1.68763,-0.12156 -2.93591,-0.35769 -3.17945,-0.60123 -0.22051,-0.2205 -0.55272,-0.40064 -0.73846,-0.40064 -0.1857,0 -0.29892,-0.23444 -0.25178,-0.52098 0.0471,-0.28654 -0.0197,-0.68874 -0.14826,-0.89372 -0.15462,-0.24652 0.0243,-0.47117 0.52855,-0.66286 0.80628,-0.30655 0.90174,-0.51648 0.51285,-1.1292 -0.1843,-0.29097 -1.65523,-0.35971 -6.32166,-0.29771 l -6.08151,0.0808 0.0942,1.46296 c 0.17221,2.66698 0.099,2.74827 -2.69508,2.98291 -7.92653,0.66561 -13.88338,2.42367 -15.24305,4.49877 l -0.47912,0.7309 h -10.4739 -10.47388 l -3.32132,-1.09315 -3.3219,-1.09315 -0.21339,-6.53157 -0.21398,-6.53216 0.74775,-0.78497 c 0.41126,-0.432 0.90837,-1.42842 1.10478,-2.2142 0.25324,-1.01312 0.63436,-1.64014 1.31004,-2.1555 l 0.95303,-0.72682 -0.11921,-3.20328 c -0.14023,-3.77928 -0.20803,-4.06105 -0.93558,-3.8708 -0.51566,0.13485 -0.54282,-0.0354 -0.40528,-2.57122 0.15645,-2.884225 0.37959,-3.459707 1.34029,-3.459707 0.57659,0 0.59421,-0.138071 0.44714,-3.470754 l -0.15293,-3.470755 -1.67461,-1.546102 c -0.92105,-0.850395 -1.67461,-1.673354 -1.67461,-1.828705 0,-0.28439 -3.37392,-3.158198 -4.76916,-4.062097 -0.75897,-0.491682 -2.48316,-0.776161 -3.91558,-0.721015 z m 59.80229,41.033244 c 0.28783,-0.002 0.56778,0.0171 0.7623,0.0547 v -5.8e-4 c 0.36616,0.0706 -0.004,0.12668 -0.82277,0.12443 -0.81869,-0.003 -1.1183,-0.0601 -0.66577,-0.12851 0.21212,-0.0319 0.47229,-0.0488 0.72624,-0.05 z m 2.8201,0.0541 c 0.58974,-0.009 1.73391,0.3028 1.73391,0.54483 0,0.14328 -0.30142,0.25808 -0.66983,0.25584 -0.75201,-0.005 -1.6346,-0.4697 -1.37864,-0.72567 0.0501,-0.0501 0.16423,-0.0728 0.31456,-0.075 z m 0.85824,1.40073 c 0.48156,0 0.87567,0.13399 0.87567,0.29772 0,0.16374 -0.47666,0.29771 -1.05941,0.29771 -0.63055,0 -0.98517,-0.12053 -0.87568,-0.29771 0.10119,-0.16373 0.57786,-0.29772 1.05942,-0.29772 z m -0.18374,25.60298 c 0.58275,0 1.05941,0.13397 1.05941,0.29771 0,0.16373 -0.39411,0.29771 -0.87567,0.29771 -0.48156,0 -0.95827,-0.13398 -1.05942,-0.29771 -0.10952,-0.17718 0.24513,-0.29771 0.87568,-0.29771 z m 0.38143,1.19025 c 0.37738,-0.005 0.67798,0.0757 0.67798,0.26107 0,0.14328 -0.41864,0.34417 -0.93033,0.44657 -1.3778,0.27555 -1.56367,0.2336 -1.15362,-0.26049 0.22773,-0.27441 0.88884,-0.44068 1.40597,-0.44715 z m -3.87603,0.62973 c 0.28783,-0.002 0.56778,0.0171 0.7623,0.0546 v -5.9e-4 c 0.36616,0.0707 -0.004,0.12669 -0.82277,0.12444 -0.81869,-0.003 -1.1183,-0.0601 -0.66577,-0.1285 0.21212,-0.0318 0.47229,-0.0488 0.72624,-0.05 z m -84.74238,7.70671 h 3.885912 l -0.182579,3.34923 c -0.235032,4.31431 -0.284976,4.52033 -1.196069,4.93545 -0.420982,0.1918 -0.993404,0.33045 -1.272244,0.30818 -1.655118,-0.13236 -1.737396,-0.23154 -3.441673,-4.15863 -0.924007,-2.12916 -1.679849,-3.99791 -1.679849,-4.1528 0,-0.16263 1.642304,-0.28143 3.886502,-0.28143 z" /><path
       style="fill:#000000;stroke-width:0.297708"
       d="M 224.46731,137.78217 V 18.698597 h 4.46563 4.46564 v 119.083573 119.0836 h -4.46564 -4.46563 z"
       id="path183" /><path
       style="fill:#000000;stroke-width:0.297708"
       d="M -4.7685866,137.78217 V 18.698597 H -0.30295223 4.162682 V 137.78217 256.86577 H -0.30295223 -4.7685866 Z"
       id="path71" /></g></svg>
