<?xml version="1.0" encoding="UTF-8" standalone="no"?>
<!-- Created with Inkscape (http://www.inkscape.org/) -->

<svg
   width="86.84343mm"
   height="86.84343mm"
   viewBox="0 0 86.843429 86.843429"
   version="1.1"
   id="svg5"
   xml:space="preserve"
   inkscape:version="1.2.1 (9c6d41e410, 2022-07-14)"
   sodipodi:docname="Bullfrog Sizing 2.svg"
   inkscape:export-filename="Bullfrog Sizing 3.png"
   inkscape:export-xdpi="96"
   inkscape:export-ydpi="96"
   xmlns:inkscape="http://www.inkscape.org/namespaces/inkscape"
   xmlns:sodipodi="http://sodipodi.sourceforge.net/DTD/sodipodi-0.dtd"
   xmlns="http://www.w3.org/2000/svg"
   xmlns:svg="http://www.w3.org/2000/svg"><sodipodi:namedview
     id="namedview7"
     pagecolor="#ffffff"
     bordercolor="#000000"
     borderopacity="0.25"
     inkscape:showpageshadow="2"
     inkscape:pageopacity="0.0"
     inkscape:pagecheckerboard="0"
     inkscape:deskcolor="#d1d1d1"
     inkscape:document-units="mm"
     showgrid="false"
     inkscape:zoom="0.78127806"
     inkscape:cx="380.78632"
     inkscape:cy="121.59563"
     inkscape:window-width="1920"
     inkscape:window-height="1057"
     inkscape:window-x="1912"
     inkscape:window-y="-8"
     inkscape:window-maximized="1"
     inkscape:current-layer="layer1" /><defs
     id="defs2" /><g
     inkscape:label="Layer 1"
     inkscape:groupmode="layer"
     id="layer1"
     transform="translate(-228.72988,-81.515207)"><path
       style="fill:#000000;stroke-width:0.108555"
       d="M 228.72988,124.93692 V 81.515207 h 2.06253 2.06254 v 43.421713 43.42172 h -2.06254 -2.06253 z"
       id="path125" /><path
       style="fill:#000000;stroke-width:0.108555"
       d="m 270.14596,149.93156 c -0.16501,-0.33514 -0.19581,-0.6239 -0.17426,-1.63387 0.0178,-0.83679 -0.0157,-1.27722 -0.10547,-1.38542 -0.14702,-0.17717 -0.30313,-2.53897 -0.31344,-4.74235 l -0.006,-1.38407 h -0.42156 c -0.49992,0 -0.55169,0.11343 -0.55394,1.21384 -10e-4,0.67078 -0.0245,0.74173 -0.30727,0.94309 -0.18006,0.12821 -0.52598,0.23168 -0.84129,0.25165 l -0.53552,0.0339 -0.0617,1.05068 c -0.0363,0.61713 -0.12012,1.12107 -0.20326,1.22124 -0.0867,0.10445 -0.31515,0.17071 -0.58959,0.17096 -0.25608,2.1e-4 -0.60036,0.0932 -0.8035,0.21711 -0.20784,0.12672 -0.54678,0.21669 -0.81626,0.21669 h -0.46082 l -0.25796,0.93486 c -0.24249,0.87888 -0.28116,0.94455 -0.64573,1.09688 -0.25105,0.10483 -0.60962,0.14598 -1.01693,0.11658 -0.80181,-0.058 -1.21255,-0.33938 -1.25001,-0.85633 -0.0958,-1.32381 -0.16353,-1.72613 -0.29013,-1.72613 -0.14356,0 -0.38873,-0.44484 -0.38873,-0.70533 0,-0.0838 -0.0835,-0.19909 -0.18569,-0.25624 -0.13306,-0.0745 -0.17791,-0.2196 -0.1582,-0.5121 0.0152,-0.22449 -0.003,-0.54653 -0.04,-0.71563 -0.0595,-0.27062 -0.11608,-0.30746 -0.4728,-0.30746 -0.72607,0 -0.86596,-0.27103 -1.67529,-3.24558 -0.39633,-1.4567 -0.74175,-2.66967 -0.76758,-2.69551 -0.0258,-0.0259 -0.14564,0.006 -0.26625,0.0704 -0.12699,0.068 -0.85477,0.11735 -1.72934,0.11735 -1.37221,0 -1.52801,-0.0198 -1.70655,-0.21711 -0.11078,-0.12238 -0.33434,-0.2171 -0.51245,-0.2171 -0.47192,0 -0.70379,-0.1699 -0.8507,-0.62335 -0.28987,-0.89471 -0.54148,-1.30435 -0.84123,-1.36963 -0.57201,-0.12454 -0.62384,-0.21488 -0.48822,-0.85048 0.0676,-0.31681 0.15679,-0.66149 0.19815,-0.76598 0.0625,-0.15797 0.0138,-0.19025 -0.28921,-0.19164 -0.42275,-0.003 -0.50178,-0.0477 -0.83796,-0.48506 -0.23314,-0.30332 -0.35223,-0.34241 -1.87384,-0.61506 -0.89368,-0.16015 -1.68963,-0.34489 -1.76878,-0.41058 -0.0792,-0.0657 -0.17,-0.28034 -0.20191,-0.47703 -0.0612,-0.37725 0.0847,-1.36623 0.22111,-1.49985 0.0442,-0.0433 0.75426,-0.19805 1.5778,-0.3439 0.82353,-0.14584 1.5266,-0.29442 1.56235,-0.33019 0.0358,-0.0358 0.0163,-0.12727 -0.0432,-0.20334 -0.30869,-0.39434 -0.34806,-0.83558 -0.13091,-1.46676 l 0.21449,-0.62342 -0.29421,-0.65238 c -0.46777,-1.03728 -0.4785,-2.09519 -0.0352,-3.4748 0.19182,-0.59705 0.44983,-1.28094 0.57335,-1.51976 0.14936,-0.28874 0.22943,-0.66224 0.23902,-1.11481 0.008,-0.37432 0.0598,-0.72488 0.11545,-0.77902 0.0556,-0.0542 0.51621,-0.17565 1.02369,-0.27002 0.75611,-0.14063 1.96419,-0.51897 2.16248,-0.67726 0.0251,-0.0201 -0.0565,-0.14615 -0.18118,-0.28026 -0.37399,-0.40198 -0.39746,-0.90285 -0.085,-1.81429 0.15515,-0.45253 0.41577,-0.95601 0.59003,-1.13981 0.17168,-0.18108 0.34793,-0.45135 0.39167,-0.60061 0.15714,-0.53615 0.18377,-0.54278 2.17926,-0.54278 1.77149,0 1.88944,0.0128 1.99878,0.21711 0.0855,0.15987 0.22729,0.21711 0.53759,0.21711 0.42175,0 0.63923,0.0789 2.19524,0.7968 l 0.83312,0.38437 0.56344,-0.55462 c 0.48856,-0.48092 0.59063,-0.53763 0.76805,-0.42684 0.17953,0.11217 0.20461,0.0952 0.20461,-0.13811 0,-0.14625 -0.047,-0.29495 -0.10445,-0.33046 -0.066,-0.0408 -0.0617,-0.15823 0.0114,-0.31864 0.0894,-0.19611 0.077,-0.31311 -0.0538,-0.5128 -0.23257,-0.35495 -0.10294,-0.48743 0.47259,-0.48313 0.62468,0.005 0.67982,-0.0183 1.21661,-0.50624 0.24631,-0.2239 0.55502,-0.40708 0.68603,-0.40708 0.20629,0 0.24738,0.0763 0.30665,0.5699 0.0376,0.31347 0.0689,0.74911 0.0694,0.96812 0.001,0.61605 0.0823,0.74937 0.37367,0.6166 0.31787,-0.14484 0.4955,-0.88978 0.4963,-2.08149 8.3e-4,-1.32363 0.29989,-2.16901 0.75209,-2.12661 0.35643,0.0335 0.41568,-0.0217 0.48426,-0.4505 0.0605,-0.37806 0.10534,-0.43651 0.31238,-0.40708 0.18226,0.0259 0.25519,0.12517 0.29611,0.40307 0.10597,0.71985 0.71027,0.70199 0.78073,-0.0231 0.059,-0.60731 0.62467,-0.49911 0.6288,0.12025 8.3e-4,0.13683 0.0994,0.35365 0.21877,0.48182 0.18412,0.19764 0.21711,0.20519 0.21711,0.0498 0,-0.24158 0.24647,-0.23364 0.47167,0.0153 0.12353,0.1365 0.17966,0.39443 0.17966,0.82577 0,0.5534 0.0223,0.61847 0.18997,0.55272 0.6683,-0.26222 1.99127,-0.26222 2.65957,0 0.16801,0.066 0.18997,-2.1e-4 0.18997,-0.57159 0,-0.48807 0.0485,-0.69006 0.19852,-0.82576 0.25531,-0.23106 0.45281,-0.22945 0.45281,0.004 0,0.33523 0.39379,-0.20514 0.47849,-0.65662 0.0635,-0.33846 0.11683,-0.40278 0.31069,-0.37471 0.16729,0.0242 0.2551,0.13739 0.30783,0.39673 0.0405,0.19958 0.12922,0.41829 0.19698,0.48606 0.19619,0.19619 0.48947,-0.0592 0.55144,-0.48021 0.0408,-0.27713 0.11394,-0.3772 0.29468,-0.40289 0.18803,-0.0267 0.25449,0.0325 0.30499,0.27138 0.10092,0.47773 0.21518,0.62619 0.48379,0.62881 0.49535,0.005 0.66555,0.44326 0.76431,1.96877 0.11545,1.78197 0.17537,2.05165 0.48811,2.19414 0.2973,0.13546 0.37745,0.005 0.37892,-0.61421 4e-4,-0.21901 0.0317,-0.65466 0.0694,-0.96811 0.0592,-0.49357 0.10046,-0.56991 0.30665,-0.56991 0.13103,0 0.45395,0.20412 0.71763,0.4536 0.44537,0.42138 0.52362,0.45403 1.10172,0.45955 0.69309,0.006 0.86774,0.17104 0.55209,0.51982 -0.15717,0.1737 -0.16544,0.24324 -0.0507,0.42703 0.10269,0.16445 0.10623,0.25671 0.0142,0.36766 -0.18986,0.22878 -0.25206,1.94878 -0.0758,2.0951 0.0788,0.0655 0.57738,0.13314 1.10796,0.15056 l 0.96472,0.0317 0.0929,0.35991 0.0929,0.3599 0.34749,-0.20296 c 0.19113,-0.11165 0.36462,-0.29799 0.38553,-0.41417 0.0711,-0.39487 0.006,-0.37998 2.56798,-0.59492 0.49097,-0.0412 1.73759,0.12731 1.88371,0.25464 0.26257,0.2288 0.90221,0.31224 1.30832,0.17065 0.29412,-0.10256 0.38436,-0.094 0.52808,0.0497 0.15684,0.15683 0.1573,0.19175 0.005,0.36668 -0.18629,0.2137 -0.14832,0.46474 0.0702,0.46474 0.23173,0 0.43848,0.31478 0.29861,0.45466 -0.0874,0.0873 -0.0655,0.22642 0.0811,0.51356 0.11583,0.22706 0.17773,0.51487 0.1462,0.67983 -0.052,0.27235 -0.0242,0.29217 0.58027,0.4133 1.88202,0.37713 2.38801,0.57935 2.78673,1.11375 0.32321,0.4332 0.7249,1.58242 0.7249,2.07393 0,0.4693 -0.42773,1.05181 -1.28702,1.75272 -0.36597,0.29853 -0.66575,0.56765 -0.66618,0.59804 -4.1e-4,0.0305 0.40223,0.14322 0.89479,0.25071 1.36771,0.29849 1.89887,0.49691 2.238,0.83604 0.3889,0.38889 0.88294,1.69918 0.88294,2.3417 0,0.46298 -0.0443,0.53206 -0.93423,1.45517 -0.51445,0.53366 -1.13634,1.06467 -1.38406,1.18179 -0.24742,0.11696 -0.97497,0.29695 -1.6168,0.39994 -1.06928,0.17161 -1.16696,0.20707 -1.16696,0.42385 0,0.1301 -0.12163,0.3508 -0.27028,0.49046 -0.14865,0.13965 -0.3713,0.52676 -0.49478,0.86023 -0.12353,0.33347 -0.32918,0.68719 -0.45711,0.78603 -0.19321,0.14929 -0.20926,0.20788 -0.0947,0.34586 0.17172,0.20692 -0.0127,0.61424 -0.27778,0.61424 -0.1597,0 -0.15908,0.0184 0.006,0.20161 0.17119,0.18915 0.17016,0.21679 -0.0164,0.44718 l -0.19884,0.24555 -0.42815,-0.20309 c -0.44149,-0.20943 -0.72872,-0.23729 -1.04427,-0.1013 -0.10005,0.043 -0.57646,0.0623 -1.05867,0.0427 -0.48221,-0.0196 -0.87657,-0.0356 -0.87637,-0.0356 2.1e-4,0 0.0707,0.36637 0.15662,0.81415 l 0.15623,0.81416 -0.76946,2.82241 c -0.86312,3.16594 -0.99136,3.41946 -1.72973,3.41946 -0.38133,0 -0.4138,0.0256 -0.48015,0.37923 -0.0391,0.20857 -0.0405,0.5014 -0.003,0.65074 0.0493,0.19614 0.008,0.32358 -0.1509,0.45905 -0.12049,0.1032 -0.21901,0.24766 -0.21901,0.32115 0,0.24433 -0.24999,0.68658 -0.38811,0.68658 -0.0914,0 -0.15885,0.27593 -0.20537,0.8413 -0.038,0.4627 -0.0789,0.93409 -0.0907,1.04751 -0.0591,0.56826 -1.44135,0.91988 -2.26434,0.57602 -0.36955,-0.15441 -0.40367,-0.21316 -0.63713,-1.09687 l -0.24666,-0.93374 h -0.46943 c -0.27806,0 -0.61432,-0.0883 -0.82485,-0.2167 -0.20313,-0.12378 -0.54741,-0.21687 -0.80349,-0.21712 -0.27446,-2.1e-4 -0.50291,-0.0665 -0.58961,-0.17096 -0.0832,-0.10015 -0.16702,-0.6041 -0.20326,-1.22123 l -0.0617,-1.05068 -0.54278,-0.0543 c -0.29852,-0.0298 -0.67711,-0.14538 -0.8413,-0.25673 -0.275,-0.1865 -0.29863,-0.2592 -0.3,-0.9227 -0.003,-1.09498 -0.0544,-1.20876 -0.55395,-1.20876 h -0.42156 l -0.008,1.3298 c -0.0143,2.37084 -0.15704,4.60998 -0.30531,4.78863 -0.0977,0.11784 -0.13061,0.52582 -0.11203,1.39341 0.0215,1.00997 -0.009,1.29872 -0.17426,1.63386 l -0.20043,0.40707 h -1.8052 -1.80521 z"
       id="path185" /><path
       style="fill:#000000;stroke-width:0.108555"
       d="M 311.88248,124.93692 V 81.515207 h 1.84541 1.84542 v 43.421713 43.42172 h -1.84542 -1.84541 z"
       id="path183" /></g></svg>
