<?xml version="1.0" encoding="UTF-8" standalone="no"?>
<!-- Created with Inkscape (http://www.inkscape.org/) -->

<svg
   width="132.32327mm"
   height="132.32327mm"
   viewBox="0 0 132.32327 132.32327"
   version="1.1"
   id="svg5"
   xml:space="preserve"
   inkscape:version="1.2.1 (9c6d41e410, 2022-07-14)"
   sodipodi:docname="Marten Sizing 2.svg"
   inkscape:export-filename="Marten Sizing 3.png"
   inkscape:export-xdpi="96"
   inkscape:export-ydpi="96"
   xmlns:inkscape="http://www.inkscape.org/namespaces/inkscape"
   xmlns:sodipodi="http://sodipodi.sourceforge.net/DTD/sodipodi-0.dtd"
   xmlns="http://www.w3.org/2000/svg"
   xmlns:svg="http://www.w3.org/2000/svg"><sodipodi:namedview
     id="namedview7"
     pagecolor="#ffffff"
     bordercolor="#000000"
     borderopacity="0.25"
     inkscape:showpageshadow="2"
     inkscape:pageopacity="0.0"
     inkscape:pagecheckerboard="0"
     inkscape:deskcolor="#d1d1d1"
     inkscape:document-units="mm"
     showgrid="false"
     inkscape:zoom="0.55244701"
     inkscape:cx="596.43729"
     inkscape:cy="226.26604"
     inkscape:window-width="1920"
     inkscape:window-height="1017"
     inkscape:window-x="-8"
     inkscape:window-y="-8"
     inkscape:window-maximized="1"
     inkscape:current-layer="layer1" /><defs
     id="defs2" /><g
     inkscape:label="Layer 1"
     inkscape:groupmode="layer"
     id="layer1"
     transform="translate(-174.341, -79.0336)"><path
       style="fill:#000000;stroke-width:0.165404"
       d="M 174.34059,145.1952 V 79.033562 h 2.15026 2.15025 v 66.161638 66.16164 h -2.15025 -2.15026 z"
       id="path71" /><path
       id="path195"
       style="fill:#000000;stroke-width:0.165404"
       d="m 245.72033,122.86912 -0.75723,0.74593 -0.75756,0.74592 -0.27752,-0.58213 -0.27782,-0.58246 h -3.14785 -3.14818 l -0.27782,0.58246 -0.27749,0.58213 -0.75338,-0.74141 -0.75337,-0.7414 -2.48042,6.52507 c -2.35353,6.19149 -2.50547,6.53397 -2.97014,6.69595 -0.26938,0.0939 -0.64839,0.31994 -0.84222,0.50204 -0.34645,0.32547 -0.35915,0.32554 -0.75141,0.0181 -0.51081,-0.40036 -1.03062,-0.22696 -1.38722,0.46261 -0.22263,0.43058 -0.35495,0.50462 -0.90002,0.50462 -0.60634,0 -0.6446,-0.0312 -0.75401,-0.61445 -0.24853,-1.32474 -1.13675,-2.21611 -2.44391,-2.45262 -0.34116,-0.0618 -0.62026,-0.18104 -0.62026,-0.26492 0,-0.16957 -1.08737,-1.29932 -1.25056,-1.29932 -0.0568,0 -0.29269,-0.14888 -0.52398,-0.33081 -0.40883,-0.32155 -0.671,-0.33081 -9.3925,-0.33081 -9.75936,0 -9.24199,-0.0518 -9.44193,0.94784 -0.0765,0.38251 -0.22352,0.53811 -0.61477,0.65033 -0.42113,0.12077 -0.53767,0.26157 -0.64513,0.77886 -0.17309,0.83303 0.0441,1.63526 0.49813,1.83884 0.26532,0.11896 0.36441,0.30661 0.36441,0.69198 0,0.75563 0.25777,1.33221 0.65194,1.45729 0.28382,0.0901 0.3405,0.24559 0.3405,0.9372 0,0.81303 0.0125,0.8343 0.65773,1.08772 0.36189,0.14215 0.69984,0.39035 0.75109,0.55177 0.0513,0.16143 0.24455,0.48581 0.42935,0.72075 l 0.33596,0.42707 h 4.12317 c 2.2677,0 4.12314,0.0336 4.12314,0.0742 0,0.0408 -0.2605,1.20854 -0.5789,2.59543 -0.31841,1.38689 -0.57892,2.54455 -0.57892,2.57247 0,0.0279 -3.18767,0.0506 -7.08362,0.0506 h -7.08363 l -0.34019,0.37215 c -0.18715,0.2047 -0.46359,0.61583 -0.61412,0.91361 -0.17795,0.35203 -0.49708,0.63101 -0.91263,0.79729 -0.69267,0.27716 -0.83102,0.55339 -0.83478,1.66631 -0.002,0.96164 0.11073,1.17006 0.75692,1.38334 0.53636,0.17701 0.55227,0.20387 0.31628,0.5408 -0.37882,0.54082 -0.32869,2.02023 0.0824,2.4313 0.18194,0.18195 0.44246,0.33081 0.57892,0.33081 0.29084,0 0.3213,0.1914 0.0704,0.44226 -0.2552,0.25522 -0.26278,1.95553 -0.009,2.2601 0.11578,0.13946 0.4263,0.30096 0.69005,0.35891 0.38459,0.0844 0.50073,0.21815 0.58633,0.67452 0.0664,0.35452 0.2807,0.69304 0.56826,0.89778 0.44787,0.31894 0.74755,0.32856 10.07673,0.32856 10.67985,0 10.29282,0.0401 10.5035,-1.08289 0.0786,-0.41886 0.19309,-0.57115 0.42932,-0.57115 0.17713,0 0.513,-0.21435 0.74659,-0.47651 0.26768,-0.30044 0.65512,-0.51351 1.048,-0.57633 1.41294,-0.22594 2.72226,-1.71759 3.35912,-3.82658 0.19227,-0.63682 0.43118,-1.21246 0.53078,-1.27931 0.0996,-0.0669 0.52836,-0.1228 0.95268,-0.12405 0.75059,-0.002 0.78547,0.0203 1.29062,0.84122 0.50659,0.82335 0.534,0.84103 1.13067,0.7314 0.33632,-0.0617 0.66634,-0.16491 0.73334,-0.22936 0.067,-0.0643 -0.13676,-0.84014 -0.4526,-1.72381 l -0.57407,-1.60688 h 0.83477 c 1.11568,0 5.81999,1.88302 5.74068,2.29788 -0.0311,0.16258 -0.27473,0.29801 -0.62769,0.34857 -0.37814,0.0543 -0.63002,0.20326 -0.73075,0.43258 -0.13061,0.29737 -0.34181,0.36494 -1.40594,0.44906 -2.35413,0.18604 -4.07548,0.99235 -4.77474,2.2365 -0.36452,0.64856 -0.63816,0.84978 -1.16365,0.85417 -0.16889,10e-4 -0.77825,0.77066 -1.57069,1.98289 l -1.29449,1.98033 -0.46615,2.52435 c -0.2563,1.38842 -0.86033,5.66547 -1.3423,9.5046 l -0.87614,6.98025 0.73045,2.43164 c 0.55773,1.8569 0.80255,2.45055 1.03666,2.51173 0.16862,0.0441 0.3748,0.25938 0.45812,0.47846 0.0833,0.21908 0.394,0.50807 0.69035,0.64192 0.83779,0.37833 2.09024,0.21933 2.52015,-0.31983 0.19067,-0.23912 0.41835,-0.43652 0.50591,-0.43839 0.0876,-10e-4 0.32663,-0.13278 0.53142,-0.29043 0.28666,-0.22067 0.60351,-1.08566 1.37686,-3.75906 0.926,-3.20109 1.02172,-3.68625 1.22147,-6.20202 l 0.21645,-2.72917 1.46506,-2.60511 1.46471,-2.60512 h 0.87 c 0.85985,0 0.86998,0.005 0.86998,0.50559 0,0.82902 0.35292,2.03247 0.71301,2.43034 0.33578,0.3709 0.35326,0.37217 5.57236,0.37217 5.21908,0 5.23625,-0.001 5.57204,-0.37217 0.3601,-0.39787 0.71331,-1.60132 0.71331,-2.43034 0,-0.50003 0.009,-0.50559 0.86967,-0.50559 h 0.86999 l 1.46472,2.60512 1.46474,2.60511 0.22162,2.72917 c 0.20297,2.49793 0.30656,3.02362 1.22145,6.20202 0.77089,2.67804 1.08487,3.53802 1.37204,3.75906 0.20478,0.15765 0.44387,0.28856 0.53142,0.29043 0.0876,0.001 0.31352,0.19714 0.50203,0.43353 0.65652,0.82335 2.94532,0.62551 3.18079,-0.27492 0.0497,-0.19014 0.24845,-0.40585 0.44195,-0.47941 0.28009,-0.10651 0.50125,-0.61801 1.08448,-2.50981 l 0.73237,-2.37607 -0.87288,-7.02967 c -0.48023,-3.86632 -1.08536,-8.17085 -1.34457,-9.56564 -0.43165,-2.32256 -0.52991,-2.62575 -1.16622,-3.6024 -0.38215,-0.58654 -0.66614,-1.0924 -0.63094,-1.12423 0.0353,-0.0318 0.45702,-0.25534 0.93719,-0.49654 0.84957,-0.42677 0.94427,-0.54629 1.62141,-2.04399 0.0105,-0.0244 5.43596,-1.03863 12.05543,-2.25392 8.01782,-1.47202 12.08334,-2.28549 12.17919,-2.4368 0.0792,-0.12493 0.14541,-0.30572 0.14665,-0.4019 0.001,-0.0961 -0.98363,-0.59327 -2.18902,-1.10485 l -2.19161,-0.93039 -0.27426,-0.79697 c -0.82413,-2.39667 -1.36181,-4.54188 -1.16849,-4.66137 0.11026,-0.0681 0.72787,-0.26088 1.37234,-0.42806 0.94283,-0.24452 1.20132,-0.38225 1.32387,-0.70457 0.0837,-0.2203 0.15248,-0.467 0.15248,-0.54854 0,-0.21046 -0.99093,-0.44049 -2.81185,-0.65257 -0.86424,-0.10059 -1.79464,-0.25611 -2.06757,-0.34535 -1.07886,-0.35273 -5.39971,-0.96539 -5.78235,-0.81992 -0.27757,0.10556 -2.26837,-0.23936 -7.20769,-1.24892 -3.75329,-0.76715 -6.85047,-1.39496 -6.88267,-1.39496 -0.0323,0 -0.0584,-0.22928 -0.0584,-0.50977 0,-0.33227 -0.0715,-0.48647 -0.20513,-0.44194 -0.29107,0.0969 -0.79137,-0.59823 -0.89649,-1.24603 -0.0721,-0.4447 -0.23976,-0.63349 -0.88291,-0.99501 -0.43654,-0.24539 -0.91023,-0.44613 -1.05285,-0.44613 -0.30561,0 -0.60151,0.49184 -0.60151,0.99954 0,0.2977 -0.0688,0.34248 -0.39993,0.2594 -0.23454,-0.0588 -0.42574,-0.0233 -0.46229,0.0865 -0.0353,0.1058 -0.20288,0.14105 -0.38574,0.0814 -0.24948,-0.0814 -0.89022,-1.59966 -2.80057,-6.63619 z m -23.26641,13.27304 c 0.0493,-10e-4 0.12348,0.0149 0.22711,0.0463 0.20412,0.0617 0.4407,0.17695 0.5256,0.25619 0.20673,0.19283 0.0868,0.25784 -0.34728,0.188 -0.19698,-0.0317 -0.40131,-0.1698 -0.45389,-0.30688 -0.0475,-0.12407 -0.0392,-0.18136 0.0485,-0.1835 z m -2.09791,16.99235 c 0.31594,0 0.46594,0.0591 0.37215,0.14699 -0.0864,0.0808 -0.32446,0.19727 -0.52917,0.25908 -0.27547,0.0832 -0.37214,0.0453 -0.37214,-0.14666 0,-0.18139 0.15882,-0.25941 0.52916,-0.25941 z m 2.09501,1.43243 c 0.0146,-1.6e-4 0.0223,0.003 0.0223,0.0119 0,0.3338 -0.91942,1.57205 -1.32164,1.78003 -0.64572,0.33393 -0.86071,0.30855 -1.18688,-0.14086 -0.34616,-0.47691 -0.21195,-0.69383 0.52367,-0.84606 0.3184,-0.066 0.89525,-0.29324 1.28187,-0.50527 0.32623,-0.17891 0.60236,-0.29896 0.68068,-0.29979 z m 9.17475,2.06238 c 0.21188,-0.001 0.22051,0.071 0.1709,0.26072 -0.0638,0.24374 -0.33587,0.36091 -1.1882,0.51171 -0.60803,0.10755 -1.28459,0.24522 -1.5035,0.30593 -0.29774,0.0826 -0.36533,0.0575 -0.26814,-0.0998 0.19047,-0.30817 1.37778,-0.78996 2.26785,-0.92038 0.24352,-0.0357 0.41011,-0.0573 0.52109,-0.0581 z m 0.86546,2.4733 c 0.0719,2.4e-4 0.14485,0.001 0.21871,0.003 l 0.59733,0.0168 -0.5366,0.12729 c -0.29508,0.07 -0.63003,0.20251 -0.74431,0.29431 -0.11425,0.0918 -0.48684,0.19813 -0.82799,0.23614 -0.49582,0.0552 -0.62026,0.0137 -0.62026,-0.20611 0,-0.27488 0.83503,-0.47557 1.91312,-0.47199 z" /><path
       style="fill:#000000;stroke-width:0.165404"
       d="M 298.39368,145.1952 V 79.033562 h 4.13509 4.1351 v 66.161638 66.16164 h -4.1351 -4.13509 z"
       id="path183" /></g></svg>
