<?xml version="1.0" encoding="UTF-8" standalone="no"?>
<!-- Created with Inkscape (http://www.inkscape.org/) -->

<svg
   width="128.10046mm"
   height="128.10046mm"
   viewBox="0 0 128.10046 128.10046"
   version="1.1"
   id="svg5"
   xml:space="preserve"
   inkscape:version="1.2.1 (9c6d41e410, 2022-07-14)"
   sodipodi:docname="Muskrat Sizing 2.svg"
   inkscape:export-filename="Muskrat Sizing 3.png"
   inkscape:export-xdpi="96"
   inkscape:export-ydpi="96"
   xmlns:inkscape="http://www.inkscape.org/namespaces/inkscape"
   xmlns:sodipodi="http://sodipodi.sourceforge.net/DTD/sodipodi-0.dtd"
   xmlns="http://www.w3.org/2000/svg"
   xmlns:svg="http://www.w3.org/2000/svg"><sodipodi:namedview
     id="namedview7"
     pagecolor="#ffffff"
     bordercolor="#000000"
     borderopacity="0.25"
     inkscape:showpageshadow="2"
     inkscape:pageopacity="0.0"
     inkscape:pagecheckerboard="0"
     inkscape:deskcolor="#d1d1d1"
     inkscape:document-units="mm"
     showgrid="false"
     inkscape:zoom="0.55244701"
     inkscape:cx="198.20906"
     inkscape:cy="485.1144"
     inkscape:window-width="1920"
     inkscape:window-height="1057"
     inkscape:window-x="1912"
     inkscape:window-y="-8"
     inkscape:window-maximized="1"
     inkscape:current-layer="layer1" /><defs
     id="defs2" /><g
     inkscape:label="Layer 1"
     inkscape:groupmode="layer"
     id="layer1"
     transform="translate(286.19775,82.470963)"><path
       style="fill:#000000;stroke-width:0.160126"
       d="m -234.31707,16.919749 -0.56043,-0.192913 -0.0461,-1.386489 c -0.0325,-0.9762 -0.11535,-1.444 -0.28022,-1.580832 -0.18088,-0.150117 -0.23416,-0.617631 -0.23416,-2.054527 0,-2.069343 -0.29432,-3.1749382 -0.88069,-3.3083043 -0.36314,-0.08259 -4.15342,-0.7169429 -4.28376,-0.7169429 -0.21501,0 -0.6107,-1.4435799 -1.15008,-4.1957401 -0.66928,-3.41504141 -0.74623,-2.87800105 0.77099,-5.380127 0.46485,-0.7665996 0.89025,-1.6715621 0.94534,-2.0110267 0.0975,-0.6004132 0.0886,-0.6149864 -0.32678,-0.5355946 -0.25261,0.048295 -0.49481,-0.00508 -0.59321,-0.1306624 -0.12788,-0.1632719 -0.3693,-0.1789319 -1.0458,-0.06784 -0.48373,0.079439 -0.90567,0.2229062 -0.93764,0.3188163 -0.0319,0.095909 -0.21502,0.3567745 -0.40678,0.5796984 -0.4135,0.4807399 -1.55334,0.6719042 -2.35013,0.3941456 -0.43887,-0.1529938 -0.82206,-0.094471 -2.64435,0.4038657 -1.87792,0.5135514 -2.18846,0.559029 -2.61389,0.3828089 -0.38851,-0.1609278 -0.5282,-0.3608656 -0.71543,-1.0239005 -0.12796,-0.4531585 -0.42894,-1.5264755 -0.66887,-2.3851493 -0.35892,-1.2846525 -0.49092,-1.5612249 -0.74513,-1.5612249 -0.35963,0 -0.93865,-0.2846167 -1.16856,-0.5744058 -0.10325,-0.1301045 -1.21298,-0.2951175 -3.12244,-0.4642712 -1.62928,-0.1443359 -3.08842,-0.2987888 -3.24253,-0.3432308 -0.22088,-0.063693 -0.27971,-0.2565337 -0.27778,-0.9106728 9.8e-4,-0.4564266 0.0576,-0.9167426 0.12516,-1.0229216 0.075,-0.118011 0.97637,-0.26863 2.31885,-0.387484 1.20789,-0.106937 2.15623,-0.234352 2.10743,-0.283146 -0.0489,-0.04878 -1.31214,-0.20729 -2.80748,-0.352219 -1.49531,-0.144928 -2.76044,-0.305197 -2.8114,-0.356151 -0.0509,-0.05095 -0.0983,-0.465488 -0.10513,-0.921185 -0.01,-0.587726 0.0624,-0.883332 0.24531,-1.01706 0.1418,-0.103685 1.63683,-0.315909 3.3223,-0.47161 2.71823,-0.251105 3.12934,-0.327104 3.63842,-0.672569 0.31567,-0.214213 0.78004,-0.389476 1.03196,-0.389476 h 0.45803 v -2.170853 c 0,-1.193967 0.0813,-2.493745 0.18068,-2.888393 0.0994,-0.39465 0.13652,-0.761705 0.0826,-0.815683 -0.0539,-0.05398 -0.87386,-0.166605 -1.82196,-0.250291 -1.89863,-0.167581 -2.12415,-0.292822 -2.12415,-1.179662 0,-0.839015 0.22944,-0.936245 2.73929,-1.1608 1.2666,-0.113323 2.33334,-0.236458 2.37052,-0.273636 0.18195,-0.18196 -0.31937,-0.274347 -2.65539,-0.489368 -3.52658,-0.324604 -3.25504,-0.22007 -3.25504,-1.253144 0,-0.477502 0.0594,-0.904921 0.13208,-0.949817 0.0727,-0.04489 1.44171,-0.205474 3.04238,-0.356841 1.60067,-0.151368 2.91031,-0.333205 2.91031,-0.404086 0,-0.233319 0.93414,-0.617476 1.50151,-0.617476 0.54502,0 0.57733,-0.03815 1.54433,-1.822511 0.54322,-1.002384 1.14296,-1.905399 1.33276,-2.006707 0.28247,-0.150767 0.94084,-0.04006 3.62767,0.610043 4.36957,1.057243 4.63113,1.090459 5.3931,0.684891 0.36273,-0.193075 1.03514,-0.354398 1.65243,-0.396453 0.57245,-0.039 1.29658,-0.178442 1.60918,-0.309876 l 0.56835,-0.238971 0.76296,-2.94388 c 0.51887,-2.002093 0.87104,-3.059141 1.10083,-3.304163 0.3279,-0.349623 0.42977,-0.360283 3.44296,-0.360283 3.10087,0 3.72451,0.09478 3.72451,0.566073 0,0.198544 0.51629,0.234554 3.36264,0.234554 2.84637,0 3.36264,-0.03601 3.36264,-0.234554 0,-0.471289 0.62364,-0.566073 3.72451,-0.566073 3.01426,0 3.11484,0.01053 3.43935,0.360283 0.29428,0.317141 0.96888,2.476856 1.70376,5.454414 0.16965,0.68741 0.2651,0.804269 0.88287,1.080847 0.44467,0.199091 1.04868,0.310109 1.68715,0.310109 0.90925,0 1.05189,0.04912 1.66383,0.572914 0.40495,0.346618 0.66932,0.710492 0.66932,0.921212 0,0.323387 0.35786,0.438217 5.00394,1.605719 10.90387,2.740009 12.13188,3.07627 12.47026,3.414635 0.33313,0.333123 1.90099,5.080791 1.90099,5.756394 0,0.192817 -0.21219,0.529131 -0.47154,0.747364 l -0.47155,0.396783 0.59009,2.038367 0.59008,2.038367 0.83232,0.368087 0.83231,0.368085 0.71993,2.294985 c 0.39598,1.2622397 0.87812,2.8249043 1.07141,3.4725865 l 0.35145,1.1776068 -0.58341,0.5837752 -0.58341,0.5837761 -3.08963,0.049251 -3.08964,0.049251 -0.15062,0.5077468 c -0.29902,1.0080855 -1.8943,1.5646942 -3.0176,1.0528787 -0.37231,-0.1696308 -0.89595,-0.993208 -0.89595,-1.4091195 0,-0.125937 -0.44972,-0.1677908 -1.46055,-0.1359277 l -1.46054,0.046043 -0.18074,0.5435491 c -0.25883,0.7783642 -1.04955,1.1764447 -2.16942,1.0921658 -0.69926,-0.052622 -0.94026,-0.149567 -1.24096,-0.4991577 -0.20526,-0.2386181 -0.3732,-0.609973 -0.3732,-0.8252344 0,-0.3900871 -0.005,-0.3913858 -1.67053,-0.3913858 -1.52989,0 -1.67907,0.026961 -1.77217,0.3202514 -0.0559,0.1761382 -0.16658,0.3202511 -0.24594,0.3202511 -0.0794,0 -0.1018,0.1107685 -0.0498,0.2461527 0.052,0.1353832 -0.0314,0.3852819 -0.18535,0.555329 -0.26917,0.297428 -0.24286,0.3717283 0.69256,1.9555735 0.5348,0.90551942 1.01765,1.76645377 1.07299,1.91318983 0.21623,0.57327533 -1.306,7.33917367 -1.65121,7.33917367 -0.12543,0 -3.92522,0.6369766 -4.27683,0.7169429 -0.58637,0.1333651 -0.88069,1.2389608 -0.88069,3.308304 0,1.458154 -0.052,1.903269 -0.24018,2.059526 -0.17837,0.148038 -0.2402,0.54311 -0.2402,1.535165 0,1.218316 -0.0313,1.352658 -0.35748,1.527145 -0.52932,0.283285 -1.66693,0.265882 -1.96294,-0.03003 -0.16018,-0.160137 -0.44555,-1.356101 -0.79222,-3.32017 -0.5714,-3.237285 -0.88005,-4.0083928 -1.61105,-4.0251018 -0.17615,-0.00397 -1.36508,0.1714373 -2.64209,0.3899155 -1.92845,0.3299383 -2.8508,0.3972343 -5.44426,0.3972343 -2.59346,0 -3.51581,-0.0673 -5.44428,-0.3972343 -1.27699,-0.2184782 -2.46594,-0.3939408 -2.64206,-0.3899155 -0.17615,0.00407 -0.48961,0.2216062 -0.69659,0.4835105 -0.30284,0.3832093 -0.48044,1.0738413 -0.90951,3.5370063 -0.29326,1.68345 -0.62831,3.151267 -0.74456,3.26182 -0.32943,0.313293 -1.11695,0.397788 -1.73255,0.185891 z"
       id="path300" /><path
       style="fill:#000000;stroke-width:0.160126"
       d="m -163.2213,-18.42073 v -64.050233 h 2.56202 2.562 v 64.050233 64.050231 h -2.562 -2.56202 z"
       id="path298" /><path
       style="fill:#000000;stroke-width:0.160126"
       d="m -286.19775,-18.42073 v -64.050233 h 2.40188 2.40189 v 64.050233 64.050231 h -2.40189 -2.40188 z"
       id="path294" /></g></svg>
