<?xml version="1.0" encoding="UTF-8" standalone="no"?>
<!-- Created with Inkscape (http://www.inkscape.org/) -->

<svg
   width="115.32528mm"
   height="115.32527mm"
   viewBox="0 0 115.32528 115.32529"
   version="1.1"
   id="svg5"
   xml:space="preserve"
   inkscape:version="1.2.1 (9c6d41e410, 2022-07-14)"
   sodipodi:docname="Salamander Sizing 2.svg"
   inkscape:export-filename="Salamander Sizing 3.png"
   inkscape:export-xdpi="96"
   inkscape:export-ydpi="96"
   xmlns:inkscape="http://www.inkscape.org/namespaces/inkscape"
   xmlns:sodipodi="http://sodipodi.sourceforge.net/DTD/sodipodi-0.dtd"
   xmlns="http://www.w3.org/2000/svg"
   xmlns:svg="http://www.w3.org/2000/svg"><sodipodi:namedview
     id="namedview7"
     pagecolor="#ffffff"
     bordercolor="#000000"
     borderopacity="0.25"
     inkscape:showpageshadow="2"
     inkscape:pageopacity="0.0"
     inkscape:pagecheckerboard="0"
     inkscape:deskcolor="#d1d1d1"
     inkscape:document-units="mm"
     showgrid="false"
     inkscape:zoom="1.104894"
     inkscape:cx="349.8073"
     inkscape:cy="294.14586"
     inkscape:window-width="1920"
     inkscape:window-height="1017"
     inkscape:window-x="-8"
     inkscape:window-y="-8"
     inkscape:window-maximized="1"
     inkscape:current-layer="layer1" /><defs
     id="defs2" /><g
     inkscape:label="Layer 1"
     inkscape:groupmode="layer"
     id="layer1"
     transform="translate(-735.356, -17.7168)"><path
       style="fill:#000000;stroke-width:0.144157"
       d="M 735.3561,75.37943 V 17.716795 h 3.17145 3.17143 v 57.662635 57.66264 h -3.17143 -3.17145 z"
       id="path191" /><path
       style="fill:#000000;stroke-width:0.144157"
       d="m 790.81539,111.14406 c -0.16774,-0.28382 -0.2473,-0.73106 -0.2473,-1.38851 0,-0.69817 -0.0766,-1.09575 -0.27345,-1.41932 -0.23964,-0.39393 -0.28628,-0.88153 -0.37733,-3.94529 l -0.104,-3.49579 h -0.55968 -0.55969 v 1.14893 c 0,1.10944 -0.0141,1.15993 -0.43249,1.46868 -0.42213,0.3121 -0.43246,0.34932 -0.43246,1.55796 0,1.55371 -0.18077,1.87698 -1.05333,1.88359 -0.33244,0.003 -0.7304,0.0998 -0.8843,0.21623 -0.19372,0.14653 -0.64712,0.21166 -1.47358,0.21166 h -1.19374 l -0.22644,0.82889 c -0.12449,0.4559 -0.27868,0.92621 -0.34254,1.04514 -0.44737,0.83329 -2.71598,0.73624 -3.18289,-0.13618 -0.0818,-0.15253 -0.14837,-0.60595 -0.14837,-1.00761 0,-0.66671 -0.0291,-0.73025 -0.33286,-0.73025 -0.18306,0 -0.45876,-0.0953 -0.61267,-0.21165 -0.15383,-0.11641 -0.48271,-0.21372 -0.73069,-0.21624 -0.24794,-0.003 -0.52473,-0.0936 -0.61503,-0.20241 -0.0904,-0.1088 -0.29242,-0.80616 -0.44914,-1.54969 -0.15683,-0.74351 -0.38005,-1.54646 -0.49625,-1.78431 -0.11621,-0.23787 -0.53026,-1.95694 -0.92012,-3.820158 l -0.70883,-3.387683 0.27033,-1.851166 c 0.29758,-2.037703 0.28302,-2.008848 1.67607,-3.324374 0.49554,-0.46796 0.90099,-0.950943 0.90099,-1.073289 0,-0.122334 0.15488,-0.388167 0.34419,-0.590719 0.1893,-0.202555 0.38524,-0.504647 0.43543,-0.671313 0.0858,-0.285101 0.0361,-0.303974 -0.84204,-0.318935 -0.5133,-0.0087 -1.0634,-0.09719 -1.22248,-0.196535 -0.22892,-0.14296 -0.39027,-0.144085 -0.77378,-0.0054 -0.26649,0.09637 -0.58651,0.175204 -0.71116,0.175204 -0.28823,0 -0.45291,-0.41321 -0.25816,-0.647852 0.10476,-0.126378 0.0844,-0.231913 -0.0697,-0.359772 -0.11991,-0.09949 -0.21801,-0.270292 -0.21801,-0.379512 0,-0.109224 -0.0646,-0.198584 -0.14347,-0.198584 -0.0787,0 -1.7295,0.792269 -3.66807,1.760598 -2.80056,1.398888 -3.54169,1.828328 -3.60742,2.090271 -0.0822,0.327054 -0.10205,0.329675 -2.49857,0.329675 -2.71986,0 -2.91496,-0.05921 -3.20724,-0.973505 -0.095,-0.297077 -0.30122,-0.753186 -0.4583,-1.013578 -0.15719,-0.260392 -0.30732,-0.706664 -0.33383,-0.991703 -0.0283,-0.305189 -0.19612,-0.673585 -0.4081,-0.896051 -0.19799,-0.207783 -0.52173,-0.824844 -0.71943,-1.371246 -0.19768,-0.546404 -0.4579,-1.091944 -0.57827,-1.212305 -0.1271,-0.127098 -1.02281,-0.362638 -2.13679,-0.561886 -1.30663,-0.233706 -1.97539,-0.418946 -2.09815,-0.581169 -0.21191,-0.280012 -0.2415,-1.817266 -0.0424,-2.189711 0.10293,-0.192308 0.52437,-0.32409 1.65779,-0.518365 1.38165,-0.236821 1.51982,-0.288847 1.51982,-0.572349 0,-0.171511 0.15436,-0.765797 0.34308,-1.320627 0.30192,-0.887593 0.31946,-1.050815 0.14594,-1.358696 -0.38404,-0.681768 -0.66901,-1.92921 -0.64922,-2.841893 0.0188,-0.863376 0.62879,-3.057391 1.07081,-3.850918 0.0882,-0.158572 0.16648,-0.727573 0.1737,-1.264446 0.009,-0.64844 0.083,-1.042625 0.22118,-1.174175 0.11452,-0.108925 0.85519,-0.306051 1.64622,-0.438067 0.79105,-0.132023 1.46346,-0.265247 1.49428,-0.296067 0.0308,-0.03085 -0.0141,-0.255071 -0.0982,-0.498314 -0.13133,-0.377016 -0.068,-0.71307 0.42927,-2.277823 0.36967,-1.163061 0.71385,-1.973939 0.93937,-2.213243 0.19579,-0.207728 0.46542,-0.596948 0.59922,-0.86494 l 0.24326,-0.487258 h 2.45068 2.45064 l -0.0366,0.468509 c -0.0333,0.428651 -9.8e-4,0.46851 0.37884,0.46851 0.51593,0 0.90427,0.161859 3.63091,1.513339 1.20005,0.594811 2.25662,1.081165 2.3479,1.080789 0.0912,-4.36e-4 0.42549,-0.23748 0.74262,-0.52689 0.55375,-0.505337 0.58807,-0.589625 0.86496,-2.125621 l 0.2883,-1.599419 2.79449,-0.03923 c 2.7648,-0.0388 2.79176,-0.04221 2.53888,-0.321648 -0.20261,-0.223871 -0.2198,-0.325555 -0.083,-0.49044 0.18781,-0.226284 0.0798,-1.177336 -0.16931,-1.491235 -0.0968,-0.122037 -0.0835,-0.251951 0.0415,-0.402542 0.13978,-0.168416 0.14399,-0.262822 0.0175,-0.389222 -0.0918,-0.09179 -0.16683,-0.283647 -0.16683,-0.42636 0,-0.210604 0.11955,-0.259483 0.63505,-0.259483 0.51465,0 0.74957,-0.09566 1.23896,-0.504547 0.96597,-0.807035 1.10916,-0.723075 1.22944,0.720783 0.0561,0.673931 0.14313,1.224337 0.19315,1.223124 0.28179,-0.0069 0.43002,-0.319283 0.58025,-1.223124 0.19626,-1.180674 0.57903,-2.892639 0.74708,-3.341313 0.0746,-0.199313 0.26505,-0.330962 0.52117,-0.360393 0.32136,-0.03692 0.41855,-0.134448 0.47723,-0.478834 0.0523,-0.3059 0.16597,-0.445639 0.3889,-0.47746 0.25988,-0.03709 0.33212,0.04518 0.41156,0.46851 0.13238,0.705924 0.57162,0.711513 0.70342,0.009 0.15315,-0.816675 0.80238,-0.632191 0.80238,0.228025 0,0.206756 0.10183,0.276525 0.40362,0.276525 0.54665,0 0.74964,0.242029 0.74964,0.893769 0,0.36277 0.0654,0.547796 0.19388,0.547796 0.10673,0 0.31132,0.129735 0.45482,0.288313 0.21781,0.240698 0.44398,0.288314 1.36948,0.288314 0.92551,0 1.15167,-0.0476 1.36949,-0.288314 0.14347,-0.158572 0.34819,-0.288313 0.45482,-0.288313 0.12904,0 0.19388,-0.18684 0.19388,-0.558976 0,-0.631857 0.28144,-0.955715 0.72885,-0.838716 0.30423,0.07956 0.33497,0.03816 0.48719,-0.656538 0.13293,-0.606802 0.61879,-0.535781 0.73958,0.108113 0.13187,0.702564 0.57102,0.696974 0.70344,-0.009 0.0795,-0.423345 0.15173,-0.5056 0.41156,-0.468509 0.22296,0.03183 0.33679,0.171565 0.3889,0.477461 0.0588,0.344388 0.15595,0.441912 0.47723,0.478833 0.25612,0.02944 0.44653,0.161087 0.52117,0.360393 0.17727,0.473277 0.56161,2.201596 0.7484,3.365554 0.12358,0.769969 0.22953,1.049995 0.4158,1.098701 0.21647,0.05661 0.26297,-0.09065 0.34708,-1.099269 0.0534,-0.640546 0.12395,-1.191406 0.15665,-1.22413 0.12835,-0.128347 0.74046,0.127891 1.09255,0.457363 0.44208,0.413649 0.92634,0.592604 1.46708,0.542135 0.3047,-0.02845 0.39642,0.02554 0.39642,0.23334 0,0.148691 -0.0751,0.345443 -0.16686,0.437227 -0.12641,0.126393 -0.12095,0.222293 0.0227,0.395332 0.14363,0.173041 0.14909,0.268933 0.0227,0.395331 -0.40434,0.404337 -0.17929,0.541687 0.88759,0.541687 h 1.05447 l 0.24294,0.509438 c 0.13362,0.280193 0.24293,0.666981 0.24293,0.85953 0,0.342464 0.0291,0.350994 1.33347,0.391539 l 1.33343,0.04145 0.39613,2.234429 c 0.21788,1.228932 0.42047,2.299342 0.4502,2.378689 0.0583,0.155443 2.50633,0.867793 3.52009,1.024281 0.76023,0.117363 1.76024,-0.271204 1.76024,-0.683956 0,-0.169049 0.19507,-0.346646 0.5406,-0.492166 0.76091,-0.320485 3.8179,-0.182803 4.97554,0.224088 0.67901,0.238641 0.87999,0.257595 1.19754,0.11291 0.32868,-0.149764 0.40902,-0.136313 0.57958,0.09694 0.14996,0.205127 0.15805,0.318892 0.0333,0.469192 -0.12835,0.154563 -0.0964,0.246253 0.14452,0.414915 0.17179,0.120331 0.30122,0.35764 0.29138,0.534197 -0.0109,0.174729 0.0469,0.479871 0.12572,0.678091 0.0787,0.198214 0.11955,0.427429 0.0904,0.509374 -0.03,0.08445 0.52536,0.265602 1.28205,0.418179 2.62957,0.53021 3.18614,0.893233 3.69933,2.4128 0.56776,1.681277 0.36802,2.312707 -1.11231,3.516299 -0.48134,0.391362 -0.87885,0.747241 -0.88337,0.790842 -0.003,0.04358 0.39725,0.160258 0.89279,0.259214 2.43159,0.485624 3.041,0.94551 3.55724,2.684489 0.47169,1.58889 0.35269,1.912999 -1.21429,3.307175 -1.33575,1.188418 -1.72313,1.353697 -3.92867,1.676092 -0.99641,0.145649 -1.1893,0.216925 -1.1893,0.439465 0,0.146089 -0.1294,0.334833 -0.28738,0.419426 -0.16756,0.08967 -0.35456,0.420592 -0.44849,0.793575 -0.0886,0.351871 -0.2445,0.708985 -0.34643,0.793582 -0.10204,0.08461 -0.15333,0.27664 -0.11393,0.426754 0.0454,0.173289 -0.0364,0.340228 -0.22377,0.457266 -0.20199,0.12615 -0.25117,0.237329 -0.15577,0.352199 0.0766,0.09231 0.0964,0.279635 0.0439,0.416237 -0.0761,0.19779 -0.18652,0.225786 -0.54307,0.137457 -0.24627,-0.061 -1.06405,-0.100848 -1.81725,-0.08854 -1.89286,0.03094 -2.4881,-0.09536 -2.59373,-0.55052 -0.0575,-0.247992 -0.3268,-0.490072 -0.87109,-0.783139 -0.43329,-0.233301 -0.90944,-0.578199 -1.05812,-0.766441 -0.28899,-0.365912 -0.57659,-0.366598 -2.07077,-0.0048 -0.5223,0.126397 -0.60034,0.19268 -0.53638,0.455533 0.0641,0.262723 -0.10972,0.410706 -1.19074,1.014293 -3.20574,1.790025 -3.47048,1.97726 -3.53121,2.497507 -0.0321,0.275693 0.0206,0.547395 0.1229,0.632304 0.0987,0.08188 0.14858,0.229374 0.11079,0.327745 -0.0377,0.09837 0.33912,0.563946 0.83748,1.034598 1.40665,1.328478 1.39625,1.308072 1.69561,3.321058 l 0.27161,1.826213 -0.71081,3.404261 c -0.39096,1.872345 -0.79895,3.566445 -0.90665,3.764665 -0.1076,0.19821 -0.31144,0.94423 -0.45275,1.6578 -0.32115,1.62157 -0.50674,1.94464 -1.12053,1.9507 -0.25586,0.003 -0.59111,0.0998 -0.74503,0.21623 -0.15383,0.11642 -0.4296,0.21166 -0.61267,0.21166 -0.3069,0 -0.33282,0.0611 -0.33282,0.78481 0,0.6174 -0.0727,0.86939 -0.34099,1.18122 -0.2937,0.34148 -0.46851,0.40334 -1.26136,0.44643 -0.94368,0.0513 -1.50646,-0.12398 -1.72899,-0.53843 -0.0638,-0.11894 -0.21798,-0.58924 -0.34251,-1.04513 l -0.22644,-0.8289 h -1.19377 c -0.82642,0 -1.27982,-0.0651 -1.47356,-0.21166 -0.15385,-0.11641 -0.55185,-0.21371 -0.88432,-0.21623 -0.87501,-0.007 -1.0533,-0.32843 -1.0533,-1.90088 0,-1.2305 -0.009,-1.26167 -0.43248,-1.56346 -0.4183,-0.29786 -0.43246,-0.34543 -0.43246,-1.45139 v -1.14344 h -0.55535 -0.55533 l -0.12941,3.66116 c -0.112,3.1685 -0.16334,3.69862 -0.38167,3.93962 -0.1876,0.20709 -0.25227,0.52678 -0.25227,1.24732 0,0.58651 -0.0869,1.13671 -0.21995,1.39418 l -0.21994,0.42531 h -1.9834 -1.9834 z"
       id="path197" /><path
       style="fill:#000000;stroke-width:0.144157"
       d="M 845.05927,75.37943 V 17.716795 h 2.81104 2.81107 v 57.662635 57.66264 h -2.81107 -2.81104 z"
       id="path195" /></g></svg>
