<?xml version="1.0" encoding="UTF-8" standalone="no"?>
<!-- Created with Inkscape (http://www.inkscape.org/) -->

<svg
   width="100.57405mm"
   height="100.57404mm"
   viewBox="0 0 100.57405 100.57404"
   version="1.1"
   id="svg5"
   xml:space="preserve"
   inkscape:version="1.2.1 (9c6d41e410, 2022-07-14)"
   sodipodi:docname="Vole Sizing 2.svg"
   inkscape:export-filename="Vole Sizing 3"
   inkscape:export-xdpi="96"
   inkscape:export-ydpi="96"
   xmlns:inkscape="http://www.inkscape.org/namespaces/inkscape"
   xmlns:sodipodi="http://sodipodi.sourceforge.net/DTD/sodipodi-0.dtd"
   xmlns="http://www.w3.org/2000/svg"
   xmlns:svg="http://www.w3.org/2000/svg"><sodipodi:namedview
     id="namedview7"
     pagecolor="#ffffff"
     bordercolor="#000000"
     borderopacity="0.25"
     inkscape:showpageshadow="2"
     inkscape:pageopacity="0.0"
     inkscape:pagecheckerboard="0"
     inkscape:deskcolor="#d1d1d1"
     inkscape:document-units="mm"
     showgrid="false"
     inkscape:zoom="0.55244701"
     inkscape:cx="618.15883"
     inkscape:cy="59.734235"
     inkscape:window-width="1920"
     inkscape:window-height="1057"
     inkscape:window-x="1912"
     inkscape:window-y="-8"
     inkscape:window-maximized="1"
     inkscape:current-layer="layer1" /><defs
     id="defs2" /><g
     inkscape:label="Layer 1"
     inkscape:groupmode="layer"
     id="layer1"
     transform="translate(1.2446657,-18.573076)"><path
       style="fill:#000000;stroke-width:0.125717"
       d="M -1.2446657,68.860097 V 18.573076 h 2.074342 2.0743373 v 50.287021 50.287023 h -2.0743373 -2.074342 z"
       id="path126" /><path
       style="fill:#000000;stroke-width:0.125717"
       d="M 38.859232,92.023368 38.419221,91.803557 38.293505,89.606021 38.167789,87.408487 36.910612,87.182694 C 34.263466,86.707261 34.38829,86.750295 34.161927,86.235092 34.049314,85.978804 33.729092,84.810493 33.450304,83.638846 33.171524,82.467204 32.927241,81.4924 32.907461,81.47262 c -0.01976,-0.01976 -0.629325,0.123216 -1.354538,0.317773 -1.230987,0.330245 -1.345399,0.34103 -1.722575,0.162401 -0.440368,-0.208554 -0.429087,-0.180205 -1.470884,-3.695307 -0.407957,-1.376475 -0.511408,-1.602899 -0.732345,-1.602899 -0.141505,0 -0.414399,-0.150524 -0.606427,-0.334499 -0.320149,-0.306726 -0.533812,-0.358432 -2.573024,-0.622697 -1.40891,-0.182582 -2.261791,-0.347941 -2.327309,-0.451234 -0.160698,-0.253322 -0.125436,-1.411531 0.04987,-1.638223 0.117053,-0.151365 0.716344,-0.272943 2.349146,-0.476564 2.087979,-0.260389 2.214926,-0.292157 2.675036,-0.669419 l 0.483031,-0.396054 -0.01497,-2.514353 c -0.01297,-2.17925 0.01891,-2.631398 0.23923,-3.392564 0.139819,-0.483021 0.234284,-0.898147 0.209918,-0.922515 -0.02437,-0.02437 -0.584399,-0.119728 -1.24452,-0.211931 -0.660126,-0.0922 -1.258595,-0.203703 -1.329929,-0.247793 -0.147364,-0.09108 -0.174154,-1.311783 -0.0335,-1.526053 0.05079,-0.07738 0.96887,-0.247393 2.040156,-0.377799 l 1.947794,-0.237111 1.38842,-2.357762 c 0.763633,-1.296772 1.499455,-2.46839 1.635158,-2.603595 0.244895,-0.243995 0.267849,-0.241259 3.07538,0.366989 1.555756,0.33705 3.088399,0.651302 3.405875,0.698337 0.656771,0.09731 0.597505,0.176785 1.124749,-1.508524 0.151421,-0.484013 0.404905,-1.01478 0.563294,-1.179482 l 0.287984,-0.299459 5.386401,0.112717 c 2.962523,0.06199 5.440152,0.06945 5.505836,0.01659 0.06569,-0.05287 1.286288,-0.09612 2.712444,-0.09612 2.528023,0 2.599543,0.007 2.853613,0.282865 0.224423,0.243596 1.417557,3.681882 1.417557,4.085012 0,0.07871 0.04619,0.171673 0.102679,0.206571 0.05647,0.03487 2.884463,0.772804 6.28443,1.639782 3.399966,0.866979 6.294622,1.646809 6.432568,1.73296 0.305034,0.190494 0.453805,0.555401 1.119707,2.746436 0.631469,2.077725 0.644683,2.320685 0.141777,2.606856 -0.206996,0.117784 -0.376716,0.275721 -0.377153,0.350971 -9.5e-4,0.180016 0.836541,3.023916 0.939819,3.191032 0.04399,0.07117 0.159566,0.129384 0.256858,0.129384 0.443475,0 1.061392,0.435378 1.233811,0.869326 0.278763,0.701616 1.591681,4.977003 1.591681,5.183153 0,0.10124 -0.201098,0.379039 -0.446885,0.617324 l -0.446882,0.433245 -5.273266,0.03539 c -2.900297,0.01948 -5.273267,0.06267 -5.273267,0.096 0,0.03335 0.06041,0.158838 0.13423,0.278899 0.102343,0.166438 -0.01706,0.845521 -0.502645,2.858369 -0.350287,1.452038 -0.729321,2.849763 -0.842307,3.106051 -0.226734,0.514306 -0.05948,0.456266 -2.749379,0.95404 l -1.257177,0.232645 -0.125717,2.190888 -0.125717,2.190892 -0.44001,0.219811 c -0.514281,0.25691 -1.071422,0.279698 -1.49627,0.06121 -0.38594,-0.198485 -0.476379,-0.373265 -0.643068,-1.242719 -0.135736,-0.707993 -0.137766,-0.710425 -0.632748,-0.757627 -0.404141,-0.03854 -0.496571,-0.007 -0.496571,0.168842 0,0.511814 -0.952122,0.782096 -1.4721,0.417886 -0.223108,-0.156273 -0.286294,-0.366556 -0.358357,-1.192671 -0.08173,-0.93695 -0.105046,-0.9991 -0.354263,-0.944377 -1.571569,0.345076 -2.600436,0.441009 -4.72975,0.441009 -2.129307,0 -3.158176,-0.09594 -4.729745,-0.441009 -0.249217,-0.05472 -0.272532,0.0074 -0.354264,0.944377 -0.07207,0.826115 -0.135248,1.036398 -0.358356,1.192671 -0.519979,0.36421 -1.4721,0.09393 -1.4721,-0.417886 0,-0.175955 -0.09244,-0.207382 -0.496572,-0.168842 -0.494981,0.04719 -0.497011,0.04963 -0.632748,0.757627 -0.166688,0.869454 -0.257128,1.044234 -0.643067,1.242719 -0.424848,0.218499 -0.981989,0.195712 -1.496272,-0.06121 z"
       id="path186" /><path
       style="fill:#000000;stroke-width:0.125717"
       d="M 95.432139,68.860097 V 18.573076 h 1.948618 1.948628 v 50.287021 50.287023 h -1.948628 -1.948618 z"
       id="path184" /></g></svg>
